<svg xmlns="http://www.w3.org/2000/svg" viewBox="0 0 31.91 31.91"><defs><style>.cls-1{fill:#969696;}</style></defs><g id="Layer_2" data-name="Layer 2"><g id="Layer_1-2" data-name="Layer 1"><path class="cls-1" d="M16,19.15A1.07,1.07,0,1,1,16,17,1.06,1.06,0,0,1,17,18.08h1.07a2.14,2.14,0,0,0-1.6-2v-.61H15.43V16A2.12,2.12,0,0,0,16,20.21a1.07,1.07,0,0,1,0,2.13,1.07,1.07,0,0,1-1.07-1.07H13.83a2.14,2.14,0,0,0,1.6,2.06v.6h1.06v-.6A2.12,2.12,0,0,0,16,19.15Z"/><path class="cls-1" d="M16,12.76a6.92,6.92,0,1,0,6.91,6.92A6.92,6.92,0,0,0,16,12.76Zm0,12.77a5.85,5.85,0,1,1,5.85-5.85A5.85,5.85,0,0,1,16,25.53Z"/><path class="cls-1" d="M31.38,11.7a.53.53,0,0,0,.53-.53V9a.51.51,0,0,0,0-.17v0a.42.42,0,0,0-.11-.15.1.1,0,0,0-.05,0,.19.19,0,0,0-.07-.06L16.21.07a.52.52,0,0,0-.51,0L.28,8.58a.16.16,0,0,0-.08.06l-.05,0A.42.42,0,0,0,0,8.83v0A1,1,0,0,0,0,9v2.15a.53.53,0,0,0,.53.53h1.6v16H.53a.53.53,0,0,0-.53.53v3.19a.53.53,0,0,0,.53.53H31.38a.53.53,0,0,0,.53-.53V28.19a.52.52,0,0,0-.53-.53H29.79v-16ZM16,1.14,29.32,8.51H2.6ZM30.85,28.72v2.13H1.07V28.72ZM3.19,27.66v-16H5.32v16Zm3.19,0v-16H25.53v16Zm20.21,0v-16h2.13v16Zm-25.52-17V9.57H30.85v1.07Z"/></g></g></svg>