<svg xmlns="http://www.w3.org/2000/svg" viewBox="0 0 32 32"><defs><style>.cls-1{fill:#969696;}</style></defs><g id="Layer_2" data-name="Layer 2"><g id="Layer_1-2" data-name="Layer 1"><path class="cls-1" d="M16,32A16,16,0,0,1,0,16,16,16,0,0,1,16,0,16,16,0,0,1,32,16,16,16,0,0,1,16,32ZM16,2A14,14,0,1,0,30,16,14,14,0,0,0,16,2Z"/><path class="cls-1" d="M19.64,16A4,4,0,0,0,18.5,9.29V8a1,1,0,0,0-2,0V9h-2V8a1,1,0,0,0-2,0V9h-2a1,1,0,0,0,0,2h1V21h-1a1,1,0,0,0,0,2h2v1a1,1,0,0,0,2,0V23h2v1a1,1,0,0,0,2,0V22.71A4,4,0,0,0,19.64,16ZM13.5,11H17a2,2,0,0,1,0,4H13.5ZM17,21H13.5V17H17a2,2,0,0,1,0,4Z"/></g></g></svg>