<svg xmlns="http://www.w3.org/2000/svg" xmlns:xlink="http://www.w3.org/1999/xlink" viewBox="0 0 43.1 41.85"><defs><style>.cls-1{fill:none;}.cls-2{clip-path:url(#clip-path);}</style><clipPath id="clip-path" transform="translate(-0.07)"><rect class="cls-1" width="43.17" height="41.85"/></clipPath></defs><g id="Layer_2" data-name="Layer 2"><g id="Layer_1-2" data-name="Layer 1"><rect x="15.68" y="31.03" width="2.89" height="10.82"/><path d="M20.08,41.85H23V26.7l-2.89,3.84Z" transform="translate(-0.07)"/><rect x="24.34" y="25.25" width="2.89" height="16.59"/><path d="M5.65,41.85V37.17L1.56,41.85Z" transform="translate(-0.07)"/><path d="M7.09,41.85H10V32.22l-2.89,3.3Z" transform="translate(-0.07)"/><rect x="11.35" y="31.03" width="2.89" height="10.82"/><path d="M28.74,25.25v16.6h2.89V24.11l-1.15,1.14Z" transform="translate(-0.07)"/><path d="M33.79,2.89a6.49,6.49,0,1,0,6.49,6.49,6.5,6.5,0,0,0-6.49-6.49Zm2.89,5.05H35.23V7.22H33.07a.72.72,0,0,0,0,1.44h1.44a2.17,2.17,0,1,1,0,4.33v1.44H33.07V13H30.9V10.82h1.45v.72h2.16a.72.72,0,0,0,0-1.44H33.07a2.17,2.17,0,1,1,0-4.33V4.33h1.44V5.77h2.17Z" transform="translate(-0.07)"/><g class="cls-2"><path d="M33.07,22.67V41.85H36V20l-.25,0Z" transform="translate(-0.07)"/><path d="M33.79,0a9.38,9.38,0,1,0,9.38,9.38A9.39,9.39,0,0,0,33.79,0Zm0,17.32a7.94,7.94,0,1,1,7.94-7.94,7.95,7.95,0,0,1-7.94,7.94Z" transform="translate(-0.07)"/></g><path d="M37.4,41.85h2.88V18a11,11,0,0,1-2.88,1.55Z" transform="translate(-0.07)"/><path d="M4.21,25.25H5.65V22.37H7.09V13.71H5.65V10.82H4.21v2.89H2.77v8.66H4.21Z" transform="translate(-0.07)"/><path d="M10,21.65h1.44V18.76h1.45V11.54H11.42V8.66H10v2.88H8.54v7.22H10Z" transform="translate(-0.07)"/><path d="M15.75,16.59H17.2V13.71h1.44V7.94H17.2V5.05H15.75V7.94H14.31v5.77h1.44Z" transform="translate(-0.07)"/><path d="M31.46,19.94a10.06,10.06,0,0,1-1.56-.47l-1.46,1.45h-5.8L17.59,26.7H8.94L.07,36.31l1.06,1,8.44-9.15h8.68l5.05-5.77H29Z" transform="translate(-0.07)"/></g></g></svg>