<svg xmlns="http://www.w3.org/2000/svg" viewBox="0 0 32 29.5"><defs><style>.cls-1{fill:#969696;}</style></defs><g id="Layer_2" data-name="Layer 2"><g id="Layer_1-2" data-name="Layer 1"><path class="cls-1" d="M17.5,13.12h5.62V9.37h3.75V3.75H23.12V0H17.5V3.75H13.75V9.37H17.5ZM15.62,7.5V5.62h3.75V1.87h1.88V5.62H25V7.5H21.25v3.75H19.37V7.5Z"/><path class="cls-1" d="M31.68,17.58a3,3,0,0,0-1.74-1.49,2.94,2.94,0,0,0-2.29.16l-5.3,2.68A3,3,0,0,0,19.55,17H16a8.08,8.08,0,0,0-5.56-2.11A13,13,0,0,0,6,16V14.78H0V29.5H6V26.57l12.53,2.36,11.85-7.34a3,3,0,0,0,1.29-4Zm-27.55,10H1.88v-11H4.13Zm25.94-8.34a1.14,1.14,0,0,1-.56.66h0l-11.3,7L6,24.66V18.05l.29-.12a13.07,13.07,0,0,1,4.12-1.18,6.1,6.1,0,0,1,4.48,1.82l.28.3h4.37a1.13,1.13,0,0,1,0,2.25H11.44V23h8.11a3,3,0,0,0,2.81-2l6.13-3.1a1.13,1.13,0,0,1,1.51.5,1.09,1.09,0,0,1,.07.85Z"/></g></g></svg>