<svg xmlns="http://www.w3.org/2000/svg" viewBox="0 0 25.14 32"><defs><style>.cls-1{fill:#969696;}</style></defs><g id="Layer_2" data-name="Layer 2"><g id="Layer_1-2" data-name="Layer 1"><path class="cls-1" d="M21.94,4.19H19.05V2.9c0-.42-.46-.61-.88-.61H15.92A3.4,3.4,0,0,0,12.53,0,3.48,3.48,0,0,0,9.14,2.29H6.93c-.42,0-.84.19-.84.61V4.19H3.2A3.24,3.24,0,0,0,0,7.28V29.1A3.06,3.06,0,0,0,3.2,32H21.94a3.06,3.06,0,0,0,3.2-2.9V7.28A3.24,3.24,0,0,0,21.94,4.19ZM7.62,3.81H9.71a.84.84,0,0,0,.73-.68,2.2,2.2,0,0,1,2.09-1.72,2.17,2.17,0,0,1,2.06,1.72.84.84,0,0,0,.76.68h2.17V6.86H7.62Zm16,25.29a1.55,1.55,0,0,1-1.68,1.38H3.2A1.55,1.55,0,0,1,1.52,29.1V7.28A1.71,1.71,0,0,1,3.2,5.72H6.09V7.66a.8.8,0,0,0,.84.72H18.17a.83.83,0,0,0,.88-.72V5.72h2.89a1.71,1.71,0,0,1,1.68,1.56Z"/><path class="cls-1" d="M8.57,17,6.13,19.32l-1-1.07a.76.76,0,0,0-1.06,0,.8.8,0,0,0,0,1.11l1.56,1.6a.66.66,0,0,0,.53.22.77.77,0,0,0,.54-.22l3-2.82a.74.74,0,0,0,0-1l0,0A.77.77,0,0,0,8.57,17Z"/><path class="cls-1" d="M20.57,18.67H11.81a.76.76,0,0,0,0,1.52h8.76a.76.76,0,0,0,0-1.52Z"/><path class="cls-1" d="M8.57,10.9,6.13,13.22l-1-1.07a.75.75,0,0,0-1.06,0,.78.78,0,0,0,0,1.1l1.56,1.6a.67.67,0,0,0,.53.23.78.78,0,0,0,.54-.23l3-2.82a.72.72,0,0,0,0-1l0-.05A.77.77,0,0,0,8.57,10.9Z"/><path class="cls-1" d="M20.57,12.57H11.81a.77.77,0,0,0,0,1.53h8.76a.77.77,0,0,0,0-1.53Z"/><path class="cls-1" d="M8.57,23.09,6.13,25.41l-1-1.07a.75.75,0,0,0-1.06,0,.78.78,0,0,0,0,1.1L5.6,27a.7.7,0,0,0,.53.23A.78.78,0,0,0,6.67,27l3-2.82a.72.72,0,0,0,0-1l0-.05A.77.77,0,0,0,8.57,23.09Z"/><path class="cls-1" d="M20.57,24.76H11.81a.77.77,0,0,0,0,1.53h8.76a.77.77,0,0,0,0-1.53Z"/></g></g></svg>