<?xml version="1.0" encoding="utf-8"?>
<!-- Generator: Adobe Illustrator 23.0.0, SVG Export Plug-In . SVG Version: 6.00 Build 0)  -->
<svg version="1.0" id="Layer_1" xmlns="http://www.w3.org/2000/svg" xmlns:xlink="http://www.w3.org/1999/xlink" x="0px" y="0px"
	 viewBox="0 0 14.06 11.43" style="enable-background:new 0 0 14.06 11.43;" xml:space="preserve">
<style type="text/css">
	.st0{fill:#F2F5F7;}
	.st1{fill:#A92807;}
	.st2{fill:#1E1D22;}
	.st3{clip-path:url(#SVGID_2_);}
	.st4{fill:#FFFFFF;}
	.st5{fill:none;stroke:#F2F5F7;}
	.st6{fill:#2A323C;}
	.st7{fill:#1F2529;}
	.st8{fill:#96A1AB;}
	.st9{fill:#8EA1B2;}
	.st10{clip-path:url(#SVGID_6_);fill:#D00027;}
	.st11{clip-path:url(#SVGID_6_);}
	.st12{clip-path:url(#SVGID_8_);fill:#FFFFFF;}
	.st13{clip-path:url(#SVGID_8_);fill:#D00027;}
	.st14{clip-path:url(#SVGID_10_);fill:#FFFFFF;}
	.st15{clip-path:url(#SVGID_10_);fill:#BD0034;}
	.st16{clip-path:url(#SVGID_10_);fill:#1A237B;}
	.st17{clip-path:url(#SVGID_12_);}
	.st18{clip-path:url(#SVGID_16_);}
	.st19{clip-path:url(#SVGID_20_);}
	.st20{opacity:0.4;clip-path:url(#SVGID_24_);}
	.st21{clip-path:url(#SVGID_26_);fill:#FFFFFF;}
	.st22{clip-path:url(#SVGID_24_);fill:#A92807;}
	.st23{clip-path:url(#SVGID_28_);fill:#FFFFFF;}
	.st24{opacity:0.8;}
	.st25{clip-path:url(#SVGID_30_);}
	.st26{filter:url(#Adobe_OpacityMaskFilter);}
	.st27{clip-path:url(#SVGID_32_);}
	.st28{enable-background:new    ;}
	.st29{opacity:0.1412;clip-path:url(#SVGID_32_);mask:url(#SVGID_33_);}
	.st30{clip-path:url(#SVGID_37_);}
	.st31{clip-path:url(#SVGID_39_);fill:url(#SVGID_40_);}
	.st32{fill:#C4001C;}
	.st33{clip-path:url(#SVGID_42_);}
	.st34{clip-path:url(#SVGID_46_);}
	.st35{opacity:0.74;clip-path:url(#SVGID_50_);}
	.st36{clip-path:url(#SVGID_52_);}
	.st37{clip-path:url(#SVGID_54_);}
	.st38{clip-path:url(#SVGID_58_);fill:#8EA1B2;}
	.st39{clip-path:url(#SVGID_58_);fill:#A92807;}
	.st40{clip-path:url(#SVGID_58_);fill:#384657;}
	.st41{clip-path:url(#SVGID_60_);}
	.st42{fill:#384657;}
	.st43{clip-path:url(#SVGID_64_);fill:#384657;}
	.st44{clip-path:url(#SVGID_64_);fill:#8EA1B2;}
	.st45{clip-path:url(#SVGID_64_);fill:#A92807;}
	.st46{clip-path:url(#SVGID_66_);}
	.st47{fill:#E1E4E5;}
	.st48{clip-path:url(#SVGID_70_);fill:#384657;}
	.st49{clip-path:url(#SVGID_70_);fill:#8EA1B2;}
	.st50{clip-path:url(#SVGID_70_);fill:#A92807;}
	.st51{clip-path:url(#SVGID_72_);}
	.st52{clip-path:url(#SVGID_76_);fill:#384657;}
	.st53{clip-path:url(#SVGID_76_);fill:#8EA1B2;}
	.st54{clip-path:url(#SVGID_76_);fill:#A92807;}
	.st55{clip-path:url(#SVGID_78_);}
	.st56{opacity:0.6;}
	.st57{clip-path:url(#SVGID_82_);fill:#FFFFFF;}
	.st58{clip-path:url(#SVGID_84_);fill:#FFFFFF;}
	.st59{clip-path:url(#SVGID_86_);fill:#D00027;}
	.st60{clip-path:url(#SVGID_86_);}
	.st61{clip-path:url(#SVGID_88_);fill:#FFFFFF;}
	.st62{clip-path:url(#SVGID_88_);fill:#D00027;}
	.st63{clip-path:url(#SVGID_90_);}
	.st64{clip-path:url(#SVGID_94_);}
	.st65{clip-path:url(#SVGID_98_);}
	.st66{opacity:0.4;clip-path:url(#SVGID_102_);}
	.st67{clip-path:url(#SVGID_104_);fill:#FFFFFF;}
	.st68{clip-path:url(#SVGID_102_);fill:#A92807;}
	.st69{clip-path:url(#SVGID_106_);fill:#FFFFFF;}
	.st70{opacity:0.5;}
	.st71{clip-path:url(#SVGID_108_);}
	.st72{filter:url(#Adobe_OpacityMaskFilter_1_);}
	.st73{clip-path:url(#SVGID_110_);}
	.st74{opacity:0.1412;clip-path:url(#SVGID_110_);mask:url(#SVGID_111_);}
	.st75{clip-path:url(#SVGID_115_);}
	.st76{fill:none;stroke:#FFFFFF;stroke-width:3;stroke-linecap:round;stroke-linejoin:round;stroke-miterlimit:10;}
	.st77{opacity:0.502;}
	.st78{opacity:0.7;}
	.st79{clip-path:url(#SVGID_123_);fill:#D00027;}
	.st80{clip-path:url(#SVGID_123_);}
	.st81{clip-path:url(#SVGID_125_);fill:#FFFFFF;}
	.st82{clip-path:url(#SVGID_125_);fill:#D00027;}
	.st83{clip-path:url(#SVGID_127_);}
	.st84{clip-path:url(#SVGID_131_);}
	.st85{clip-path:url(#SVGID_135_);}
	.st86{clip-path:url(#SVGID_141_);}
	.st87{filter:url(#Adobe_OpacityMaskFilter_2_);}
	.st88{clip-path:url(#SVGID_143_);}
	.st89{opacity:0.1412;clip-path:url(#SVGID_143_);mask:url(#SVGID_144_);}
	.st90{clip-path:url(#SVGID_148_);}
	.st91{clip-path:url(#SVGID_150_);fill:#D00027;}
	.st92{clip-path:url(#SVGID_150_);}
	.st93{clip-path:url(#SVGID_152_);fill:#FFFFFF;}
	.st94{clip-path:url(#SVGID_152_);fill:#D00027;}
	.st95{clip-path:url(#SVGID_154_);}
	.st96{clip-path:url(#SVGID_158_);}
	.st97{clip-path:url(#SVGID_162_);}
	.st98{opacity:0.4;clip-path:url(#SVGID_166_);}
	.st99{clip-path:url(#SVGID_168_);fill:#FFFFFF;}
	.st100{clip-path:url(#SVGID_166_);fill:#A92807;}
	.st101{clip-path:url(#SVGID_170_);fill:#FFFFFF;}
	.st102{clip-path:url(#SVGID_172_);}
	.st103{fill:none;stroke:#FFFFFF;stroke-width:0.5;stroke-miterlimit:10;}
</style>
<path class="st4" d="M12.4,1.81c0.55-0.06,1.11-0.21,1.66-0.45c-0.39,0.58-0.88,1.07-1.44,1.49v0.37c0,0.78-0.11,1.55-0.34,2.32
	c-0.22,0.77-0.57,1.51-1.02,2.22C10.8,8.48,10.26,9.1,9.62,9.63c-0.64,0.53-1.41,0.97-2.3,1.31c-0.9,0.34-1.86,0.5-2.9,0.48
	c-1.61,0-3.08-0.43-4.42-1.3c0.2,0.02,0.43,0.03,0.69,0.03c1.34,0,2.54-0.41,3.58-1.23c-0.63-0.01-1.19-0.2-1.68-0.58
	C2.1,7.98,1.76,7.5,1.57,6.93c0.2,0.03,0.38,0.05,0.54,0.05c0.26,0,0.51-0.03,0.77-0.1C2.21,6.74,1.65,6.41,1.22,5.89
	C0.78,5.37,0.56,4.75,0.56,4.05V4.02c0.4,0.22,0.84,0.35,1.31,0.37c-0.4-0.27-0.71-0.61-0.94-1.02C0.69,2.94,0.58,2.48,0.58,1.97
	s0.13-0.99,0.4-1.44C1.7,1.41,2.58,2.12,3.6,2.66c1.02,0.53,2.13,0.83,3.33,0.88C6.88,3.31,6.85,3.09,6.85,2.88
	c0-0.8,0.28-1.48,0.85-2.03C8.26,0.29,8.94,0.01,9.73,0c0.84,0,1.55,0.3,2.11,0.91c0.65-0.13,1.26-0.36,1.84-0.7
	C13.46,0.89,13.03,1.42,12.4,1.81"/>
</svg>
