<svg xmlns="http://www.w3.org/2000/svg" viewBox="0 0 42.8 42.8"><g id="Layer_2" data-name="Layer 2"><g id="Layer_1-2" data-name="Layer 1"><rect x="9.66" y="38.66" width="4.14" height="1.38"/><path d="M41.4,20h0V17.26A3.45,3.45,0,0,0,38,13.81h0c0-.23,0-.46,0-.69a9,9,0,0,0-14.5-7.06V3.45A3.46,3.46,0,0,0,20,0H3.45A3.46,3.46,0,0,0,0,3.45v35.9A3.46,3.46,0,0,0,3.45,42.8H20a3.46,3.46,0,0,0,3.45-3.45v-.69H39.35a3.46,3.46,0,0,0,3.45-3.45V22.78A3.46,3.46,0,0,0,41.4,20ZM38,15.19A2.07,2.07,0,0,1,40,17.26V19.4a3.17,3.17,0,0,0-.69-.07h-3.9a8.9,8.9,0,0,0,2.27-4.14ZM29,5.52a7.59,7.59,0,0,1,4.35,13.81H29.68V17.85A2.75,2.75,0,0,0,29,12.43a1.39,1.39,0,1,1,1.38-1.38h1.39a2.77,2.77,0,0,0-2.08-2.67V6.9H28.3V8.38A2.76,2.76,0,0,0,29,13.81a1.38,1.38,0,1,1-1.38,1.38H26.23a2.77,2.77,0,0,0,2.07,2.66v1.48H24.65A7.59,7.59,0,0,1,29,5.52ZM15.26,35.9H1.38V5.52H22.09V7.39A9,9,0,0,0,20,13.12c0,.23,0,.46,0,.69H18.64a3.45,3.45,0,0,0-3.45,3.45v18a3.23,3.23,0,0,0,.07.69Zm3.38-20.71h1.63a8.55,8.55,0,0,0,.45,1.38H18.64V18H21.4v-.08a8.84,8.84,0,0,0,1.14,1.46h-3.9a2.07,2.07,0,0,1,0-4.14ZM3.45,1.38H20a2.07,2.07,0,0,1,2.07,2.07v.69H1.38V3.45A2.07,2.07,0,0,1,3.45,1.38Zm18.64,38A2.07,2.07,0,0,1,20,41.42H3.45a2.07,2.07,0,0,1-2.07-2.07V37.28h14.5v0a3.46,3.46,0,0,0,2.76,1.4h3.45Zm17.26-2.07H18.64a2.07,2.07,0,0,1-2.07-2.07V20a3.46,3.46,0,0,0,2.07.69H39.35a2.07,2.07,0,0,1,2.07,2.07v2.07H33.14a4.15,4.15,0,1,0,0,8.29h8.28v2.07a2.07,2.07,0,0,1-2.07,2.07Zm2.07-11v5.53H33.14a2.77,2.77,0,1,1,0-5.53Z"/><rect x="31.76" y="28.3" width="1.38" height="1.38"/><rect x="33.83" y="12.43" width="1.38" height="1.38"/><rect x="22.78" y="12.43" width="1.38" height="1.38"/><rect x="40.04" y="6.9" width="1.38" height="1.38"/><rect x="40.04" y="9.66" width="1.38" height="1.38"/><rect x="41.42" y="8.28" width="1.38" height="1.38"/><rect x="38.66" y="8.28" width="1.38" height="1.38"/><rect x="16.57" y="8.28" width="1.38" height="1.38"/><rect x="16.57" y="11.05" width="1.38" height="1.38"/><rect x="17.95" y="9.66" width="1.38" height="1.38"/><rect x="15.19" y="9.66" width="1.38" height="1.38"/><rect x="34.52" width="1.38" height="1.38"/><rect x="34.52" y="2.76" width="1.38" height="1.38"/><rect x="35.9" y="1.38" width="1.38" height="1.38"/><rect x="33.14" y="1.38" width="1.38" height="1.38"/></g></g></svg>