<?xml version="1.0" encoding="utf-8"?>
<!-- Generator: Adobe Illustrator 23.0.0, SVG Export Plug-In . SVG Version: 6.00 Build 0)  -->
<svg version="1.0" id="Layer_1" xmlns="http://www.w3.org/2000/svg" xmlns:xlink="http://www.w3.org/1999/xlink" x="0px" y="0px"
	 viewBox="0 0 13.23 16" style="enable-background:new 0 0 13.23 16;" xml:space="preserve">
<style type="text/css">
	.st0{fill:#F2F5F7;}
	.st1{fill:#A92807;}
	.st2{fill:#1E1D22;}
	.st3{clip-path:url(#SVGID_2_);}
	.st4{fill:#FFFFFF;}
	.st5{fill:none;stroke:#F2F5F7;}
	.st6{fill:#2A323C;}
	.st7{fill:#1F2529;}
	.st8{fill:#96A1AB;}
	.st9{fill:#8EA1B2;}
	.st10{clip-path:url(#SVGID_6_);fill:#D00027;}
	.st11{clip-path:url(#SVGID_6_);}
	.st12{clip-path:url(#SVGID_8_);fill:#FFFFFF;}
	.st13{clip-path:url(#SVGID_8_);fill:#D00027;}
	.st14{clip-path:url(#SVGID_10_);fill:#FFFFFF;}
	.st15{clip-path:url(#SVGID_10_);fill:#BD0034;}
	.st16{clip-path:url(#SVGID_10_);fill:#1A237B;}
	.st17{clip-path:url(#SVGID_12_);}
	.st18{clip-path:url(#SVGID_16_);}
	.st19{clip-path:url(#SVGID_20_);}
	.st20{opacity:0.4;clip-path:url(#SVGID_24_);}
	.st21{clip-path:url(#SVGID_26_);fill:#FFFFFF;}
	.st22{clip-path:url(#SVGID_24_);fill:#A92807;}
	.st23{clip-path:url(#SVGID_28_);fill:#FFFFFF;}
	.st24{opacity:0.8;}
	.st25{clip-path:url(#SVGID_30_);}
	.st26{filter:url(#Adobe_OpacityMaskFilter);}
	.st27{clip-path:url(#SVGID_32_);}
	.st28{enable-background:new    ;}
	.st29{opacity:0.1412;clip-path:url(#SVGID_32_);mask:url(#SVGID_33_);}
	.st30{clip-path:url(#SVGID_37_);}
	.st31{clip-path:url(#SVGID_39_);fill:url(#SVGID_40_);}
	.st32{fill:#C4001C;}
	.st33{clip-path:url(#SVGID_42_);}
	.st34{clip-path:url(#SVGID_46_);}
	.st35{opacity:0.74;clip-path:url(#SVGID_50_);}
	.st36{clip-path:url(#SVGID_52_);}
	.st37{clip-path:url(#SVGID_54_);}
	.st38{clip-path:url(#SVGID_58_);fill:#8EA1B2;}
	.st39{clip-path:url(#SVGID_58_);fill:#A92807;}
	.st40{clip-path:url(#SVGID_58_);fill:#384657;}
	.st41{clip-path:url(#SVGID_60_);}
	.st42{fill:#384657;}
	.st43{clip-path:url(#SVGID_64_);fill:#384657;}
	.st44{clip-path:url(#SVGID_64_);fill:#8EA1B2;}
	.st45{clip-path:url(#SVGID_64_);fill:#A92807;}
	.st46{clip-path:url(#SVGID_66_);}
	.st47{fill:#E1E4E5;}
	.st48{clip-path:url(#SVGID_70_);fill:#384657;}
	.st49{clip-path:url(#SVGID_70_);fill:#8EA1B2;}
	.st50{clip-path:url(#SVGID_70_);fill:#A92807;}
	.st51{clip-path:url(#SVGID_72_);}
	.st52{clip-path:url(#SVGID_76_);fill:#384657;}
	.st53{clip-path:url(#SVGID_76_);fill:#8EA1B2;}
	.st54{clip-path:url(#SVGID_76_);fill:#A92807;}
	.st55{clip-path:url(#SVGID_78_);}
	.st56{opacity:0.6;}
	.st57{clip-path:url(#SVGID_82_);fill:#FFFFFF;}
	.st58{clip-path:url(#SVGID_84_);fill:#FFFFFF;}
	.st59{clip-path:url(#SVGID_86_);fill:#D00027;}
	.st60{clip-path:url(#SVGID_86_);}
	.st61{clip-path:url(#SVGID_88_);fill:#FFFFFF;}
	.st62{clip-path:url(#SVGID_88_);fill:#D00027;}
	.st63{clip-path:url(#SVGID_90_);}
	.st64{clip-path:url(#SVGID_94_);}
	.st65{clip-path:url(#SVGID_98_);}
	.st66{opacity:0.4;clip-path:url(#SVGID_102_);}
	.st67{clip-path:url(#SVGID_104_);fill:#FFFFFF;}
	.st68{clip-path:url(#SVGID_102_);fill:#A92807;}
	.st69{clip-path:url(#SVGID_106_);fill:#FFFFFF;}
	.st70{opacity:0.5;}
	.st71{clip-path:url(#SVGID_108_);}
	.st72{filter:url(#Adobe_OpacityMaskFilter_1_);}
	.st73{clip-path:url(#SVGID_110_);}
	.st74{opacity:0.1412;clip-path:url(#SVGID_110_);mask:url(#SVGID_111_);}
	.st75{clip-path:url(#SVGID_115_);}
	.st76{fill:none;stroke:#FFFFFF;stroke-width:3;stroke-linecap:round;stroke-linejoin:round;stroke-miterlimit:10;}
	.st77{opacity:0.502;}
	.st78{opacity:0.7;}
	.st79{clip-path:url(#SVGID_123_);fill:#D00027;}
	.st80{clip-path:url(#SVGID_123_);}
	.st81{clip-path:url(#SVGID_125_);fill:#FFFFFF;}
	.st82{clip-path:url(#SVGID_125_);fill:#D00027;}
	.st83{clip-path:url(#SVGID_127_);}
	.st84{clip-path:url(#SVGID_131_);}
	.st85{clip-path:url(#SVGID_135_);}
	.st86{clip-path:url(#SVGID_141_);}
	.st87{filter:url(#Adobe_OpacityMaskFilter_2_);}
	.st88{clip-path:url(#SVGID_143_);}
	.st89{opacity:0.1412;clip-path:url(#SVGID_143_);mask:url(#SVGID_144_);}
	.st90{clip-path:url(#SVGID_148_);}
	.st91{clip-path:url(#SVGID_150_);fill:#D00027;}
	.st92{clip-path:url(#SVGID_150_);}
	.st93{clip-path:url(#SVGID_152_);fill:#FFFFFF;}
	.st94{clip-path:url(#SVGID_152_);fill:#D00027;}
	.st95{clip-path:url(#SVGID_154_);}
	.st96{clip-path:url(#SVGID_158_);}
	.st97{clip-path:url(#SVGID_162_);}
	.st98{opacity:0.4;clip-path:url(#SVGID_166_);}
	.st99{clip-path:url(#SVGID_168_);fill:#FFFFFF;}
	.st100{clip-path:url(#SVGID_166_);fill:#A92807;}
	.st101{clip-path:url(#SVGID_170_);fill:#FFFFFF;}
	.st102{clip-path:url(#SVGID_172_);}
	.st103{fill:none;stroke:#FFFFFF;stroke-width:0.5;stroke-miterlimit:10;}
</style>
<path class="st4" d="M13.01,8.27c0.15,0.66,0.22,1.7,0.22,3.12c0,1.4-0.07,2.44-0.22,3.12c-0.09,0.35-0.26,0.65-0.53,0.9
	c-0.27,0.24-0.57,0.38-0.91,0.4C10.48,15.93,8.83,16,6.62,16s-3.86-0.07-4.96-0.19c-0.34-0.03-0.65-0.17-0.91-0.4
	c-0.27-0.23-0.44-0.53-0.51-0.9C0.08,13.85,0,12.82,0,11.41C0,10,0.08,8.95,0.24,8.27c0.07-0.35,0.24-0.65,0.51-0.89
	c0.27-0.25,0.57-0.38,0.91-0.42c1.1-0.12,2.75-0.18,4.96-0.18s3.86,0.06,4.94,0.18C11.92,7,12.23,7.14,12.5,7.38
	C12.76,7.61,12.93,7.91,13.01,8.27 M2.82,9.17h0.96V8.34H0.99v0.83h0.94v5.09h0.88V9.17z M4.32,0h0.91L4.16,3.57v2.42h-0.9V3.57
	C3.18,3.12,3,2.49,2.72,1.66C2.5,1.06,2.3,0.5,2.13,0h0.96l0.62,2.35L4.32,0z M5.39,14.26h0.8V9.84h-0.8v3.38
	c-0.18,0.25-0.35,0.37-0.51,0.37c-0.11,0-0.17-0.06-0.18-0.18c-0.01-0.02-0.02-0.13-0.02-0.32V9.84h-0.8v3.49
	c0,0.3,0.03,0.52,0.08,0.66c0.07,0.23,0.25,0.34,0.53,0.34c0.28,0,0.58-0.18,0.9-0.54V14.26z M7.38,1.92
	C7.55,2.14,7.63,2.5,7.63,2.98v1.55c0,0.49-0.09,0.84-0.26,1.06C7.15,5.89,6.84,6.05,6.44,6.05c-0.4,0-0.72-0.15-0.95-0.46
	C5.33,5.36,5.25,5.01,5.25,4.53V2.98c0-0.48,0.08-0.83,0.24-1.05c0.23-0.3,0.55-0.45,0.95-0.45C6.84,1.47,7.15,1.62,7.38,1.92
	 M6.82,4.69V2.82c0-0.41-0.13-0.62-0.38-0.62c-0.26,0-0.38,0.21-0.38,0.62v1.87c0,0.42,0.13,0.62,0.38,0.62
	C6.69,5.31,6.82,5.1,6.82,4.69 M9.15,13.82c0.05-0.16,0.08-0.46,0.08-0.89v-1.76c0-0.44-0.03-0.73-0.08-0.88
	c-0.11-0.33-0.32-0.5-0.62-0.5s-0.59,0.16-0.85,0.48V8.34h-0.8v5.92h0.8v-0.43c0.27,0.33,0.54,0.5,0.83,0.5
	C8.83,14.32,9.05,14.15,9.15,13.82 M8.08,10.51c0.23,0,0.35,0.2,0.35,0.59v1.89c0,0.4-0.12,0.59-0.35,0.59
	c-0.14,0-0.27-0.07-0.4-0.19V10.7C7.81,10.58,7.94,10.51,8.08,10.51 M10.62,1.52v4.46H9.81v-0.5C9.49,5.86,9.18,6.05,8.88,6.05
	c-0.27,0-0.44-0.11-0.53-0.34C8.31,5.57,8.29,5.35,8.29,5.04V1.52H9.1v3.6C9.13,5.25,9.19,5.31,9.3,5.31c0.16,0,0.33-0.13,0.51-0.38
	V1.52H10.62z M12.22,13.36c0.01-0.05,0.02-0.23,0.02-0.53v-0.11h-0.82c0,0.31-0.01,0.49-0.02,0.54c-0.04,0.21-0.16,0.32-0.35,0.32
	c-0.28,0-0.42-0.2-0.42-0.61v-0.78h1.6v-0.91c0-0.47-0.08-0.82-0.24-1.04c-0.23-0.3-0.55-0.45-0.95-0.45c-0.4,0-0.72,0.15-0.95,0.45
	c-0.16,0.23-0.24,0.57-0.24,1.04v1.54c0,0.47,0.09,0.82,0.26,1.04c0.24,0.31,0.56,0.46,0.98,0.46s0.73-0.16,0.94-0.48
	C12.14,13.68,12.2,13.52,12.22,13.36 M11.46,11.12v0.4h-0.82v-0.4c0-0.4,0.13-0.61,0.4-0.61C11.31,10.51,11.45,10.71,11.46,11.12"/>
</svg>
