<?xml version="1.0" encoding="utf-8"?>
<!-- Generator: Adobe Illustrator 24.0.3, SVG Export Plug-In . SVG Version: 6.00 Build 0)  -->
<svg version="1.0" id="Layer_1" xmlns="http://www.w3.org/2000/svg" xmlns:xlink="http://www.w3.org/1999/xlink" x="0px" y="0px"
	 viewBox="0 0 105.43 33.89" style="enable-background:new 0 0 105.43 33.89;" xml:space="preserve">
<style type="text/css">
	.st0{fill:url(#SVGID_1_);}
	.st1{fill:#17516B;}
	.st2{fill:#3A7289;}
	.st3{opacity:0.8;fill:#2C6477;}
	.st4{clip-path:url(#SVGID_5_);fill:#FFFFFF;}
	.st5{clip-path:url(#SVGID_5_);fill:#BD0034;}
	.st6{clip-path:url(#SVGID_5_);fill:url(#SVGID_6_);}
	.st7{clip-path:url(#SVGID_5_);fill:url(#SVGID_7_);}
	.st8{clip-path:url(#SVGID_5_);fill:url(#SVGID_8_);}
	.st9{clip-path:url(#SVGID_5_);fill:url(#SVGID_9_);}
	.st10{clip-path:url(#SVGID_5_);fill:url(#SVGID_10_);}
	.st11{clip-path:url(#SVGID_5_);fill:url(#SVGID_11_);}
	.st12{clip-path:url(#SVGID_5_);fill:url(#SVGID_12_);}
	.st13{clip-path:url(#SVGID_5_);fill:url(#SVGID_13_);}
	.st14{fill:#F2F5F7;}
	.st15{fill:#A92807;}
	.st16{fill:#1E1D22;}
	.st17{clip-path:url(#SVGID_15_);}
	.st18{fill:#FFFFFF;}
	.st19{fill:none;stroke:#F2F5F7;}
	.st20{clip-path:url(#SVGID_19_);fill:#8EA1B2;}
	.st21{clip-path:url(#SVGID_19_);fill:#A92807;}
	.st22{clip-path:url(#SVGID_19_);fill:#384657;}
	.st23{clip-path:url(#SVGID_21_);}
	.st24{fill:#8EA1B2;}
	.st25{fill:#384657;}
	.st26{clip-path:url(#SVGID_25_);fill:#384657;}
	.st27{clip-path:url(#SVGID_25_);fill:#8EA1B2;}
	.st28{clip-path:url(#SVGID_25_);fill:#A92807;}
	.st29{clip-path:url(#SVGID_27_);}
	.st30{fill:#E1E4E5;}
	.st31{clip-path:url(#SVGID_31_);fill:#384657;}
	.st32{clip-path:url(#SVGID_31_);fill:#8EA1B2;}
	.st33{clip-path:url(#SVGID_31_);fill:#A92807;}
	.st34{clip-path:url(#SVGID_33_);}
	.st35{clip-path:url(#SVGID_37_);fill:#384657;}
	.st36{clip-path:url(#SVGID_37_);fill:#8EA1B2;}
	.st37{clip-path:url(#SVGID_37_);fill:#A92807;}
	.st38{clip-path:url(#SVGID_39_);}
	.st39{fill:#2A323C;}
	.st40{fill:#1F2529;}
	.st41{fill:#96A1AB;}
	.st42{clip-path:url(#SVGID_43_);fill:#D00027;}
	.st43{clip-path:url(#SVGID_43_);}
	.st44{clip-path:url(#SVGID_45_);fill:#FFFFFF;}
	.st45{clip-path:url(#SVGID_45_);fill:#D00027;}
	.st46{clip-path:url(#SVGID_47_);}
	.st47{clip-path:url(#SVGID_51_);}
	.st48{clip-path:url(#SVGID_55_);}
	.st49{opacity:0.4;clip-path:url(#SVGID_59_);}
	.st50{clip-path:url(#SVGID_61_);fill:#FFFFFF;}
	.st51{clip-path:url(#SVGID_59_);fill:#A92807;}
	.st52{clip-path:url(#SVGID_63_);fill:#FFFFFF;}
	.st53{opacity:0.5;}
	.st54{clip-path:url(#SVGID_65_);}
	.st55{filter:url(#Adobe_OpacityMaskFilter);}
	.st56{clip-path:url(#SVGID_67_);}
	.st57{enable-background:new    ;}
	.st58{opacity:0.1412;clip-path:url(#SVGID_67_);mask:url(#SVGID_68_);}
	.st59{clip-path:url(#SVGID_72_);}
	.st60{fill:none;stroke:#FFFFFF;stroke-width:3;stroke-linecap:round;stroke-linejoin:round;stroke-miterlimit:10;}
	.st61{opacity:0.502;}
	.st62{opacity:0.7;}
	.st63{clip-path:url(#SVGID_74_);fill:#D00027;}
	.st64{clip-path:url(#SVGID_74_);}
	.st65{clip-path:url(#SVGID_76_);fill:#FFFFFF;}
	.st66{clip-path:url(#SVGID_76_);fill:#D00027;}
	.st67{clip-path:url(#SVGID_78_);}
	.st68{clip-path:url(#SVGID_82_);}
	.st69{clip-path:url(#SVGID_86_);}
	.st70{clip-path:url(#SVGID_92_);}
	.st71{filter:url(#Adobe_OpacityMaskFilter_1_);}
	.st72{clip-path:url(#SVGID_94_);}
	.st73{opacity:0.1412;clip-path:url(#SVGID_94_);mask:url(#SVGID_95_);}
	.st74{clip-path:url(#SVGID_99_);}
	.st75{clip-path:url(#SVGID_101_);fill:#D00027;}
	.st76{clip-path:url(#SVGID_101_);}
	.st77{clip-path:url(#SVGID_103_);fill:#FFFFFF;}
	.st78{clip-path:url(#SVGID_103_);fill:#D00027;}
	.st79{clip-path:url(#SVGID_105_);}
	.st80{clip-path:url(#SVGID_109_);}
	.st81{clip-path:url(#SVGID_113_);}
	.st82{opacity:0.4;clip-path:url(#SVGID_117_);}
	.st83{clip-path:url(#SVGID_119_);fill:#FFFFFF;}
	.st84{clip-path:url(#SVGID_117_);fill:#A92807;}
	.st85{clip-path:url(#SVGID_121_);fill:#FFFFFF;}
	.st86{clip-path:url(#SVGID_123_);}
	.st87{fill:none;stroke:#FFFFFF;stroke-width:0.5;stroke-miterlimit:10;}
	.st88{opacity:0;fill:#3C464F;}
	.st89{opacity:3.960396e-03;fill:#3C464F;}
	.st90{opacity:7.920792e-03;fill:#3C464F;}
	.st91{opacity:0.0119;fill:#3C464F;}
	.st92{opacity:0.0158;fill:#3C464F;}
	.st93{opacity:0.0198;fill:#3C464F;}
	.st94{opacity:0.0238;fill:#3C464F;}
	.st95{opacity:0.0277;fill:#3C464F;}
	.st96{opacity:0.0317;fill:#3C464F;}
	.st97{opacity:0.0356;fill:#3C464F;}
	.st98{opacity:0.0396;fill:#3C464F;}
	.st99{opacity:0.0436;fill:#3C464F;}
	.st100{opacity:0.0475;fill:#3C464F;}
	.st101{opacity:0.0515;fill:#3C464F;}
	.st102{opacity:0.0554;fill:#3C464F;}
	.st103{opacity:0.0594;fill:#3C464F;}
	.st104{opacity:0.0634;fill:#3C464F;}
	.st105{opacity:0.0673;fill:#3C464F;}
	.st106{opacity:0.0713;fill:#3C464F;}
	.st107{opacity:0.0752;fill:#3C464F;}
	.st108{opacity:0.0792;fill:#3C464F;}
	.st109{opacity:0.0832;fill:#3C464F;}
	.st110{opacity:0.0871;fill:#3C464F;}
	.st111{opacity:0.0911;fill:#3C464F;}
	.st112{opacity:0.095;fill:#3C464F;}
	.st113{opacity:0.099;fill:#3C464F;}
	.st114{opacity:0.103;fill:#3C464F;}
	.st115{opacity:0.1069;fill:#3C464F;}
	.st116{opacity:0.1109;fill:#3C464F;}
	.st117{opacity:0.1149;fill:#3C464F;}
	.st118{opacity:0.1188;fill:#3C464F;}
	.st119{opacity:0.1228;fill:#3C464F;}
	.st120{opacity:0.1267;fill:#3C464F;}
	.st121{opacity:0.1307;fill:#3C464F;}
	.st122{opacity:0.1347;fill:#3C464F;}
	.st123{opacity:0.1386;fill:#3C464F;}
	.st124{opacity:0.1426;fill:#3C464F;}
	.st125{opacity:0.1465;fill:#3C464F;}
	.st126{opacity:0.1505;fill:#3C464F;}
	.st127{opacity:0.1545;fill:#3C464F;}
	.st128{opacity:0.1584;fill:#3C464F;}
	.st129{opacity:0.1624;fill:#3C464F;}
	.st130{opacity:0.1663;fill:#3C464F;}
	.st131{opacity:0.1703;fill:#3C464F;}
	.st132{opacity:0.1743;fill:#3C464F;}
	.st133{opacity:0.1782;fill:#3C464F;}
	.st134{opacity:0.1822;fill:#3C464F;}
	.st135{opacity:0.1861;fill:#3C464F;}
	.st136{opacity:0.1901;fill:#3C464F;}
	.st137{opacity:0.1941;fill:#3C464F;}
	.st138{opacity:0.198;fill:#3C464F;}
	.st139{opacity:0.202;fill:#3C464F;}
	.st140{opacity:0.2059;fill:#3C464F;}
	.st141{opacity:0.2099;fill:#3C464F;}
	.st142{opacity:0.2139;fill:#3C464F;}
	.st143{opacity:0.2178;fill:#3C464F;}
	.st144{opacity:0.2218;fill:#3C464F;}
	.st145{opacity:0.2257;fill:#3C464F;}
	.st146{opacity:0.2297;fill:#3C464F;}
	.st147{opacity:0.2337;fill:#3C464F;}
	.st148{opacity:0.2376;fill:#3C464F;}
	.st149{opacity:0.2416;fill:#3C464F;}
	.st150{opacity:0.2455;fill:#3C464F;}
	.st151{opacity:0.2495;fill:#3C464F;}
	.st152{opacity:0.2535;fill:#3C464F;}
	.st153{opacity:0.2574;fill:#3C464F;}
	.st154{opacity:0.2614;fill:#3C464F;}
	.st155{opacity:0.2653;fill:#3C464F;}
	.st156{opacity:0.2693;fill:#3C464F;}
	.st157{opacity:0.2733;fill:#3C464F;}
	.st158{opacity:0.2772;fill:#3C464F;}
	.st159{opacity:0.2812;fill:#3C464F;}
	.st160{opacity:0.2851;fill:#3C464F;}
	.st161{opacity:0.2891;fill:#3C464F;}
	.st162{opacity:0.2931;fill:#3C464F;}
	.st163{opacity:0.297;fill:#3C464F;}
	.st164{opacity:0.301;fill:#3C464F;}
	.st165{opacity:0.305;fill:#3C464F;}
	.st166{opacity:0.3089;fill:#3C464F;}
	.st167{opacity:0.3129;fill:#3C464F;}
	.st168{opacity:0.3168;fill:#3C464F;}
	.st169{opacity:0.3208;fill:#3C464F;}
	.st170{opacity:0.3248;fill:#3C464F;}
	.st171{opacity:0.3287;fill:#3C464F;}
	.st172{opacity:0.3327;fill:#3C464F;}
	.st173{opacity:0.3366;fill:#3C464F;}
	.st174{opacity:0.3406;fill:#3C464F;}
	.st175{opacity:0.3446;fill:#3C464F;}
	.st176{opacity:0.3485;fill:#3C464F;}
	.st177{opacity:0.3525;fill:#3C464F;}
	.st178{opacity:0.3564;fill:#3C464F;}
	.st179{opacity:0.3604;fill:#3C464F;}
	.st180{opacity:0.3644;fill:#3C464F;}
	.st181{opacity:0.3683;fill:#3C464F;}
	.st182{opacity:0.3723;fill:#3C464F;}
	.st183{opacity:0.3762;fill:#3C464F;}
	.st184{opacity:0.3802;fill:#3C464F;}
	.st185{opacity:0.3842;fill:#3C464F;}
	.st186{opacity:0.3881;fill:#3C464F;}
	.st187{opacity:0.3921;fill:#3C464F;}
	.st188{opacity:0.396;fill:#3C464F;}
	.st189{opacity:0.4;fill:#3C464F;}
	.st190{fill:none;stroke:#7EA1B1;stroke-width:3;stroke-linecap:round;stroke-linejoin:round;}
	.st191{fill:none;stroke:#7EA1B1;stroke-width:3;stroke-linecap:round;stroke-linejoin:round;stroke-dasharray:6.859,6.859;}
	.st192{fill:none;stroke:#7EA1B1;stroke-width:3;stroke-linecap:round;stroke-linejoin:round;stroke-dasharray:7.5157,7.5157;}
	.st193{fill:none;stroke:#7EA1B1;stroke-width:3;stroke-linecap:round;stroke-linejoin:round;stroke-dasharray:8.4421,8.4421;}
	.st194{fill:none;stroke:#7EA1B1;stroke-width:3;stroke-linecap:round;stroke-linejoin:round;stroke-dasharray:8.7883,8.7883;}
	.st195{fill:none;stroke:#7EA1B1;stroke-width:3;stroke-linecap:round;stroke-linejoin:round;stroke-dasharray:8.9317,8.9317;}
	.st196{fill:none;stroke:#7EA1B1;stroke-width:3;stroke-linecap:round;stroke-linejoin:round;stroke-dasharray:7.9659,7.9659;}
	.st197{fill:none;stroke:#7EA1B1;stroke-width:3;stroke-linecap:round;stroke-linejoin:round;stroke-dasharray:8.532,8.532;}
	.st198{fill:#C5C5C5;}
	.st199{fill:none;stroke:#7EA1B1;stroke-width:3;stroke-linecap:round;stroke-linejoin:round;stroke-dasharray:5.9487,5.9487;}
	.st200{fill:none;stroke:#7EA1B1;stroke-width:3;stroke-linecap:round;stroke-linejoin:round;stroke-dasharray:8.8035,8.8035;}
	.st201{fill:none;stroke:#7EA1B1;stroke-width:3;stroke-linecap:round;stroke-linejoin:round;stroke-dasharray:8.4073,8.4073;}
	.st202{fill:none;stroke:#7EA1B1;stroke-width:3;stroke-linecap:round;stroke-linejoin:round;stroke-dasharray:6.2046,6.2046;}
	.st203{fill:none;stroke:#7EA1B1;stroke-width:3;stroke-linecap:round;stroke-linejoin:round;stroke-dasharray:7.9457,7.9457;}
	.st204{fill:none;stroke:#7EA1B1;stroke-width:3;stroke-linecap:round;stroke-linejoin:round;stroke-dasharray:8.4145,8.4145;}
	.st205{fill:none;stroke:#7EA1B1;stroke-width:3;stroke-linecap:round;stroke-linejoin:round;stroke-dasharray:7.2825,7.2825;}
	.st206{fill:none;stroke:#7EA1B1;stroke-width:3;stroke-linecap:round;stroke-linejoin:round;stroke-dasharray:7.4081,7.4081;}
	.st207{fill:none;stroke:#7EA1B1;stroke-width:3;stroke-linecap:round;stroke-linejoin:round;stroke-dasharray:8.0493,8.0493;}
	.st208{fill:none;stroke:#7EA1B1;stroke-width:3;stroke-linecap:round;stroke-linejoin:round;stroke-dasharray:8.1454,8.1454;}
	.st209{fill:none;stroke:#7EA1B1;stroke-width:3;stroke-linecap:round;stroke-linejoin:round;stroke-dasharray:8.0164,8.0164;}
	.st210{fill:#7EA1B1;}
	.st211{fill:none;stroke:#7EA1B1;stroke-width:3;stroke-linecap:round;stroke-linejoin:round;stroke-miterlimit:10;}
	.st212{fill:#2F2F2F;}
	.st213{fill:#00B5B5;}
	.st214{fill:url(#SVGID_124_);}
	.st215{fill:#12407D;}
	.st216{fill:#0D78C4;}
	.st217{fill-rule:evenodd;clip-rule:evenodd;fill:#0F53FF;}
	.st218{filter:url(#Adobe_OpacityMaskFilter_2_);}
	.st219{clip-path:url(#SVGID_128_);}
	.st220{clip-path:url(#SVGID_131_);}
	.st221{clip-path:url(#SVGID_133_);}
	.st222{clip-path:url(#SVGID_128_);mask:url(#SVGID_129_);enable-background:new    ;}
	.st223{clip-path:url(#SVGID_135_);fill-rule:evenodd;clip-rule:evenodd;fill:#0F53FF;}
	.st224{filter:url(#Adobe_OpacityMaskFilter_3_);}
	.st225{clip-path:url(#SVGID_138_);}
	.st226{clip-path:url(#SVGID_138_);fill-rule:evenodd;clip-rule:evenodd;fill:#FFFFFF;}
	.st227{clip-path:url(#SVGID_128_);mask:url(#SVGID_136_);enable-background:new    ;}
	.st228{clip-path:url(#SVGID_140_);fill-rule:evenodd;clip-rule:evenodd;fill:#0F53FF;}
	.st229{clip-path:url(#SVGID_142_);fill:url(#SVGID_143_);}
	.st230{clip-path:url(#SVGID_145_);fill:url(#SVGID_146_);}
	.st231{clip-path:url(#SVGID_148_);fill:url(#SVGID_149_);}
	.st232{clip-path:url(#SVGID_151_);fill:url(#SVGID_152_);}
	.st233{clip-path:url(#SVGID_154_);fill:url(#SVGID_155_);}
	.st234{clip-path:url(#SVGID_157_);fill:url(#SVGID_158_);}
	.st235{clip-path:url(#SVGID_160_);fill:url(#SVGID_161_);}
	.st236{clip-path:url(#SVGID_163_);fill:url(#SVGID_164_);}
	.st237{fill:url(#SVGID_165_);}
	.st238{fill:url(#SVGID_166_);}
	.st239{fill:url(#SVGID_167_);}
	.st240{fill:url(#SVGID_168_);}
	.st241{fill:url(#SVGID_169_);}
	.st242{fill:url(#SVGID_170_);}
	.st243{fill:url(#SVGID_171_);}
	.st244{fill:url(#SVGID_172_);}
	.st245{fill:url(#SVGID_173_);}
	.st246{fill:url(#SVGID_174_);}
	.st247{fill:url(#SVGID_175_);}
	.st248{fill:url(#SVGID_176_);}
	.st249{fill:url(#SVGID_177_);}
	.st250{fill:url(#SVGID_178_);}
	.st251{fill:url(#SVGID_179_);}
	.st252{fill:url(#SVGID_180_);}
	.st253{fill:url(#SVGID_181_);}
	.st254{fill:url(#SVGID_182_);}
	.st255{fill:url(#SVGID_183_);}
	.st256{fill:url(#SVGID_184_);}
	.st257{fill:url(#SVGID_185_);}
	.st258{fill:#A89968;}
	.st259{fill:url(#SVGID_186_);}
	.st260{fill:#C4001C;}
	.st261{fill:#282826;}
	.st262{fill:#2D72D7;}
	.st263{fill:#E8E8E8;}
	.st264{opacity:0.7;fill:none;stroke:#6096A5;}
	.st265{opacity:0.9;}
	.st266{fill:none;}
	.st267{fill-rule:evenodd;clip-rule:evenodd;fill:none;}
	.st268{opacity:0.62;fill:url(#SVGID_187_);}
	.st269{opacity:0.62;fill:url(#SVGID_188_);}
	.st270{opacity:0.62;fill:url(#SVGID_189_);}
	.st271{opacity:0.62;fill:url(#SVGID_190_);}
	.st272{opacity:0.62;fill:url(#SVGID_191_);}
	.st273{opacity:0.62;fill:url(#SVGID_192_);}
	.st274{fill:url(#SVGID_193_);}
	.st275{fill:url(#SVGID_194_);}
	.st276{fill:url(#SVGID_195_);}
	.st277{fill:url(#SVGID_196_);}
	.st278{fill:url(#SVGID_197_);}
	.st279{fill:url(#SVGID_198_);}
	.st280{fill:url(#SVGID_199_);}
	.st281{fill:url(#SVGID_200_);}
	.st282{fill:url(#SVGID_201_);}
	.st283{fill:url(#SVGID_202_);}
	.st284{fill:url(#SVGID_203_);}
	.st285{fill:url(#SVGID_204_);}
	.st286{fill:url(#SVGID_205_);}
	.st287{fill:url(#SVGID_206_);}
	.st288{fill:url(#SVGID_207_);}
	.st289{fill:url(#SVGID_208_);}
	.st290{fill:url(#SVGID_209_);}
	.st291{fill:url(#SVGID_210_);}
	.st292{fill:url(#SVGID_211_);}
	.st293{fill:url(#SVGID_212_);}
	.st294{fill:url(#SVGID_213_);}
	.st295{fill:url(#SVGID_214_);}
	.st296{fill:url(#SVGID_215_);}
	.st297{fill:url(#SVGID_216_);}
	.st298{fill:url(#SVGID_217_);}
	.st299{fill:url(#SVGID_218_);}
	.st300{fill:url(#SVGID_219_);}
	.st301{fill:url(#SVGID_220_);}
	.st302{fill:url(#SVGID_221_);}
	.st303{fill:url(#SVGID_222_);}
	.st304{fill:url(#SVGID_223_);}
	.st305{fill:url(#SVGID_224_);}
	.st306{fill:url(#SVGID_225_);}
	.st307{fill:url(#SVGID_226_);}
	.st308{fill:url(#SVGID_227_);}
	.st309{fill:url(#SVGID_228_);}
	.st310{fill:#0078BA;}
	.st311{fill:url(#SVGID_229_);}
	.st312{fill:url(#SVGID_230_);}
	.st313{fill:#B70000;}
	.st314{fill:url(#SVGID_231_);}
	.st315{fill:url(#SVGID_232_);}
	.st316{fill:url(#SVGID_233_);}
	.st317{fill:url(#SVGID_234_);}
	.st318{fill:url(#SVGID_235_);}
	.st319{fill:url(#SVGID_236_);}
	.st320{fill:url(#SVGID_237_);}
	.st321{fill:url(#SVGID_238_);}
	.st322{fill:none;stroke:#3F3F3F;stroke-width:0.5;stroke-miterlimit:10;}
	.st323{clip-path:url(#SVGID_256_);fill:url(#SVGID_257_);}
	.st324{clip-path:url(#SVGID_259_);fill:url(#SVGID_260_);}
	.st325{clip-path:url(#SVGID_262_);fill:url(#SVGID_263_);}
	.st326{clip-path:url(#SVGID_265_);fill:url(#SVGID_266_);}
	.st327{clip-path:url(#SVGID_268_);fill:url(#SVGID_269_);}
	.st328{clip-path:url(#SVGID_271_);fill:url(#SVGID_272_);}
	.st329{clip-path:url(#SVGID_274_);fill:url(#SVGID_275_);}
	.st330{clip-path:url(#SVGID_277_);fill:url(#SVGID_278_);}
	.st331{fill:url(#SVGID_279_);}
	.st332{fill:url(#SVGID_280_);}
	.st333{fill:url(#SVGID_281_);}
	.st334{fill:url(#SVGID_282_);}
	.st335{fill:url(#SVGID_283_);}
	.st336{fill:url(#SVGID_284_);}
	.st337{fill:url(#SVGID_285_);}
	.st338{fill:url(#SVGID_286_);}
	.st339{fill:url(#SVGID_287_);}
	.st340{fill:url(#SVGID_288_);}
	.st341{fill:url(#SVGID_289_);}
	.st342{fill:url(#SVGID_290_);}
	.st343{fill:url(#SVGID_291_);}
	.st344{fill:url(#SVGID_292_);}
	.st345{fill:url(#SVGID_293_);}
	.st346{fill:url(#SVGID_294_);}
	.st347{fill:url(#SVGID_295_);}
	.st348{fill:url(#SVGID_296_);}
	.st349{fill:url(#SVGID_297_);}
	.st350{fill:url(#SVGID_298_);}
	.st351{fill:url(#SVGID_299_);}
	.st352{fill:url(#SVGID_300_);}
	.st353{fill:url(#SVGID_301_);}
	.st354{fill:url(#SVGID_302_);}
	.st355{fill:url(#SVGID_303_);}
	.st356{fill:url(#SVGID_304_);}
	.st357{fill:url(#SVGID_305_);}
	.st358{fill:url(#SVGID_306_);}
	.st359{fill:url(#SVGID_307_);}
	.st360{filter:url(#Adobe_OpacityMaskFilter_4_);}
	.st361{clip-path:url(#SVGID_325_);}
	.st362{clip-path:url(#SVGID_328_);}
	.st363{clip-path:url(#SVGID_330_);}
	.st364{clip-path:url(#SVGID_325_);mask:url(#SVGID_326_);enable-background:new    ;}
	.st365{clip-path:url(#SVGID_332_);fill-rule:evenodd;clip-rule:evenodd;fill:#0F53FF;}
	.st366{filter:url(#Adobe_OpacityMaskFilter_5_);}
	.st367{clip-path:url(#SVGID_335_);}
	.st368{clip-path:url(#SVGID_335_);fill-rule:evenodd;clip-rule:evenodd;fill:#FFFFFF;}
	.st369{clip-path:url(#SVGID_325_);mask:url(#SVGID_333_);enable-background:new    ;}
	.st370{clip-path:url(#SVGID_337_);fill-rule:evenodd;clip-rule:evenodd;fill:#0F53FF;}
	.st371{clip-path:url(#SVGID_339_);fill:url(#SVGID_340_);}
	.st372{clip-path:url(#SVGID_342_);fill:url(#SVGID_343_);}
	.st373{clip-path:url(#SVGID_345_);fill:url(#SVGID_346_);}
	.st374{clip-path:url(#SVGID_348_);fill:url(#SVGID_349_);}
	.st375{clip-path:url(#SVGID_351_);fill:url(#SVGID_352_);}
	.st376{clip-path:url(#SVGID_354_);fill:url(#SVGID_355_);}
	.st377{clip-path:url(#SVGID_357_);fill:url(#SVGID_358_);}
	.st378{clip-path:url(#SVGID_360_);fill:url(#SVGID_361_);}
	.st379{fill:url(#SVGID_362_);}
	.st380{fill:url(#SVGID_363_);}
	.st381{fill:url(#SVGID_364_);}
	.st382{fill:url(#SVGID_365_);}
	.st383{fill:url(#SVGID_366_);}
	.st384{fill:url(#SVGID_367_);}
	.st385{fill:url(#SVGID_368_);}
	.st386{fill:url(#SVGID_369_);}
	.st387{fill:url(#SVGID_370_);}
	.st388{fill:url(#SVGID_371_);}
	.st389{fill:url(#SVGID_372_);}
	.st390{fill:url(#SVGID_373_);}
	.st391{fill:url(#SVGID_374_);}
	.st392{fill:url(#SVGID_375_);}
	.st393{fill:url(#SVGID_376_);}
	.st394{fill:url(#SVGID_377_);}
	.st395{fill:url(#SVGID_378_);}
	.st396{fill:url(#SVGID_379_);}
	.st397{fill:url(#SVGID_380_);}
	.st398{fill:url(#SVGID_381_);}
	.st399{fill:url(#SVGID_382_);}
	.st400{fill:url(#SVGID_383_);}
	.st401{fill:url(#SVGID_384_);}
	.st402{fill:url(#SVGID_385_);}
	.st403{fill:url(#SVGID_386_);}
	.st404{fill:url(#SVGID_387_);}
	.st405{fill:url(#SVGID_388_);}
	.st406{fill:url(#SVGID_389_);}
	.st407{fill:url(#SVGID_390_);}
	.st408{fill:url(#SVGID_391_);}
	.st409{fill:url(#SVGID_392_);}
	.st410{fill:url(#SVGID_393_);}
	.st411{fill:url(#SVGID_394_);}
	.st412{fill:url(#SVGID_395_);}
	.st413{fill:url(#SVGID_396_);}
	.st414{fill:url(#SVGID_397_);}
	.st415{fill:url(#SVGID_398_);}
	.st416{fill:url(#SVGID_399_);}
	.st417{fill:url(#SVGID_400_);}
	.st418{fill:url(#SVGID_401_);}
	.st419{fill:url(#SVGID_402_);}
	.st420{fill:url(#SVGID_403_);}
	.st421{fill:url(#SVGID_404_);}
	.st422{fill:url(#SVGID_405_);}
	.st423{fill:url(#SVGID_406_);}
	.st424{fill:url(#SVGID_407_);}
	.st425{fill:url(#SVGID_408_);}
	.st426{fill:url(#SVGID_409_);}
	.st427{fill:url(#SVGID_410_);}
	.st428{fill:url(#SVGID_411_);}
	.st429{fill:url(#SVGID_412_);}
	.st430{fill:url(#SVGID_413_);}
	.st431{font-family:'Didot-Bold';}
	.st432{font-size:13.8577px;}
	.st433{font-family:'Didot';}
	.st434{fill:url(#SVGID_414_);}
	.st435{fill:url(#SVGID_415_);}
</style>
<g>
	<g>
		<g>
			
				<linearGradient id="SVGID_1_" gradientUnits="userSpaceOnUse" x1="-7931.3682" y1="8225.6025" x2="-7903.6377" y2="8225.6025" gradientTransform="matrix(0 -1 1 0 -8209.2158 -7897.4829)">
				<stop  offset="0" style="stop-color:#FFCC3B"/>
				<stop  offset="0.5559" style="stop-color:#FF7500"/>
				<stop  offset="1" style="stop-color:#D73502"/>
			</linearGradient>
			<path class="st0" d="M3.85,11.85c2.31-2.72,5.76-4.45,9.61-4.45c6.97,0,12.61,5.65,12.61,12.61s-5.65,12.61-12.61,12.61
				c-3.85,0-7.29-1.73-9.61-4.45c2.52,3.45,6.6,5.7,11.2,5.7c7.66,0,13.87-6.21,13.87-13.87c0-7.66-6.21-13.87-13.87-13.87
				C10.45,6.16,6.38,8.4,3.85,11.85z"/>
		</g>
		
			<linearGradient id="SVGID_3_" gradientUnits="userSpaceOnUse" x1="-8093.4385" y1="-8249.2119" x2="-8093.4385" y2="-8241.2822" gradientTransform="matrix(0.0213 0.9998 -0.9998 0.0213 -8067.0557 8296.4043)">
			<stop  offset="0" style="stop-color:#D73502"/>
			<stop  offset="0.4441" style="stop-color:#FF7500"/>
			<stop  offset="1" style="stop-color:#FFCC3B"/>
		</linearGradient>
		<path style="fill:url(#SVGID_3_);" d="M0.9,28.73c-0.17,0.03-0.32,0.17-0.43,0.33c-0.17,0.26-0.26,0.57-0.25,0.88
			c-0.31-0.48-0.29-1.15,0.02-1.63c0.32-0.51,0.91-0.82,1.51-0.88c0.6-0.05,1.21,0.14,1.72,0.47c0.34,0.22,0.66,0.51,0.84,0.88l0,0
			c-0.24-0.4-0.69-0.68-1.16-0.73c-0.47-0.05-0.96,0.14-1.25,0.51c-0.3,0.37-0.38,0.9-0.2,1.33c0.09,0.22,0.24,0.41,0.44,0.52
			c0.16,0.08,0.34,0.12,0.51,0.08c-0.48,0.21-1.09,0.14-1.49-0.21C0.74,29.9,0.61,29.22,0.9,28.73z"/>
		
			<linearGradient id="SVGID_5_" gradientUnits="userSpaceOnUse" x1="-7873.458" y1="-8244.5195" x2="-7873.458" y2="-8236.5898" gradientTransform="matrix(0.0213 -0.9998 -0.9998 -0.0213 -8067.0557 -8036.3296)">
			<stop  offset="0" style="stop-color:#D73502"/>
			<stop  offset="0.4441" style="stop-color:#FF7500"/>
			<stop  offset="1" style="stop-color:#FFCC3B"/>
		</linearGradient>
		<path style="fill:url(#SVGID_5_);" d="M0.9,11.31c-0.17-0.03-0.32-0.17-0.43-0.33c-0.17-0.26-0.26-0.57-0.25-0.88
			c-0.31,0.48-0.29,1.15,0.02,1.63c0.32,0.51,0.91,0.82,1.51,0.88c0.6,0.05,1.21-0.14,1.72-0.47c0.34-0.22,0.66-0.51,0.84-0.88l0,0
			c-0.24,0.4-0.69,0.68-1.16,0.73c-0.47,0.05-0.96-0.14-1.25-0.51c-0.3-0.37-0.38-0.9-0.2-1.33c0.09-0.22,0.24-0.41,0.44-0.52
			c0.16-0.08,0.34-0.12,0.51-0.08C2.16,9.34,1.55,9.42,1.16,9.77C0.74,10.15,0.61,10.82,0.9,11.31z"/>
		<g>
			
				<linearGradient id="SVGID_6_" gradientUnits="userSpaceOnUse" x1="-8.8628" y1="1349.1278" x2="-8.8628" y2="1389.8613" gradientTransform="matrix(0.9706 -0.2407 0.2407 0.9706 -283.4119 -1317.2454)">
				<stop  offset="0" style="stop-color:#FFCC3B"/>
				<stop  offset="0.5559" style="stop-color:#FF7500"/>
				<stop  offset="1" style="stop-color:#D73502"/>
			</linearGradient>
			<path style="fill:url(#SVGID_6_);" d="M41.21,3.75c-0.27-0.39-0.62-0.77-1.09-0.83c-0.43-0.06-0.86,0.17-1.3,0.15
				c-0.84-0.04-1.37-0.95-2.17-1.22c-0.38-0.13-0.79-0.1-1.18-0.04c-1.24,0.18-2.53,0.6-3.7,0.18c-0.48-0.17-0.92-0.5-1.09-0.98
				c-0.12-0.33-0.06-0.72,0.13-1c-0.32,0.37-0.54,0.84-0.62,1.33c-0.1,0.64,0.04,1.32,0.39,1.87c0.21,0.32,0.5,0.61,0.85,0.73
				c-0.79,0.8-1.36,1.81-1.63,2.9c-0.18,0.73-0.23,1.51,0.04,2.21c0.17-0.86,0.52-1.7,1.12-2.34c0.55-0.59,1.31-0.99,2.11-1.02
				c-1.07,1.68-1.24,3.84-0.73,5.77c0.26,0.96,0.68,1.9,1.37,2.62c0.65,0.68,1.55,1.15,2.49,1.17c-0.31-0.13-0.56-0.39-0.76-0.66
				c-0.52-0.72-0.76-1.7-0.38-2.5c0.38-0.78,1.23-1.18,1.93-1.68c0.6-0.42,1.14-0.95,1.44-1.61c0.27-0.57,0.35-1.21,0.51-1.82
				c0.17-0.61,0.46-1.23,1-1.56c0.37-0.22,0.82-0.28,1.23-0.16c0.41,0.12,0.77,0.41,0.96,0.79C42,5.21,41.68,4.43,41.21,3.75z
				 M37.44,4.21c-0.19,0.15-0.36,0.33-0.58,0.44c-0.41,0.2-0.89,0.12-1.33,0.03c-0.25-0.05-0.52-0.09-0.77-0.08
				c0.96-0.67,2.23-0.9,3.36-0.6C37.88,3.94,37.63,4.06,37.44,4.21z"/>
			
				<linearGradient id="SVGID_7_" gradientUnits="userSpaceOnUse" x1="-19.4864" y1="1353.15" x2="-19.4864" y2="1384.1809" gradientTransform="matrix(0.9706 -0.2407 0.2407 0.9706 -283.4119 -1317.2454)">
				<stop  offset="0" style="stop-color:#FFCC3B"/>
				<stop  offset="0.5559" style="stop-color:#FF7500"/>
				<stop  offset="1" style="stop-color:#D73502"/>
			</linearGradient>
			<path style="fill:url(#SVGID_7_);" d="M34.64,18.05c-0.41-0.99-0.99-1.89-1.54-2.81l0.02-0.02c-0.72-1.19-1.31-2.48-1.57-3.85
				c-0.09-0.48-0.14-0.97-0.14-1.46c-0.04-0.75,0.01-1.51,0.16-2.25c0.06-0.31,0.14-0.61,0.24-0.91c-0.2,0.18-0.39,0.37-0.56,0.59
				c0,0,0,0.01-0.01,0.01c-0.37,0.46-0.65,0.99-0.84,1.54c-0.19,0.54-0.34,1.09-0.44,1.66c-0.16-0.23-1.13-1.49-1.45-1.84
				c-1.37-1.53-3.76-2.84-6.08-3.86c-0.37-0.15-0.75-0.3-1.12-0.44c-1.04-0.4-2.09-0.75-3.15-1.07c1.95,0.88,3.53,2.13,5.19,3.75
				c2.19,2.15,4.39,4.41,5.54,7.25c0.38,0.94,0.64,1.93,0.89,2.92c0.13,0.5,0.26,1.01,0.37,1.52c0,0,0,0,0,0
				c0.1,0.84,0.12,1.7,0.04,2.54l0,0c-0.08,0.86-0.26,1.71-0.49,2.55c-0.02,0.05-0.04,0.09-0.06,0.14
				c-0.67,1.59-1.37,3.19-2.25,4.68c-0.84,1.42-3.21,3.86-3.21,3.89c0,0.01,4.19-1.32,5.92-2.58c0.48-0.35,1.42-1.2,1.41-1.24
				c-0.01-0.03-0.77,0.21-1.51,0.41c0.31-0.31,0.59-0.65,0.83-1.02c0.09-0.12,0.18-0.25,0.26-0.37c0.27-0.4,0.54-0.79,0.81-1.19
				c0.66-0.97,1.32-2,1.49-3.14c0.01-0.08,0.02-0.16,0.03-0.25c0.07,0.06,0.14,0.12,0.2,0.19c0.29,0.31,0.46,0.73,0.52,1.16
				c0.08,0.53,0,1.08-0.13,1.6l0.01,0c0.32-0.52,0.57-1.07,0.77-1.64C35.51,22.44,35.48,20.09,34.64,18.05z"/>
		</g>
		<text transform="matrix(1 6.000000e-03 -6.000000e-03 1 44.2998 15.1941)" class="st212 st431 st432">A&amp;A</text>
		<text transform="matrix(1 6.000000e-03 -6.000000e-03 1 43.0305 29.1569)" class="st212 st433 st432">Insurance</text>
	</g>
	<g>
		<linearGradient id="SVGID_8_" gradientUnits="userSpaceOnUse" x1="4.9345" y1="20.0203" x2="23.4555" y2="20.0203">
			<stop  offset="0" style="stop-color:#FFCC3B"/>
			<stop  offset="0.5559" style="stop-color:#FF7500"/>
			<stop  offset="1" style="stop-color:#D73502"/>
		</linearGradient>
		<circle style="fill:url(#SVGID_8_);" cx="14.2" cy="20.02" r="9.26"/>
		<g>
			<path class="st313" d="M15.04,28.23c0,0,0.01,0,0.01-0.01c0-0.01-0.01-0.01-0.02-0.01c-0.01,0-0.04,0-0.08,0
				c-0.12,0-0.19,0.01-0.23,0.02c-0.02,0.01-0.04,0.01-0.05,0.01c-0.02,0-0.04-0.01-0.06-0.02c-0.03-0.01-0.05-0.02-0.06-0.01
				c-0.01,0.01-0.01,0.03-0.01,0.04c0,0.02,0.01,0.03,0.01,0.04c0,0.01,0.01,0.02,0,0.02c0,0,0,0-0.02,0c-0.01,0-0.01,0-0.02,0
				c-0.03,0-0.04,0-0.05,0.01c0,0.01,0.01,0.02,0.03,0.04c0.06,0.04,0.11,0.01,0.16-0.02l0.01,0c0,0,0,0,0.01,0
				c0,0-0.01,0.01-0.01,0.01c-0.02,0.02-0.03,0.03-0.03,0.04c0,0,0.01,0.01,0.01,0.01c0.01,0,0.03,0,0.06-0.01
				c0.06-0.02,0.08-0.03,0.09-0.04c0.01-0.01,0.02-0.02,0.08-0.02c0.05,0,0.08,0,0.1,0c0.03,0,0.05,0,0.05-0.01
				c0.01-0.02-0.01-0.03-0.02-0.05C15.01,28.26,15,28.25,15,28.24C15,28.24,15,28.23,15.04,28.23z"/>
			<path class="st313" d="M11.83,17.04c-0.03,0.02-0.05,0.03-0.04,0.04c0,0,0,0.01,0.01,0.01c0.01,0,0.03,0,0.05,0
				c0.02,0,0.04,0,0.07,0c0.07,0,0.19-0.01,0.37,0c0.21,0,0.22,0,0.23-0.02c0-0.01-0.01-0.02-0.03-0.03
				c-0.01-0.01-0.03-0.02-0.04-0.03c-0.02-0.03-0.05-0.04-0.08-0.05c-0.03-0.01-0.06-0.02-0.09-0.05c-0.03-0.02-0.03-0.04-0.04-0.05
				c-0.01-0.02-0.02-0.02-0.05-0.02c-0.03,0-0.07-0.02-0.11-0.04c-0.03-0.02-0.06-0.03-0.1-0.05c-0.03-0.01-0.05-0.01-0.06-0.02
				c-0.03-0.01-0.04-0.01-0.1-0.07c-0.01-0.01-0.02-0.02-0.03-0.03c-0.03-0.03-0.03-0.03-0.07-0.03c-0.02,0-0.06,0-0.13-0.01
				c-0.14-0.02-0.14-0.04-0.14-0.04c0,0,0,0,0,0l0.02-0.01l-0.27-0.06l0,0l-0.24,0.03c-0.02,0-0.23,0.03-0.27,0.08l0,0.01
				c-0.03,0.04-0.04,0.06-0.11,0.07c-0.02,0-0.03,0.01-0.03,0.02c0,0.02,0.05,0.04,0.07,0.04l0,0c0.05,0.01,0.06,0.01,0.14-0.07
				c0.04-0.04,0.05-0.04,0.07-0.04c0.02,0,0.04,0,0.1-0.01c0.07-0.01,0.08-0.03,0.09-0.04c0,0,0.01-0.01,0.03-0.01
				c0.05-0.01,0.08,0.01,0.08,0.02c0,0,0,0.01-0.01,0.01c-0.03,0.01-0.04,0.01-0.04,0.03c0,0.01,0.02,0.02,0.09,0.04
				c0.03,0.01,0.05,0.01,0.06,0.02c0.02,0.01,0.02,0.01,0.05,0c0.01,0,0.02,0,0.03,0c0.04,0,0.05,0,0.07,0.02
				c0.01,0.01,0.03,0.02,0.06,0.03c0.02,0.01,0.04,0.01,0.05,0.02c0.03,0.01,0.06,0.02,0.14,0.02c0.03,0,0.06,0,0.06,0
				c0,0,0,0,0,0.01c0,0.01,0,0.03,0,0.05c0.02,0.07,0.04,0.08,0.18,0.12c0.03,0.01,0.03,0.02,0.03,0.02
				C11.9,16.99,11.85,17.02,11.83,17.04z"/>
			<path class="st313" d="M13.99,17.44c-0.01-0.01-0.02-0.01-0.03-0.01c-0.01,0-0.01-0.01-0.02-0.01c-0.01,0-0.02,0-0.05-0.01
				c-0.05-0.01-0.06-0.01-0.07-0.01c-0.01,0-0.01,0-0.04,0c-0.05,0-0.07,0.02-0.08,0.03c-0.01,0.02-0.01,0.04,0,0.06
				c0.01,0.02,0.03,0.03,0.06,0.03c0.05,0,0.05,0,0.06,0.01c0.01,0.01,0.02,0.02,0.05,0.04c0.02,0.02,0.04,0.02,0.05,0.02
				c0,0,0.01,0,0.01,0c0.01,0,0.01-0.02,0.01-0.03c0-0.01,0-0.02,0.01-0.02c0.01,0,0.03-0.01,0.05-0.02
				c0.08-0.02,0.08-0.02,0.09-0.03l0-0.01l-0.01,0c0,0-0.01,0-0.02-0.01C14.07,17.47,14.03,17.45,13.99,17.44z"/>
			<path class="st313" d="M11.86,16.37c0.01,0.02,0.01,0.03,0.04,0.03c0,0,0,0,0.01,0c0.02,0,0.04-0.01,0.05-0.02
				c0.02-0.02,0.02-0.04,0.02-0.08c-0.01-0.06-0.05-0.15-0.09-0.18c-0.01-0.01-0.02-0.01-0.03-0.01c-0.03,0.01-0.06,0-0.08,0
				c-0.03,0-0.05,0-0.06,0.01c-0.01,0.02,0,0.04,0.05,0.11C11.83,16.31,11.85,16.35,11.86,16.37z"/>
			<path class="st313" d="M12.39,11.52L12.39,11.52c0.02,0,0.03,0,0.03,0c0.01,0,0.02,0,0.04-0.01c0.01,0,0.03-0.01,0.05-0.01
				c0,0,0-0.04,0-0.04l-0.02,0.01h0.02c0.01,0.11,0.03,0.1,0.04,0.1c0,0,0,0.01,0,0.01c0.02,0,0.11,0,0.11,0s0,0,0,0h0.01l0,0.02
				c0-0.01,0.01-0.05,0.01-0.07c0,0,0,0,0,0l0.1,0l-0.03,0.07l0.01,0c0,0,0.03,0.01,0.05,0.01c0.01,0,0.03,0,0.04-0.01v0
				c0.02-0.02,0.01-0.06,0-0.07l0.04,0l-0.06-0.03c0-0.01,0.01-0.02,0.01-0.02c0-0.02-0.01-0.03-0.02-0.03
				c-0.02-0.01-0.04,0.01-0.05,0.02l-0.02,0c0,0-0.01-0.01-0.01-0.01c-0.02-0.01-0.03-0.02-0.05-0.03
				c-0.08-0.03-0.12-0.03-0.16,0.05c-0.09,0-0.11,0-0.12,0.01c-0.03,0.01-0.04,0.02-0.04,0.03C12.36,11.52,12.38,11.52,12.39,11.52z
				"/>
			<polygon class="st313" points="15.67,12.87 15.67,12.87 15.67,12.87 			"/>
			<path class="st313" d="M16.13,11.71C16.13,11.71,16.13,11.71,16.13,11.71c0,0.01,0,0.01,0,0.02c0,0,0,0,0,0
				c0.01,0,0.03-0.01,0.07,0c0.02,0,0.04,0,0.06,0c-0.02,0-0.04-0.01-0.06-0.01C16.16,11.71,16.14,11.71,16.13,11.71z"/>
			<path class="st313" d="M17.21,11.51c0,0,0.15,0.01,0.28,0.02c0.06,0,0.1,0.02,0.12,0.03c0.02,0.01,0.04,0.01,0.06,0.01
				c0.01,0,0.03,0,0.04-0.01l0.02-0.01l-0.02-0.01c-0.01-0.01-0.28-0.16-0.35-0.17c-0.07-0.01-0.19,0-0.19,0l-0.01,0L17.21,11.51
				L17.21,11.51z"/>
			<polygon class="st313" points="19.15,12.44 19.15,12.43 19.15,12.45 			"/>
			<path class="st313" d="M19.43,12.75l0.03,0.02c0,0,0.1,0,0.12-0.02c0.01,0,0.01,0,0.01-0.01c0.01-0.02,0.04-0.07,0-0.12
				c-0.02-0.03-0.12-0.09-0.21-0.14c-0.08-0.05-0.16-0.09-0.16-0.09c-0.03,0-0.05,0.02-0.05,0.03c-0.01,0-0.01,0.01-0.01,0.02
				l0.08,0.2L19.43,12.75z"/>
			<path class="st313" d="M20.59,17.56c-0.03-0.02-0.07,0-0.07,0l0,0l0,0c-0.01,0.02-0.02,0.04-0.01,0.05
				c0,0.01,0.02,0.02,0.03,0.03c0.01,0.01,0.02,0.01,0.03,0.01c0.02,0,0.03-0.01,0.03-0.01C20.6,17.64,20.62,17.58,20.59,17.56z"/>
			<path class="st313" d="M20.73,17.67l-0.07-0.05l-0.01,0c-0.03,0.02-0.04,0.03-0.04,0.04c0,0.01,0.01,0.02,0.01,0.02
				c0.02,0.01,0.05,0.03,0.05,0.03l0.01,0L20.73,17.67z"/>
			<path class="st313" d="M20.78,17.63l0.05-0.02l-0.05-0.07l-0.01,0c-0.05,0.02-0.04,0.05-0.04,0.05l0,0L20.78,17.63z"/>
			<path class="st313" d="M20.81,17.66c-0.04,0.02-0.04,0.05-0.04,0.06v0.01l0.06,0.04l0.05-0.02L20.81,17.66L20.81,17.66z"/>
			<path class="st313" d="M20.78,17.79C20.78,17.79,20.78,17.79,20.78,17.79c-0.01,0.01-0.02,0.02-0.02,0.03
				c0,0.01,0.01,0.02,0.02,0.03c0.01,0.01,0.01,0.01,0.02,0.02c0,0.01,0.01,0.02,0.02,0.02c0,0,0,0,0,0c0.01,0,0.01-0.01,0.02-0.01
				l0.03-0.03L20.78,17.79L20.78,17.79z"/>
			<path class="st313" d="M20.75,17.85L20.75,17.85L20.75,17.85c-0.01-0.01-0.02-0.01-0.06,0.01l-0.01,0l0,0.01
				c0.01,0.03,0.02,0.04,0.04,0.05c0.01,0,0.02,0,0.02,0c0.01,0,0.02,0,0.02,0l0.01,0l0-0.01C20.77,17.88,20.76,17.85,20.75,17.85z"
				/>
			<polygon class="st313" points="20.57,17.86 20.63,17.92 20.66,17.86 20.61,17.8 			"/>
			<path class="st313" d="M17.21,28.36c0-0.02-0.01-0.02-0.05-0.03c-0.07-0.01-0.14-0.01-0.14-0.01l0,0l0,0
				c-0.02,0-0.03,0.01-0.04,0.03c-0.01,0.02,0,0.05,0,0.05l0,0l0.07,0.05c0.01,0.01,0.08,0.04,0.12,0.04c0.01,0,0.02,0,0.03-0.01
				c0.01-0.01,0.02,0,0.04,0c0.02,0,0.03,0,0.04-0.01c0.01-0.01,0-0.02-0.02-0.05C17.21,28.39,17.21,28.38,17.21,28.36z"/>
			<path class="st313" d="M12.91,17.57C12.92,17.57,12.92,17.57,12.91,17.57c0.01,0,0.02,0,0.02,0c0.03-0.01,0.05-0.04,0.07-0.07
				c0.02-0.02,0.04-0.05,0.06-0.07c0.02-0.02,0.03-0.01,0.05-0.01c0.02,0.01,0.05,0.02,0.11,0c0.03-0.01,0.04-0.02,0.05-0.02
				c0,0,0.01,0,0.01,0c0,0,0,0,0.01,0c0.01,0.01,0.03,0.02,0.08,0.05c0.07,0.03,0.1,0.05,0.12,0.04c0.02-0.01,0.02-0.02,0.03-0.04
				c0-0.01,0.01-0.02,0.02-0.03c0.01-0.02,0.01-0.03,0-0.05c-0.01-0.04-0.07-0.06-0.15-0.09c-0.04-0.02-0.08-0.03-0.12-0.06
				c-0.02-0.01-0.03-0.02-0.04-0.03c-0.06-0.04-0.08-0.05-0.25-0.07c-0.1-0.01-0.13,0-0.14,0.01c0,0-0.01-0.01-0.02-0.01l-0.01-0.01
				c-0.08-0.05-0.11-0.04-0.18-0.02c-0.01,0-0.03,0.01-0.05,0.01c-0.04,0.01-0.04,0.03-0.04,0.04c0,0.03,0.06,0.05,0.12,0.05
				c0.03,0,0.05,0,0.05,0.01c0,0.01,0,0.02,0,0.03c0,0.01,0,0.02,0,0.03c0,0.03-0.01,0.03-0.05,0.04c-0.01,0-0.02,0.01-0.04,0.01
				c-0.01,0-0.02,0.01-0.03,0.01c-0.04,0.02-0.1,0.04-0.23,0.04c-0.05,0-0.08,0.01-0.08,0.03c0,0.02,0.05,0.05,0.08,0.06
				c0,0,0.1,0.03,0.25,0.02c0.06,0,0.09-0.01,0.11-0.02c0.03-0.01,0.04-0.01,0.12,0.01l0.01,0c0.03,0.01,0.05,0.02,0.05,0.04
				c0.01,0.01,0,0.03,0,0.04C12.91,17.56,12.91,17.56,12.91,17.57z"/>
			<path class="st313" d="M23.31,18.53L23.31,18.53c-0.01-0.07-0.02-0.14-0.03-0.2c-0.14-0.79-0.38-1.56-0.73-2.28
				c-0.2-0.42-0.42-0.82-0.69-1.21l-0.13-0.14l-0.02-0.01c-0.03-0.01-0.06-0.02-0.08-0.03c-0.08-0.04-0.13-0.06-0.18-0.02
				c-0.06,0.05-0.1,0.09-0.11,0.12c-0.03,0-0.05,0.01-0.07,0.01c-0.01,0-0.03,0.01-0.03,0c-0.01-0.01-0.02-0.04-0.03-0.06
				c-0.01-0.01-0.01-0.03-0.02-0.04c0,0,0,0,0,0c0.01,0.01,0.02,0.03,0.03,0.03c0,0,0,0,0,0c0.01,0,0.02-0.02,0.02-0.07
				c0-0.05,0.01-0.08,0.02-0.09c0.01-0.03,0.01-0.04-0.02-0.09c-0.02-0.03-0.04-0.06-0.05-0.09c-0.02-0.04-0.04-0.07-0.07-0.11
				c-0.01-0.02-0.03-0.03-0.04-0.05c-0.03-0.03-0.06-0.06-0.06-0.12c0-0.1,0-0.1,0.01-0.17c0.01-0.07-0.68-0.69-0.82-0.82l0,0.01h0
				c-0.08,0-0.16-0.05-0.19-0.07c-0.03-0.01-0.03-0.02-0.04-0.01c-0.01,0.01-0.01,0.01,0.07,0.07c0.16,0.14,0.18,0.17,0.18,0.17
				l0.15,0.14c0.1,0.08,0.26,0.22,0.25,0.27c0,0,0,0,0,0.01c-0.02,0.01-0.09,0-0.15-0.02c-0.08-0.02-0.12-0.03-0.14-0.01
				c0,0-0.01,0.01,0,0.03c0.01,0.03,0.06,0.07,0.11,0.11c0.08,0.06,0.18,0.14,0.18,0.21c0,0.13,0.08,0.25,0.08,0.25
				c0,0,0.05,0.08,0.09,0.12c0,0,0.02,0.02,0.05,0.05c0.07,0.06,0.19,0.17,0.26,0.19c-0.01,0.01-0.02,0.02-0.01,0.05
				c0,0.03,0.02,0.07,0.04,0.11c0.02,0.04,0.04,0.11,0.04,0.13c-0.02,0.06-0.02,0.11-0.02,0.16l0,0.03c0,0.08,0.07,0.31,0.08,0.34
				l0.01,0.02l0.02,0.01c0.01,0,0.07,0.02,0.05,0.11c-0.01,0.05-0.02,0.08-0.02,0.11c-0.01,0.03-0.01,0.05-0.02,0.09
				c0,0-0.01,0-0.01,0c-0.02,0.01-0.05,0.03-0.06,0.08l-0.01,0.05l0.05,0c0.12,0,0.25,0.03,0.29,0.04c0.02,0.01,0.05,0.05,0.1,0.1
				c-0.01,0.03-0.02,0.07-0.02,0.1c0,0.03,0,0.04-0.01,0.04c-0.01-0.01-0.03-0.02-0.05-0.04c-0.06-0.05-0.11-0.08-0.15-0.05
				c-0.04,0.03-0.02,0.08-0.01,0.1c0.02,0.04,0.04,0.08,0.06,0.11c0.04,0.07,0.04,0.08,0.03,0.09c0,0-0.01,0.01-0.01,0.01
				c0,0-0.01-0.01-0.01-0.01c-0.02-0.02-0.04-0.02-0.06,0c-0.03,0.02-0.02,0.04,0,0.12c0.02,0.05,0.04,0.1,0.06,0.15
				c0.02,0.04,0.05,0.1,0.05,0.13c-0.02,0-0.07-0.01-0.12-0.01c-0.07-0.01-0.15-0.02-0.22-0.02l-0.06,0l0.02,0.06
				c0.04,0.12,0.06,0.14,0.1,0.21c0.01,0.01,0.01,0.01,0,0.03c-0.01,0.04-0.01,0.09,0.04,0.16c0.07,0.09,0.06,0.2,0.06,0.25l0,0.01
				c0,0.04,0,0.09,0.02,0.16c0.01,0.02,0.01,0.03,0.02,0.05c0.02,0.04,0,0.07-0.01,0.1c-0.01,0.02-0.02,0.04-0.02,0.06
				c-0.01,0.04,0,0.05,0.02,0.09c0.01,0.01,0.02,0.04,0.04,0.07c0.03,0.05,0.06,0.07,0.07,0.09c0,0,0.01,0.01,0.01,0.01
				c0,0,0,0.01-0.01,0.04c-0.05,0.13,0,0.2,0.07,0.27c0.03,0.03,0.05,0.04,0.07,0.05c0,0.01,0,0.01,0,0.03
				c0,0.05,0.03,0.1,0.07,0.14c0.02,0.02,0.04,0.03,0.05,0.03l0.01,0c0,0,0,0,0.01,0.01c0.09,0.1,0.11,0.15,0.11,0.18
				c-0.01,0.11,0.07,0.28,0.22,0.48l0.01,0.02c0.06,0.08,0.1,0.16,0.14,0.23c0.05,0.09,0.08,0.16,0.14,0.17c0,0,0.01,0,0.01,0
				c0.04,0,0.07-0.03,0.08-0.04c0.08-0.08,0.16-0.11,0.21-0.13c0.02-0.01,0.03-0.01,0.04-0.02c0.01-0.01,0.02-0.02,0.03-0.03
				c0.01-0.01,0.01-0.02,0.04-0.02c0.04,0,0.08-0.01,0.1-0.04c0.02-0.02,0.02-0.06,0.02-0.08c0-0.03,0.02-0.08,0.04-0.1l0.01-0.01
				c0,0,0.01-0.01,0.01-0.01c0,0.01,0.01,0.03,0.02,0.08c0,0.05,0,0.08,0,0.11c0,0.04,0,0.07,0.02,0.08
				c0.02,0.02,0.04,0.02,0.06,0.01c0.01,0,0.02,0,0.03,0c0.01,0,0.03,0,0.03,0c0,0,0.01,0.03,0.02,0.08l0,0.06h0.04
				c0.02,0,0.03-0.02,0.04-0.07l0-0.01c0,0,0-0.01,0-0.01C23.23,19.52,23.25,19.26,23.31,18.53L23.31,18.53z M22.77,18.38
				c0-0.01-0.01-0.01-0.01-0.01c0,0,0,0-0.01-0.01c0-0.06-0.02-0.13-0.03-0.19c0-0.01,0-0.01,0-0.02c0.02,0.04,0.04,0.07,0.05,0.1
				l0.01,0.02c0.01,0.02,0.01,0.04,0.02,0.06C22.78,18.35,22.78,18.37,22.77,18.38z"/>
			<path class="st313" d="M19.72,21.68c-0.01-0.16-0.15-0.16-0.24-0.16l-0.01,0c-0.1,0-0.1,0-0.27-0.15
				c-0.18-0.16-0.3-0.18-0.4-0.18c-0.02,0-0.03,0-0.05,0c-0.04,0-0.11,0.01-0.14,0c-0.01-0.02-0.03-0.03-0.05-0.03
				c-0.03,0-0.06,0.01-0.08,0.04c-0.01,0-0.03-0.02-0.05-0.03c-0.02-0.01-0.04-0.02-0.07-0.04c-0.1-0.05-0.14-0.04-0.18,0.02
				c-0.01,0.01-0.02,0.02-0.03,0.03c-0.01,0.01-0.02,0.02-0.04,0.03c0-0.01,0.01-0.02,0.01-0.03c0.04-0.08,0-0.13-0.02-0.15
				l-0.01-0.01c-0.03-0.05-0.11-0.05-0.15-0.05c0-0.02,0-0.04-0.02-0.06c-0.02-0.03-0.06-0.03-0.12-0.05
				c-0.05-0.01-0.11-0.03-0.17-0.05c-0.12-0.05-0.17-0.04-0.23,0c0.01-0.02,0.02-0.05,0-0.07c-0.02-0.02-0.04-0.02-0.06-0.02
				c-0.01,0-0.03,0-0.06,0c-0.06-0.01-0.12-0.05-0.18-0.09c-0.01-0.01-0.03-0.02-0.04-0.03c-0.01-0.01-0.02-0.01-0.02-0.01
				c0-0.01,0.01-0.01,0.01-0.02c0.04-0.06,0.07-0.1,0.07-0.14c0-0.03-0.01-0.05-0.02-0.05c-0.02-0.02-0.05-0.01-0.07,0
				c0,0-0.01,0-0.01,0.01c-0.01,0-0.05-0.05-0.1-0.16c-0.01-0.03-0.02-0.06-0.03-0.08c-0.02-0.09-0.05-0.17-0.15-0.19
				c-0.01,0-0.03,0-0.04-0.01c-0.01,0-0.02,0-0.03,0c0-0.01,0-0.01,0-0.02c0-0.01,0-0.03-0.03-0.05c-0.02-0.01-0.03-0.02-0.03-0.02
				l0,0c0-0.01-0.01-0.02-0.03-0.05c-0.04-0.06-0.06-0.08-0.11-0.08c-0.01,0-0.01,0-0.02,0c-0.03-0.01-0.05-0.02-0.09-0.03l0,0
				l-0.04-0.02c-0.02-0.01-0.04-0.02-0.07-0.03c-0.06-0.03-0.1-0.03-0.14-0.02c-0.01,0-0.01,0.01-0.02,0.01
				c-0.05-0.01-0.14-0.01-0.19,0.04c-0.01,0.01-0.01,0.01-0.01,0.01c0,0-0.01,0-0.02-0.01c-0.03-0.01-0.06-0.03-0.13-0.03
				c-0.04,0-0.06,0-0.06,0c0,0,0,0,0,0c0-0.01-0.01-0.03-0.02-0.04c-0.04-0.06-0.16-0.1-0.25-0.1c0-0.01,0.01-0.02,0.01-0.03
				c0.01-0.04,0-0.07-0.03-0.09c-0.01-0.01-0.02-0.01-0.03-0.03c-0.03-0.04-0.08-0.06-0.13-0.08c-0.01-0.01-0.02-0.01-0.04-0.02
				c-0.01-0.01-0.03-0.01-0.04-0.02c-0.05-0.03-0.08-0.03-0.1-0.04c0,0-0.01-0.01-0.01-0.03c0-0.01-0.01-0.03-0.02-0.05l-0.01-0.02
				c-0.03-0.07-0.1-0.09-0.15-0.1l-0.02,0c-0.01,0-0.02,0-0.02,0l-0.03-0.01c-0.03-0.01-0.13-0.04-0.14-0.04
				c0,0-0.01-0.02-0.01-0.03c-0.01-0.02-0.01-0.05-0.03-0.07c-0.03-0.06-0.07-0.05-0.1-0.04c-0.02,0.01-0.06,0.01-0.13,0.01
				c-0.12-0.01-0.14-0.01-0.16,0.02c-0.02,0.02-0.01,0.04-0.01,0.05c0,0,0,0.01,0,0.01c0,0.01,0,0.01,0,0.01
				c0,0-0.03,0.02-0.05,0.03l-0.01,0.01c-0.05,0.03-0.05,0.03-0.09,0.02l-0.03-0.01c-0.05-0.01-0.1-0.06-0.14-0.09
				c-0.01-0.01-0.03-0.02-0.04-0.03c-0.06-0.04-0.1-0.02-0.13,0.01c-0.01,0.01-0.02,0.02-0.04,0.02c-0.05,0.03-0.07,0.03-0.15,0.02
				c-0.01,0-0.01,0-0.02,0c0,0,0-0.01,0-0.01c0-0.02,0.01-0.04,0.01-0.06c0.01-0.11-0.09-0.12-0.24-0.14l-0.06-0.01
				c-0.13-0.02-0.17,0.01-0.21,0.04c-0.02,0.01-0.03,0.03-0.06,0.03c-0.02,0-0.04,0.01-0.05,0.01c-0.02,0-0.04,0-0.05,0.01
				c0-0.01-0.01-0.01-0.01-0.02c-0.01-0.01-0.01-0.02-0.02-0.03c0.01,0,0.02,0,0.03-0.01c0.06-0.02,0.07-0.04,0.09-0.09
				c0-0.01,0.01-0.02,0.01-0.03c0.02-0.04,0-0.07-0.01-0.08c-0.03-0.04-0.1-0.03-0.19,0c-0.06,0.02-0.08,0.05-0.09,0.08
				c-0.02-0.01-0.04-0.01-0.07,0c-0.03,0.02-0.04,0.05-0.05,0.09c0,0.01-0.01,0.02-0.01,0.03c-0.01,0.01-0.03,0-0.04,0
				c-0.05-0.02-0.12-0.05-0.15,0c0,0.01-0.01,0.01-0.01,0.02c0,0.01,0,0.02-0.01,0.01c-0.05-0.02-0.07-0.01-0.1,0.01
				c-0.01,0.01-0.03,0.02-0.05,0.03c-0.1,0.05-0.1,0.18-0.1,0.29c-0.03-0.01-0.08-0.01-0.11,0.06c-0.01,0.02-0.03,0.03-0.05,0.03
				c-0.03,0.01-0.06,0.02-0.08,0.07c-0.01-0.01-0.02-0.03-0.04-0.04c-0.02-0.02-0.04-0.03-0.05-0.04c-0.02-0.01-0.04-0.02-0.07-0.07
				c-0.07-0.09-0.2-0.06-0.3-0.04c-0.03,0.01-0.07,0.02-0.09,0.02c-0.08,0.01-0.13,0.03-0.18,0.05c-0.03,0.01-0.05,0.02-0.08,0.03
				c-0.05,0.01-0.05,0-0.07-0.05l-0.01-0.01c-0.01-0.02-0.03-0.06-0.07-0.05c-0.01,0-0.01,0-0.02,0.01c0-0.01,0-0.02-0.01-0.03
				c-0.01-0.02-0.04-0.03-0.05-0.03l-0.01,0c-0.01,0-0.01,0-0.02-0.01c-0.02-0.01-0.03-0.02-0.04-0.05l-0.01-0.02
				c-0.01-0.03-0.02-0.04-0.03-0.09c-0.02-0.06-0.03-0.09-0.03-0.09c0,0-0.02-0.04-0.04-0.08c0,0,0-0.01,0-0.01c0,0,0,0,0,0
				l0.01-0.01c0.01-0.01,0.03-0.02,0.04-0.04c0-0.02-0.01-0.04-0.01-0.04c0-0.01-0.01-0.01-0.01-0.03c0,0,0,0,0-0.01
				c0.01,0,0.03-0.01,0.05-0.03c0.06-0.04,0.04-0.1,0.03-0.13c-0.01-0.01-0.01-0.03-0.01-0.04c0-0.02,0-0.02,0-0.02
				c0.01-0.01,0.01-0.02,0.02-0.04c0.01-0.03,0.02-0.04,0.03-0.06c0.01-0.01,0.02-0.03,0.03-0.05c0.02-0.03,0.02-0.07,0-0.1
				c-0.01-0.01-0.01-0.02-0.02-0.02c0,0,0.01,0,0.01-0.01c0.01-0.01,0.04-0.03,0.03-0.07c-0.01-0.03-0.05-0.04-0.06-0.04
				c-0.01,0-0.03-0.01-0.06-0.04l-0.03-0.02c-0.03-0.02-0.07-0.03-0.1-0.03c-0.02,0-0.03,0-0.04-0.01
				c-0.03-0.04-0.08-0.02-0.11-0.02c-0.01,0-0.03,0.01-0.03,0.01c-0.05-0.04-0.08-0.02-0.11,0c-0.01,0.01-0.03,0.01-0.05,0.02
				c-0.05,0.02-0.12,0-0.18-0.02c-0.05-0.02-0.08-0.01-0.1,0c-0.02-0.01-0.03-0.02-0.06-0.01c0,0,0,0,0,0
				c0.02-0.01,0.03-0.02,0.05-0.04c0.07-0.05,0.07-0.12,0.07-0.17c0-0.01,0-0.03,0-0.04c0-0.03,0-0.03,0.03-0.04
				c0.01,0,0.01,0,0.02-0.01c0.03-0.01,0.04-0.03,0.04-0.07c0-0.01,0.01-0.04,0.05-0.1c0.07-0.1,0.08-0.12,0.06-0.15
				c0-0.05,0.01-0.07,0.02-0.09c0.01-0.01,0.03-0.03,0.05-0.06c0.03-0.03,0.07-0.07,0.09-0.1c0.01-0.02,0.05-0.07,0.02-0.11
				c-0.02-0.04-0.08-0.04-0.1-0.03c-0.03,0-0.06,0.01-0.08,0.02c-0.01,0-0.02,0.01-0.02,0c-0.05-0.05-0.15-0.04-0.26-0.02
				c-0.02,0-0.04,0.01-0.06,0.01c-0.13,0.02-0.15,0.08-0.17,0.19c-0.02,0.1-0.07,0.19-0.1,0.23c-0.02,0.03-0.04,0.05-0.19,0.06
				c-0.07,0-0.1,0.01-0.11,0.03l0,0c0,0,0,0,0,0c-0.07,0.01-0.07,0.01-0.14,0.05L9.14,17.3c-0.03,0.02-0.04,0.01-0.04,0.01
				c-0.01,0-0.02-0.03-0.02-0.04c-0.01-0.01-0.01-0.03-0.02-0.04c-0.03-0.05-0.08-0.05-0.11-0.04c-0.03,0-0.03,0-0.04,0
				c-0.02-0.02-0.02-0.04-0.01-0.08c0-0.02,0.01-0.04,0.01-0.05c0-0.04-0.02-0.07-0.04-0.09c-0.02-0.02-0.03-0.04-0.03-0.08
				c0-0.04-0.01-0.07-0.01-0.1c-0.01-0.04-0.02-0.08-0.02-0.17c0-0.1,0-0.1,0.02-0.14c0.01-0.02,0.03-0.05,0.05-0.09
				c0.04-0.09,0.05-0.13,0.05-0.15c0-0.01,0-0.02,0.02-0.03c0.02-0.02,0.03-0.05,0.04-0.08c0.01-0.04,0.01-0.08,0.01-0.11l0-0.04
				c0-0.01,0-0.02,0-0.02c0-0.01,0.01-0.01,0.02-0.02c0.04-0.05,0.04-0.06,0.04-0.13c0-0.02,0-0.02,0.03-0.05l0.02-0.02
				c0.02-0.02,0.03-0.03,0.04-0.03c0.02-0.01,0.03-0.02,0.05-0.05c0.01,0,0.03,0,0.05,0c0.04,0,0.07,0,0.09-0.04l0,0
				c0.01,0,0.02,0,0.04,0c0.04-0.01,0.07-0.02,0.07-0.06c0,0,0-0.01,0-0.01c0-0.02,0-0.03,0-0.04c0-0.01,0-0.01,0-0.02
				c0.03,0.01,0.06,0.01,0.13-0.01c0.02-0.01,0.04-0.01,0.05-0.02c0,0,0,0,0,0c0.01,0.01,0.02,0.02,0.04,0.02
				c0.06,0.03,0.09,0.03,0.13,0.01c0.01,0,0.02-0.01,0.03-0.01c0.01,0.02,0.02,0.03,0.05,0.04l0.01,0c0.03,0,0.03,0.01,0.07,0.02
				c0.06,0.03,0.1,0.01,0.13-0.02c0.01,0.01,0.01,0.01,0.02,0.02c0.04,0.03,0.07,0.01,0.07,0c0.04-0.04,0-0.11-0.02-0.14
				c0,0,0,0,0-0.01c0.01-0.01,0.02-0.03,0.02-0.05c0.01,0,0.03,0,0.05,0.01c0.04,0,0.07,0,0.09-0.01c0,0.01,0.01,0.02,0.02,0.02
				c0.02,0.01,0.05,0,0.07-0.01c0.02-0.01,0.04-0.02,0.07-0.02c0.03-0.01,0.05-0.01,0.06-0.02c0.01,0,0.01,0,0.09,0.03
				c0.04,0.01,0.03,0.02,0.03,0.02c-0.01,0.06,0.04,0.08,0.09,0.1c0.09,0.02,0.12,0,0.16-0.03c0.01-0.01,0.02-0.02,0.03-0.02
				c0.04,0,0.04,0,0.06,0.03c0,0.01,0.01,0.02,0.02,0.03c0.02,0.04,0.06,0.05,0.08,0.06c0.02,0.01,0.02,0.01,0.03,0.03
				c0,0.03,0,0.04-0.01,0.06c-0.01,0.02-0.03,0.04-0.03,0.08c0,0.05,0,0.14,0.04,0.18c0.01,0.01,0.02,0.01,0.03,0.02
				c0,0.01,0,0.03,0.02,0.05c0,0.01,0.01,0.02,0.02,0.04c0.07,0.12,0.09,0.15,0.13,0.16c0.03,0.01,0.09,0.03,0.17-0.05
				c0.09-0.1,0.09-0.26,0.03-0.34c-0.02-0.02-0.02-0.03-0.01-0.05c0.01-0.01,0.01-0.03,0.02-0.05c0.01-0.05,0-0.07-0.02-0.1
				c-0.01-0.01-0.02-0.03-0.03-0.05c-0.02-0.06-0.03-0.1-0.04-0.15l0-0.02c0-0.02-0.01-0.04-0.02-0.05c0,0,0-0.01,0-0.01
				c0,0,0-0.01,0.01-0.02c0.01-0.02,0.03-0.05,0.04-0.07c0.02-0.04,0.04-0.08,0.07-0.1c0.02-0.02,0.04-0.03,0.06-0.04
				c0.02-0.01,0.06-0.03,0.11-0.07c0.08-0.05,0.12-0.08,0.15-0.11c0.01-0.01,0.03-0.03,0.05-0.04c0.03-0.02,0.06-0.03,0.09-0.03
				c0.04-0.01,0.07-0.01,0.09-0.05c0,0,0.02-0.01,0.03-0.01c0.02-0.01,0.04-0.01,0.07-0.02c0.07-0.02,0.07-0.03,0.1-0.04
				c0.01,0,0.02-0.01,0.04-0.02c0.07-0.03,0.11-0.08,0.11-0.13c0-0.01,0-0.03-0.01-0.05c0.02,0,0.04,0,0.06-0.01
				c0.03,0,0.08-0.01,0.08-0.05c0-0.04-0.03-0.05-0.07-0.07c-0.01-0.01-0.04-0.01-0.04-0.02c-0.01-0.01-0.01-0.02,0-0.06
				c0-0.01,0.01-0.02,0.01-0.03c0.01-0.02,0.01-0.04,0.01-0.07c0,0,0.01,0,0.01,0.01c0.01,0,0.01,0.01,0.03,0.02
				c0.02,0.02,0.04,0.03,0.07,0.02c0.02-0.01,0.03-0.03,0.04-0.05l0-0.01c0-0.02,0.01-0.03,0.01-0.05c0-0.01,0-0.01,0-0.02
				c0,0,0.01,0.01,0.01,0.01c0.01,0.01,0.04,0.02,0.06,0.01c0.02-0.01,0.03-0.03,0.04-0.04c0.01-0.01,0.01-0.02,0.03-0.04
				c0.04-0.04,0.05-0.05,0.06-0.09c0-0.01,0-0.02,0.01-0.03l0-0.02c0.03,0,0.05-0.01,0.06-0.03c0.01-0.02,0.01-0.03,0.01-0.04
				c0,0,0,0,0,0c0,0,0,0,0.01,0c0.02,0,0.04,0.01,0.1,0.01c0.1,0,0.13,0,0.16-0.04c0.01,0.01,0.02,0.02,0.04,0.02
				c0.04,0.02,0.09,0.01,0.12-0.03c0.02-0.03,0.03-0.08,0.01-0.11c-0.01-0.01-0.02-0.01-0.02-0.02c-0.02-0.01-0.02-0.01-0.02-0.04
				c0-0.04,0-0.04,0.1-0.1c0.05-0.03,0.06-0.04,0.07-0.04c0.02,0,0.04,0,0.07-0.02l0.02-0.01c0.01-0.01,0.01-0.01,0.01-0.01
				c0,0,0.01,0,0.01,0l0.02,0c0.04,0,0.06,0,0.08-0.01c0.01,0,0.02,0,0.03-0.01c0.02,0,0.04-0.01,0.05-0.01
				c0.01-0.01,0.03-0.01,0.06-0.01c0.03,0,0.06,0,0.08-0.03c0.02-0.02,0.01-0.04,0.01-0.06c0.01,0,0.03,0,0.05,0
				c0.01,0,0.02,0,0.03,0l0,0.01c0,0-0.01,0.02-0.03,0.06l-0.01,0.01c-0.02,0.03-0.02,0.04-0.03,0.07c0,0.02,0,0.04,0.02,0.06
				c0.02,0.03,0.05,0.04,0.08,0.05c0.02,0,0.06-0.01,0.13-0.03c0.03-0.01,0.06-0.03,0.08-0.05c0.01-0.01,0.02,0.01,0.02,0
				c0.01-0.01,0.02,0,0.02,0h0.01c0.01,0,0.04-0.02,0.08-0.05c0,0,0.01-0.01,0.01-0.02c0.01,0,0.02,0,0.04-0.01l0.02,0
				c0.04,0,0.06-0.01,0.09-0.04c0,0,0-0.01,0-0.01c0,0,0.01,0,0.01,0c0.01,0,0.03,0,0.07-0.01c0.04-0.01,0.07-0.01,0.09-0.05
				c0.01-0.03,0-0.05-0.02-0.06c0,0,0,0,0,0c0.01,0,0.01,0,0.02,0c0.01,0,0.02,0,0.02-0.01l0-0.01l-0.01,0c0,0,0,0,0-0.01
				c0-0.01,0.01-0.02,0.01-0.02c0.01,0.01,0.02,0.03,0.03,0.04c0.01,0.01,0.01,0.01,0.02,0c0,0,0.01-0.01,0.04-0.01
				c0.05-0.01,0.06-0.02,0.06-0.04c0,0,0,0,0-0.01c0,0,0-0.01,0-0.01c0-0.01-0.02-0.01-0.03-0.01c-0.02,0-0.04-0.01-0.05-0.02
				c-0.01-0.01-0.01-0.01-0.01-0.03c0-0.01,0-0.04-0.01-0.08c-0.01-0.04-0.01-0.06-0.03-0.06c0,0-0.02,0-0.02,0.04l-0.09,0.09l0,0
				c0,0-0.01,0.03-0.02,0.09c-0.01,0-0.01,0-0.02,0c-0.01,0-0.01-0.01-0.01-0.01l-0.08,0.04c-0.01-0.02,0-0.03,0.01-0.03
				c0,0-0.01,0-0.01,0c-0.02,0-0.04-0.01-0.09-0.01c-0.07,0-0.09-0.02-0.09-0.02c-0.01-0.05-0.04-0.06-0.11-0.07c0,0,0,0-0.01,0
				c0-0.01,0.01-0.02,0.01-0.04c0-0.03,0-0.05-0.02-0.07c0,0,0.01-0.01,0.01-0.01c0.01-0.01,0.01-0.01,0.02-0.03
				c0.01-0.01,0.01-0.03,0.01-0.04c0.01,0,0.02-0.01,0.03-0.01c0.03-0.01,0.08-0.02,0.08-0.06c0-0.04-0.03-0.06-0.06-0.07
				c-0.01,0-0.02-0.01-0.02-0.01c-0.03-0.02-0.06-0.04-0.15-0.04c-0.05,0-0.12,0.01-0.18,0.02c0-0.01,0.01-0.02,0.02-0.03
				c0.02-0.02,0.02-0.03,0.02-0.02c0.01,0,0.04,0.01,0.07,0c0.04-0.01,0.14,0,0.18,0c0,0,0.15,0.01,0.37,0.02
				c0.14,0.01,0.17,0,0.2-0.05c0.01-0.01,0.02-0.03,0.06-0.05c0.05-0.03,0.08-0.04,0.09-0.06c0.02-0.02,0.02-0.02,0.1-0.02
				c0.02,0,0.04,0,0.05,0c-0.01,0.04-0.03,0.08-0.03,0.08l-0.07,0.11l-0.05,0.09l0,0c0,0-0.01,0-0.01,0.01
				c-0.01,0.01-0.04,0.01-0.06,0.01c-0.02,0-0.03,0-0.03,0.01c0,0.01,0.01,0.01,0.03,0.02c0.02,0,0.04,0.01,0.05,0.01
				c0.01,0,0.01,0,0.02,0c0,0-0.01,0.01-0.02,0.01c-0.02,0.01-0.05,0.02-0.07,0.03c-0.04,0.02-0.05,0.02-0.05,0.04
				c0,0.01,0.02,0.02,0.05,0.02c0.09,0.01,0.29,0,0.3,0l0.06,0L15.31,13l0,0.01c0,0,0.05,0,0.09,0c-0.01,0.01-0.02,0.01-0.03,0.01
				c-0.02,0-0.03,0-0.04,0c-0.02,0-0.03,0-0.03,0.01c0,0.01,0.01,0.02,0.02,0.03c0.01,0.01,0.02,0.01,0.02,0.02
				c0.01,0.01,0.02,0.02,0.04,0.02c0.01,0,0.03-0.01,0.05-0.02c0.02-0.02,0.05-0.04,0.07-0.07c0.03,0.01,0.06,0,0.07-0.02
				c0.01-0.01,0.01-0.02,0.01-0.03c0,0,0,0,0.01-0.01c0,0,0.01,0,0.01-0.01c-0.01,0.01-0.01,0.02-0.01,0.04
				c0.01,0.04,0.01,0.04,0.01,0.06c0,0.01,0,0.01,0.01,0.01c0.01,0,0.02,0,0.03-0.01c0.01,0,0.02-0.01,0.02-0.01c0,0,0,0,0,0.01
				c0.01,0.05,0.02,0.06,0.02,0.06l0,0l0.09-0.02l0.05-0.06l0.01-0.05c0,0,0-0.04-0.02-0.06c-0.01,0-0.02-0.01-0.03,0
				c-0.02,0.01-0.03,0.01-0.04,0.02c-0.01,0-0.01,0.01-0.03,0.02c-0.01,0-0.01,0.01-0.02,0.01c0-0.03,0-0.07,0-0.07
				c-0.01,0,0.01,0.01,0,0.01c0,0,0.02-0.01,0.02-0.01v-0.01c0,0-0.03,0-0.03,0c0-0.01-0.02-0.02-0.03-0.03
				c-0.02-0.02-0.05-0.02-0.06-0.02c-0.01,0-0.02,0-0.02,0c0,0,0,0,0.01-0.02c0.02-0.02,0.05-0.03,0.07-0.03
				c0.02,0,0.03-0.01,0.03-0.02c0-0.01-0.01-0.02-0.07-0.04l-0.04-0.01c-0.09-0.04-0.1-0.04-0.15-0.03c-0.03,0-0.04,0.01-0.04,0.02
				c-0.01,0-0.02,0-0.06-0.02c-0.03-0.01-0.05-0.02-0.06-0.02c-0.03-0.01-0.06-0.02-0.06-0.02c0,0,0,0,0.01-0.02
				c0.01-0.01,0.02-0.02,0.02-0.03c0.06-0.06,0.09-0.1,0.08-0.12c-0.01-0.02-0.03-0.03-0.05-0.04c0,0,0,0,0.01-0.01
				c0.01-0.01,0.04-0.03,0.03-0.07c0-0.02-0.02-0.03-0.04-0.04c0.01-0.06-0.03-0.08-0.06-0.1c-0.01,0-0.01-0.01-0.02-0.01
				c-0.02-0.01-0.04-0.02-0.06-0.02c-0.01-0.05-0.05-0.04-0.07-0.04c0,0,0,0-0.01,0c0-0.03-0.02-0.04-0.04-0.05l0-0.01L15,12.08
				c-0.02-0.02-0.03-0.04-0.09-0.03c-0.03,0.01-0.04-0.02-0.05-0.02c0,0-0.01,0,0,0c0,0-0.01,0.01-0.01,0.01
				c0-0.01-0.01-0.02-0.04-0.03c-0.02-0.01-0.04,0.01-0.05,0.01c-0.01,0-0.02,0.01-0.04,0.02c-0.01,0-0.03,0-0.03,0
				c0-0.01,0-0.01,0-0.02c0-0.03-0.02-0.04-0.03-0.05c-0.03-0.02-0.07-0.01-0.11-0.01c-0.01,0-0.01,0-0.02,0c0,0,0-0.01,0-0.01
				l0.01-0.01c0.01-0.02,0.02-0.04,0.01-0.06c0-0.01-0.01-0.02-0.02-0.03c0-0.05-0.04-0.06-0.07-0.07c-0.02,0-0.04-0.01-0.07-0.03
				c-0.09-0.04-0.12-0.07-0.19-0.14c-0.03-0.02-0.01-0.06-0.05-0.04c-0.03,0.02,0.02,0.05,0.02,0.07c0,0,0,0,0,0
				c0,0.02-0.09,0.07-0.11,0.09c0,0-0.03,0-0.03,0c-0.02,0-0.07,0.01-0.13,0.04c-0.02,0.01-0.03,0.01-0.04,0.02
				c-0.02-0.01-0.06-0.05-0.11-0.08c-0.01,0-0.01-0.01-0.02-0.01c-0.01-0.01-0.02-0.02-0.03-0.03c0,0,0,0,0,0
				c0.01-0.02,0.02-0.04,0.03-0.08c0-0.04,0.01-0.07-0.02-0.08c0,0,0,0,0,0l0.24,0.02c0.02,0,0.12,0,0.17-0.02
				c0.02-0.01,0.03-0.03,0.03-0.04c0.02-0.01,0.07-0.03,0.09-0.06c0.01-0.02,0.02-0.04,0.01-0.05c0.02,0,0.03-0.01,0.05-0.02
				c0.06-0.04,0.1-0.07,0.12-0.08l0.02-0.02l-0.01-0.03c-0.01-0.03-0.01-0.04-0.26-0.07l-0.16-0.01L14,11.14
				c0.04-0.02,0.04-0.05,0.03-0.06c-0.01-0.04-0.05-0.04-0.12-0.03l-0.12-0.02l-0.14-0.01l-0.05-0.02l0.01,0
				c0,0,0.07-0.03,0.13-0.05l0.08-0.02c0.03,0,0.06,0.01,0.09,0.01c0.18,0.03,0.21,0.02,0.23,0.01c0.02-0.01,0.04-0.02,0.14-0.01
				c0.21,0.02,0.29,0.01,0.3,0.01l0.19,0.07c0.05,0.02,0.07,0.03,0.09,0.03c0,0.01,0.01,0.01,0.04,0.02
				c0.03,0.01,0.05,0.01,0.06,0.01c0,0-0.01,0-0.01,0c-0.01,0-0.03,0.01-0.06,0.02c-0.02,0-0.03,0.01-0.04,0.02
				c0,0.01,0.02,0.02,0.07,0.03c0.02,0,0.04,0.01,0.06,0.02c0.06,0.02,0.09,0,0.11-0.01c0,0.01,0,0.01-0.01,0.02
				c-0.01,0.01-0.01,0.01-0.02,0.02c-0.01,0.01-0.02,0.01-0.04,0.04c-0.01,0.02-0.02,0.02-0.02,0.03c0,0.01,0.01,0.01,0.02,0.01
				c0.01,0,0.03,0,0.06,0.03c0.04,0.04,0.08,0.06,0.12,0.09c0.02,0.02,0.05,0.03,0.07,0.05c0.06,0.04,0.34,0.17,0.35,0.18l0.23,0.02
				c0,0,0.1,0,0.19,0.04c0.03,0.01,0.06,0.03,0.06,0.04c0,0.01,0.01,0.01,0.02,0.01c0,0,0-0.01,0-0.01c0,0,0,0,0,0
				c0.02,0,0.13,0.01,0.17,0.01c0,0,0-0.01,0-0.01c0,0,0,0,0,0c-0.01,0-0.03,0.01-0.05,0.01c0.02,0,0.04,0.01,0.05,0.01
				c0.01,0,0.02,0,0.02,0c0.01-0.01,0-0.03-0.05-0.11c-0.01-0.02-0.03-0.04-0.04-0.06c-0.02-0.04-0.01-0.05-0.01-0.05l0.01,0
				l-0.02-0.06c-0.01-0.03-0.03-0.09-0.01-0.1c0.02-0.01,0.03-0.01,0.07-0.01c0.03,0,0.07,0.01,0.13,0.01c0.08,0,0.09,0,0.1-0.01
				c0-0.01-0.01-0.02-0.02-0.03c-0.01-0.01-0.04-0.02-0.05-0.04c-0.01-0.01-0.01-0.02-0.01-0.02c0,0,0,0,0,0
				c0.01,0,0.03,0,0.05,0.01c0.02,0,0.04,0,0.06-0.01c0.01-0.01,0.02-0.01,0.03-0.02c0.02,0,0.04,0,0.07,0c0.03,0,0.05,0,0.07,0
				c0.02,0,0.03,0,0.03-0.01c0.01-0.01,0-0.02-0.03-0.05c-0.04-0.04-0.12-0.05-0.32-0.09c-0.15-0.03-0.36-0.06-0.67-0.13
				c-0.29-0.06-0.72-0.13-1.12-0.11c-0.01,0-0.02,0-0.02,0c-0.04,0-0.16,0.01-0.22,0.01l-0.02,0c-0.01,0-0.02,0-0.03,0
				c-0.04,0.01-0.11,0.01-0.21,0.01c-0.05,0-0.08,0-0.1,0c-0.03,0-0.03,0-0.08,0c-0.03,0-0.05,0-0.06,0l-0.13-0.01
				c-0.14-0.01-0.21,0.02-0.25,0.04c-0.01,0-0.02,0.01-0.03,0.01c-0.02,0-0.05,0.01-0.08,0.02c-0.02,0.01-0.04,0.01-0.07,0.02
				c-0.02-0.01-0.04-0.01-0.06-0.01c-0.02,0-0.04,0-0.07,0c-0.03,0-0.05,0-0.06,0c-0.05,0-0.07,0-0.14,0
				c-0.02,0-0.05,0.01-0.07,0.03c-0.02-0.01-0.04,0-0.07,0c-0.02,0-0.03,0.01-0.06,0.01c-0.08,0.01-0.13,0.06-0.13,0.1
				c0,0.03,0.02,0.06,0.07,0.07l0.02,0c0,0,0,0,0,0c-0.01,0-0.03,0.01-0.04,0.01c-0.02,0-0.03,0-0.03,0.01c0,0,0,0,0,0
				c0-0.05-0.09-0.05-0.13-0.05c-0.04,0-0.08,0.01-0.11,0.03c0,0-0.01,0-0.01,0c0.01-0.01,0.01-0.01,0.02-0.02
				c0.04-0.04,0.03-0.07,0.02-0.08c-0.03-0.05-0.16-0.01-0.21,0.01c-0.07,0.03-0.16,0.09-0.18,0.16c0,0.01-0.03,0.02-0.09,0.02
				l-0.02,0c-0.04,0-0.08,0-0.13,0.01c0.03-0.02,0.03-0.04,0.03-0.05c-0.01-0.04-0.04-0.04-0.13-0.05c-0.02,0-0.04,0-0.06,0
				c-0.09-0.01-0.2,0.03-0.29,0.07c-0.02,0.01-0.04,0.02-0.06,0.02c-0.03,0.01-0.06,0.02-0.06,0.05c-0.01,0.03,0.01,0.05,0.02,0.06
				c0,0,0.01,0.01,0.01,0.01c-0.01,0.02-0.01,0.02-0.1,0c-0.06-0.01-0.07-0.01-0.1,0.01c-0.01,0.01-0.03,0.01-0.06,0.02
				c-0.01,0-0.02,0-0.02,0.01c0,0,0-0.01,0-0.01l-0.01-0.04l-0.04,0.02c-0.28,0.11-0.56,0.23-0.83,0.37
				c-0.28,0.15-0.59,0.33-0.84,0.48c-0.1,0.06-0.19,0.13-0.28,0.19c-0.19,0.14-0.34,0.27-0.44,0.36c-0.04,0.03-0.07,0.06-0.09,0.07
				c-0.05,0.04-0.06,0.07-0.07,0.1c0,0.01,0,0.01-0.01,0.02C8.3,13,8.29,13.04,8.29,13.06c0,0.02,0,0.02-0.01,0.02
				c-0.02,0.01-0.03,0.03-0.05,0.05c-0.01,0.02-0.02,0.03-0.04,0.05c-0.02,0.03-0.05,0.07-0.07,0.1c-0.03,0.03-0.05,0.05-0.07,0.09
				c-0.04,0.05-0.08,0.11-0.16,0.17c-0.14,0.11-0.21,0.2-0.32,0.4c-0.09,0.17-0.13,0.2-0.19,0.25c-0.01,0.01-0.02,0.02-0.03,0.03
				c-0.08,0.08-0.09,0.11-0.09,0.2c0,0.08-0.02,0.13-0.04,0.14c-0.04,0.03-0.04,0.06-0.03,0.08c0,0.02,0,0.04-0.02,0.09
				c-0.05,0.12-0.05,0.16,0.05,0.22l0.02,0.01c0.01,0,0.01,0.01,0.02,0.01c0,0,0,0,0,0c0,0.01-0.01,0.03-0.02,0.05
				c-0.01,0.05-0.01,0.09-0.01,0.12c0,0.01,0,0.03,0,0.05c0,0.02-0.01,0.05-0.01,0.07c-0.02,0.06-0.03,0.12-0.04,0.17
				c-0.01,0.05-0.01,0.09-0.03,0.12c-0.03,0.06,0,0.09,0.02,0.12c0.01,0.02,0.02,0.03,0.02,0.07c-0.01,0.09-0.03,0.09-0.08,0.09
				c-0.04,0-0.06,0.02-0.07,0.04c-0.02,0.05,0.01,0.1,0.09,0.19c0.02,0.02,0.04,0.04,0.05,0.05c0.03,0.02,0.03,0.02,0.01,0.07
				c-0.04,0.11-0.02,0.22,0.05,0.32c0.03,0.04,0.03,0.08,0.03,0.09c0,0.03,0.02,0.04,0.04,0.05c0.03,0.01,0.05-0.02,0.05-0.04
				c0.01-0.01,0.01-0.02,0.02-0.03c0.02-0.03,0.04-0.05,0.04-0.12c0-0.05,0-0.1-0.06-0.11c0,0,0,0,0-0.01
				c0.01-0.02,0.01-0.05,0.01-0.09c0-0.04-0.01-0.05-0.01-0.07c0-0.01,0-0.02,0-0.04c0.01-0.06,0.03-0.14-0.04-0.25
				c0-0.01-0.02-0.03-0.02-0.03c0.01-0.02,0.02-0.04,0.02-0.1c0-0.04,0.01-0.07,0.01-0.09c0.01-0.05,0.01-0.08-0.01-0.15
				c-0.02-0.05-0.01-0.11,0.07-0.2c0.01,0.01,0.02,0.03,0.02,0.05c0,0.02,0,0.02-0.01,0.04c-0.01,0.01-0.02,0.03-0.02,0.05
				c-0.01,0.02-0.01,0.05-0.01,0.07c0,0.02-0.01,0.04-0.01,0.05c-0.03,0.04-0.01,0.08,0,0.1c0.01,0.01,0.02,0.03,0.02,0.04
				c0,0.06,0.02,0.08,0.05,0.1c0,0,0.01,0.01,0.01,0.01c0,0,0.01,0.01,0.01,0.01c0,0,0,0,0,0.01c0,0.01,0,0.02,0,0.04
				c0,0.04,0.01,0.06,0.02,0.07c0,0,0,0,0,0.01c-0.04,0.07-0.01,0.2,0.05,0.25c0.03,0.03,0.04,0.06,0.03,0.13
				c0,0.04,0.02,0.07,0.03,0.09c0.02,0.03,0.04,0.06,0.04,0.14c0,0.12,0.03,0.17,0.06,0.2c0.01,0.01,0.01,0.01,0.01,0.01
				c0.01,0.02,0,0.06-0.03,0.11c-0.03,0.06-0.07,0.12-0.05,0.2c0.01,0.06,0.06,0.11,0.1,0.14c0.02,0.01,0.04,0.03,0.04,0.04
				c0.01,0.06,0.07,0.15,0.21,0.16c0.01,0,0.02,0,0.03,0c0,0.01,0.01,0.03,0.02,0.04c0.05,0.06,0.11,0.11,0.15,0.13
				c0.02,0.02,0.05,0.02,0.08,0.03c0.03,0.01,0.08,0.02,0.14,0.05c0.02,0.01,0.03,0.02,0.04,0.02l0,0.01l0.01,0.02
				c0.01,0.02,0.03,0.02,0.05,0.02c0.03,0,0.03,0.01,0.08,0.02l0.06,0.02c0.07,0.03,0.1,0.03,0.14,0c0.01-0.01,0.01-0.01,0.03-0.02
				c0.02-0.01,0.04-0.03,0.06-0.05c0.03-0.03,0.06-0.06,0.12-0.05c0.01,0,0.02,0,0.03,0c0.01,0.03,0.05,0.03,0.08,0.04l0.01,0
				c0,0.01,0.01,0.02,0.02,0.03c0.03,0.03,0.1,0.13,0.17,0.21c0.02,0.02,0.03,0.05,0.05,0.07c0.07,0.11,0.14,0.09,0.21,0.08
				c0.02,0,0.04-0.01,0.06-0.01c0.01,0,0.01,0,0.02,0c0,0.01,0,0.02,0,0.03c0,0.07,0.03,0.09,0.08,0.1c0.01,0,0.03,0.01,0.06,0.02
				c0.08,0.04,0.12,0.02,0.17,0c-0.02,0.05,0.02,0.08,0.06,0.11c0.01,0.01,0.02,0.02,0.04,0.03c0.02,0.02,0.04,0.04,0.05,0.07
				c0.03,0.05,0.07,0.12,0.16,0.12c0,0,0.01,0,0.01,0c0,0,0,0-0.01,0c-0.06,0.04-0.04,0.09-0.03,0.12c0.01,0.01,0.01,0.03,0.01,0.04
				c0,0.03,0,0.08,0.04,0.11c0.03,0.03,0.07,0.04,0.12,0.03c0.04,0,0.06,0.01,0.06,0.02l0,0.01l0.06,0.07
				c0.01,0.02,0.02,0.06,0.02,0.08c0,0.05,0.02,0.07,0.08,0.12c0.06,0.05,0.12,0.04,0.16,0.02c0.05,0.02,0.16,0.05,0.2,0.05
				c0.01,0,0.01,0,0.01,0c0,0,0,0,0.01,0.01c0.01,0.01,0.02,0.02,0.05,0.03c0.02,0.01,0.02,0.02,0.02,0.02c0,0,0,0.01,0,0.01
				c0,0.02,0,0.04,0,0.07c0,0.02,0.01,0.05,0.04,0.06c0.03,0.01,0.05-0.01,0.06-0.03c0.01-0.01,0.02-0.02,0.03-0.03
				c0.07-0.03,0.09-0.07,0.1-0.08l0.01-0.01l-0.02-0.07l-0.03-0.04c0.02,0,0.04-0.01,0.06-0.01c0.03-0.01,0.06-0.04,0.07-0.06
				c0.01-0.02,0.02-0.03,0.04-0.04c0.01,0,0.05,0,0.1,0.02c0.03,0.02,0.04,0.03,0.05,0.04c0,0.02,0,0.04,0,0.05
				c0,0.03,0,0.06,0.01,0.1c0.01,0.03,0.03,0.06,0.06,0.08c0.01,0.01,0.03,0.03,0.03,0.03c0,0.02,0.01,0.04,0.02,0.06
				c0.01,0.01,0.02,0.04,0.02,0.05c-0.02,0.03,0,0.06,0.01,0.08c0,0,0.01,0.01,0.01,0.01c-0.03,0.03-0.03,0.09-0.02,0.14
				c0,0.04,0.01,0.08-0.01,0.1c-0.04,0.06-0.02,0.11,0,0.14c0.01,0.02,0.02,0.04,0.02,0.05c0,0.04-0.06,0.11-0.07,0.12
				c0,0-0.01,0-0.01,0c-0.05,0.01-0.16,0.03-0.17,0.12c-0.01,0.03-0.02,0.04-0.02,0.04h-0.03l-0.01,0.01c0,0-0.02,0.04,0,0.08
				c0,0.01-0.02,0.02-0.03,0.03c-0.01,0.01-0.01,0.01-0.01,0.01c0,0-0.01,0-0.02,0c-0.02,0-0.05,0-0.1,0c-0.06,0-0.09,0.01-0.1,0.04
				c-0.01,0.03,0.02,0.05,0.03,0.06c0.01,0.01,0.03,0.02,0.04,0.04c-0.01,0-0.01,0-0.02,0.01c-0.03,0.02-0.04,0.05-0.05,0.08
				c-0.01,0.02-0.01,0.03-0.02,0.05c0,0.01-0.01,0.01-0.01,0.01c-0.04,0.02-0.04,0.06-0.03,0.08l0,0.01
				c0.01,0.05,0.01,0.08-0.02,0.14c-0.03,0.04-0.05,0.09,0.01,0.13c0.01,0,0.01,0.01,0.02,0.02c0.02,0.03,0.05,0.03,0.07,0.04
				c0.01,0,0.03,0,0.07,0.03c0.01,0.01,0.02,0.02,0.02,0.02c-0.01,0-0.02,0.01-0.04,0.01c-0.03,0-0.06,0-0.07,0.04
				c0,0-0.01,0.01-0.01,0.01c-0.04,0.03-0.05,0.04-0.06,0.06c-0.01,0.02-0.03,0.04-0.07,0.09c-0.04,0.04-0.06,0.07-0.05,0.11
				c0.01,0.03,0.03,0.04,0.05,0.05c0.02,0.01,0.04,0.02,0.06,0.05c0.03,0.04,0.03,0.05,0.03,0.05c0,0-0.02,0.01-0.03,0.01
				c-0.03,0.01-0.04,0.03-0.04,0.04c0,0.04,0.03,0.05,0.09,0.09c0.04,0.02,0.09,0.05,0.15,0.09l0.05,0.04c0,0,0,0,0,0
				c0,0.01,0,0.03,0.01,0.04c0.02,0.05,0.02,0.06,0.06,0.08c0.01,0.01,0.03,0.02,0.05,0.04c0.04,0.04,0.08,0.13,0.12,0.21
				c0.03,0.07,0.06,0.13,0.09,0.16c0.06,0.06,0.07,0.12,0.07,0.15l0,0.02c0,0.06,0.02,0.09,0.09,0.09c0.01,0,0.04,0.05,0.06,0.07
				c0.02,0.03,0.04,0.06,0.07,0.09c0.07,0.08,0.07,0.08,0.07,0.12c0,0.02,0,0.03,0,0.04c0,0.02-0.01,0.05,0.01,0.09
				c0.02,0.05,0.06,0.08,0.14,0.13c0.03,0.02,0.06,0.04,0.09,0.07l0.03,0.03c0.11,0.08,0.18,0.14,0.44,0.23
				c0.06,0.02,0.09,0.03,0.11,0.04c0,0.03,0.03,0.05,0.06,0.06c0,0,0.01,0,0.01,0c0,0,0,0.01,0,0.01c0,0.01,0,0.03,0.01,0.04
				c0.02,0.02,0.05,0.03,0.09,0.04c0.03,0.01,0.06,0.01,0.08,0.03l0.01,0.01c0.02,0.01,0.03,0.02,0.03,0.02c0,0,0,0.01,0,0.01
				l0,0.01c0,0.02,0.01,0.03,0.01,0.05c0.01,0.03,0.02,0.06,0.03,0.14c0.01,0.08,0.01,0.08,0.01,0.11c0,0.01,0,0.04,0,0.08
				c0,0.06,0,0.07,0,0.08c-0.01,0.02-0.02,0.04-0.02,0.1c0,0.04-0.01,0.06-0.01,0.09c-0.01,0.07-0.01,0.09-0.03,0.1
				c-0.02,0.02-0.05,0.04-0.05,0.07c0,0.03,0.02,0.05,0.04,0.07c0,0,0.01,0.01,0.01,0.04c0,0.02,0,0.05,0.01,0.1
				c0.02,0.1,0.02,0.13,0.01,0.15c-0.01,0.03-0.01,0.06,0,0.07c0,0.02,0.01,0.03-0.01,0.04c-0.04,0.06-0.04,0.08-0.03,0.12
				c0,0.01,0,0.02,0,0.03c0,0.04,0,0.07-0.06,0.16c-0.04,0.07-0.03,0.1-0.01,0.14c0.01,0.02,0.02,0.04,0.02,0.07
				c0,0.04-0.01,0.05-0.02,0.07c-0.02,0.02-0.04,0.05-0.02,0.11c0.01,0.03,0.01,0.05,0.02,0.07c0.01,0.04,0.02,0.07,0.03,0.11
				c0.01,0.05,0,0.05,0,0.08c0,0.01-0.01,0.03-0.01,0.05c-0.01,0.05-0.05,0.19-0.06,0.24c-0.01,0.02-0.01,0.03-0.02,0.05
				c-0.01,0.03-0.01,0.05-0.04,0.1c-0.01,0.02,0.02,0.03,0.02,0.03c-0.04,0.01-0.01,0.05-0.01,0.07c0,0,0,0,0,0.01
				c0,0-0.05,0.01-0.06,0.01c-0.04,0.03-0.07,0.05-0.05,0.1c0,0.01,0,0.01,0,0.02l0.01,0.03c0.01,0.04,0.02,0.07,0.04,0.1
				c0.01,0.02,0.01,0.03,0.02,0.04c-0.01,0.01-0.01,0.02-0.02,0.04c-0.01,0.02-0.01,0.02-0.02,0.03l-0.02,0.02
				c-0.04,0.05-0.03,0.1-0.02,0.13l0,0.01c0,0.01,0,0.01,0,0.01c0,0.01,0,0.02,0,0.05c0,0.03,0,0.03,0,0.04
				c0,0.01-0.01,0.01-0.01,0.03c-0.01,0.02-0.01,0.03-0.04,0.06l-0.01,0.01c-0.01,0.02-0.03,0.03-0.03,0.06l0.01,0.02l0.01,0.01
				c0.02,0.04,0.06,0.03,0.08,0.03c0.01,0,0.02,0,0.03,0c0.02,0,0.05,0,0.06-0.02c0,0,0.01-0.01,0.01-0.02
				c0.01-0.01,0.02-0.04,0.03-0.08c0,0,0.01-0.04,0.03-0.08l0,0.04c-0.01,0.01-0.02,0.04-0.03,0.08c-0.02,0.04-0.02,0.05-0.02,0.08
				c0,0.01,0,0.02,0,0.03c0,0.03-0.01,0.05-0.01,0.07c0,0.02-0.01,0.03-0.01,0.05c0,0,0,0,0,0c0-0.01,0-0.03-0.01-0.05
				c0-0.01-0.02-0.04-0.05-0.04c-0.03,0-0.04,0.04-0.04,0.05c0,0.01,0,0.02-0.01,0.02c-0.01,0.01-0.01,0.01-0.01,0.01
				c-0.02,0.02-0.03,0.03-0.04,0.07c-0.01,0-0.03,0.01-0.04,0.01c-0.03,0-0.06,0-0.09,0c-0.03,0-0.06,0-0.1,0
				c-0.04,0-0.07,0-0.08,0.04c0,0.04,0.03,0.05,0.08,0.05c0.03,0,0.07,0.01,0.09,0.02c0.08,0.02,0.13,0.02,0.19-0.01
				c0,0,0.01,0,0.01,0.01c0,0,0.01,0,0.01,0c0,0.01-0.01,0.01-0.01,0.02c0,0.01-0.01,0.02-0.01,0.03c-0.04-0.01-0.09,0.03-0.1,0.03
				L12.64,28l0,0.02c0,0.01,0,0.03,0.04,0.07l0.02,0.02l0.03-0.01c0,0,0,0,0.01,0c0,0,0,0,0,0.01c0,0.01,0,0.02,0.01,0.03l0,0
				c0,0,0,0,0,0c-0.02,0-0.04,0-0.05,0.01c-0.01,0,0,0.01-0.02,0.01l-0.01,0v0.04v0.03v0.03l0.08,0.03l0.05-0.01l0.01,0
				c0,0.01,0.01,0.01,0.01,0.01c0.01,0.02,0.04,0.02,0.08,0.02c0.02,0,0.04,0.01,0.04,0.01c0,0,0,0,0.01,0.01
				c-0.02,0.01-0.02,0.03-0.02,0.04c-0.02,0.03-0.02,0.07,0,0.09l0.01,0.01l0.1,0.03l0.11,0.05l0.09-0.01l0.03-0.01
				c0,0,0,0.01,0,0.01c0,0.03,0.02,0.05,0.14,0.09c0.02,0,0.07,0.01,0.08,0.01c0.01,0,0.02,0,0.03,0c0.01,0,0.03,0,0.04,0
				c0.02,0,0.05-0.01,0.07,0c0.05,0.01,0.14,0,0.14,0l0.16-0.01c0.01,0,0.04-0.01,0.06-0.02l0.03-0.02l0-0.03
				c-0.01-0.03-0.03-0.04-0.07-0.05c-0.01,0-0.03-0.01-0.03-0.01c-0.03-0.02-0.09-0.04-0.11-0.05c-0.02-0.01-0.04,0-0.05,0
				c-0.01-0.01-0.01-0.01-0.02-0.02c-0.01-0.01-0.02-0.02-0.02-0.02c-0.01-0.01-0.04-0.08-0.09-0.12c-0.02-0.02-0.02-0.03-0.02-0.03
				c0,0,0,0,0.01-0.01c0.01-0.01,0.01-0.01,0.08-0.01c0.04,0,0.07-0.01,0.09-0.02c0.02-0.02,0.02-0.04,0.02-0.06
				c0-0.01,0-0.01,0-0.02c0-0.01,0-0.02,0-0.02c0,0,0.03-0.02,0.06-0.03l0.03-0.01c0.07-0.03,0.09-0.04,0.16-0.15
				c0.03-0.04,0.06-0.09,0.02-0.12c-0.03-0.03-0.07,0-0.1,0.03c0,0-0.04,0.02-0.13-0.03c-0.01,0-0.01-0.01-0.02-0.01
				c0.01-0.01,0.02-0.02,0.04-0.04c0.02-0.03,0.09-0.03,0.16-0.04c0.03,0,0.06-0.01,0.07-0.03c0.01-0.01,0.01-0.03,0.01-0.04
				l0.01-0.01c0.02-0.01,0.03-0.02,0.04-0.05c0,0,0-0.01,0-0.02c0-0.01,0-0.02,0.01-0.03c0-0.01,0-0.01,0-0.01
				c0,0,0.01-0.01,0.04-0.02c0.01,0,0.05-0.02,0.05-0.05c0-0.04-0.02-0.06-0.04-0.07c0,0-0.01,0-0.01-0.01c0-0.02,0-0.04-0.03-0.05
				c0,0,0-0.01,0-0.02c0.01-0.04,0-0.07-0.02-0.08c0,0,0-0.01,0-0.01c0,0,0,0,0,0c0.01,0,0.02,0.01,0.03,0.01
				c0.05,0.02,0.12,0.05,0.22,0.05c0.12,0,0.17-0.01,0.19-0.06c0.01-0.03,0-0.06-0.02-0.07c-0.02-0.02-0.04-0.04-0.03-0.05
				c0.06-0.04,0.04-0.09,0.03-0.12c0-0.01-0.01-0.01-0.01-0.02c0.02,0.01,0.05,0.02,0.08,0.03c0.1,0.02,0.21,0.03,0.52-0.08
				c0.29-0.1,0.3-0.22,0.3-0.26c0-0.03-0.02-0.06-0.05-0.07c0.03-0.05-0.01-0.09-0.02-0.11c0,0-0.01-0.01-0.01-0.01
				c-0.01-0.02-0.03-0.03-0.06-0.05c0.03,0.01,0.07,0.03,0.11,0.04l0.01,0c0.01,0,0.17,0.03,0.27,0.03c0.11,0,0.14-0.02,0.22-0.09
				l0.01-0.01c0.03-0.03,0.06-0.06,0.1-0.1l0.01-0.01c0.06-0.07,0.13-0.13,0.2-0.19c0.05-0.04,0.07-0.05,0.08-0.06l0,0l0,0
				l0.05-0.02c0.02-0.01,0.04-0.01,0.06-0.03c0.11-0.05,0.14-0.1,0.16-0.16c0.01-0.03,0.02-0.05,0.05-0.08
				c0.08-0.09,0.1-0.11,0.21-0.15c0.1-0.04,0.11-0.09,0.11-0.16c0-0.02,0-0.05,0-0.08c0-0.02,0.01-0.04,0.01-0.06
				c0.01-0.06,0.01-0.07,0.06-0.15c0.03-0.05,0.04-0.06,0.07-0.07c0.02-0.01,0.05-0.02,0.1-0.05c0.04-0.03,0.07-0.05,0.1-0.08
				c0.04-0.04,0.08-0.07,0.14-0.1c0.06-0.03,0.08-0.05,0.11-0.07c0.02-0.02,0.03-0.02,0.06-0.02c0.07,0,0.09,0,0.11-0.04
				c0.01-0.01,0.02-0.02,0.04-0.05c0.04-0.04,0.09-0.04,0.19-0.03c0.03,0,0.06,0.01,0.09,0.01c0.07,0,0.1,0,0.12-0.02
				c0.02-0.02,0.02-0.05,0.02-0.06c0,0,0-0.01,0-0.01c0.08-0.04,0.1-0.06,0.13-0.15c0.02-0.06,0.04-0.09,0.11-0.13
				c0.07-0.05,0.09-0.07,0.12-0.13c0.01-0.02,0.02-0.04,0.04-0.06c0.02-0.02,0.04-0.05,0.07-0.09c0.01-0.03,0.03-0.06,0.04-0.09
				c0-0.01,0.01-0.01,0.01-0.02c0,0,0,0,0.01,0c0.03,0,0.04-0.03,0.05-0.06c0.01-0.03,0.02-0.08,0.06-0.13
				c0.06-0.08,0.07-0.16,0.09-0.24c0.01-0.03,0.01-0.06,0.02-0.09c0.01-0.05,0.03-0.12,0.04-0.18c0.01-0.07,0.02-0.13,0.04-0.18
				c0,0,0-0.01,0-0.01c0.01,0.03,0.03,0.04,0.04,0.04c0.04,0,0.05-0.03,0.08-0.07c0.02-0.04,0.05-0.1,0.09-0.15
				c0.08-0.1,0.12-0.16,0.16-0.21l0.02-0.03c0.01-0.02,0.03-0.03,0.04-0.05c0.03-0.03,0.06-0.06,0.1-0.12
				c0.03-0.05,0.06-0.09,0.08-0.14c0.03-0.05,0.06-0.11,0.1-0.18c0.08-0.12,0.06-0.27,0.04-0.38C19.73,21.72,19.72,21.7,19.72,21.68
				z M15.13,12.2C15.13,12.21,15.13,12.21,15.13,12.2l-0.04,0.01L15.13,12.2z M16.05,11.65c0.02,0.01,0.03,0.01,0.04,0.02
				C16.08,11.67,16.07,11.66,16.05,11.65c-0.04-0.01-0.08-0.02-0.12-0.03C15.97,11.62,16.01,11.63,16.05,11.65z M14.98,11.06
				c0.01,0,0.01-0.01,0.04-0.01c0.01,0,0.02,0,0.02,0c-0.01,0-0.02,0.01-0.03,0.01C15,11.06,14.98,11.06,14.98,11.06
				C14.98,11.06,14.98,11.06,14.98,11.06z M11.32,13.25c-0.04,0.01-0.14,0.05-0.16,0.14c-0.01,0.04-0.01,0.07,0,0.09
				c0,0.02,0,0.03-0.01,0.05c-0.03,0.05-0.06,0.1-0.07,0.11c-0.01,0-0.01,0.01-0.02,0.01c0-0.04,0.01-0.15,0.03-0.23l0.06-0.16
				l0.14-0.07c0.02,0,0.09-0.02,0.13-0.03l0.03,0C11.39,13.2,11.34,13.23,11.32,13.25z M11.73,13.67c-0.04,0.03-0.06,0.03-0.07,0.03
				c-0.01,0-0.01-0.01-0.01-0.01c0,0,0,0,0,0l0-0.01c0,0-0.03-0.05-0.01-0.07c0.01-0.01,0.01-0.01,0.02-0.02
				c0,0.01,0.01,0.02,0.02,0.02c0.01,0.01,0.03,0.02,0.05,0.01c0.02,0,0.07-0.01,0.12-0.01c0,0,0,0,0,0
				C11.81,13.6,11.77,13.64,11.73,13.67z M11.89,13.24c-0.03,0.03-0.08,0.11-0.09,0.13c-0.01,0.03-0.04,0.07-0.04,0.08
				c-0.01,0-0.02,0-0.03,0.01c0-0.06-0.01-0.09-0.03-0.11c-0.01,0-0.01-0.01-0.02-0.01c0.01-0.01,0.01-0.02,0.02-0.04
				c0.01-0.04,0.01-0.08-0.02-0.11c-0.01-0.01-0.02-0.02-0.03-0.03c0.02,0,0.04,0,0.06,0c0.09,0,0.14-0.01,0.18-0.02
				c0.05-0.01,0.06-0.01,0.09,0.01c0.03,0.03,0.06,0.04,0.08,0.05c0,0,0,0.01,0,0.01c0,0.02,0,0.03,0,0.04
				C11.99,13.22,11.93,13.2,11.89,13.24z M12.49,13.43c-0.01,0.01-0.06,0.01-0.1,0l0.12-0.06l0.01,0
				C12.51,13.39,12.5,13.41,12.49,13.43z M13.09,12.57c-0.01,0.02-0.01,0.03-0.02,0.04c-0.01-0.01-0.02-0.02-0.03-0.03l0.04-0.03
				l0.01-0.01c0,0,0,0,0,0C13.09,12.56,13.09,12.56,13.09,12.57z M11.48,11.71l0.05-0.03c0.03-0.02,0.05-0.03,0.07-0.04
				c0.09-0.05,0.09-0.05,0.19-0.06c0.09,0,0.11-0.02,0.15-0.05c0.02-0.01,0.03-0.03,0.07-0.04c0.04-0.01,0.1,0,0.14,0.01
				c0.06,0.01,0.12,0.02,0.15-0.02c0.02-0.02,0.03-0.03,0.06-0.04c0.02-0.01,0.04-0.02,0.07-0.04c0.07-0.04,0.07-0.05,0.09-0.06l0,0
				c0.01,0,0.03,0,0.04,0c0.04,0,0.07,0.01,0.11,0c0.02-0.01,0.04-0.01,0.07-0.02c0.05-0.01,0.1-0.03,0.16-0.05
				c0.03-0.01,0.06-0.03,0.07-0.06c0.01-0.03-0.01-0.05-0.02-0.07c0,0,0,0,0,0c0.03,0.01,0.06,0.02,0.09,0.03
				c0.07,0.02,0.11,0.04,0.14,0.04c0.01,0,0.02,0,0.03-0.01c0,0,0,0.01,0,0.01c-0.03,0.01-0.05,0.03-0.05,0.06
				c0,0.01,0.01,0.04,0.04,0.04c-0.08,0.01-0.17,0.03-0.19,0.04c-0.02,0.01-0.03,0.04-0.02,0.06c0.02,0.05,0.12,0.07,0.18,0.07
				c0.04,0,0.07-0.01,0.09-0.01c0.03,0,0.06-0.01,0.11-0.01c0.04,0,0.04,0,0.05,0.01c0.01,0.01,0.03,0.03,0.06,0.05
				c0.02,0.01,0.03,0.02,0.04,0.03c0.02,0.02,0.04,0.02,0.07,0.01c0.02,0,0.04-0.01,0.05-0.01c-0.01,0-0.02,0.01-0.03,0.02
				c-0.01,0.01-0.03,0.03-0.05,0.03c0,0-0.01,0-0.01,0c0,0,0-0.01,0-0.01c-0.01-0.04-0.05-0.06-0.08-0.07
				c-0.02-0.01-0.04-0.01-0.07-0.03c-0.04-0.03-0.07-0.03-0.1-0.02c-0.01,0-0.02,0.01-0.04,0c-0.06-0.01-0.1,0-0.15,0
				c-0.03,0-0.06,0-0.1,0c-0.05,0-0.09,0.01-0.1,0.04c-0.01,0.02-0.01,0.04,0,0.06c0,0-0.01,0-0.01,0
				c-0.02,0.01-0.05,0.02-0.06,0.05c-0.01,0.03,0,0.06,0.01,0.08c0,0,0,0.01,0,0.01c-0.02,0.01-0.08,0.02-0.12,0.02
				c-0.04,0-0.08,0.01-0.09,0.05c-0.01,0.04,0.02,0.05,0.07,0.07c0.03,0.01,0.07,0.04,0.12,0.07c0.02,0.01,0.03,0.02,0.04,0.03
				c0,0-0.01,0-0.01,0.01c-0.02,0.01-0.05,0.03-0.07,0.07c-0.02,0.04-0.11,0.06-0.22,0.07l-0.03,0c-0.09,0.01-0.13,0.01-0.14,0.05
				c-0.01,0.04,0.03,0.06,0.06,0.07c0.01,0.02-0.01,0.07-0.03,0.1l-0.04,0.19c-0.02,0.04-0.06,0.08-0.08,0.08h-0.03
				c-0.01,0-0.03-0.05-0.04-0.09l-0.01-0.01c-0.01-0.02-0.05-0.09-0.07-0.14c-0.01-0.05-0.01-0.07,0-0.1
				c0.01-0.02,0.03-0.06,0.07-0.12c0.01-0.01,0.03-0.05,0.01-0.08c-0.03-0.03-0.06-0.02-0.11,0c-0.02,0.01-0.04,0.01-0.05,0.02
				c-0.04,0.01-0.07,0.01-0.12,0.01l-0.04,0c-0.03,0-0.03,0-0.06-0.02c-0.02-0.01-0.04-0.03-0.08-0.05
				c-0.05-0.03-0.08-0.04-0.1-0.04c-0.02,0-0.03-0.01-0.08-0.04c-0.09-0.07-0.19-0.03-0.27,0c0,0,0,0,0,0
				c0-0.01,0.01-0.03,0.01-0.04c0.01-0.06,0-0.08-0.03-0.11C11.39,11.76,11.44,11.73,11.48,11.71z M11.27,12.64
				c0.01,0.02,0.02,0.03,0.02,0.05c-0.01,0-0.03,0-0.04,0c0,0-0.01,0-0.01,0C11.25,12.68,11.26,12.66,11.27,12.64z M11.05,12.93
				l0.28-0.09c0.03-0.02,0.09-0.04,0.12-0.03c0,0,0.01,0,0.01,0.01c0.02,0.05,0.03,0.06,0.04,0.08c0.01,0.01,0.01,0.02,0.03,0.04
				c0.02,0.03,0.03,0.06,0.03,0.07c0,0.01-0.01,0.01-0.01,0.02c0,0,0,0,0,0C11.52,13,11.48,13,11.45,13c-0.05,0-0.1,0.02-0.12,0.02
				c-0.01,0-0.02,0.01-0.02,0.01c-0.01,0-0.01,0-0.03-0.01c-0.01,0-0.01,0-0.01,0c-0.01-0.04-0.05-0.04-0.11-0.03
				c-0.1,0.01-0.18,0.03-0.21,0.04l-0.1-0.02l-0.01,0c-0.01,0-0.02,0-0.03,0L11.05,12.93z M10.57,12.03
				c0.01-0.02,0.01-0.04,0.01-0.05c0,0,0,0,0.01,0L10.6,12C10.59,12.01,10.58,12.02,10.57,12.03
				C10.57,12.04,10.57,12.03,10.57,12.03z M10.53,12.36C10.54,12.36,10.54,12.36,10.53,12.36c0.01,0,0.02,0,0.03-0.01l0,0
				c0,0.01,0,0.05-0.01,0.09c0,0,0-0.01,0-0.01c-0.01-0.02-0.01-0.03-0.01-0.06C10.53,12.37,10.53,12.37,10.53,12.36z M10.33,18.59
				c-0.01,0-0.01,0-0.02,0c0.01-0.01,0.01-0.02,0-0.03c0.01,0.01,0.02,0.02,0.02,0.03C10.34,18.59,10.34,18.59,10.33,18.59z
				 M12.91,19.06l-0.02,0.01c-0.01,0-0.01,0-0.02,0.01c-0.01-0.01-0.01-0.02-0.02-0.03c-0.01-0.01-0.02-0.02-0.03-0.04c0,0,0,0,0,0
				c0.01-0.01,0.02-0.02,0.03-0.05l0.01-0.01c0.01-0.01,0.02-0.01,0.04-0.03c0,0,0,0.01,0,0.01c0.01,0.04,0.03,0.08,0.03,0.11
				c0,0.02,0,0.02,0,0.03C12.93,19.05,12.92,19.06,12.91,19.06z M13.2,23.59L13.2,23.59C13.2,23.59,13.2,23.59,13.2,23.59
				C13.2,23.59,13.2,23.59,13.2,23.59C13.2,23.59,13.2,23.59,13.2,23.59z M13.31,23.58c0,0,0,0.01,0,0.02
				c-0.01-0.01-0.01-0.01-0.02-0.02c0.01-0.02,0.01-0.05-0.02-0.08c0-0.01-0.01-0.01-0.01-0.01l0.03-0.04c0,0,0.01,0.01,0.01,0.01
				l0.01,0.01c0.01,0.01,0.02,0.03,0.03,0.04L13.31,23.58z M15.18,20.98c0,0.01,0,0.03,0,0.05c0,0,0,0-0.01-0.01
				c-0.02-0.02-0.04-0.03-0.05-0.05c-0.01,0-0.01-0.01-0.02-0.01c0,0,0,0,0.01,0c0.02,0,0.05,0,0.08,0
				C15.19,20.97,15.18,20.98,15.18,20.98z M15.98,25.15C15.98,25.15,15.98,25.15,15.98,25.15L15.98,25.15
				C15.98,25.15,15.98,25.15,15.98,25.15z M18.39,22.46C18.39,22.46,18.39,22.47,18.39,22.46c-0.01,0.01-0.03,0.01-0.04,0.02
				c0.01-0.01,0.02-0.02,0.03-0.04c0.01-0.01,0.01-0.01,0.02-0.02C18.39,22.44,18.39,22.45,18.39,22.46z"/>
		</g>
		<linearGradient id="SVGID_9_" gradientUnits="userSpaceOnUse" x1="5.9534" y1="21.9557" x2="23.4555" y2="21.9557">
			<stop  offset="0" style="stop-color:#FFCC3B"/>
			<stop  offset="0.5559" style="stop-color:#FF7500"/>
			<stop  offset="1" style="stop-color:#D73502"/>
		</linearGradient>
		<path style="fill:url(#SVGID_9_);" d="M21.73,14.63c-1.54,5.71-6.75,9.92-12.95,9.92c-0.97,0-1.91-0.1-2.82-0.3
			c1.54,2.99,4.65,5.03,8.24,5.03c5.11,0,9.26-4.15,9.26-9.26C23.46,18.01,22.81,16.15,21.73,14.63z"/>
	</g>
</g>
</svg>
