<svg xmlns="http://www.w3.org/2000/svg" viewBox="0 0 95.38 29.04"><defs><style>.cls-1{fill:#a92807;}.cls-2{fill:#2f2f2f;}</style></defs><g id="Layer_2" data-name="Layer 2"><g id="Layer_1-2" data-name="Layer 1"><path class="cls-1" d="M12.27,12.83H6.37l-1,2.7H0L6.79,0h5.15l6.79,15.53H13.31ZM10.83,9.05,9.32,5.15,7.81,9.05Z"/><path class="cls-1" d="M34.13,8.9a3.73,3.73,0,0,1,.75,2.35,3.58,3.58,0,0,1-1.68,3.16,8.85,8.85,0,0,1-4.89,1.12H19.57V0h8.3a8.16,8.16,0,0,1,4.69,1.11,3.43,3.43,0,0,1,1.59,2.95,3.57,3.57,0,0,1-.54,2A3.89,3.89,0,0,1,32,7.41,4.74,4.74,0,0,1,34.13,8.9ZM24.72,3.66V6h2.44c1.14,0,1.71-.39,1.71-1.16s-.57-1.15-1.71-1.15Zm4.88,7c0-.81-.58-1.22-1.73-1.22H24.72v2.44h3.15C29,11.87,29.6,11.46,29.6,10.65Z"/><path class="cls-1" d="M43.05,10.38l-1.18,1.31v3.84H36.72V0h5.15V5.64L47,0h5.71L46.46,6.83,53,15.53H46.93Z"/><path class="cls-2" d="M75.67,0V15.53H71.36l-5.9-7v7h-5.1V0h4.3l5.9,7.06V0Z"/><path class="cls-2" d="M94.79,0,88.23,15.53H83.08L76.51,0h5.64l3.7,9.08L89.65,0Z"/><path class="cls-2" d="M5.78,29V24.77L3.7,28.35H3.53L1.46,24.78V29H1.1V24.06h.3l2.22,3.82,2.21-3.82h.3V29Z"/><path class="cls-2" d="M15.51,27.61H12.64L12,29h-.39l2.28-4.94h.36L16.54,29h-.39Zm-.13-.3-1.3-2.86-1.29,2.86Z"/><path class="cls-2" d="M26.06,24.06V29h-.3l-3.37-4.29V29H22V24.06h.3l3.37,4.29V24.06Z"/><path class="cls-2" d="M35.44,27.61H32.57L31.94,29h-.39l2.28-4.94h.36L36.46,29h-.39Zm-.14-.3L34,24.45l-1.29,2.86Z"/><path class="cls-2" d="M45.42,26.55h.35V28.4a2.18,2.18,0,0,1-.79.48A3.19,3.19,0,0,1,44,29a2.7,2.7,0,0,1-1.33-.33,2.32,2.32,0,0,1-.92-.89,2.46,2.46,0,0,1-.34-1.29,2.44,2.44,0,0,1,.34-1.29,2.32,2.32,0,0,1,.92-.89A2.7,2.7,0,0,1,44,24a3,3,0,0,1,1,.17,2.29,2.29,0,0,1,.78.51l-.23.24a1.83,1.83,0,0,0-.7-.45,2.52,2.52,0,0,0-.85-.14,2.37,2.37,0,0,0-1.15.29,1.94,1.94,0,0,0-.8.78,2.19,2.19,0,0,0-.29,1.11,2.21,2.21,0,0,0,.29,1.11,2.17,2.17,0,0,0,.81.78,2.3,2.3,0,0,0,1.14.29,2.12,2.12,0,0,0,1.41-.46Z"/><path class="cls-2" d="M55.36,28.68V29H51.94V24.06h3.31v.32h-3v1.95h2.64v.32H52.3v2Z"/><path class="cls-2" d="M65.94,29V24.77l-2.07,3.58h-.18l-2.07-3.57V29h-.35V24.06h.3l2.21,3.82L66,24.06h.3V29Z"/><path class="cls-2" d="M76,28.68V29H72.62V24.06h3.3v.32H73v1.95h2.63v.32H73v2Z"/><path class="cls-2" d="M86,24.06V29h-.3L82.3,24.71V29h-.36V24.06h.3l3.37,4.29V24.06Z"/><path class="cls-2" d="M93.23,24.38H91.45v-.32h3.93v.32H93.6V29h-.37Z"/></g></g></svg>