<?xml version="1.0" encoding="utf-8"?>
<!-- Generator: Adobe Illustrator 24.0.3, SVG Export Plug-In . SVG Version: 6.00 Build 0)  -->
<svg version="1.0" id="Layer_1" xmlns="http://www.w3.org/2000/svg" xmlns:xlink="http://www.w3.org/1999/xlink" x="0px" y="0px"
	 viewBox="0 0 102.17 30.38" style="enable-background:new 0 0 102.17 30.38;" xml:space="preserve">
<style type="text/css">
	.st0{fill:url(#SVGID_1_);}
	.st1{fill:#17516B;}
	.st2{fill:#3A7289;}
	.st3{opacity:0.8;fill:#2C6477;}
	.st4{clip-path:url(#SVGID_5_);fill:#FFFFFF;}
	.st5{clip-path:url(#SVGID_5_);fill:#BD0034;}
	.st6{clip-path:url(#SVGID_5_);fill:url(#SVGID_6_);}
	.st7{clip-path:url(#SVGID_5_);fill:url(#SVGID_7_);}
	.st8{clip-path:url(#SVGID_5_);fill:url(#SVGID_8_);}
	.st9{clip-path:url(#SVGID_5_);fill:url(#SVGID_9_);}
	.st10{clip-path:url(#SVGID_5_);fill:url(#SVGID_10_);}
	.st11{clip-path:url(#SVGID_5_);fill:url(#SVGID_11_);}
	.st12{clip-path:url(#SVGID_5_);fill:url(#SVGID_12_);}
	.st13{clip-path:url(#SVGID_5_);fill:url(#SVGID_13_);}
	.st14{fill:#F2F5F7;}
	.st15{fill:#A92807;}
	.st16{fill:#1E1D22;}
	.st17{clip-path:url(#SVGID_15_);}
	.st18{fill:#FFFFFF;}
	.st19{fill:none;stroke:#F2F5F7;}
	.st20{clip-path:url(#SVGID_19_);fill:#8EA1B2;}
	.st21{clip-path:url(#SVGID_19_);fill:#A92807;}
	.st22{clip-path:url(#SVGID_19_);fill:#384657;}
	.st23{clip-path:url(#SVGID_21_);}
	.st24{fill:#8EA1B2;}
	.st25{fill:#384657;}
	.st26{clip-path:url(#SVGID_25_);fill:#384657;}
	.st27{clip-path:url(#SVGID_25_);fill:#8EA1B2;}
	.st28{clip-path:url(#SVGID_25_);fill:#A92807;}
	.st29{clip-path:url(#SVGID_27_);}
	.st30{fill:#E1E4E5;}
	.st31{clip-path:url(#SVGID_31_);fill:#384657;}
	.st32{clip-path:url(#SVGID_31_);fill:#8EA1B2;}
	.st33{clip-path:url(#SVGID_31_);fill:#A92807;}
	.st34{clip-path:url(#SVGID_33_);}
	.st35{clip-path:url(#SVGID_37_);fill:#384657;}
	.st36{clip-path:url(#SVGID_37_);fill:#8EA1B2;}
	.st37{clip-path:url(#SVGID_37_);fill:#A92807;}
	.st38{clip-path:url(#SVGID_39_);}
	.st39{fill:#2A323C;}
	.st40{fill:#1F2529;}
	.st41{fill:#96A1AB;}
	.st42{clip-path:url(#SVGID_43_);fill:#D00027;}
	.st43{clip-path:url(#SVGID_43_);}
	.st44{clip-path:url(#SVGID_45_);fill:#FFFFFF;}
	.st45{clip-path:url(#SVGID_45_);fill:#D00027;}
	.st46{clip-path:url(#SVGID_47_);}
	.st47{clip-path:url(#SVGID_51_);}
	.st48{clip-path:url(#SVGID_55_);}
	.st49{opacity:0.4;clip-path:url(#SVGID_59_);}
	.st50{clip-path:url(#SVGID_61_);fill:#FFFFFF;}
	.st51{clip-path:url(#SVGID_59_);fill:#A92807;}
	.st52{clip-path:url(#SVGID_63_);fill:#FFFFFF;}
	.st53{opacity:0.5;}
	.st54{clip-path:url(#SVGID_65_);}
	.st55{filter:url(#Adobe_OpacityMaskFilter);}
	.st56{clip-path:url(#SVGID_67_);}
	.st57{enable-background:new    ;}
	.st58{opacity:0.1412;clip-path:url(#SVGID_67_);mask:url(#SVGID_68_);}
	.st59{clip-path:url(#SVGID_72_);}
	.st60{fill:none;stroke:#FFFFFF;stroke-width:3;stroke-linecap:round;stroke-linejoin:round;stroke-miterlimit:10;}
	.st61{opacity:0.502;}
	.st62{opacity:0.7;}
	.st63{clip-path:url(#SVGID_74_);fill:#D00027;}
	.st64{clip-path:url(#SVGID_74_);}
	.st65{clip-path:url(#SVGID_76_);fill:#FFFFFF;}
	.st66{clip-path:url(#SVGID_76_);fill:#D00027;}
	.st67{clip-path:url(#SVGID_78_);}
	.st68{clip-path:url(#SVGID_82_);}
	.st69{clip-path:url(#SVGID_86_);}
	.st70{clip-path:url(#SVGID_92_);}
	.st71{filter:url(#Adobe_OpacityMaskFilter_1_);}
	.st72{clip-path:url(#SVGID_94_);}
	.st73{opacity:0.1412;clip-path:url(#SVGID_94_);mask:url(#SVGID_95_);}
	.st74{clip-path:url(#SVGID_99_);}
	.st75{clip-path:url(#SVGID_101_);fill:#D00027;}
	.st76{clip-path:url(#SVGID_101_);}
	.st77{clip-path:url(#SVGID_103_);fill:#FFFFFF;}
	.st78{clip-path:url(#SVGID_103_);fill:#D00027;}
	.st79{clip-path:url(#SVGID_105_);}
	.st80{clip-path:url(#SVGID_109_);}
	.st81{clip-path:url(#SVGID_113_);}
	.st82{opacity:0.4;clip-path:url(#SVGID_117_);}
	.st83{clip-path:url(#SVGID_119_);fill:#FFFFFF;}
	.st84{clip-path:url(#SVGID_117_);fill:#A92807;}
	.st85{clip-path:url(#SVGID_121_);fill:#FFFFFF;}
	.st86{clip-path:url(#SVGID_123_);}
	.st87{fill:none;stroke:#FFFFFF;stroke-width:0.5;stroke-miterlimit:10;}
	.st88{opacity:0;fill:#3C464F;}
	.st89{opacity:3.960396e-03;fill:#3C464F;}
	.st90{opacity:7.920792e-03;fill:#3C464F;}
	.st91{opacity:0.0119;fill:#3C464F;}
	.st92{opacity:0.0158;fill:#3C464F;}
	.st93{opacity:0.0198;fill:#3C464F;}
	.st94{opacity:0.0238;fill:#3C464F;}
	.st95{opacity:0.0277;fill:#3C464F;}
	.st96{opacity:0.0317;fill:#3C464F;}
	.st97{opacity:0.0356;fill:#3C464F;}
	.st98{opacity:0.0396;fill:#3C464F;}
	.st99{opacity:0.0436;fill:#3C464F;}
	.st100{opacity:0.0475;fill:#3C464F;}
	.st101{opacity:0.0515;fill:#3C464F;}
	.st102{opacity:0.0554;fill:#3C464F;}
	.st103{opacity:0.0594;fill:#3C464F;}
	.st104{opacity:0.0634;fill:#3C464F;}
	.st105{opacity:0.0673;fill:#3C464F;}
	.st106{opacity:0.0713;fill:#3C464F;}
	.st107{opacity:0.0752;fill:#3C464F;}
	.st108{opacity:0.0792;fill:#3C464F;}
	.st109{opacity:0.0832;fill:#3C464F;}
	.st110{opacity:0.0871;fill:#3C464F;}
	.st111{opacity:0.0911;fill:#3C464F;}
	.st112{opacity:0.095;fill:#3C464F;}
	.st113{opacity:0.099;fill:#3C464F;}
	.st114{opacity:0.103;fill:#3C464F;}
	.st115{opacity:0.1069;fill:#3C464F;}
	.st116{opacity:0.1109;fill:#3C464F;}
	.st117{opacity:0.1149;fill:#3C464F;}
	.st118{opacity:0.1188;fill:#3C464F;}
	.st119{opacity:0.1228;fill:#3C464F;}
	.st120{opacity:0.1267;fill:#3C464F;}
	.st121{opacity:0.1307;fill:#3C464F;}
	.st122{opacity:0.1347;fill:#3C464F;}
	.st123{opacity:0.1386;fill:#3C464F;}
	.st124{opacity:0.1426;fill:#3C464F;}
	.st125{opacity:0.1465;fill:#3C464F;}
	.st126{opacity:0.1505;fill:#3C464F;}
	.st127{opacity:0.1545;fill:#3C464F;}
	.st128{opacity:0.1584;fill:#3C464F;}
	.st129{opacity:0.1624;fill:#3C464F;}
	.st130{opacity:0.1663;fill:#3C464F;}
	.st131{opacity:0.1703;fill:#3C464F;}
	.st132{opacity:0.1743;fill:#3C464F;}
	.st133{opacity:0.1782;fill:#3C464F;}
	.st134{opacity:0.1822;fill:#3C464F;}
	.st135{opacity:0.1861;fill:#3C464F;}
	.st136{opacity:0.1901;fill:#3C464F;}
	.st137{opacity:0.1941;fill:#3C464F;}
	.st138{opacity:0.198;fill:#3C464F;}
	.st139{opacity:0.202;fill:#3C464F;}
	.st140{opacity:0.2059;fill:#3C464F;}
	.st141{opacity:0.2099;fill:#3C464F;}
	.st142{opacity:0.2139;fill:#3C464F;}
	.st143{opacity:0.2178;fill:#3C464F;}
	.st144{opacity:0.2218;fill:#3C464F;}
	.st145{opacity:0.2257;fill:#3C464F;}
	.st146{opacity:0.2297;fill:#3C464F;}
	.st147{opacity:0.2337;fill:#3C464F;}
	.st148{opacity:0.2376;fill:#3C464F;}
	.st149{opacity:0.2416;fill:#3C464F;}
	.st150{opacity:0.2455;fill:#3C464F;}
	.st151{opacity:0.2495;fill:#3C464F;}
	.st152{opacity:0.2535;fill:#3C464F;}
	.st153{opacity:0.2574;fill:#3C464F;}
	.st154{opacity:0.2614;fill:#3C464F;}
	.st155{opacity:0.2653;fill:#3C464F;}
	.st156{opacity:0.2693;fill:#3C464F;}
	.st157{opacity:0.2733;fill:#3C464F;}
	.st158{opacity:0.2772;fill:#3C464F;}
	.st159{opacity:0.2812;fill:#3C464F;}
	.st160{opacity:0.2851;fill:#3C464F;}
	.st161{opacity:0.2891;fill:#3C464F;}
	.st162{opacity:0.2931;fill:#3C464F;}
	.st163{opacity:0.297;fill:#3C464F;}
	.st164{opacity:0.301;fill:#3C464F;}
	.st165{opacity:0.305;fill:#3C464F;}
	.st166{opacity:0.3089;fill:#3C464F;}
	.st167{opacity:0.3129;fill:#3C464F;}
	.st168{opacity:0.3168;fill:#3C464F;}
	.st169{opacity:0.3208;fill:#3C464F;}
	.st170{opacity:0.3248;fill:#3C464F;}
	.st171{opacity:0.3287;fill:#3C464F;}
	.st172{opacity:0.3327;fill:#3C464F;}
	.st173{opacity:0.3366;fill:#3C464F;}
	.st174{opacity:0.3406;fill:#3C464F;}
	.st175{opacity:0.3446;fill:#3C464F;}
	.st176{opacity:0.3485;fill:#3C464F;}
	.st177{opacity:0.3525;fill:#3C464F;}
	.st178{opacity:0.3564;fill:#3C464F;}
	.st179{opacity:0.3604;fill:#3C464F;}
	.st180{opacity:0.3644;fill:#3C464F;}
	.st181{opacity:0.3683;fill:#3C464F;}
	.st182{opacity:0.3723;fill:#3C464F;}
	.st183{opacity:0.3762;fill:#3C464F;}
	.st184{opacity:0.3802;fill:#3C464F;}
	.st185{opacity:0.3842;fill:#3C464F;}
	.st186{opacity:0.3881;fill:#3C464F;}
	.st187{opacity:0.3921;fill:#3C464F;}
	.st188{opacity:0.396;fill:#3C464F;}
	.st189{opacity:0.4;fill:#3C464F;}
	.st190{fill:none;stroke:#7EA1B1;stroke-width:3;stroke-linecap:round;stroke-linejoin:round;}
	.st191{fill:none;stroke:#7EA1B1;stroke-width:3;stroke-linecap:round;stroke-linejoin:round;stroke-dasharray:6.859,6.859;}
	.st192{fill:none;stroke:#7EA1B1;stroke-width:3;stroke-linecap:round;stroke-linejoin:round;stroke-dasharray:7.5157,7.5157;}
	.st193{fill:none;stroke:#7EA1B1;stroke-width:3;stroke-linecap:round;stroke-linejoin:round;stroke-dasharray:8.4421,8.4421;}
	.st194{fill:none;stroke:#7EA1B1;stroke-width:3;stroke-linecap:round;stroke-linejoin:round;stroke-dasharray:8.7883,8.7883;}
	.st195{fill:none;stroke:#7EA1B1;stroke-width:3;stroke-linecap:round;stroke-linejoin:round;stroke-dasharray:8.9317,8.9317;}
	.st196{fill:none;stroke:#7EA1B1;stroke-width:3;stroke-linecap:round;stroke-linejoin:round;stroke-dasharray:7.9659,7.9659;}
	.st197{fill:none;stroke:#7EA1B1;stroke-width:3;stroke-linecap:round;stroke-linejoin:round;stroke-dasharray:8.532,8.532;}
	.st198{fill:#C5C5C5;}
	.st199{fill:none;stroke:#7EA1B1;stroke-width:3;stroke-linecap:round;stroke-linejoin:round;stroke-dasharray:5.9487,5.9487;}
	.st200{fill:none;stroke:#7EA1B1;stroke-width:3;stroke-linecap:round;stroke-linejoin:round;stroke-dasharray:8.8035,8.8035;}
	.st201{fill:none;stroke:#7EA1B1;stroke-width:3;stroke-linecap:round;stroke-linejoin:round;stroke-dasharray:8.4073,8.4073;}
	.st202{fill:none;stroke:#7EA1B1;stroke-width:3;stroke-linecap:round;stroke-linejoin:round;stroke-dasharray:6.2046,6.2046;}
	.st203{fill:none;stroke:#7EA1B1;stroke-width:3;stroke-linecap:round;stroke-linejoin:round;stroke-dasharray:7.9457,7.9457;}
	.st204{fill:none;stroke:#7EA1B1;stroke-width:3;stroke-linecap:round;stroke-linejoin:round;stroke-dasharray:8.4145,8.4145;}
	.st205{fill:none;stroke:#7EA1B1;stroke-width:3;stroke-linecap:round;stroke-linejoin:round;stroke-dasharray:7.2825,7.2825;}
	.st206{fill:none;stroke:#7EA1B1;stroke-width:3;stroke-linecap:round;stroke-linejoin:round;stroke-dasharray:7.4081,7.4081;}
	.st207{fill:none;stroke:#7EA1B1;stroke-width:3;stroke-linecap:round;stroke-linejoin:round;stroke-dasharray:8.0493,8.0493;}
	.st208{fill:none;stroke:#7EA1B1;stroke-width:3;stroke-linecap:round;stroke-linejoin:round;stroke-dasharray:8.1454,8.1454;}
	.st209{fill:none;stroke:#7EA1B1;stroke-width:3;stroke-linecap:round;stroke-linejoin:round;stroke-dasharray:8.0164,8.0164;}
	.st210{fill:#7EA1B1;}
	.st211{fill:none;stroke:#7EA1B1;stroke-width:3;stroke-linecap:round;stroke-linejoin:round;stroke-miterlimit:10;}
	.st212{fill:#2F2F2F;}
	.st213{fill:#00B5B5;}
	.st214{fill:url(#SVGID_124_);}
	.st215{fill:#12407D;}
	.st216{fill:#0D78C4;}
	.st217{fill-rule:evenodd;clip-rule:evenodd;fill:#0F53FF;}
	.st218{filter:url(#Adobe_OpacityMaskFilter_2_);}
	.st219{clip-path:url(#SVGID_128_);}
	.st220{clip-path:url(#SVGID_131_);}
	.st221{clip-path:url(#SVGID_133_);}
	.st222{clip-path:url(#SVGID_128_);mask:url(#SVGID_129_);enable-background:new    ;}
	.st223{clip-path:url(#SVGID_135_);fill-rule:evenodd;clip-rule:evenodd;fill:#0F53FF;}
	.st224{filter:url(#Adobe_OpacityMaskFilter_3_);}
	.st225{clip-path:url(#SVGID_138_);}
	.st226{clip-path:url(#SVGID_138_);fill-rule:evenodd;clip-rule:evenodd;fill:#FFFFFF;}
	.st227{clip-path:url(#SVGID_128_);mask:url(#SVGID_136_);enable-background:new    ;}
	.st228{clip-path:url(#SVGID_140_);fill-rule:evenodd;clip-rule:evenodd;fill:#0F53FF;}
	.st229{clip-path:url(#SVGID_142_);fill:url(#SVGID_143_);}
	.st230{clip-path:url(#SVGID_145_);fill:url(#SVGID_146_);}
	.st231{clip-path:url(#SVGID_148_);fill:url(#SVGID_149_);}
	.st232{clip-path:url(#SVGID_151_);fill:url(#SVGID_152_);}
	.st233{clip-path:url(#SVGID_154_);fill:url(#SVGID_155_);}
	.st234{clip-path:url(#SVGID_157_);fill:url(#SVGID_158_);}
	.st235{clip-path:url(#SVGID_160_);fill:url(#SVGID_161_);}
	.st236{clip-path:url(#SVGID_163_);fill:url(#SVGID_164_);}
	.st237{fill:url(#SVGID_165_);}
	.st238{fill:url(#SVGID_166_);}
	.st239{fill:url(#SVGID_167_);}
	.st240{fill:url(#SVGID_168_);}
	.st241{fill:url(#SVGID_169_);}
	.st242{fill:url(#SVGID_170_);}
	.st243{fill:url(#SVGID_171_);}
	.st244{fill:url(#SVGID_172_);}
	.st245{fill:url(#SVGID_173_);}
	.st246{fill:url(#SVGID_174_);}
	.st247{fill:url(#SVGID_175_);}
	.st248{fill:url(#SVGID_176_);}
	.st249{fill:url(#SVGID_177_);}
	.st250{fill:url(#SVGID_178_);}
	.st251{fill:url(#SVGID_179_);}
	.st252{fill:url(#SVGID_180_);}
	.st253{fill:url(#SVGID_181_);}
	.st254{fill:url(#SVGID_182_);}
	.st255{fill:url(#SVGID_183_);}
	.st256{fill:url(#SVGID_184_);}
	.st257{fill:url(#SVGID_185_);}
	.st258{fill:#A89968;}
	.st259{fill:url(#SVGID_186_);}
	.st260{fill:#C4001C;}
	.st261{fill:#282826;}
	.st262{fill:#2D72D7;}
	.st263{fill:#E8E8E8;}
	.st264{opacity:0.7;fill:none;stroke:#6096A5;}
	.st265{opacity:0.9;}
	.st266{fill:none;}
	.st267{fill-rule:evenodd;clip-rule:evenodd;fill:none;}
	.st268{opacity:0.62;fill:url(#SVGID_187_);}
	.st269{opacity:0.62;fill:url(#SVGID_188_);}
	.st270{opacity:0.62;fill:url(#SVGID_189_);}
	.st271{opacity:0.62;fill:url(#SVGID_190_);}
	.st272{opacity:0.62;fill:url(#SVGID_191_);}
	.st273{opacity:0.62;fill:url(#SVGID_192_);}
	.st274{fill:url(#SVGID_193_);}
	.st275{fill:url(#SVGID_194_);}
	.st276{fill:url(#SVGID_195_);}
	.st277{fill:url(#SVGID_196_);}
	.st278{fill:url(#SVGID_197_);}
	.st279{fill:url(#SVGID_198_);}
	.st280{fill:url(#SVGID_199_);}
	.st281{fill:url(#SVGID_200_);}
	.st282{fill:url(#SVGID_201_);}
	.st283{fill:url(#SVGID_202_);}
	.st284{fill:url(#SVGID_203_);}
	.st285{fill:url(#SVGID_204_);}
	.st286{fill:url(#SVGID_205_);}
	.st287{fill:url(#SVGID_206_);}
	.st288{fill:url(#SVGID_207_);}
	.st289{fill:url(#SVGID_208_);}
	.st290{fill:url(#SVGID_209_);}
	.st291{fill:url(#SVGID_210_);}
	.st292{fill:url(#SVGID_211_);}
	.st293{fill:url(#SVGID_212_);}
	.st294{fill:url(#SVGID_213_);}
	.st295{fill:url(#SVGID_214_);}
	.st296{fill:url(#SVGID_215_);}
	.st297{fill:url(#SVGID_216_);}
	.st298{fill:url(#SVGID_217_);}
	.st299{fill:url(#SVGID_218_);}
	.st300{fill:url(#SVGID_219_);}
	.st301{fill:url(#SVGID_220_);}
	.st302{fill:url(#SVGID_221_);}
	.st303{fill:url(#SVGID_222_);}
	.st304{fill:url(#SVGID_223_);}
	.st305{fill:url(#SVGID_224_);}
	.st306{fill:url(#SVGID_225_);}
	.st307{fill:url(#SVGID_226_);}
	.st308{fill:url(#SVGID_227_);}
	.st309{fill:url(#SVGID_228_);}
	.st310{fill:#0078BA;}
	.st311{fill:url(#SVGID_229_);}
	.st312{fill:url(#SVGID_230_);}
	.st313{fill:#B70000;}
	.st314{fill:url(#SVGID_231_);}
	.st315{fill:url(#SVGID_232_);}
	.st316{fill:url(#SVGID_233_);}
	.st317{fill:url(#SVGID_234_);}
	.st318{fill:url(#SVGID_235_);}
	.st319{fill:url(#SVGID_236_);}
	.st320{fill:url(#SVGID_237_);}
	.st321{fill:url(#SVGID_238_);}
	.st322{fill:none;stroke:#3F3F3F;stroke-width:0.5;stroke-miterlimit:10;}
	.st323{clip-path:url(#SVGID_256_);fill:url(#SVGID_257_);}
	.st324{clip-path:url(#SVGID_259_);fill:url(#SVGID_260_);}
	.st325{clip-path:url(#SVGID_262_);fill:url(#SVGID_263_);}
	.st326{clip-path:url(#SVGID_265_);fill:url(#SVGID_266_);}
	.st327{clip-path:url(#SVGID_268_);fill:url(#SVGID_269_);}
	.st328{clip-path:url(#SVGID_271_);fill:url(#SVGID_272_);}
	.st329{clip-path:url(#SVGID_274_);fill:url(#SVGID_275_);}
	.st330{clip-path:url(#SVGID_277_);fill:url(#SVGID_278_);}
	.st331{fill:url(#SVGID_279_);}
	.st332{fill:url(#SVGID_280_);}
	.st333{fill:url(#SVGID_281_);}
	.st334{fill:url(#SVGID_282_);}
	.st335{fill:url(#SVGID_283_);}
	.st336{fill:url(#SVGID_284_);}
	.st337{fill:url(#SVGID_285_);}
	.st338{fill:url(#SVGID_286_);}
	.st339{fill:url(#SVGID_287_);}
	.st340{fill:url(#SVGID_288_);}
	.st341{fill:url(#SVGID_289_);}
	.st342{fill:url(#SVGID_290_);}
	.st343{fill:url(#SVGID_291_);}
	.st344{fill:url(#SVGID_292_);}
	.st345{fill:url(#SVGID_293_);}
	.st346{fill:url(#SVGID_294_);}
	.st347{fill:url(#SVGID_295_);}
	.st348{fill:url(#SVGID_296_);}
	.st349{fill:url(#SVGID_297_);}
	.st350{fill:url(#SVGID_298_);}
	.st351{fill:url(#SVGID_299_);}
	.st352{fill:url(#SVGID_300_);}
	.st353{fill:url(#SVGID_301_);}
	.st354{fill:url(#SVGID_302_);}
	.st355{fill:url(#SVGID_303_);}
	.st356{fill:url(#SVGID_304_);}
	.st357{fill:url(#SVGID_305_);}
	.st358{fill:url(#SVGID_306_);}
	.st359{fill:url(#SVGID_307_);}
	.st360{clip-path:url(#SVGID_325_);fill:#0091FF;}
	.st361{clip-path:url(#SVGID_325_);fill:#0092FF;}
	.st362{clip-path:url(#SVGID_325_);fill:#0093FF;}
	.st363{clip-path:url(#SVGID_325_);fill:#0094FF;}
	.st364{clip-path:url(#SVGID_325_);fill:#0095FF;}
	.st365{clip-path:url(#SVGID_325_);fill:#0096FF;}
	.st366{clip-path:url(#SVGID_325_);fill:#0097FF;}
	.st367{clip-path:url(#SVGID_325_);fill:#0098FF;}
	.st368{clip-path:url(#SVGID_325_);fill:#0099FF;}
	.st369{clip-path:url(#SVGID_325_);fill:#009AFF;}
	.st370{clip-path:url(#SVGID_325_);fill:#009BFF;}
	.st371{clip-path:url(#SVGID_325_);fill:#009CFF;}
	.st372{clip-path:url(#SVGID_325_);fill:#009DFF;}
	.st373{clip-path:url(#SVGID_325_);fill:#009EFF;}
	.st374{clip-path:url(#SVGID_325_);fill:#009FFF;}
	.st375{clip-path:url(#SVGID_325_);fill:#00A0FF;}
	.st376{clip-path:url(#SVGID_325_);fill:#00A1FF;}
	.st377{clip-path:url(#SVGID_325_);fill:#00A2FF;}
	.st378{clip-path:url(#SVGID_325_);fill:#00A3FF;}
	.st379{clip-path:url(#SVGID_325_);fill:#00A4FF;}
	.st380{clip-path:url(#SVGID_325_);fill:#00A5FF;}
	.st381{clip-path:url(#SVGID_325_);fill:#00A6FF;}
	.st382{clip-path:url(#SVGID_325_);fill:#00A7FF;}
	.st383{clip-path:url(#SVGID_325_);fill:#00A8FF;}
	.st384{clip-path:url(#SVGID_325_);fill:#00A9FF;}
	.st385{clip-path:url(#SVGID_325_);fill:#00AAFF;}
	.st386{clip-path:url(#SVGID_325_);fill:#00ABFF;}
	.st387{clip-path:url(#SVGID_325_);fill:#00ACFF;}
	.st388{clip-path:url(#SVGID_325_);fill:#00ADFF;}
	.st389{clip-path:url(#SVGID_325_);fill:#00AEFF;}
	.st390{clip-path:url(#SVGID_325_);fill:#00AFFF;}
	.st391{clip-path:url(#SVGID_325_);fill:#00B0FF;}
	.st392{clip-path:url(#SVGID_325_);fill:#00B1FF;}
	.st393{clip-path:url(#SVGID_325_);fill:#00B2FF;}
	.st394{clip-path:url(#SVGID_325_);fill:#00B3FF;}
	.st395{clip-path:url(#SVGID_325_);fill:#00B4FF;}
	.st396{clip-path:url(#SVGID_325_);fill:#00B5FF;}
	.st397{clip-path:url(#SVGID_325_);fill:#00B6FF;}
	.st398{clip-path:url(#SVGID_325_);fill:#00B7FF;}
	.st399{clip-path:url(#SVGID_325_);fill:#00B9FF;}
	.st400{clip-path:url(#SVGID_325_);fill:#00BAFF;}
	.st401{clip-path:url(#SVGID_325_);fill:#00BBFF;}
	.st402{clip-path:url(#SVGID_325_);fill:#00BCFF;}
	.st403{clip-path:url(#SVGID_325_);fill:#00BDFF;}
	.st404{clip-path:url(#SVGID_325_);fill:#00BEFF;}
	.st405{clip-path:url(#SVGID_325_);fill:#00BFFF;}
	.st406{clip-path:url(#SVGID_325_);fill:#00C0FF;}
	.st407{clip-path:url(#SVGID_325_);fill:#00C1FF;}
	.st408{clip-path:url(#SVGID_325_);fill:#00C2FF;}
	.st409{clip-path:url(#SVGID_325_);fill:#00C3FF;}
	.st410{clip-path:url(#SVGID_325_);fill:#00C4FF;}
	.st411{clip-path:url(#SVGID_325_);fill:#00C5FF;}
	.st412{clip-path:url(#SVGID_325_);fill:#00C6FF;}
	.st413{clip-path:url(#SVGID_325_);fill:#00C7FF;}
	.st414{clip-path:url(#SVGID_325_);fill:#00C8FF;}
	.st415{clip-path:url(#SVGID_325_);fill:#00C9FF;}
	.st416{clip-path:url(#SVGID_325_);fill:#00CAFF;}
	.st417{clip-path:url(#SVGID_325_);fill:#00CBFF;}
	.st418{clip-path:url(#SVGID_325_);fill:#00CCFF;}
	.st419{clip-path:url(#SVGID_325_);fill:#00CDFF;}
	.st420{clip-path:url(#SVGID_325_);fill:#00CEFF;}
	.st421{clip-path:url(#SVGID_325_);fill:#00CFFF;}
	.st422{clip-path:url(#SVGID_325_);fill:#00D0FF;}
	.st423{clip-path:url(#SVGID_325_);fill:#00D1FF;}
	.st424{clip-path:url(#SVGID_325_);fill:#00D2FF;}
	.st425{clip-path:url(#SVGID_325_);fill:#00D3FF;}
	.st426{clip-path:url(#SVGID_325_);fill:#00D4FF;}
	.st427{clip-path:url(#SVGID_325_);fill:#00D5FF;}
	.st428{clip-path:url(#SVGID_325_);fill:#00D6FF;}
	.st429{clip-path:url(#SVGID_325_);fill:#00D7FF;}
	.st430{clip-path:url(#SVGID_325_);fill:#00D8FF;}
	.st431{clip-path:url(#SVGID_325_);fill:#00D9FF;}
	.st432{clip-path:url(#SVGID_325_);fill:#00DAFF;}
	.st433{clip-path:url(#SVGID_325_);fill:#00DBFF;}
	.st434{clip-path:url(#SVGID_325_);fill:#00DCFF;}
	.st435{clip-path:url(#SVGID_325_);fill:#00DDFF;}
	.st436{clip-path:url(#SVGID_325_);fill:#00DEFF;}
	.st437{clip-path:url(#SVGID_325_);fill:#00DFFF;}
	.st438{clip-path:url(#SVGID_329_);fill:url(#SVGID_330_);}
	.st439{clip-path:url(#SVGID_332_);fill:url(#SVGID_333_);}
	.st440{clip-path:url(#SVGID_335_);fill:url(#SVGID_336_);}
	.st441{clip-path:url(#SVGID_338_);fill:url(#SVGID_339_);}
	.st442{clip-path:url(#SVGID_341_);fill:url(#SVGID_342_);}
	.st443{clip-path:url(#SVGID_344_);fill:url(#SVGID_345_);}
	.st444{clip-path:url(#SVGID_347_);fill:url(#SVGID_348_);}
	.st445{clip-path:url(#SVGID_350_);fill:url(#SVGID_351_);}
	.st446{fill:url(#SVGID_352_);}
	.st447{fill:url(#SVGID_353_);}
	.st448{fill:url(#SVGID_354_);}
	.st449{fill:url(#SVGID_355_);}
	.st450{fill:url(#SVGID_356_);}
	.st451{fill:url(#SVGID_357_);}
	.st452{fill:url(#SVGID_358_);}
	.st453{fill:url(#SVGID_359_);}
	.st454{fill:url(#SVGID_360_);}
	.st455{fill:url(#SVGID_361_);}
	.st456{fill:url(#SVGID_362_);}
	.st457{fill:url(#SVGID_363_);}
	.st458{fill:url(#SVGID_364_);}
	.st459{fill:url(#SVGID_365_);}
	.st460{fill:url(#SVGID_366_);}
	.st461{fill:url(#SVGID_367_);}
	.st462{fill:url(#SVGID_368_);}
	.st463{fill:url(#SVGID_369_);}
	.st464{fill:url(#SVGID_370_);}
	.st465{fill:url(#SVGID_371_);}
	.st466{fill:url(#SVGID_372_);}
</style>
<g>
	<g>
		<g>
			<defs>
				<circle id="SVGID_324_" cx="15.19" cy="15.19" r="15.19"/>
			</defs>
			<clipPath id="SVGID_1_">
				<use xlink:href="#SVGID_324_"  style="overflow:visible;"/>
			</clipPath>
			<rect x="0" y="0" style="clip-path:url(#SVGID_1_);fill:#0091FF;" width="30.38" height="30.38"/>
			<circle style="clip-path:url(#SVGID_1_);fill:#0091FF;" cx="15.19" cy="15.19" r="15.19"/>
			<circle style="clip-path:url(#SVGID_1_);fill:#0092FF;" cx="15.19" cy="15.19" r="14.99"/>
			<circle style="clip-path:url(#SVGID_1_);fill:#0093FF;" cx="15.19" cy="15.19" r="14.8"/>
			<circle style="clip-path:url(#SVGID_1_);fill:#0094FF;" cx="15.19" cy="15.19" r="14.6"/>
			<circle style="clip-path:url(#SVGID_1_);fill:#0095FF;" cx="15.19" cy="15.19" r="14.41"/>
			<circle style="clip-path:url(#SVGID_1_);fill:#0096FF;" cx="15.19" cy="15.19" r="14.22"/>
			<circle style="clip-path:url(#SVGID_1_);fill:#0097FF;" cx="15.19" cy="15.19" r="14.02"/>
			<circle style="clip-path:url(#SVGID_1_);fill:#0098FF;" cx="15.19" cy="15.19" r="13.83"/>
			<circle style="clip-path:url(#SVGID_1_);fill:#0099FF;" cx="15.19" cy="15.19" r="13.63"/>
			<circle style="clip-path:url(#SVGID_1_);fill:#009AFF;" cx="15.19" cy="15.19" r="13.44"/>
			<circle style="clip-path:url(#SVGID_1_);fill:#009BFF;" cx="15.19" cy="15.19" r="13.24"/>
			<circle style="clip-path:url(#SVGID_1_);fill:#009CFF;" cx="15.19" cy="15.19" r="13.05"/>
			<circle style="clip-path:url(#SVGID_1_);fill:#009DFF;" cx="15.19" cy="15.19" r="12.85"/>
			<circle style="clip-path:url(#SVGID_1_);fill:#009EFF;" cx="15.19" cy="15.19" r="12.66"/>
			<circle style="clip-path:url(#SVGID_1_);fill:#009FFF;" cx="15.19" cy="15.19" r="12.46"/>
			<circle style="clip-path:url(#SVGID_1_);fill:#00A0FF;" cx="15.19" cy="15.19" r="12.27"/>
			<circle style="clip-path:url(#SVGID_1_);fill:#00A1FF;" cx="15.19" cy="15.19" r="12.07"/>
			<circle style="clip-path:url(#SVGID_1_);fill:#00A2FF;" cx="15.19" cy="15.19" r="11.88"/>
			<circle style="clip-path:url(#SVGID_1_);fill:#00A3FF;" cx="15.19" cy="15.19" r="11.68"/>
			<circle style="clip-path:url(#SVGID_1_);fill:#00A4FF;" cx="15.19" cy="15.19" r="11.49"/>
			<circle style="clip-path:url(#SVGID_1_);fill:#00A5FF;" cx="15.19" cy="15.19" r="11.29"/>
			<circle style="clip-path:url(#SVGID_1_);fill:#00A6FF;" cx="15.19" cy="15.19" r="11.1"/>
			<circle style="clip-path:url(#SVGID_1_);fill:#00A7FF;" cx="15.19" cy="15.19" r="10.9"/>
			<circle style="clip-path:url(#SVGID_1_);fill:#00A8FF;" cx="15.19" cy="15.19" r="10.71"/>
			<circle style="clip-path:url(#SVGID_1_);fill:#00A9FF;" cx="15.19" cy="15.19" r="10.52"/>
			<circle style="clip-path:url(#SVGID_1_);fill:#00AAFF;" cx="15.19" cy="15.19" r="10.32"/>
			<circle style="clip-path:url(#SVGID_1_);fill:#00ABFF;" cx="15.19" cy="15.19" r="10.13"/>
			<circle style="clip-path:url(#SVGID_1_);fill:#00ACFF;" cx="15.19" cy="15.19" r="9.93"/>
			<circle style="clip-path:url(#SVGID_1_);fill:#00ADFF;" cx="15.19" cy="15.19" r="9.74"/>
			<circle style="clip-path:url(#SVGID_1_);fill:#00AEFF;" cx="15.19" cy="15.19" r="9.54"/>
			<circle style="clip-path:url(#SVGID_1_);fill:#00AFFF;" cx="15.19" cy="15.19" r="9.35"/>
			<circle style="clip-path:url(#SVGID_1_);fill:#00B0FF;" cx="15.19" cy="15.19" r="9.15"/>
			<circle style="clip-path:url(#SVGID_1_);fill:#00B1FF;" cx="15.19" cy="15.19" r="8.96"/>
			<circle style="clip-path:url(#SVGID_1_);fill:#00B2FF;" cx="15.19" cy="15.19" r="8.76"/>
			<circle style="clip-path:url(#SVGID_1_);fill:#00B3FF;" cx="15.19" cy="15.19" r="8.57"/>
			<circle style="clip-path:url(#SVGID_1_);fill:#00B4FF;" cx="15.19" cy="15.19" r="8.37"/>
			<circle style="clip-path:url(#SVGID_1_);fill:#00B5FF;" cx="15.19" cy="15.19" r="8.18"/>
			<circle style="clip-path:url(#SVGID_1_);fill:#00B6FF;" cx="15.19" cy="15.19" r="7.98"/>
			<circle style="clip-path:url(#SVGID_1_);fill:#00B7FF;" cx="15.19" cy="15.19" r="7.79"/>
			<circle style="clip-path:url(#SVGID_1_);fill:#00B9FF;" cx="15.19" cy="15.19" r="7.59"/>
			<circle style="clip-path:url(#SVGID_1_);fill:#00BAFF;" cx="15.19" cy="15.19" r="7.4"/>
			<circle style="clip-path:url(#SVGID_1_);fill:#00BBFF;" cx="15.19" cy="15.19" r="7.2"/>
			<circle style="clip-path:url(#SVGID_1_);fill:#00BCFF;" cx="15.19" cy="15.19" r="7.01"/>
			<circle style="clip-path:url(#SVGID_1_);fill:#00BDFF;" cx="15.19" cy="15.19" r="6.82"/>
			<circle style="clip-path:url(#SVGID_1_);fill:#00BEFF;" cx="15.19" cy="15.19" r="6.62"/>
			<circle style="clip-path:url(#SVGID_1_);fill:#00BFFF;" cx="15.19" cy="15.19" r="6.43"/>
			<circle style="clip-path:url(#SVGID_1_);fill:#00C0FF;" cx="15.19" cy="15.19" r="6.23"/>
			<circle style="clip-path:url(#SVGID_1_);fill:#00C1FF;" cx="15.19" cy="15.19" r="6.04"/>
			<circle style="clip-path:url(#SVGID_1_);fill:#00C2FF;" cx="15.19" cy="15.19" r="5.84"/>
			<circle style="clip-path:url(#SVGID_1_);fill:#00C3FF;" cx="15.19" cy="15.19" r="5.65"/>
			<circle style="clip-path:url(#SVGID_1_);fill:#00C4FF;" cx="15.19" cy="15.19" r="5.45"/>
			<circle style="clip-path:url(#SVGID_1_);fill:#00C5FF;" cx="15.19" cy="15.19" r="5.26"/>
			<circle style="clip-path:url(#SVGID_1_);fill:#00C6FF;" cx="15.19" cy="15.19" r="5.06"/>
			<circle style="clip-path:url(#SVGID_1_);fill:#00C7FF;" cx="15.19" cy="15.19" r="4.87"/>
			<circle style="clip-path:url(#SVGID_1_);fill:#00C8FF;" cx="15.19" cy="15.19" r="4.67"/>
			<circle style="clip-path:url(#SVGID_1_);fill:#00C9FF;" cx="15.19" cy="15.19" r="4.48"/>
			<circle style="clip-path:url(#SVGID_1_);fill:#00CAFF;" cx="15.19" cy="15.19" r="4.28"/>
			<circle style="clip-path:url(#SVGID_1_);fill:#00CBFF;" cx="15.19" cy="15.19" r="4.09"/>
			<circle style="clip-path:url(#SVGID_1_);fill:#00CCFF;" cx="15.19" cy="15.19" r="3.89"/>
			<circle style="clip-path:url(#SVGID_1_);fill:#00CDFF;" cx="15.19" cy="15.19" r="3.7"/>
			<circle style="clip-path:url(#SVGID_1_);fill:#00CEFF;" cx="15.19" cy="15.19" r="3.51"/>
			<circle style="clip-path:url(#SVGID_1_);fill:#00CFFF;" cx="15.19" cy="15.19" r="3.31"/>
			<circle style="clip-path:url(#SVGID_1_);fill:#00D0FF;" cx="15.19" cy="15.19" r="3.12"/>
			<circle style="clip-path:url(#SVGID_1_);fill:#00D1FF;" cx="15.19" cy="15.19" r="2.92"/>
			<circle style="clip-path:url(#SVGID_1_);fill:#00D2FF;" cx="15.19" cy="15.19" r="2.73"/>
			<circle style="clip-path:url(#SVGID_1_);fill:#00D3FF;" cx="15.19" cy="15.19" r="2.53"/>
			<circle style="clip-path:url(#SVGID_1_);fill:#00D4FF;" cx="15.19" cy="15.19" r="2.34"/>
			<circle style="clip-path:url(#SVGID_1_);fill:#00D5FF;" cx="15.19" cy="15.19" r="2.14"/>
			<circle style="clip-path:url(#SVGID_1_);fill:#00D6FF;" cx="15.19" cy="15.19" r="1.95"/>
			<circle style="clip-path:url(#SVGID_1_);fill:#00D7FF;" cx="15.19" cy="15.19" r="1.75"/>
			<circle style="clip-path:url(#SVGID_1_);fill:#00D8FF;" cx="15.19" cy="15.19" r="1.56"/>
			<circle style="clip-path:url(#SVGID_1_);fill:#00D9FF;" cx="15.19" cy="15.19" r="1.36"/>
			<circle style="clip-path:url(#SVGID_1_);fill:#00DAFF;" cx="15.19" cy="15.19" r="1.17"/>
			<circle style="clip-path:url(#SVGID_1_);fill:#00DBFF;" cx="15.19" cy="15.19" r="0.97"/>
			<circle style="clip-path:url(#SVGID_1_);fill:#00DCFF;" cx="15.19" cy="15.19" r="0.78"/>
			<circle style="clip-path:url(#SVGID_1_);fill:#00DDFF;" cx="15.19" cy="15.19" r="0.58"/>
			<circle style="clip-path:url(#SVGID_1_);fill:#00DEFF;" cx="15.19" cy="15.19" r="0.39"/>
			<circle style="clip-path:url(#SVGID_1_);fill:#00DFFF;" cx="15.19" cy="15.19" r="0.19"/>
		</g>
	</g>
	<g>
		<g>
			<defs>
				<path id="SVGID_326_" d="M15.2,23.69c-0.28,0-0.51-0.23-0.51-0.51v-6.64c0-1.55-1.26-2.81-2.81-2.81
					c-1.55,0-2.81,1.26-2.81,2.81v6.64c0,0.28-0.23,0.51-0.51,0.51H6.42c-0.33,0-0.59-0.27-0.59-0.6V9.02
					c0-1.19,1.15-2.32,2.38-2.32c0.35,0,0.44,0,0.56,0c0.14,0,0.32,0,1,0c2.37,0,6.56,0,9.15-0.01c-0.61,0.59-0.99,1.42-0.99,2.34
					V23.1c0,0.33-0.27,0.6-0.6,0.6H15.2L15.2,23.69z M24.04,10.73c0.28,0,0.51,0.23,0.51,0.51v9.06c0,0.28-0.23,0.51-0.51,0.51h-2.4
					V10.73H24.04L24.04,10.73z M22.57,23.69c-0.52,0-0.94-0.42-0.94-0.94v-1.02h1.88v1.02C23.52,23.27,23.09,23.69,22.57,23.69
					L22.57,23.69z M18.84,23.1V9.02c0-1.29,1.05-2.34,2.34-2.34c0,0,0,0,0,0l0,0h0c1.29,0,2.34,1.05,2.34,2.34v0.79h-1.88V9.2
					c0-0.25-0.2-0.46-0.46-0.46s-0.46,0.2-0.46,0.46v13.55c0,1.02,0.83,1.85,1.85,1.85s1.85-0.83,1.85-1.85v-1.08
					c0.6-0.17,1.03-0.72,1.03-1.37v-9.06c0-0.65-0.44-1.2-1.03-1.37V9.02c0-1.79-1.46-3.25-3.25-3.25c0,0,0,0,0,0v0c0,0,0,0,0,0
					c-0.05,0-7.83,0-11.41,0.01c-0.69,0-0.87,0-1.01,0c-0.12,0-0.21,0-0.56,0c-1.72,0-3.29,1.54-3.29,3.24V23.1
					c0,0.83,0.68,1.51,1.51,1.51h2.13c0.79,0,1.43-0.64,1.43-1.43v-6.64c0-1.05,0.85-1.9,1.9-1.9c1.05,0,1.9,0.85,1.9,1.9v6.64
					c0,0.79,0.64,1.43,1.43,1.43h2.13C18.17,24.61,18.84,23.93,18.84,23.1L18.84,23.1z"/>
			</defs>
			<use xlink:href="#SVGID_326_"  style="overflow:visible;fill:#FFFFFF;"/>
			<clipPath id="SVGID_3_">
				<use xlink:href="#SVGID_326_"  style="overflow:visible;"/>
			</clipPath>
		</g>
	</g>
	<g>
		<path class="st212" d="M37.35,14h-2.58l-0.46,1.19h-2.33l2.97-6.8h2.25l2.97,6.8h-2.37L37.35,14z M36.72,12.35l-0.66-1.71
			l-0.66,1.71H36.72z"/>
		<path class="st212" d="M46.93,12.28c0.22,0.29,0.33,0.63,0.33,1.03c0,0.6-0.25,1.06-0.74,1.38s-1.21,0.49-2.14,0.49h-3.83v-6.8
			h3.63c0.91,0,1.59,0.16,2.05,0.49c0.46,0.32,0.7,0.75,0.7,1.29c0,0.32-0.08,0.6-0.24,0.85c-0.16,0.25-0.39,0.46-0.71,0.61
			C46.4,11.78,46.71,12,46.93,12.28z M42.81,9.99V11h1.07c0.5,0,0.75-0.17,0.75-0.5s-0.25-0.51-0.75-0.51H42.81z M44.94,13.05
			c0-0.36-0.25-0.53-0.76-0.53h-1.38v1.07h1.38C44.69,13.58,44.94,13.41,44.94,13.05z"/>
		<path class="st212" d="M50.83,12.93l-0.52,0.57v1.68h-2.25v-6.8h2.25v2.47l2.24-2.47h2.5l-2.72,2.99l2.86,3.81h-2.65L50.83,12.93z
			"/>
		<path class="st212" d="M63.55,9.01c0.49,0.41,0.74,0.98,0.74,1.71c0,0.73-0.25,1.29-0.74,1.71c-0.49,0.41-1.17,0.62-2.04,0.62
			h-1.83v2.15h-0.72v-6.8h2.55C62.38,8.39,63.06,8.59,63.55,9.01z M63.04,11.97c0.36-0.29,0.53-0.71,0.53-1.25
			c0-0.55-0.18-0.97-0.53-1.27c-0.36-0.29-0.87-0.44-1.54-0.44h-1.81v3.4h1.81C62.17,12.41,62.68,12.26,63.04,11.97z"/>
		<path class="st212" d="M68.98,10.54c0.36,0.33,0.53,0.83,0.53,1.48v3.17h-0.66v-0.8c-0.16,0.27-0.38,0.47-0.69,0.62
			c-0.3,0.15-0.66,0.22-1.07,0.22c-0.57,0-1.02-0.14-1.36-0.41c-0.34-0.27-0.51-0.63-0.51-1.08c0-0.43,0.16-0.78,0.47-1.05
			c0.31-0.27,0.81-0.4,1.5-0.4h1.62v-0.31c0-0.44-0.12-0.78-0.37-1.01s-0.61-0.35-1.08-0.35c-0.32,0-0.64,0.05-0.93,0.16
			c-0.3,0.11-0.55,0.25-0.77,0.44l-0.31-0.52c0.26-0.22,0.57-0.39,0.93-0.51c0.36-0.12,0.75-0.18,1.15-0.18
			C68.11,10.04,68.62,10.2,68.98,10.54z M68.2,14.43c0.28-0.18,0.49-0.44,0.62-0.77v-0.84h-1.6c-0.88,0-1.31,0.3-1.31,0.91
			c0,0.3,0.11,0.53,0.34,0.7c0.23,0.17,0.54,0.26,0.95,0.26C67.58,14.69,67.92,14.6,68.2,14.43z"/>
		<path class="st212" d="M75.58,10.08l-2.56,5.72c-0.21,0.48-0.45,0.82-0.72,1.02c-0.27,0.2-0.6,0.3-0.98,0.3
			c-0.25,0-0.48-0.04-0.69-0.12c-0.21-0.08-0.4-0.19-0.55-0.35l0.32-0.52c0.26,0.26,0.57,0.39,0.93,0.39c0.23,0,0.43-0.06,0.6-0.19
			c0.16-0.13,0.32-0.35,0.46-0.66l0.22-0.5l-2.28-5.1h0.72l1.92,4.34l1.92-4.34H75.58z"/>
		<path class="st212" d="M84.44,10.59c0.37,0.37,0.55,0.91,0.55,1.63v2.96H84.3v-2.9c0-0.53-0.13-0.94-0.38-1.21
			c-0.26-0.28-0.62-0.42-1.08-0.42c-0.53,0-0.95,0.16-1.25,0.49s-0.46,0.78-0.46,1.36v2.68h-0.69v-2.9c0-0.53-0.13-0.94-0.38-1.21
			c-0.26-0.28-0.62-0.42-1.09-0.42c-0.52,0-0.94,0.16-1.25,0.49c-0.31,0.33-0.46,0.78-0.46,1.36v2.68h-0.69v-5.11h0.66v0.93
			c0.18-0.31,0.43-0.55,0.76-0.72s0.7-0.25,1.12-0.25c0.43,0,0.8,0.09,1.11,0.27c0.31,0.18,0.55,0.45,0.7,0.81
			c0.19-0.34,0.46-0.6,0.81-0.79c0.35-0.19,0.76-0.29,1.21-0.29C83.57,10.04,84.07,10.22,84.44,10.59z"/>
		<path class="st212" d="M91.33,12.85h-4.28c0.04,0.53,0.24,0.96,0.61,1.29c0.37,0.33,0.84,0.49,1.4,0.49
			c0.32,0,0.61-0.06,0.87-0.17c0.27-0.11,0.5-0.28,0.69-0.5l0.39,0.45c-0.23,0.27-0.51,0.48-0.85,0.62
			c-0.34,0.14-0.71,0.21-1.12,0.21c-0.53,0-0.99-0.11-1.39-0.34c-0.41-0.22-0.72-0.53-0.95-0.93c-0.23-0.4-0.34-0.84-0.34-1.34
			s0.11-0.95,0.33-1.34c0.22-0.4,0.52-0.7,0.89-0.92s0.8-0.33,1.28-0.33s0.9,0.11,1.27,0.33c0.38,0.22,0.67,0.53,0.88,0.92
			c0.21,0.39,0.32,0.84,0.32,1.35L91.33,12.85z M87.63,11.1c-0.33,0.31-0.52,0.72-0.57,1.23h3.62c-0.05-0.51-0.24-0.92-0.57-1.23
			c-0.33-0.31-0.75-0.47-1.25-0.47C88.37,10.63,87.96,10.79,87.63,11.1z"/>
		<path class="st212" d="M96.89,10.6c0.38,0.37,0.57,0.92,0.57,1.63v2.96h-0.69v-2.9c0-0.53-0.13-0.94-0.4-1.21
			c-0.27-0.28-0.64-0.42-1.14-0.42c-0.55,0-0.99,0.16-1.31,0.49s-0.48,0.78-0.48,1.36v2.68h-0.69v-5.11h0.66v0.94
			c0.19-0.31,0.45-0.55,0.78-0.72c0.33-0.17,0.72-0.26,1.16-0.26C96,10.04,96.51,10.22,96.89,10.6z"/>
		<path class="st212" d="M102.02,14.88c-0.13,0.12-0.29,0.21-0.48,0.27c-0.19,0.06-0.39,0.09-0.6,0.09c-0.48,0-0.85-0.13-1.11-0.39
			c-0.26-0.26-0.39-0.62-0.39-1.1v-3.09h-0.91v-0.58h0.91V8.96h0.69v1.12h1.55v0.58h-1.55v3.05c0,0.3,0.08,0.54,0.23,0.69
			c0.15,0.16,0.37,0.24,0.66,0.24c0.14,0,0.28-0.02,0.41-0.07c0.13-0.04,0.25-0.11,0.34-0.19L102.02,14.88z"/>
	</g>
	<g>
		<path class="st212" d="M32.9,22.73c-0.22-0.08-0.39-0.19-0.51-0.33l0.11-0.18c0.12,0.12,0.27,0.22,0.47,0.3
			c0.2,0.08,0.41,0.12,0.62,0.12c0.32,0,0.55-0.06,0.72-0.18c0.16-0.12,0.24-0.28,0.24-0.47c0-0.15-0.04-0.27-0.13-0.36
			c-0.08-0.09-0.19-0.16-0.32-0.2c-0.13-0.05-0.3-0.1-0.51-0.15c-0.24-0.06-0.44-0.12-0.59-0.18c-0.15-0.06-0.27-0.14-0.38-0.26
			c-0.1-0.12-0.15-0.28-0.15-0.48c0-0.16,0.04-0.31,0.13-0.44c0.08-0.13,0.22-0.24,0.39-0.32s0.39-0.12,0.66-0.12
			c0.18,0,0.36,0.03,0.54,0.08c0.18,0.05,0.33,0.13,0.46,0.22l-0.09,0.19c-0.13-0.09-0.28-0.16-0.44-0.21
			c-0.16-0.05-0.32-0.07-0.47-0.07c-0.31,0-0.54,0.06-0.7,0.19c-0.16,0.12-0.24,0.28-0.24,0.48c0,0.15,0.04,0.27,0.13,0.36
			c0.08,0.09,0.19,0.16,0.32,0.2c0.13,0.05,0.3,0.1,0.52,0.15c0.24,0.06,0.44,0.12,0.58,0.18s0.27,0.14,0.37,0.26
			c0.1,0.12,0.15,0.27,0.15,0.47c0,0.16-0.04,0.31-0.13,0.44c-0.09,0.13-0.22,0.24-0.4,0.32s-0.4,0.12-0.67,0.12
			C33.35,22.86,33.12,22.82,32.9,22.73z"/>
		<path class="st212" d="M40.99,22.62v0.22H38.7v-3.32h2.22v0.22h-1.98v1.31h1.77v0.21h-1.77v1.36H40.99z"/>
		<path class="st212" d="M47.26,22.83l-0.79-1.11c-0.12,0.02-0.22,0.02-0.32,0.02H45.2v1.09h-0.24v-3.32h1.19
			c0.42,0,0.75,0.1,0.98,0.3s0.36,0.47,0.36,0.82c0,0.26-0.07,0.48-0.2,0.66s-0.33,0.3-0.58,0.38l0.83,1.16H47.26z M46.15,21.53
			c0.35,0,0.62-0.08,0.81-0.24c0.19-0.16,0.28-0.38,0.28-0.67c0-0.29-0.09-0.51-0.28-0.67s-0.46-0.23-0.81-0.23H45.2v1.8H46.15z"/>
		<path class="st212" d="M54.11,19.51l-1.48,3.32h-0.24l-1.48-3.32h0.27l1.34,3.01l1.34-3.01H54.11z"/>
		<path class="st212" d="M57.73,19.51h0.24v3.32h-0.24V19.51z"/>
		<path class="st212" d="M62.74,22.64c-0.26-0.15-0.47-0.35-0.62-0.6s-0.22-0.54-0.22-0.86c0-0.32,0.07-0.61,0.22-0.86
			s0.36-0.46,0.62-0.6s0.55-0.22,0.88-0.22c0.24,0,0.46,0.04,0.66,0.12s0.38,0.19,0.52,0.34l-0.15,0.16
			c-0.27-0.26-0.61-0.39-1.02-0.39c-0.28,0-0.53,0.06-0.76,0.19c-0.23,0.13-0.41,0.3-0.54,0.52c-0.13,0.22-0.19,0.47-0.19,0.75
			s0.07,0.52,0.19,0.75c0.13,0.22,0.31,0.4,0.54,0.52c0.23,0.13,0.48,0.19,0.76,0.19c0.41,0,0.75-0.13,1.02-0.4l0.15,0.16
			c-0.14,0.15-0.32,0.27-0.52,0.35c-0.21,0.08-0.43,0.12-0.66,0.12C63.3,22.86,63,22.79,62.74,22.64z"/>
		<path class="st212" d="M71,22.62v0.22H68.7v-3.32h2.22v0.22h-1.98v1.31h1.77v0.21h-1.77v1.36H71z"/>
		<path class="st212" d="M75.14,22.73c-0.22-0.08-0.39-0.19-0.51-0.33l0.11-0.18c0.12,0.12,0.27,0.22,0.47,0.3
			c0.2,0.08,0.41,0.12,0.62,0.12c0.32,0,0.56-0.06,0.72-0.18c0.16-0.12,0.24-0.28,0.24-0.47c0-0.15-0.04-0.27-0.13-0.36
			c-0.08-0.09-0.19-0.16-0.32-0.2c-0.13-0.05-0.3-0.1-0.51-0.15c-0.24-0.06-0.44-0.12-0.59-0.18c-0.15-0.06-0.27-0.14-0.38-0.26
			c-0.1-0.12-0.15-0.28-0.15-0.48c0-0.16,0.04-0.31,0.13-0.44c0.08-0.13,0.21-0.24,0.39-0.32s0.39-0.12,0.66-0.12
			c0.18,0,0.36,0.03,0.54,0.08c0.18,0.05,0.33,0.13,0.46,0.22l-0.09,0.19c-0.13-0.09-0.28-0.16-0.44-0.21
			c-0.16-0.05-0.32-0.07-0.47-0.07c-0.31,0-0.54,0.06-0.7,0.19c-0.16,0.12-0.24,0.28-0.24,0.48c0,0.15,0.04,0.27,0.13,0.36
			c0.08,0.09,0.19,0.16,0.32,0.2c0.13,0.05,0.3,0.1,0.52,0.15c0.24,0.06,0.44,0.12,0.58,0.18c0.15,0.06,0.27,0.14,0.37,0.26
			c0.1,0.12,0.15,0.27,0.15,0.47c0,0.16-0.04,0.31-0.13,0.44c-0.09,0.13-0.22,0.24-0.4,0.32c-0.18,0.08-0.4,0.12-0.67,0.12
			C75.59,22.86,75.36,22.82,75.14,22.73z"/>
		<path class="st212" d="M85.24,19.51h0.24v3.1h1.91v0.22h-2.15V19.51z"/>
		<path class="st212" d="M91.43,19.73h-1.2v-0.22h2.63v0.22h-1.2v3.1h-0.24V19.73z"/>
		<path class="st212" d="M96.55,19.51h1.31c0.35,0,0.65,0.07,0.92,0.21c0.27,0.14,0.48,0.34,0.62,0.59s0.22,0.54,0.22,0.86
			c0,0.32-0.07,0.6-0.22,0.86c-0.15,0.25-0.36,0.45-0.62,0.59c-0.27,0.14-0.57,0.21-0.92,0.21h-1.31V19.51z M97.85,22.62
			c0.31,0,0.58-0.06,0.81-0.18c0.23-0.12,0.41-0.29,0.54-0.51s0.19-0.47,0.19-0.75s-0.06-0.53-0.19-0.75s-0.31-0.39-0.54-0.51
			c-0.23-0.12-0.5-0.18-0.81-0.18H96.8v2.89H97.85z"/>
		<path class="st212" d="M100.13,22.79c-0.04-0.04-0.06-0.09-0.06-0.14s0.02-0.1,0.06-0.14c0.04-0.04,0.09-0.06,0.14-0.06
			c0.05,0,0.1,0.02,0.14,0.06c0.04,0.04,0.06,0.09,0.06,0.14s-0.02,0.1-0.06,0.14s-0.09,0.06-0.14,0.06
			C100.22,22.85,100.17,22.83,100.13,22.79z"/>
	</g>
</g>
</svg>
