<svg xmlns="http://www.w3.org/2000/svg" xmlns:xlink="http://www.w3.org/1999/xlink" viewBox="0 0 98.33 25.07"><defs><style>.cls-1{fill:#3f3f3f;}.cls-2{fill:url(#linear-gradient);}.cls-3{fill:url(#linear-gradient-2);}.cls-4{fill:url(#linear-gradient-3);}.cls-5{fill:url(#linear-gradient-4);}.cls-6{fill:url(#linear-gradient-5);}.cls-7{fill:url(#linear-gradient-6);}.cls-8{fill:url(#linear-gradient-7);}.cls-9{fill:url(#linear-gradient-8);}.cls-10{fill:url(#linear-gradient-9);}.cls-11{fill:url(#linear-gradient-10);}.cls-12{fill:url(#linear-gradient-11);}.cls-13{fill:url(#linear-gradient-12);}.cls-14{fill:url(#linear-gradient-13);}.cls-15{fill:url(#linear-gradient-14);}.cls-16{fill:url(#linear-gradient-15);}.cls-17{fill:url(#linear-gradient-16);}.cls-18{fill:url(#linear-gradient-17);}.cls-19{fill:url(#linear-gradient-18);}.cls-20{fill:url(#linear-gradient-19);}.cls-21{fill:url(#linear-gradient-20);}.cls-22{fill:url(#linear-gradient-21);}.cls-23{fill:url(#linear-gradient-22);}.cls-24{fill:url(#linear-gradient-23);}.cls-25{fill:url(#linear-gradient-24);}.cls-26{fill:url(#linear-gradient-25);}</style><linearGradient id="linear-gradient" x1="0.94" y1="12.32" x2="11.51" y2="12.32" gradientUnits="userSpaceOnUse"><stop offset="0" stop-color="#7d00c6"/><stop offset="1" stop-color="#0028ef"/><stop offset="1"/></linearGradient><linearGradient id="linear-gradient-2" x1="4.38" y1="3.12" x2="5.75" y2="3.12" xlink:href="#linear-gradient"/><linearGradient id="linear-gradient-3" x1="10.65" y1="6.47" x2="12.03" y2="6.47" xlink:href="#linear-gradient"/><linearGradient id="linear-gradient-4" x1="7.56" y1="3.72" x2="8.93" y2="3.72" xlink:href="#linear-gradient"/><linearGradient id="linear-gradient-5" x1="5.49" y1="7.68" x2="6.87" y2="7.68" xlink:href="#linear-gradient"/><linearGradient id="linear-gradient-6" x1="1.2" y1="8.05" x2="2.58" y2="8.05" xlink:href="#linear-gradient"/><linearGradient id="linear-gradient-7" x1="5.15" y1="11.8" x2="6.52" y2="11.8" xlink:href="#linear-gradient"/><linearGradient id="linear-gradient-8" x1="7.21" y1="16.44" x2="8.59" y2="16.44" xlink:href="#linear-gradient"/><linearGradient id="linear-gradient-9" x1="3.77" y1="19.88" x2="5.15" y2="19.88" xlink:href="#linear-gradient"/><linearGradient id="linear-gradient-10" x1="10.66" y1="24.38" x2="12.03" y2="24.38" xlink:href="#linear-gradient"/><linearGradient id="linear-gradient-11" x1="8.76" y1="19.02" x2="10.48" y2="19.02" xlink:href="#linear-gradient"/><linearGradient id="linear-gradient-12" x1="9.96" y1="13.01" x2="12.37" y2="13.01" xlink:href="#linear-gradient"/><linearGradient id="linear-gradient-13" x1="0" y1="13.55" x2="2.06" y2="13.55" xlink:href="#linear-gradient"/><linearGradient id="linear-gradient-14" x1="1.86" y1="10.05" x2="11.49" y2="10.05" xlink:href="#linear-gradient"/><linearGradient id="linear-gradient-15" x1="4.4" y1="18.21" x2="7.87" y2="18.21" gradientTransform="translate(14.67 0.99) rotate(45)" xlink:href="#linear-gradient"/><linearGradient id="linear-gradient-16" x1="7.67" y1="14.68" x2="11.31" y2="14.68" gradientTransform="translate(13.16 -2.41) rotate(45)" xlink:href="#linear-gradient"/><linearGradient id="linear-gradient-17" x1="9.45" y1="15.93" x2="11.33" y2="15.93" gradientTransform="translate(22.85 1.55) rotate(74.02)" xlink:href="#linear-gradient"/><linearGradient id="linear-gradient-18" x1="5.67" y1="14.12" x2="8.06" y2="14.12" gradientTransform="translate(6.59 -1.58) rotate(24.9)" xlink:href="#linear-gradient"/><linearGradient id="linear-gradient-19" x1="1.9" y1="10.6" x2="6.16" y2="10.6" gradientTransform="translate(10.23 1.11) rotate(53.98)" xlink:href="#linear-gradient"/><linearGradient id="linear-gradient-20" x1="2.31" y1="7.85" x2="6.1" y2="7.85" gradientTransform="translate(0.36 -0.18) rotate(2.57)" xlink:href="#linear-gradient"/><linearGradient id="linear-gradient-21" x1="8.1" y1="5.1" x2="11.31" y2="5.1" gradientTransform="translate(6.75 -5.46) rotate(46.64)" xlink:href="#linear-gradient"/><linearGradient id="linear-gradient-22" x1="5.75" y1="9.74" x2="6.44" y2="9.74" gradientTransform="translate(15 2.48) rotate(82.87)" xlink:href="#linear-gradient"/><linearGradient id="linear-gradient-23" x1="5.78" y1="9.22" x2="11.4" y2="9.22" gradientTransform="translate(9.04 -3.37) rotate(45)" xlink:href="#linear-gradient"/><linearGradient id="linear-gradient-24" x1="9.54" y1="21.8" x2="11.43" y2="21.8" gradientTransform="translate(6.98 -2.14) rotate(17.35)" xlink:href="#linear-gradient"/><linearGradient id="linear-gradient-25" x1="4.34" y1="22.15" x2="11.31" y2="22.15" gradientTransform="translate(21.8 3.27) rotate(55.98)" xlink:href="#linear-gradient"/></defs><g id="Layer_2" data-name="Layer 2"><g id="Layer_1-2" data-name="Layer 1"><path class="cls-1" d="M25.77,17.26H21l-.84,2.17H15.91L21.36,7H25.5L31,19.43H26.6Zm-1.16-3L23.4,11.09l-1.22,3.14Z"/><path class="cls-1" d="M43.32,14.1A3,3,0,0,1,43.93,16a2.86,2.86,0,0,1-1.36,2.54,7.08,7.08,0,0,1-3.92.9h-7V7H38.3a6.54,6.54,0,0,1,3.77.89,2.74,2.74,0,0,1,1.27,2.37,2.84,2.84,0,0,1-.44,1.57,3.17,3.17,0,0,1-1.29,1.12A3.69,3.69,0,0,1,43.32,14.1ZM35.77,9.9v1.85h2c.91,0,1.37-.31,1.37-.93s-.46-.92-1.37-.92Zm3.92,5.61c0-.65-.47-1-1.39-1H35.77v2H38.3C39.22,16.49,39.69,16.16,39.69,15.51Z"/><path class="cls-1" d="M50.49,15.3l-1,1.05v3.08H45.41V7h4.13v4.52L53.64,7h4.58l-5,5.48,5.24,7H53.61Z"/><path class="cls-1" d="M62.48,8.1H58.1V7H68.19V8.1H63.8V19.43H62.48Z"/><path class="cls-1" d="M77.21,15.14H69.36a3.35,3.35,0,0,0,1.13,2.36,3.7,3.7,0,0,0,2.56.9,4.24,4.24,0,0,0,1.61-.31,3.57,3.57,0,0,0,1.26-.92l.72.82a4,4,0,0,1-1.56,1.14,5.32,5.32,0,0,1-2.06.39,5.18,5.18,0,0,1-2.56-.61,4.47,4.47,0,0,1-1.74-1.71,4.89,4.89,0,0,1-.62-2.46,5,5,0,0,1,.6-2.46,4.34,4.34,0,0,1,1.63-1.69,4.64,4.64,0,0,1,2.35-.6,4.54,4.54,0,0,1,2.33.6,4.41,4.41,0,0,1,1.63,1.69,5.05,5.05,0,0,1,.58,2.46Zm-6.8-3.2a3.36,3.36,0,0,0-1,2.25H76a3.36,3.36,0,0,0-1-2.25,3.42,3.42,0,0,0-4.56,0Z"/><path class="cls-1" d="M81.21,18.91a4.33,4.33,0,0,1-1.72-1.7,4.85,4.85,0,0,1-.63-2.47,4.84,4.84,0,0,1,.63-2.46,4.44,4.44,0,0,1,1.72-1.69,5.08,5.08,0,0,1,2.48-.6,4.77,4.77,0,0,1,2.17.47,3.51,3.51,0,0,1,1.5,1.38l-.94.64a3,3,0,0,0-1.18-1,3.49,3.49,0,0,0-1.55-.35,3.59,3.59,0,0,0-1.82.46,3.1,3.1,0,0,0-1.27,1.29,4,4,0,0,0-.45,1.9,4,4,0,0,0,.45,1.92,3.13,3.13,0,0,0,1.27,1.28,3.59,3.59,0,0,0,1.82.46,3.49,3.49,0,0,0,1.55-.34,2.92,2.92,0,0,0,1.18-1l.94.64a3.6,3.6,0,0,1-1.51,1.38,4.89,4.89,0,0,1-2.16.47A5,5,0,0,1,81.21,18.91Z"/><path class="cls-1" d="M97.28,11a4,4,0,0,1,1,3v5.43H97.06V14.12a3.11,3.11,0,0,0-.73-2.23,2.75,2.75,0,0,0-2.09-.76,3.2,3.2,0,0,0-2.39.9A3.39,3.39,0,0,0,91,14.51v4.92H89.7V6.21H91V11.7a3.37,3.37,0,0,1,1.42-1.27A4.65,4.65,0,0,1,94.48,10,3.83,3.83,0,0,1,97.28,11Z"/><path class="cls-2" d="M11.51,24.64l-.1,0a12.46,12.46,0,0,1,0-24.6l.1,0ZM11.34.2a12.29,12.29,0,0,0,0,24.23Z"/><circle class="cls-3" cx="5.06" cy="3.12" r="0.69"/><circle class="cls-4" cx="11.34" cy="6.47" r="0.69"/><circle class="cls-5" cx="8.24" cy="3.72" r="0.69"/><circle class="cls-6" cx="6.18" cy="7.68" r="0.69"/><circle class="cls-7" cx="1.89" cy="8.05" r="0.69"/><circle class="cls-8" cx="5.84" cy="11.8" r="0.69"/><circle class="cls-9" cx="7.9" cy="16.44" r="0.69"/><circle class="cls-10" cx="4.46" cy="19.88" r="0.69"/><circle class="cls-11" cx="11.35" cy="24.38" r="0.69"/><circle class="cls-12" cx="9.62" cy="19.02" r="0.86"/><circle class="cls-13" cx="11.17" cy="13.01" r="1.2"/><circle class="cls-14" cx="1.03" cy="13.55" r="1.03"/><polygon class="cls-15" points="4.48 19.97 4.45 19.8 9.47 18.96 7.84 16.51 1.86 13.52 5.83 11.71 11.25 12.9 11.25 6.58 6.12 7.78 4.86 3.1 8.21 3.63 11.36 0.14 11.49 0.26 8.28 3.82 5.09 3.31 6.24 7.58 11.42 6.37 11.42 13.11 5.85 11.89 2.25 13.53 7.96 16.38 9.76 19.09 4.48 19.97"/><rect class="cls-16" x="3.77" y="18.12" width="4.74" height="0.17" transform="translate(-11.08 9.67) rotate(-45)"/><rect class="cls-17" x="7" y="14.6" width="4.98" height="0.17" transform="translate(-7.6 11.01) rotate(-45)"/><rect class="cls-18" x="7.26" y="15.84" width="6.26" height="0.17" transform="translate(-7.78 21.54) rotate(-74.02)"/><rect class="cls-19" x="6.78" y="11.47" width="0.17" height="5.31" transform="translate(-5.31 4.21) rotate(-24.9)"/><rect class="cls-20" x="0.53" y="10.51" width="7.01" height="0.17" transform="matrix(0.59, -0.81, 0.81, 0.59, -6.91, 7.63)"/><rect class="cls-21" x="2.31" y="7.76" width="3.79" height="0.17" transform="translate(-0.35 0.2) rotate(-2.57)"/><rect class="cls-22" x="9.62" y="2.97" width="0.17" height="4.26" transform="translate(-0.67 8.65) rotate(-46.64)"/><rect class="cls-23" x="4.02" y="9.65" width="4.16" height="0.17" transform="translate(-4.33 14.58) rotate(-82.87)"/><rect class="cls-24" x="4.7" y="9.14" width="7.78" height="0.17" transform="translate(-4.01 8.77) rotate(-45)"/><rect class="cls-25" x="10.4" y="18.92" width="0.17" height="5.76" transform="translate(-6.03 4.12) rotate(-17.35)"/><rect class="cls-26" x="7.74" y="18" width="0.17" height="8.3" transform="translate(-14.91 16.24) rotate(-55.98)"/></g></g></svg>