<?xml version="1.0" encoding="utf-8"?>
<!-- Generator: Adobe Illustrator 24.0.3, SVG Export Plug-In . SVG Version: 6.00 Build 0)  -->
<svg version="1.0" id="Layer_1" xmlns="http://www.w3.org/2000/svg" xmlns:xlink="http://www.w3.org/1999/xlink" x="0px" y="0px"
	 viewBox="0 0 99.63 31.09" style="enable-background:new 0 0 99.63 31.09;" xml:space="preserve">
<style type="text/css">
	.st0{fill:url(#SVGID_1_);}
	.st1{fill:#17516B;}
	.st2{fill:#3A7289;}
	.st3{opacity:0.8;fill:#2C6477;}
	.st4{clip-path:url(#SVGID_5_);fill:#FFFFFF;}
	.st5{clip-path:url(#SVGID_5_);fill:#BD0034;}
	.st6{clip-path:url(#SVGID_5_);fill:url(#SVGID_6_);}
	.st7{clip-path:url(#SVGID_5_);fill:url(#SVGID_7_);}
	.st8{clip-path:url(#SVGID_5_);fill:url(#SVGID_8_);}
	.st9{clip-path:url(#SVGID_5_);fill:url(#SVGID_9_);}
	.st10{clip-path:url(#SVGID_5_);fill:url(#SVGID_10_);}
	.st11{clip-path:url(#SVGID_5_);fill:url(#SVGID_11_);}
	.st12{clip-path:url(#SVGID_5_);fill:url(#SVGID_12_);}
	.st13{clip-path:url(#SVGID_5_);fill:url(#SVGID_13_);}
	.st14{fill:#F2F5F7;}
	.st15{fill:#A92807;}
	.st16{fill:#1E1D22;}
	.st17{clip-path:url(#SVGID_15_);}
	.st18{fill:#FFFFFF;}
	.st19{fill:none;stroke:#F2F5F7;}
	.st20{clip-path:url(#SVGID_19_);fill:#8EA1B2;}
	.st21{clip-path:url(#SVGID_19_);fill:#A92807;}
	.st22{clip-path:url(#SVGID_19_);fill:#384657;}
	.st23{clip-path:url(#SVGID_21_);}
	.st24{fill:#8EA1B2;}
	.st25{fill:#384657;}
	.st26{clip-path:url(#SVGID_25_);fill:#384657;}
	.st27{clip-path:url(#SVGID_25_);fill:#8EA1B2;}
	.st28{clip-path:url(#SVGID_25_);fill:#A92807;}
	.st29{clip-path:url(#SVGID_27_);}
	.st30{fill:#E1E4E5;}
	.st31{clip-path:url(#SVGID_31_);fill:#384657;}
	.st32{clip-path:url(#SVGID_31_);fill:#8EA1B2;}
	.st33{clip-path:url(#SVGID_31_);fill:#A92807;}
	.st34{clip-path:url(#SVGID_33_);}
	.st35{clip-path:url(#SVGID_37_);fill:#384657;}
	.st36{clip-path:url(#SVGID_37_);fill:#8EA1B2;}
	.st37{clip-path:url(#SVGID_37_);fill:#A92807;}
	.st38{clip-path:url(#SVGID_39_);}
	.st39{fill:#2A323C;}
	.st40{fill:#1F2529;}
	.st41{fill:#96A1AB;}
	.st42{clip-path:url(#SVGID_43_);fill:#D00027;}
	.st43{clip-path:url(#SVGID_43_);}
	.st44{clip-path:url(#SVGID_45_);fill:#FFFFFF;}
	.st45{clip-path:url(#SVGID_45_);fill:#D00027;}
	.st46{clip-path:url(#SVGID_47_);}
	.st47{clip-path:url(#SVGID_51_);}
	.st48{clip-path:url(#SVGID_55_);}
	.st49{opacity:0.4;clip-path:url(#SVGID_59_);}
	.st50{clip-path:url(#SVGID_61_);fill:#FFFFFF;}
	.st51{clip-path:url(#SVGID_59_);fill:#A92807;}
	.st52{clip-path:url(#SVGID_63_);fill:#FFFFFF;}
	.st53{opacity:0.5;}
	.st54{clip-path:url(#SVGID_65_);}
	.st55{filter:url(#Adobe_OpacityMaskFilter);}
	.st56{clip-path:url(#SVGID_67_);}
	.st57{enable-background:new    ;}
	.st58{opacity:0.1412;clip-path:url(#SVGID_67_);mask:url(#SVGID_68_);}
	.st59{clip-path:url(#SVGID_72_);}
	.st60{fill:none;stroke:#FFFFFF;stroke-width:3;stroke-linecap:round;stroke-linejoin:round;stroke-miterlimit:10;}
	.st61{opacity:0.502;}
	.st62{opacity:0.7;}
	.st63{clip-path:url(#SVGID_74_);fill:#D00027;}
	.st64{clip-path:url(#SVGID_74_);}
	.st65{clip-path:url(#SVGID_76_);fill:#FFFFFF;}
	.st66{clip-path:url(#SVGID_76_);fill:#D00027;}
	.st67{clip-path:url(#SVGID_78_);}
	.st68{clip-path:url(#SVGID_82_);}
	.st69{clip-path:url(#SVGID_86_);}
	.st70{clip-path:url(#SVGID_92_);}
	.st71{filter:url(#Adobe_OpacityMaskFilter_1_);}
	.st72{clip-path:url(#SVGID_94_);}
	.st73{opacity:0.1412;clip-path:url(#SVGID_94_);mask:url(#SVGID_95_);}
	.st74{clip-path:url(#SVGID_99_);}
	.st75{clip-path:url(#SVGID_101_);fill:#D00027;}
	.st76{clip-path:url(#SVGID_101_);}
	.st77{clip-path:url(#SVGID_103_);fill:#FFFFFF;}
	.st78{clip-path:url(#SVGID_103_);fill:#D00027;}
	.st79{clip-path:url(#SVGID_105_);}
	.st80{clip-path:url(#SVGID_109_);}
	.st81{clip-path:url(#SVGID_113_);}
	.st82{opacity:0.4;clip-path:url(#SVGID_117_);}
	.st83{clip-path:url(#SVGID_119_);fill:#FFFFFF;}
	.st84{clip-path:url(#SVGID_117_);fill:#A92807;}
	.st85{clip-path:url(#SVGID_121_);fill:#FFFFFF;}
	.st86{clip-path:url(#SVGID_123_);}
	.st87{fill:none;stroke:#FFFFFF;stroke-width:0.5;stroke-miterlimit:10;}
	.st88{opacity:0;fill:#3C464F;}
	.st89{opacity:3.960396e-03;fill:#3C464F;}
	.st90{opacity:7.920792e-03;fill:#3C464F;}
	.st91{opacity:0.0119;fill:#3C464F;}
	.st92{opacity:0.0158;fill:#3C464F;}
	.st93{opacity:0.0198;fill:#3C464F;}
	.st94{opacity:0.0238;fill:#3C464F;}
	.st95{opacity:0.0277;fill:#3C464F;}
	.st96{opacity:0.0317;fill:#3C464F;}
	.st97{opacity:0.0356;fill:#3C464F;}
	.st98{opacity:0.0396;fill:#3C464F;}
	.st99{opacity:0.0436;fill:#3C464F;}
	.st100{opacity:0.0475;fill:#3C464F;}
	.st101{opacity:0.0515;fill:#3C464F;}
	.st102{opacity:0.0554;fill:#3C464F;}
	.st103{opacity:0.0594;fill:#3C464F;}
	.st104{opacity:0.0634;fill:#3C464F;}
	.st105{opacity:0.0673;fill:#3C464F;}
	.st106{opacity:0.0713;fill:#3C464F;}
	.st107{opacity:0.0752;fill:#3C464F;}
	.st108{opacity:0.0792;fill:#3C464F;}
	.st109{opacity:0.0832;fill:#3C464F;}
	.st110{opacity:0.0871;fill:#3C464F;}
	.st111{opacity:0.0911;fill:#3C464F;}
	.st112{opacity:0.095;fill:#3C464F;}
	.st113{opacity:0.099;fill:#3C464F;}
	.st114{opacity:0.103;fill:#3C464F;}
	.st115{opacity:0.1069;fill:#3C464F;}
	.st116{opacity:0.1109;fill:#3C464F;}
	.st117{opacity:0.1149;fill:#3C464F;}
	.st118{opacity:0.1188;fill:#3C464F;}
	.st119{opacity:0.1228;fill:#3C464F;}
	.st120{opacity:0.1267;fill:#3C464F;}
	.st121{opacity:0.1307;fill:#3C464F;}
	.st122{opacity:0.1347;fill:#3C464F;}
	.st123{opacity:0.1386;fill:#3C464F;}
	.st124{opacity:0.1426;fill:#3C464F;}
	.st125{opacity:0.1465;fill:#3C464F;}
	.st126{opacity:0.1505;fill:#3C464F;}
	.st127{opacity:0.1545;fill:#3C464F;}
	.st128{opacity:0.1584;fill:#3C464F;}
	.st129{opacity:0.1624;fill:#3C464F;}
	.st130{opacity:0.1663;fill:#3C464F;}
	.st131{opacity:0.1703;fill:#3C464F;}
	.st132{opacity:0.1743;fill:#3C464F;}
	.st133{opacity:0.1782;fill:#3C464F;}
	.st134{opacity:0.1822;fill:#3C464F;}
	.st135{opacity:0.1861;fill:#3C464F;}
	.st136{opacity:0.1901;fill:#3C464F;}
	.st137{opacity:0.1941;fill:#3C464F;}
	.st138{opacity:0.198;fill:#3C464F;}
	.st139{opacity:0.202;fill:#3C464F;}
	.st140{opacity:0.2059;fill:#3C464F;}
	.st141{opacity:0.2099;fill:#3C464F;}
	.st142{opacity:0.2139;fill:#3C464F;}
	.st143{opacity:0.2178;fill:#3C464F;}
	.st144{opacity:0.2218;fill:#3C464F;}
	.st145{opacity:0.2257;fill:#3C464F;}
	.st146{opacity:0.2297;fill:#3C464F;}
	.st147{opacity:0.2337;fill:#3C464F;}
	.st148{opacity:0.2376;fill:#3C464F;}
	.st149{opacity:0.2416;fill:#3C464F;}
	.st150{opacity:0.2455;fill:#3C464F;}
	.st151{opacity:0.2495;fill:#3C464F;}
	.st152{opacity:0.2535;fill:#3C464F;}
	.st153{opacity:0.2574;fill:#3C464F;}
	.st154{opacity:0.2614;fill:#3C464F;}
	.st155{opacity:0.2653;fill:#3C464F;}
	.st156{opacity:0.2693;fill:#3C464F;}
	.st157{opacity:0.2733;fill:#3C464F;}
	.st158{opacity:0.2772;fill:#3C464F;}
	.st159{opacity:0.2812;fill:#3C464F;}
	.st160{opacity:0.2851;fill:#3C464F;}
	.st161{opacity:0.2891;fill:#3C464F;}
	.st162{opacity:0.2931;fill:#3C464F;}
	.st163{opacity:0.297;fill:#3C464F;}
	.st164{opacity:0.301;fill:#3C464F;}
	.st165{opacity:0.305;fill:#3C464F;}
	.st166{opacity:0.3089;fill:#3C464F;}
	.st167{opacity:0.3129;fill:#3C464F;}
	.st168{opacity:0.3168;fill:#3C464F;}
	.st169{opacity:0.3208;fill:#3C464F;}
	.st170{opacity:0.3248;fill:#3C464F;}
	.st171{opacity:0.3287;fill:#3C464F;}
	.st172{opacity:0.3327;fill:#3C464F;}
	.st173{opacity:0.3366;fill:#3C464F;}
	.st174{opacity:0.3406;fill:#3C464F;}
	.st175{opacity:0.3446;fill:#3C464F;}
	.st176{opacity:0.3485;fill:#3C464F;}
	.st177{opacity:0.3525;fill:#3C464F;}
	.st178{opacity:0.3564;fill:#3C464F;}
	.st179{opacity:0.3604;fill:#3C464F;}
	.st180{opacity:0.3644;fill:#3C464F;}
	.st181{opacity:0.3683;fill:#3C464F;}
	.st182{opacity:0.3723;fill:#3C464F;}
	.st183{opacity:0.3762;fill:#3C464F;}
	.st184{opacity:0.3802;fill:#3C464F;}
	.st185{opacity:0.3842;fill:#3C464F;}
	.st186{opacity:0.3881;fill:#3C464F;}
	.st187{opacity:0.3921;fill:#3C464F;}
	.st188{opacity:0.396;fill:#3C464F;}
	.st189{opacity:0.4;fill:#3C464F;}
	.st190{fill:none;stroke:#7EA1B1;stroke-width:3;stroke-linecap:round;stroke-linejoin:round;}
	.st191{fill:none;stroke:#7EA1B1;stroke-width:3;stroke-linecap:round;stroke-linejoin:round;stroke-dasharray:6.859,6.859;}
	.st192{fill:none;stroke:#7EA1B1;stroke-width:3;stroke-linecap:round;stroke-linejoin:round;stroke-dasharray:7.5157,7.5157;}
	.st193{fill:none;stroke:#7EA1B1;stroke-width:3;stroke-linecap:round;stroke-linejoin:round;stroke-dasharray:8.4421,8.4421;}
	.st194{fill:none;stroke:#7EA1B1;stroke-width:3;stroke-linecap:round;stroke-linejoin:round;stroke-dasharray:8.7883,8.7883;}
	.st195{fill:none;stroke:#7EA1B1;stroke-width:3;stroke-linecap:round;stroke-linejoin:round;stroke-dasharray:8.9317,8.9317;}
	.st196{fill:none;stroke:#7EA1B1;stroke-width:3;stroke-linecap:round;stroke-linejoin:round;stroke-dasharray:7.9659,7.9659;}
	.st197{fill:none;stroke:#7EA1B1;stroke-width:3;stroke-linecap:round;stroke-linejoin:round;stroke-dasharray:8.532,8.532;}
	.st198{fill:#C5C5C5;}
	.st199{fill:none;stroke:#7EA1B1;stroke-width:3;stroke-linecap:round;stroke-linejoin:round;stroke-dasharray:5.9487,5.9487;}
	.st200{fill:none;stroke:#7EA1B1;stroke-width:3;stroke-linecap:round;stroke-linejoin:round;stroke-dasharray:8.8035,8.8035;}
	.st201{fill:none;stroke:#7EA1B1;stroke-width:3;stroke-linecap:round;stroke-linejoin:round;stroke-dasharray:8.4073,8.4073;}
	.st202{fill:none;stroke:#7EA1B1;stroke-width:3;stroke-linecap:round;stroke-linejoin:round;stroke-dasharray:6.2046,6.2046;}
	.st203{fill:none;stroke:#7EA1B1;stroke-width:3;stroke-linecap:round;stroke-linejoin:round;stroke-dasharray:7.9457,7.9457;}
	.st204{fill:none;stroke:#7EA1B1;stroke-width:3;stroke-linecap:round;stroke-linejoin:round;stroke-dasharray:8.4145,8.4145;}
	.st205{fill:none;stroke:#7EA1B1;stroke-width:3;stroke-linecap:round;stroke-linejoin:round;stroke-dasharray:7.2825,7.2825;}
	.st206{fill:none;stroke:#7EA1B1;stroke-width:3;stroke-linecap:round;stroke-linejoin:round;stroke-dasharray:7.4081,7.4081;}
	.st207{fill:none;stroke:#7EA1B1;stroke-width:3;stroke-linecap:round;stroke-linejoin:round;stroke-dasharray:8.0493,8.0493;}
	.st208{fill:none;stroke:#7EA1B1;stroke-width:3;stroke-linecap:round;stroke-linejoin:round;stroke-dasharray:8.1454,8.1454;}
	.st209{fill:none;stroke:#7EA1B1;stroke-width:3;stroke-linecap:round;stroke-linejoin:round;stroke-dasharray:8.0164,8.0164;}
	.st210{fill:#7EA1B1;}
	.st211{fill:none;stroke:#7EA1B1;stroke-width:3;stroke-linecap:round;stroke-linejoin:round;stroke-miterlimit:10;}
	.st212{fill:#2F2F2F;}
	.st213{fill:#00B5B5;}
	.st214{fill:url(#SVGID_124_);}
	.st215{fill:#12407D;}
	.st216{fill:#0D78C4;}
	.st217{fill-rule:evenodd;clip-rule:evenodd;fill:#0F53FF;}
	.st218{filter:url(#Adobe_OpacityMaskFilter_2_);}
	.st219{clip-path:url(#SVGID_128_);}
	.st220{clip-path:url(#SVGID_131_);}
	.st221{clip-path:url(#SVGID_133_);}
	.st222{clip-path:url(#SVGID_128_);mask:url(#SVGID_129_);enable-background:new    ;}
	.st223{clip-path:url(#SVGID_135_);fill-rule:evenodd;clip-rule:evenodd;fill:#0F53FF;}
	.st224{filter:url(#Adobe_OpacityMaskFilter_3_);}
	.st225{clip-path:url(#SVGID_138_);}
	.st226{clip-path:url(#SVGID_138_);fill-rule:evenodd;clip-rule:evenodd;fill:#FFFFFF;}
	.st227{clip-path:url(#SVGID_128_);mask:url(#SVGID_136_);enable-background:new    ;}
	.st228{clip-path:url(#SVGID_140_);fill-rule:evenodd;clip-rule:evenodd;fill:#0F53FF;}
	.st229{clip-path:url(#SVGID_142_);fill:url(#SVGID_143_);}
	.st230{clip-path:url(#SVGID_145_);fill:url(#SVGID_146_);}
	.st231{clip-path:url(#SVGID_148_);fill:url(#SVGID_149_);}
	.st232{clip-path:url(#SVGID_151_);fill:url(#SVGID_152_);}
	.st233{clip-path:url(#SVGID_154_);fill:url(#SVGID_155_);}
	.st234{clip-path:url(#SVGID_157_);fill:url(#SVGID_158_);}
	.st235{clip-path:url(#SVGID_160_);fill:url(#SVGID_161_);}
	.st236{clip-path:url(#SVGID_163_);fill:url(#SVGID_164_);}
	.st237{fill:url(#SVGID_165_);}
	.st238{fill:url(#SVGID_166_);}
	.st239{fill:url(#SVGID_167_);}
	.st240{fill:url(#SVGID_168_);}
	.st241{fill:url(#SVGID_169_);}
	.st242{fill:url(#SVGID_170_);}
	.st243{fill:url(#SVGID_171_);}
	.st244{fill:url(#SVGID_172_);}
	.st245{fill:url(#SVGID_173_);}
	.st246{fill:url(#SVGID_174_);}
	.st247{fill:url(#SVGID_175_);}
	.st248{fill:url(#SVGID_176_);}
	.st249{fill:url(#SVGID_177_);}
	.st250{fill:url(#SVGID_178_);}
	.st251{fill:url(#SVGID_179_);}
	.st252{fill:url(#SVGID_180_);}
	.st253{fill:url(#SVGID_181_);}
	.st254{fill:url(#SVGID_182_);}
	.st255{fill:url(#SVGID_183_);}
	.st256{fill:url(#SVGID_184_);}
	.st257{fill:url(#SVGID_185_);}
	.st258{fill:#A89968;}
	.st259{fill:url(#SVGID_186_);}
	.st260{fill:#C4001C;}
	.st261{fill:#282826;}
	.st262{fill:#2D72D7;}
	.st263{fill:#E8E8E8;}
	.st264{opacity:0.7;fill:none;stroke:#6096A5;}
	.st265{opacity:0.9;}
	.st266{fill:none;}
	.st267{fill-rule:evenodd;clip-rule:evenodd;fill:none;}
	.st268{opacity:0.62;fill:url(#SVGID_187_);}
	.st269{opacity:0.62;fill:url(#SVGID_188_);}
	.st270{opacity:0.62;fill:url(#SVGID_189_);}
	.st271{opacity:0.62;fill:url(#SVGID_190_);}
	.st272{opacity:0.62;fill:url(#SVGID_191_);}
	.st273{opacity:0.62;fill:url(#SVGID_192_);}
	.st274{fill:url(#SVGID_193_);}
	.st275{fill:url(#SVGID_194_);}
	.st276{fill:url(#SVGID_195_);}
	.st277{fill:url(#SVGID_196_);}
	.st278{fill:url(#SVGID_197_);}
	.st279{fill:url(#SVGID_198_);}
	.st280{fill:url(#SVGID_199_);}
	.st281{fill:url(#SVGID_200_);}
	.st282{fill:url(#SVGID_201_);}
	.st283{fill:url(#SVGID_202_);}
	.st284{fill:url(#SVGID_203_);}
	.st285{fill:url(#SVGID_204_);}
	.st286{fill:url(#SVGID_205_);}
	.st287{fill:url(#SVGID_206_);}
	.st288{fill:url(#SVGID_207_);}
	.st289{fill:url(#SVGID_208_);}
	.st290{fill:url(#SVGID_209_);}
	.st291{fill:url(#SVGID_210_);}
	.st292{fill:url(#SVGID_211_);}
	.st293{fill:url(#SVGID_212_);}
	.st294{fill:url(#SVGID_213_);}
	.st295{fill:url(#SVGID_214_);}
	.st296{fill:url(#SVGID_215_);}
	.st297{fill:url(#SVGID_216_);}
	.st298{fill:url(#SVGID_217_);}
	.st299{fill:url(#SVGID_218_);}
	.st300{fill:url(#SVGID_219_);}
	.st301{fill:url(#SVGID_220_);}
	.st302{fill:url(#SVGID_221_);}
	.st303{fill:url(#SVGID_222_);}
	.st304{fill:url(#SVGID_223_);}
	.st305{fill:url(#SVGID_224_);}
	.st306{fill:url(#SVGID_225_);}
	.st307{fill:url(#SVGID_226_);}
	.st308{fill:url(#SVGID_227_);}
	.st309{fill:url(#SVGID_228_);}
	.st310{fill:#0078BA;}
	.st311{fill:url(#SVGID_229_);}
	.st312{fill:url(#SVGID_230_);}
	.st313{fill:#B70000;}
	.st314{fill:url(#SVGID_231_);}
	.st315{fill:url(#SVGID_232_);}
	.st316{fill:url(#SVGID_233_);}
	.st317{fill:url(#SVGID_234_);}
	.st318{fill:url(#SVGID_235_);}
	.st319{fill:url(#SVGID_236_);}
	.st320{fill:url(#SVGID_237_);}
	.st321{fill:url(#SVGID_238_);}
	.st322{fill:none;stroke:#3F3F3F;stroke-width:0.5;stroke-miterlimit:10;}
	.st323{clip-path:url(#SVGID_256_);fill:url(#SVGID_257_);}
	.st324{clip-path:url(#SVGID_259_);fill:url(#SVGID_260_);}
	.st325{clip-path:url(#SVGID_262_);fill:url(#SVGID_263_);}
	.st326{clip-path:url(#SVGID_265_);fill:url(#SVGID_266_);}
	.st327{clip-path:url(#SVGID_268_);fill:url(#SVGID_269_);}
	.st328{clip-path:url(#SVGID_271_);fill:url(#SVGID_272_);}
	.st329{clip-path:url(#SVGID_274_);fill:url(#SVGID_275_);}
	.st330{clip-path:url(#SVGID_277_);fill:url(#SVGID_278_);}
	.st331{fill:url(#SVGID_279_);}
	.st332{fill:url(#SVGID_280_);}
	.st333{fill:url(#SVGID_281_);}
	.st334{fill:url(#SVGID_282_);}
	.st335{fill:url(#SVGID_283_);}
	.st336{fill:url(#SVGID_284_);}
	.st337{fill:url(#SVGID_285_);}
	.st338{fill:url(#SVGID_286_);}
	.st339{fill:url(#SVGID_287_);}
	.st340{fill:url(#SVGID_288_);}
	.st341{fill:url(#SVGID_289_);}
	.st342{fill:url(#SVGID_290_);}
	.st343{fill:url(#SVGID_291_);}
	.st344{fill:url(#SVGID_292_);}
	.st345{fill:url(#SVGID_293_);}
	.st346{fill:url(#SVGID_294_);}
	.st347{fill:url(#SVGID_295_);}
	.st348{fill:url(#SVGID_296_);}
	.st349{fill:url(#SVGID_297_);}
	.st350{fill:url(#SVGID_298_);}
	.st351{fill:url(#SVGID_299_);}
	.st352{fill:url(#SVGID_300_);}
	.st353{fill:url(#SVGID_301_);}
	.st354{fill:url(#SVGID_302_);}
	.st355{fill:url(#SVGID_303_);}
	.st356{fill:url(#SVGID_304_);}
	.st357{fill:url(#SVGID_305_);}
	.st358{fill:url(#SVGID_306_);}
	.st359{fill:url(#SVGID_307_);}
	.st360{fill:url(#SVGID_324_);}
	.st361{clip-path:url(#SVGID_328_);fill:url(#SVGID_329_);}
	.st362{clip-path:url(#SVGID_331_);fill:url(#SVGID_332_);}
	.st363{clip-path:url(#SVGID_334_);fill:url(#SVGID_335_);}
	.st364{clip-path:url(#SVGID_337_);fill:url(#SVGID_338_);}
	.st365{clip-path:url(#SVGID_340_);fill:url(#SVGID_341_);}
	.st366{clip-path:url(#SVGID_343_);fill:url(#SVGID_344_);}
	.st367{clip-path:url(#SVGID_346_);fill:url(#SVGID_347_);}
	.st368{clip-path:url(#SVGID_349_);fill:url(#SVGID_350_);}
	.st369{fill:url(#SVGID_351_);}
	.st370{fill:url(#SVGID_352_);}
	.st371{fill:url(#SVGID_353_);}
	.st372{fill:url(#SVGID_354_);}
	.st373{fill:url(#SVGID_355_);}
	.st374{fill:url(#SVGID_356_);}
	.st375{fill:url(#SVGID_357_);}
	.st376{fill:url(#SVGID_358_);}
	.st377{fill:url(#SVGID_359_);}
	.st378{fill:url(#SVGID_360_);}
	.st379{fill:url(#SVGID_361_);}
	.st380{fill:url(#SVGID_362_);}
	.st381{fill:url(#SVGID_363_);}
	.st382{fill:url(#SVGID_364_);}
	.st383{fill:url(#SVGID_365_);}
	.st384{fill:url(#SVGID_366_);}
	.st385{fill:url(#SVGID_367_);}
	.st386{fill:url(#SVGID_368_);}
	.st387{fill:url(#SVGID_369_);}
	.st388{fill:url(#SVGID_370_);}
	.st389{fill:url(#SVGID_371_);}
</style>
<g>
	<g>
		<defs>
			<path id="SVGID_327_" d="M12.98,19.44l-6.82,6.82c-0.49,0.49-0.49,1.28,0,1.76c0.49,0.49,1.27,0.48,1.76,0l7.69-7.69
				c0,0,0-0.01,0-0.02l-0.87-0.87c-0.24-0.24-0.56-0.36-0.88-0.36C13.55,19.07,13.23,19.2,12.98,19.44"/>
		</defs>
		<clipPath id="SVGID_1_">
			<use xlink:href="#SVGID_327_"  style="overflow:visible;"/>
		</clipPath>
		
			<linearGradient id="SVGID_3_" gradientUnits="userSpaceOnUse" x1="-3568.6821" y1="4064.082" x2="-3568.3999" y2="4064.082" gradientTransform="matrix(30.2095 -30.2095 -30.0972 -30.0972 230131.9844 14537.7412)">
			<stop  offset="0" style="stop-color:#0A93EB"/>
			<stop  offset="1" style="stop-color:#00387C"/>
		</linearGradient>
		<polygon style="clip-path:url(#SVGID_1_);fill:url(#SVGID_3_);" points="0.96,23.79 10.65,14.1 20.34,23.79 10.65,33.48 		"/>
	</g>
	<g>
		<defs>
			<path id="SVGID_330_" d="M14.7,17.72l-1.58,1.58c-0.01,0.01,0,0.03,0.01,0.02c0.48-0.33,1.15-0.28,1.58,0.15l11.22,11.22
				c0.46,0.46,1.22,0.54,1.72,0.12c0.57-0.48,0.59-1.32,0.08-1.83L16.48,17.72c-0.25-0.25-0.57-0.37-0.89-0.37
				C15.27,17.35,14.95,17.48,14.7,17.72"/>
		</defs>
		<clipPath id="SVGID_5_">
			<use xlink:href="#SVGID_330_"  style="overflow:visible;"/>
		</clipPath>
		
			<linearGradient id="SVGID_6_" gradientUnits="userSpaceOnUse" x1="-3660.2747" y1="3982.4104" x2="-3659.9927" y2="3982.4104" gradientTransform="matrix(-45.7049 -45.7049 -45.7049 45.7049 14750.499 -349277.125)">
			<stop  offset="0" style="stop-color:#00387C"/>
			<stop  offset="1" style="stop-color:#0A93EB"/>
		</linearGradient>
		<polygon class="st6" points="20.68,38.81 6.17,24.29 20.68,9.78 35.19,24.29 		"/>
	</g>
	<g>
		<defs>
			<path id="SVGID_333_" d="M23.24,3.07l-7.7,7.7c0,0,0,0.01,0,0.02l0.87,0.87c0.49,0.49,1.27,0.48,1.76,0L25,4.83
				c0.49-0.49,0.49-1.28,0-1.76c-0.24-0.24-0.56-0.36-0.88-0.36C23.8,2.71,23.48,2.83,23.24,3.07"/>
		</defs>
		<clipPath id="SVGID_7_">
			<use xlink:href="#SVGID_333_"  style="overflow:visible;"/>
		</clipPath>
		
			<linearGradient id="SVGID_8_" gradientUnits="userSpaceOnUse" x1="-3569.4951" y1="4063.8833" x2="-3569.2131" y2="4063.8833" gradientTransform="matrix(30.1166 -30.1166 -29.9865 -29.9865 229379.2344 14372.0557)">
			<stop  offset="0" style="stop-color:#00387C"/>
			<stop  offset="1" style="stop-color:#0A93EB"/>
		</linearGradient>
		<polygon style="clip-path:url(#SVGID_7_);fill:url(#SVGID_8_);" points="10.82,7.42 20.51,-2.27 30.2,7.42 20.51,17.12 		"/>
	</g>
	<g>
		<defs>
			<path id="SVGID_336_" d="M3.5,0.28C2.94,0.75,2.91,1.6,3.42,2.11l11.26,11.26c0.49,0.49,1.29,0.49,1.78,0l1.58-1.58
				c0.01-0.01,0-0.03-0.01-0.02c-0.48,0.33-1.15,0.28-1.58-0.15L5.23,0.4C4.97,0.14,4.62,0,4.28,0C4,0,3.73,0.09,3.5,0.28"/>
		</defs>
		<clipPath id="SVGID_9_">
			<use xlink:href="#SVGID_336_"  style="overflow:visible;"/>
		</clipPath>
		
			<linearGradient id="SVGID_10_" gradientUnits="userSpaceOnUse" x1="-3679.4888" y1="4115.5435" x2="-3679.2068" y2="4115.5435" gradientTransform="matrix(46.0295 46.0295 46.0295 -46.0295 -20067.6465 358801.5625)">
			<stop  offset="0" style="stop-color:#00387C"/>
			<stop  offset="1" style="stop-color:#0A93EB"/>
		</linearGradient>
		<polygon style="clip-path:url(#SVGID_9_);fill:url(#SVGID_10_);" points="10.48,-7.57 24.98,6.93 10.48,21.43 -4.02,6.93 		"/>
	</g>
	<g>
		<defs>
			<path id="SVGID_339_" d="M3.15,6.04C2.58,6.52,2.56,7.36,3.07,7.88l7.69,7.69c0,0,0.01,0,0.02,0l0.86-0.86
				c0.49-0.49,0.49-1.29,0-1.78L4.87,6.16c-0.26-0.26-0.61-0.4-0.95-0.4C3.65,5.76,3.37,5.85,3.15,6.04"/>
		</defs>
		<clipPath id="SVGID_11_">
			<use xlink:href="#SVGID_339_"  style="overflow:visible;"/>
		</clipPath>
		
			<linearGradient id="SVGID_12_" gradientUnits="userSpaceOnUse" x1="-3684.2847" y1="4150.5171" x2="-3684.0027" y2="4150.5171" gradientTransform="matrix(30.3097 30.3097 30.2077 -30.2077 -13705.2139 237053.4219)">
			<stop  offset="0" style="stop-color:#0A93EB"/>
			<stop  offset="1" style="stop-color:#00387C"/>
		</linearGradient>
		<polygon style="clip-path:url(#SVGID_11_);fill:url(#SVGID_12_);" points="7.34,0.98 17.03,10.67 7.34,20.36 -2.34,10.67 		"/>
	</g>
	<g>
		<defs>
			<path id="SVGID_342_" d="M11.77,13.09c0.33,0.48,0.28,1.15-0.15,1.58L0.4,25.89c-0.46,0.46-0.54,1.22-0.12,1.72
				c0.48,0.57,1.32,0.59,1.83,0.08l11.26-11.26c0.49-0.49,0.49-1.28,0-1.78l-1.58-1.58c0,0-0.01,0-0.01,0
				C11.77,13.07,11.76,13.08,11.77,13.09"/>
		</defs>
		<clipPath id="SVGID_13_">
			<use xlink:href="#SVGID_342_"  style="overflow:visible;"/>
		</clipPath>
		
			<linearGradient id="SVGID_15_" gradientUnits="userSpaceOnUse" x1="-3603.209" y1="4058.8367" x2="-3602.927" y2="4058.8367" gradientTransform="matrix(45.7707 -45.7707 -45.7707 -45.7707 350697.625 20881.7129)">
			<stop  offset="0" style="stop-color:#00387C"/>
			<stop  offset="1" style="stop-color:#0A93EB"/>
		</linearGradient>
		<polygon style="clip-path:url(#SVGID_13_);fill:url(#SVGID_15_);" points="-7.71,20.64 6.86,6.07 21.43,20.64 6.86,35.21 		"/>
	</g>
	<g>
		<defs>
			<path id="SVGID_345_" d="M20.32,15.58l-0.87,0.87c-0.49,0.49-0.48,1.27,0.01,1.76l6.83,6.83c0.49,0.49,1.28,0.49,1.76,0
				c0.49-0.49,0.48-1.27-0.01-1.76l-7.71-7.71C20.33,15.58,20.33,15.58,20.32,15.58C20.33,15.58,20.32,15.58,20.32,15.58"/>
		</defs>
		<clipPath id="SVGID_17_">
			<use xlink:href="#SVGID_345_"  style="overflow:visible;"/>
		</clipPath>
		
			<linearGradient id="SVGID_19_" gradientUnits="userSpaceOnUse" x1="-3685.3613" y1="4149.6221" x2="-3685.0791" y2="4149.6221" gradientTransform="matrix(30.4029 30.4029 30.4029 -30.4029 -14095.335 238222.7656)">
			<stop  offset="0" style="stop-color:#00387C"/>
			<stop  offset="1" style="stop-color:#0A93EB"/>
		</linearGradient>
		<polygon style="clip-path:url(#SVGID_17_);fill:url(#SVGID_19_);" points="23.75,10.79 33.51,20.56 23.75,30.32 13.98,20.56 		"/>
	</g>
	<g>
		<defs>
			<path id="SVGID_348_" d="M28.99,3.46L17.73,14.72c-0.49,0.49-0.49,1.29,0,1.78l1.58,1.58c0.01,0.01,0.03,0,0.02-0.01
				c-0.33-0.48-0.28-1.15,0.15-1.58L30.7,5.26c0.46-0.46,0.54-1.22,0.12-1.72c-0.25-0.3-0.6-0.45-0.95-0.45
				C29.55,3.09,29.23,3.21,28.99,3.46"/>
		</defs>
		<clipPath id="SVGID_21_">
			<use xlink:href="#SVGID_348_"  style="overflow:visible;"/>
		</clipPath>
		
			<linearGradient id="SVGID_23_" gradientUnits="userSpaceOnUse" x1="-3603.9348" y1="4059.0586" x2="-3603.6528" y2="4059.0586" gradientTransform="matrix(45.7344 -45.7344 -45.7344 -45.7344 350480.2188 20831.7754)">
			<stop  offset="0" style="stop-color:#0A93EB"/>
			<stop  offset="1" style="stop-color:#00387C"/>
		</linearGradient>
		<polygon style="clip-path:url(#SVGID_21_);fill:url(#SVGID_23_);" points="9.74,10.59 24.24,-3.91 38.74,10.59 24.24,25.09 		"/>
	</g>
	<linearGradient id="SVGID_25_" gradientUnits="userSpaceOnUse" x1="37.1696" y1="25.5768" x2="40.4838" y2="25.5768">
		<stop  offset="0" style="stop-color:#00387C"/>
		<stop  offset="1" style="stop-color:#0A93EB"/>
	</linearGradient>
	<path style="fill:url(#SVGID_25_);" d="M37.62,28.76c-0.3-0.31-0.45-0.72-0.45-1.24v-3.92c0-0.51,0.15-0.92,0.45-1.22
		c0.3-0.31,0.7-0.46,1.2-0.46c0.5,0,0.91,0.15,1.21,0.46c0.3,0.31,0.45,0.71,0.45,1.22v0.19c0,0.03-0.01,0.06-0.03,0.08
		c-0.02,0.02-0.04,0.03-0.07,0.03l-0.34,0.02c-0.07,0-0.1-0.03-0.1-0.1v-0.26c0-0.35-0.1-0.64-0.31-0.85
		c-0.2-0.21-0.48-0.32-0.82-0.32c-0.33,0-0.6,0.11-0.81,0.32c-0.2,0.21-0.31,0.5-0.31,0.85v3.99c0,0.35,0.1,0.64,0.31,0.86
		c0.2,0.22,0.47,0.33,0.81,0.33c0.33,0,0.6-0.11,0.81-0.33c0.21-0.22,0.31-0.5,0.31-0.86v-0.23c0-0.07,0.03-0.1,0.1-0.1l0.34,0.02
		c0.07,0,0.1,0.03,0.1,0.1v0.17c0,0.52-0.15,0.93-0.45,1.24c-0.3,0.31-0.71,0.46-1.21,0.46C38.33,29.23,37.93,29.07,37.62,28.76"/>
	<linearGradient id="SVGID_27_" gradientUnits="userSpaceOnUse" x1="41.8503" y1="25.5769" x2="45.1543" y2="25.5769">
		<stop  offset="0" style="stop-color:#00387C"/>
		<stop  offset="1" style="stop-color:#0A93EB"/>
	</linearGradient>
	<path style="fill:url(#SVGID_27_);" d="M44.6,29.06l-1.12-3.23c-0.01-0.02-0.02-0.03-0.04-0.03h-1.01c-0.03,0-0.04,0.01-0.04,0.04
		v3.2c0,0.07-0.03,0.1-0.1,0.1h-0.34c-0.07,0-0.1-0.03-0.1-0.1v-6.93c0-0.07,0.03-0.1,0.1-0.1h1.58c0.48,0,0.86,0.18,1.15,0.53
		c0.29,0.35,0.44,0.82,0.44,1.39c0,0.46-0.1,0.84-0.3,1.16c-0.2,0.32-0.47,0.54-0.81,0.65c-0.03,0.01-0.04,0.02-0.03,0.05l1.15,3.24
		l0.01,0.04c0,0.05-0.03,0.07-0.09,0.07h-0.34C44.66,29.15,44.62,29.12,44.6,29.06 M42.39,22.53v2.78c0,0.03,0.01,0.04,0.04,0.04
		h1.04c0.33,0,0.6-0.13,0.81-0.39c0.2-0.26,0.31-0.61,0.31-1.03c0-0.44-0.1-0.78-0.31-1.05c-0.2-0.26-0.47-0.39-0.81-0.39h-1.04
		C42.4,22.49,42.39,22.5,42.39,22.53"/>
	<linearGradient id="SVGID_29_" gradientUnits="userSpaceOnUse" x1="45.8169" y1="25.5769" x2="49.2117" y2="25.5769">
		<stop  offset="0" style="stop-color:#00387C"/>
		<stop  offset="1" style="stop-color:#0A93EB"/>
	</linearGradient>
	<path style="fill:url(#SVGID_29_);" d="M47.24,29.04v-3.16c0-0.03,0-0.04-0.01-0.05l-1.41-3.7l-0.01-0.04
		c0-0.05,0.03-0.08,0.09-0.08h0.36c0.06,0,0.1,0.03,0.12,0.08l1.1,3.12c0.01,0.01,0.02,0.02,0.03,0.02c0.01,0,0.02-0.01,0.03-0.02
		l1.09-3.12c0.02-0.05,0.06-0.08,0.12-0.08h0.36c0.03,0,0.06,0.01,0.08,0.04c0.02,0.02,0.02,0.05,0.01,0.09l-1.41,3.7
		c-0.01,0.01-0.01,0.02-0.01,0.05v3.16c0,0.07-0.03,0.1-0.1,0.1h-0.34C47.28,29.15,47.24,29.11,47.24,29.04"/>
	<linearGradient id="SVGID_31_" gradientUnits="userSpaceOnUse" x1="50.1613" y1="25.5667" x2="53.4452" y2="25.5667">
		<stop  offset="0" style="stop-color:#00387C"/>
		<stop  offset="1" style="stop-color:#0A93EB"/>
	</linearGradient>
	<path style="fill:url(#SVGID_31_);" d="M53.01,22.52c0.29,0.36,0.44,0.82,0.44,1.4c0,0.58-0.14,1.04-0.43,1.39
		c-0.29,0.35-0.67,0.52-1.14,0.52h-1.13c-0.03,0-0.04,0.01-0.04,0.04v3.17c0,0.07-0.03,0.1-0.1,0.1h-0.34c-0.07,0-0.1-0.03-0.1-0.1
		v-6.96c0-0.07,0.03-0.1,0.1-0.1h1.59C52.33,21.99,52.71,22.17,53.01,22.52 M52.6,24.99c0.2-0.26,0.31-0.62,0.31-1.05
		c0-0.44-0.1-0.8-0.31-1.06c-0.2-0.27-0.47-0.4-0.81-0.4h-1.05c-0.03,0-0.04,0.01-0.04,0.04v2.83c0,0.03,0.01,0.04,0.04,0.04h1.05
		C52.13,25.38,52.39,25.25,52.6,24.99"/>
	<linearGradient id="SVGID_33_" gradientUnits="userSpaceOnUse" x1="54.179" y1="25.5769" x2="57.6362" y2="25.5769">
		<stop  offset="0" style="stop-color:#00387C"/>
		<stop  offset="1" style="stop-color:#0A93EB"/>
	</linearGradient>
	<path style="fill:url(#SVGID_33_);" d="M57.64,22.11v0.28c0,0.07-0.03,0.1-0.1,0.1h-1.36c-0.03,0-0.04,0.01-0.04,0.04v6.52
		c0,0.07-0.03,0.1-0.1,0.1H55.7c-0.07,0-0.1-0.03-0.1-0.1v-6.52c0-0.03-0.01-0.04-0.04-0.04h-1.27c-0.07,0-0.1-0.03-0.1-0.1v-0.28
		c0-0.07,0.03-0.1,0.1-0.1h3.25C57.6,22.01,57.64,22.04,57.64,22.11"/>
	<linearGradient id="SVGID_35_" gradientUnits="userSpaceOnUse" x1="58.2684" y1="25.5768" x2="61.6338" y2="25.5768">
		<stop  offset="0" style="stop-color:#00387C"/>
		<stop  offset="1" style="stop-color:#0A93EB"/>
	</linearGradient>
	<path style="fill:url(#SVGID_35_);" d="M58.73,28.75c-0.31-0.32-0.46-0.73-0.46-1.24v-3.86c0-0.52,0.15-0.93,0.46-1.25
		c0.31-0.32,0.71-0.47,1.21-0.47s0.91,0.16,1.22,0.47c0.31,0.32,0.47,0.73,0.47,1.25v3.86c0,0.51-0.16,0.92-0.47,1.24
		c-0.31,0.32-0.72,0.47-1.22,0.47C59.44,29.23,59.04,29.07,58.73,28.75 M60.77,28.41c0.21-0.22,0.32-0.52,0.32-0.88v-3.91
		c0-0.36-0.11-0.65-0.32-0.88c-0.21-0.23-0.49-0.34-0.83-0.34c-0.33,0-0.61,0.11-0.82,0.34c-0.21,0.23-0.32,0.52-0.32,0.88v3.91
		c0,0.36,0.11,0.65,0.32,0.88c0.21,0.22,0.48,0.34,0.82,0.34C60.28,28.75,60.56,28.64,60.77,28.41"/>
	<linearGradient id="SVGID_37_" gradientUnits="userSpaceOnUse" x1="65.0906" y1="25.5769" x2="68.1906" y2="25.5769">
		<stop  offset="0" style="stop-color:#00387C"/>
		<stop  offset="1" style="stop-color:#0A93EB"/>
	</linearGradient>
	<path style="fill:url(#SVGID_37_);" d="M68.09,22.49h-2.42c-0.03,0-0.04,0.01-0.04,0.04v2.76c0,0.03,0.01,0.04,0.04,0.04h1.55
		c0.07,0,0.1,0.03,0.1,0.1v0.28c0,0.07-0.03,0.1-0.1,0.1h-1.55c-0.03,0-0.04,0.01-0.04,0.04v2.77c0,0.03,0.01,0.04,0.04,0.04h2.42
		c0.07,0,0.1,0.03,0.1,0.1v0.28c0,0.07-0.03,0.1-0.1,0.1h-2.9c-0.07,0-0.1-0.03-0.1-0.1v-6.93c0-0.07,0.03-0.1,0.1-0.1h2.9
		c0.07,0,0.1,0.03,0.1,0.1v0.28C68.19,22.45,68.16,22.49,68.09,22.49"/>
	<linearGradient id="SVGID_39_" gradientUnits="userSpaceOnUse" x1="69.047" y1="25.5768" x2="72.5451" y2="25.5768">
		<stop  offset="0" style="stop-color:#00387C"/>
		<stop  offset="1" style="stop-color:#0A93EB"/>
	</linearGradient>
	<path style="fill:url(#SVGID_39_);" d="M69.06,29.11c-0.02-0.02-0.02-0.05-0.01-0.09l1.45-3.42c0.01-0.02,0.01-0.04,0-0.06
		l-1.45-3.42l-0.01-0.04c0-0.05,0.03-0.08,0.09-0.08h0.37c0.05,0,0.09,0.03,0.11,0.08L70.77,25c0.01,0.02,0.02,0.03,0.03,0.03
		c0.01,0,0.02-0.01,0.03-0.03l1.15-2.91c0.02-0.05,0.06-0.08,0.11-0.08h0.36c0.03,0,0.06,0.01,0.08,0.04
		c0.02,0.02,0.02,0.05,0.01,0.09l-1.45,3.43c-0.01,0.02-0.01,0.04,0,0.06l1.45,3.41l0.01,0.04c0,0.05-0.03,0.08-0.09,0.08H72.1
		c-0.05,0-0.09-0.03-0.11-0.08l-1.15-2.9c-0.01-0.02-0.02-0.03-0.03-0.03c-0.01,0-0.02,0.01-0.03,0.03l-1.16,2.9
		c-0.02,0.05-0.06,0.08-0.11,0.08h-0.36C69.1,29.15,69.08,29.13,69.06,29.11"/>
	<linearGradient id="SVGID_41_" gradientUnits="userSpaceOnUse" x1="73.5343" y1="25.5768" x2="76.8485" y2="25.5768">
		<stop  offset="0" style="stop-color:#00387C"/>
		<stop  offset="1" style="stop-color:#0A93EB"/>
	</linearGradient>
	<path style="fill:url(#SVGID_41_);" d="M73.99,28.76c-0.3-0.31-0.45-0.72-0.45-1.24v-3.92c0-0.51,0.15-0.92,0.45-1.22
		c0.3-0.31,0.7-0.46,1.2-0.46c0.5,0,0.91,0.15,1.21,0.46c0.3,0.31,0.45,0.71,0.45,1.22v0.19c0,0.03-0.01,0.06-0.03,0.08
		c-0.02,0.02-0.04,0.03-0.07,0.03l-0.34,0.02c-0.07,0-0.1-0.03-0.1-0.1v-0.26c0-0.35-0.1-0.64-0.31-0.85
		c-0.2-0.21-0.48-0.32-0.82-0.32c-0.33,0-0.6,0.11-0.81,0.32c-0.2,0.21-0.31,0.5-0.31,0.85v3.99c0,0.35,0.1,0.64,0.31,0.86
		c0.2,0.22,0.47,0.33,0.81,0.33c0.33,0,0.6-0.11,0.81-0.33c0.21-0.22,0.31-0.5,0.31-0.86v-0.23c0-0.07,0.03-0.1,0.1-0.1l0.34,0.02
		c0.07,0,0.1,0.03,0.1,0.1v0.17c0,0.52-0.15,0.93-0.45,1.24c-0.3,0.31-0.71,0.46-1.21,0.46C74.69,29.23,74.29,29.07,73.99,28.76"/>
	<linearGradient id="SVGID_43_" gradientUnits="userSpaceOnUse" x1="78.2146" y1="25.5769" x2="81.3964" y2="25.5769">
		<stop  offset="0" style="stop-color:#00387C"/>
		<stop  offset="1" style="stop-color:#0A93EB"/>
	</linearGradient>
	<path style="fill:url(#SVGID_43_);" d="M80.96,22.01h0.34c0.07,0,0.1,0.03,0.1,0.1v6.93c0,0.07-0.03,0.1-0.1,0.1h-0.34
		c-0.07,0-0.1-0.03-0.1-0.1v-3.19c0-0.03-0.01-0.04-0.04-0.04H78.8c-0.03,0-0.04,0.01-0.04,0.04v3.19c0,0.07-0.03,0.1-0.1,0.1h-0.34
		c-0.07,0-0.1-0.03-0.1-0.1v-6.93c0-0.07,0.03-0.1,0.1-0.1h0.34c0.07,0,0.1,0.03,0.1,0.1v3.18c0,0.03,0.01,0.04,0.04,0.04h2.02
		c0.03,0,0.04-0.01,0.04-0.04v-3.18C80.86,22.04,80.89,22.01,80.96,22.01"/>
	<linearGradient id="SVGID_45_" gradientUnits="userSpaceOnUse" x1="82.3214" y1="25.5769" x2="86.0668" y2="25.5769">
		<stop  offset="0" style="stop-color:#00387C"/>
		<stop  offset="1" style="stop-color:#0A93EB"/>
	</linearGradient>
	<path style="fill:url(#SVGID_45_);" d="M85.52,29.05l-0.28-1.34c0-0.01-0.01-0.02-0.02-0.03c-0.01-0.01-0.02-0.01-0.04-0.01h-2
		c-0.01,0-0.03,0-0.04,0.01c-0.01,0.01-0.02,0.02-0.02,0.03l-0.28,1.34c-0.01,0.06-0.04,0.09-0.11,0.09h-0.34
		c-0.03,0-0.06-0.01-0.08-0.03c-0.02-0.02-0.02-0.05-0.02-0.08l1.55-6.93c0.01-0.06,0.05-0.09,0.11-0.09h0.41
		c0.07,0,0.11,0.03,0.11,0.09l1.56,6.93v0.02c0,0.06-0.03,0.09-0.09,0.09h-0.35C85.57,29.15,85.53,29.12,85.52,29.05 M83.28,27.23
		h1.8c0.02,0,0.03-0.01,0.03-0.04l-0.91-4.31c-0.01-0.02-0.01-0.03-0.02-0.03c-0.01,0-0.01,0.01-0.02,0.03l-0.92,4.31
		C83.25,27.22,83.26,27.23,83.28,27.23"/>
	<linearGradient id="SVGID_47_" gradientUnits="userSpaceOnUse" x1="86.995" y1="25.5769" x2="90.3601" y2="25.5769">
		<stop  offset="0" style="stop-color:#00387C"/>
		<stop  offset="1" style="stop-color:#0A93EB"/>
	</linearGradient>
	<path style="fill:url(#SVGID_47_);" d="M89.93,22.01h0.33c0.07,0,0.1,0.03,0.1,0.1v6.93c0,0.07-0.03,0.1-0.1,0.1h-0.4
		c-0.05,0-0.09-0.03-0.11-0.08l-2.17-5.71c-0.01-0.02-0.02-0.03-0.03-0.03c-0.01,0-0.02,0.01-0.02,0.04l0.01,5.68
		c0,0.07-0.03,0.1-0.1,0.1H87.1c-0.07,0-0.1-0.03-0.1-0.1v-6.93c0-0.07,0.03-0.1,0.1-0.1h0.39c0.05,0,0.09,0.03,0.11,0.08l2.18,5.68
		c0.01,0.02,0.02,0.03,0.03,0.03c0.01,0,0.02-0.02,0.02-0.04v-5.65C89.83,22.04,89.86,22.01,89.93,22.01"/>
	<linearGradient id="SVGID_49_" gradientUnits="userSpaceOnUse" x1="91.7876" y1="25.5768" x2="95.102" y2="25.5768">
		<stop  offset="0" style="stop-color:#00387C"/>
		<stop  offset="1" style="stop-color:#0A93EB"/>
	</linearGradient>
	<path style="fill:url(#SVGID_49_);" d="M92.24,28.77c-0.3-0.3-0.45-0.7-0.45-1.2v-4c0-0.5,0.15-0.9,0.45-1.2
		c0.3-0.3,0.7-0.45,1.2-0.45s0.9,0.15,1.2,0.45c0.31,0.3,0.46,0.7,0.46,1.2v0.45c0,0.07-0.03,0.1-0.1,0.1h-0.34
		c-0.07,0-0.1-0.03-0.1-0.1v-0.46c0-0.35-0.1-0.64-0.31-0.85c-0.2-0.21-0.48-0.32-0.82-0.32c-0.34,0-0.61,0.11-0.82,0.32
		c-0.2,0.21-0.31,0.49-0.31,0.85v4.02c0,0.35,0.1,0.64,0.31,0.85c0.2,0.21,0.48,0.32,0.82,0.32c0.34,0,0.61-0.11,0.82-0.32
		c0.2-0.21,0.31-0.49,0.31-0.85v-1.44c0-0.03-0.01-0.04-0.04-0.04h-0.96c-0.07,0-0.1-0.03-0.1-0.1v-0.28c0-0.07,0.03-0.1,0.1-0.1H95
		c0.07,0,0.1,0.03,0.1,0.1v1.85c0,0.5-0.15,0.9-0.46,1.2c-0.31,0.3-0.71,0.45-1.2,0.45S92.54,29.08,92.24,28.77"/>
	<linearGradient id="SVGID_51_" gradientUnits="userSpaceOnUse" x1="96.5294" y1="25.5769" x2="99.6297" y2="25.5769">
		<stop  offset="0" style="stop-color:#00387C"/>
		<stop  offset="1" style="stop-color:#0A93EB"/>
	</linearGradient>
	<path style="fill:url(#SVGID_51_);" d="M99.53,22.49h-2.42c-0.03,0-0.04,0.01-0.04,0.04v2.76c0,0.03,0.01,0.04,0.04,0.04h1.55
		c0.07,0,0.1,0.03,0.1,0.1v0.28c0,0.07-0.03,0.1-0.1,0.1h-1.55c-0.03,0-0.04,0.01-0.04,0.04v2.77c0,0.03,0.01,0.04,0.04,0.04h2.42
		c0.07,0,0.1,0.03,0.1,0.1v0.28c0,0.07-0.03,0.1-0.1,0.1h-2.9c-0.07,0-0.1-0.03-0.1-0.1v-6.93c0-0.07,0.03-0.1,0.1-0.1h2.9
		c0.07,0,0.1,0.03,0.1,0.1v0.28C99.63,22.45,99.6,22.49,99.53,22.49"/>
	<linearGradient id="SVGID_53_" gradientUnits="userSpaceOnUse" x1="37.1555" y1="11.9453" x2="38.0897" y2="11.9453">
		<stop  offset="0" style="stop-color:#00387C"/>
		<stop  offset="1" style="stop-color:#0A93EB"/>
	</linearGradient>
	<path style="fill:url(#SVGID_53_);" d="M37.16,20.09V3.8c0-0.16,0.08-0.24,0.24-0.24h0.45c0.16,0,0.24,0.08,0.24,0.24v16.29
		c0,0.16-0.08,0.24-0.24,0.24H37.4C37.24,20.33,37.16,20.25,37.16,20.09"/>
	<linearGradient id="SVGID_55_" gradientUnits="userSpaceOnUse" x1="41.7305" y1="11.9451" x2="49.2516" y2="11.9451">
		<stop  offset="0" style="stop-color:#00387C"/>
		<stop  offset="1" style="stop-color:#0A93EB"/>
	</linearGradient>
	<path style="fill:url(#SVGID_55_);" d="M42.76,19.45c-0.69-0.71-1.03-1.65-1.03-2.81V7.23c0-1.17,0.34-2.1,1.03-2.8
		c0.69-0.7,1.59-1.05,2.71-1.05c1.13,0,2.05,0.35,2.74,1.05c0.69,0.7,1.04,1.64,1.04,2.8v0.48c0,0.16-0.08,0.24-0.24,0.24
		l-0.48,0.02c-0.16,0-0.24-0.08-0.24-0.24V7.18c0-0.89-0.26-1.61-0.78-2.16c-0.52-0.54-1.2-0.81-2.05-0.81
		c-0.85,0-1.53,0.27-2.04,0.81c-0.51,0.54-0.77,1.26-0.77,2.16v9.53c0,0.89,0.26,1.61,0.78,2.16c0.52,0.54,1.19,0.81,2.02,0.81
		c0.85,0,1.53-0.27,2.05-0.81c0.52-0.54,0.78-1.26,0.78-2.16v-0.53c0-0.16,0.08-0.24,0.24-0.24l0.48,0.02
		c0.16,0,0.24,0.08,0.24,0.24v0.43c0,1.17-0.35,2.1-1.04,2.81c-0.69,0.71-1.61,1.07-2.74,1.07C44.35,20.52,43.45,20.17,42.76,19.45"
		/>
	<linearGradient id="SVGID_57_" gradientUnits="userSpaceOnUse" x1="52.7005" y1="11.9452" x2="60.1499" y2="11.9452">
		<stop  offset="0" style="stop-color:#00387C"/>
		<stop  offset="1" style="stop-color:#0A93EB"/>
	</linearGradient>
	<path style="fill:url(#SVGID_57_);" d="M59.22,20.14l-2.78-7.76c-0.02-0.05-0.05-0.07-0.1-0.07h-2.61c-0.06,0-0.1,0.03-0.1,0.1
		v7.69c0,0.16-0.08,0.24-0.24,0.24h-0.45c-0.16,0-0.24-0.08-0.24-0.24V3.8c0-0.16,0.08-0.24,0.24-0.24h3.54
		c1.09,0,1.96,0.41,2.62,1.22c0.66,0.81,0.99,1.88,0.99,3.19c0,1.1-0.24,2.03-0.73,2.78c-0.49,0.75-1.15,1.23-1.98,1.44
		c-0.06,0.03-0.09,0.07-0.07,0.12l2.8,7.76l0.02,0.1c0,0.11-0.07,0.17-0.22,0.17H59.5C59.36,20.33,59.26,20.26,59.22,20.14
		 M53.63,4.5v6.92c0,0.06,0.03,0.1,0.1,0.1h2.66c0.83,0,1.5-0.32,2.01-0.97c0.51-0.65,0.77-1.5,0.77-2.55
		c0-1.09-0.26-1.96-0.77-2.61c-0.51-0.65-1.18-0.98-2.01-0.98h-2.66C53.67,4.4,53.63,4.43,53.63,4.5"/>
	<linearGradient id="SVGID_59_" gradientUnits="userSpaceOnUse" x1="61.97" y1="11.9453" x2="69.5606" y2="11.9453">
		<stop  offset="0" style="stop-color:#00387C"/>
		<stop  offset="1" style="stop-color:#0A93EB"/>
	</linearGradient>
	<path style="fill:url(#SVGID_59_);" d="M65.3,20.09V12.5c0-0.06-0.01-0.1-0.02-0.12l-3.28-8.53l-0.02-0.1
		c0-0.13,0.07-0.19,0.22-0.19h0.48c0.14,0,0.24,0.06,0.29,0.19l2.75,7.55c0.02,0.03,0.04,0.05,0.07,0.05c0.03,0,0.06-0.02,0.07-0.05
		l2.73-7.55c0.05-0.13,0.14-0.19,0.29-0.19h0.48c0.08,0,0.14,0.03,0.18,0.08c0.04,0.06,0.04,0.12,0.01,0.2l-3.28,8.53
		c-0.02,0.02-0.02,0.06-0.02,0.12v7.59c0,0.16-0.08,0.24-0.24,0.24h-0.45C65.38,20.33,65.3,20.25,65.3,20.09"/>
	<linearGradient id="SVGID_61_" gradientUnits="userSpaceOnUse" x1="71.9825" y1="11.9213" x2="79.3837" y2="11.9213">
		<stop  offset="0" style="stop-color:#00387C"/>
		<stop  offset="1" style="stop-color:#0A93EB"/>
	</linearGradient>
	<path style="fill:url(#SVGID_61_);" d="M78.39,4.75c0.66,0.82,0.99,1.9,0.99,3.25c0,1.31-0.33,2.37-0.98,3.17
		c-0.65,0.81-1.53,1.21-2.61,1.21h-2.78c-0.06,0-0.1,0.03-0.1,0.1v7.62c0,0.16-0.08,0.24-0.24,0.24h-0.46
		c-0.16,0-0.24-0.08-0.24-0.24V3.75c0-0.16,0.08-0.24,0.24-0.24h3.54C76.85,3.51,77.73,3.93,78.39,4.75 M77.7,10.58
		c0.5-0.65,0.75-1.52,0.75-2.59c0-1.1-0.25-1.98-0.75-2.63c-0.5-0.65-1.18-0.98-2.02-0.98h-2.66c-0.06,0-0.1,0.03-0.1,0.1v6.99
		c0,0.06,0.03,0.1,0.1,0.1h2.66C76.52,11.56,77.19,11.23,77.7,10.58"/>
	<linearGradient id="SVGID_63_" gradientUnits="userSpaceOnUse" x1="82.3779" y1="11.9452" x2="89.42" y2="11.9452">
		<stop  offset="0" style="stop-color:#00387C"/>
		<stop  offset="1" style="stop-color:#0A93EB"/>
	</linearGradient>
	<path style="fill:url(#SVGID_63_);" d="M89.18,4.4h-5.77c-0.06,0-0.1,0.03-0.1,0.1v6.92c0,0.06,0.03,0.1,0.1,0.1h3.78
		c0.16,0,0.24,0.08,0.24,0.24v0.36c0,0.16-0.08,0.24-0.24,0.24h-3.78c-0.06,0-0.1,0.03-0.1,0.1v6.95c0,0.06,0.03,0.1,0.1,0.1h5.77
		c0.16,0,0.24,0.08,0.24,0.24v0.36c0,0.16-0.08,0.24-0.24,0.24h-6.56c-0.16,0-0.24-0.08-0.24-0.24V3.8c0-0.16,0.08-0.24,0.24-0.24
		h6.56c0.16,0,0.24,0.08,0.24,0.24v0.36C89.42,4.32,89.34,4.4,89.18,4.4"/>
	<linearGradient id="SVGID_65_" gradientUnits="userSpaceOnUse" x1="91.623" y1="11.9452" x2="99.5037" y2="11.9452">
		<stop  offset="0" style="stop-color:#00387C"/>
		<stop  offset="1" style="stop-color:#0A93EB"/>
	</linearGradient>
	<path style="fill:url(#SVGID_65_);" d="M91.66,20.24c-0.04-0.06-0.04-0.12-0.01-0.2l3.4-8.02c0.03-0.05,0.03-0.1,0-0.14l-3.4-8.02
		l-0.02-0.1c0-0.13,0.07-0.19,0.22-0.19h0.5c0.13,0,0.22,0.06,0.26,0.19l2.9,7.16c0.02,0.03,0.04,0.05,0.07,0.06
		c0.03,0.01,0.06-0.01,0.07-0.06l2.87-7.16c0.05-0.13,0.14-0.19,0.26-0.19h0.5c0.08,0,0.14,0.03,0.18,0.08
		c0.04,0.06,0.04,0.12,0.01,0.2l-3.43,8.05c-0.02,0.05-0.02,0.1,0,0.14l3.43,8l0.02,0.1c0,0.13-0.07,0.19-0.22,0.19h-0.5
		c-0.13,0-0.22-0.06-0.26-0.19L95.65,13c-0.02-0.03-0.04-0.05-0.07-0.05c-0.03,0-0.06,0.02-0.07,0.05l-2.9,7.14
		c-0.05,0.13-0.14,0.19-0.26,0.19h-0.5C91.76,20.33,91.7,20.3,91.66,20.24"/>
</g>
</svg>
