<?xml version="1.0" encoding="utf-8"?>
<!-- Generator: Adobe Illustrator 24.0.3, SVG Export Plug-In . SVG Version: 6.00 Build 0)  -->
<svg version="1.0" id="Layer_1" xmlns="http://www.w3.org/2000/svg" xmlns:xlink="http://www.w3.org/1999/xlink" x="0px" y="0px"
	 viewBox="0 0 102.72 41.81" style="enable-background:new 0 0 102.72 41.81;" xml:space="preserve">
<style type="text/css">
	.st0{fill:url(#SVGID_1_);}
	.st1{fill:#17516B;}
	.st2{fill:#3A7289;}
	.st3{opacity:0.8;fill:#2C6477;}
	.st4{clip-path:url(#SVGID_5_);fill:#FFFFFF;}
	.st5{clip-path:url(#SVGID_5_);fill:#BD0034;}
	.st6{clip-path:url(#SVGID_5_);fill:url(#SVGID_6_);}
	.st7{clip-path:url(#SVGID_5_);fill:url(#SVGID_7_);}
	.st8{clip-path:url(#SVGID_5_);fill:url(#SVGID_8_);}
	.st9{clip-path:url(#SVGID_5_);fill:url(#SVGID_9_);}
	.st10{clip-path:url(#SVGID_5_);fill:url(#SVGID_10_);}
	.st11{clip-path:url(#SVGID_5_);fill:url(#SVGID_11_);}
	.st12{clip-path:url(#SVGID_5_);fill:url(#SVGID_12_);}
	.st13{clip-path:url(#SVGID_5_);fill:url(#SVGID_13_);}
	.st14{fill:#F2F5F7;}
	.st15{fill:#A92807;}
	.st16{fill:#1E1D22;}
	.st17{clip-path:url(#SVGID_15_);}
	.st18{fill:#FFFFFF;}
	.st19{fill:none;stroke:#F2F5F7;}
	.st20{clip-path:url(#SVGID_19_);fill:#8EA1B2;}
	.st21{clip-path:url(#SVGID_19_);fill:#A92807;}
	.st22{clip-path:url(#SVGID_19_);fill:#384657;}
	.st23{clip-path:url(#SVGID_21_);}
	.st24{fill:#8EA1B2;}
	.st25{fill:#384657;}
	.st26{clip-path:url(#SVGID_25_);fill:#384657;}
	.st27{clip-path:url(#SVGID_25_);fill:#8EA1B2;}
	.st28{clip-path:url(#SVGID_25_);fill:#A92807;}
	.st29{clip-path:url(#SVGID_27_);}
	.st30{fill:#E1E4E5;}
	.st31{clip-path:url(#SVGID_31_);fill:#384657;}
	.st32{clip-path:url(#SVGID_31_);fill:#8EA1B2;}
	.st33{clip-path:url(#SVGID_31_);fill:#A92807;}
	.st34{clip-path:url(#SVGID_33_);}
	.st35{clip-path:url(#SVGID_37_);fill:#384657;}
	.st36{clip-path:url(#SVGID_37_);fill:#8EA1B2;}
	.st37{clip-path:url(#SVGID_37_);fill:#A92807;}
	.st38{clip-path:url(#SVGID_39_);}
	.st39{fill:#2A323C;}
	.st40{fill:#1F2529;}
	.st41{fill:#96A1AB;}
	.st42{clip-path:url(#SVGID_43_);fill:#D00027;}
	.st43{clip-path:url(#SVGID_43_);}
	.st44{clip-path:url(#SVGID_45_);fill:#FFFFFF;}
	.st45{clip-path:url(#SVGID_45_);fill:#D00027;}
	.st46{clip-path:url(#SVGID_47_);}
	.st47{clip-path:url(#SVGID_51_);}
	.st48{clip-path:url(#SVGID_55_);}
	.st49{opacity:0.4;clip-path:url(#SVGID_59_);}
	.st50{clip-path:url(#SVGID_61_);fill:#FFFFFF;}
	.st51{clip-path:url(#SVGID_59_);fill:#A92807;}
	.st52{clip-path:url(#SVGID_63_);fill:#FFFFFF;}
	.st53{opacity:0.5;}
	.st54{clip-path:url(#SVGID_65_);}
	.st55{filter:url(#Adobe_OpacityMaskFilter);}
	.st56{clip-path:url(#SVGID_67_);}
	.st57{enable-background:new    ;}
	.st58{opacity:0.1412;clip-path:url(#SVGID_67_);mask:url(#SVGID_68_);}
	.st59{clip-path:url(#SVGID_72_);}
	.st60{fill:none;stroke:#FFFFFF;stroke-width:3;stroke-linecap:round;stroke-linejoin:round;stroke-miterlimit:10;}
	.st61{opacity:0.502;}
	.st62{opacity:0.7;}
	.st63{clip-path:url(#SVGID_74_);fill:#D00027;}
	.st64{clip-path:url(#SVGID_74_);}
	.st65{clip-path:url(#SVGID_76_);fill:#FFFFFF;}
	.st66{clip-path:url(#SVGID_76_);fill:#D00027;}
	.st67{clip-path:url(#SVGID_78_);}
	.st68{clip-path:url(#SVGID_82_);}
	.st69{clip-path:url(#SVGID_86_);}
	.st70{clip-path:url(#SVGID_92_);}
	.st71{filter:url(#Adobe_OpacityMaskFilter_1_);}
	.st72{clip-path:url(#SVGID_94_);}
	.st73{opacity:0.1412;clip-path:url(#SVGID_94_);mask:url(#SVGID_95_);}
	.st74{clip-path:url(#SVGID_99_);}
	.st75{clip-path:url(#SVGID_101_);fill:#D00027;}
	.st76{clip-path:url(#SVGID_101_);}
	.st77{clip-path:url(#SVGID_103_);fill:#FFFFFF;}
	.st78{clip-path:url(#SVGID_103_);fill:#D00027;}
	.st79{clip-path:url(#SVGID_105_);}
	.st80{clip-path:url(#SVGID_109_);}
	.st81{clip-path:url(#SVGID_113_);}
	.st82{opacity:0.4;clip-path:url(#SVGID_117_);}
	.st83{clip-path:url(#SVGID_119_);fill:#FFFFFF;}
	.st84{clip-path:url(#SVGID_117_);fill:#A92807;}
	.st85{clip-path:url(#SVGID_121_);fill:#FFFFFF;}
	.st86{clip-path:url(#SVGID_123_);}
	.st87{fill:none;stroke:#FFFFFF;stroke-width:0.5;stroke-miterlimit:10;}
	.st88{opacity:0;fill:#3C464F;}
	.st89{opacity:3.960396e-03;fill:#3C464F;}
	.st90{opacity:7.920792e-03;fill:#3C464F;}
	.st91{opacity:0.0119;fill:#3C464F;}
	.st92{opacity:0.0158;fill:#3C464F;}
	.st93{opacity:0.0198;fill:#3C464F;}
	.st94{opacity:0.0238;fill:#3C464F;}
	.st95{opacity:0.0277;fill:#3C464F;}
	.st96{opacity:0.0317;fill:#3C464F;}
	.st97{opacity:0.0356;fill:#3C464F;}
	.st98{opacity:0.0396;fill:#3C464F;}
	.st99{opacity:0.0436;fill:#3C464F;}
	.st100{opacity:0.0475;fill:#3C464F;}
	.st101{opacity:0.0515;fill:#3C464F;}
	.st102{opacity:0.0554;fill:#3C464F;}
	.st103{opacity:0.0594;fill:#3C464F;}
	.st104{opacity:0.0634;fill:#3C464F;}
	.st105{opacity:0.0673;fill:#3C464F;}
	.st106{opacity:0.0713;fill:#3C464F;}
	.st107{opacity:0.0752;fill:#3C464F;}
	.st108{opacity:0.0792;fill:#3C464F;}
	.st109{opacity:0.0832;fill:#3C464F;}
	.st110{opacity:0.0871;fill:#3C464F;}
	.st111{opacity:0.0911;fill:#3C464F;}
	.st112{opacity:0.095;fill:#3C464F;}
	.st113{opacity:0.099;fill:#3C464F;}
	.st114{opacity:0.103;fill:#3C464F;}
	.st115{opacity:0.1069;fill:#3C464F;}
	.st116{opacity:0.1109;fill:#3C464F;}
	.st117{opacity:0.1149;fill:#3C464F;}
	.st118{opacity:0.1188;fill:#3C464F;}
	.st119{opacity:0.1228;fill:#3C464F;}
	.st120{opacity:0.1267;fill:#3C464F;}
	.st121{opacity:0.1307;fill:#3C464F;}
	.st122{opacity:0.1347;fill:#3C464F;}
	.st123{opacity:0.1386;fill:#3C464F;}
	.st124{opacity:0.1426;fill:#3C464F;}
	.st125{opacity:0.1465;fill:#3C464F;}
	.st126{opacity:0.1505;fill:#3C464F;}
	.st127{opacity:0.1545;fill:#3C464F;}
	.st128{opacity:0.1584;fill:#3C464F;}
	.st129{opacity:0.1624;fill:#3C464F;}
	.st130{opacity:0.1663;fill:#3C464F;}
	.st131{opacity:0.1703;fill:#3C464F;}
	.st132{opacity:0.1743;fill:#3C464F;}
	.st133{opacity:0.1782;fill:#3C464F;}
	.st134{opacity:0.1822;fill:#3C464F;}
	.st135{opacity:0.1861;fill:#3C464F;}
	.st136{opacity:0.1901;fill:#3C464F;}
	.st137{opacity:0.1941;fill:#3C464F;}
	.st138{opacity:0.198;fill:#3C464F;}
	.st139{opacity:0.202;fill:#3C464F;}
	.st140{opacity:0.2059;fill:#3C464F;}
	.st141{opacity:0.2099;fill:#3C464F;}
	.st142{opacity:0.2139;fill:#3C464F;}
	.st143{opacity:0.2178;fill:#3C464F;}
	.st144{opacity:0.2218;fill:#3C464F;}
	.st145{opacity:0.2257;fill:#3C464F;}
	.st146{opacity:0.2297;fill:#3C464F;}
	.st147{opacity:0.2337;fill:#3C464F;}
	.st148{opacity:0.2376;fill:#3C464F;}
	.st149{opacity:0.2416;fill:#3C464F;}
	.st150{opacity:0.2455;fill:#3C464F;}
	.st151{opacity:0.2495;fill:#3C464F;}
	.st152{opacity:0.2535;fill:#3C464F;}
	.st153{opacity:0.2574;fill:#3C464F;}
	.st154{opacity:0.2614;fill:#3C464F;}
	.st155{opacity:0.2653;fill:#3C464F;}
	.st156{opacity:0.2693;fill:#3C464F;}
	.st157{opacity:0.2733;fill:#3C464F;}
	.st158{opacity:0.2772;fill:#3C464F;}
	.st159{opacity:0.2812;fill:#3C464F;}
	.st160{opacity:0.2851;fill:#3C464F;}
	.st161{opacity:0.2891;fill:#3C464F;}
	.st162{opacity:0.2931;fill:#3C464F;}
	.st163{opacity:0.297;fill:#3C464F;}
	.st164{opacity:0.301;fill:#3C464F;}
	.st165{opacity:0.305;fill:#3C464F;}
	.st166{opacity:0.3089;fill:#3C464F;}
	.st167{opacity:0.3129;fill:#3C464F;}
	.st168{opacity:0.3168;fill:#3C464F;}
	.st169{opacity:0.3208;fill:#3C464F;}
	.st170{opacity:0.3248;fill:#3C464F;}
	.st171{opacity:0.3287;fill:#3C464F;}
	.st172{opacity:0.3327;fill:#3C464F;}
	.st173{opacity:0.3366;fill:#3C464F;}
	.st174{opacity:0.3406;fill:#3C464F;}
	.st175{opacity:0.3446;fill:#3C464F;}
	.st176{opacity:0.3485;fill:#3C464F;}
	.st177{opacity:0.3525;fill:#3C464F;}
	.st178{opacity:0.3564;fill:#3C464F;}
	.st179{opacity:0.3604;fill:#3C464F;}
	.st180{opacity:0.3644;fill:#3C464F;}
	.st181{opacity:0.3683;fill:#3C464F;}
	.st182{opacity:0.3723;fill:#3C464F;}
	.st183{opacity:0.3762;fill:#3C464F;}
	.st184{opacity:0.3802;fill:#3C464F;}
	.st185{opacity:0.3842;fill:#3C464F;}
	.st186{opacity:0.3881;fill:#3C464F;}
	.st187{opacity:0.3921;fill:#3C464F;}
	.st188{opacity:0.396;fill:#3C464F;}
	.st189{opacity:0.4;fill:#3C464F;}
	.st190{fill:none;stroke:#7EA1B1;stroke-width:3;stroke-linecap:round;stroke-linejoin:round;}
	.st191{fill:none;stroke:#7EA1B1;stroke-width:3;stroke-linecap:round;stroke-linejoin:round;stroke-dasharray:6.859,6.859;}
	.st192{fill:none;stroke:#7EA1B1;stroke-width:3;stroke-linecap:round;stroke-linejoin:round;stroke-dasharray:7.5157,7.5157;}
	.st193{fill:none;stroke:#7EA1B1;stroke-width:3;stroke-linecap:round;stroke-linejoin:round;stroke-dasharray:8.4421,8.4421;}
	.st194{fill:none;stroke:#7EA1B1;stroke-width:3;stroke-linecap:round;stroke-linejoin:round;stroke-dasharray:8.7883,8.7883;}
	.st195{fill:none;stroke:#7EA1B1;stroke-width:3;stroke-linecap:round;stroke-linejoin:round;stroke-dasharray:8.9317,8.9317;}
	.st196{fill:none;stroke:#7EA1B1;stroke-width:3;stroke-linecap:round;stroke-linejoin:round;stroke-dasharray:7.9659,7.9659;}
	.st197{fill:none;stroke:#7EA1B1;stroke-width:3;stroke-linecap:round;stroke-linejoin:round;stroke-dasharray:8.532,8.532;}
	.st198{fill:#C5C5C5;}
	.st199{fill:none;stroke:#7EA1B1;stroke-width:3;stroke-linecap:round;stroke-linejoin:round;stroke-dasharray:5.9487,5.9487;}
	.st200{fill:none;stroke:#7EA1B1;stroke-width:3;stroke-linecap:round;stroke-linejoin:round;stroke-dasharray:8.8035,8.8035;}
	.st201{fill:none;stroke:#7EA1B1;stroke-width:3;stroke-linecap:round;stroke-linejoin:round;stroke-dasharray:8.4073,8.4073;}
	.st202{fill:none;stroke:#7EA1B1;stroke-width:3;stroke-linecap:round;stroke-linejoin:round;stroke-dasharray:6.2046,6.2046;}
	.st203{fill:none;stroke:#7EA1B1;stroke-width:3;stroke-linecap:round;stroke-linejoin:round;stroke-dasharray:7.9457,7.9457;}
	.st204{fill:none;stroke:#7EA1B1;stroke-width:3;stroke-linecap:round;stroke-linejoin:round;stroke-dasharray:8.4145,8.4145;}
	.st205{fill:none;stroke:#7EA1B1;stroke-width:3;stroke-linecap:round;stroke-linejoin:round;stroke-dasharray:7.2825,7.2825;}
	.st206{fill:none;stroke:#7EA1B1;stroke-width:3;stroke-linecap:round;stroke-linejoin:round;stroke-dasharray:7.4081,7.4081;}
	.st207{fill:none;stroke:#7EA1B1;stroke-width:3;stroke-linecap:round;stroke-linejoin:round;stroke-dasharray:8.0493,8.0493;}
	.st208{fill:none;stroke:#7EA1B1;stroke-width:3;stroke-linecap:round;stroke-linejoin:round;stroke-dasharray:8.1454,8.1454;}
	.st209{fill:none;stroke:#7EA1B1;stroke-width:3;stroke-linecap:round;stroke-linejoin:round;stroke-dasharray:8.0164,8.0164;}
	.st210{fill:#7EA1B1;}
	.st211{fill:none;stroke:#7EA1B1;stroke-width:3;stroke-linecap:round;stroke-linejoin:round;stroke-miterlimit:10;}
	.st212{fill:#2F2F2F;}
	.st213{fill:#00B5B5;}
	.st214{fill:url(#SVGID_124_);}
	.st215{fill:#12407D;}
	.st216{fill:#0D78C4;}
	.st217{fill-rule:evenodd;clip-rule:evenodd;fill:#0F53FF;}
	.st218{filter:url(#Adobe_OpacityMaskFilter_2_);}
	.st219{clip-path:url(#SVGID_128_);}
	.st220{clip-path:url(#SVGID_131_);}
	.st221{clip-path:url(#SVGID_133_);}
	.st222{clip-path:url(#SVGID_128_);mask:url(#SVGID_129_);enable-background:new    ;}
	.st223{clip-path:url(#SVGID_135_);fill-rule:evenodd;clip-rule:evenodd;fill:#0F53FF;}
	.st224{filter:url(#Adobe_OpacityMaskFilter_3_);}
	.st225{clip-path:url(#SVGID_138_);}
	.st226{clip-path:url(#SVGID_138_);fill-rule:evenodd;clip-rule:evenodd;fill:#FFFFFF;}
	.st227{clip-path:url(#SVGID_128_);mask:url(#SVGID_136_);enable-background:new    ;}
	.st228{clip-path:url(#SVGID_140_);fill-rule:evenodd;clip-rule:evenodd;fill:#0F53FF;}
	.st229{clip-path:url(#SVGID_142_);fill:url(#SVGID_143_);}
	.st230{clip-path:url(#SVGID_145_);fill:url(#SVGID_146_);}
	.st231{clip-path:url(#SVGID_148_);fill:url(#SVGID_149_);}
	.st232{clip-path:url(#SVGID_151_);fill:url(#SVGID_152_);}
	.st233{clip-path:url(#SVGID_154_);fill:url(#SVGID_155_);}
	.st234{clip-path:url(#SVGID_157_);fill:url(#SVGID_158_);}
	.st235{clip-path:url(#SVGID_160_);fill:url(#SVGID_161_);}
	.st236{clip-path:url(#SVGID_163_);fill:url(#SVGID_164_);}
	.st237{fill:url(#SVGID_165_);}
	.st238{fill:url(#SVGID_166_);}
	.st239{fill:url(#SVGID_167_);}
	.st240{fill:url(#SVGID_168_);}
	.st241{fill:url(#SVGID_169_);}
	.st242{fill:url(#SVGID_170_);}
	.st243{fill:url(#SVGID_171_);}
	.st244{fill:url(#SVGID_172_);}
	.st245{fill:url(#SVGID_173_);}
	.st246{fill:url(#SVGID_174_);}
	.st247{fill:url(#SVGID_175_);}
	.st248{fill:url(#SVGID_176_);}
	.st249{fill:url(#SVGID_177_);}
	.st250{fill:url(#SVGID_178_);}
	.st251{fill:url(#SVGID_179_);}
	.st252{fill:url(#SVGID_180_);}
	.st253{fill:url(#SVGID_181_);}
	.st254{fill:url(#SVGID_182_);}
	.st255{fill:url(#SVGID_183_);}
	.st256{fill:url(#SVGID_184_);}
	.st257{fill:url(#SVGID_185_);}
	.st258{fill:#A89968;}
	.st259{fill:url(#SVGID_186_);}
	.st260{fill:#C4001C;}
	.st261{fill:#282826;}
	.st262{fill:#2D72D7;}
	.st263{fill:#E8E8E8;}
	.st264{opacity:0.7;fill:none;stroke:#6096A5;}
	.st265{opacity:0.9;}
	.st266{fill:none;}
	.st267{fill-rule:evenodd;clip-rule:evenodd;fill:none;}
	.st268{opacity:0.62;fill:url(#SVGID_187_);}
	.st269{opacity:0.62;fill:url(#SVGID_188_);}
	.st270{opacity:0.62;fill:url(#SVGID_189_);}
	.st271{opacity:0.62;fill:url(#SVGID_190_);}
	.st272{opacity:0.62;fill:url(#SVGID_191_);}
	.st273{opacity:0.62;fill:url(#SVGID_192_);}
	.st274{fill:url(#SVGID_193_);}
	.st275{fill:url(#SVGID_194_);}
	.st276{fill:url(#SVGID_195_);}
	.st277{fill:url(#SVGID_196_);}
	.st278{fill:url(#SVGID_197_);}
	.st279{fill:url(#SVGID_198_);}
	.st280{fill:url(#SVGID_199_);}
	.st281{fill:url(#SVGID_200_);}
	.st282{fill:url(#SVGID_201_);}
	.st283{fill:url(#SVGID_202_);}
	.st284{fill:url(#SVGID_203_);}
	.st285{fill:url(#SVGID_204_);}
	.st286{fill:url(#SVGID_205_);}
	.st287{fill:url(#SVGID_206_);}
	.st288{fill:url(#SVGID_207_);}
	.st289{fill:url(#SVGID_208_);}
	.st290{fill:url(#SVGID_209_);}
	.st291{fill:url(#SVGID_210_);}
	.st292{fill:url(#SVGID_211_);}
	.st293{fill:url(#SVGID_212_);}
	.st294{fill:url(#SVGID_213_);}
	.st295{fill:url(#SVGID_214_);}
	.st296{fill:url(#SVGID_215_);}
	.st297{fill:url(#SVGID_216_);}
	.st298{fill:url(#SVGID_217_);}
	.st299{fill:url(#SVGID_218_);}
	.st300{fill:url(#SVGID_219_);}
	.st301{fill:url(#SVGID_220_);}
	.st302{fill:url(#SVGID_221_);}
	.st303{fill:url(#SVGID_222_);}
	.st304{fill:url(#SVGID_223_);}
	.st305{fill:url(#SVGID_224_);}
	.st306{fill:url(#SVGID_225_);}
	.st307{fill:url(#SVGID_226_);}
	.st308{fill:url(#SVGID_227_);}
	.st309{fill:url(#SVGID_228_);}
	.st310{fill:#0078BA;}
	.st311{fill:url(#SVGID_229_);}
	.st312{fill:url(#SVGID_230_);}
	.st313{fill:#B70000;}
	.st314{fill:url(#SVGID_231_);}
	.st315{fill:url(#SVGID_232_);}
	.st316{fill:url(#SVGID_233_);}
	.st317{fill:url(#SVGID_234_);}
	.st318{fill:url(#SVGID_235_);}
	.st319{fill:url(#SVGID_236_);}
	.st320{fill:url(#SVGID_237_);}
	.st321{fill:url(#SVGID_238_);}
	.st322{fill:none;stroke:#3F3F3F;stroke-width:0.5;stroke-miterlimit:10;}
	.st323{clip-path:url(#SVGID_256_);fill:url(#SVGID_257_);}
	.st324{clip-path:url(#SVGID_259_);fill:url(#SVGID_260_);}
	.st325{clip-path:url(#SVGID_262_);fill:url(#SVGID_263_);}
	.st326{clip-path:url(#SVGID_265_);fill:url(#SVGID_266_);}
	.st327{clip-path:url(#SVGID_268_);fill:url(#SVGID_269_);}
	.st328{clip-path:url(#SVGID_271_);fill:url(#SVGID_272_);}
	.st329{clip-path:url(#SVGID_274_);fill:url(#SVGID_275_);}
	.st330{clip-path:url(#SVGID_277_);fill:url(#SVGID_278_);}
	.st331{fill:url(#SVGID_279_);}
	.st332{fill:url(#SVGID_280_);}
	.st333{fill:url(#SVGID_281_);}
	.st334{fill:url(#SVGID_282_);}
	.st335{fill:url(#SVGID_283_);}
	.st336{fill:url(#SVGID_284_);}
	.st337{fill:url(#SVGID_285_);}
	.st338{fill:url(#SVGID_286_);}
	.st339{fill:url(#SVGID_287_);}
	.st340{fill:url(#SVGID_288_);}
	.st341{fill:url(#SVGID_289_);}
	.st342{fill:url(#SVGID_290_);}
	.st343{fill:url(#SVGID_291_);}
	.st344{fill:url(#SVGID_292_);}
	.st345{fill:url(#SVGID_293_);}
	.st346{fill:url(#SVGID_294_);}
	.st347{fill:url(#SVGID_295_);}
	.st348{fill:url(#SVGID_296_);}
	.st349{fill:url(#SVGID_297_);}
	.st350{fill:url(#SVGID_298_);}
	.st351{fill:url(#SVGID_299_);}
	.st352{fill:url(#SVGID_300_);}
	.st353{fill:url(#SVGID_301_);}
	.st354{fill:url(#SVGID_302_);}
	.st355{fill:url(#SVGID_303_);}
	.st356{fill:url(#SVGID_304_);}
	.st357{fill:url(#SVGID_305_);}
	.st358{fill:url(#SVGID_306_);}
	.st359{fill:url(#SVGID_307_);}
	.st360{filter:url(#Adobe_OpacityMaskFilter_4_);}
	.st361{clip-path:url(#SVGID_325_);}
	.st362{clip-path:url(#SVGID_328_);}
	.st363{clip-path:url(#SVGID_330_);}
	.st364{clip-path:url(#SVGID_325_);mask:url(#SVGID_326_);enable-background:new    ;}
	.st365{clip-path:url(#SVGID_332_);fill-rule:evenodd;clip-rule:evenodd;fill:#0F53FF;}
	.st366{filter:url(#Adobe_OpacityMaskFilter_5_);}
	.st367{clip-path:url(#SVGID_335_);}
	.st368{clip-path:url(#SVGID_335_);fill-rule:evenodd;clip-rule:evenodd;fill:#FFFFFF;}
	.st369{clip-path:url(#SVGID_325_);mask:url(#SVGID_333_);enable-background:new    ;}
	.st370{clip-path:url(#SVGID_337_);fill-rule:evenodd;clip-rule:evenodd;fill:#0F53FF;}
	.st371{clip-path:url(#SVGID_339_);fill:url(#SVGID_340_);}
	.st372{clip-path:url(#SVGID_342_);fill:url(#SVGID_343_);}
	.st373{clip-path:url(#SVGID_345_);fill:url(#SVGID_346_);}
	.st374{clip-path:url(#SVGID_348_);fill:url(#SVGID_349_);}
	.st375{clip-path:url(#SVGID_351_);fill:url(#SVGID_352_);}
	.st376{clip-path:url(#SVGID_354_);fill:url(#SVGID_355_);}
	.st377{clip-path:url(#SVGID_357_);fill:url(#SVGID_358_);}
	.st378{clip-path:url(#SVGID_360_);fill:url(#SVGID_361_);}
	.st379{fill:url(#SVGID_362_);}
	.st380{fill:url(#SVGID_363_);}
	.st381{fill:url(#SVGID_364_);}
	.st382{fill:url(#SVGID_365_);}
	.st383{fill:url(#SVGID_366_);}
	.st384{fill:url(#SVGID_367_);}
	.st385{fill:url(#SVGID_368_);}
	.st386{fill:url(#SVGID_369_);}
	.st387{fill:url(#SVGID_370_);}
	.st388{fill:url(#SVGID_371_);}
	.st389{fill:url(#SVGID_372_);}
	.st390{fill:url(#SVGID_373_);}
	.st391{fill:url(#SVGID_374_);}
	.st392{fill:url(#SVGID_375_);}
	.st393{fill:url(#SVGID_376_);}
	.st394{fill:url(#SVGID_377_);}
	.st395{fill:url(#SVGID_378_);}
	.st396{fill:url(#SVGID_379_);}
	.st397{fill:url(#SVGID_380_);}
	.st398{fill:url(#SVGID_381_);}
	.st399{fill:url(#SVGID_382_);}
	.st400{fill:url(#SVGID_383_);}
	.st401{fill:url(#SVGID_384_);}
	.st402{fill:url(#SVGID_385_);}
	.st403{fill:url(#SVGID_386_);}
	.st404{fill:url(#SVGID_387_);}
	.st405{fill:url(#SVGID_388_);}
	.st406{fill:url(#SVGID_389_);}
	.st407{fill:url(#SVGID_390_);}
	.st408{fill:url(#SVGID_391_);}
	.st409{fill:url(#SVGID_392_);}
	.st410{fill:url(#SVGID_393_);}
	.st411{fill:url(#SVGID_394_);}
	.st412{fill:url(#SVGID_395_);}
	.st413{fill:url(#SVGID_396_);}
	.st414{fill:url(#SVGID_397_);}
	.st415{fill:url(#SVGID_398_);}
	.st416{fill:url(#SVGID_399_);}
	.st417{fill:url(#SVGID_400_);}
	.st418{fill:url(#SVGID_401_);}
	.st419{fill:url(#SVGID_402_);}
	.st420{fill:url(#SVGID_403_);}
	.st421{fill:url(#SVGID_404_);}
	.st422{fill:url(#SVGID_405_);}
	.st423{fill:url(#SVGID_406_);}
	.st424{fill:url(#SVGID_407_);}
	.st425{fill:url(#SVGID_408_);}
	.st426{fill:url(#SVGID_409_);}
	.st427{fill:url(#SVGID_410_);}
	.st428{fill:url(#SVGID_411_);}
	.st429{fill:url(#SVGID_412_);}
	.st430{fill:url(#SVGID_413_);}
	.st431{fill:url(#SVGID_414_);}
	.st432{fill:url(#SVGID_415_);}
</style>
<g>
	<g>
		<path class="st215" d="M5.58,20.95c0,1.45,0.1,2.56,0.3,3.34c0.05,0.18,0.37,0.34,0.97,0.51c0.6,0.16,1.02,0.24,1.27,0.24
			c0.07,0,0.12,0.15,0.15,0.45c0.02,0.3,0.01,0.51-0.04,0.64c-2.5-0.12-3.84-0.19-4.01-0.19c-0.18,0-1.54,0.06-4.08,0.19
			C0.05,26.02,0,25.82,0,25.5c0-0.31,0.05-0.47,0.15-0.47c0.3,0,0.74-0.08,1.33-0.24c0.59-0.16,0.91-0.33,0.96-0.51
			c0.17-0.72,0.26-1.6,0.26-2.62v-7.08c0-0.97-0.18-1.65-0.52-2.02c-0.25-0.3-0.56-0.51-0.92-0.62c-0.36-0.11-0.66-0.17-0.9-0.17
			C0.12,11.77,0,11.74,0,11.69c0-0.6,0.07-0.91,0.22-0.94c2.65-0.4,4.37-0.72,5.17-0.97l0.07-0.04c0.05,0,0.09,0,0.11,0
			c0.1,0,0.16,0.11,0.19,0.32c0.02,0.21,0.02,0.37,0,0.47c-0.13,1-0.19,1.9-0.19,2.7V20.95z M2.53,5.12
			C2.17,4.75,1.99,4.31,1.99,3.79s0.18-0.97,0.54-1.33c0.36-0.36,0.81-0.54,1.33-0.54c0.52,0,0.97,0.18,1.33,0.54
			c0.36,0.36,0.54,0.81,0.54,1.33S5.55,4.75,5.19,5.12C4.83,5.48,4.38,5.66,3.86,5.66C3.34,5.66,2.89,5.48,2.53,5.12z"/>
		<path class="st215" d="M23.1,12.22c-0.43,0.25-1.24,0.84-2.44,1.78c-1.2,0.94-2.24,1.86-3.11,2.75c0.72,0.77,1.61,1.76,2.66,2.94
			c1.05,1.19,1.91,2.15,2.59,2.89c0.67,0.74,1.14,1.22,1.39,1.44c0.42,0.35,0.96,0.62,1.61,0.81c0.65,0.19,1.11,0.28,1.39,0.28
			c0.1,0,0.15,0.2,0.15,0.6c0,0.22-0.01,0.36-0.04,0.41c-2.5-0.12-3.86-0.19-4.08-0.19c-0.05,0-1.35,0.06-3.9,0.19
			c-0.1-0.1-0.15-0.29-0.15-0.58c0-0.29,0.05-0.43,0.15-0.43c0.25,0,0.54-0.05,0.86-0.15c0.32-0.1,0.49-0.21,0.49-0.34
			c0-0.05-0.01-0.09-0.04-0.11l-5.47-5.92L14.7,18.7v2.25c0.05,1.65,0.15,2.76,0.3,3.34c0.05,0.18,0.37,0.34,0.97,0.51
			c0.6,0.16,1.02,0.24,1.27,0.24c0.07,0,0.12,0.15,0.15,0.45c0.02,0.3,0.01,0.51-0.04,0.64c-2.5-0.12-3.84-0.19-4.01-0.19
			c-0.15,0-1.51,0.06-4.08,0.19c-0.1-0.1-0.15-0.31-0.15-0.62c0-0.31,0.05-0.47,0.15-0.47c0.3,0,0.74-0.08,1.33-0.24
			c0.59-0.16,0.91-0.33,0.96-0.51c0.17-0.72,0.26-1.6,0.26-2.62V5.43c0-0.85-0.07-1.65-0.22-2.4c-0.13-0.4-0.76-0.6-1.91-0.6H9.35
			c-0.15,0-0.22-0.14-0.22-0.41c0-0.4,0.07-0.6,0.22-0.6c0.75-0.07,1.44-0.17,2.08-0.3c0.64-0.12,1.14-0.25,1.5-0.37
			c0.36-0.12,0.67-0.24,0.92-0.36c0.25-0.11,0.42-0.21,0.52-0.28L14.55,0h0.07c0.1,0,0.2,0.07,0.3,0.21
			c0.1,0.14,0.16,0.27,0.19,0.39c-0.28,0.8-0.41,1.89-0.41,3.26v13.12c0.52-0.12,0.84-0.24,0.94-0.34c0.55-0.47,1.12-0.96,1.72-1.46
			c0.6-0.5,1.05-0.87,1.35-1.12c0.3-0.25,0.59-0.5,0.86-0.75c0.27-0.25,0.46-0.45,0.56-0.6c0.1-0.15,0.15-0.3,0.15-0.45
			c0-0.3-0.28-0.47-0.82-0.52c-0.55-0.05-0.84-0.1-0.86-0.15c-0.18-0.5-0.16-0.79,0.04-0.86h2.96c0.37,0,0.77-0.01,1.18-0.04
			c0.41-0.02,0.9-0.05,1.46-0.07c0.56-0.02,1.06-0.05,1.48-0.07c0.1,0.05,0.16,0.16,0.17,0.34c0.01,0.18-0.01,0.34-0.06,0.49
			c-0.05,0.15-0.1,0.22-0.15,0.22c-0.33,0-0.79,0.07-1.39,0.22C23.7,11.95,23.3,12.09,23.1,12.22z"/>
		<path class="st215" d="M34.99,9.67c1.37,0,2.36,0.33,2.96,0.99c0.6,0.66,0.9,1.73,0.9,3.2v8.66c0,0.52,0.14,0.96,0.41,1.31
			c0.27,0.35,0.65,0.52,1.12,0.52c0.35,0,0.79-0.17,1.31-0.52c0.1,0,0.15,0.1,0.15,0.3c0,0.33-0.06,0.59-0.19,0.79
			c-1.02,0.87-1.9,1.31-2.62,1.31c-0.58,0-1.12-0.24-1.65-0.71c-0.52-0.47-0.89-0.97-1.09-1.5c-0.03,0-0.12,0.08-0.28,0.24
			c-0.16,0.16-0.38,0.35-0.66,0.56c-0.28,0.21-0.59,0.43-0.96,0.66c-0.36,0.22-0.79,0.41-1.27,0.56c-0.49,0.15-0.98,0.22-1.48,0.22
			c-1.15,0-2.1-0.31-2.85-0.92c-0.75-0.61-1.12-1.53-1.12-2.75c0-0.55,0.14-1.07,0.41-1.56c0.27-0.49,0.6-0.89,0.97-1.2
			c0.37-0.31,0.89-0.63,1.54-0.96c0.65-0.32,1.21-0.57,1.67-0.73c0.46-0.16,1.07-0.37,1.82-0.62c0.75-0.25,1.27-0.44,1.57-0.56
			c0.22-0.07,0.34-0.26,0.34-0.56V13.6c0-0.8-0.25-1.42-0.75-1.86c-0.5-0.44-1.1-0.66-1.8-0.66c-0.75,0-1.37,0.26-1.87,0.77
			c-0.5,0.51-0.75,1.18-0.75,2c0,0.87-0.51,1.31-1.54,1.31c-0.7,0-1.19-0.24-1.46-0.71c0-1.07,0.79-2.14,2.36-3.2
			C31.77,10.2,33.37,9.67,34.99,9.67z M31.47,23.59c0.42,0.36,0.97,0.54,1.65,0.54s1.32-0.21,1.95-0.62
			c0.62-0.41,0.94-0.83,0.94-1.26V18.4c-0.2,0.1-0.69,0.28-1.46,0.52c-0.77,0.25-1.38,0.47-1.82,0.66c-0.44,0.19-0.86,0.5-1.27,0.94
			c-0.41,0.44-0.62,0.94-0.62,1.52C30.83,22.71,31.05,23.23,31.47,23.59z"/>
		<path class="st215" d="M52.1,9.63c1.47,0,2.45,0.36,2.92,1.09c0,0.87-0.14,1.51-0.41,1.91c-0.28,0.4-0.61,0.6-1.01,0.6
			c-0.45,0-0.86-0.21-1.24-0.64c-0.37-0.42-0.89-0.64-1.54-0.64c-0.77,0-1.45,0.36-2.02,1.09c-0.57,0.72-0.86,1.49-0.86,2.29v5.62
			c0,1.45,0.1,2.56,0.3,3.34c0.05,0.18,0.38,0.34,0.99,0.51c0.61,0.16,1.04,0.24,1.29,0.24c0.07,0,0.12,0.15,0.15,0.45
			c0.02,0.3,0.01,0.51-0.04,0.64c-2.5-0.12-3.85-0.19-4.05-0.19c-0.15,0-1.51,0.06-4.08,0.19c-0.1-0.1-0.15-0.31-0.15-0.62
			c0-0.31,0.05-0.47,0.15-0.47c0.3,0,0.74-0.08,1.33-0.24c0.59-0.16,0.91-0.33,0.96-0.51c0.17-0.72,0.26-1.6,0.26-2.62v-7.08
			c0-0.97-0.18-1.65-0.52-2.02c-0.25-0.3-0.56-0.51-0.92-0.62c-0.36-0.11-0.66-0.17-0.9-0.17c-0.24,0-0.36-0.02-0.36-0.07
			c0-0.6,0.07-0.91,0.22-0.94c2.65-0.4,4.37-0.72,5.17-0.97c0.02,0,0.09-0.01,0.19-0.04c0.1,0,0.16,0.11,0.19,0.32
			c0.02,0.21,0.02,0.37,0,0.47L47.9,12.4c0.45-0.67,1.07-1.31,1.86-1.89C50.54,9.93,51.32,9.63,52.1,9.63z"/>
		<path class="st215" d="M63.92,9.63c2.25,0,4.17,0.81,5.77,2.44c1.6,1.62,2.4,3.57,2.4,5.85c0,2.3-0.78,4.27-2.34,5.9
			c-1.56,1.64-3.48,2.45-5.75,2.45c-2.27,0-4.21-0.82-5.81-2.45c-1.6-1.64-2.4-3.6-2.4-5.9c0-2.32,0.77-4.28,2.32-5.88
			C59.66,10.43,61.59,9.63,63.92,9.63z M63.51,11.09c-1.32,0-2.4,0.61-3.24,1.82c-0.84,1.21-1.26,2.69-1.26,4.44
			c0,2.05,0.53,3.8,1.59,5.27c1.06,1.46,2.3,2.19,3.73,2.19c1.32,0,2.41-0.62,3.26-1.87c0.85-1.25,1.27-2.75,1.27-4.5
			c0-2.02-0.54-3.75-1.61-5.19C66.18,11.81,64.93,11.09,63.51,11.09z"/>
		<path class="st215" d="M79.71,9.63c0.55,0,1.24,0.07,2.08,0.21c0.84,0.14,1.42,0.23,1.74,0.28c0.25,1.15,0.4,2.42,0.45,3.82
			c0,0.13-0.16,0.19-0.49,0.19c-0.35,0-0.54-0.09-0.56-0.26c-0.13-0.7-0.48-1.36-1.07-1.99c-0.59-0.62-1.26-0.94-2-0.94
			c-1.8,0-2.7,0.74-2.7,2.21c0,0.37,0.05,0.71,0.15,0.99c0.1,0.29,0.29,0.56,0.58,0.82c0.29,0.26,0.51,0.45,0.66,0.56
			c0.15,0.11,0.48,0.31,0.99,0.6c0.51,0.29,0.83,0.47,0.96,0.54c0.1,0.05,0.39,0.22,0.88,0.51c0.49,0.29,0.83,0.49,1.03,0.62
			c0.2,0.13,0.49,0.34,0.88,0.64c0.39,0.3,0.67,0.57,0.84,0.81c0.17,0.24,0.34,0.54,0.51,0.9c0.16,0.36,0.24,0.73,0.24,1.11
			c0,1.47-0.57,2.7-1.72,3.69c-1.15,0.99-2.5,1.48-4.05,1.48c-0.52,0-1.01-0.03-1.44-0.09c-0.44-0.06-0.96-0.17-1.56-0.32
			c-0.6-0.15-1.06-0.25-1.39-0.3c-0.15-0.4-0.29-1.02-0.43-1.87c-0.14-0.85-0.21-1.52-0.21-2.02c0.2-0.15,0.35-0.22,0.45-0.22
			c0.37,0,0.57,0.07,0.6,0.22c0.15,0.75,0.62,1.48,1.41,2.19s1.64,1.07,2.57,1.07c0.8,0,1.46-0.22,1.97-0.66
			c0.51-0.44,0.77-1.07,0.77-1.89c0-0.42-0.08-0.82-0.24-1.18c-0.16-0.36-0.43-0.69-0.79-0.97c-0.36-0.29-0.7-0.52-1.01-0.71
			c-0.31-0.19-0.76-0.43-1.33-0.73c-0.57-0.3-1-0.54-1.27-0.71c-1.95-1.12-2.92-2.46-2.92-4.01c0-1.35,0.54-2.45,1.63-3.3
			C76.99,10.06,78.26,9.63,79.71,9.63z"/>
	</g>
	<g>
		<path class="st216" d="M47.03,28.93c1.25,0,2.22,0.42,2.92,1.25c0.7,0.84,1.05,1.73,1.05,2.68c0,1.25-0.43,2.34-1.3,3.29
			c-0.87,0.95-1.86,1.42-2.96,1.42c-0.19,0-0.37-0.01-0.52-0.02c-0.15-0.01-0.28-0.04-0.4-0.07c-0.12-0.03-0.21-0.06-0.27-0.09
			c-0.07-0.03-0.15-0.06-0.25-0.11c-0.1-0.05-0.17-0.07-0.19-0.09c-0.05,0.07-0.08,0.15-0.08,0.25v1.67c0,0.75,0.05,1.33,0.16,1.73
			c0.03,0.09,0.19,0.18,0.51,0.26c0.31,0.08,0.53,0.13,0.66,0.13c0.04,0,0.06,0.08,0.08,0.24c0.01,0.16,0.01,0.27-0.02,0.32
			c-1.3-0.07-1.99-0.1-2.08-0.1c-0.08,0-0.79,0.03-2.12,0.1c-0.05-0.05-0.08-0.16-0.08-0.32c0-0.16,0.03-0.24,0.08-0.24
			c0.16,0,0.39-0.04,0.69-0.13c0.3-0.08,0.47-0.17,0.5-0.26c0.09-0.38,0.14-0.83,0.14-1.36v-8.04c0-0.51-0.09-0.86-0.27-1.05
			c-0.13-0.16-0.29-0.26-0.48-0.32C42.59,30.03,42.44,30,42.31,30c-0.12,0-0.18-0.01-0.18-0.04c0-0.31,0.04-0.47,0.12-0.49
			c1.37-0.21,2.27-0.38,2.68-0.51c0.01,0,0.05-0.01,0.1-0.02c0.04,0,0.06,0.04,0.06,0.11c0,0.07-0.01,0.16-0.02,0.26
			c-0.01,0.1-0.02,0.16-0.02,0.18v0.12c0.18-0.13,0.48-0.28,0.9-0.44C46.37,29.01,46.73,28.93,47.03,28.93z M46.41,29.88
			c-0.4,0-0.73,0.11-0.99,0.32c-0.26,0.21-0.39,0.52-0.39,0.92v4.38c0,0.35,0.19,0.65,0.56,0.89c0.38,0.24,0.78,0.36,1.23,0.36
			c0.77,0,1.37-0.34,1.83-1.03c0.45-0.69,0.68-1.46,0.68-2.32c0-1.09-0.29-1.95-0.87-2.58C47.89,30.2,47.2,29.88,46.41,29.88z"/>
		<path class="st216" d="M55.46,28.93c0.71,0,1.23,0.17,1.54,0.52c0.31,0.34,0.47,0.9,0.47,1.66v4.49c0,0.27,0.07,0.5,0.21,0.68
			c0.14,0.18,0.34,0.27,0.58,0.27c0.18,0,0.41-0.09,0.68-0.27c0.05,0,0.08,0.05,0.08,0.16c0,0.17-0.03,0.3-0.1,0.41
			c-0.53,0.45-0.99,0.68-1.36,0.68c-0.3,0-0.58-0.12-0.86-0.37c-0.27-0.25-0.46-0.51-0.56-0.78c-0.01,0-0.06,0.04-0.15,0.13
			c-0.08,0.08-0.2,0.18-0.34,0.29c-0.14,0.11-0.31,0.22-0.5,0.34c-0.19,0.12-0.41,0.21-0.66,0.29c-0.25,0.08-0.51,0.12-0.77,0.12
			c-0.6,0-1.09-0.16-1.48-0.48c-0.39-0.32-0.58-0.79-0.58-1.43c0-0.29,0.07-0.55,0.21-0.81c0.14-0.25,0.31-0.46,0.51-0.62
			c0.19-0.16,0.46-0.33,0.8-0.5c0.34-0.17,0.63-0.29,0.87-0.38c0.24-0.08,0.55-0.19,0.94-0.32c0.39-0.13,0.66-0.23,0.82-0.29
			c0.12-0.04,0.18-0.14,0.18-0.29v-1.46c0-0.41-0.13-0.74-0.39-0.96c-0.26-0.23-0.57-0.34-0.93-0.34c-0.39,0-0.71,0.13-0.97,0.4
			c-0.26,0.27-0.39,0.61-0.39,1.04c0,0.45-0.27,0.68-0.8,0.68c-0.36,0-0.62-0.12-0.76-0.37c0-0.56,0.41-1.11,1.23-1.66
			C53.79,29.21,54.62,28.93,55.46,28.93z M53.63,36.16c0.22,0.19,0.51,0.28,0.86,0.28c0.35,0,0.69-0.11,1.01-0.32
			c0.32-0.21,0.49-0.43,0.49-0.65v-2c-0.1,0.05-0.36,0.14-0.76,0.27c-0.4,0.13-0.72,0.24-0.94,0.34c-0.23,0.1-0.45,0.26-0.66,0.49
			c-0.21,0.23-0.32,0.49-0.32,0.79C53.3,35.7,53.41,35.97,53.63,36.16z"/>
		<path class="st216" d="M64.34,28.91c0.77,0,1.27,0.19,1.52,0.56c0,0.45-0.07,0.79-0.21,0.99c-0.14,0.21-0.32,0.31-0.53,0.31
			c-0.23,0-0.45-0.11-0.64-0.33c-0.19-0.22-0.46-0.33-0.8-0.33c-0.4,0-0.75,0.19-1.05,0.56c-0.3,0.38-0.45,0.77-0.45,1.19v2.92
			c0,0.75,0.05,1.33,0.16,1.73c0.03,0.09,0.2,0.18,0.52,0.26c0.32,0.08,0.54,0.13,0.67,0.13c0.04,0,0.06,0.08,0.08,0.23
			c0.01,0.16,0.01,0.27-0.02,0.33c-1.3-0.06-2-0.1-2.1-0.1c-0.08,0-0.78,0.03-2.12,0.1c-0.05-0.05-0.08-0.16-0.08-0.32
			c0-0.16,0.03-0.24,0.08-0.24c0.16,0,0.39-0.04,0.69-0.13c0.3-0.08,0.47-0.17,0.5-0.26c0.09-0.38,0.14-0.83,0.14-1.36v-3.68
			c0-0.51-0.09-0.86-0.27-1.05c-0.13-0.16-0.29-0.26-0.48-0.32c-0.19-0.06-0.34-0.09-0.47-0.09c-0.12,0-0.18-0.01-0.18-0.04
			c0-0.31,0.04-0.47,0.12-0.49c1.37-0.21,2.27-0.38,2.68-0.51c0.01,0,0.05-0.01,0.1-0.02c0.05,0,0.08,0.06,0.1,0.17
			c0.01,0.11,0.01,0.19,0,0.24l-0.12,0.97c0.23-0.35,0.55-0.68,0.96-0.98C63.53,29.06,63.94,28.91,64.34,28.91z"/>
		<path class="st216" d="M67.76,30.14h-1.13c-0.06,0-0.1-0.14-0.1-0.41c0-0.08,0.01-0.12,0.02-0.14c0.38-0.17,0.78-0.51,1.23-1.03
			c0.14-0.17,0.28-0.36,0.42-0.57c0.14-0.21,0.25-0.4,0.34-0.55c0.09-0.16,0.14-0.24,0.14-0.25c0.39,0,0.58,0.03,0.58,0.1v1.93
			c0.34,0,0.85,0,1.54,0.01c0.69,0.01,1.05,0.01,1.09,0.01c0.1,0,0.16,0.06,0.16,0.18c0,0.23-0.06,0.48-0.19,0.74h-2.59v4.77
			c0,0.52,0.13,0.93,0.4,1.25c0.27,0.31,0.61,0.47,1.04,0.47c0.39,0,0.79-0.12,1.21-0.37c0.04-0.03,0.1,0.03,0.18,0.17
			c0.08,0.14,0.11,0.21,0.1,0.22c-0.19,0.21-0.49,0.41-0.9,0.61c-0.4,0.2-0.82,0.3-1.25,0.3c-0.65,0-1.19-0.21-1.62-0.64
			c-0.43-0.43-0.65-1.04-0.65-1.83V30.14z"/>
		<path class="st216" d="M78.42,28.89c0.91,0,1.54,0.32,1.91,0.97c0.36,0.65,0.54,1.7,0.54,3.15v1.77c0,0.75,0.05,1.33,0.16,1.73
			c0.03,0.09,0.19,0.18,0.51,0.26c0.31,0.08,0.53,0.13,0.66,0.13c0.04,0,0.06,0.08,0.08,0.23c0.01,0.16,0.01,0.27-0.02,0.33
			c-1.3-0.06-1.99-0.1-2.08-0.1c-0.03,0-0.71,0.03-2.04,0.1c-0.05-0.05-0.08-0.16-0.08-0.32c0-0.16,0.03-0.24,0.08-0.24
			c0.16,0,0.37-0.04,0.65-0.13c0.28-0.08,0.43-0.17,0.46-0.26c0.09-0.38,0.14-0.83,0.14-1.36v-1.95c0-1.21-0.16-2.03-0.47-2.47
			c-0.31-0.44-0.82-0.66-1.52-0.66c-0.42,0-0.81,0.15-1.2,0.46c-0.38,0.3-0.57,0.58-0.57,0.83v3.42c0,0.75,0.05,1.33,0.16,1.73
			c0.03,0.09,0.19,0.18,0.51,0.26c0.31,0.08,0.53,0.13,0.66,0.13c0.04,0,0.06,0.08,0.08,0.23c0.01,0.16,0.01,0.27-0.02,0.33
			c-1.3-0.06-1.99-0.1-2.08-0.1c-0.08,0-0.79,0.03-2.12,0.1c-0.05-0.05-0.08-0.16-0.08-0.32c0-0.16,0.03-0.24,0.08-0.24
			c0.16,0,0.39-0.04,0.69-0.13c0.3-0.08,0.47-0.17,0.5-0.26c0.09-0.38,0.14-0.83,0.14-1.36v-3.68c0-0.51-0.09-0.86-0.27-1.05
			c-0.13-0.16-0.29-0.26-0.48-0.32c-0.19-0.06-0.34-0.09-0.47-0.09c-0.12,0-0.18-0.01-0.18-0.04c0-0.31,0.04-0.47,0.12-0.49
			c1.37-0.21,2.27-0.38,2.68-0.51c0.01,0,0.05-0.01,0.1-0.02c0.05,0,0.08,0.06,0.1,0.17c0.01,0.11,0.01,0.19,0,0.24
			c-0.05,0.36-0.08,0.62-0.08,0.78c0,0.05,0.01,0.08,0.04,0.08c0.01,0,0.03-0.01,0.06-0.04c0.3-0.31,0.7-0.61,1.22-0.89
			C77.46,29.03,77.95,28.89,78.42,28.89z"/>
		<path class="st216" d="M85.78,28.93c0.6,0,1.12,0.11,1.58,0.34c0.45,0.23,0.8,0.52,1.04,0.88c0.24,0.36,0.41,0.72,0.53,1.09
			c0.11,0.37,0.17,0.74,0.17,1.1c0,0.26-0.04,0.42-0.12,0.48c-0.08,0.06-0.23,0.09-0.45,0.09h-4.9c-0.1,0-0.16,0.03-0.16,0.1
			c0,0.82,0.25,1.57,0.74,2.26c0.49,0.69,1.21,1.03,2.14,1.03c0.27,0,0.53-0.03,0.78-0.08c0.25-0.05,0.46-0.11,0.63-0.18
			c0.18-0.07,0.32-0.14,0.45-0.21c0.12-0.07,0.23-0.14,0.32-0.2l0.14-0.1c0.08,0,0.12,0.08,0.12,0.25c0,0.1-0.04,0.22-0.12,0.35
			c-0.26,0.36-0.64,0.69-1.15,0.98c-0.51,0.29-1.06,0.44-1.65,0.44c-1.08,0-2-0.41-2.77-1.22c-0.77-0.81-1.16-1.8-1.16-2.97
			c0-1.36,0.37-2.44,1.1-3.23C83.76,29.33,84.68,28.93,85.78,28.93z M85.59,29.65c-0.67,0-1.19,0.29-1.55,0.87
			c-0.36,0.58-0.54,1.05-0.54,1.43c0,0.09,0.04,0.14,0.12,0.14h3.79c0.06,0,0.1-0.06,0.1-0.19c0-0.41-0.18-0.89-0.53-1.43
			C86.64,29.92,86.17,29.65,85.59,29.65z"/>
		<path class="st216" d="M94.78,28.91c0.77,0,1.27,0.19,1.52,0.56c0,0.45-0.07,0.79-0.21,0.99c-0.14,0.21-0.32,0.31-0.53,0.31
			c-0.23,0-0.45-0.11-0.64-0.33c-0.19-0.22-0.46-0.33-0.8-0.33c-0.4,0-0.75,0.19-1.05,0.56c-0.3,0.38-0.45,0.77-0.45,1.19v2.92
			c0,0.75,0.05,1.33,0.16,1.73c0.03,0.09,0.2,0.18,0.52,0.26c0.32,0.08,0.54,0.13,0.67,0.13c0.04,0,0.06,0.08,0.08,0.23
			c0.01,0.16,0.01,0.27-0.02,0.33c-1.3-0.06-2-0.1-2.1-0.1c-0.08,0-0.78,0.03-2.12,0.1c-0.05-0.05-0.08-0.16-0.08-0.32
			c0-0.16,0.03-0.24,0.08-0.24c0.16,0,0.39-0.04,0.69-0.13c0.3-0.08,0.47-0.17,0.5-0.26c0.09-0.38,0.14-0.83,0.14-1.36v-3.68
			c0-0.51-0.09-0.86-0.27-1.05c-0.13-0.16-0.29-0.26-0.48-0.32c-0.19-0.06-0.34-0.09-0.47-0.09c-0.12,0-0.18-0.01-0.18-0.04
			c0-0.31,0.04-0.47,0.12-0.49c1.37-0.21,2.27-0.38,2.68-0.51c0.01,0,0.05-0.01,0.1-0.02c0.05,0,0.08,0.06,0.1,0.17
			c0.01,0.11,0.01,0.19,0,0.24l-0.12,0.97c0.23-0.35,0.55-0.68,0.96-0.98C93.97,29.06,94.38,28.91,94.78,28.91z"/>
		<path class="st216" d="M99.69,28.91c0.29,0,0.65,0.04,1.08,0.11c0.43,0.07,0.74,0.12,0.9,0.15c0.13,0.6,0.21,1.26,0.23,1.98
			c0,0.07-0.08,0.1-0.25,0.1c-0.18,0-0.28-0.05-0.29-0.14c-0.06-0.36-0.25-0.71-0.55-1.03c-0.3-0.32-0.65-0.49-1.04-0.49
			c-0.93,0-1.4,0.38-1.4,1.15c0,0.19,0.03,0.37,0.08,0.52c0.05,0.15,0.15,0.29,0.3,0.43c0.15,0.14,0.26,0.23,0.34,0.29
			c0.08,0.06,0.25,0.16,0.52,0.31c0.27,0.15,0.43,0.24,0.5,0.28c0.05,0.03,0.2,0.11,0.46,0.26c0.25,0.15,0.43,0.26,0.53,0.32
			c0.1,0.06,0.26,0.18,0.46,0.33c0.2,0.16,0.35,0.3,0.44,0.42c0.09,0.12,0.18,0.28,0.26,0.47c0.08,0.19,0.13,0.38,0.13,0.57
			c0,0.77-0.3,1.4-0.9,1.92c-0.6,0.51-1.3,0.77-2.1,0.77c-0.27,0-0.52-0.02-0.75-0.05c-0.23-0.03-0.5-0.09-0.81-0.17
			c-0.31-0.08-0.55-0.13-0.72-0.16c-0.08-0.21-0.15-0.53-0.22-0.97c-0.07-0.44-0.11-0.79-0.11-1.05c0.1-0.08,0.18-0.12,0.23-0.12
			c0.19,0,0.3,0.04,0.31,0.12c0.08,0.39,0.32,0.77,0.73,1.14c0.41,0.37,0.85,0.55,1.33,0.55c0.41,0,0.76-0.11,1.02-0.34
			c0.27-0.23,0.4-0.55,0.4-0.98c0-0.22-0.04-0.42-0.13-0.61c-0.08-0.19-0.22-0.36-0.41-0.51c-0.19-0.15-0.36-0.27-0.53-0.37
			c-0.16-0.1-0.39-0.22-0.69-0.38c-0.3-0.16-0.52-0.28-0.66-0.37c-1.01-0.58-1.52-1.28-1.52-2.08c0-0.7,0.28-1.27,0.85-1.71
			C98.28,29.13,98.94,28.91,99.69,28.91z"/>
	</g>
	<g>
		<path class="st216" d="M93.73,9.64c1.14,0,2.05,0.25,2.71,0.76c0.67,0.5,1,1.21,1,2.11c0,1.04-0.33,1.93-1,2.66
			c-0.67,0.73-1.6,1.48-2.82,2.23c0.99,1.67,2.25,3.37,3.79,5.1c0.43-0.65,0.78-1.27,1.05-1.87c0.27-0.6,0.41-0.97,0.41-1.13
			c0-0.15-0.08-0.26-0.24-0.32c-0.16-0.06-0.35-0.09-0.55-0.1c-0.21-0.01-0.32-0.02-0.36-0.04c-0.03-0.07-0.05-0.17-0.05-0.31
			c0-0.14,0.03-0.23,0.08-0.28h2.02c0.26,0,0.52-0.01,0.81-0.03c0.28-0.02,0.61-0.03,1-0.05c0.38-0.02,0.72-0.03,1.01-0.05
			c0.09,0.05,0.13,0.16,0.13,0.33c0,0.26-0.05,0.38-0.15,0.38c-0.22,0-0.54,0.05-0.95,0.15c-0.41,0.1-0.68,0.2-0.82,0.28
			c-0.02,0.02-0.14,0.21-0.36,0.58c-0.22,0.37-0.55,0.87-0.97,1.5c-0.43,0.63-0.87,1.21-1.33,1.74c0.39,0.41,0.67,0.69,0.82,0.85
			c0.15,0.15,0.36,0.35,0.61,0.58c0.26,0.23,0.46,0.38,0.61,0.46c0.15,0.08,0.31,0.12,0.46,0.12c0.24,0,0.5-0.14,0.78-0.44
			c0.28-0.29,0.46-0.54,0.55-0.74c0.14,0,0.27,0.05,0.4,0.15c0.13,0.1,0.19,0.2,0.19,0.31c-0.07,0.14-0.15,0.27-0.23,0.41
			c-0.09,0.14-0.23,0.33-0.45,0.59c-0.21,0.26-0.5,0.47-0.87,0.63c-0.37,0.16-0.78,0.24-1.24,0.24c-0.44,0-0.91-0.15-1.41-0.46
			c-0.5-0.31-0.87-0.61-1.13-0.92l-0.41-0.46c-1.47,1.28-3.02,1.92-4.66,1.92c-1.52,0-2.73-0.37-3.62-1.1
			c-0.9-0.73-1.34-1.74-1.34-3.02c0-1.11,0.38-2.04,1.13-2.78c0.75-0.74,1.79-1.46,3.12-2.14c-0.32-0.55-0.57-0.99-0.73-1.32
			c-0.16-0.33-0.33-0.78-0.5-1.34c-0.17-0.56-0.26-1.12-0.26-1.66c0-0.97,0.36-1.8,1.08-2.48C91.76,9.98,92.65,9.64,93.73,9.64z
			 M96.24,24.01c-0.5-0.5-1.09-1.21-1.79-2.15c-0.7-0.94-1.27-1.75-1.72-2.43l-0.69-1.02c-0.61,0.43-1.07,0.76-1.36,0.99
			c-0.29,0.23-0.58,0.58-0.86,1.06c-0.28,0.48-0.42,1.01-0.42,1.59c0,1.13,0.35,1.97,1.05,2.54c0.7,0.56,1.56,0.85,2.59,0.85
			c0.53,0,1.1-0.13,1.7-0.38C95.35,24.77,95.84,24.43,96.24,24.01z M93.86,10.56c-0.56,0-1.04,0.18-1.43,0.55
			c-0.39,0.37-0.59,0.84-0.59,1.42c0,1.09,0.44,2.44,1.33,4.05c0.89-0.51,1.53-1.03,1.93-1.55c0.4-0.52,0.6-1.24,0.6-2.16
			c0-0.61-0.17-1.15-0.51-1.61C94.85,10.79,94.4,10.56,93.86,10.56z"/>
	</g>
</g>
</svg>
