<?xml version="1.0" encoding="utf-8"?>
<!-- Generator: Adobe Illustrator 24.0.3, SVG Export Plug-In . SVG Version: 6.00 Build 0)  -->
<svg version="1.0" id="Layer_1" xmlns="http://www.w3.org/2000/svg" xmlns:xlink="http://www.w3.org/1999/xlink" x="0px" y="0px"
	 viewBox="0 0 72.71 48.89" style="enable-background:new 0 0 72.71 48.89;" xml:space="preserve">
<style type="text/css">
	.st0{fill:url(#SVGID_1_);}
	.st1{fill:#17516B;}
	.st2{fill:#3A7289;}
	.st3{opacity:0.8;fill:#2C6477;}
	.st4{clip-path:url(#SVGID_5_);fill:#FFFFFF;}
	.st5{clip-path:url(#SVGID_5_);fill:#BD0034;}
	.st6{clip-path:url(#SVGID_5_);fill:url(#SVGID_6_);}
	.st7{clip-path:url(#SVGID_5_);fill:url(#SVGID_7_);}
	.st8{clip-path:url(#SVGID_5_);fill:url(#SVGID_8_);}
	.st9{clip-path:url(#SVGID_5_);fill:url(#SVGID_9_);}
	.st10{clip-path:url(#SVGID_5_);fill:url(#SVGID_10_);}
	.st11{clip-path:url(#SVGID_5_);fill:url(#SVGID_11_);}
	.st12{clip-path:url(#SVGID_5_);fill:url(#SVGID_12_);}
	.st13{clip-path:url(#SVGID_5_);fill:url(#SVGID_13_);}
	.st14{fill:#F2F5F7;}
	.st15{fill:#A92807;}
	.st16{fill:#1E1D22;}
	.st17{clip-path:url(#SVGID_15_);}
	.st18{fill:#FFFFFF;}
	.st19{fill:none;stroke:#F2F5F7;}
	.st20{clip-path:url(#SVGID_19_);fill:#8EA1B2;}
	.st21{clip-path:url(#SVGID_19_);fill:#A92807;}
	.st22{clip-path:url(#SVGID_19_);fill:#384657;}
	.st23{clip-path:url(#SVGID_21_);}
	.st24{fill:#8EA1B2;}
	.st25{fill:#384657;}
	.st26{clip-path:url(#SVGID_25_);fill:#384657;}
	.st27{clip-path:url(#SVGID_25_);fill:#8EA1B2;}
	.st28{clip-path:url(#SVGID_25_);fill:#A92807;}
	.st29{clip-path:url(#SVGID_27_);}
	.st30{fill:#E1E4E5;}
	.st31{clip-path:url(#SVGID_31_);fill:#384657;}
	.st32{clip-path:url(#SVGID_31_);fill:#8EA1B2;}
	.st33{clip-path:url(#SVGID_31_);fill:#A92807;}
	.st34{clip-path:url(#SVGID_33_);}
	.st35{clip-path:url(#SVGID_37_);fill:#384657;}
	.st36{clip-path:url(#SVGID_37_);fill:#8EA1B2;}
	.st37{clip-path:url(#SVGID_37_);fill:#A92807;}
	.st38{clip-path:url(#SVGID_39_);}
	.st39{fill:#2A323C;}
	.st40{fill:#1F2529;}
	.st41{fill:#96A1AB;}
	.st42{clip-path:url(#SVGID_43_);fill:#D00027;}
	.st43{clip-path:url(#SVGID_43_);}
	.st44{clip-path:url(#SVGID_45_);fill:#FFFFFF;}
	.st45{clip-path:url(#SVGID_45_);fill:#D00027;}
	.st46{clip-path:url(#SVGID_47_);}
	.st47{clip-path:url(#SVGID_51_);}
	.st48{clip-path:url(#SVGID_55_);}
	.st49{opacity:0.4;clip-path:url(#SVGID_59_);}
	.st50{clip-path:url(#SVGID_61_);fill:#FFFFFF;}
	.st51{clip-path:url(#SVGID_59_);fill:#A92807;}
	.st52{clip-path:url(#SVGID_63_);fill:#FFFFFF;}
	.st53{opacity:0.5;}
	.st54{clip-path:url(#SVGID_65_);}
	.st55{filter:url(#Adobe_OpacityMaskFilter);}
	.st56{clip-path:url(#SVGID_67_);}
	.st57{enable-background:new    ;}
	.st58{opacity:0.1412;clip-path:url(#SVGID_67_);mask:url(#SVGID_68_);}
	.st59{clip-path:url(#SVGID_72_);}
	.st60{fill:none;stroke:#FFFFFF;stroke-width:3;stroke-linecap:round;stroke-linejoin:round;stroke-miterlimit:10;}
	.st61{opacity:0.502;}
	.st62{opacity:0.7;}
	.st63{clip-path:url(#SVGID_74_);fill:#D00027;}
	.st64{clip-path:url(#SVGID_74_);}
	.st65{clip-path:url(#SVGID_76_);fill:#FFFFFF;}
	.st66{clip-path:url(#SVGID_76_);fill:#D00027;}
	.st67{clip-path:url(#SVGID_78_);}
	.st68{clip-path:url(#SVGID_82_);}
	.st69{clip-path:url(#SVGID_86_);}
	.st70{clip-path:url(#SVGID_92_);}
	.st71{filter:url(#Adobe_OpacityMaskFilter_1_);}
	.st72{clip-path:url(#SVGID_94_);}
	.st73{opacity:0.1412;clip-path:url(#SVGID_94_);mask:url(#SVGID_95_);}
	.st74{clip-path:url(#SVGID_99_);}
	.st75{clip-path:url(#SVGID_101_);fill:#D00027;}
	.st76{clip-path:url(#SVGID_101_);}
	.st77{clip-path:url(#SVGID_103_);fill:#FFFFFF;}
	.st78{clip-path:url(#SVGID_103_);fill:#D00027;}
	.st79{clip-path:url(#SVGID_105_);}
	.st80{clip-path:url(#SVGID_109_);}
	.st81{clip-path:url(#SVGID_113_);}
	.st82{opacity:0.4;clip-path:url(#SVGID_117_);}
	.st83{clip-path:url(#SVGID_119_);fill:#FFFFFF;}
	.st84{clip-path:url(#SVGID_117_);fill:#A92807;}
	.st85{clip-path:url(#SVGID_121_);fill:#FFFFFF;}
	.st86{clip-path:url(#SVGID_123_);}
	.st87{fill:none;stroke:#FFFFFF;stroke-width:0.5;stroke-miterlimit:10;}
	.st88{opacity:0;fill:#3C464F;}
	.st89{opacity:3.960396e-03;fill:#3C464F;}
	.st90{opacity:7.920792e-03;fill:#3C464F;}
	.st91{opacity:0.0119;fill:#3C464F;}
	.st92{opacity:0.0158;fill:#3C464F;}
	.st93{opacity:0.0198;fill:#3C464F;}
	.st94{opacity:0.0238;fill:#3C464F;}
	.st95{opacity:0.0277;fill:#3C464F;}
	.st96{opacity:0.0317;fill:#3C464F;}
	.st97{opacity:0.0356;fill:#3C464F;}
	.st98{opacity:0.0396;fill:#3C464F;}
	.st99{opacity:0.0436;fill:#3C464F;}
	.st100{opacity:0.0475;fill:#3C464F;}
	.st101{opacity:0.0515;fill:#3C464F;}
	.st102{opacity:0.0554;fill:#3C464F;}
	.st103{opacity:0.0594;fill:#3C464F;}
	.st104{opacity:0.0634;fill:#3C464F;}
	.st105{opacity:0.0673;fill:#3C464F;}
	.st106{opacity:0.0713;fill:#3C464F;}
	.st107{opacity:0.0752;fill:#3C464F;}
	.st108{opacity:0.0792;fill:#3C464F;}
	.st109{opacity:0.0832;fill:#3C464F;}
	.st110{opacity:0.0871;fill:#3C464F;}
	.st111{opacity:0.0911;fill:#3C464F;}
	.st112{opacity:0.095;fill:#3C464F;}
	.st113{opacity:0.099;fill:#3C464F;}
	.st114{opacity:0.103;fill:#3C464F;}
	.st115{opacity:0.1069;fill:#3C464F;}
	.st116{opacity:0.1109;fill:#3C464F;}
	.st117{opacity:0.1149;fill:#3C464F;}
	.st118{opacity:0.1188;fill:#3C464F;}
	.st119{opacity:0.1228;fill:#3C464F;}
	.st120{opacity:0.1267;fill:#3C464F;}
	.st121{opacity:0.1307;fill:#3C464F;}
	.st122{opacity:0.1347;fill:#3C464F;}
	.st123{opacity:0.1386;fill:#3C464F;}
	.st124{opacity:0.1426;fill:#3C464F;}
	.st125{opacity:0.1465;fill:#3C464F;}
	.st126{opacity:0.1505;fill:#3C464F;}
	.st127{opacity:0.1545;fill:#3C464F;}
	.st128{opacity:0.1584;fill:#3C464F;}
	.st129{opacity:0.1624;fill:#3C464F;}
	.st130{opacity:0.1663;fill:#3C464F;}
	.st131{opacity:0.1703;fill:#3C464F;}
	.st132{opacity:0.1743;fill:#3C464F;}
	.st133{opacity:0.1782;fill:#3C464F;}
	.st134{opacity:0.1822;fill:#3C464F;}
	.st135{opacity:0.1861;fill:#3C464F;}
	.st136{opacity:0.1901;fill:#3C464F;}
	.st137{opacity:0.1941;fill:#3C464F;}
	.st138{opacity:0.198;fill:#3C464F;}
	.st139{opacity:0.202;fill:#3C464F;}
	.st140{opacity:0.2059;fill:#3C464F;}
	.st141{opacity:0.2099;fill:#3C464F;}
	.st142{opacity:0.2139;fill:#3C464F;}
	.st143{opacity:0.2178;fill:#3C464F;}
	.st144{opacity:0.2218;fill:#3C464F;}
	.st145{opacity:0.2257;fill:#3C464F;}
	.st146{opacity:0.2297;fill:#3C464F;}
	.st147{opacity:0.2337;fill:#3C464F;}
	.st148{opacity:0.2376;fill:#3C464F;}
	.st149{opacity:0.2416;fill:#3C464F;}
	.st150{opacity:0.2455;fill:#3C464F;}
	.st151{opacity:0.2495;fill:#3C464F;}
	.st152{opacity:0.2535;fill:#3C464F;}
	.st153{opacity:0.2574;fill:#3C464F;}
	.st154{opacity:0.2614;fill:#3C464F;}
	.st155{opacity:0.2653;fill:#3C464F;}
	.st156{opacity:0.2693;fill:#3C464F;}
	.st157{opacity:0.2733;fill:#3C464F;}
	.st158{opacity:0.2772;fill:#3C464F;}
	.st159{opacity:0.2812;fill:#3C464F;}
	.st160{opacity:0.2851;fill:#3C464F;}
	.st161{opacity:0.2891;fill:#3C464F;}
	.st162{opacity:0.2931;fill:#3C464F;}
	.st163{opacity:0.297;fill:#3C464F;}
	.st164{opacity:0.301;fill:#3C464F;}
	.st165{opacity:0.305;fill:#3C464F;}
	.st166{opacity:0.3089;fill:#3C464F;}
	.st167{opacity:0.3129;fill:#3C464F;}
	.st168{opacity:0.3168;fill:#3C464F;}
	.st169{opacity:0.3208;fill:#3C464F;}
	.st170{opacity:0.3248;fill:#3C464F;}
	.st171{opacity:0.3287;fill:#3C464F;}
	.st172{opacity:0.3327;fill:#3C464F;}
	.st173{opacity:0.3366;fill:#3C464F;}
	.st174{opacity:0.3406;fill:#3C464F;}
	.st175{opacity:0.3446;fill:#3C464F;}
	.st176{opacity:0.3485;fill:#3C464F;}
	.st177{opacity:0.3525;fill:#3C464F;}
	.st178{opacity:0.3564;fill:#3C464F;}
	.st179{opacity:0.3604;fill:#3C464F;}
	.st180{opacity:0.3644;fill:#3C464F;}
	.st181{opacity:0.3683;fill:#3C464F;}
	.st182{opacity:0.3723;fill:#3C464F;}
	.st183{opacity:0.3762;fill:#3C464F;}
	.st184{opacity:0.3802;fill:#3C464F;}
	.st185{opacity:0.3842;fill:#3C464F;}
	.st186{opacity:0.3881;fill:#3C464F;}
	.st187{opacity:0.3921;fill:#3C464F;}
	.st188{opacity:0.396;fill:#3C464F;}
	.st189{opacity:0.4;fill:#3C464F;}
	.st190{fill:none;stroke:#7EA1B1;stroke-width:3;stroke-linecap:round;stroke-linejoin:round;}
	.st191{fill:none;stroke:#7EA1B1;stroke-width:3;stroke-linecap:round;stroke-linejoin:round;stroke-dasharray:6.859,6.859;}
	.st192{fill:none;stroke:#7EA1B1;stroke-width:3;stroke-linecap:round;stroke-linejoin:round;stroke-dasharray:7.5157,7.5157;}
	.st193{fill:none;stroke:#7EA1B1;stroke-width:3;stroke-linecap:round;stroke-linejoin:round;stroke-dasharray:8.4421,8.4421;}
	.st194{fill:none;stroke:#7EA1B1;stroke-width:3;stroke-linecap:round;stroke-linejoin:round;stroke-dasharray:8.7883,8.7883;}
	.st195{fill:none;stroke:#7EA1B1;stroke-width:3;stroke-linecap:round;stroke-linejoin:round;stroke-dasharray:8.9317,8.9317;}
	.st196{fill:none;stroke:#7EA1B1;stroke-width:3;stroke-linecap:round;stroke-linejoin:round;stroke-dasharray:7.9659,7.9659;}
	.st197{fill:none;stroke:#7EA1B1;stroke-width:3;stroke-linecap:round;stroke-linejoin:round;stroke-dasharray:8.532,8.532;}
	.st198{fill:#C5C5C5;}
	.st199{fill:none;stroke:#7EA1B1;stroke-width:3;stroke-linecap:round;stroke-linejoin:round;stroke-dasharray:5.9487,5.9487;}
	.st200{fill:none;stroke:#7EA1B1;stroke-width:3;stroke-linecap:round;stroke-linejoin:round;stroke-dasharray:8.8035,8.8035;}
	.st201{fill:none;stroke:#7EA1B1;stroke-width:3;stroke-linecap:round;stroke-linejoin:round;stroke-dasharray:8.4073,8.4073;}
	.st202{fill:none;stroke:#7EA1B1;stroke-width:3;stroke-linecap:round;stroke-linejoin:round;stroke-dasharray:6.2046,6.2046;}
	.st203{fill:none;stroke:#7EA1B1;stroke-width:3;stroke-linecap:round;stroke-linejoin:round;stroke-dasharray:7.9457,7.9457;}
	.st204{fill:none;stroke:#7EA1B1;stroke-width:3;stroke-linecap:round;stroke-linejoin:round;stroke-dasharray:8.4145,8.4145;}
	.st205{fill:none;stroke:#7EA1B1;stroke-width:3;stroke-linecap:round;stroke-linejoin:round;stroke-dasharray:7.2825,7.2825;}
	.st206{fill:none;stroke:#7EA1B1;stroke-width:3;stroke-linecap:round;stroke-linejoin:round;stroke-dasharray:7.4081,7.4081;}
	.st207{fill:none;stroke:#7EA1B1;stroke-width:3;stroke-linecap:round;stroke-linejoin:round;stroke-dasharray:8.0493,8.0493;}
	.st208{fill:none;stroke:#7EA1B1;stroke-width:3;stroke-linecap:round;stroke-linejoin:round;stroke-dasharray:8.1454,8.1454;}
	.st209{fill:none;stroke:#7EA1B1;stroke-width:3;stroke-linecap:round;stroke-linejoin:round;stroke-dasharray:8.0164,8.0164;}
	.st210{fill:#7EA1B1;}
	.st211{fill:none;stroke:#7EA1B1;stroke-width:3;stroke-linecap:round;stroke-linejoin:round;stroke-miterlimit:10;}
	.st212{fill:#2F2F2F;}
	.st213{fill:#00B5B5;}
	.st214{fill:url(#SVGID_124_);}
	.st215{fill:#12407D;}
	.st216{fill:#0D78C4;}
	.st217{fill-rule:evenodd;clip-rule:evenodd;fill:#0F53FF;}
	.st218{filter:url(#Adobe_OpacityMaskFilter_2_);}
	.st219{clip-path:url(#SVGID_128_);}
	.st220{clip-path:url(#SVGID_131_);}
	.st221{clip-path:url(#SVGID_133_);}
	.st222{clip-path:url(#SVGID_128_);mask:url(#SVGID_129_);enable-background:new    ;}
	.st223{clip-path:url(#SVGID_135_);fill-rule:evenodd;clip-rule:evenodd;fill:#0F53FF;}
	.st224{filter:url(#Adobe_OpacityMaskFilter_3_);}
	.st225{clip-path:url(#SVGID_138_);}
	.st226{clip-path:url(#SVGID_138_);fill-rule:evenodd;clip-rule:evenodd;fill:#FFFFFF;}
	.st227{clip-path:url(#SVGID_128_);mask:url(#SVGID_136_);enable-background:new    ;}
	.st228{clip-path:url(#SVGID_140_);fill-rule:evenodd;clip-rule:evenodd;fill:#0F53FF;}
	.st229{clip-path:url(#SVGID_142_);fill:url(#SVGID_143_);}
	.st230{clip-path:url(#SVGID_145_);fill:url(#SVGID_146_);}
	.st231{clip-path:url(#SVGID_148_);fill:url(#SVGID_149_);}
	.st232{clip-path:url(#SVGID_151_);fill:url(#SVGID_152_);}
	.st233{clip-path:url(#SVGID_154_);fill:url(#SVGID_155_);}
	.st234{clip-path:url(#SVGID_157_);fill:url(#SVGID_158_);}
	.st235{clip-path:url(#SVGID_160_);fill:url(#SVGID_161_);}
	.st236{clip-path:url(#SVGID_163_);fill:url(#SVGID_164_);}
	.st237{fill:url(#SVGID_165_);}
	.st238{fill:url(#SVGID_166_);}
	.st239{fill:url(#SVGID_167_);}
	.st240{fill:url(#SVGID_168_);}
	.st241{fill:url(#SVGID_169_);}
	.st242{fill:url(#SVGID_170_);}
	.st243{fill:url(#SVGID_171_);}
	.st244{fill:url(#SVGID_172_);}
	.st245{fill:url(#SVGID_173_);}
	.st246{fill:url(#SVGID_174_);}
	.st247{fill:url(#SVGID_175_);}
	.st248{fill:url(#SVGID_176_);}
	.st249{fill:url(#SVGID_177_);}
	.st250{fill:url(#SVGID_178_);}
	.st251{fill:url(#SVGID_179_);}
	.st252{fill:url(#SVGID_180_);}
	.st253{fill:url(#SVGID_181_);}
	.st254{fill:url(#SVGID_182_);}
	.st255{fill:url(#SVGID_183_);}
	.st256{fill:url(#SVGID_184_);}
	.st257{fill:url(#SVGID_185_);}
	.st258{fill:#A89968;}
	.st259{fill:url(#SVGID_186_);}
	.st260{fill:#C4001C;}
	.st261{fill:#282826;}
	.st262{fill:#2D72D7;}
	.st263{fill:#E8E8E8;}
	.st264{opacity:0.7;fill:none;stroke:#6096A5;}
	.st265{opacity:0.9;}
	.st266{fill:none;}
	.st267{fill-rule:evenodd;clip-rule:evenodd;fill:none;}
	.st268{opacity:0.62;fill:url(#SVGID_187_);}
	.st269{opacity:0.62;fill:url(#SVGID_188_);}
	.st270{opacity:0.62;fill:url(#SVGID_189_);}
	.st271{opacity:0.62;fill:url(#SVGID_190_);}
	.st272{opacity:0.62;fill:url(#SVGID_191_);}
	.st273{opacity:0.62;fill:url(#SVGID_192_);}
	.st274{fill:url(#SVGID_193_);}
	.st275{fill:url(#SVGID_194_);}
	.st276{fill:url(#SVGID_195_);}
	.st277{fill:url(#SVGID_196_);}
	.st278{fill:url(#SVGID_197_);}
	.st279{fill:url(#SVGID_198_);}
	.st280{fill:url(#SVGID_199_);}
	.st281{fill:url(#SVGID_200_);}
	.st282{fill:url(#SVGID_201_);}
	.st283{fill:url(#SVGID_202_);}
	.st284{fill:url(#SVGID_203_);}
	.st285{fill:url(#SVGID_204_);}
	.st286{fill:url(#SVGID_205_);}
	.st287{fill:url(#SVGID_206_);}
	.st288{fill:url(#SVGID_207_);}
	.st289{fill:url(#SVGID_208_);}
	.st290{fill:url(#SVGID_209_);}
	.st291{fill:url(#SVGID_210_);}
	.st292{fill:url(#SVGID_211_);}
	.st293{fill:url(#SVGID_212_);}
	.st294{fill:url(#SVGID_213_);}
	.st295{fill:url(#SVGID_214_);}
	.st296{fill:url(#SVGID_215_);}
	.st297{fill:url(#SVGID_216_);}
	.st298{fill:url(#SVGID_217_);}
	.st299{fill:url(#SVGID_218_);}
	.st300{fill:url(#SVGID_219_);}
	.st301{fill:url(#SVGID_220_);}
	.st302{fill:url(#SVGID_221_);}
	.st303{fill:url(#SVGID_222_);}
	.st304{fill:url(#SVGID_223_);}
	.st305{fill:url(#SVGID_224_);}
	.st306{fill:url(#SVGID_225_);}
	.st307{fill:url(#SVGID_226_);}
	.st308{fill:url(#SVGID_227_);}
	.st309{fill:url(#SVGID_228_);}
	.st310{fill:#0078BA;}
	.st311{fill:url(#SVGID_229_);}
	.st312{fill:url(#SVGID_230_);}
	.st313{fill:#B70000;}
	.st314{fill:url(#SVGID_231_);}
	.st315{fill:url(#SVGID_232_);}
	.st316{fill:url(#SVGID_233_);}
	.st317{fill:url(#SVGID_234_);}
	.st318{fill:url(#SVGID_235_);}
	.st319{fill:url(#SVGID_236_);}
	.st320{fill:url(#SVGID_237_);}
	.st321{fill:url(#SVGID_238_);}
	.st322{fill:none;stroke:#3F3F3F;stroke-width:0.5;stroke-miterlimit:10;}
	.st323{clip-path:url(#SVGID_256_);fill:url(#SVGID_257_);}
	.st324{clip-path:url(#SVGID_259_);fill:url(#SVGID_260_);}
	.st325{clip-path:url(#SVGID_262_);fill:url(#SVGID_263_);}
	.st326{clip-path:url(#SVGID_265_);fill:url(#SVGID_266_);}
	.st327{clip-path:url(#SVGID_268_);fill:url(#SVGID_269_);}
	.st328{clip-path:url(#SVGID_271_);fill:url(#SVGID_272_);}
	.st329{clip-path:url(#SVGID_274_);fill:url(#SVGID_275_);}
	.st330{clip-path:url(#SVGID_277_);fill:url(#SVGID_278_);}
	.st331{fill:url(#SVGID_279_);}
	.st332{fill:url(#SVGID_280_);}
	.st333{fill:url(#SVGID_281_);}
	.st334{fill:url(#SVGID_282_);}
	.st335{fill:url(#SVGID_283_);}
	.st336{fill:url(#SVGID_284_);}
	.st337{fill:url(#SVGID_285_);}
	.st338{fill:url(#SVGID_286_);}
	.st339{fill:url(#SVGID_287_);}
	.st340{fill:url(#SVGID_288_);}
	.st341{fill:url(#SVGID_289_);}
	.st342{fill:url(#SVGID_290_);}
	.st343{fill:url(#SVGID_291_);}
	.st344{fill:url(#SVGID_292_);}
	.st345{fill:url(#SVGID_293_);}
	.st346{fill:url(#SVGID_294_);}
	.st347{fill:url(#SVGID_295_);}
	.st348{fill:url(#SVGID_296_);}
	.st349{fill:url(#SVGID_297_);}
	.st350{fill:url(#SVGID_298_);}
	.st351{fill:url(#SVGID_299_);}
	.st352{fill:url(#SVGID_300_);}
	.st353{fill:url(#SVGID_301_);}
	.st354{fill:url(#SVGID_302_);}
	.st355{fill:url(#SVGID_303_);}
	.st356{fill:url(#SVGID_304_);}
	.st357{fill:url(#SVGID_305_);}
	.st358{fill:url(#SVGID_306_);}
	.st359{fill:url(#SVGID_307_);}
	.st360{filter:url(#Adobe_OpacityMaskFilter_4_);}
	.st361{clip-path:url(#SVGID_325_);}
	.st362{clip-path:url(#SVGID_328_);}
	.st363{clip-path:url(#SVGID_330_);}
	.st364{clip-path:url(#SVGID_325_);mask:url(#SVGID_326_);enable-background:new    ;}
	.st365{clip-path:url(#SVGID_332_);fill-rule:evenodd;clip-rule:evenodd;fill:#0F53FF;}
	.st366{filter:url(#Adobe_OpacityMaskFilter_5_);}
	.st367{clip-path:url(#SVGID_335_);}
	.st368{clip-path:url(#SVGID_335_);fill-rule:evenodd;clip-rule:evenodd;fill:#FFFFFF;}
	.st369{clip-path:url(#SVGID_325_);mask:url(#SVGID_333_);enable-background:new    ;}
	.st370{clip-path:url(#SVGID_337_);fill-rule:evenodd;clip-rule:evenodd;fill:#0F53FF;}
	.st371{clip-path:url(#SVGID_339_);fill:url(#SVGID_340_);}
	.st372{clip-path:url(#SVGID_342_);fill:url(#SVGID_343_);}
	.st373{clip-path:url(#SVGID_345_);fill:url(#SVGID_346_);}
	.st374{clip-path:url(#SVGID_348_);fill:url(#SVGID_349_);}
	.st375{clip-path:url(#SVGID_351_);fill:url(#SVGID_352_);}
	.st376{clip-path:url(#SVGID_354_);fill:url(#SVGID_355_);}
	.st377{clip-path:url(#SVGID_357_);fill:url(#SVGID_358_);}
	.st378{clip-path:url(#SVGID_360_);fill:url(#SVGID_361_);}
	.st379{fill:url(#SVGID_362_);}
	.st380{fill:url(#SVGID_363_);}
	.st381{fill:url(#SVGID_364_);}
	.st382{fill:url(#SVGID_365_);}
	.st383{fill:url(#SVGID_366_);}
	.st384{fill:url(#SVGID_367_);}
	.st385{fill:url(#SVGID_368_);}
	.st386{fill:url(#SVGID_369_);}
	.st387{fill:url(#SVGID_370_);}
	.st388{fill:url(#SVGID_371_);}
	.st389{fill:url(#SVGID_372_);}
	.st390{fill:url(#SVGID_373_);}
	.st391{fill:url(#SVGID_374_);}
	.st392{fill:url(#SVGID_375_);}
	.st393{fill:url(#SVGID_376_);}
	.st394{fill:url(#SVGID_377_);}
	.st395{fill:url(#SVGID_378_);}
	.st396{fill:url(#SVGID_379_);}
	.st397{fill:url(#SVGID_380_);}
	.st398{fill:url(#SVGID_381_);}
	.st399{fill:url(#SVGID_382_);}
	.st400{fill:url(#SVGID_383_);}
	.st401{fill:url(#SVGID_384_);}
	.st402{fill:url(#SVGID_385_);}
	.st403{fill:url(#SVGID_386_);}
	.st404{fill:url(#SVGID_387_);}
	.st405{fill:url(#SVGID_388_);}
	.st406{fill:url(#SVGID_389_);}
	.st407{fill:url(#SVGID_390_);}
	.st408{fill:url(#SVGID_391_);}
	.st409{fill:url(#SVGID_392_);}
	.st410{fill:url(#SVGID_393_);}
	.st411{fill:url(#SVGID_394_);}
	.st412{fill:url(#SVGID_395_);}
	.st413{fill:url(#SVGID_396_);}
	.st414{fill:url(#SVGID_397_);}
	.st415{fill:url(#SVGID_398_);}
	.st416{fill:url(#SVGID_399_);}
	.st417{fill:url(#SVGID_400_);}
	.st418{fill:url(#SVGID_401_);}
	.st419{fill:url(#SVGID_402_);}
	.st420{fill:url(#SVGID_403_);}
	.st421{fill:url(#SVGID_404_);}
	.st422{fill:url(#SVGID_405_);}
	.st423{fill:url(#SVGID_406_);}
	.st424{fill:url(#SVGID_407_);}
	.st425{fill:url(#SVGID_408_);}
	.st426{fill:url(#SVGID_409_);}
	.st427{fill:url(#SVGID_410_);}
	.st428{fill:url(#SVGID_411_);}
	.st429{fill:url(#SVGID_412_);}
	.st430{fill:url(#SVGID_413_);}
	.st431{fill:url(#SVGID_414_);}
	.st432{fill:url(#SVGID_415_);}
</style>
<g>
	<g id="_x34_5jIDg.tif_5_">
		<g>
			<linearGradient id="SVGID_1_" gradientUnits="userSpaceOnUse" x1="16.2613" y1="15.9906" x2="56.541" y2="15.9906">
				<stop  offset="0" style="stop-color:#C4001C"/>
				<stop  offset="0.9997" style="stop-color:#000000"/>
				<stop  offset="1" style="stop-color:#000000"/>
			</linearGradient>
			<path class="st0" d="M46.61,5.95c-0.72-0.07-1.44-0.13-2.16-0.2c-0.01,0.03-0.02,0.06-0.02,0.09c0.1,0.05,0.2,0.11,0.31,0.14
				c0.62,0.19,1.25,0.36,1.87,0.57c0.33,0.11,0.68,0.23,0.95,0.44c0.55,0.44,1.16,0.61,1.84,0.71c0.43,0.07,0.83,0.28,1.26,0.4
				c0.4,0.11,0.81,0.17,1.22,0.24c0.25,0.04,0.5,0.06,0.74,0.1c0.23,0.04,0.35,0.18,0.39,0.4c0.05,0.36,0.09,0.72,0.2,1.11
				c0.06-0.22,0.11-0.44,0.18-0.7c0.23,0.02,0.48,0.05,0.73,0.07c0.2,0.02,0.4,0.05,0.6,0.05c0.46,0,0.73-0.24,0.73-0.71
				c-0.01-0.53-0.08-1.06-0.13-1.59c0-0.05-0.01-0.1-0.03-0.22c0.08,0.11,0.12,0.17,0.15,0.23c0.44,0.76,0.87,1.53,1.06,2.4
				c0.04,0.18,0.06,0.36,0.05,0.55c-0.01,0.58-0.36,0.91-0.88,1.05c-0.41,0.11-0.84,0.16-1.26,0.21c-0.39,0.04-0.79,0.02-1.18,0.05
				c-0.21,0.02-0.28-0.06-0.3-0.26c-0.02-0.18-0.06-0.36-0.11-0.54c-0.03-0.1-0.12-0.17-0.18-0.26c-0.03,0.01-0.05,0.02-0.08,0.03
				c0.02,0.22,0.04,0.44,0.05,0.66c0.05,0.73,0.12,1.45,0.13,2.18c0,0.33-0.1,0.68-0.18,1.01c-0.09,0.36-0.42,0.64-0.87,0.61
				c-0.33-0.02-0.65-0.01-0.98-0.01c-0.08,0-0.15,0.02-0.23,0.03c-0.01,0.03-0.01,0.05-0.02,0.08c0.32,0.15,0.64,0.3,0.98,0.45
				c-0.06,0.14-0.1,0.27-0.17,0.37c-0.35,0.5-0.52,1.07-0.65,1.65c-0.06,0.26,0,0.57,0.05,0.84c0.07,0.38,0.19,0.76,0.29,1.14
				c0.12,0.46,0.05,0.62-0.32,0.91c-0.5,0.39-0.98,0.8-1.5,1.17c-0.13,0.09-0.36,0.11-0.52,0.07c-0.26-0.07-0.52-0.19-0.74-0.34
				c-0.35-0.23-0.7-0.38-1.13-0.33c-0.3,0.03-0.61-0.33-0.66-0.73c-0.05-0.41,0.1-0.73,0.43-0.95c0.15-0.1,0.16-0.21,0.11-0.36
				c-0.09-0.29-0.16-0.59-0.25-0.92c0.54,0.1,1.04,0.31,1.59,0.12c-0.09-0.03-0.18-0.06-0.26-0.09c-1.13-0.37-2.15-0.93-2.91-1.88
				c-0.23-0.29-0.43-0.62-0.57-0.97c-0.33-0.79-0.11-1.58,0.57-2.11c0.29-0.23,0.63-0.4,0.99-0.63c-0.16,0.03-0.27,0.04-0.38,0.06
				c-0.93,0.26-1.63,0.77-1.79,1.78c-0.12,0.71,0,1.41,0.34,2.05c0.25,0.46,0.16,0.91,0.06,1.36c-0.27,1.26-0.69,2.46-1.44,3.53
				c-0.01,0.02-0.02,0.04,0.01,0.11c0.13-0.1,0.27-0.19,0.39-0.31c0.63-0.62,1.05-1.39,1.4-2.19c0.2-0.44,0.36-0.9,0.54-1.36
				c0.25,0.17,0.51,0.34,0.75,0.53c0.04,0.03,0.05,0.13,0.04,0.19c-0.09,0.3-0.17,0.59-0.28,0.88c-0.13,0.35-0.18,0.7-0.13,1.08
				c0.11,0.78,0.17,1.56,0.26,2.34c0.02,0.13,0.07,0.27,0.15,0.39c0.65,1.02,1.28,2.04,1.96,3.04c0.27,0.39,0.62,0.73,0.94,1.08
				c0.39,0.42,0.8,0.81,1.17,1.24c0.54,0.64,0.75,1.39,0.56,2.23c-0.01,0.05-0.03,0.09-0.07,0.19c-0.38-0.41-0.74-0.8-1.11-1.19
				c-0.03,0.01-0.05,0.01-0.08,0.02c0,0.15,0.03,0.31-0.01,0.45c-0.06,0.27-0.14,0.55-0.23,0.81c-0.06,0.19-0.2,0.24-0.39,0.15
				c-0.7-0.32-1.4-0.64-2.12-0.92c-0.3-0.12-0.45-0.27-0.55-0.58c-0.19-0.6-0.22-1.19-0.14-1.8c0.03-0.22-0.02-0.5-0.13-0.69
				c-0.58-1.02-1.49-1.55-2.65-1.68c-0.04,0-0.08-0.01-0.17-0.02c0.69-1.46,1.42-2.89,1.51-4.53c-0.06,0.1-0.11,0.2-0.17,0.29
				c-0.65,1.1-1.29,2.21-1.97,3.3c-0.2,0.33-0.51,0.6-0.79,0.87c-0.11,0.11-0.28,0.18-0.44,0.23c-0.19,0.05-0.42-0.09-0.44-0.27
				c-0.11-0.79-0.23-1.59-0.31-2.38c-0.04-0.42-0.01-0.83,0.17-1.23c0.03-0.07-0.01-0.19-0.05-0.27c-0.6-0.97-1.19-1.94-1.8-2.9
				c-0.16-0.25-0.19-0.41,0.02-0.66c0.55-0.68,0.72-1.47,0.62-2.33c-0.01-0.07-0.04-0.14-0.07-0.27c-0.08,0.24-0.13,0.42-0.19,0.6
				c-0.27,0.77-0.79,1.37-1.38,1.92c-0.37,0.34-0.32,0.22-0.06,0.61c0.61,0.9,1.23,1.8,1.84,2.7c0.26,0.38,0.35,0.79,0.35,1.27
				c0.01,0.86,0.14,1.71,0.21,2.57c0.04,0.56,0.08,1.12,0.07,1.68c0,0.43-0.16,0.62-0.56,0.83c0.24,1.12,0.18,2.2-0.47,3.2
				c-0.25,0.39-0.59,0.68-0.88,0.79c-0.03-0.41,0.23-0.81,0.02-1.24c-0.41,0.32-0.86,0.54-1.36,0.61c-0.07,0.01-0.15,0.02-0.22,0.03
				c-0.44,0.03-0.5-0.04-0.5-0.47c0-0.85,0.02-1.69-0.02-2.54c-0.03-0.7,0.27-1.15,0.85-1.47c0.15-0.08,0.19-0.16,0.18-0.34
				c0-0.23,0.08-0.47,0.18-0.69c0.11-0.24,0.28-0.45,0.42-0.68c0.15-0.25,0.17-0.5,0.08-0.79c-0.25-0.81-0.82-1.36-1.5-1.79
				c-0.7-0.45-1.45-0.83-2.19-1.23c-0.16-0.08-0.22-0.17-0.24-0.36c-0.08-0.96-0.31-1.88-0.75-2.74c-0.1-0.19-0.25-0.36-0.38-0.54
				c-0.02,0.01-0.04,0.02-0.07,0.04c0.01,0.04,0,0.09,0.02,0.12c0.36,0.9,0.4,1.84,0.32,2.79c-0.03,0.35-0.04,0.7-0.07,1.05
				c-0.01,0.14,0.03,0.2,0.19,0.22c0.64,0.08,1.27,0.2,1.85,0.52c0.32,0.18,0.61,0.39,0.66,0.82c-0.16-0.03-0.31-0.05-0.45-0.07
				c-1.23-0.14-2.26,0.3-3.18,1.07c-0.08,0.06-0.13,0.17-0.16,0.27c-0.2,0.77-0.39,1.54-0.57,2.31c-0.03,0.14-0.03,0.31,0.03,0.43
				c0.34,0.66,0.69,1.3,1.05,1.94c0.06,0.1,0.18,0.17,0.29,0.24c0.64,0.42,1.28,0.85,1.73,1.47c0.17,0.23,0.27,0.51,0.4,0.78
				c0.03,0.07,0.02,0.15,0.04,0.27c-0.53-0.17-1.02-0.32-1.51-0.48c-0.01,0.02-0.03,0.04-0.04,0.06c0.15,0.17,0.32,0.33,0.45,0.52
				c0.13,0.18,0.26,0.37,0.32,0.58c0.06,0.21-0.02,0.26-0.24,0.21c-1.04-0.22-2.07-0.44-3.11-0.65c-0.2-0.04-0.3-0.11-0.31-0.33
				c-0.02-0.32-0.08-0.65-0.14-0.97c-0.02-0.11-0.07-0.22-0.12-0.32c-0.69-1.22-1.61-2.22-2.85-2.92c0.25-0.18,0.49-0.33,0.71-0.51
				c0.36-0.32,0.67-0.68,0.77-1.18c0.02-0.1-0.01-0.25-0.08-0.34c-0.29-0.35-0.59-0.68-0.93-1.06c0.52-0.02,1-0.03,1.49-0.05
				c0.47-0.02,0.94-0.03,1.38-0.19c0-0.03,0-0.05,0-0.08c-0.99-0.15-1.98-0.3-3.01-0.45c0.51-0.6,0.83-1.25,1.03-1.95
				c-0.04-0.04-0.08-0.07-0.12-0.11c-0.05,0.09-0.07,0.2-0.14,0.27c-1.03,1.06-2.1,2.07-3.39,2.82c-1.41,0.82-2.93,1.2-4.56,1.11
				c-0.03,0-0.05,0-0.08-0.01c-0.6-0.08-0.69,0.01-0.74,0.62c-0.07,0.83,0.18,1.6,0.46,2.37c0.12,0.33,0.28,0.59,0.6,0.78
				c0.6,0.38,0.87,0.97,0.9,1.68c0.01,0.29,0,0.59,0,0.96c-0.49-0.36-0.95-0.69-1.43-1.04c-0.03,0.52-0.06,0.98-0.09,1.5
				c-0.38-0.18-0.76-0.33-1.1-0.55c-0.76-0.49-1.5-1.01-2.24-1.53c-0.05-0.04-0.09-0.16-0.07-0.22c0.44-1.17,0.39-2.39,0.28-3.6
				c-0.08-0.91-0.27-1.82-0.4-2.72c0-0.02,0.01-0.05,0.01-0.08c1.14-0.02,1.65-0.86,2.11-1.7c0.45-0.83,0.78-1.72,1.17-2.57
				c0.21-0.46,0.46-0.89,0.92-1.23c-0.41,1.2-0.3,2.38-0.18,3.55c0.03,0,0.06,0,0.09,0c0-0.1,0-0.2,0-0.3
				c-0.02-1.37,0.16-2.7,0.87-3.89c0.45-0.75,0.98-1.44,1.47-2.16c0.05-0.07,0.1-0.15,0.16-0.22c-0.01-0.02-0.03-0.04-0.04-0.06
				c-0.13,0.05-0.28,0.08-0.4,0.14c-0.29,0.15-0.57,0.32-0.85,0.49c-0.22,0.14-0.4,0.11-0.59-0.06c-0.41-0.37-0.6-0.84-0.63-1.38
				c-0.06-1.11,0.33-2.12,0.74-3.12c0.35-0.85,0.88-1.58,1.66-2.09c0.62-0.4,1.31-0.56,2.04-0.63C26.4,7.85,27.97,8,29.55,8.02
				c0.5,0.01,1-0.06,1.49-0.14c0.47-0.08,0.9-0.33,1.18-0.71c0.56-0.74,1.07-1.52,1.59-2.29c0.05-0.07,0.05-0.19,0.04-0.29
				c-0.09-1.17,0.34-2.12,1.26-2.8c0.85-0.64,1.75-1.19,2.63-1.78c0.03,0.02,0.05,0.04,0.08,0.06c-0.06,0.32-0.1,0.64-0.17,0.95
				c-0.25,1.11-0.64,2.17-1.38,3.06c-0.37,0.45-0.82,0.8-1.48,0.94c0.47-1.2,1.01-2.31,1.72-3.36c-0.07,0.04-0.14,0.08-0.21,0.12
				c-0.56,0.41-0.96,0.96-1.28,1.56c-0.38,0.71-0.73,1.43-1.11,2.14c-0.61,1.13-1.35,2.16-2.41,2.92c-0.98,0.71-2.09,1.04-3.3,0.99
				c-0.86-0.04-1.72-0.11-2.58-0.14c-1.01-0.03-1.97,0.17-2.76,0.86c-0.62,0.54-0.9,1.25-1,2.05c-0.03,0.27-0.05,0.55-0.01,0.82
				c0.09,0.5,0.43,0.75,0.93,0.73c0.33-0.01,0.64-0.06,0.91-0.33c0.4-0.4,0.93-0.59,1.47-0.73c0.75-0.19,1.52-0.32,2.28-0.47
				c0.08-0.02,0.16,0,0.33,0c-0.64,0.51-1.23,0.97-1.81,1.43c0.01,0.02,0.03,0.04,0.04,0.07c0.11-0.04,0.23-0.08,0.33-0.13
				c0.65-0.34,1.28-0.69,1.93-1.01c0.65-0.33,1.29-0.66,1.96-0.94c1.4-0.58,2.56-1.51,3.66-2.52c0.89-0.82,1.8-1.6,2.73-2.37
				c0.4-0.33,0.87-0.6,1.3-0.89c-0.11,0.28-0.25,0.54-0.31,0.81c-0.06,0.28-0.05,0.58-0.07,0.87c0.03,0.01,0.05,0.02,0.08,0.03
				c0.05-0.07,0.1-0.13,0.15-0.2c0.41-0.59,0.75-1.25,1.25-1.75c1-1.02,2.21-1.68,3.7-1.62c1.23,0.05,2.29,0.53,3.22,1.3
				c0.24,0.2,0.47,0.43,0.7,0.64C46.62,5.89,46.61,5.92,46.61,5.95z M43.39,6.76c-0.01-0.01-0.02-0.02-0.03-0.03
				c-0.29,0.31-0.6,0.61-0.88,0.93c-0.39,0.43-0.72,0.91-0.82,1.5c-0.1,0.59-0.12,1.17,0.44,1.59c0.42,0.32,0.9,0.55,1.42,0.56
				c1.21,0.04,2.42,0.04,3.64,0.06c0.24,0,0.42-0.09,0.52-0.29c0.1-0.21,0.19-0.45,0.21-0.68c0.03-0.43-0.3-0.85-0.65-0.85
				c-0.25,0-0.5,0.03-0.75,0.04c-0.98,0.06-1.95,0.13-2.93,0.18c-0.45,0.02-0.73-0.23-0.72-0.68c0-0.36,0.04-0.74,0.13-1.09
				C43.06,7.58,43.24,7.17,43.39,6.76z M48.65,15.73c0.22-0.31,0.21-0.64,0.25-0.95c0.02-0.16-0.05-0.2-0.2-0.24
				c-0.43-0.11-0.86-0.25-1.29-0.39c-0.23-0.07-0.27-0.24-0.15-0.43c0.11-0.17,0.23-0.34,0.35-0.5c-0.49,0.1-1.15,0.88-1.13,1.36
				c0,0.05,0.08,0.12,0.13,0.14c0.48,0.15,0.95,0.3,1.44,0.42c0.24,0.06,0.45,0.11,0.48,0.41C48.53,15.61,48.59,15.65,48.65,15.73z"
				/>
		</g>
	</g>
	<g>
		<g>
			<path class="st260" d="M2.49,48.38h1.94V36.46H3.42c-0.23,0-0.49,0.02-0.78,0.06c-0.29,0.04-0.58,0.15-0.88,0.34
				c-0.3,0.19-0.58,0.48-0.85,0.88c-0.27,0.4-0.51,0.96-0.71,1.67H0v-3.19h10.6v3.19h-0.19c-0.2-0.71-0.43-1.26-0.71-1.67
				c-0.27-0.4-0.56-0.69-0.85-0.88c-0.3-0.19-0.59-0.3-0.88-0.34c-0.29-0.04-0.55-0.06-0.78-0.06H6.17v11.93h1.94v0.24H2.49V48.38z"
				/>
			<path class="st260" d="M10.62,42.4c0-0.93,0.18-1.79,0.55-2.58c0.37-0.79,0.84-1.48,1.41-2.06c0.58-0.58,1.22-1.04,1.94-1.37
				s1.44-0.5,2.16-0.5c0.77,0,1.51,0.17,2.24,0.5c0.73,0.33,1.37,0.79,1.94,1.37c0.57,0.58,1.03,1.27,1.37,2.06
				c0.34,0.79,0.51,1.65,0.51,2.58c0,0.81-0.16,1.61-0.47,2.39c-0.31,0.78-0.74,1.47-1.29,2.07c-0.55,0.6-1.19,1.09-1.93,1.46
				c-0.74,0.37-1.53,0.56-2.38,0.56c-0.87,0-1.68-0.18-2.42-0.54c-0.74-0.36-1.39-0.84-1.93-1.44c-0.54-0.6-0.96-1.29-1.26-2.07
				C10.77,44.05,10.62,43.24,10.62,42.4z M12.63,42.4c0,1.05,0.07,1.96,0.21,2.74c0.14,0.78,0.37,1.43,0.7,1.95
				c0.33,0.52,0.74,0.91,1.26,1.17c0.51,0.26,1.14,0.38,1.9,0.38c0.74,0,1.37-0.13,1.89-0.38c0.52-0.26,0.94-0.65,1.26-1.17
				c0.33-0.52,0.56-1.17,0.7-1.95c0.14-0.78,0.21-1.69,0.21-2.74c0-0.8-0.05-1.58-0.16-2.33c-0.1-0.75-0.3-1.42-0.6-2.01
				c-0.3-0.59-0.71-1.05-1.24-1.4c-0.53-0.35-1.22-0.52-2.07-0.52c-0.85,0-1.54,0.17-2.07,0.52c-0.53,0.35-0.94,0.82-1.24,1.4
				c-0.3,0.59-0.5,1.26-0.6,2.01C12.68,40.82,12.63,41.6,12.63,42.4z"/>
			<path class="st260" d="M21.47,48.38h1.94V36.46h-1.94v-0.24h3.31c0.14,0,0.28,0,0.42-0.01c0.14-0.01,0.28-0.01,0.42-0.03
				c0.14,0,0.28,0,0.42-0.01c0.14-0.01,0.28-0.01,0.42-0.01c0.69,0,1.29,0.04,1.81,0.11c0.52,0.08,1.01,0.29,1.46,0.65
				c0.41,0.31,0.69,0.67,0.86,1.06c0.17,0.4,0.25,0.77,0.25,1.12c0,0.17-0.03,0.4-0.1,0.67c-0.06,0.27-0.2,0.55-0.42,0.84
				c-0.22,0.28-0.53,0.55-0.93,0.78c-0.41,0.24-0.95,0.4-1.62,0.48v0.03c0.19,0.02,0.44,0.07,0.76,0.13
				c0.32,0.06,0.65,0.17,0.98,0.32c0.33,0.15,0.64,0.35,0.92,0.6c0.28,0.25,0.48,0.57,0.59,0.97c0.07,0.23,0.12,0.5,0.15,0.79
				c0.03,0.3,0.05,0.6,0.07,0.92c0.02,0.31,0.03,0.62,0.05,0.91c0.02,0.29,0.05,0.53,0.1,0.73c0.07,0.3,0.18,0.58,0.33,0.82
				c0.15,0.24,0.39,0.37,0.73,0.37c0.15,0,0.31-0.03,0.47-0.09c0.16-0.06,0.31-0.15,0.44-0.28l0.16,0.19
				c-0.06,0.05-0.13,0.1-0.2,0.15c-0.08,0.05-0.17,0.1-0.29,0.15c-0.12,0.05-0.26,0.08-0.43,0.11c-0.17,0.03-0.37,0.04-0.62,0.04
				c-0.47,0-0.85-0.06-1.16-0.17c-0.31-0.12-0.56-0.29-0.74-0.51c-0.19-0.23-0.32-0.51-0.41-0.84c-0.09-0.33-0.15-0.72-0.18-1.16
				l-0.12-1.59c-0.05-0.58-0.16-1.03-0.35-1.36c-0.19-0.33-0.4-0.56-0.65-0.71c-0.25-0.15-0.51-0.24-0.78-0.27
				c-0.27-0.03-0.5-0.04-0.7-0.04h-1.74v6.29h1.94v0.24h-5.61V48.38z M25.15,41.84h1.6c0.33,0,0.62-0.04,0.89-0.12
				c0.27-0.08,0.5-0.22,0.69-0.43c0.19-0.2,0.34-0.48,0.44-0.83c0.1-0.35,0.16-0.79,0.16-1.33c0-0.6-0.08-1.09-0.24-1.46
				c-0.16-0.37-0.36-0.64-0.61-0.83c-0.25-0.19-0.53-0.31-0.84-0.37c-0.31-0.06-0.61-0.09-0.92-0.09c-0.21,0-0.42,0-0.64,0.01
				c-0.22,0.01-0.4,0.02-0.55,0.04V41.84z"/>
			<path class="st260" d="M31.61,42.4c0-0.93,0.18-1.79,0.55-2.58c0.37-0.79,0.84-1.48,1.41-2.06c0.58-0.58,1.22-1.04,1.94-1.37
				c0.72-0.33,1.44-0.5,2.16-0.5c0.77,0,1.51,0.17,2.24,0.5c0.73,0.33,1.37,0.79,1.94,1.37c0.57,0.58,1.03,1.27,1.37,2.06
				c0.34,0.79,0.51,1.65,0.51,2.58c0,0.81-0.16,1.61-0.47,2.39c-0.31,0.78-0.74,1.47-1.29,2.07c-0.55,0.6-1.19,1.09-1.93,1.46
				c-0.74,0.37-1.53,0.56-2.38,0.56c-0.87,0-1.68-0.18-2.42-0.54c-0.74-0.36-1.39-0.84-1.93-1.44c-0.54-0.6-0.96-1.29-1.26-2.07
				C31.76,44.05,31.61,43.24,31.61,42.4z M33.62,42.4c0,1.05,0.07,1.96,0.21,2.74c0.14,0.78,0.37,1.43,0.7,1.95
				c0.33,0.52,0.74,0.91,1.26,1.17c0.51,0.26,1.14,0.38,1.9,0.38c0.74,0,1.37-0.13,1.89-0.38c0.52-0.26,0.94-0.65,1.26-1.17
				c0.33-0.52,0.56-1.17,0.7-1.95c0.14-0.78,0.21-1.69,0.21-2.74c0-0.8-0.05-1.58-0.16-2.33c-0.1-0.75-0.31-1.42-0.6-2.01
				c-0.3-0.59-0.71-1.05-1.24-1.4c-0.53-0.35-1.22-0.52-2.07-0.52c-0.85,0-1.54,0.17-2.07,0.52c-0.53,0.35-0.94,0.82-1.24,1.4
				c-0.3,0.59-0.5,1.26-0.6,2.01C33.67,40.82,33.62,41.6,33.62,42.4z"/>
			<path class="st260" d="M43.69,44.88h0.19c0.13,0.63,0.29,1.16,0.5,1.59c0.2,0.43,0.43,0.78,0.67,1.06
				c0.24,0.28,0.5,0.49,0.77,0.65c0.27,0.15,0.54,0.26,0.81,0.33c0.27,0.07,0.53,0.11,0.78,0.12c0.25,0.01,0.49,0.02,0.71,0.02
				c0.62,0,1.12-0.09,1.52-0.28c0.39-0.19,0.71-0.42,0.94-0.71c0.23-0.28,0.4-0.59,0.49-0.92c0.09-0.33,0.14-0.64,0.14-0.92
				c0-0.41-0.08-0.76-0.23-1.05c-0.15-0.29-0.34-0.54-0.58-0.74c-0.23-0.2-0.49-0.37-0.76-0.5c-0.27-0.13-0.53-0.23-0.78-0.3
				l-2.01-0.61c-0.94-0.29-1.65-0.67-2.14-1.15C44.24,41,44,40.36,44,39.56c0-0.52,0.09-1.01,0.28-1.46
				c0.19-0.45,0.45-0.83,0.78-1.16c0.34-0.33,0.74-0.58,1.21-0.77c0.47-0.19,0.99-0.28,1.54-0.28c0.41,0,0.75,0.03,1.02,0.1
				c0.27,0.07,0.51,0.15,0.71,0.24c0.2,0.09,0.37,0.17,0.53,0.24c0.16,0.07,0.32,0.1,0.48,0.1c0.15,0,0.25-0.02,0.31-0.06
				c0.05-0.04,0.12-0.14,0.22-0.31h0.24v3.16h-0.21c-0.07-0.42-0.19-0.82-0.36-1.21c-0.17-0.39-0.39-0.73-0.65-1.03
				c-0.27-0.3-0.59-0.53-0.97-0.71c-0.38-0.18-0.82-0.27-1.32-0.27c-0.28,0-0.59,0.04-0.92,0.11c-0.34,0.08-0.65,0.21-0.94,0.39
				c-0.29,0.19-0.53,0.43-0.72,0.73c-0.19,0.3-0.29,0.69-0.29,1.15c0,0.37,0.08,0.69,0.23,0.95c0.15,0.26,0.35,0.48,0.58,0.66
				c0.24,0.18,0.51,0.33,0.8,0.45s0.6,0.23,0.9,0.32l2.11,0.66c0.22,0.07,0.5,0.16,0.84,0.28c0.34,0.12,0.67,0.29,0.99,0.52
				c0.32,0.23,0.59,0.54,0.82,0.92c0.23,0.38,0.34,0.87,0.34,1.46c0,0.55-0.1,1.07-0.31,1.56c-0.2,0.49-0.5,0.93-0.88,1.31
				c-0.38,0.38-0.85,0.68-1.39,0.91c-0.55,0.23-1.16,0.34-1.85,0.34c-0.24,0-0.46,0-0.65-0.01c-0.19-0.01-0.36-0.02-0.52-0.04
				c-0.16-0.02-0.33-0.05-0.49-0.08c-0.16-0.03-0.34-0.07-0.54-0.13c-0.23-0.07-0.48-0.15-0.75-0.24c-0.27-0.09-0.5-0.14-0.7-0.14
				c-0.17,0-0.29,0.03-0.36,0.1c-0.06,0.07-0.12,0.16-0.17,0.28h-0.26V44.88z"/>
		</g>
		<g>
			<g>
				<path d="M52.98,36.31v0.3h0v0.02h0.91v11.77h-0.91v0.32h4.16v-0.32h-1.1v-5.84c0.1,0,0.21,0,0.33-0.01
					c0.12-0.01,0.24-0.01,0.33-0.01h0.52c0.3,0,0.56,0.03,0.8,0.07c0.24,0.05,0.44,0.15,0.61,0.31c0.17,0.16,0.31,0.38,0.41,0.67
					c0.1,0.29,0.15,0.68,0.17,1.16h0.3V39.9h-0.3c0,0.58-0.05,1.03-0.16,1.33c-0.11,0.3-0.27,0.53-0.48,0.67
					c-0.22,0.14-0.49,0.22-0.81,0.24c-0.32,0.02-0.69,0.03-1.12,0.03h-0.61v-5.54h1.75c0.5,0,0.95,0.02,1.37,0.05
					c0.42,0.03,0.77,0.14,1.08,0.33c0.3,0.19,0.54,0.48,0.72,0.89c0.17,0.4,0.27,0.97,0.3,1.71h0.33l-0.02-3.28H52.98z"/>
			</g>
			<g>
				<polygon points="66.22,42.54 67.6,40.35 65.79,36.62 66.92,36.62 66.92,36.31 62.42,36.31 62.42,36.62 63.41,36.62 				"/>
			</g>
			<g>
				<polygon points="71.52,48.39 68.15,41.49 66.76,43.65 69.1,48.39 67.85,48.39 67.85,48.71 72.71,48.71 72.71,48.39 				"/>
			</g>
			<g>
				<path d="M69.1,39.08c0.28-0.52,0.51-0.93,0.69-1.22c0.17-0.29,0.31-0.5,0.41-0.62c0.1-0.12,0.19-0.22,0.26-0.3
					c0.17-0.15,0.39-0.24,0.64-0.27c0.25-0.03,0.49-0.05,0.7-0.05h0.09v-0.32h-3.57v0.32h0.86c0.1,0,0.21,0.02,0.33,0.06
					c0.12,0.04,0.19,0.15,0.19,0.33c0,0.07-0.02,0.17-0.06,0.28c-0.04,0.11-0.12,0.29-0.25,0.55c-0.13,0.25-0.32,0.61-0.57,1.07
					c-0.25,0.46-0.64,1.02-1.07,1.8l-1.44,2.31c-0.48,0.92-0.88,1.68-1.2,2.28c-0.33,0.63-0.61,1.14-0.83,1.52
					c-0.22,0.38-0.39,0.66-0.51,0.84c-0.12,0.18-0.23,0.31-0.32,0.38c-0.24,0.2-0.5,0.31-0.8,0.33c-0.3,0.02-0.57,0.03-0.82,0.02
					h-0.19v0.32h4.02v-0.32h-0.74c-0.04,0-0.1,0-0.18,0c-0.08,0-0.16-0.01-0.25-0.04c-0.09-0.02-0.16-0.07-0.22-0.12
					c-0.06-0.06-0.09-0.14-0.09-0.25c0-0.05,0.01-0.11,0.04-0.18c0.02-0.07,0.07-0.17,0.14-0.32c0.07-0.14,0.16-0.32,0.27-0.54
					c0.11-0.22,0.26-0.5,0.45-0.85l1.49-2.84l1.43-2.3C68.43,40.17,68.83,39.58,69.1,39.08z"/>
			</g>
		</g>
	</g>
</g>
</svg>
