<?xml version="1.0" encoding="utf-8"?>
<!-- Generator: Adobe Illustrator 24.0.3, SVG Export Plug-In . SVG Version: 6.00 Build 0)  -->
<svg version="1.0" id="Layer_1" xmlns="http://www.w3.org/2000/svg" xmlns:xlink="http://www.w3.org/1999/xlink" x="0px" y="0px"
	 viewBox="0 0 106.71 49.3" style="enable-background:new 0 0 106.71 49.3;" xml:space="preserve">
<style type="text/css">
	.st0{fill:url(#SVGID_1_);}
	.st1{fill:#17516B;}
	.st2{fill:#3A7289;}
	.st3{opacity:0.8;fill:#2C6477;}
	.st4{clip-path:url(#SVGID_5_);fill:#FFFFFF;}
	.st5{clip-path:url(#SVGID_5_);fill:#BD0034;}
	.st6{clip-path:url(#SVGID_5_);fill:url(#SVGID_6_);}
	.st7{clip-path:url(#SVGID_5_);fill:url(#SVGID_7_);}
	.st8{clip-path:url(#SVGID_5_);fill:url(#SVGID_8_);}
	.st9{clip-path:url(#SVGID_5_);fill:url(#SVGID_9_);}
	.st10{clip-path:url(#SVGID_5_);fill:url(#SVGID_10_);}
	.st11{clip-path:url(#SVGID_5_);fill:url(#SVGID_11_);}
	.st12{clip-path:url(#SVGID_5_);fill:url(#SVGID_12_);}
	.st13{clip-path:url(#SVGID_5_);fill:url(#SVGID_13_);}
	.st14{fill:#F2F5F7;}
	.st15{fill:#A92807;}
	.st16{fill:#1E1D22;}
	.st17{clip-path:url(#SVGID_15_);}
	.st18{fill:#FFFFFF;}
	.st19{fill:none;stroke:#F2F5F7;}
	.st20{clip-path:url(#SVGID_19_);fill:#8EA1B2;}
	.st21{clip-path:url(#SVGID_19_);fill:#A92807;}
	.st22{clip-path:url(#SVGID_19_);fill:#384657;}
	.st23{clip-path:url(#SVGID_21_);}
	.st24{fill:#8EA1B2;}
	.st25{fill:#384657;}
	.st26{clip-path:url(#SVGID_25_);fill:#384657;}
	.st27{clip-path:url(#SVGID_25_);fill:#8EA1B2;}
	.st28{clip-path:url(#SVGID_25_);fill:#A92807;}
	.st29{clip-path:url(#SVGID_27_);}
	.st30{fill:#E1E4E5;}
	.st31{clip-path:url(#SVGID_31_);fill:#384657;}
	.st32{clip-path:url(#SVGID_31_);fill:#8EA1B2;}
	.st33{clip-path:url(#SVGID_31_);fill:#A92807;}
	.st34{clip-path:url(#SVGID_33_);}
	.st35{clip-path:url(#SVGID_37_);fill:#384657;}
	.st36{clip-path:url(#SVGID_37_);fill:#8EA1B2;}
	.st37{clip-path:url(#SVGID_37_);fill:#A92807;}
	.st38{clip-path:url(#SVGID_39_);}
	.st39{fill:#2A323C;}
	.st40{fill:#1F2529;}
	.st41{fill:#96A1AB;}
	.st42{clip-path:url(#SVGID_43_);fill:#D00027;}
	.st43{clip-path:url(#SVGID_43_);}
	.st44{clip-path:url(#SVGID_45_);fill:#FFFFFF;}
	.st45{clip-path:url(#SVGID_45_);fill:#D00027;}
	.st46{clip-path:url(#SVGID_47_);}
	.st47{clip-path:url(#SVGID_51_);}
	.st48{clip-path:url(#SVGID_55_);}
	.st49{opacity:0.4;clip-path:url(#SVGID_59_);}
	.st50{clip-path:url(#SVGID_61_);fill:#FFFFFF;}
	.st51{clip-path:url(#SVGID_59_);fill:#A92807;}
	.st52{clip-path:url(#SVGID_63_);fill:#FFFFFF;}
	.st53{opacity:0.5;}
	.st54{clip-path:url(#SVGID_65_);}
	.st55{filter:url(#Adobe_OpacityMaskFilter);}
	.st56{clip-path:url(#SVGID_67_);}
	.st57{enable-background:new    ;}
	.st58{opacity:0.1412;clip-path:url(#SVGID_67_);mask:url(#SVGID_68_);}
	.st59{clip-path:url(#SVGID_72_);}
	.st60{fill:none;stroke:#FFFFFF;stroke-width:3;stroke-linecap:round;stroke-linejoin:round;stroke-miterlimit:10;}
	.st61{opacity:0.502;}
	.st62{opacity:0.7;}
	.st63{clip-path:url(#SVGID_74_);fill:#D00027;}
	.st64{clip-path:url(#SVGID_74_);}
	.st65{clip-path:url(#SVGID_76_);fill:#FFFFFF;}
	.st66{clip-path:url(#SVGID_76_);fill:#D00027;}
	.st67{clip-path:url(#SVGID_78_);}
	.st68{clip-path:url(#SVGID_82_);}
	.st69{clip-path:url(#SVGID_86_);}
	.st70{clip-path:url(#SVGID_92_);}
	.st71{filter:url(#Adobe_OpacityMaskFilter_1_);}
	.st72{clip-path:url(#SVGID_94_);}
	.st73{opacity:0.1412;clip-path:url(#SVGID_94_);mask:url(#SVGID_95_);}
	.st74{clip-path:url(#SVGID_99_);}
	.st75{clip-path:url(#SVGID_101_);fill:#D00027;}
	.st76{clip-path:url(#SVGID_101_);}
	.st77{clip-path:url(#SVGID_103_);fill:#FFFFFF;}
	.st78{clip-path:url(#SVGID_103_);fill:#D00027;}
	.st79{clip-path:url(#SVGID_105_);}
	.st80{clip-path:url(#SVGID_109_);}
	.st81{clip-path:url(#SVGID_113_);}
	.st82{opacity:0.4;clip-path:url(#SVGID_117_);}
	.st83{clip-path:url(#SVGID_119_);fill:#FFFFFF;}
	.st84{clip-path:url(#SVGID_117_);fill:#A92807;}
	.st85{clip-path:url(#SVGID_121_);fill:#FFFFFF;}
	.st86{clip-path:url(#SVGID_123_);}
	.st87{fill:none;stroke:#FFFFFF;stroke-width:0.5;stroke-miterlimit:10;}
	.st88{opacity:0;fill:#3C464F;}
	.st89{opacity:3.960396e-03;fill:#3C464F;}
	.st90{opacity:7.920792e-03;fill:#3C464F;}
	.st91{opacity:0.0119;fill:#3C464F;}
	.st92{opacity:0.0158;fill:#3C464F;}
	.st93{opacity:0.0198;fill:#3C464F;}
	.st94{opacity:0.0238;fill:#3C464F;}
	.st95{opacity:0.0277;fill:#3C464F;}
	.st96{opacity:0.0317;fill:#3C464F;}
	.st97{opacity:0.0356;fill:#3C464F;}
	.st98{opacity:0.0396;fill:#3C464F;}
	.st99{opacity:0.0436;fill:#3C464F;}
	.st100{opacity:0.0475;fill:#3C464F;}
	.st101{opacity:0.0515;fill:#3C464F;}
	.st102{opacity:0.0554;fill:#3C464F;}
	.st103{opacity:0.0594;fill:#3C464F;}
	.st104{opacity:0.0634;fill:#3C464F;}
	.st105{opacity:0.0673;fill:#3C464F;}
	.st106{opacity:0.0713;fill:#3C464F;}
	.st107{opacity:0.0752;fill:#3C464F;}
	.st108{opacity:0.0792;fill:#3C464F;}
	.st109{opacity:0.0832;fill:#3C464F;}
	.st110{opacity:0.0871;fill:#3C464F;}
	.st111{opacity:0.0911;fill:#3C464F;}
	.st112{opacity:0.095;fill:#3C464F;}
	.st113{opacity:0.099;fill:#3C464F;}
	.st114{opacity:0.103;fill:#3C464F;}
	.st115{opacity:0.1069;fill:#3C464F;}
	.st116{opacity:0.1109;fill:#3C464F;}
	.st117{opacity:0.1149;fill:#3C464F;}
	.st118{opacity:0.1188;fill:#3C464F;}
	.st119{opacity:0.1228;fill:#3C464F;}
	.st120{opacity:0.1267;fill:#3C464F;}
	.st121{opacity:0.1307;fill:#3C464F;}
	.st122{opacity:0.1347;fill:#3C464F;}
	.st123{opacity:0.1386;fill:#3C464F;}
	.st124{opacity:0.1426;fill:#3C464F;}
	.st125{opacity:0.1465;fill:#3C464F;}
	.st126{opacity:0.1505;fill:#3C464F;}
	.st127{opacity:0.1545;fill:#3C464F;}
	.st128{opacity:0.1584;fill:#3C464F;}
	.st129{opacity:0.1624;fill:#3C464F;}
	.st130{opacity:0.1663;fill:#3C464F;}
	.st131{opacity:0.1703;fill:#3C464F;}
	.st132{opacity:0.1743;fill:#3C464F;}
	.st133{opacity:0.1782;fill:#3C464F;}
	.st134{opacity:0.1822;fill:#3C464F;}
	.st135{opacity:0.1861;fill:#3C464F;}
	.st136{opacity:0.1901;fill:#3C464F;}
	.st137{opacity:0.1941;fill:#3C464F;}
	.st138{opacity:0.198;fill:#3C464F;}
	.st139{opacity:0.202;fill:#3C464F;}
	.st140{opacity:0.2059;fill:#3C464F;}
	.st141{opacity:0.2099;fill:#3C464F;}
	.st142{opacity:0.2139;fill:#3C464F;}
	.st143{opacity:0.2178;fill:#3C464F;}
	.st144{opacity:0.2218;fill:#3C464F;}
	.st145{opacity:0.2257;fill:#3C464F;}
	.st146{opacity:0.2297;fill:#3C464F;}
	.st147{opacity:0.2337;fill:#3C464F;}
	.st148{opacity:0.2376;fill:#3C464F;}
	.st149{opacity:0.2416;fill:#3C464F;}
	.st150{opacity:0.2455;fill:#3C464F;}
	.st151{opacity:0.2495;fill:#3C464F;}
	.st152{opacity:0.2535;fill:#3C464F;}
	.st153{opacity:0.2574;fill:#3C464F;}
	.st154{opacity:0.2614;fill:#3C464F;}
	.st155{opacity:0.2653;fill:#3C464F;}
	.st156{opacity:0.2693;fill:#3C464F;}
	.st157{opacity:0.2733;fill:#3C464F;}
	.st158{opacity:0.2772;fill:#3C464F;}
	.st159{opacity:0.2812;fill:#3C464F;}
	.st160{opacity:0.2851;fill:#3C464F;}
	.st161{opacity:0.2891;fill:#3C464F;}
	.st162{opacity:0.2931;fill:#3C464F;}
	.st163{opacity:0.297;fill:#3C464F;}
	.st164{opacity:0.301;fill:#3C464F;}
	.st165{opacity:0.305;fill:#3C464F;}
	.st166{opacity:0.3089;fill:#3C464F;}
	.st167{opacity:0.3129;fill:#3C464F;}
	.st168{opacity:0.3168;fill:#3C464F;}
	.st169{opacity:0.3208;fill:#3C464F;}
	.st170{opacity:0.3248;fill:#3C464F;}
	.st171{opacity:0.3287;fill:#3C464F;}
	.st172{opacity:0.3327;fill:#3C464F;}
	.st173{opacity:0.3366;fill:#3C464F;}
	.st174{opacity:0.3406;fill:#3C464F;}
	.st175{opacity:0.3446;fill:#3C464F;}
	.st176{opacity:0.3485;fill:#3C464F;}
	.st177{opacity:0.3525;fill:#3C464F;}
	.st178{opacity:0.3564;fill:#3C464F;}
	.st179{opacity:0.3604;fill:#3C464F;}
	.st180{opacity:0.3644;fill:#3C464F;}
	.st181{opacity:0.3683;fill:#3C464F;}
	.st182{opacity:0.3723;fill:#3C464F;}
	.st183{opacity:0.3762;fill:#3C464F;}
	.st184{opacity:0.3802;fill:#3C464F;}
	.st185{opacity:0.3842;fill:#3C464F;}
	.st186{opacity:0.3881;fill:#3C464F;}
	.st187{opacity:0.3921;fill:#3C464F;}
	.st188{opacity:0.396;fill:#3C464F;}
	.st189{opacity:0.4;fill:#3C464F;}
	.st190{fill:none;stroke:#7EA1B1;stroke-width:3;stroke-linecap:round;stroke-linejoin:round;}
	.st191{fill:none;stroke:#7EA1B1;stroke-width:3;stroke-linecap:round;stroke-linejoin:round;stroke-dasharray:6.859,6.859;}
	.st192{fill:none;stroke:#7EA1B1;stroke-width:3;stroke-linecap:round;stroke-linejoin:round;stroke-dasharray:7.5157,7.5157;}
	.st193{fill:none;stroke:#7EA1B1;stroke-width:3;stroke-linecap:round;stroke-linejoin:round;stroke-dasharray:8.4421,8.4421;}
	.st194{fill:none;stroke:#7EA1B1;stroke-width:3;stroke-linecap:round;stroke-linejoin:round;stroke-dasharray:8.7883,8.7883;}
	.st195{fill:none;stroke:#7EA1B1;stroke-width:3;stroke-linecap:round;stroke-linejoin:round;stroke-dasharray:8.9317,8.9317;}
	.st196{fill:none;stroke:#7EA1B1;stroke-width:3;stroke-linecap:round;stroke-linejoin:round;stroke-dasharray:7.9659,7.9659;}
	.st197{fill:none;stroke:#7EA1B1;stroke-width:3;stroke-linecap:round;stroke-linejoin:round;stroke-dasharray:8.532,8.532;}
	.st198{fill:#C5C5C5;}
	.st199{fill:none;stroke:#7EA1B1;stroke-width:3;stroke-linecap:round;stroke-linejoin:round;stroke-dasharray:5.9487,5.9487;}
	.st200{fill:none;stroke:#7EA1B1;stroke-width:3;stroke-linecap:round;stroke-linejoin:round;stroke-dasharray:8.8035,8.8035;}
	.st201{fill:none;stroke:#7EA1B1;stroke-width:3;stroke-linecap:round;stroke-linejoin:round;stroke-dasharray:8.4073,8.4073;}
	.st202{fill:none;stroke:#7EA1B1;stroke-width:3;stroke-linecap:round;stroke-linejoin:round;stroke-dasharray:6.2046,6.2046;}
	.st203{fill:none;stroke:#7EA1B1;stroke-width:3;stroke-linecap:round;stroke-linejoin:round;stroke-dasharray:7.9457,7.9457;}
	.st204{fill:none;stroke:#7EA1B1;stroke-width:3;stroke-linecap:round;stroke-linejoin:round;stroke-dasharray:8.4145,8.4145;}
	.st205{fill:none;stroke:#7EA1B1;stroke-width:3;stroke-linecap:round;stroke-linejoin:round;stroke-dasharray:7.2825,7.2825;}
	.st206{fill:none;stroke:#7EA1B1;stroke-width:3;stroke-linecap:round;stroke-linejoin:round;stroke-dasharray:7.4081,7.4081;}
	.st207{fill:none;stroke:#7EA1B1;stroke-width:3;stroke-linecap:round;stroke-linejoin:round;stroke-dasharray:8.0493,8.0493;}
	.st208{fill:none;stroke:#7EA1B1;stroke-width:3;stroke-linecap:round;stroke-linejoin:round;stroke-dasharray:8.1454,8.1454;}
	.st209{fill:none;stroke:#7EA1B1;stroke-width:3;stroke-linecap:round;stroke-linejoin:round;stroke-dasharray:8.0164,8.0164;}
	.st210{fill:#7EA1B1;}
	.st211{fill:none;stroke:#7EA1B1;stroke-width:3;stroke-linecap:round;stroke-linejoin:round;stroke-miterlimit:10;}
	.st212{fill:#2F2F2F;}
	.st213{fill:#00B5B5;}
	.st214{fill:url(#SVGID_124_);}
	.st215{fill:#12407D;}
	.st216{fill:#0D78C4;}
	.st217{fill-rule:evenodd;clip-rule:evenodd;fill:#0F53FF;}
	.st218{filter:url(#Adobe_OpacityMaskFilter_2_);}
	.st219{clip-path:url(#SVGID_128_);}
	.st220{clip-path:url(#SVGID_131_);}
	.st221{clip-path:url(#SVGID_133_);}
	.st222{clip-path:url(#SVGID_128_);mask:url(#SVGID_129_);enable-background:new    ;}
	.st223{clip-path:url(#SVGID_135_);fill-rule:evenodd;clip-rule:evenodd;fill:#0F53FF;}
	.st224{filter:url(#Adobe_OpacityMaskFilter_3_);}
	.st225{clip-path:url(#SVGID_138_);}
	.st226{clip-path:url(#SVGID_138_);fill-rule:evenodd;clip-rule:evenodd;fill:#FFFFFF;}
	.st227{clip-path:url(#SVGID_128_);mask:url(#SVGID_136_);enable-background:new    ;}
	.st228{clip-path:url(#SVGID_140_);fill-rule:evenodd;clip-rule:evenodd;fill:#0F53FF;}
	.st229{clip-path:url(#SVGID_142_);fill:url(#SVGID_143_);}
	.st230{clip-path:url(#SVGID_145_);fill:url(#SVGID_146_);}
	.st231{clip-path:url(#SVGID_148_);fill:url(#SVGID_149_);}
	.st232{clip-path:url(#SVGID_151_);fill:url(#SVGID_152_);}
	.st233{clip-path:url(#SVGID_154_);fill:url(#SVGID_155_);}
	.st234{clip-path:url(#SVGID_157_);fill:url(#SVGID_158_);}
	.st235{clip-path:url(#SVGID_160_);fill:url(#SVGID_161_);}
	.st236{clip-path:url(#SVGID_163_);fill:url(#SVGID_164_);}
	.st237{fill:url(#SVGID_165_);}
	.st238{fill:url(#SVGID_166_);}
	.st239{fill:url(#SVGID_167_);}
	.st240{fill:url(#SVGID_168_);}
	.st241{fill:url(#SVGID_169_);}
	.st242{fill:url(#SVGID_170_);}
	.st243{fill:url(#SVGID_171_);}
	.st244{fill:url(#SVGID_172_);}
	.st245{fill:url(#SVGID_173_);}
	.st246{fill:url(#SVGID_174_);}
	.st247{fill:url(#SVGID_175_);}
	.st248{fill:url(#SVGID_176_);}
	.st249{fill:url(#SVGID_177_);}
	.st250{fill:url(#SVGID_178_);}
	.st251{fill:url(#SVGID_179_);}
	.st252{fill:url(#SVGID_180_);}
	.st253{fill:url(#SVGID_181_);}
	.st254{fill:url(#SVGID_182_);}
	.st255{fill:url(#SVGID_183_);}
	.st256{fill:url(#SVGID_184_);}
	.st257{fill:url(#SVGID_185_);}
	.st258{fill:#A89968;}
	.st259{fill:url(#SVGID_186_);}
	.st260{fill:#C4001C;}
	.st261{fill:#282826;}
	.st262{fill:#2D72D7;}
	.st263{fill:#E8E8E8;}
	.st264{opacity:0.7;fill:none;stroke:#6096A5;}
	.st265{opacity:0.9;}
	.st266{fill:none;}
	.st267{fill-rule:evenodd;clip-rule:evenodd;fill:none;}
	.st268{opacity:0.62;fill:url(#SVGID_187_);}
	.st269{opacity:0.62;fill:url(#SVGID_188_);}
	.st270{opacity:0.62;fill:url(#SVGID_189_);}
	.st271{opacity:0.62;fill:url(#SVGID_190_);}
	.st272{opacity:0.62;fill:url(#SVGID_191_);}
	.st273{opacity:0.62;fill:url(#SVGID_192_);}
	.st274{fill:url(#SVGID_193_);}
	.st275{fill:url(#SVGID_194_);}
	.st276{fill:url(#SVGID_195_);}
	.st277{fill:url(#SVGID_196_);}
	.st278{fill:url(#SVGID_197_);}
	.st279{fill:url(#SVGID_198_);}
	.st280{fill:url(#SVGID_199_);}
	.st281{fill:url(#SVGID_200_);}
	.st282{fill:url(#SVGID_201_);}
	.st283{fill:url(#SVGID_202_);}
	.st284{fill:url(#SVGID_203_);}
	.st285{fill:url(#SVGID_204_);}
	.st286{fill:url(#SVGID_205_);}
	.st287{fill:url(#SVGID_206_);}
	.st288{fill:url(#SVGID_207_);}
	.st289{fill:url(#SVGID_208_);}
	.st290{fill:url(#SVGID_209_);}
	.st291{fill:url(#SVGID_210_);}
	.st292{fill:url(#SVGID_211_);}
	.st293{fill:url(#SVGID_212_);}
	.st294{fill:url(#SVGID_213_);}
	.st295{fill:url(#SVGID_214_);}
	.st296{fill:url(#SVGID_215_);}
	.st297{fill:url(#SVGID_216_);}
	.st298{fill:url(#SVGID_217_);}
	.st299{fill:url(#SVGID_218_);}
	.st300{fill:url(#SVGID_219_);}
	.st301{fill:url(#SVGID_220_);}
	.st302{fill:url(#SVGID_221_);}
	.st303{fill:url(#SVGID_222_);}
	.st304{fill:url(#SVGID_223_);}
	.st305{fill:url(#SVGID_224_);}
	.st306{fill:url(#SVGID_225_);}
	.st307{fill:url(#SVGID_226_);}
	.st308{fill:url(#SVGID_227_);}
	.st309{fill:url(#SVGID_228_);}
	.st310{fill:#0078BA;}
	.st311{fill:url(#SVGID_229_);}
	.st312{fill:url(#SVGID_230_);}
	.st313{fill:#B70000;}
	.st314{fill:url(#SVGID_231_);}
	.st315{fill:url(#SVGID_232_);}
	.st316{fill:url(#SVGID_233_);}
	.st317{fill:url(#SVGID_234_);}
	.st318{fill:url(#SVGID_235_);}
	.st319{fill:url(#SVGID_236_);}
	.st320{fill:url(#SVGID_237_);}
	.st321{fill:url(#SVGID_238_);}
	.st322{fill:none;stroke:#3F3F3F;stroke-width:0.5;stroke-miterlimit:10;}
	.st323{clip-path:url(#SVGID_256_);fill:url(#SVGID_257_);}
	.st324{clip-path:url(#SVGID_259_);fill:url(#SVGID_260_);}
	.st325{clip-path:url(#SVGID_262_);fill:url(#SVGID_263_);}
	.st326{clip-path:url(#SVGID_265_);fill:url(#SVGID_266_);}
	.st327{clip-path:url(#SVGID_268_);fill:url(#SVGID_269_);}
	.st328{clip-path:url(#SVGID_271_);fill:url(#SVGID_272_);}
	.st329{clip-path:url(#SVGID_274_);fill:url(#SVGID_275_);}
	.st330{clip-path:url(#SVGID_277_);fill:url(#SVGID_278_);}
	.st331{fill:url(#SVGID_279_);}
	.st332{fill:url(#SVGID_280_);}
	.st333{fill:url(#SVGID_281_);}
	.st334{fill:url(#SVGID_282_);}
	.st335{fill:url(#SVGID_283_);}
	.st336{fill:url(#SVGID_284_);}
	.st337{fill:url(#SVGID_285_);}
	.st338{fill:url(#SVGID_286_);}
	.st339{fill:url(#SVGID_287_);}
	.st340{fill:url(#SVGID_288_);}
	.st341{fill:url(#SVGID_289_);}
	.st342{fill:url(#SVGID_290_);}
	.st343{fill:url(#SVGID_291_);}
	.st344{fill:url(#SVGID_292_);}
	.st345{fill:url(#SVGID_293_);}
	.st346{fill:url(#SVGID_294_);}
	.st347{fill:url(#SVGID_295_);}
	.st348{fill:url(#SVGID_296_);}
	.st349{fill:url(#SVGID_297_);}
	.st350{fill:url(#SVGID_298_);}
	.st351{fill:url(#SVGID_299_);}
	.st352{fill:url(#SVGID_300_);}
	.st353{fill:url(#SVGID_301_);}
	.st354{fill:url(#SVGID_302_);}
	.st355{fill:url(#SVGID_303_);}
	.st356{fill:url(#SVGID_304_);}
	.st357{fill:url(#SVGID_305_);}
	.st358{fill:url(#SVGID_306_);}
	.st359{fill:url(#SVGID_307_);}
	.st360{filter:url(#Adobe_OpacityMaskFilter_4_);}
	.st361{clip-path:url(#SVGID_325_);}
	.st362{clip-path:url(#SVGID_328_);}
	.st363{clip-path:url(#SVGID_330_);}
	.st364{clip-path:url(#SVGID_325_);mask:url(#SVGID_326_);enable-background:new    ;}
	.st365{clip-path:url(#SVGID_332_);fill-rule:evenodd;clip-rule:evenodd;fill:#0F53FF;}
	.st366{filter:url(#Adobe_OpacityMaskFilter_5_);}
	.st367{clip-path:url(#SVGID_335_);}
	.st368{clip-path:url(#SVGID_335_);fill-rule:evenodd;clip-rule:evenodd;fill:#FFFFFF;}
	.st369{clip-path:url(#SVGID_325_);mask:url(#SVGID_333_);enable-background:new    ;}
	.st370{clip-path:url(#SVGID_337_);fill-rule:evenodd;clip-rule:evenodd;fill:#0F53FF;}
	.st371{clip-path:url(#SVGID_339_);fill:url(#SVGID_340_);}
	.st372{clip-path:url(#SVGID_342_);fill:url(#SVGID_343_);}
	.st373{clip-path:url(#SVGID_345_);fill:url(#SVGID_346_);}
	.st374{clip-path:url(#SVGID_348_);fill:url(#SVGID_349_);}
	.st375{clip-path:url(#SVGID_351_);fill:url(#SVGID_352_);}
	.st376{clip-path:url(#SVGID_354_);fill:url(#SVGID_355_);}
	.st377{clip-path:url(#SVGID_357_);fill:url(#SVGID_358_);}
	.st378{clip-path:url(#SVGID_360_);fill:url(#SVGID_361_);}
	.st379{fill:url(#SVGID_362_);}
	.st380{fill:url(#SVGID_363_);}
	.st381{fill:url(#SVGID_364_);}
	.st382{fill:url(#SVGID_365_);}
	.st383{fill:url(#SVGID_366_);}
	.st384{fill:url(#SVGID_367_);}
	.st385{fill:url(#SVGID_368_);}
	.st386{fill:url(#SVGID_369_);}
	.st387{fill:url(#SVGID_370_);}
	.st388{fill:url(#SVGID_371_);}
	.st389{fill:url(#SVGID_372_);}
	.st390{fill:url(#SVGID_373_);}
	.st391{fill:url(#SVGID_374_);}
	.st392{fill:url(#SVGID_375_);}
	.st393{fill:url(#SVGID_376_);}
	.st394{fill:url(#SVGID_377_);}
	.st395{fill:url(#SVGID_378_);}
	.st396{fill:url(#SVGID_379_);}
	.st397{fill:url(#SVGID_380_);}
	.st398{fill:url(#SVGID_381_);}
	.st399{fill:url(#SVGID_382_);}
	.st400{fill:url(#SVGID_383_);}
	.st401{fill:url(#SVGID_384_);}
	.st402{fill:url(#SVGID_385_);}
	.st403{fill:url(#SVGID_386_);}
	.st404{fill:url(#SVGID_387_);}
	.st405{fill:url(#SVGID_388_);}
	.st406{fill:url(#SVGID_389_);}
	.st407{fill:url(#SVGID_390_);}
	.st408{fill:url(#SVGID_391_);}
	.st409{fill:url(#SVGID_392_);}
	.st410{fill:url(#SVGID_393_);}
	.st411{fill:url(#SVGID_394_);}
	.st412{fill:url(#SVGID_395_);}
	.st413{fill:url(#SVGID_396_);}
	.st414{fill:url(#SVGID_397_);}
	.st415{fill:url(#SVGID_398_);}
	.st416{fill:url(#SVGID_399_);}
	.st417{fill:url(#SVGID_400_);}
	.st418{fill:url(#SVGID_401_);}
	.st419{fill:url(#SVGID_402_);}
	.st420{fill:url(#SVGID_403_);}
	.st421{fill:url(#SVGID_404_);}
	.st422{fill:url(#SVGID_405_);}
	.st423{fill:url(#SVGID_406_);}
	.st424{fill:url(#SVGID_407_);}
	.st425{fill:url(#SVGID_408_);}
	.st426{fill:url(#SVGID_409_);}
	.st427{fill:url(#SVGID_410_);}
	.st428{fill:url(#SVGID_411_);}
	.st429{fill:url(#SVGID_412_);}
	.st430{fill:url(#SVGID_413_);}
	.st431{fill:url(#SVGID_414_);}
	.st432{fill:url(#SVGID_415_);}
</style>
<g>
	<g>
		<g>
			<g>
				<g>
					<path class="st217" d="M87.19,38.96c0-5.91,4.42-9.73,9.76-9.73c5.3,0,9.76,3.82,9.76,9.73c0,5.91-4.46,9.81-9.76,9.81
						C91.61,48.77,87.19,44.87,87.19,38.96 M101.85,38.96c0-2.97-2.21-4.9-4.9-4.9c-2.69,0-4.9,1.93-4.9,4.9
						c0,3.06,2.21,5.02,4.9,5.02C99.64,43.98,101.85,42.01,101.85,38.96"/>
					<path class="st217" d="M27.73,33.04c0.14-0.3,0.21-0.64,0.21-0.99c0-1.25-0.95-2.28-2.16-2.4l-0.01-0.01l-0.01,0.01
						c-0.07-0.01-0.15-0.01-0.23-0.01c-1.07,0-1.98,0.7-2.29,1.66l0,0.01c0,0.01,0,0.01-0.01,0.02l-3.32,10.16l-3.09-9.61
						c-0.32-1.29-1.49-2.25-2.88-2.25c-1.31,0-2.43,0.85-2.82,2.04l-0.01,0l-3.12,9.82l-3.28-10.2L4.7,31.28
						c-0.3-0.89-1.1-1.55-2.07-1.64l-0.01-0.01l-0.01,0.01c-0.07-0.01-0.13-0.01-0.2-0.01C1.08,29.63,0,30.71,0,32.05
						c0,0.34,0.07,0.66,0.2,0.96l0,0l5.37,14.61c0.31,0.97,1.22,1.68,2.3,1.68c1.08,0,2-0.71,2.3-1.7l3.81-11.78l3.88,11.7h0.01
						c0.01,0.02,0.01,0.05,0.02,0.07c0.31,0.99,1.23,1.7,2.32,1.7c1.09,0,2.02-0.72,2.33-1.71c0-0.01,0.01-0.03,0.01-0.04h0.01
						L27.73,33.04z"/>
					<path class="st217" d="M49.98,32.02c-0.04-1.32-1.12-2.39-2.45-2.39c-1.26,0-2.29,0.95-2.44,2.17l-0.01,0.01v0.11
						c0,0.01,0,0.03,0,0.04c-1.37-2.09-4.13-2.73-5.82-2.73c-4.94,0-9.55,3.74-9.55,9.77c0,5.99,4.62,9.77,9.55,9.77
						c1.85,0,4.62-0.84,5.82-2.77v0.15c0,0.06-0.01,0.11-0.01,0.17c0,1.36,1.1,2.46,2.45,2.46c1.35,0,2.45-1.1,2.45-2.46
						L49.98,32.02L49.98,32.02z M39.94,44.06c-2.69,0-5.18-2.05-5.18-5.07c0-3.06,2.49-5.07,5.18-5.07c2.57,0,5.14,1.81,5.14,5.07
						C45.08,42.22,42.59,44.06,39.94,44.06"/>
					<path class="st217" d="M83.82,37.67c0-5.51-2.69-8.44-7.23-8.44c-1.49,0-4.14,0.44-5.9,3.54c-1.04-2.29-3.01-3.34-5.98-3.5
						c-1.77,0-4.34,0.84-5.38,3.14v-0.15c0-0.06,0.01-0.11,0.01-0.17c0-1.36-1.1-2.46-2.45-2.46c-1.32,0-2.4,1.05-2.45,2.37l0,0
						v14.31c0,1.36,1.1,2.46,2.45,2.46c1.35,0,2.45-1.1,2.45-2.46c0-0.06,0-0.11-0.01-0.17V38.4c0-3.22,1.93-4.38,3.93-4.38
						c1.93,0,3.41,1.45,3.45,4.06v8.02c-0.01,0.07-0.01,0.14-0.01,0.22c0,1.36,1.1,2.46,2.45,2.46c1.35,0,2.45-1.1,2.45-2.46V38.4
						c0-2.85,1.61-4.38,3.81-4.38c2.01,0,3.53,1.49,3.53,4.18v7.88c-0.01,0.08-0.01,0.17-0.01,0.26c0,1.35,1.09,2.44,2.44,2.44
						c1.35,0,2.44-1.09,2.44-2.44c0-0.01,0-0.02,0-0.03h0V37.67z"/>
				</g>
				<g class="st57">
					<g>
						<defs>
							<rect id="SVGID_324_" x="29.3" y="0" width="48.1" height="23.33"/>
						</defs>
						<clipPath id="SVGID_1_">
							<use xlink:href="#SVGID_324_"  style="overflow:visible;"/>
						</clipPath>
						<defs>
							<filter id="Adobe_OpacityMaskFilter" filterUnits="userSpaceOnUse" x="29.3" y="0" width="48.1" height="23.33">
								
									<feColorMatrix  type="matrix" values="-1 0 0 0 1  0 -1 0 0 1  0 0 -1 0 1  0 0 0 1 0" color-interpolation-filters="sRGB" result="source"/>
								<feFlood  style="flood-color:white;flood-opacity:1" result="back"/>
								<feBlend  in="source" in2="back" mode="normal"/>
							</filter>
						</defs>
						<mask maskUnits="userSpaceOnUse" x="29.3" y="0" width="48.1" height="23.33" id="SVGID_3_">
							<g class="st55">
								<g>
									<defs>
										<rect id="SVGID_327_" x="29.3" y="0" width="48.1" height="23.33"/>
									</defs>
									<clipPath id="SVGID_5_" style="clip-path:url(#SVGID_1_);">
										<use xlink:href="#SVGID_327_"  style="overflow:visible;"/>
									</clipPath>
									<rect x="28.96" y="0" style="clip-path:url(#SVGID_5_);" width="48.79" height="23.33"/>
									<g class="st57">
										<g>
											<defs>
												<rect id="SVGID_329_" x="28.96" y="0" width="48.79" height="23.33"/>
											</defs>
											<clipPath id="SVGID_6_" style="clip-path:url(#SVGID_5_);">
												<use xlink:href="#SVGID_329_"  style="overflow:visible;"/>
											</clipPath>
											<rect x="28.91" y="-0.22" style="clip-path:url(#SVGID_6_);" width="48.68" height="23.82"/>
										</g>
									</g>
								</g>
							</g>
						</mask>
						<g style="clip-path:url(#SVGID_1_);mask:url(#SVGID_3_);enable-background:new    ;">
							<g>
								<defs>
									<rect id="SVGID_331_" x="29.3" y="0" width="48.1" height="23.33"/>
								</defs>
								<clipPath id="SVGID_7_">
									<use xlink:href="#SVGID_331_"  style="overflow:visible;"/>
								</clipPath>
								<path style="clip-path:url(#SVGID_7_);fill-rule:evenodd;clip-rule:evenodd;fill:#0F53FF;" d="M77.2,7.61l-1.46-4.3
									c-0.63-1.85-2.57-3.29-4.42-3.29h-0.34V0.01h-3.92c-1.85,0-3.8,1.45-4.42,3.29l-1.36,4.03l-1.37-4.04
									C59.29,1.45,57.35,0,55.49,0h-4.25c-1.53,0-3.13,0.99-3.99,2.38l-0.01,0c-0.19,0.3-0.33,0.61-0.44,0.92l-1.38,4.07
									L44.05,3.3l0.01,0C43.44,1.45,41.5,0,39.64,0h-0.01h-3.89h-0.03h-0.31h-0.02c-1.85,0-3.8,1.45-4.42,3.29l-1.46,4.29
									c-0.02,0.07-0.55,1.61,0.16,2.67c0.38,0.57,1.02,0.88,1.89,0.92l4.27,0v-0.16l3.05,9.02c0.63,1.85,2.57,3.29,4.42,3.29h4.25
									c1.85,0,3.8-1.45,4.42-3.29l-0.43-0.15l-0.03-0.01l0.47,0.16l1.38-4.07l1.38,4.07c0.63,1.85,2.57,3.29,4.42,3.29h0.01h4.24
									h0.01c1.85,0,3.8-1.45,4.42-3.29l-0.01,0l2.99-8.83c0.02,0,0.04,0,0.06,0h4.26l0.01,0c0.87-0.04,1.51-0.36,1.89-0.92
									C77.75,9.21,77.22,7.67,77.2,7.61 M31.59,10.26c-0.57-0.03-0.95-0.2-1.16-0.52c-0.38-0.56-0.17-1.53-0.06-1.86l1.44-4.25
									l0.01,0c0.26-0.54,0.71-0.54,0.76-0.54l0.03,0c0.5,0,0.68,0.44,0.7,0.48l2.26,6.68H31.59z M47.55,22.41H43.3
									c-1.46,0-3.06-1.2-3.55-2.67L34.18,3.29c-0.14-0.39-0.6-1.05-1.46-1.1c0.73-0.76,1.74-1.27,2.69-1.27h0.31h0.03h3.89
									c1.46,0,3.06,1.2,3.55,2.67l5.57,16.45l0,0.01c0.14,0.39,0.61,1.03,1.47,1.09C49.49,21.9,48.48,22.41,47.55,22.41
									 M51.13,19.69L51.13,19.69c-0.26,0.53-0.72,0.54-0.76,0.53l-0.03,0c-0.5,0-0.7-0.43-0.72-0.49l-3.7-10.94l1.74-5.15l0.01,0
									c0.26-0.54,0.71-0.54,0.76-0.54l0.03,0c0.5,0,0.7,0.43,0.72,0.49l3.7,10.94L51.13,19.69z M59.16,22.41
									c-0.07,0-0.14,0-0.22-0.01c-1.09-0.09-2.24-0.83-2.91-1.82c-0.18-0.27-0.32-0.55-0.42-0.84l-0.01,0c0,0,0,0,0,0L50.03,3.29
									l0-0.01c-0.15-0.39-0.62-1.04-1.48-1.09c0.73-0.76,1.74-1.27,2.69-1.27h4.25c1.46,0,3.06,1.2,3.55,2.67l1.8,5.33l-0.01,0
									l3.76,11.12l0,0.01c0.14,0.39,0.61,1.04,1.47,1.09c-0.68,0.7-1.59,1.2-2.47,1.27c-0.07,0.01-0.15,0.01-0.22,0.01H59.16z
									 M66.97,19.71c-0.26,0.52-0.7,0.52-0.75,0.52l-0.03,0c-0.5,0-0.7-0.43-0.72-0.49L61.76,8.77l1.73-5.12
									c0.26-0.52,0.7-0.53,0.75-0.52l0.03,0c0.5,0,0.7,0.43,0.72,0.49l1.46,4.29c0.51,1.52,1.92,2.77,3.43,3.16L66.97,19.71z
									 M76.27,9.77c-0.21,0.32-0.59,0.49-1.16,0.52h-4.23c-1.46,0-3.06-1.2-3.56-2.67l-1.46-4.3l0-0.01
									c-0.14-0.39-0.61-1.04-1.47-1.09c0.47-0.49,1.05-0.87,1.66-1.09c0.34-0.12,0.69-0.18,1.02-0.18h4.25
									c1.46,0,3.06,1.2,3.55,2.67l1.46,4.3C76.44,8.24,76.65,9.2,76.27,9.77"/>
							</g>
						</g>
						<defs>
							<filter id="Adobe_OpacityMaskFilter_1_" filterUnits="userSpaceOnUse" x="29.3" y="0" width="48.1" height="23.33">
								<feColorMatrix  type="matrix" values="1 0 0 0 0  0 1 0 0 0  0 0 1 0 0  0 0 0 1 0"/>
							</filter>
						</defs>
						<mask maskUnits="userSpaceOnUse" x="29.3" y="0" width="48.1" height="23.33" id="SVGID_8_">
							<g class="st71">
								<g>
									<defs>
										<rect id="SVGID_334_" x="29.3" y="0" width="48.1" height="23.33"/>
									</defs>
									<clipPath id="SVGID_9_" style="clip-path:url(#SVGID_1_);">
										<use xlink:href="#SVGID_334_"  style="overflow:visible;"/>
									</clipPath>
									<rect x="28.96" y="0" style="clip-path:url(#SVGID_9_);" width="48.79" height="23.33"/>
									<g class="st57">
										
											<rect x="29.3" y="0" style="clip-path:url(#SVGID_9_);fill-rule:evenodd;clip-rule:evenodd;fill:#FFFFFF;" width="48.1" height="23.33"/>
									</g>
								</g>
							</g>
						</mask>
						<g style="clip-path:url(#SVGID_1_);mask:url(#SVGID_8_);enable-background:new    ;">
							<g>
								<defs>
									<rect id="SVGID_336_" x="29.3" y="0" width="48.1" height="23.33"/>
								</defs>
								<clipPath id="SVGID_10_">
									<use xlink:href="#SVGID_336_"  style="overflow:visible;"/>
								</clipPath>
								<path style="clip-path:url(#SVGID_10_);fill-rule:evenodd;clip-rule:evenodd;fill:#0F53FF;" d="M77.2,7.61l-1.46-4.3
									c-0.63-1.85-2.57-3.29-4.42-3.29h-0.34V0.01h-3.92c-1.85,0-3.8,1.45-4.42,3.29l-1.36,4.03l-1.37-4.04
									C59.29,1.45,57.35,0,55.49,0h-4.25c-1.53,0-3.13,0.99-3.99,2.38l-0.01,0c-0.19,0.3-0.33,0.61-0.44,0.92l-1.38,4.07
									L44.05,3.3l0.01,0C43.44,1.45,41.5,0,39.64,0h-0.01h-3.89h-0.03h-0.31h-0.02c-1.85,0-3.8,1.45-4.42,3.29l-1.46,4.29
									c-0.02,0.07-0.55,1.61,0.16,2.67c0.38,0.57,1.02,0.88,1.89,0.92l4.27,0v-0.16l3.05,9.02c0.63,1.85,2.57,3.29,4.42,3.29h4.25
									c1.85,0,3.8-1.45,4.42-3.29l-0.43-0.15l-0.03-0.01l0.47,0.16l1.38-4.07l1.38,4.07c0.63,1.85,2.57,3.29,4.42,3.29h0.01h4.24
									h0.01c1.85,0,3.8-1.45,4.42-3.29l-0.01,0l2.99-8.83c0.02,0,0.04,0,0.06,0h4.26l0.01,0c0.87-0.04,1.51-0.36,1.89-0.92
									C77.75,9.21,77.22,7.67,77.2,7.61 M31.59,10.26c-0.57-0.03-0.95-0.2-1.16-0.52c-0.38-0.56-0.17-1.53-0.06-1.86l1.44-4.25
									l0.01,0c0.26-0.54,0.71-0.54,0.76-0.54l0.03,0c0.5,0,0.68,0.44,0.7,0.48l2.26,6.68H31.59z M47.55,22.41H43.3
									c-1.46,0-3.06-1.2-3.55-2.67L34.18,3.29c-0.14-0.39-0.6-1.05-1.46-1.1c0.73-0.76,1.74-1.27,2.69-1.27h0.31h0.03h3.89
									c1.46,0,3.06,1.2,3.55,2.67l5.57,16.45l0,0.01c0.14,0.39,0.61,1.03,1.47,1.09C49.49,21.9,48.48,22.41,47.55,22.41
									 M51.13,19.69L51.13,19.69c-0.26,0.53-0.72,0.54-0.76,0.53l-0.03,0c-0.5,0-0.7-0.43-0.72-0.49l-3.7-10.94l1.74-5.15l0.01,0
									c0.26-0.54,0.71-0.54,0.76-0.54l0.03,0c0.5,0,0.7,0.43,0.72,0.49l3.7,10.94L51.13,19.69z M59.16,22.41
									c-0.07,0-0.14,0-0.22-0.01c-1.09-0.09-2.24-0.83-2.91-1.82c-0.18-0.27-0.32-0.55-0.42-0.84l-0.01,0c0,0,0,0,0,0L50.03,3.29
									l0-0.01c-0.15-0.39-0.62-1.04-1.48-1.09c0.73-0.76,1.74-1.27,2.69-1.27h4.25c1.46,0,3.06,1.2,3.55,2.67l1.8,5.33l-0.01,0
									l3.76,11.12l0,0.01c0.14,0.39,0.61,1.04,1.47,1.09c-0.68,0.7-1.59,1.2-2.47,1.27c-0.07,0.01-0.15,0.01-0.22,0.01H59.16z
									 M66.97,19.71c-0.26,0.52-0.7,0.52-0.75,0.52l-0.03,0c-0.5,0-0.7-0.43-0.72-0.49L61.76,8.77l1.73-5.12
									c0.26-0.52,0.7-0.53,0.75-0.52l0.03,0c0.5,0,0.7,0.43,0.72,0.49l1.46,4.29c0.51,1.52,1.92,2.77,3.43,3.16L66.97,19.71z
									 M76.27,9.77c-0.21,0.32-0.59,0.49-1.16,0.52h-4.23c-1.46,0-3.06-1.2-3.56-2.67l-1.46-4.3l0-0.01
									c-0.14-0.39-0.61-1.04-1.47-1.09c0.47-0.49,1.05-0.87,1.66-1.09c0.34-0.12,0.69-0.18,1.02-0.18h4.25
									c1.46,0,3.06,1.2,3.55,2.67l1.46,4.3C76.44,8.24,76.65,9.2,76.27,9.77"/>
							</g>
						</g>
					</g>
				</g>
			</g>
		</g>
	</g>
</g>
</svg>
