<svg xmlns="http://www.w3.org/2000/svg" xmlns:xlink="http://www.w3.org/1999/xlink" width="100" height="100" xmlns:v="https://vecta.io/nano"><defs><circle id="A" cx="50" cy="50" r="50"/></defs><clipPath id="B"><use xlink:href="#A"/></clipPath><g clip-path="url(#B)"><defs><path id="C" d="M-34.7-.62h171.57V99.46H-34.7z"/></defs><clipPath id="D"><use xlink:href="#C"/></clipPath><path d="M-34.7-.62h171.57V99.46H-34.7z" clip-path="url(#D)" fill="#fff"/><g fill="#bd0034"><path d="M80.2 35.57l56.7-31.74V-.62H133l-64.64 36.2zm-2.7 29.7l59.37 33.23v-6.64l-47.5-26.6zM-34.7 7l50.8 28.57h11.87L-34.7.36zm59.97 58.28l-59.96 33.6v.58h10.83l61-34.18z" clip-path="url(#D)"/></g><g fill="#1a237b"><path d="M125.13-.62H65.06v33.65zm-86.6 0H-21.3l59.83 33.65zm98.34 36.2V12.6L96.13 35.57zm0 52.43V65.28H96.13zM-17.9 99.46h56.43V67.84zm82.96 0h56.62L65.06 67.84zM-34.7 65.28v23.74L7.48 65.28zm0-29.7H7.48L-34.7 11.8z" clip-path="url(#D)"/></g><path d="M43.85-.62V41.5H-34.7v17.84h78.54v40.1h15.9v-40.1h77.12V41.5H59.76V-.62z" clip-path="url(#D)" fill="#bd0034"/></g><circle cx="50" cy="50" r="50" opacity=".1" fill="#ddd"/></svg>