<svg xmlns="http://www.w3.org/2000/svg" xmlns:xlink="http://www.w3.org/1999/xlink" width="100" height="100" xmlns:v="https://vecta.io/nano"><defs><circle id="A" cx="50" cy="50" r="50"/></defs><clipPath id="B"><use xlink:href="#A"/></clipPath><g clip-path="url(#B)"><defs><path id="C" d="M-1.27-2.04h184.5V105.6H-1.27z"/></defs><clipPath id="D"><use xlink:href="#C"/></clipPath><path d="M-1.27-2.04h184.5V51.8H-1.27z" clip-path="url(#D)" fill="#da1841"/><path d="M-1.27 51.8h184.5v53.8H-1.27z" clip-path="url(#D)" fill="#fff"/><g clip-path="url(#D)"><defs><path id="E" d="M-1.27-2.04h184.5V105.6H-1.27z"/></defs><clipPath id="F"><use xlink:href="#E"/></clipPath><path d="M54.1 24.86c0 11.2-9.06 20.25-20.23 20.25a20.25 20.25 0 0 1-20.24-20.25c0-11.17 9.07-20.23 20.24-20.23 11.18.01 20.23 9.07 20.23 20.23" clip-path="url(#F)" fill="#fff"/><path d="M60.45 24.86C60.45 35.45 51.9 44 41.33 44 30.78 44 22.2 35.45 22.2 24.87c0-10.54 8.57-19.1 19.13-19.1 10.57-.01 19.12 8.56 19.12 19.1" clip-path="url(#F)" fill="#da1841"/><g fill="#fff"><path d="M36.36 25.36l-2.74-2.1-2.76 2.1 1.06-3.4-2.75-2.1 3.4.02 1.05-3.4 1.05 3.4 3.4-.02-2.76 2.1zm21.58 0l-2.76-2.1-2.74 2.1 1.06-3.4-2.77-2.1 3.4.02 1.04-3.4 1.05 3.4 3.4-.02-2.75 2.1zm-10.8-8l-2.74-2.13-2.74 2.13 1.04-3.4-2.75-2.1h3.4l1.05-3.4 1.05 3.4 3.4-.02-2.75 2.1zm-6.75 20.8l-2.76-2.1-2.74 2.1 1.06-3.42-2.76-2.08h3.4l1.04-3.4 1.05 3.4h3.4l-2.76 2.08zm13.5 0l-2.76-2.1-2.74 2.1 1.06-3.42-2.75-2.08h3.4l1.03-3.4 1.05 3.4h3.4l-2.75 2.08z" clip-path="url(#F)"/></g></g></g><circle cx="50" cy="50" r="50" opacity=".1" fill="#ddd"/></svg>