<?xml version="1.0" encoding="utf-8"?>
<!-- Generator: Adobe Illustrator 24.1.3, SVG Export Plug-In . SVG Version: 6.00 Build 0)  -->
<svg version="1.1" id="Layer_1" xmlns:v="https://vecta.io/nano"
	 xmlns="http://www.w3.org/2000/svg" xmlns:xlink="http://www.w3.org/1999/xlink" x="0px" y="0px" width="100px" height="100px"
	 viewBox="0 0 100 100" style="enable-background:new 0 0 100 100;" xml:space="preserve">
<style type="text/css">
	.st0{clip-path:url(#SVGID_2_);}
	.st1{clip-path:url(#SVGID_4_);fill:#386FC2;}
	.st2{clip-path:url(#SVGID_6_);fill:#F3D02F;}
	.st3{clip-path:url(#SVGID_8_);fill:#429E61;}
	.st4{opacity:0.1;fill:#DDDDDD;enable-background:new    ;}
</style>
<g>
	<defs>
		<circle id="SVGID_1_" cx="50" cy="50" r="50"/>
	</defs>
	<clipPath id="SVGID_2_">
		<use xlink:href="#SVGID_1_"  style="overflow:visible;"/>
	</clipPath>
	<g class="st0">
		<g>
			<defs>
				<rect id="SVGID_3_" x="-2.7" y="-5.5" width="105.3" height="109.1"/>
			</defs>
			<clipPath id="SVGID_4_">
				<use xlink:href="#SVGID_3_"  style="overflow:visible;"/>
			</clipPath>
			<path class="st1" d="M-2.7-5.5h105.3v109.1H-2.7V-5.5z"/>
		</g>
		<g>
			<defs>
				<rect id="SVGID_5_" x="-2.7" y="-5.5" width="105.3" height="109.1"/>
			</defs>
			<clipPath id="SVGID_6_">
				<use xlink:href="#SVGID_5_"  style="overflow:visible;"/>
			</clipPath>
			<path class="st2" d="M23.7-5.5h79v109.1h-79V-5.5z"/>
		</g>
		<g>
			<g>
				<defs>
					<rect id="SVGID_7_" x="-2.7" y="-5.5" width="105.3" height="109.1"/>
				</defs>
				<clipPath id="SVGID_8_">
					<use xlink:href="#SVGID_7_"  style="overflow:visible;"/>
				</clipPath>
				<path class="st3" d="M76.3-5.5h26.3v109.1H76.3V-5.5z M44.2,64.4L50,75.8l5.7-11.5L50,52.9L44.2,64.4z M51.4,50l5.7,11.5
					L62.9,50l-5.7-11.5L51.4,50z M37.1,50l5.7,11.5L48.5,50l-5.8-11.5L37.1,50z"/>
			</g>
		</g>
	</g>
</g>
<circle class="st4" cx="50" cy="50" r="50"/>
</svg>
