<svg xmlns="http://www.w3.org/2000/svg" viewBox="0 0 32 32"><defs><style>.cls-1{fill:#969696;}</style></defs><g id="Layer_2" data-name="Layer 2"><g id="Layer_1-2" data-name="Layer 1"><rect class="cls-1" x="24.77" y="24.77" width="5.16" height="1.03"/><rect class="cls-1" x="26.84" y="26.84" width="1.03" height="1.03"/><rect class="cls-1" x="28.9" y="26.84" width="1.03" height="1.03"/><rect class="cls-1" x="24.77" y="26.84" width="1.03" height="1.03"/><rect class="cls-1" x="2.06" y="4.13" width="5.16" height="1.03"/><rect class="cls-1" x="6.19" y="6.19" width="1.03" height="1.03"/><rect class="cls-1" x="2.06" y="6.19" width="1.03" height="1.03"/><rect class="cls-1" x="4.13" y="6.19" width="1.03" height="1.03"/><path class="cls-1" d="M24.77,17.92V14.45h5.68A1.54,1.54,0,0,0,32,12.9V1.55A1.54,1.54,0,0,0,30.45,0H17a1.55,1.55,0,0,0-1.55,1.55V5.16H9.29V2.06H0V9.29H9.29V6.19h6.19v1h-1.4l-.46,1.41a6.77,6.77,0,0,0-1.15.47l-1.31-.68L8.44,11.16l.67,1.31a8.94,8.94,0,0,0-.47,1.15l-1.41.46v3.47H1.55A1.54,1.54,0,0,0,0,19.1V30.45A1.54,1.54,0,0,0,1.55,32H15a1.55,1.55,0,0,0,1.55-1.55V26.84h6.19v3.1H32V22.71H22.71v3.1H16.52v-1h1.4l.46-1.41a7.7,7.7,0,0,0,1.15-.47l1.31.68,2.72-2.73-.67-1.31a8.94,8.94,0,0,0,.47-1.15ZM8.26,8.26H1V3.1H8.26ZM23.74,23.74H31V28.9H23.74ZM20.65,16a4.64,4.64,0,0,1-4.13,4.61V19.1A1.55,1.55,0,0,0,15,17.55H11.62A4.81,4.81,0,0,1,11.35,16a4.64,4.64,0,0,1,4.13-4.61V12.9A1.55,1.55,0,0,0,17,14.45h3.35A4.81,4.81,0,0,1,20.65,16Zm-.48-2.58a3.61,3.61,0,0,1,2-2.74v.16a1.55,1.55,0,0,0,3.1,0v-.16a3.59,3.59,0,0,1,2,2.74Zm1-7.95A1.87,1.87,0,0,1,23,3.61h.21V4.84L22,5.45a1.52,1.52,0,0,0-.71.73,1.71,1.71,0,0,1-.15-.71Zm2.07,4.89a3.34,3.34,0,0,1,1,0v.48a.52.52,0,0,1-1,0Zm2.95-4.18a1.57,1.57,0,0,0-.71-.73l-1.21-.61V3.61h.2a1.86,1.86,0,0,1,1.72,2.57ZM23.23,9.29a1,1,0,0,1-1-1V6.83a.51.51,0,0,1,.29-.46l1.26-.63L25,6.37a.52.52,0,0,1,.28.46V8.26a1,1,0,0,1-1,1ZM16.52,1.55A.51.51,0,0,1,17,1H30.45a.52.52,0,0,1,.52.52V12.9a.52.52,0,0,1-.52.52H28.36A4.66,4.66,0,0,0,25.7,9.73a2.08,2.08,0,0,0,.62-1.47V7.9l.55-.82a2.9,2.9,0,0,0-2.41-4.5H23a2.9,2.9,0,0,0-2.89,2.89,3,3,0,0,0,.48,1.61l.55.82v.36a2.08,2.08,0,0,0,.62,1.47,4.65,4.65,0,0,0-2.65,3.69H17a.51.51,0,0,1-.51-.52ZM8.26,14.83l1.21-.39.08-.27a6.51,6.51,0,0,1,.59-1.44l.14-.24L9.7,11.35,11.35,9.7l1.14.58.24-.14a6.51,6.51,0,0,1,1.44-.59l.27-.08.39-1.21h.65v2.09A5.68,5.68,0,0,0,10.32,16a5.75,5.75,0,0,0,.22,1.55H8.26ZM5.16,26.32V23.74a3.1,3.1,0,0,1,2.58-3v1.18l-1.21.61a1.54,1.54,0,0,0-.85,1.38v1.43a2,2,0,0,0,.62,1.47,5.23,5.23,0,0,0-.82.49,1.56,1.56,0,0,1-.32-.93Zm2.58,0a1,1,0,0,1-1-1V23.86A.53.53,0,0,1,7,23.4l1.27-.63,1.26.63a.52.52,0,0,1,.29.46v1.43a1,1,0,0,1-1,1Zm.52,1a3.57,3.57,0,0,1,1.18.21l-.37.83H7.45l-.37-.83a3.53,3.53,0,0,1,1.18-.21Zm.35,2.07-.35.79-.35-.79ZM10.36,28A3.63,3.63,0,0,1,11.87,31H9.05Zm1-1.71a1.5,1.5,0,0,1-.32.93,4.72,4.72,0,0,0-.81-.49,2,2,0,0,0,.62-1.47V23.86A1.53,1.53,0,0,0,10,22.48l-1.21-.61V20.69a3.09,3.09,0,0,1,2.58,3ZM6.16,28,7.46,31H4.65A3.6,3.6,0,0,1,6.16,28Zm9.32,2.42A.51.51,0,0,1,15,31H12.9a4.63,4.63,0,0,0-1.11-3,2.57,2.57,0,0,0,.6-1.64V23.74a4.13,4.13,0,0,0-8.26,0v2.58A2.51,2.51,0,0,0,4.73,28a4.58,4.58,0,0,0-1.12,3H1.55A.52.52,0,0,1,1,30.45V19.1a.52.52,0,0,1,.52-.52H15a.51.51,0,0,1,.51.52Zm7.05-12.89-.08.27a6.51,6.51,0,0,1-.59,1.44l-.14.24.58,1.14L20.65,22.3l-1.14-.58-.24.14a6.51,6.51,0,0,1-1.44.59l-.27.08-.39,1.21h-.65V21.65A5.68,5.68,0,0,0,21.68,16a5.75,5.75,0,0,0-.22-1.55h2.28v2.72Z"/><rect class="cls-1" x="2.06" y="19.61" width="1.03" height="1.03"/><rect class="cls-1" x="13.42" y="19.61" width="1.03" height="1.03"/><rect class="cls-1" x="17.55" y="2.06" width="1.03" height="1.03"/><rect class="cls-1" x="28.9" y="2.06" width="1.03" height="1.03"/></g></g></svg>