<?xml version="1.0" encoding="utf-8"?>
<!-- Generator: Adobe Illustrator 24.1.3, SVG Export Plug-In . SVG Version: 6.00 Build 0)  -->
<svg version="1.0" id="Layer_1" xmlns="http://www.w3.org/2000/svg" xmlns:xlink="http://www.w3.org/1999/xlink" x="0px" y="0px"
	 width="23px" height="22.57px" viewBox="0 0 23 22.57" style="enable-background:new 0 0 23 22.57;" xml:space="preserve">
<style type="text/css">
	.st0{fill:#FFFFFF;}
</style>
<g>
	<rect y="7.52" class="st0" width="5.36" height="15.04"/>
	<path class="st0" d="M2.68,0c-0.36,0-0.7,0.07-1.03,0.2C1.33,0.33,1.04,0.52,0.79,0.77C0.53,1.02,0.34,1.3,0.2,1.63
		C0.07,1.95,0,2.28,0,2.63s0.07,0.69,0.2,1.01S0.53,4.25,0.78,4.5s0.54,0.44,0.87,0.57s0.67,0.2,1.03,0.2s0.7-0.07,1.03-0.2
		C4.04,4.94,4.33,4.75,4.58,4.5s0.44-0.53,0.58-0.85s0.2-0.66,0.2-1.01S5.29,1.96,5.15,1.63C5.02,1.3,4.82,1.02,4.57,0.77
		S4.03,0.34,3.71,0.2C3.38,0.07,3.04,0,2.68,0z"/>
	<path class="st0" d="M22.97,12.14c-0.36-2.83-1.8-4.62-5.7-4.62c-2.77,0-3.87,0.42-4.51,1.61V7.52H8.42v15.05h4.46v-7.88
		c0-1.97,0.38-3.45,2.85-3.45c2.44,0,2.63,1.83,2.63,3.58v7.75h4.6C22.96,22.56,23.05,12.8,22.97,12.14L22.97,12.14z"/>
</g>
</svg>
