<svg xmlns="http://www.w3.org/2000/svg" viewBox="0 0 43.17 43.17"><g id="Layer_2" data-name="Layer 2"><g id="Layer_1-2" data-name="Layer 1"><path d="M21.59,43.17A21.59,21.59,0,0,1,6.32,6.32,21.59,21.59,0,0,1,36.85,36.85a21.44,21.44,0,0,1-15.26,6.32Zm0-40.47A18.89,18.89,0,1,0,40.47,21.59,18.91,18.91,0,0,0,21.59,2.7Z"/><path d="M26.5,21.59a5.4,5.4,0,0,0-1.54-9V10.79a1.35,1.35,0,0,0-2.7,0v1.35h-2.7V10.79a1.35,1.35,0,1,0-2.7,0v1.35H14.17a1.35,1.35,0,0,0,0,2.7h1.34V28.33H14.17a1.35,1.35,0,1,0,0,2.7h2.69v1.35a1.35,1.35,0,0,0,2.7,0V31h2.7v1.35a1.35,1.35,0,1,0,2.7,0V30.63a5.39,5.39,0,0,0,1.54-9Zm-8.29-6.75h4.72a2.7,2.7,0,0,1,0,5.4H18.21Zm4.72,13.49H18.21v-5.4h4.72a2.7,2.7,0,1,1,0,5.4Z"/></g></g></svg>