<?xml version="1.0" encoding="utf-8"?>
<!-- Generator: Adobe Illustrator 24.1.3, SVG Export Plug-In . SVG Version: 6.00 Build 0)  -->
<svg version="1.0" id="Layer_1" xmlns="http://www.w3.org/2000/svg" xmlns:xlink="http://www.w3.org/1999/xlink" x="0px" y="0px"
	 width="21.14px" height="21px" viewBox="0 0 21.14 21" style="enable-background:new 0 0 21.14 21;" xml:space="preserve">
<style type="text/css">
	.st0{fill:#FFFFFF;}
</style>
<g>
	<path class="st0" d="M16.27,6.14c-0.17,0-0.34-0.03-0.5-0.09c-0.16-0.07-0.3-0.16-0.42-0.28c-0.12-0.12-0.22-0.26-0.28-0.42
		c-0.07-0.16-0.1-0.33-0.1-0.5s0.04-0.34,0.1-0.5c0.07-0.16,0.16-0.3,0.28-0.42c0.12-0.12,0.26-0.22,0.42-0.28
		c0.16-0.07,0.32-0.1,0.5-0.1c0.17,0,0.34,0.04,0.49,0.11c0.16,0.07,0.3,0.16,0.42,0.28s0.22,0.26,0.28,0.42
		c0.07,0.16,0.1,0.32,0.11,0.5c0,0.17-0.03,0.34-0.1,0.5s-0.16,0.3-0.28,0.42S16.93,6,16.77,6.06C16.61,6.11,16.44,6.14,16.27,6.14
		L16.27,6.14z M10.58,15.98c-0.36,0-0.71-0.04-1.06-0.11c-0.35-0.07-0.69-0.18-1.02-0.32c-0.33-0.14-0.64-0.31-0.94-0.51
		s-0.57-0.43-0.82-0.69c-0.25-0.26-0.48-0.53-0.67-0.83c-0.2-0.3-0.36-0.62-0.5-0.95c-0.13-0.33-0.24-0.68-0.3-1.03
		c-0.07-0.35-0.1-0.71-0.1-1.07S5.21,9.76,5.28,9.4S5.46,8.71,5.6,8.38c0.13-0.34,0.3-0.65,0.5-0.95S6.53,6.86,6.78,6.6
		c0.25-0.25,0.53-0.48,0.83-0.68s0.61-0.37,0.94-0.5c0.33-0.14,0.67-0.24,1.02-0.31s0.71-0.1,1.06-0.1s0.71,0.04,1.06,0.11
		c0.35,0.07,0.69,0.18,1.02,0.31c0.33,0.14,0.64,0.31,0.94,0.51c0.3,0.2,0.57,0.43,0.83,0.68s0.48,0.53,0.68,0.83
		c0.2,0.3,0.37,0.61,0.5,0.95c0.14,0.33,0.24,0.67,0.31,1.03c0.07,0.35,0.1,0.71,0.1,1.07s-0.04,0.72-0.11,1.07
		c-0.07,0.35-0.18,0.7-0.32,1.03c-0.14,0.33-0.31,0.65-0.51,0.95s-0.43,0.58-0.69,0.83c-0.26,0.25-0.53,0.48-0.83,0.68
		c-0.3,0.2-0.62,0.37-0.95,0.5s-0.68,0.24-1.03,0.31S10.94,15.98,10.58,15.98z M10.58,7.33c-0.42,0-0.82,0.09-1.21,0.25
		S8.65,7.97,8.36,8.27c-0.3,0.3-0.52,0.64-0.68,1.03c-0.16,0.39-0.24,0.79-0.23,1.21c0,0.42,0.08,0.82,0.25,1.21
		c0.16,0.39,0.39,0.73,0.69,1.02c0.3,0.3,0.64,0.52,1.03,0.68c0.39,0.16,0.79,0.24,1.21,0.24s0.82-0.08,1.21-0.24
		s0.73-0.39,1.02-0.69c0.3-0.3,0.52-0.64,0.68-1.03c0.16-0.39,0.24-0.79,0.24-1.21s-0.08-0.83-0.25-1.22
		c-0.16-0.39-0.39-0.73-0.69-1.03c-0.3-0.3-0.64-0.53-1.03-0.69C11.41,7.4,11,7.32,10.58,7.33L10.58,7.33z M21.14,15.71
		c0,0.35-0.04,0.69-0.11,1.04c-0.07,0.34-0.17,0.67-0.31,1c-0.14,0.32-0.3,0.63-0.5,0.92s-0.42,0.56-0.66,0.8s-0.52,0.46-0.81,0.66
		c-0.29,0.19-0.6,0.35-0.92,0.48s-0.65,0.23-1,0.3c-0.34,0.07-0.69,0.1-1.03,0.1H5.33c-0.35,0-0.69-0.03-1.03-0.1s-0.67-0.17-1-0.3
		c-0.32-0.13-0.63-0.29-0.92-0.49c-0.29-0.19-0.56-0.41-0.81-0.66s-0.47-0.51-0.66-0.8c-0.2-0.29-0.36-0.59-0.5-0.92
		c-0.14-0.32-0.24-0.65-0.31-0.99C0.04,16.41,0,16.06,0,15.71V5.28c0-0.35,0.04-0.69,0.11-1.04s0.17-0.67,0.31-0.99
		s0.3-0.63,0.5-0.92s0.42-0.56,0.66-0.8C1.83,1.29,2.1,1.07,2.39,0.88s0.6-0.35,0.92-0.49s0.65-0.23,1-0.3S4.99,0,5.33,0H15.8
		c0.35,0,0.69,0.03,1.03,0.09s0.67,0.16,1,0.3c0.32,0.13,0.63,0.29,0.92,0.49c0.29,0.19,0.56,0.41,0.81,0.66s0.47,0.51,0.66,0.8
		c0.2,0.29,0.36,0.59,0.5,0.92c0.14,0.32,0.24,0.65,0.31,1c0.07,0.34,0.11,0.69,0.11,1.04V15.71z M15.87,2.17H5.27
		c-0.4,0-0.79,0.08-1.17,0.23C3.73,2.56,3.4,2.77,3.12,3.06C2.83,3.34,2.61,3.67,2.45,4.05C2.3,4.42,2.22,4.81,2.21,5.21v10.54
		c0,0.41,0.08,0.8,0.23,1.17s0.38,0.71,0.66,0.99c0.29,0.29,0.62,0.51,0.99,0.66s0.76,0.23,1.17,0.23h10.6
		c0.41,0,0.8-0.07,1.17-0.23c0.38-0.15,0.71-0.37,1-0.66c0.29-0.29,0.51-0.62,0.67-0.99c0.16-0.38,0.24-0.77,0.24-1.18V5.21
		c0-0.41-0.08-0.8-0.24-1.17s-0.38-0.7-0.67-0.99s-0.62-0.5-1-0.66S16.27,2.17,15.87,2.17L15.87,2.17z"/>
</g>
</svg>
