<?xml version="1.0" encoding="utf-8"?>
<!-- Generator: Adobe Illustrator 23.0.0, SVG Export Plug-In . SVG Version: 6.00 Build 0)  -->
<svg version="1.0" id="Layer_1" xmlns="http://www.w3.org/2000/svg" xmlns:xlink="http://www.w3.org/1999/xlink" x="0px" y="0px"
	 viewBox="0 0 13.72 13.73" style="enable-background:new 0 0 13.72 13.73;" xml:space="preserve">
<style type="text/css">
	.st0{fill:#F2F5F7;}
	.st1{fill:#A92807;}
	.st2{fill:#1E1D22;}
	.st3{clip-path:url(#SVGID_2_);}
	.st4{fill:#FFFFFF;}
	.st5{fill:none;stroke:#F2F5F7;}
	.st6{fill:#2A323C;}
	.st7{fill:#1F2529;}
	.st8{fill:#96A1AB;}
	.st9{fill:#8EA1B2;}
	.st10{clip-path:url(#SVGID_6_);fill:#D00027;}
	.st11{clip-path:url(#SVGID_6_);}
	.st12{clip-path:url(#SVGID_8_);fill:#FFFFFF;}
	.st13{clip-path:url(#SVGID_8_);fill:#D00027;}
	.st14{clip-path:url(#SVGID_10_);fill:#FFFFFF;}
	.st15{clip-path:url(#SVGID_10_);fill:#BD0034;}
	.st16{clip-path:url(#SVGID_10_);fill:#1A237B;}
	.st17{clip-path:url(#SVGID_12_);}
	.st18{clip-path:url(#SVGID_16_);}
	.st19{clip-path:url(#SVGID_20_);}
	.st20{opacity:0.4;clip-path:url(#SVGID_24_);}
	.st21{clip-path:url(#SVGID_26_);fill:#FFFFFF;}
	.st22{clip-path:url(#SVGID_24_);fill:#A92807;}
	.st23{clip-path:url(#SVGID_28_);fill:#FFFFFF;}
	.st24{opacity:0.8;}
	.st25{clip-path:url(#SVGID_30_);}
	.st26{filter:url(#Adobe_OpacityMaskFilter);}
	.st27{clip-path:url(#SVGID_32_);}
	.st28{enable-background:new    ;}
	.st29{opacity:0.1412;clip-path:url(#SVGID_32_);mask:url(#SVGID_33_);}
	.st30{clip-path:url(#SVGID_37_);}
	.st31{clip-path:url(#SVGID_39_);fill:url(#SVGID_40_);}
	.st32{fill:#C4001C;}
	.st33{clip-path:url(#SVGID_42_);}
	.st34{clip-path:url(#SVGID_46_);}
	.st35{opacity:0.74;clip-path:url(#SVGID_50_);}
	.st36{clip-path:url(#SVGID_52_);}
	.st37{clip-path:url(#SVGID_54_);}
	.st38{clip-path:url(#SVGID_58_);fill:#8EA1B2;}
	.st39{clip-path:url(#SVGID_58_);fill:#A92807;}
	.st40{clip-path:url(#SVGID_58_);fill:#384657;}
	.st41{clip-path:url(#SVGID_60_);}
	.st42{fill:#384657;}
	.st43{clip-path:url(#SVGID_64_);fill:#384657;}
	.st44{clip-path:url(#SVGID_64_);fill:#8EA1B2;}
	.st45{clip-path:url(#SVGID_64_);fill:#A92807;}
	.st46{clip-path:url(#SVGID_66_);}
	.st47{fill:#E1E4E5;}
	.st48{clip-path:url(#SVGID_70_);fill:#384657;}
	.st49{clip-path:url(#SVGID_70_);fill:#8EA1B2;}
	.st50{clip-path:url(#SVGID_70_);fill:#A92807;}
	.st51{clip-path:url(#SVGID_72_);}
	.st52{clip-path:url(#SVGID_76_);fill:#384657;}
	.st53{clip-path:url(#SVGID_76_);fill:#8EA1B2;}
	.st54{clip-path:url(#SVGID_76_);fill:#A92807;}
	.st55{clip-path:url(#SVGID_78_);}
	.st56{opacity:0.6;}
	.st57{clip-path:url(#SVGID_82_);fill:#FFFFFF;}
	.st58{clip-path:url(#SVGID_84_);fill:#FFFFFF;}
	.st59{clip-path:url(#SVGID_86_);fill:#D00027;}
	.st60{clip-path:url(#SVGID_86_);}
	.st61{clip-path:url(#SVGID_88_);fill:#FFFFFF;}
	.st62{clip-path:url(#SVGID_88_);fill:#D00027;}
	.st63{clip-path:url(#SVGID_90_);}
	.st64{clip-path:url(#SVGID_94_);}
	.st65{clip-path:url(#SVGID_98_);}
	.st66{opacity:0.4;clip-path:url(#SVGID_102_);}
	.st67{clip-path:url(#SVGID_104_);fill:#FFFFFF;}
	.st68{clip-path:url(#SVGID_102_);fill:#A92807;}
	.st69{clip-path:url(#SVGID_106_);fill:#FFFFFF;}
	.st70{opacity:0.5;}
	.st71{clip-path:url(#SVGID_108_);}
	.st72{filter:url(#Adobe_OpacityMaskFilter_1_);}
	.st73{clip-path:url(#SVGID_110_);}
	.st74{opacity:0.1412;clip-path:url(#SVGID_110_);mask:url(#SVGID_111_);}
	.st75{clip-path:url(#SVGID_115_);}
	.st76{fill:none;stroke:#FFFFFF;stroke-width:3;stroke-linecap:round;stroke-linejoin:round;stroke-miterlimit:10;}
	.st77{opacity:0.502;}
	.st78{opacity:0.7;}
	.st79{clip-path:url(#SVGID_123_);fill:#D00027;}
	.st80{clip-path:url(#SVGID_123_);}
	.st81{clip-path:url(#SVGID_125_);fill:#FFFFFF;}
	.st82{clip-path:url(#SVGID_125_);fill:#D00027;}
	.st83{clip-path:url(#SVGID_127_);}
	.st84{clip-path:url(#SVGID_131_);}
	.st85{clip-path:url(#SVGID_135_);}
	.st86{clip-path:url(#SVGID_141_);}
	.st87{filter:url(#Adobe_OpacityMaskFilter_2_);}
	.st88{clip-path:url(#SVGID_143_);}
	.st89{opacity:0.1412;clip-path:url(#SVGID_143_);mask:url(#SVGID_144_);}
	.st90{clip-path:url(#SVGID_148_);}
	.st91{clip-path:url(#SVGID_150_);fill:#D00027;}
	.st92{clip-path:url(#SVGID_150_);}
	.st93{clip-path:url(#SVGID_152_);fill:#FFFFFF;}
	.st94{clip-path:url(#SVGID_152_);fill:#D00027;}
	.st95{clip-path:url(#SVGID_154_);}
	.st96{clip-path:url(#SVGID_158_);}
	.st97{clip-path:url(#SVGID_162_);}
	.st98{opacity:0.4;clip-path:url(#SVGID_166_);}
	.st99{clip-path:url(#SVGID_168_);fill:#FFFFFF;}
	.st100{clip-path:url(#SVGID_166_);fill:#A92807;}
	.st101{clip-path:url(#SVGID_170_);fill:#FFFFFF;}
	.st102{clip-path:url(#SVGID_172_);}
	.st103{fill:none;stroke:#FFFFFF;stroke-width:0.5;stroke-miterlimit:10;}
</style>
<path class="st4" d="M13.71,6.86c0,1.25-0.3,2.39-0.91,3.44c-0.61,1.05-1.44,1.88-2.5,2.5c-1.06,0.62-2.2,0.93-3.44,0.93
	s-2.39-0.31-3.46-0.93c-1.07-0.62-1.89-1.45-2.48-2.5C0.34,9.26,0.03,8.11,0,6.86c-0.03-1.25,0.28-2.4,0.93-3.44
	c0.65-1.05,1.48-1.88,2.48-2.5C4.41,0.31,5.56,0,6.87,0c1.3,0,2.45,0.31,3.44,0.93c0.99,0.62,1.82,1.45,2.5,2.5
	C13.47,4.47,13.78,5.61,13.71,6.86 M7.49,6.83C7.37,6.54,7.22,6.21,7.03,5.84C5.17,6.39,3.16,6.67,1.01,6.67v0.19
	c0,0.73,0.13,1.44,0.38,2.11c0.26,0.67,0.62,1.27,1.1,1.79c0.3-0.52,0.67-1.02,1.1-1.49c0.44-0.47,0.86-0.84,1.28-1.1
	c0.42-0.27,0.8-0.51,1.17-0.72C6.41,7.24,6.71,7.1,6.93,7.02l0.34-0.11C7.29,6.9,7.33,6.89,7.38,6.88C7.43,6.87,7.47,6.85,7.49,6.83
	 M1.12,5.66c1.8,0,3.61-0.24,5.42-0.72C5.83,3.67,5.1,2.55,4.35,1.57C3.53,1.95,2.84,2.51,2.27,3.23C1.71,3.96,1.33,4.77,1.12,5.66
	 M6.87,12.72c0.78,0,1.54-0.15,2.27-0.46c-0.25-1.43-0.66-2.91-1.25-4.45H7.87L7.86,7.82C7.76,7.85,7.63,7.9,7.47,7.97
	C7.31,8.03,7.02,8.18,6.58,8.4C6.14,8.62,5.73,8.87,5.35,9.14C4.96,9.4,4.57,9.74,4.18,10.16c-0.39,0.42-0.7,0.86-0.91,1.31
	l-0.14-0.1C4.22,12.27,5.47,12.72,6.87,12.72 M5.46,1.17H5.44H5.46z M10.72,2.46c-1.1-0.97-2.38-1.46-3.86-1.46
	c-0.46,0-0.92,0.05-1.39,0.16c0.78,1.01,1.51,2.15,2.19,3.42c0.42-0.16,0.8-0.34,1.17-0.55C9.2,3.85,9.49,3.66,9.7,3.5
	s0.41-0.33,0.58-0.51c0.17-0.18,0.28-0.3,0.34-0.37L10.72,2.46z M12.72,6.8c-0.02-1.38-0.46-2.6-1.33-3.66l-0.02,0.02
	c-0.05,0.08-0.11,0.14-0.18,0.21l-0.38,0.4c-0.19,0.2-0.4,0.39-0.64,0.54C9.94,4.46,9.65,4.65,9.3,4.88C8.95,5.1,8.55,5.3,8.11,5.46
	l0.4,0.85l0.05,0.16c0.02,0.08,0.05,0.12,0.08,0.14L9.3,6.54c0.22-0.02,0.44-0.03,0.66-0.02c0.21,0.01,0.42,0.02,0.62,0.02
	s0.39,0.01,0.56,0.03c0.17,0.02,0.34,0.04,0.51,0.05c0.17,0.01,0.32,0.03,0.43,0.06c0.12,0.03,0.22,0.05,0.32,0.05
	s0.17,0.02,0.22,0.05L12.72,6.8z M12.64,7.79c-1.25-0.35-2.46-0.44-3.65-0.26c0.52,1.42,0.9,2.82,1.14,4.19
	c0.66-0.45,1.22-1.01,1.66-1.7C12.24,9.35,12.52,8.6,12.64,7.79"/>
</svg>
