<?xml version="1.0" encoding="utf-8"?>
<!-- Generator: Adobe Illustrator 24.1.3, SVG Export Plug-In . SVG Version: 6.00 Build 0)  -->
<svg version="1.1" id="Layer_1" xmlns:v="https://vecta.io/nano"
	 xmlns="http://www.w3.org/2000/svg" xmlns:xlink="http://www.w3.org/1999/xlink" x="0px" y="0px" width="100px" height="31.2px"
	 viewBox="0 0 100 31.2" style="enable-background:new 0 0 100 31.2;" xml:space="preserve">
<style type="text/css">
	.st0{clip-path:url(#SVGID_2_);fill:url(#SVGID_3_);}
	.st1{clip-path:url(#SVGID_5_);fill:url(#SVGID_6_);}
	.st2{clip-path:url(#SVGID_8_);fill:url(#SVGID_9_);}
	.st3{clip-path:url(#SVGID_11_);fill:url(#SVGID_12_);}
	.st4{clip-path:url(#SVGID_14_);fill:url(#SVGID_15_);}
	.st5{clip-path:url(#SVGID_17_);fill:url(#SVGID_18_);}
	.st6{clip-path:url(#SVGID_20_);fill:url(#SVGID_21_);}
	.st7{clip-path:url(#SVGID_23_);fill:url(#SVGID_24_);}
	.st8{fill:url(#B_2_);}
	.st9{fill:url(#SVGID_25_);}
	.st10{fill:url(#SVGID_26_);}
	.st11{fill:url(#SVGID_27_);}
	.st12{fill:url(#SVGID_28_);}
	.st13{fill:url(#SVGID_29_);}
	.st14{fill:url(#SVGID_30_);}
	.st15{fill:url(#SVGID_31_);}
	.st16{fill:url(#B_3_);}
	.st17{fill:url(#SVGID_32_);}
	.st18{fill:url(#SVGID_33_);}
	.st19{fill:url(#SVGID_34_);}
	.st20{fill:url(#SVGID_35_);}
	.st21{fill:url(#SVGID_36_);}
	.st22{fill:url(#SVGID_37_);}
	.st23{fill:url(#SVGID_38_);}
	.st24{fill:url(#SVGID_39_);}
	.st25{fill:url(#SVGID_40_);}
	.st26{fill:url(#SVGID_41_);}
	.st27{fill:url(#SVGID_42_);}
	.st28{fill:url(#SVGID_43_);}
</style>
<g>
	<defs>
		<path id="SVGID_1_" d="M13,19.5l-6.8,6.9c-0.5,0.5-0.5,1.3,0,1.8s1.3,0.5,1.8,0l7.7-7.7l-0.9-0.9c-0.2-0.2-0.6-0.4-0.9-0.4
			C13.6,19.1,13.3,19.3,13,19.5"/>
	</defs>
	<clipPath id="SVGID_2_">
		<use xlink:href="#SVGID_1_"  style="overflow:visible;"/>
	</clipPath>
	
		<linearGradient id="SVGID_3_" gradientUnits="userSpaceOnUse" x1="6.2995" y1="3.0101" x2="14.8515" y2="11.5621" gradientTransform="matrix(1 0 0 -1 0 31.2756)">
		<stop  offset="0" style="stop-color:#0A93EB"/>
		<stop  offset="1" style="stop-color:#00387C"/>
	</linearGradient>
	<path class="st0" d="M1,23.9l9.7-9.7l9.7,9.7l-9.7,9.7L1,23.9z"/>
</g>
<g>
	<defs>
		<path id="SVGID_4_" d="M14.8,17.8l-1.6,1.6c0,0,0,0,0,0c0.5-0.3,1.1-0.3,1.6,0.1L26,30.8c0.5,0.5,1.2,0.5,1.7,0.1
			c0.6-0.5,0.6-1.3,0.1-1.8L16.5,17.8c-0.2-0.2-0.6-0.4-0.9-0.4C15.3,17.4,15,17.5,14.8,17.8"/>
	</defs>
	<clipPath id="SVGID_5_">
		<use xlink:href="#SVGID_4_"  style="overflow:visible;"/>
	</clipPath>
	
		<linearGradient id="SVGID_6_" gradientUnits="userSpaceOnUse" x1="27.4535" y1="0.1921" x2="14.5105" y2="13.1351" gradientTransform="matrix(1 0 0 -1 0 31.2756)">
		<stop  offset="0" style="stop-color:#00387C"/>
		<stop  offset="1" style="stop-color:#0A93EB"/>
	</linearGradient>
	<path class="st1" d="M20.8,39L6.2,24.4L20.8,9.8l14.6,14.6L20.8,39z"/>
</g>
<g>
	<defs>
		<path id="SVGID_7_" d="M23.3,3.1l-7.7,7.7l0.9,0.9c0.5,0.5,1.3,0.5,1.8,0c0,0,0,0,0,0l6.9-6.9c0.5-0.5,0.5-1.3,0-1.8c0,0,0,0,0,0
			c-0.2-0.2-0.6-0.4-0.9-0.4C23.9,2.7,23.6,2.8,23.3,3.1"/>
	</defs>
	<clipPath id="SVGID_8_">
		<use xlink:href="#SVGID_7_"  style="overflow:visible;"/>
	</clipPath>
	
		<linearGradient id="SVGID_9_" gradientUnits="userSpaceOnUse" x1="16.5095" y1="19.7451" x2="25.0355" y2="28.2711" gradientTransform="matrix(1 0 0 -1 0 31.2756)">
		<stop  offset="0" style="stop-color:#00387C"/>
		<stop  offset="1" style="stop-color:#0A93EB"/>
	</linearGradient>
	<path class="st2" d="M10.9,7.5l9.7-9.7l9.7,9.7l-9.7,9.7L10.9,7.5z"/>
</g>
<g>
	<defs>
		<path id="SVGID_10_" d="M3.5,0.3C3,0.7,2.9,1.5,3.4,2c0,0,0,0.1,0.1,0.1l11.3,11.3c0.5,0.5,1.3,0.5,1.8,0l1.6-1.6c0,0,0,0,0,0
			c-0.5,0.3-1.1,0.3-1.6-0.1L5.2,0.4C5,0.1,4.6,0,4.3,0C4,0,3.7,0.1,3.5,0.3"/>
	</defs>
	<clipPath id="SVGID_11_">
		<use xlink:href="#SVGID_10_"  style="overflow:visible;"/>
	</clipPath>
	
		<linearGradient id="SVGID_12_" gradientUnits="userSpaceOnUse" x1="3.716" y1="31.1246" x2="16.751" y2="18.0886" gradientTransform="matrix(1 0 0 -1 0 31.2756)">
		<stop  offset="0" style="stop-color:#00387C"/>
		<stop  offset="1" style="stop-color:#0A93EB"/>
	</linearGradient>
	<path class="st3" d="M10.5-7.6L25.1,7L10.5,21.5L-4,7L10.5-7.6z"/>
</g>
<g>
	<defs>
		<path id="SVGID_13_" d="M3.2,6.1C2.6,6.5,2.6,7.3,3,7.8c0,0,0,0.1,0.1,0.1l7.7,7.7l0.9-0.9c0.5-0.5,0.5-1.3,0-1.8L4.9,6.2
			c-0.3-0.3-0.6-0.4-1-0.4C3.7,5.8,3.4,5.9,3.2,6.1"/>
	</defs>
	<clipPath id="SVGID_14_">
		<use xlink:href="#SVGID_13_"  style="overflow:visible;"/>
	</clipPath>
	
		<linearGradient id="SVGID_15_" gradientUnits="userSpaceOnUse" x1="2.907" y1="25.0336" x2="11.491" y2="16.4496" gradientTransform="matrix(1 0 0 -1 0 31.2756)">
		<stop  offset="0" style="stop-color:#0A93EB"/>
		<stop  offset="1" style="stop-color:#00387C"/>
	</linearGradient>
	<path class="st4" d="M7.4,1l9.7,9.7l-9.7,9.7l-9.7-9.7L7.4,1z"/>
</g>
<g>
	<defs>
		<path id="SVGID_16_" d="M11.8,13.1c0.3,0.5,0.3,1.1-0.1,1.6L0.4,26c-0.5,0.5-0.5,1.2-0.1,1.7c0.5,0.6,1.3,0.6,1.8,0.1l11.3-11.3
			c0.5-0.5,0.5-1.3,0-1.8L11.8,13.1C11.8,13.1,11.8,13.1,11.8,13.1"/>
	</defs>
	<clipPath id="SVGID_17_">
		<use xlink:href="#SVGID_16_"  style="overflow:visible;"/>
	</clipPath>
	
		<linearGradient id="SVGID_18_" gradientUnits="userSpaceOnUse" x1="0.2525" y1="3.9381" x2="13.2145" y2="16.9001" gradientTransform="matrix(1 0 0 -1 0 31.2756)">
		<stop  offset="0" style="stop-color:#00387C"/>
		<stop  offset="1" style="stop-color:#0A93EB"/>
	</linearGradient>
	<path class="st5" d="M-7.7,20.7L6.9,6.1l14.6,14.6L6.9,35.3L-7.7,20.7z"/>
</g>
<g>
	<defs>
		<path id="SVGID_19_" d="M20.4,15.6l-0.9,0.9c-0.5,0.5-0.5,1.3,0,1.8c0,0,0,0,0,0l6.9,6.9c0.5,0.5,1.3,0.5,1.8,0c0,0,0,0,0,0
			c0.5-0.5,0.5-1.3,0-1.8c0,0,0,0,0,0L20.4,15.6C20.4,15.6,20.4,15.6,20.4,15.6"/>
	</defs>
	<clipPath id="SVGID_20_">
		<use xlink:href="#SVGID_19_"  style="overflow:visible;"/>
	</clipPath>
	
		<linearGradient id="SVGID_21_" gradientUnits="userSpaceOnUse" x1="19.6702" y1="14.8158" x2="28.2803" y2="6.2048" gradientTransform="matrix(1 0 0 -1 0 31.2756)">
		<stop  offset="0" style="stop-color:#00387C"/>
		<stop  offset="1" style="stop-color:#0A93EB"/>
	</linearGradient>
	<path class="st6" d="M23.8,10.8l9.8,9.8l-9.8,9.8L14,20.6L23.8,10.8z"/>
</g>
<g>
	<defs>
		<path id="SVGID_22_" d="M29.1,3.5L17.8,14.8c-0.5,0.5-0.5,1.3,0,1.8l1.6,1.6c0,0,0,0,0,0c-0.3-0.5-0.3-1.1,0.1-1.6L30.8,5.3
			c0.5-0.5,0.5-1.2,0.1-1.7c-0.2-0.3-0.6-0.5-1-0.5C29.6,3.1,29.3,3.2,29.1,3.5"/>
	</defs>
	<clipPath id="SVGID_23_">
		<use xlink:href="#SVGID_22_"  style="overflow:visible;"/>
	</clipPath>
	
		<linearGradient id="SVGID_24_" gradientUnits="userSpaceOnUse" x1="17.9135" y1="14.2331" x2="30.8605" y2="27.1811" gradientTransform="matrix(1 0 0 -1 0 31.2756)">
		<stop  offset="0" style="stop-color:#0A93EB"/>
		<stop  offset="1" style="stop-color:#00387C"/>
	</linearGradient>
	<path class="st7" d="M9.8,10.6L24.3-3.9l14.6,14.6L24.3,25.2L9.8,10.6z"/>
</g>
<g>
	
		<linearGradient id="B_2_" gradientUnits="userSpaceOnUse" x1="37.308" y1="5.6039" x2="40.634" y2="5.6039" gradientTransform="matrix(1 0 0 -1 0 31.2756)">
		<stop  offset="0" style="stop-color:#00387C"/>
		<stop  offset="1" style="stop-color:#0A93EB"/>
	</linearGradient>
	<path id="B" class="st8" d="M37.8,28.9c-0.3-0.3-0.5-0.7-0.5-1.2v-3.9c0-0.5,0.2-0.9,0.5-1.2c0.3-0.3,0.7-0.5,1.2-0.5
		s0.9,0.1,1.2,0.5s0.5,0.7,0.5,1.2v0.2c0,0,0,0.1,0,0.1s0,0-0.1,0l-0.3,0c-0.1,0-0.1,0-0.1-0.1v-0.3c0-0.4-0.1-0.6-0.3-0.9
		c-0.2-0.2-0.5-0.3-0.8-0.3c-0.3,0-0.6,0.1-0.8,0.3c-0.2,0.2-0.3,0.5-0.3,0.9v4c0,0.4,0.1,0.6,0.3,0.9c0.2,0.2,0.5,0.3,0.8,0.3
		c0.3,0,0.6-0.1,0.8-0.3C40,28.3,40,28,40,27.7v-0.2c0-0.1,0-0.1,0.1-0.1l0.3,0c0.1,0,0.1,0,0.1,0.1v0.2c0,0.5-0.2,0.9-0.5,1.2
		c-0.3,0.3-0.7,0.5-1.2,0.5C38.5,29.4,38.1,29.2,37.8,28.9"/>
</g>
<linearGradient id="SVGID_25_" gradientUnits="userSpaceOnUse" x1="42.006" y1="5.5859" x2="45.322" y2="5.5859" gradientTransform="matrix(1 0 0 -1 0 31.2756)">
	<stop  offset="0" style="stop-color:#00387C"/>
	<stop  offset="1" style="stop-color:#0A93EB"/>
</linearGradient>
<path class="st9" d="M44.8,29.2l-1.1-3.2c0,0,0,0,0,0h-1c0,0,0,0,0,0v3.2c0,0.1,0,0.1-0.1,0.1h-0.3c-0.1,0-0.1,0-0.1-0.1v-6.9
	c0-0.1,0-0.1,0.1-0.1h1.6c0.4,0,0.9,0.2,1.2,0.5c0.3,0.4,0.4,0.8,0.4,1.4c0,0.5-0.1,0.9-0.3,1.2c-0.2,0.3-0.5,0.5-0.8,0.7
	c0,0,0,0,0,0l1.2,3.3l0,0c0,0,0,0.1-0.1,0.1h-0.3C44.8,29.3,44.8,29.3,44.8,29.2 M42.6,22.6v2.8c0,0,0,0,0,0h1
	c0.3,0,0.6-0.1,0.8-0.4c0.2-0.3,0.3-0.6,0.3-1s-0.1-0.8-0.3-1c-0.2-0.3-0.5-0.4-0.8-0.4L42.6,22.6C42.6,22.6,42.6,22.6,42.6,22.6"/>
<linearGradient id="SVGID_26_" gradientUnits="userSpaceOnUse" x1="45.987" y1="5.6057" x2="49.395" y2="5.6057" gradientTransform="matrix(1 0 0 -1 0 31.2756)">
	<stop  offset="0" style="stop-color:#00387C"/>
	<stop  offset="1" style="stop-color:#0A93EB"/>
</linearGradient>
<path class="st10" d="M47.4,29.2V26c0,0,0,0,0,0L46,22.2v0c0,0,0-0.1,0.1-0.1h0.4c0.1,0,0.1,0,0.1,0.1l1.1,3.1c0,0,0,0,0,0s0,0,0,0
	l1.1-3.1c0-0.1,0.1-0.1,0.1-0.1h0.4c0,0,0.1,0,0.1,0c0,0,0,0,0,0.1L48,25.9c0,0,0,0,0,0v3.2c0,0.1,0,0.1-0.1,0.1h-0.3
	C47.5,29.3,47.4,29.2,47.4,29.2"/>
<linearGradient id="SVGID_27_" gradientUnits="userSpaceOnUse" x1="50.348" y1="5.6256" x2="53.644" y2="5.6256" gradientTransform="matrix(1 0 0 -1 0 31.2756)">
	<stop  offset="0" style="stop-color:#00387C"/>
	<stop  offset="1" style="stop-color:#0A93EB"/>
</linearGradient>
<path class="st11" d="M53.2,22.6c0.3,0.4,0.4,0.8,0.4,1.4s-0.2,1-0.4,1.4s-0.7,0.5-1.1,0.5h-1.1c0,0,0,0,0,0v3.2
	c0,0.1,0,0.1-0.1,0.1h-0.3c-0.1,0-0.1,0-0.1-0.1v-7c0-0.1,0-0.1,0.1-0.1H52C52.5,22.1,52.9,22.2,53.2,22.6 M52.8,25.1
	c0.2-0.3,0.3-0.6,0.3-1c0-0.4-0.1-0.8-0.3-1.1c-0.2-0.3-0.5-0.4-0.8-0.4h-1c0,0,0,0,0,0v2.8c0,0,0,0,0,0h1
	C52.3,25.5,52.6,25.3,52.8,25.1"/>
<linearGradient id="SVGID_28_" gradientUnits="userSpaceOnUse" x1="54.38" y1="5.6056" x2="57.85" y2="5.6056" gradientTransform="matrix(1 0 0 -1 0 31.2756)">
	<stop  offset="0" style="stop-color:#00387C"/>
	<stop  offset="1" style="stop-color:#0A93EB"/>
</linearGradient>
<path class="st12" d="M57.8,22.2v0.3c0,0.1,0,0.1-0.1,0.1h-1.3c0,0,0,0,0,0v6.5c0,0.1,0,0.1-0.1,0.1h-0.3c-0.1,0-0.1,0-0.1-0.1v-6.6
	c0,0,0,0,0,0h-1.3c-0.1,0-0.1,0-0.1-0.1v-0.3c0-0.1,0-0.1,0.1-0.1h3.3C57.8,22.1,57.9,22.1,57.8,22.2"/>
<linearGradient id="SVGID_29_" gradientUnits="userSpaceOnUse" x1="58.485" y1="5.6006" x2="61.865" y2="5.6006" gradientTransform="matrix(1 0 0 -1 0 31.2756)">
	<stop  offset="0" style="stop-color:#00387C"/>
	<stop  offset="1" style="stop-color:#0A93EB"/>
</linearGradient>
<path class="st13" d="M59,28.9c-0.3-0.3-0.5-0.7-0.5-1.2v-3.9c0-0.5,0.2-0.9,0.5-1.2c0.3-0.3,0.7-0.5,1.2-0.5s0.9,0.2,1.2,0.5
	c0.3,0.3,0.5,0.7,0.5,1.2v3.9c0,0.5-0.2,0.9-0.5,1.2c-0.3,0.3-0.7,0.5-1.2,0.5C59.7,29.3,59.3,29.2,59,28.9 M61,28.5
	c0.2-0.2,0.3-0.5,0.3-0.9v-3.9c0-0.4-0.1-0.7-0.3-0.9s-0.5-0.3-0.8-0.3s-0.6,0.1-0.8,0.3S59,23.3,59,23.7v3.9c0,0.4,0.1,0.7,0.3,0.9
	c0.2,0.2,0.5,0.3,0.8,0.3C60.5,28.9,60.8,28.7,61,28.5"/>
<linearGradient id="SVGID_30_" gradientUnits="userSpaceOnUse" x1="65.33" y1="5.6156" x2="68.442" y2="5.6156" gradientTransform="matrix(1 0 0 -1 0 31.2756)">
	<stop  offset="0" style="stop-color:#00387C"/>
	<stop  offset="1" style="stop-color:#0A93EB"/>
</linearGradient>
<path class="st14" d="M68.3,22.6h-2.4c0,0,0,0,0,0v2.8c0,0,0,0,0,0h1.6c0.1,0,0.1,0,0.1,0.1v0.3c0,0.1,0,0.1-0.1,0.1h-1.6
	c0,0,0,0,0,0v2.8c0,0,0,0,0,0h2.4c0.1,0,0.1,0,0.1,0.1v0.3c0,0.1,0,0.1-0.1,0.1h-2.9c-0.1,0-0.1,0-0.1-0.1v-7c0-0.1,0-0.1,0.1-0.1
	h2.9c0.1,0,0.1,0,0.1,0.1v0.3C68.4,22.5,68.4,22.6,68.3,22.6"/>
<linearGradient id="SVGID_31_" gradientUnits="userSpaceOnUse" x1="69.304" y1="5.6056" x2="72.814" y2="5.6056" gradientTransform="matrix(1 0 0 -1 0 31.2756)">
	<stop  offset="0" style="stop-color:#00387C"/>
	<stop  offset="1" style="stop-color:#0A93EB"/>
</linearGradient>
<path class="st15" d="M69.3,29.2c0,0,0,0,0-0.1l1.4-3.4c0,0,0,0,0-0.1l-1.5-3.4v0c0,0,0-0.1,0.1-0.1h0.4c0.1,0,0.1,0,0.1,0.1
	l1.2,2.9c0,0,0,0,0,0s0,0,0,0l1.2-2.9c0,0,0.1-0.1,0.1-0.1h0.4c0,0,0.1,0,0.1,0c0,0,0,0,0,0.1l-1.4,3.4c0,0,0,0,0,0.1l1.4,3.4l0,0
	c0,0,0,0.1-0.1,0.1h-0.4c-0.1,0-0.1,0-0.1-0.1l-1.2-2.9c0,0,0,0,0,0s0,0,0,0l-1.2,2.9c0,0-0.1,0.1-0.1,0.1L69.3,29.2
	C69.4,29.3,69.3,29.2,69.3,29.2"/>
<g>
	
		<linearGradient id="B_3_" gradientUnits="userSpaceOnUse" x1="37.308" y1="5.6039" x2="40.634" y2="5.6039" gradientTransform="matrix(1 0 0 -1 36.5 31.2756)">
		<stop  offset="0" style="stop-color:#00387C"/>
		<stop  offset="1" style="stop-color:#0A93EB"/>
	</linearGradient>
	<path id="B_1_" class="st16" d="M74.3,28.9c-0.3-0.3-0.5-0.7-0.5-1.2v-3.9c0-0.5,0.1-0.9,0.5-1.2c0.3-0.3,0.7-0.5,1.2-0.5
		s0.9,0.1,1.2,0.5c0.3,0.3,0.5,0.7,0.5,1.2v0.2c0,0,0,0.1,0,0.1c0,0,0,0-0.1,0l-0.3,0c-0.1,0-0.1,0-0.1-0.1v-0.3
		c0-0.4-0.1-0.6-0.3-0.9c-0.2-0.2-0.5-0.3-0.8-0.3c-0.3,0-0.6,0.1-0.8,0.3c-0.2,0.2-0.3,0.5-0.3,0.9v4c0,0.4,0.1,0.6,0.3,0.9
		c0.2,0.2,0.5,0.3,0.8,0.3c0.3,0,0.6-0.1,0.8-0.3c0.2-0.2,0.3-0.5,0.3-0.9v-0.2c0-0.1,0-0.1,0.1-0.1l0.3,0c0.1,0,0.1,0,0.1,0.1v0.2
		c0,0.5-0.2,0.9-0.5,1.2c-0.3,0.3-0.7,0.5-1.2,0.5C75,29.4,74.6,29.2,74.3,28.9"/>
</g>
<linearGradient id="SVGID_32_" gradientUnits="userSpaceOnUse" x1="78.505" y1="5.5956" x2="81.699" y2="5.5956" gradientTransform="matrix(1 0 0 -1 0 31.2756)">
	<stop  offset="0" style="stop-color:#00387C"/>
	<stop  offset="1" style="stop-color:#0A93EB"/>
</linearGradient>
<path class="st17" d="M81.3,22.1h0.3c0.1,0,0.1,0,0.1,0.1v7c0,0.1,0,0.1-0.1,0.1h-0.3c-0.1,0-0.1,0-0.1-0.1V26c0,0,0,0,0,0h-2
	c0,0,0,0,0,0v3.2c0,0.1,0,0.1-0.1,0.1h-0.3c-0.1,0-0.1,0-0.1-0.1v-7c0-0.1,0-0.1,0.1-0.1H79c0.1,0,0.1,0,0.1,0.1v3.2c0,0,0,0,0,0h2
	c0,0,0,0,0,0v-3.2C81.2,22.1,81.2,22.1,81.3,22.1"/>
<linearGradient id="SVGID_33_" gradientUnits="userSpaceOnUse" x1="82.627" y1="5.5956" x2="86.387" y2="5.5956" gradientTransform="matrix(1 0 0 -1 0 31.2756)">
	<stop  offset="0" style="stop-color:#00387C"/>
	<stop  offset="1" style="stop-color:#0A93EB"/>
</linearGradient>
<path class="st18" d="M85.8,29.2l-0.3-1.3c0,0,0,0,0,0s0,0,0,0h-2c0,0,0,0,0,0s0,0,0,0l-0.3,1.3c0,0.1,0,0.1-0.1,0.1h-0.3
	c0,0-0.1,0-0.1,0s0,0,0-0.1l1.6-7c0-0.1,0.1-0.1,0.1-0.1h0.4c0.1,0,0.1,0,0.1,0.1l1.6,7v0c0,0.1,0,0.1-0.1,0.1h-0.3
	C85.9,29.3,85.8,29.2,85.8,29.2 M83.6,27.3h1.8c0,0,0,0,0,0L84.5,23c0,0,0,0,0,0s0,0,0,0L83.6,27.3C83.5,27.3,83.5,27.3,83.6,27.3"
	/>
<linearGradient id="SVGID_34_" gradientUnits="userSpaceOnUse" x1="87.318" y1="5.5956" x2="90.696" y2="5.5956" gradientTransform="matrix(1 0 0 -1 0 31.2756)">
	<stop  offset="0" style="stop-color:#00387C"/>
	<stop  offset="1" style="stop-color:#0A93EB"/>
</linearGradient>
<path class="st19" d="M90.3,22.1h0.3c0.1,0,0.1,0,0.1,0.1v7c0,0.1,0,0.1-0.1,0.1h-0.4c-0.1,0-0.1,0-0.1-0.1l-2.2-5.7c0,0,0,0,0,0
	s0,0,0,0l0,5.7c0,0.1,0,0.1-0.1,0.1h-0.3c-0.1,0-0.1,0-0.1-0.1v-7c0-0.1,0-0.1,0.1-0.1h0.4c0.1,0,0.1,0,0.1,0.1l2.2,5.7c0,0,0,0,0,0
	s0,0,0,0v-5.7C90.2,22.1,90.2,22.1,90.3,22.1"/>
<linearGradient id="SVGID_35_" gradientUnits="userSpaceOnUse" x1="92.129" y1="5.5906" x2="95.456" y2="5.5906" gradientTransform="matrix(1 0 0 -1 0 31.2756)">
	<stop  offset="0" style="stop-color:#00387C"/>
	<stop  offset="1" style="stop-color:#0A93EB"/>
</linearGradient>
<path class="st20" d="M92.6,28.9c-0.3-0.3-0.5-0.7-0.5-1.2v-4c0-0.5,0.2-0.9,0.5-1.2c0.3-0.3,0.7-0.5,1.2-0.5s0.9,0.1,1.2,0.5
	c0.3,0.3,0.5,0.7,0.5,1.2v0.5c0,0.1,0,0.1-0.1,0.1H95c-0.1,0-0.1,0-0.1-0.1v-0.5c0-0.4-0.1-0.6-0.3-0.9c-0.2-0.2-0.5-0.3-0.8-0.3
	s-0.6,0.1-0.8,0.3c-0.2,0.2-0.3,0.5-0.3,0.9v4c0,0.4,0.1,0.6,0.3,0.9c0.2,0.2,0.5,0.3,0.8,0.3s0.6-0.1,0.8-0.3
	c0.2-0.2,0.3-0.5,0.3-0.9v-1.4c0,0,0,0,0,0h-1c-0.1,0-0.1,0-0.1-0.1v-0.3c0-0.1,0-0.1,0.1-0.1h1.4c0.1,0,0.1,0,0.1,0.1v1.9
	c0,0.5-0.2,0.9-0.5,1.2s-0.7,0.5-1.2,0.5S92.9,29.2,92.6,28.9"/>
<linearGradient id="SVGID_36_" gradientUnits="userSpaceOnUse" x1="96.888" y1="5.6156" x2="100" y2="5.6156" gradientTransform="matrix(1 0 0 -1 0 31.2756)">
	<stop  offset="0" style="stop-color:#00387C"/>
	<stop  offset="1" style="stop-color:#0A93EB"/>
</linearGradient>
<path class="st21" d="M99.9,22.6h-2.4c0,0,0,0,0,0v2.8c0,0,0,0,0,0H99c0.1,0,0.1,0,0.1,0.1v0.3c0,0.1,0,0.1-0.1,0.1h-1.6
	c0,0,0,0,0,0v2.8c0,0,0,0,0,0h2.4c0.1,0,0.1,0,0.1,0.1v0.3c0,0.1,0,0.1-0.1,0.1H97c-0.1,0-0.1,0-0.1-0.1v-7c0-0.1,0-0.1,0.1-0.1h2.9
	c0.1,0,0.1,0,0.1,0.1v0.3C100,22.5,100,22.6,99.9,22.6"/>
<linearGradient id="SVGID_37_" gradientUnits="userSpaceOnUse" x1="37.294" y1="19.2806" x2="38.231" y2="19.2806" gradientTransform="matrix(1 0 0 -1 0 31.2756)">
	<stop  offset="0" style="stop-color:#00387C"/>
	<stop  offset="1" style="stop-color:#0A93EB"/>
</linearGradient>
<path class="st22" d="M37.3,20.2V3.8c0-0.2,0.1-0.2,0.2-0.2H38c0.2,0,0.2,0.1,0.2,0.2v16.4c0,0.2-0.1,0.2-0.2,0.2h-0.5
	C37.4,20.4,37.3,20.3,37.3,20.2"/>
<linearGradient id="SVGID_38_" gradientUnits="userSpaceOnUse" x1="41.89" y1="19.2856" x2="49.44" y2="19.2856" gradientTransform="matrix(1 0 0 -1 0 31.2756)">
	<stop  offset="0" style="stop-color:#00387C"/>
	<stop  offset="1" style="stop-color:#0A93EB"/>
</linearGradient>
<path class="st23" d="M42.9,19.5c-0.7-0.7-1-1.6-1-2.8V7.3c0-1.2,0.3-2.1,1-2.8s1.6-1.1,2.7-1.1c1.1,0,2.1,0.3,2.8,1.1
	c0.7,0.7,1,1.6,1,2.8v0.5c0,0.2-0.1,0.2-0.2,0.2l-0.5,0c-0.2,0-0.2-0.1-0.2-0.2V7.2c0-0.9-0.3-1.6-0.8-2.2s-1.2-0.8-2.1-0.8
	s-1.5,0.3-2,0.8s-0.8,1.3-0.8,2.2v9.6c0,0.9,0.3,1.6,0.8,2.2c0.5,0.5,1.2,0.8,2,0.8c0.8,0,1.5-0.3,2.1-0.8c0.5-0.5,0.8-1.3,0.8-2.2
	v-0.5c0-0.2,0.1-0.2,0.2-0.2l0.5,0c0.2,0,0.2,0.1,0.2,0.2v0.4c0,1.2-0.3,2.1-1,2.8c-0.7,0.7-1.6,1.1-2.8,1.1
	C44.5,20.6,43.6,20.2,42.9,19.5"/>
<linearGradient id="SVGID_39_" gradientUnits="userSpaceOnUse" x1="52.896" y1="19.2656" x2="60.374" y2="19.2656" gradientTransform="matrix(1 0 0 -1 0 31.2756)">
	<stop  offset="0" style="stop-color:#00387C"/>
	<stop  offset="1" style="stop-color:#0A93EB"/>
</linearGradient>
<path class="st24" d="M59.4,20.2l-2.8-7.8c0-0.1,0-0.1-0.1-0.1h-2.6c-0.1,0-0.1,0-0.1,0.1v7.7c0,0.2-0.1,0.2-0.2,0.2h-0.5
	c-0.2,0-0.2-0.1-0.2-0.2V3.8c0-0.2,0.1-0.2,0.2-0.2h3.6c1.1,0,2,0.4,2.6,1.2s1,1.9,1,3.2c0,1.1-0.2,2-0.7,2.8s-1.2,1.2-2,1.4
	c-0.1,0-0.1,0.1-0.1,0.1l2.8,7.8l0,0.1c0,0.1-0.1,0.2-0.2,0.2h-0.4C59.6,20.4,59.5,20.4,59.4,20.2 M53.8,4.5v7c0,0.1,0,0.1,0.1,0.1
	h2.7c0.8,0,1.5-0.3,2-1s0.8-1.5,0.8-2.6c0-1.1-0.3-2-0.8-2.6s-1.2-1-2-1h-2.7C53.9,4.4,53.8,4.5,53.8,4.5"/>
<linearGradient id="SVGID_40_" gradientUnits="userSpaceOnUse" x1="62.2" y1="19.3053" x2="69.819" y2="19.3053" gradientTransform="matrix(1 0 0 -1 0 31.2756)">
	<stop  offset="0" style="stop-color:#00387C"/>
	<stop  offset="1" style="stop-color:#0A93EB"/>
</linearGradient>
<path class="st25" d="M65.5,20.2v-7.6c0-0.1,0-0.1,0-0.1l-3.3-8.6l0-0.1c0-0.1,0.1-0.2,0.2-0.2h0.5c0.1,0,0.2,0.1,0.3,0.2l2.8,7.6
	c0,0,0,0.1,0.1,0.1s0.1,0,0.1-0.1l2.7-7.6c0.1-0.1,0.1-0.2,0.3-0.2h0.5c0.1,0,0.1,0,0.2,0.1c0,0.1,0,0.1,0,0.2l-3.3,8.6
	c0,0,0,0.1,0,0.1v7.6c0,0.2-0.1,0.2-0.2,0.2h-0.5C65.6,20.4,65.5,20.3,65.5,20.2"/>
<linearGradient id="SVGID_41_" gradientUnits="userSpaceOnUse" x1="72.25" y1="19.3006" x2="79.679" y2="19.3006" gradientTransform="matrix(1 0 0 -1 0 31.2756)">
	<stop  offset="0" style="stop-color:#00387C"/>
	<stop  offset="1" style="stop-color:#0A93EB"/>
</linearGradient>
<path class="st26" d="M78.7,4.8c0.7,0.8,1,1.9,1,3.3c0,1.3-0.3,2.4-1,3.2s-1.5,1.2-2.6,1.2h-2.8c-0.1,0-0.1,0-0.1,0.1v7.7
	c0,0.2-0.1,0.2-0.2,0.2h-0.5c-0.2,0-0.2-0.1-0.2-0.2V3.8c0-0.2,0.1-0.2,0.2-0.2H76C77.1,3.5,78,3.9,78.7,4.8 M78,10.6
	c0.5-0.7,0.8-1.5,0.8-2.6c0-1.1-0.2-2-0.8-2.6c-0.5-0.7-1.2-1-2-1h-2.7c-0.1,0-0.1,0-0.1,0.1v7c0,0.1,0,0.1,0.1,0.1h2.7
	C76.8,11.6,77.5,11.3,78,10.6"/>
<linearGradient id="SVGID_42_" gradientUnits="userSpaceOnUse" x1="82.684" y1="19.2756" x2="89.752" y2="19.2756" gradientTransform="matrix(1 0 0 -1 0 31.2756)">
	<stop  offset="0" style="stop-color:#00387C"/>
	<stop  offset="1" style="stop-color:#0A93EB"/>
</linearGradient>
<path class="st27" d="M89.5,4.4h-5.8c-0.1,0-0.1,0-0.1,0.1v6.9c0,0.1,0,0.1,0.1,0.1h3.8c0.2,0,0.2,0.1,0.2,0.2v0.4
	c0,0.2-0.1,0.2-0.2,0.2h-3.8c-0.1,0-0.1,0-0.1,0.1v7c0,0.1,0,0.1,0.1,0.1h5.8c0.2,0,0.2,0.1,0.2,0.2v0.4c0,0.2-0.1,0.2-0.2,0.2h-6.6
	c-0.2,0-0.2-0.1-0.2-0.2V3.8c0-0.2,0.1-0.2,0.2-0.2h6.6c0.2,0,0.2,0.1,0.2,0.2v0.4C89.7,4.3,89.7,4.4,89.5,4.4"/>
<linearGradient id="SVGID_43_" gradientUnits="userSpaceOnUse" x1="91.9686" y1="19.2807" x2="99.8786" y2="19.2807" gradientTransform="matrix(1 0 0 -1 0 31.2756)">
	<stop  offset="0" style="stop-color:#00387C"/>
	<stop  offset="1" style="stop-color:#0A93EB"/>
</linearGradient>
<path class="st28" d="M92,20.3c0-0.1,0-0.1,0-0.2l3.4-8.1c0-0.1,0-0.1,0-0.1l-3.4-8l0-0.1c0-0.1,0.1-0.2,0.2-0.2h0.5
	c0.1,0,0.2,0.1,0.3,0.2l2.9,7.2c0,0,0,0.1,0.1,0.1S96,11,96,11l2.9-7.2c0.1-0.1,0.1-0.2,0.3-0.2h0.5c0.1,0,0.1,0,0.2,0.1
	c0,0.1,0,0.1,0,0.2l-3.4,8.1c0,0.1,0,0.1,0,0.1l3.4,8l0,0.1c0,0.1-0.1,0.2-0.2,0.2h-0.5c-0.1,0-0.2-0.1-0.3-0.2L96,13.1
	c0,0,0-0.1-0.1-0.1s-0.1,0-0.1,0.1L93,20.2c-0.1,0.1-0.1,0.2-0.3,0.2h-0.5C92.1,20.4,92,20.4,92,20.3"/>
</svg>
