<svg xmlns="http://www.w3.org/2000/svg" width="100" height="40.7" xmlns:v="https://vecta.io/nano"><path d="M5.44 20.4c0 1.4.1 2.5.3 3.25.05.17.36.33.95.5.58.16 1 .24 1.24.24.07 0 .12.15.15.44.02.3.01.5-.04.62l-3.9-.18-3.98.18c-.1-.1-.15-.3-.15-.6s.05-.46.15-.46c.3 0 .72-.08 1.3-.24.57-.16.88-.32.93-.5.17-.7.26-1.56.26-2.55v-6.9c0-.95-.17-1.6-.5-1.97a1.86 1.86 0 0 0-.89-.6c-.35-.1-.64-.16-.88-.16-.24-.01-.36-.04-.36-.1 0-.58.07-.9.22-.9l5.03-.95.07-.04h.1c.1 0 .16.1.18.3s.02.36 0 .46c-.12.97-.18 1.85-.18 2.63v7.52zM2.46 4.98c-.35-.35-.53-.78-.53-1.3a1.78 1.78 0 0 1 .53-1.3c.35-.35.78-.53 1.3-.53.5 0 .94.18 1.3.53.35.35.53.78.53 1.3a1.78 1.78 0 0 1-.53 1.3c-.36.35-.8.53-1.3.53s-.94-.18-1.3-.53zM22.5 11.9c-.4.24-1.2.82-2.37 1.73s-2.18 1.8-3.03 2.68l2.6 2.86 2.52 2.8 1.35 1.4c.4.34.94.6 1.57.78s1.08.27 1.35.27c.1 0 .15.2.15.58 0 .22-.01.35-.04.4l-3.98-.18-3.8.18c-.1-.1-.15-.3-.15-.57s.05-.42.15-.42c.24 0 .52-.05.84-.15s.47-.2.47-.33c0-.05-.01-.08-.04-.1l-5.33-5.76-.44.1v2.2c.05 1.6.15 2.7.3 3.25.05.17.36.33.95.5.58.16 1 .24 1.24.24.07 0 .12.15.15.44.02.3.01.5-.04.62l-3.9-.18-3.98.18c-.1-.1-.15-.3-.15-.6s.05-.46.15-.46c.3 0 .72-.08 1.3-.24.57-.16.88-.32.93-.5.17-.7.26-1.56.26-2.55V5.3c0-.83-.07-1.6-.22-2.33-.12-.4-.74-.58-1.86-.58H9.1c-.15 0-.22-.13-.22-.4 0-.4.07-.58.22-.58l2.02-.3c.62-.12 1.1-.24 1.46-.36l.9-.35c.24-.1.4-.2.5-.27l.2-.13h.07c.1 0 .2.07.3.2s.16.26.18.38c-.27.78-.4 1.84-.4 3.17v12.77c.5-.12.8-.23.9-.33l2.98-2.52.84-.73c.27-.24.45-.44.55-.58.1-.15.15-.3.15-.44 0-.3-.27-.46-.8-.5-.54-.05-.82-.1-.84-.15-.17-.5-.16-.77.04-.84h2.88l1.15-.04 2.86-.14c.1.05.15.16.16.33s-.01.33-.05.47c-.05.15-.1.22-.15.22-.32 0-.77.07-1.35.22s-.97.28-1.16.4zm11.57-2.5c1.34 0 2.3.32 2.88.97.58.64.88 1.68.88 3.12v8.43c0 .5.13.94.4 1.28s.63.5 1.1.5c.34 0 .77-.17 1.28-.5.1 0 .15.1.15.3 0 .32-.06.57-.18.77-1 .85-1.85 1.28-2.55 1.28-.56 0-1.1-.23-1.6-.7-.5-.46-.86-.95-1.06-1.46-.02 0-.12.08-.27.24a6.96 6.96 0 0 1-.64.55l-.93.64c-.35.22-.77.4-1.24.55s-.95.22-1.44.22c-1.12 0-2.04-.3-2.77-.9s-1.1-1.5-1.1-2.68c0-.53.13-1.04.4-1.5s.58-.86.95-1.17c.36-.3.86-.6 1.5-.93a13.92 13.92 0 0 1 1.62-.71l1.77-.6 1.53-.55c.22-.07.33-.26.33-.55v-2.74c0-.78-.24-1.38-.73-1.8s-1.07-.64-1.75-.64c-.73 0-1.34.25-1.82.75-.5.5-.73 1.15-.73 1.95 0 .85-.5 1.28-1.5 1.28-.68 0-1.16-.23-1.42-.7 0-1.05.77-2.1 2.3-3.12 1.5-1.06 3.07-1.58 4.65-1.58zm-3.43 13.56c.4.35.95.53 1.6.53s1.3-.2 1.9-.6.9-.8.9-1.22V17.9c-.2.1-.67.27-1.42.5l-1.77.64c-.43.18-.84.5-1.24.9-.4.43-.6.92-.6 1.48-.01.65.2 1.15.6 1.5zM50.72 9.38c1.43 0 2.38.35 2.85 1.06 0 .85-.13 1.47-.4 1.86s-.6.58-1 .58c-.44 0-.84-.2-1.2-.62s-.86-.62-1.5-.62c-.75 0-1.4.35-1.97 1.06s-.84 1.45-.84 2.23v5.47c0 1.4.1 2.5.3 3.25.05.17.37.33.97.5s1.02.24 1.26.24c.07 0 .12.15.15.44.02.3.01.5-.04.62l-3.94-.18-3.98.18c-.1-.1-.15-.3-.15-.6s.05-.46.15-.46c.3 0 .72-.08 1.3-.24.57-.16.88-.32.93-.5.17-.7.26-1.56.26-2.55v-6.9c0-.95-.17-1.6-.5-1.97a1.86 1.86 0 0 0-.89-.6c-.35-.1-.64-.16-.88-.16-.23 0-.35-.02-.35-.07 0-.58.07-.9.22-.9l5.03-.95a.84.84 0 0 0 .18-.04c.1 0 .16.1.18.3s.02.36 0 .46l-.22 1.82c.44-.66 1.04-1.27 1.8-1.84.77-.6 1.53-.87 2.28-.87zm11.5 0c2.2 0 4.06.8 5.62 2.37s2.33 3.48 2.33 5.7a8.04 8.04 0 0 1-2.28 5.75 7.45 7.45 0 0 1-5.6 2.39c-2.2 0-4.1-.8-5.66-2.4s-2.33-3.5-2.33-5.75c0-2.26.75-4.17 2.26-5.73 1.5-1.55 3.4-2.33 5.66-2.33zm-.4 1.42c-1.3 0-2.34.6-3.16 1.77s-1.22 2.62-1.22 4.32c0 2 .52 3.7 1.55 5.13 1.03 1.42 2.24 2.13 3.63 2.13 1.3 0 2.35-.6 3.17-1.82.83-1.22 1.24-2.68 1.24-4.38 0-1.97-.52-3.65-1.57-5.05-1.04-1.4-2.26-2.1-3.64-2.1zM77.6 9.38c.53 0 1.2.07 2.02.2l1.7.27c.24 1.12.4 2.36.44 3.72 0 .12-.16.18-.47.18-.34 0-.52-.08-.55-.26-.12-.68-.47-1.33-1.04-1.93s-1.22-.9-1.95-.9c-1.75 0-2.63.72-2.63 2.15 0 .36.05.7.15.97s.3.55.57.8l.64.55.97.58.93.53c.1.05.38.2.86.5l1 .6c.2.12.48.33.86.62s.65.55.82.78.33.52.5.88a2.57 2.57 0 0 1 .24 1.08c0 1.44-.56 2.63-1.68 3.6s-2.43 1.44-3.94 1.44c-.5 0-.98-.03-1.4-.1a13.58 13.58 0 0 1-1.51-.31l-1.35-.3c-.15-.4-.3-1-.42-1.82-.13-.83-.2-1.48-.2-1.97.2-.15.34-.22.44-.22.36 0 .56.07.58.22.15.73.6 1.44 1.37 2.13s1.6 1.04 2.5 1.04c.78 0 1.42-.2 1.92-.64s.75-1.04.75-1.84c0-.4-.08-.8-.24-1.15a2.44 2.44 0 0 0-.77-.95 8.19 8.19 0 0 0-.99-.69l-1.3-.7-1.24-.7c-1.9-1.1-2.85-2.4-2.85-3.9 0-1.3.53-2.38 1.6-3.2 1.05-.83 2.28-1.24 3.7-1.24z" fill="#12407d"/><path d="M45.8 28.17c1.2 0 2.16.4 2.84 1.22s1.02 1.68 1.02 2.6a4.57 4.57 0 0 1-1.27 3.2c-.85.92-1.8 1.38-2.88 1.38-.2 0-.36-.01-.5-.02a1.67 1.67 0 0 1-.4-.07c-.1-.03-.2-.06-.27-.1-.06-.03-.15-.06-.25-.1a1.16 1.16 0 0 1-.19-.09c-.05.06-.08.15-.08.25v1.63c0 .73.05 1.3.15 1.7.03.1.2.17.5.26.3.08.52.12.64.12.04 0 .06.08.08.24.01.16.01.26-.02.3l-2.03-.1-2.06.1c-.05-.05-.08-.15-.08-.3s.03-.24.08-.24c.15 0 .38-.04.67-.12.3-.08.46-.17.48-.26.1-.37.13-.8.13-1.33v-7.82c0-.5-.1-.83-.27-1.02-.13-.15-.28-.26-.46-.3a1.48 1.48 0 0 0-.45-.09c-.12 0-.18-.01-.18-.04 0-.3.04-.46.1-.47l2.6-.5c.01 0 .04-.01.1-.02.04 0 .06.04.06.1 0 .07-.01.15-.02.26l-.02.17v.1c.18-.13.47-.27.88-.43.45-.15.8-.22 1.1-.22zm-.6.92c-.4 0-.7.1-.97.3-.25.2-.38.5-.38.9v4.26c0 .34.18.63.55.86a2.21 2.21 0 0 0 1.2.35c.74 0 1.34-.33 1.78-1a4.01 4.01 0 0 0 .66-2.25c0-1.06-.28-1.9-.84-2.5-.55-.6-1.22-.92-2-.92zm8.8-.92c.7 0 1.2.17 1.5.5s.45.87.45 1.62v4.38c0 .27.07.5.2.66.14.18.33.27.57.27.18 0 .4-.1.66-.27.05 0 .08.05.08.15a.79.79 0 0 1-.09.4c-.52.44-.96.66-1.33.66-.3 0-.57-.12-.83-.36-.27-.24-.45-.5-.55-.76-.01 0-.06.04-.14.12s-.2.18-.33.28l-.48.33a3.16 3.16 0 0 1-.64.28c-.25.08-.5.1-.75.1-.58 0-1.06-.15-1.44-.46s-.57-.77-.57-1.4c0-.28.07-.54.2-.8a1.66 1.66 0 0 1 .5-.6 4.66 4.66 0 0 1 .78-.48l.84-.37.92-.3.8-.28c.1-.04.17-.13.17-.28v-1.42c0-.4-.13-.72-.38-.94a1.34 1.34 0 0 0-.91-.33 1.28 1.28 0 0 0-.95.39c-.25.26-.38.6-.38 1 0 .44-.26.66-.78.66-.35 0-.6-.12-.74-.36 0-.54.4-1.08 1.2-1.62.8-.53 1.6-.8 2.42-.8zm-1.8 7.03c.2.18.5.27.83.27a1.72 1.72 0 0 0 .98-.31c.32-.2.47-.42.47-.63v-1.95a7.84 7.84 0 0 1-.74.27l-.92.33a1.95 1.95 0 0 0-.64.47 1.08 1.08 0 0 0-.31.77c.01.34.12.6.33.78zm10.44-7.05c.74 0 1.24.18 1.48.55 0 .44-.07.76-.2.97-.14.2-.3.3-.5.3-.23 0-.44-.1-.63-.32s-.45-.32-.78-.32c-.4 0-.73.18-1.02.55s-.44.75-.44 1.16v2.84c0 .73.05 1.3.15 1.7.03.1.2.17.5.26.3.08.53.12.65.12.04 0 .06.08.08.23.01.15.01.26-.02.32l-2.05-.1-2.06.1c-.05-.05-.08-.15-.08-.3s.03-.24.08-.24c.15 0 .38-.04.67-.12.3-.08.46-.17.48-.26.1-.37.13-.8.13-1.33v-3.58c0-.5-.1-.83-.27-1.02-.13-.15-.28-.26-.46-.3a1.48 1.48 0 0 0-.45-.09c-.12 0-.18-.01-.18-.04 0-.3.04-.46.1-.47l2.6-.5c.01 0 .04-.01.1-.02.05 0 .08.05.1.16a.93.93 0 0 1 0 .24l-.1.95c.23-.34.54-.66.94-.96.42-.32.82-.46 1.2-.46zm3.33 1.2h-1.1c-.06 0-.1-.13-.1-.4 0-.08.01-.12.02-.13.37-.16.76-.5 1.2-1 .14-.16.27-.35.4-.56l.33-.54c.1-.15.13-.23.13-.25.38 0 .57.03.57.1v1.88l1.5.01 1.06.01c.1 0 .15.06.15.17a1.55 1.55 0 0 1-.19.72h-2.52V34c0 .5.13.9.4 1.2s.6.45 1 .45c.38 0 .77-.12 1.17-.36.04-.03.1.03.17.16s.1.2.1.22c-.2.2-.48.4-.87.6a2.63 2.63 0 0 1-1.21.29c-.63 0-1.16-.2-1.58-.63s-.63-1-.63-1.78v-4.8zm10.37-1.2c.88 0 1.5.32 1.86.95.35.63.53 1.65.53 3.07v1.72c0 .73.05 1.3.15 1.7.03.1.2.17.5.26.3.08.52.12.64.12.04 0 .06.08.08.23.01.15.01.26-.02.32l-2.03-.1-2 .1c-.05-.05-.08-.15-.08-.3s.03-.24.08-.24c.15 0 .36-.04.63-.12s.42-.17.45-.26c.1-.37.13-.8.13-1.33v-1.9c0-1.17-.15-1.98-.45-2.4s-.8-.64-1.48-.64c-.4 0-.8.15-1.16.45s-.56.57-.56.8v3.33c0 .73.05 1.3.15 1.7.03.1.2.17.5.26.3.08.52.12.64.12.04 0 .06.08.08.23.01.15.01.26-.02.32l-2.03-.1-2.06.1c-.05-.05-.08-.15-.08-.3s.03-.24.08-.24c.15 0 .38-.04.67-.12.3-.08.46-.17.48-.26.1-.37.13-.8.13-1.33V30.7c0-.5-.1-.83-.27-1.02-.13-.15-.28-.26-.46-.3a1.48 1.48 0 0 0-.45-.09c-.12 0-.18-.01-.18-.04 0-.3.04-.46.1-.47l2.6-.5c.01 0 .04-.01.1-.02.05 0 .08.05.1.16a.93.93 0 0 1 0 .24l-.08.76c0 .05.01.08.04.08.01 0 .03-.01.06-.04a4.74 4.74 0 0 1 1.18-.86c.53-.3 1-.42 1.46-.42zm7.16.04c.58 0 1.1.1 1.53.33s.78.5 1 .85a4.12 4.12 0 0 1 .51 1.06c.1.36.16.72.16 1.07 0 .25-.04.4-.1.46-.08.06-.22.1-.44.1H81.4c-.1 0-.15.03-.15.1 0 .8.24 1.53.72 2.2s1.17 1 2.08 1a3.69 3.69 0 0 0 .76-.08c.24-.05.45-.1.62-.18l.44-.2.3-.2.13-.1c.08 0 .1.08.1.25 0 .1-.04.2-.1.34-.25.35-.63.67-1.12.96-.5.28-1.03.43-1.6.43-1.05 0-1.95-.4-2.7-1.18s-1.13-1.75-1.13-2.9c0-1.33.36-2.37 1.07-3.14a3.52 3.52 0 0 1 2.69-1.16zm-.2.7a1.67 1.67 0 0 0-1.51.84c-.35.56-.52 1.03-.52 1.4 0 .1.04.13.1.13h3.7c.06 0 .1-.06.1-.2 0-.4-.17-.87-.5-1.4-.32-.52-.78-.78-1.35-.78zm8.97-.72c.74 0 1.24.18 1.48.55 0 .44-.07.76-.2.97-.14.2-.3.3-.5.3-.23 0-.44-.1-.63-.32s-.45-.32-.78-.32c-.4 0-.73.18-1.02.55s-.44.75-.44 1.16v2.84c0 .73.05 1.3.15 1.7.03.1.2.17.5.26.3.08.53.12.65.12.04 0 .06.08.08.23.01.15.01.26-.02.32l-2.05-.1-2.06.1c-.05-.05-.08-.15-.08-.3s.03-.24.08-.24c.15 0 .38-.04.67-.12.3-.08.46-.17.48-.26.1-.37.13-.8.13-1.33v-3.58c0-.5-.1-.83-.27-1.02-.13-.15-.28-.26-.46-.3a1.48 1.48 0 0 0-.45-.09c-.12 0-.18-.01-.18-.04 0-.3.04-.46.1-.47l2.6-.5c.01 0 .04-.01.1-.02.05 0 .08.05.1.16a.93.93 0 0 1 0 .24l-.1.95c.23-.34.54-.66.94-.96.43-.32.82-.46 1.2-.46zm4.78 0c.28 0 .63.03 1.05.1l.88.14c.13.58.2 1.22.23 1.93 0 .06-.08.1-.25.1-.18 0-.27-.04-.28-.13-.06-.35-.24-.7-.54-1-.3-.32-.63-.47-1-.47-.9 0-1.36.37-1.36 1.12 0 .2.03.36.08.5.05.15.15.28.3.42l.33.28c.08.06.24.16.5.3l.48.27.97.56c.1.06.25.17.44.32.2.15.34.3.43.4s.17.27.26.45c.08.18.12.37.12.56 0 .75-.3 1.37-.87 1.87s-1.26.75-2.05.75a5.46 5.46 0 0 1-.73-.05c-.23-.03-.48-.1-.8-.16l-.7-.15c-.08-.2-.15-.52-.22-.95s-.1-.77-.1-1.02c.1-.08.18-.1.23-.1.2 0 .3.04.3.1.08.38.3.75.7 1.1s.83.54 1.3.54c.4 0 .74-.1 1-.33.26-.22.4-.54.4-.96a1.53 1.53 0 0 0-.12-.6 1.23 1.23 0 0 0-.4-.5 3.46 3.46 0 0 0-.51-.36l-.67-.37-.64-.36c-.98-.57-1.48-1.24-1.48-2.03a2.02 2.02 0 0 1 .82-1.67c.55-.42 1.2-.63 1.92-.63zm-5.8-18.77c1.1 0 2 .25 2.64.74s.97 1.18.97 2.06c0 1-.32 1.88-.97 2.6s-1.56 1.44-2.74 2.17c.96 1.63 2.2 3.28 3.7 4.96a12.6 12.6 0 0 0 1.02-1.82c.27-.58.4-.95.4-1.1s-.08-.25-.24-.3-.34-.1-.54-.1-.32-.02-.35-.04c-.03-.07-.05-.17-.05-.3s.02-.22.07-.27h1.97l.8-.02.97-.05 1-.05c.08.05.12.16.12.32 0 .25-.05.37-.15.37-.22 0-.52.05-.92.15a4.13 4.13 0 0 0-.8.27c-.02.02-.13.2-.35.56L96.85 21a18.06 18.06 0 0 1-1.3 1.7l.8.82.6.56c.25.22.45.37.6.45a1.05 1.05 0 0 0 .45.1c.23 0 .5-.14.76-.42s.45-.52.54-.72c.13 0 .26.05.4.15.12.1.2.2.2.3l-.22.4c-.08.13-.23.32-.44.57s-.5.45-.85.6-.76.24-1.2.24c-.43 0-.9-.15-1.37-.45s-.85-.6-1.1-.9l-.4-.45c-1.43 1.25-2.94 1.87-4.54 1.87-1.48 0-2.66-.36-3.53-1.07s-1.3-1.7-1.3-2.94c0-1.08.37-1.98 1.1-2.7s1.75-1.42 3.04-2.08l-.7-1.28c-.16-.32-.32-.76-.5-1.3s-.25-1.1-.25-1.62c0-.95.35-1.75 1.05-2.42.7-.66 1.58-1 2.63-1zm2.44 14c-.48-.48-1.06-1.18-1.75-2.1l-1.67-2.37-.67-1-1.32.96c-.28.22-.56.57-.84 1.03-.27.47-.4.98-.4 1.55 0 1.1.34 1.92 1.02 2.47s1.52.82 2.52.82c.5 0 1.07-.12 1.66-.37s1.08-.58 1.46-1zm-2.32-13.1a1.98 1.98 0 0 0-1.4.54c-.38.36-.57.82-.57 1.38 0 1.06.43 2.38 1.3 3.94.86-.5 1.5-1 1.88-1.5s.6-1.2.6-2.1a2.58 2.58 0 0 0-.5-1.57c-.33-.44-.76-.67-1.3-.67z" fill="#0d78c4"/></svg>