<?xml version="1.0" encoding="utf-8"?>
<!-- Generator: Adobe Illustrator 23.0.0, SVG Export Plug-In . SVG Version: 6.00 Build 0)  -->
<svg version="1.0" id="Layer_1" xmlns="http://www.w3.org/2000/svg" xmlns:xlink="http://www.w3.org/1999/xlink" x="0px" y="0px"
	 viewBox="0 0 201.04 114.65" style="enable-background:new 0 0 201.04 114.65;" xml:space="preserve">
<style type="text/css">
	.st0{fill:#F2F5F7;}
	.st1{fill:#A92807;}
	.st2{fill:#1E1D22;}
	.st3{clip-path:url(#SVGID_2_);}
	.st4{fill:#FFFFFF;}
	.st5{fill:none;stroke:#F2F5F7;}
	.st6{fill:#2A323C;}
	.st7{fill:#1F2529;}
	.st8{fill:#96A1AB;}
	.st9{fill:#8EA1B2;}
	.st10{clip-path:url(#SVGID_6_);fill:#D00027;}
	.st11{clip-path:url(#SVGID_6_);}
	.st12{clip-path:url(#SVGID_8_);fill:#FFFFFF;}
	.st13{clip-path:url(#SVGID_8_);fill:#D00027;}
	.st14{clip-path:url(#SVGID_10_);fill:#FFFFFF;}
	.st15{clip-path:url(#SVGID_10_);fill:#BD0034;}
	.st16{clip-path:url(#SVGID_10_);fill:#1A237B;}
	.st17{clip-path:url(#SVGID_12_);}
	.st18{clip-path:url(#SVGID_16_);}
	.st19{clip-path:url(#SVGID_20_);}
	.st20{opacity:0.4;clip-path:url(#SVGID_24_);}
	.st21{clip-path:url(#SVGID_26_);fill:#FFFFFF;}
	.st22{clip-path:url(#SVGID_24_);fill:#A92807;}
	.st23{clip-path:url(#SVGID_28_);fill:#FFFFFF;}
	.st24{opacity:0.8;}
	.st25{clip-path:url(#SVGID_30_);}
	.st26{filter:url(#Adobe_OpacityMaskFilter);}
	.st27{clip-path:url(#SVGID_32_);}
	.st28{enable-background:new    ;}
	.st29{opacity:0.1412;clip-path:url(#SVGID_32_);mask:url(#SVGID_33_);}
	.st30{clip-path:url(#SVGID_37_);}
	.st31{clip-path:url(#SVGID_39_);fill:url(#SVGID_40_);}
	.st32{fill:#C4001C;}
	.st33{clip-path:url(#SVGID_42_);}
	.st34{clip-path:url(#SVGID_46_);}
	.st35{opacity:0.74;clip-path:url(#SVGID_50_);}
	.st36{clip-path:url(#SVGID_52_);}
	.st37{clip-path:url(#SVGID_54_);}
	.st38{clip-path:url(#SVGID_58_);fill:#8EA1B2;}
	.st39{clip-path:url(#SVGID_58_);fill:#A92807;}
	.st40{clip-path:url(#SVGID_58_);fill:#384657;}
	.st41{clip-path:url(#SVGID_60_);}
	.st42{fill:#384657;}
	.st43{clip-path:url(#SVGID_64_);fill:#384657;}
	.st44{clip-path:url(#SVGID_64_);fill:#8EA1B2;}
	.st45{clip-path:url(#SVGID_64_);fill:#A92807;}
	.st46{clip-path:url(#SVGID_66_);}
	.st47{fill:#E1E4E5;}
	.st48{clip-path:url(#SVGID_70_);fill:#384657;}
	.st49{clip-path:url(#SVGID_70_);fill:#8EA1B2;}
	.st50{clip-path:url(#SVGID_70_);fill:#A92807;}
	.st51{clip-path:url(#SVGID_72_);}
	.st52{clip-path:url(#SVGID_76_);fill:#384657;}
	.st53{clip-path:url(#SVGID_76_);fill:#8EA1B2;}
	.st54{clip-path:url(#SVGID_76_);fill:#A92807;}
	.st55{clip-path:url(#SVGID_78_);}
	.st56{opacity:0.6;}
	.st57{clip-path:url(#SVGID_82_);fill:#FFFFFF;}
	.st58{clip-path:url(#SVGID_84_);fill:#FFFFFF;}
	.st59{clip-path:url(#SVGID_86_);fill:#D00027;}
	.st60{clip-path:url(#SVGID_86_);}
	.st61{clip-path:url(#SVGID_88_);fill:#FFFFFF;}
	.st62{clip-path:url(#SVGID_88_);fill:#D00027;}
	.st63{clip-path:url(#SVGID_90_);}
	.st64{clip-path:url(#SVGID_94_);}
	.st65{clip-path:url(#SVGID_98_);}
	.st66{opacity:0.4;clip-path:url(#SVGID_102_);}
	.st67{clip-path:url(#SVGID_104_);fill:#FFFFFF;}
	.st68{clip-path:url(#SVGID_102_);fill:#A92807;}
	.st69{clip-path:url(#SVGID_106_);fill:#FFFFFF;}
	.st70{opacity:0.5;}
	.st71{clip-path:url(#SVGID_108_);}
	.st72{filter:url(#Adobe_OpacityMaskFilter_1_);}
	.st73{clip-path:url(#SVGID_110_);}
	.st74{opacity:0.1412;clip-path:url(#SVGID_110_);mask:url(#SVGID_111_);}
	.st75{clip-path:url(#SVGID_115_);}
	.st76{fill:none;stroke:#FFFFFF;stroke-width:3;stroke-linecap:round;stroke-linejoin:round;stroke-miterlimit:10;}
	.st77{opacity:0.502;}
	.st78{opacity:0.7;}
	.st79{clip-path:url(#SVGID_123_);fill:#D00027;}
	.st80{clip-path:url(#SVGID_123_);}
	.st81{clip-path:url(#SVGID_125_);fill:#FFFFFF;}
	.st82{clip-path:url(#SVGID_125_);fill:#D00027;}
	.st83{clip-path:url(#SVGID_127_);}
	.st84{clip-path:url(#SVGID_131_);}
	.st85{clip-path:url(#SVGID_135_);}
	.st86{clip-path:url(#SVGID_141_);}
	.st87{filter:url(#Adobe_OpacityMaskFilter_2_);}
	.st88{clip-path:url(#SVGID_143_);}
	.st89{opacity:0.1412;clip-path:url(#SVGID_143_);mask:url(#SVGID_144_);}
	.st90{clip-path:url(#SVGID_148_);}
	.st91{clip-path:url(#SVGID_150_);fill:#D00027;}
	.st92{clip-path:url(#SVGID_150_);}
	.st93{clip-path:url(#SVGID_152_);fill:#FFFFFF;}
	.st94{clip-path:url(#SVGID_152_);fill:#D00027;}
	.st95{clip-path:url(#SVGID_154_);}
	.st96{clip-path:url(#SVGID_158_);}
	.st97{clip-path:url(#SVGID_162_);}
	.st98{opacity:0.4;clip-path:url(#SVGID_166_);}
	.st99{clip-path:url(#SVGID_168_);fill:#FFFFFF;}
	.st100{clip-path:url(#SVGID_166_);fill:#A92807;}
	.st101{clip-path:url(#SVGID_170_);fill:#FFFFFF;}
	.st102{clip-path:url(#SVGID_172_);}
	.st103{fill:none;stroke:#FFFFFF;stroke-width:0.5;stroke-miterlimit:10;}
</style>
<g>
	<path d="M84.48,1.84c8.62,0.33,17.17-0.89,25.54,1.28c7.22,1.87,11.61,6.7,12.89,13.95c1.28,7.22-1.18,13.23-7.15,17.67
		c-0.53,0.4-1.08,0.79-1.61,1.19c-0.05,0.04-0.06,0.14-0.07,0.17c1.81,0.87,3.64,1.71,5.43,2.61C131.96,45,133,64.19,120.25,72.73
		c-4.46,2.99-9.4,4.18-14.62,4.29c-6.65,0.14-13.31,0.05-19.96,0.05c-0.36,0-0.71-0.09-1.18-0.15V1.84z M91.8,40.81v29.02
		c5.97-0.25,11.82-0.13,17.57-0.83c6.99-0.84,11.59-6.02,12.13-12.67c0.48-5.99-3.38-11.41-9.77-13.74
		C105.3,40.25,98.61,40.96,91.8,40.81 M91.82,8.98v24.06c3.52,0,6.89,0.16,10.23-0.06c1.98-0.13,4.01-0.63,5.85-1.38
		c5.12-2.07,8.09-7.29,7.51-12.77c-0.5-4.76-3.86-8.25-9.61-9.06C101.25,9.13,96.59,9.22,91.82,8.98"/>
	<path d="M72.46,77.08c-2.59,0-4.77,0.16-6.9-0.09c-0.76-0.09-1.69-1.03-2.06-1.81c-8-16.86-15.94-33.74-23.89-50.62
		c-0.98-2.07-1.96-4.14-3.11-6.54c-0.47,0.87-0.8,1.41-1.07,1.98C26.76,38.28,18.08,56.56,9.47,74.86c-0.75,1.6-1.58,2.47-3.49,2.26
		c-1.84-0.2-3.71-0.04-5.98-0.04C12.15,51.39,24.17,25.98,36.45,0C48.53,25.86,60.4,51.27,72.46,77.08"/>
	<path d="M152.38,35.55c7.7-7.19,15.4-14.37,23.1-21.56c3.93-3.67,7.83-7.38,11.83-10.98c0.69-0.62,1.79-1.05,2.73-1.1
		c2.65-0.15,5.32-0.05,8.67-0.05c-12.46,11.63-24.44,22.81-36.57,34.13c12.77,13.61,25.45,27.13,38.54,41.08
		c-3.37,0-6.1,0.05-8.83-0.04c-0.57-0.02-1.23-0.5-1.65-0.95c-12.49-13.28-24.96-26.58-37.43-39.89
		C152.63,36.04,152.55,35.82,152.38,35.55"/>
	<rect x="144.33" y="1.99" width="7.31" height="74.95"/>
	<rect x="0.3" y="84.94" class="st1" width="200.71" height="1.9"/>
	<rect x="0.29" y="112.75" class="st1" width="200.72" height="1.9"/>
	<path d="M199.54,101.6l-5.32-0.11l-0.06-1.35h6.87c-0.02,4.35-2.25,7.27-6.07,8.04c-4.9,0.99-9.26-1.1-10.93-5.22
		c-1.56-3.84-0.26-8.21,3.13-10.48c3.78-2.54,9.18-1.88,12.64,2.23l-1.54,0.03c-2.67-1.8-5.96-2.7-8.97-1.4
		c-2.63,1.14-4.37,3.87-4.17,6.59c0.23,3.12,1.87,5.33,4.81,6.4c2.79,1.01,5.49,0.77,7.7-1.39
		C198.38,104.2,199.16,102.74,199.54,101.6"/>
	<path d="M95.6,107.86V91.15c2.83,0.23,5.6,0.17,8.24,0.75c3.76,0.82,5.97,4.43,5.69,8.54c-0.28,4.05-2.58,6.87-6.48,7.37
		C100.65,108.11,98.18,107.86,95.6,107.86 M97.16,92.95v13.43c3.54-0.16,7.31,0.92,9.63-2.74c1.55-2.45,1.49-5.18-0.08-7.63
		C104.43,92.46,100.73,93.1,97.16,92.95"/>
	<path d="M39.91,90.99c5.06,0.04,8.84,3.77,8.84,8.7c0,4.87-3.99,8.83-8.85,8.78c-4.85-0.05-8.88-4.14-8.77-8.9
		C31.23,94.74,35.12,90.95,39.91,90.99 M39.95,106.78c4.02-0.01,7.07-3.05,7.08-7.07c0-3.94-3.16-7.18-7.05-7.21
		c-3.83-0.03-7.05,3.23-7.08,7.18C32.87,103.65,35.99,106.79,39.95,106.78"/>
	<path d="M163.2,108.17c0,0-7.03-8.33-10.93-12.77v12.77l-0.74,0.04l-0.48-0.03l-0.04-16.71c3.52,4.02,7.04,8.04,11.05,12.62
		c0-3.68,0-6.69,0-9.7c0-0.6,0.03-3.26,0.03-3.26h0.78h0.8c0,0,0.04,7.62,0.04,10.68v6.36H163.2z"/>
	<path d="M11.91,91.13l-0.01,17.05l-0.96-0.01l-0.6,0.01v-7.99H1.93v7.99l-0.72,0H0.19c0,0-0.08-12.27,0-17.05h1.58v7.01h8.5v-7.01
		H11.91z"/>
	<path d="M70,106.39c1.93,0,6.41,0.04,6.41,0.04v0.71v0.86c0,0-5.52,0.04-8.04,0.04c0-2.43,0-4.72,0-7c0-2.69,0.04-9.88,0.04-9.88
		h0.77L70,91.13V106.39z"/>
	<path d="M128.84,107.76c0-5.13-0.02-10.27,0.03-15.4c0-0.34,0.51-0.68,0.79-1.02c0.27,0.36,0.78,0.72,0.78,1.09
		c0.05,4.84,0.05,9.69-0.02,14.54c0,0.41-0.63,0.81-0.97,1.21C129.25,108.03,129.05,107.9,128.84,107.76"/>
	<rect x="128.84" y="91.13" width="1.64" height="17.04"/>
</g>
</svg>
