<?xml version="1.0" encoding="utf-8"?>
<!-- Generator: Adobe Illustrator 23.0.0, SVG Export Plug-In . SVG Version: 6.00 Build 0)  -->
<svg version="1.0" id="Layer_1" xmlns="http://www.w3.org/2000/svg" xmlns:xlink="http://www.w3.org/1999/xlink" x="0px" y="0px"
	 viewBox="0 0 128.64 73.36" style="enable-background:new 0 0 128.64 73.36;" xml:space="preserve">
<style type="text/css">
	.st0{fill:#F2F5F7;}
	.st1{fill:#A92807;}
	.st2{fill:#1E1D22;}
	.st3{clip-path:url(#SVGID_2_);}
	.st4{fill:#FFFFFF;}
	.st5{fill:none;stroke:#F2F5F7;}
	.st6{fill:#2A323C;}
	.st7{fill:#1F2529;}
	.st8{fill:#96A1AB;}
	.st9{fill:#8EA1B2;}
	.st10{clip-path:url(#SVGID_6_);fill:#D00027;}
	.st11{clip-path:url(#SVGID_6_);}
	.st12{clip-path:url(#SVGID_8_);fill:#FFFFFF;}
	.st13{clip-path:url(#SVGID_8_);fill:#D00027;}
	.st14{clip-path:url(#SVGID_10_);fill:#FFFFFF;}
	.st15{clip-path:url(#SVGID_10_);fill:#BD0034;}
	.st16{clip-path:url(#SVGID_10_);fill:#1A237B;}
	.st17{clip-path:url(#SVGID_12_);}
	.st18{clip-path:url(#SVGID_16_);}
	.st19{clip-path:url(#SVGID_20_);}
	.st20{opacity:0.4;clip-path:url(#SVGID_24_);}
	.st21{clip-path:url(#SVGID_26_);fill:#FFFFFF;}
	.st22{clip-path:url(#SVGID_24_);fill:#A92807;}
	.st23{clip-path:url(#SVGID_28_);fill:#FFFFFF;}
	.st24{opacity:0.8;}
	.st25{clip-path:url(#SVGID_30_);}
	.st26{filter:url(#Adobe_OpacityMaskFilter);}
	.st27{clip-path:url(#SVGID_32_);}
	.st28{enable-background:new    ;}
	.st29{opacity:0.1412;clip-path:url(#SVGID_32_);mask:url(#SVGID_33_);}
	.st30{clip-path:url(#SVGID_37_);}
	.st31{clip-path:url(#SVGID_39_);fill:url(#SVGID_40_);}
	.st32{fill:#C4001C;}
	.st33{clip-path:url(#SVGID_42_);}
	.st34{clip-path:url(#SVGID_46_);}
	.st35{opacity:0.74;clip-path:url(#SVGID_50_);}
	.st36{clip-path:url(#SVGID_52_);}
	.st37{clip-path:url(#SVGID_54_);}
	.st38{clip-path:url(#SVGID_58_);fill:#8EA1B2;}
	.st39{clip-path:url(#SVGID_58_);fill:#A92807;}
	.st40{clip-path:url(#SVGID_58_);fill:#384657;}
	.st41{clip-path:url(#SVGID_60_);}
	.st42{fill:#384657;}
	.st43{clip-path:url(#SVGID_64_);fill:#384657;}
	.st44{clip-path:url(#SVGID_64_);fill:#8EA1B2;}
	.st45{clip-path:url(#SVGID_64_);fill:#A92807;}
	.st46{clip-path:url(#SVGID_66_);}
	.st47{fill:#E1E4E5;}
	.st48{clip-path:url(#SVGID_70_);fill:#384657;}
	.st49{clip-path:url(#SVGID_70_);fill:#8EA1B2;}
	.st50{clip-path:url(#SVGID_70_);fill:#A92807;}
	.st51{clip-path:url(#SVGID_72_);}
	.st52{clip-path:url(#SVGID_76_);fill:#384657;}
	.st53{clip-path:url(#SVGID_76_);fill:#8EA1B2;}
	.st54{clip-path:url(#SVGID_76_);fill:#A92807;}
	.st55{clip-path:url(#SVGID_78_);}
	.st56{opacity:0.6;}
	.st57{clip-path:url(#SVGID_82_);fill:#FFFFFF;}
	.st58{clip-path:url(#SVGID_84_);fill:#FFFFFF;}
	.st59{clip-path:url(#SVGID_86_);fill:#D00027;}
	.st60{clip-path:url(#SVGID_86_);}
	.st61{clip-path:url(#SVGID_88_);fill:#FFFFFF;}
	.st62{clip-path:url(#SVGID_88_);fill:#D00027;}
	.st63{clip-path:url(#SVGID_90_);}
	.st64{clip-path:url(#SVGID_94_);}
	.st65{clip-path:url(#SVGID_98_);}
	.st66{opacity:0.4;clip-path:url(#SVGID_102_);}
	.st67{clip-path:url(#SVGID_104_);fill:#FFFFFF;}
	.st68{clip-path:url(#SVGID_102_);fill:#A92807;}
	.st69{clip-path:url(#SVGID_106_);fill:#FFFFFF;}
	.st70{opacity:0.5;}
	.st71{clip-path:url(#SVGID_108_);}
	.st72{filter:url(#Adobe_OpacityMaskFilter_1_);}
	.st73{clip-path:url(#SVGID_110_);}
	.st74{opacity:0.1412;clip-path:url(#SVGID_110_);mask:url(#SVGID_111_);}
	.st75{clip-path:url(#SVGID_115_);}
	.st76{fill:none;stroke:#FFFFFF;stroke-width:3;stroke-linecap:round;stroke-linejoin:round;stroke-miterlimit:10;}
	.st77{opacity:0.502;}
	.st78{opacity:0.7;}
	.st79{clip-path:url(#SVGID_123_);fill:#D00027;}
	.st80{clip-path:url(#SVGID_123_);}
	.st81{clip-path:url(#SVGID_125_);fill:#FFFFFF;}
	.st82{clip-path:url(#SVGID_125_);fill:#D00027;}
	.st83{clip-path:url(#SVGID_127_);}
	.st84{clip-path:url(#SVGID_131_);}
	.st85{clip-path:url(#SVGID_135_);}
	.st86{clip-path:url(#SVGID_141_);}
	.st87{filter:url(#Adobe_OpacityMaskFilter_2_);}
	.st88{clip-path:url(#SVGID_143_);}
	.st89{opacity:0.1412;clip-path:url(#SVGID_143_);mask:url(#SVGID_144_);}
	.st90{clip-path:url(#SVGID_148_);}
	.st91{clip-path:url(#SVGID_150_);fill:#D00027;}
	.st92{clip-path:url(#SVGID_150_);}
	.st93{clip-path:url(#SVGID_152_);fill:#FFFFFF;}
	.st94{clip-path:url(#SVGID_152_);fill:#D00027;}
	.st95{clip-path:url(#SVGID_154_);}
	.st96{clip-path:url(#SVGID_158_);}
	.st97{clip-path:url(#SVGID_162_);}
	.st98{opacity:0.4;clip-path:url(#SVGID_166_);}
	.st99{clip-path:url(#SVGID_168_);fill:#FFFFFF;}
	.st100{clip-path:url(#SVGID_166_);fill:#A92807;}
	.st101{clip-path:url(#SVGID_170_);fill:#FFFFFF;}
	.st102{clip-path:url(#SVGID_172_);}
	.st103{fill:none;stroke:#FFFFFF;stroke-width:0.5;stroke-miterlimit:10;}
</style>
<g>
	<path class="st4" d="M54.06,1.18c5.52,0.21,10.98-0.57,16.34,0.82c4.62,1.2,7.43,4.29,8.25,8.93c0.82,4.62-0.76,8.47-4.58,11.31
		c-0.34,0.25-0.69,0.5-1.03,0.76c-0.03,0.02-0.04,0.09-0.04,0.11c1.16,0.56,2.33,1.09,3.48,1.67c7.96,4.02,8.63,16.3,0.47,21.76
		c-2.86,1.91-6.01,2.67-9.35,2.75c-4.26,0.09-8.52,0.03-12.77,0.03c-0.23,0-0.46-0.06-0.76-0.1V1.18z M58.74,26.11v18.57
		c3.82-0.16,7.56-0.09,11.24-0.53c4.47-0.54,7.42-3.85,7.76-8.11c0.31-3.83-2.16-7.3-6.25-8.79C67.38,25.75,63.1,26.21,58.74,26.11
		 M58.75,5.74v15.4c2.25,0,4.41,0.1,6.55-0.04c1.26-0.08,2.56-0.4,3.74-0.88c3.28-1.32,5.18-4.66,4.81-8.17
		c-0.32-3.04-2.47-5.28-6.15-5.8C64.79,5.84,61.81,5.9,58.75,5.74"/>
	<path class="st4" d="M46.37,49.32c-1.66,0-3.05,0.1-4.42-0.05c-0.49-0.06-1.08-0.66-1.32-1.15c-5.12-10.79-10.2-21.59-15.29-32.39
		c-0.62-1.33-1.26-2.65-1.99-4.18c-0.3,0.56-0.51,0.9-0.69,1.27c-5.54,11.7-11.1,23.39-16.61,35.1c-0.48,1.03-1.01,1.58-2.23,1.45
		C2.65,49.22,1.45,49.32,0,49.32C7.78,32.88,15.46,16.62,23.32,0C31.05,16.55,38.65,32.81,46.37,49.32"/>
	<path class="st4" d="M97.51,22.75c4.93-4.6,9.85-9.2,14.78-13.79c2.52-2.35,5.01-4.72,7.57-7.02c0.44-0.4,1.15-0.67,1.75-0.71
		c1.7-0.09,3.4-0.03,5.55-0.03c-7.98,7.44-15.64,14.6-23.4,21.84c8.17,8.71,16.28,17.36,24.66,26.29c-2.15,0-3.91,0.04-5.65-0.03
		c-0.36-0.01-0.78-0.32-1.06-0.61c-7.99-8.5-15.97-17.01-23.95-25.52C97.67,23.06,97.61,22.92,97.51,22.75"/>
	<rect x="92.35" y="1.27" class="st4" width="4.68" height="47.96"/>
	<rect x="0.19" y="54.35" class="st4" width="128.43" height="1.21"/>
	<rect x="0.19" y="72.15" class="st4" width="128.44" height="1.22"/>
	<path class="st4" d="M127.68,65.01l-3.4-0.07l-0.04-0.86h4.4c-0.01,2.79-1.44,4.65-3.88,5.14c-3.13,0.63-5.92-0.7-6.99-3.34
		c-1-2.46-0.16-5.25,2-6.71c2.42-1.63,5.87-1.2,8.09,1.43l-0.98,0.02c-1.71-1.15-3.82-1.73-5.74-0.89c-1.68,0.73-2.8,2.48-2.67,4.22
		c0.15,2,1.2,3.41,3.08,4.09c1.78,0.65,3.52,0.49,4.92-0.89C126.94,66.67,127.44,65.74,127.68,65.01"/>
	<path class="st4" d="M61.17,69.02V58.33c1.81,0.15,3.58,0.11,5.27,0.48c2.4,0.52,3.82,2.84,3.64,5.46
		c-0.18,2.59-1.65,4.39-4.14,4.71C64.4,69.18,62.82,69.02,61.17,69.02 M62.17,59.48v8.59c2.26-0.1,4.68,0.59,6.16-1.76
		c0.99-1.57,0.95-3.32-0.05-4.88C66.82,59.17,64.46,59.57,62.17,59.48"/>
	<path class="st4" d="M25.54,58.22c3.23,0.03,5.66,2.41,5.66,5.57c0,3.12-2.56,5.65-5.66,5.62c-3.1-0.03-5.68-2.65-5.61-5.7
		C19.99,60.62,22.47,58.19,25.54,58.22 M25.56,68.33c2.57,0,4.53-1.95,4.53-4.52c0-2.52-2.02-4.59-4.51-4.61
		c-2.45-0.02-4.51,2.07-4.53,4.6C21.03,66.32,23.03,68.33,25.56,68.33"/>
	<path class="st4" d="M104.43,69.22c0,0-4.5-5.33-6.99-8.17v8.17l-0.47,0.02l-0.3-0.02l-0.03-10.69c2.25,2.57,4.5,5.15,7.07,8.07
		c0-2.36,0-4.28,0-6.21c0-0.38,0.02-2.09,0.02-2.09h0.5h0.51c0,0,0.03,4.88,0.03,6.84v4.07H104.43z"/>
	<path class="st4" d="M7.62,58.31l0,10.91l-0.61-0.01l-0.38,0.01v-5.11H1.24v5.11l-0.46,0H0.12c0,0-0.05-7.85,0-10.91h1.01v4.49
		h5.44v-4.49H7.62z"/>
	<path class="st4" d="M44.79,68.08c1.24,0,4.1,0.02,4.1,0.02v0.45v0.55c0,0-3.53,0.03-5.14,0.03c0-1.56,0-3.02,0-4.48
		c0-1.72,0.02-6.32,0.02-6.32h0.49l0.52-0.01V68.08z"/>
	<path class="st4" d="M82.44,68.96c0-3.28-0.01-6.57,0.02-9.85c0-0.22,0.33-0.44,0.5-0.66c0.17,0.23,0.5,0.46,0.5,0.7
		c0.03,3.1,0.04,6.2-0.01,9.3c0,0.26-0.4,0.52-0.62,0.77C82.71,69.13,82.58,69.04,82.44,68.96"/>
	<rect x="82.44" y="58.31" class="st4" width="1.05" height="10.9"/>
</g>
</svg>
