<svg xmlns="http://www.w3.org/2000/svg" viewBox="0 0 42.8 37.81"><g id="Layer_2" data-name="Layer 2"><g id="Layer_1-2" data-name="Layer 1"><path d="M39.23,26.81V23.54h2.14a.71.71,0,0,0,.71-.72V15.69a.71.71,0,0,0-.71-.71H39.23V6.42a.71.71,0,0,0-.72-.71H35.66V3.57A.71.71,0,0,0,35,2.85H29.24V.71A.71.71,0,0,0,28.53,0H3.63A3.5,3.5,0,0,0,1.15,1L1,1.15A3.45,3.45,0,0,0,0,4.1a.58.58,0,0,0,0,.18V27.22a5.58,5.58,0,0,0,5.58,5.59H24.3a5.69,5.69,0,0,0,9.22,3.73,5.7,5.7,0,1,0,7.15-8.88A5.36,5.36,0,0,0,39.23,26.81ZM40.65,16.4v5.71H31.43a2.86,2.86,0,0,1,0-5.71ZM2,2.16,2.16,2a2.08,2.08,0,0,1,1.47-.61H27.81V2.85H5A.72.72,0,0,0,5,4.28H34.23V5.71H3.51A2.08,2.08,0,0,1,1.43,3.63,2.12,2.12,0,0,1,2,2.16ZM5.58,31.38a4.15,4.15,0,0,1-4.15-4.16h0V6.44a3.46,3.46,0,0,0,2.08.69H37.8V15H31.43a4.28,4.28,0,0,0,0,8.56H37.8v2.9a5.58,5.58,0,0,0-4.28,1.21,5.69,5.69,0,0,0-9.22,3.73Zm24.37,5a4.28,4.28,0,1,1,4.28-4.28A4.27,4.27,0,0,1,30,36.37Zm7.14,0a4.28,4.28,0,0,1-2.58-.86,5.66,5.66,0,0,0,0-6.83,4.28,4.28,0,1,1,2.58,7.69Z"/><circle cx="32.09" cy="19.26" r="1.43"/></g></g></svg>