<svg xmlns="http://www.w3.org/2000/svg" viewBox="0 0 42.8 39.46"><g id="Layer_2" data-name="Layer 2"><g id="Layer_1-2" data-name="Layer 1"><path d="M23.41,17.55h7.52v-5h5V5h-5V0H23.41V5h-5v7.52h5ZM20.9,10V7.52h5v-5h2.51v5h5V10h-5v5H25.91V10Z"/><path d="M42.37,23.52A4,4,0,0,0,37,21.74l-7.09,3.58a4,4,0,0,0-3.75-2.59H21.37a10.8,10.8,0,0,0-7.44-2.83A17.2,17.2,0,0,0,8,21.45V19.77H0V39.46H8V35.53l16.76,3.16,15.86-9.81a4,4,0,0,0,1.72-5.36ZM5.53,37h-3V22.28h3ZM40.22,25.79a1.49,1.49,0,0,1-.75.88l0,0L24.3,36,8,33V24.14L8.42,24a17.48,17.48,0,0,1,5.51-1.59,8.17,8.17,0,0,1,6,2.44l.37.4h5.84a1.51,1.51,0,0,1,0,3H15.3v2.51H26.14a4,4,0,0,0,3.77-2.64L38.11,24a1.52,1.52,0,0,1,2,.67,1.5,1.5,0,0,1,.09,1.14Z"/></g></g></svg>