<svg xmlns="http://www.w3.org/2000/svg" viewBox="0 0 42.8 42.8"><g id="Layer_2" data-name="Layer 2"><g id="Layer_1-2" data-name="Layer 1"><path d="M23.47,2.83V5.62A15.89,15.89,0,0,1,37.18,19.33H40a18.75,18.75,0,0,0-16.5-16.5Z"/><path d="M17.49,11.53l1.63,4.35h4.54l1.68-5-1.59-.39-2.28,3-2.35-2.36Z"/><path d="M29,25.06a7.34,7.34,0,0,0-2.52-5.55L23.9,17.26h-5l-2.57,2.25a7.38,7.38,0,0,0,4.86,12.94h.42A7.4,7.4,0,0,0,29,25.06Zm-4.83-1.59H22.78v-.69H20.71a.69.69,0,1,0,0,1.38h1.38a2.07,2.07,0,0,1,0,4.14v1.38H20.71V28.3H18.64V26.23H20v.69h2.07a.69.69,0,0,0,0-1.38H20.71a2.07,2.07,0,0,1,0-4.14V20h1.38V21.4h2.07Z"/><path d="M11.69,8.8,10.16,6.51A18.71,18.71,0,0,0,8.71,7.73l1.94,1.94a12.28,12.28,0,0,1,1-.87Z"/><path d="M14,7.31,13,4.76a18.32,18.32,0,0,0-1.66,1L12.82,8A12.71,12.71,0,0,1,14,7.31Z"/><path d="M16.57,6.23,16,3.51c-.62.19-1.23.42-1.83.67l1.06,2.54c.43-.18.87-.34,1.31-.49Z"/><path d="M19.33,5.62V2.83a17.81,17.81,0,0,0-2,.33l.54,2.71c.47-.1.94-.19,1.42-.25Z"/><path d="M5.87,17.91l-2.71-.54a17.81,17.81,0,0,0-.33,2H5.62c.06-.48.15-.95.25-1.42Z"/><path d="M6.72,15.26,4.18,14.2c-.25.6-.48,1.21-.67,1.83l2.72.54c.15-.44.31-.88.49-1.31Z"/><path d="M9.67,10.65,7.73,8.71a18.71,18.71,0,0,0-1.22,1.45L8.8,11.69c.27-.36.57-.71.87-1Z"/><path d="M8,12.82,5.72,11.29a18.32,18.32,0,0,0-1,1.66L7.31,14A12.71,12.71,0,0,1,8,12.82Z"/><path d="M23.47,37.18V40A18.75,18.75,0,0,0,40,23.47H37.18A15.89,15.89,0,0,1,23.47,37.18Z"/><path d="M5.62,23.47H2.83A18.75,18.75,0,0,0,19.33,40V37.18A15.89,15.89,0,0,1,5.62,23.47Z"/><path d="M40.73,0a2.06,2.06,0,0,0-1.94,1.38H35.61L32.35,4.64c.4.26.78.52,1.15.81l2.68-2.69h2.61A2.07,2.07,0,1,0,40.73,0Z"/><path d="M6.62,40H4a2.07,2.07,0,1,0,0,1.38H7.19l3.26-3.26c-.39-.25-.78-.52-1.15-.81Z"/></g></g></svg>