<svg xmlns="http://www.w3.org/2000/svg" viewBox="0 0 32 32"><defs><style>.cls-1{fill:#969696;}</style></defs><g id="Layer_2" data-name="Layer 2"><g id="Layer_1-2" data-name="Layer 1"><path class="cls-1" d="M15.48,9.29h1v-1a1.55,1.55,0,0,0,0-3.1h-1a.52.52,0,0,1,0-1H17v.52h1V3.1H16.52v-1h-1v1a1.55,1.55,0,0,0,0,3.09h1a.52.52,0,0,1,0,1H15V6.71h-1V8.26h1.54Z"/><path class="cls-1" d="M32,12.39V8.26a1,1,0,0,0-1-1h-.74a5.75,5.75,0,0,0,.22-1.55,5.67,5.67,0,0,0-10.06-3.6,5.67,5.67,0,0,0-8.78,0A5.67,5.67,0,0,0,1.55,5.68a5.75,5.75,0,0,0,.22,1.55H1a1,1,0,0,0-1,1v4.13a1,1,0,0,0,1,1V28a1.54,1.54,0,0,0-1,1.45V32H8.26V29.42a1.55,1.55,0,0,0-1-1.45v-4l.52.31A1.6,1.6,0,0,0,9.3,25.8a1.6,1.6,0,0,0,1.54,1.55,1.61,1.61,0,0,0,1.55,1.55A1.61,1.61,0,0,0,14,30.45a1.57,1.57,0,0,0,.9-.28l.46.4a1.56,1.56,0,0,0,1,.4h.09a1.58,1.58,0,0,0,1.57-1.55,1.57,1.57,0,0,0,1.55-1.55,1.57,1.57,0,0,0,1.55-1.55,1.59,1.59,0,0,0,1.55-1.59,1.11,1.11,0,0,0,0-.17l2-1.23,0,.05V28a1.55,1.55,0,0,0-1,1.45V32H32V29.42A1.54,1.54,0,0,0,31,28V13.42a1,1,0,0,0,1-1ZM24.77,1a4.65,4.65,0,1,1,0,9.29,4.6,4.6,0,0,1-3.77-2A5.64,5.64,0,0,0,21,3a4.6,4.6,0,0,1,3.77-2ZM16,1a4.65,4.65,0,1,1-4.65,4.65A4.66,4.66,0,0,1,16,1ZM7.23,1A4.6,4.6,0,0,1,11,3a5.64,5.64,0,0,0,0,5.37A4.63,4.63,0,0,1,2.58,5.68,4.65,4.65,0,0,1,7.23,1ZM1,8.26H2.18a5.67,5.67,0,0,0,5.05,3.09,5.6,5.6,0,0,0,4.38-2.08,5.67,5.67,0,0,0,8.78,0,5.6,5.6,0,0,0,4.38,2.08,5.67,5.67,0,0,0,5.05-3.09H31v4.13H1ZM27.87,27.87V25.81h2.07v2.06Zm-7-10.32h-.17l-3.18-.91a3.24,3.24,0,0,0-.76-.11l-2.3-.73a6.6,6.6,0,0,0-3.3-.19l-3.95.79v-3H24.77v1l-4.35,2.48ZM4.13,27.87V25.81H6.19v2.06ZM2.06,16.52H4.13v2.06H2.06Zm4.13-3.1v2.06H4.13V13.42Zm0,8.26H4.13V19.61H6.19Zm0-3.1h-1V16.52h1Zm-4.13,1h1v2.07h-1Zm0,3.1H4.13v2.06H2.06Zm0,3.1h1v2.06h-1Zm3.1-1V22.71h1v2.06Zm20.65,0V22.71h2.06v2.06Zm0-3.09V19.61h1v2.07Zm0-3.1V16.52h2.06v2.06Zm-1-3v5.95L21.9,17.21Zm1,10.24h1v2.06h-1Zm4.13-1h-1V22.71h1Zm0-3.09H27.87V19.61h2.07Zm0-3.1h-1V16.52h1Zm-4.13-3.1V13.42h1v2.06ZM3.1,13.42v2.06h-1V13.42ZM7.23,31H1V29.42a.52.52,0,0,1,.52-.52H6.71a.53.53,0,0,1,.52.52ZM8.77,24.2a.57.57,0,0,1,.17-.41l.91-.91a.58.58,0,1,1,.82.82l-.91.9a.57.57,0,0,1-.41.17.58.58,0,0,1-.58-.57Zm1.55,1.54a.58.58,0,0,1,.17-.41l.91-.9a.57.57,0,0,1,.41-.17.58.58,0,0,1,.41,1l-.91.9a.57.57,0,0,1-.41.17.58.58,0,0,1-.58-.58Zm1.55,1.55a.58.58,0,0,1,.17-.41L13,26a.57.57,0,0,1,.41-.17.58.58,0,0,1,.58.58.56.56,0,0,1-.17.4l-.91.91a.58.58,0,0,1-1-.41ZM14,29.42a.58.58,0,0,1-.41-1l.91-.91a.61.61,0,0,1,.41-.17.58.58,0,0,1,.57.58.57.57,0,0,1-.17.41l-.9.91a.58.58,0,0,1-.41.17Zm2.49.52H16.4A.54.54,0,0,1,16,29.8l-.38-.34.38-.39a1.58,1.58,0,0,0,.33-.48l.47.39a.57.57,0,0,1,.19.42.54.54,0,0,1-.54.54Zm4.63-4.65H21a.56.56,0,0,1-.35-.13l-.08-.07-2.72-2.26-.66.79,2.72,2.27a.54.54,0,0,1-.35.95h-.11a.56.56,0,0,1-.35-.13l-.08-.07-2.72-2.26-.66.79,2.72,2.26a.57.57,0,0,1,.19.42.54.54,0,0,1-.54.54.82.82,0,0,1-.54-.2l-1.15-1a1.61,1.61,0,0,0-1.39-.9,1.61,1.61,0,0,0-1.55-1.55,1.6,1.6,0,0,0-1.54-1.55,1.61,1.61,0,0,0-2.75-1.08l-.91.91a1.15,1.15,0,0,0-.14.17l-.84-.5V17.46l4.15-.84a5.58,5.58,0,0,1,2.78.16l.73.23L12.31,18.3a1.72,1.72,0,0,0-1,1.55V20A1.73,1.73,0,0,0,14,21.43l1.92-1.15a1.07,1.07,0,0,1,1.24.12l4.36,3.92a.56.56,0,0,1,.19.41.56.56,0,0,1-.56.56Zm1.13-1.67-.07-.06-4.36-3.93a2.11,2.11,0,0,0-2.46-.24l-1.92,1.16a.75.75,0,0,1-.36.1.7.7,0,0,1-.69-.7v-.1a.69.69,0,0,1,.38-.63l2.88-1.44a2.3,2.3,0,0,1,1.61-.15l3.24.93,1.07,0,2.6,3.89ZM31,31h-6.2V29.42a.53.53,0,0,1,.52-.52h5.16a.52.52,0,0,1,.52.52Zm-1-15.49H27.87V13.42h2.07Z"/><path class="cls-1" d="M7.23,9.29A2.07,2.07,0,0,0,9.29,7.23h-1a1,1,0,0,1-2.07,0h1v-1h-1v-1h1v-1h-1a1,1,0,0,1,2.07,0h1a2.07,2.07,0,1,0-4.13,0h-1v1h1v1h-1v1h1A2.07,2.07,0,0,0,7.23,9.29Z"/><path class="cls-1" d="M24.26,5.16h-1v1h1v1h-1v1h1v1h1v-1h1v-1h-1v-1h1v-1h-1v-.3L27.2,3l-.73-.73-1.7,1.7-1.7-1.7L22.34,3l1.92,1.91Z"/></g></g></svg>