<?xml version="1.0" encoding="utf-8"?>
<!-- Generator: Adobe Illustrator 23.0.0, SVG Export Plug-In . SVG Version: 6.00 Build 0)  -->
<svg version="1.0" id="Layer_1" xmlns="http://www.w3.org/2000/svg" xmlns:xlink="http://www.w3.org/1999/xlink" x="0px" y="0px"
	 viewBox="0 0 105.52 105.31" style="enable-background:new 0 0 105.52 105.31;" xml:space="preserve">
<style type="text/css">
	.st0{fill:#F2F5F7;}
	.st1{fill:#A92807;}
	.st2{fill:#1E1D22;}
	.st3{clip-path:url(#SVGID_2_);}
	.st4{fill:#FFFFFF;}
	.st5{fill:none;stroke:#F2F5F7;}
	.st6{fill:#2A323C;}
	.st7{fill:#1F2529;}
	.st8{fill:#96A1AB;}
	.st9{fill:#8EA1B2;}
	.st10{clip-path:url(#SVGID_6_);fill:#D00027;}
	.st11{clip-path:url(#SVGID_6_);}
	.st12{clip-path:url(#SVGID_8_);fill:#FFFFFF;}
	.st13{clip-path:url(#SVGID_8_);fill:#D00027;}
	.st14{clip-path:url(#SVGID_10_);fill:#FFFFFF;}
	.st15{clip-path:url(#SVGID_10_);fill:#BD0034;}
	.st16{clip-path:url(#SVGID_10_);fill:#1A237B;}
	.st17{clip-path:url(#SVGID_12_);}
	.st18{clip-path:url(#SVGID_16_);}
	.st19{clip-path:url(#SVGID_20_);}
	.st20{opacity:0.4;clip-path:url(#SVGID_24_);}
	.st21{clip-path:url(#SVGID_26_);fill:#FFFFFF;}
	.st22{clip-path:url(#SVGID_24_);fill:#A92807;}
	.st23{clip-path:url(#SVGID_28_);fill:#FFFFFF;}
	.st24{opacity:0.8;}
	.st25{clip-path:url(#SVGID_30_);}
	.st26{filter:url(#Adobe_OpacityMaskFilter);}
	.st27{clip-path:url(#SVGID_32_);}
	.st28{enable-background:new    ;}
	.st29{opacity:0.1412;clip-path:url(#SVGID_32_);mask:url(#SVGID_33_);}
	.st30{clip-path:url(#SVGID_37_);}
	.st31{clip-path:url(#SVGID_39_);fill:url(#SVGID_40_);}
	.st32{fill:#C4001C;}
	.st33{clip-path:url(#SVGID_42_);}
	.st34{clip-path:url(#SVGID_46_);}
	.st35{opacity:0.74;clip-path:url(#SVGID_50_);}
	.st36{clip-path:url(#SVGID_52_);}
	.st37{clip-path:url(#SVGID_54_);}
	.st38{clip-path:url(#SVGID_58_);fill:#8EA1B2;}
	.st39{clip-path:url(#SVGID_58_);fill:#A92807;}
	.st40{clip-path:url(#SVGID_58_);fill:#384657;}
	.st41{clip-path:url(#SVGID_60_);}
	.st42{fill:#384657;}
	.st43{clip-path:url(#SVGID_64_);fill:#384657;}
	.st44{clip-path:url(#SVGID_64_);fill:#8EA1B2;}
	.st45{clip-path:url(#SVGID_64_);fill:#A92807;}
	.st46{clip-path:url(#SVGID_66_);}
	.st47{fill:#E1E4E5;}
	.st48{clip-path:url(#SVGID_70_);fill:#384657;}
	.st49{clip-path:url(#SVGID_70_);fill:#8EA1B2;}
	.st50{clip-path:url(#SVGID_70_);fill:#A92807;}
	.st51{clip-path:url(#SVGID_72_);}
	.st52{clip-path:url(#SVGID_76_);fill:#384657;}
	.st53{clip-path:url(#SVGID_76_);fill:#8EA1B2;}
	.st54{clip-path:url(#SVGID_76_);fill:#A92807;}
	.st55{clip-path:url(#SVGID_78_);}
	.st56{opacity:0.6;}
	.st57{clip-path:url(#SVGID_82_);fill:#FFFFFF;}
	.st58{clip-path:url(#SVGID_84_);fill:#FFFFFF;}
	.st59{clip-path:url(#SVGID_86_);fill:#D00027;}
	.st60{clip-path:url(#SVGID_86_);}
	.st61{clip-path:url(#SVGID_88_);fill:#FFFFFF;}
	.st62{clip-path:url(#SVGID_88_);fill:#D00027;}
	.st63{clip-path:url(#SVGID_90_);}
	.st64{clip-path:url(#SVGID_94_);}
	.st65{clip-path:url(#SVGID_98_);}
	.st66{opacity:0.4;clip-path:url(#SVGID_102_);}
	.st67{clip-path:url(#SVGID_104_);fill:#FFFFFF;}
	.st68{clip-path:url(#SVGID_102_);fill:#A92807;}
	.st69{clip-path:url(#SVGID_106_);fill:#FFFFFF;}
	.st70{opacity:0.5;}
	.st71{clip-path:url(#SVGID_108_);}
	.st72{filter:url(#Adobe_OpacityMaskFilter_1_);}
	.st73{clip-path:url(#SVGID_110_);}
	.st74{opacity:0.1412;clip-path:url(#SVGID_110_);mask:url(#SVGID_111_);}
	.st75{clip-path:url(#SVGID_115_);}
	.st76{fill:none;stroke:#FFFFFF;stroke-width:3;stroke-linecap:round;stroke-linejoin:round;stroke-miterlimit:10;}
	.st77{opacity:0.502;}
	.st78{opacity:0.7;}
	.st79{clip-path:url(#SVGID_123_);fill:#D00027;}
	.st80{clip-path:url(#SVGID_123_);}
	.st81{clip-path:url(#SVGID_125_);fill:#FFFFFF;}
	.st82{clip-path:url(#SVGID_125_);fill:#D00027;}
	.st83{clip-path:url(#SVGID_127_);}
	.st84{clip-path:url(#SVGID_131_);}
	.st85{clip-path:url(#SVGID_135_);}
	.st86{clip-path:url(#SVGID_141_);}
	.st87{filter:url(#Adobe_OpacityMaskFilter_2_);}
	.st88{clip-path:url(#SVGID_143_);}
	.st89{opacity:0.1412;clip-path:url(#SVGID_143_);mask:url(#SVGID_144_);}
	.st90{clip-path:url(#SVGID_148_);}
	.st91{clip-path:url(#SVGID_150_);fill:#D00027;}
	.st92{clip-path:url(#SVGID_150_);}
	.st93{clip-path:url(#SVGID_152_);fill:#FFFFFF;}
	.st94{clip-path:url(#SVGID_152_);fill:#D00027;}
	.st95{clip-path:url(#SVGID_154_);}
	.st96{clip-path:url(#SVGID_158_);}
	.st97{clip-path:url(#SVGID_162_);}
	.st98{opacity:0.4;clip-path:url(#SVGID_166_);}
	.st99{clip-path:url(#SVGID_168_);fill:#FFFFFF;}
	.st100{clip-path:url(#SVGID_166_);fill:#A92807;}
	.st101{clip-path:url(#SVGID_170_);fill:#FFFFFF;}
	.st102{clip-path:url(#SVGID_172_);}
	.st103{fill:none;stroke:#FFFFFF;stroke-width:0.5;stroke-miterlimit:10;}
</style>
<g>
	<g>
		<g>
			<g class="st77">
				<g>
					<path class="st4" d="M24.48,85.68c-8.51-11.46-13.26-19.56-14.25-24.27L0.84,65H0.21v-2.64L0,61.84l3.59-1.37V23.11
						c0-4.22,1.02-8.09,3.06-11.61c2.04-3.52,4.84-6.31,8.39-8.39C18.59,1.04,22.46,0,26.64,0c4.19,0,8.04,1.04,11.55,3.11
						c3.52,2.08,6.31,4.87,8.39,8.39c2.07,3.52,3.11,7.39,3.11,11.61v19.94h-3.27V23.11c0-3.59-0.9-6.89-2.69-9.92
						c-1.8-3.02-4.2-5.42-7.23-7.18c-3.03-1.76-6.33-2.64-9.92-2.64c-3.59,0-6.9,0.88-9.92,2.64c-3.03,1.76-5.42,4.15-7.17,7.18
						c-1.76,3.03-2.64,6.33-2.64,9.92V59.2l10.66-4.12v-6.01c-1.27-1.27-2.53-2.88-3.8-4.85c-1.41-2.32-2.5-5.01-3.27-8.07
						c-0.77-3.06-1.16-6.28-1.16-9.65v-2.22h4.85c1.62,0,2.99-0.58,4.12-1.74c1.13-1.16,1.69-2.51,1.69-4.06v-2h3.27v2
						c0,1.62,0.56,2.99,1.69,4.12c1.13,1.13,2.5,1.69,4.12,1.69h14.67v2.22c0,3.38-0.41,6.6-1.21,9.65
						c-0.81,3.06-1.92,5.75-3.33,8.07c-1.13,1.69-2.32,3.2-3.59,4.54v13.19h-3.27V51.92c-1.27,0.92-2.67,1.37-4.22,1.37h-3.48
						c-1.48,0-2.74-0.42-3.8-1.26v9.92h-3.27v-3.27l-4.12,1.58c0.21,2.04,1.76,5.42,4.64,10.13c2.32,3.94,5.1,8.06,8.34,12.35
						c1.69-2.18,3.34-4.47,4.96-6.86l2.74,1.9c-1.41,2.04-3.2,4.5-5.38,7.39l-0.95,1.37l-1.37,1.69L24.48,85.68z M22.37,49.17
						c0.7,0.56,1.44,0.84,2.21,0.84h3.48c0.91,0,1.65-0.25,2.22-0.74c2.6-2.25,4.61-4.54,6.01-6.86c1.2-1.9,2.15-4.13,2.85-6.7
						c0.7-2.57,1.09-5.29,1.16-8.18H29.02c-1.48,0-2.89-0.35-4.22-1.06c-1.34-0.7-2.43-1.65-3.27-2.85
						c-0.78,1.2-1.83,2.15-3.17,2.85c-1.34,0.7-2.74,1.06-4.22,1.06h-1.58c0.14,5.98,1.44,10.97,3.91,14.98
						C17.87,44.85,19.84,47.06,22.37,49.17 M86.42,100.98c1.06,1.12,1.58,2.57,1.58,4.33h-3.27c0-0.78-0.28-1.51-0.85-2.22
						c-1.76-2.11-4.11-3.62-7.07-4.54l-8.13-2.85c-1.41,2.67-3.38,4.76-5.91,6.28c-2.53,1.51-5.31,2.27-8.33,2.27
						c-3.03,0-5.8-0.76-8.34-2.27c-2.53-1.51-4.5-3.61-5.91-6.28l-8.23,2.74c-2.89,0.98-5.21,2.57-6.96,4.75
						c-0.49,0.63-0.74,1.33-0.74,2.11H21c0-1.62,0.49-3.03,1.48-4.22c2.25-2.74,5.06-4.64,8.44-5.7l15.51-5.28v-3.27
						c-1.9-1.55-3.06-2.85-3.48-3.9l-2.74-5.8l-3.38-1.9l-1.48-5.49c0-0.7,0.21-1.34,0.63-1.9c0.42-0.56,0.95-0.98,1.58-1.27
						c-0.14-1.41-0.21-2.43-0.21-3.06V63c0-3.09,0.75-5.94,2.27-8.55c1.51-2.6,3.57-4.66,6.17-6.17s5.45-2.27,8.55-2.27
						c3.09,0,5.94,0.76,8.55,2.27c2.6,1.51,4.66,3.57,6.17,6.17c1.51,2.61,2.27,5.45,2.27,8.55v0.53c0,0.56-0.07,1.41-0.21,2.53
						v0.53c0.28,0.07,0.7,0.32,1.27,0.74c0.63,0.7,0.95,1.51,0.95,2.43l-0.11,0.32l-0.95,5.17l-3.9,1.9l-2.85,5.91
						c-0.35,0.99-1.27,2.08-2.74,3.27v3.8l15.09,5.28C81.39,96.52,84.24,98.38,86.42,100.98 M48.64,84.52l0.63,0.53l1.16,0.84
						c0.56,0.56,1.27,0.84,2.11,0.84h3.38c0.77,0,1.51-0.25,2.22-0.74l0.63-0.53c2.25-1.9,3.48-3.13,3.69-3.69l3.38-7.07l3.48-1.69
						l0.63-3.38h-2.64l0.32-1.9c0.28-1.41,0.42-2.81,0.42-4.22V63c0-2.46-0.62-4.75-1.85-6.86c-1.23-2.11-2.9-3.78-5.01-5.01
						c-2.11-1.23-4.4-1.85-6.86-1.85c-2.46,0-4.75,0.62-6.86,1.85c-2.11,1.23-3.78,2.9-5.01,5.01c-1.23,2.11-1.85,4.4-1.85,6.86
						v0.53c0,0.7,0.11,1.9,0.32,3.59l0.42,2.53h-2.64l0.95,3.38l3.06,1.79l3.16,6.86C46.11,82.17,47.03,83.12,48.64,84.52
						 M62.68,65.84h3.27v-9.92h-23v9.92h3.38V59.3h16.35V65.84z M60.89,99.29c1.97-1.13,3.55-2.71,4.75-4.75l-2.85-0.95v1.69h-3.27
						v-6.33c-0.99,0.7-2.15,1.06-3.48,1.06h-3.48c-1.12,0-2.08-0.25-2.85-0.74v6.01h-3.27V93.6l-3.06,1.06
						c1.2,1.97,2.76,3.52,4.7,4.64c1.93,1.13,4.06,1.69,6.39,1.69C56.77,100.98,58.92,100.42,60.89,99.29 M105.52,56.45l-0.11,0.32
						v2.95h-0.74l-9.18-3.27c-0.35,2.6-1.3,4.96-2.85,7.07c-1.55,2.11-3.48,3.78-5.8,5.01c-2.32,1.23-4.82,1.85-7.49,1.85v-3.27
						c3.38,0,6.29-1.14,8.76-3.43c2.46-2.28,3.87-5.08,4.22-8.39l-2.96-1.05v3.8h-3.27v-6.65c-1.34,0.99-2.85,1.48-4.54,1.48h-4.22
						c-1.48,0-2.81-0.42-4.01-1.27v1.48h-3.38v-4.12c-2.18-1.76-3.48-3.27-3.9-4.54l-3.38-7.18l-4.01-2.22l-1.79-6.44
						c0-0.84,0.26-1.6,0.79-2.27c0.53-0.67,1.18-1.11,1.95-1.32C59.41,23.6,59.3,22.27,59.3,21v-0.63c0-3.66,0.91-7.05,2.74-10.18
						c1.83-3.13,4.29-5.61,7.39-7.44C72.53,0.91,75.9,0,79.56,0c3.66,0,7.05,0.91,10.18,2.74c3.13,1.83,5.61,4.31,7.44,7.44
						c1.83,3.13,2.74,6.52,2.74,10.18V21c0,1.2-0.11,2.53-0.32,4.01c0.56,0.07,1.13,0.39,1.69,0.95c0.7,0.84,1.06,1.72,1.06,2.64
						l-0.11,0.32l-1.16,6.12l-4.75,2.32l-3.48,7.28c-0.49,1.2-1.65,2.53-3.48,4.01v2.11L105.52,56.45z M86,47.27
						c2.32-1.97,3.59-3.31,3.8-4.01l4.12-8.34l4.22-2.11l0.84-4.33c0-0.14-0.04-0.21-0.11-0.21c0-0.14-0.11-0.21-0.32-0.21h-0.74
						l-3.48,3.59L89.9,19.2l-0.11-4.12l-0.11-0.21c-0.07-0.07-0.14-0.1-0.21-0.1l-10.13,2l-9.6-2l-0.21,0.21v4.22l-5.06,12.35
						l-3.38-3.48h-0.42c-0.21,0-0.39,0.14-0.53,0.42l1.27,4.33l3.8,2.11l3.8,8.23c0.35,0.78,1.62,2.08,3.8,3.9l0.42,0.42
						c0.21,0.14,0.53,0.39,0.95,0.74l0.42,0.32c0.84,0.7,1.79,1.05,2.85,1.05h4.12c1.2,0,2.14-0.32,2.85-0.95l0.84-0.74L86,47.27z
						 M62.57,21c0,0.56,0.07,1.44,0.21,2.64l0.11,1.58l0.42,0.42l2.95-7.07v-3.59c0-1.12,0.42-2.02,1.27-2.69
						c0.84-0.67,1.83-0.9,2.95-0.69l8.87,1.9l9.5-1.9c0.49-0.14,1-0.14,1.53,0c0.53,0.14,0.97,0.35,1.32,0.63
						c0.91,0.78,1.37,1.69,1.37,2.74l0.11,3.59l2.53,7.07l0.63-0.63c0.21-1.48,0.32-2.81,0.32-4.01v-0.63
						c0-3.09-0.78-5.94-2.32-8.55c-1.55-2.6-3.62-4.66-6.23-6.17c-2.6-1.51-5.43-2.27-8.49-2.27c-3.06,0-5.89,0.76-8.49,2.27
						c-2.6,1.52-4.68,3.57-6.22,6.17c-1.55,2.6-2.32,5.45-2.32,8.55V21z"/>
				</g>
			</g>
		</g>
	</g>
</g>
</svg>
