<?xml version="1.0" encoding="utf-8"?>
<!-- Generator: Adobe Illustrator 23.0.0, SVG Export Plug-In . SVG Version: 6.00 Build 0)  -->
<svg version="1.0" id="Layer_1" xmlns="http://www.w3.org/2000/svg" xmlns:xlink="http://www.w3.org/1999/xlink" x="0px" y="0px"
	 viewBox="0 0 97.37 97.37" style="enable-background:new 0 0 97.37 97.37;" xml:space="preserve">
<style type="text/css">
	.st0{fill:#F2F5F7;}
	.st1{fill:#A92807;}
	.st2{fill:#1E1D22;}
	.st3{clip-path:url(#SVGID_2_);}
	.st4{fill:#FFFFFF;}
	.st5{fill:none;stroke:#F2F5F7;}
	.st6{fill:#2A323C;}
	.st7{fill:#1F2529;}
	.st8{fill:#96A1AB;}
	.st9{fill:#8EA1B2;}
	.st10{clip-path:url(#SVGID_6_);fill:#D00027;}
	.st11{clip-path:url(#SVGID_6_);}
	.st12{clip-path:url(#SVGID_8_);fill:#FFFFFF;}
	.st13{clip-path:url(#SVGID_8_);fill:#D00027;}
	.st14{clip-path:url(#SVGID_10_);fill:#FFFFFF;}
	.st15{clip-path:url(#SVGID_10_);fill:#BD0034;}
	.st16{clip-path:url(#SVGID_10_);fill:#1A237B;}
	.st17{clip-path:url(#SVGID_12_);}
	.st18{clip-path:url(#SVGID_16_);}
	.st19{clip-path:url(#SVGID_20_);}
	.st20{opacity:0.4;clip-path:url(#SVGID_24_);}
	.st21{clip-path:url(#SVGID_26_);fill:#FFFFFF;}
	.st22{clip-path:url(#SVGID_24_);fill:#A92807;}
	.st23{clip-path:url(#SVGID_28_);fill:#FFFFFF;}
	.st24{opacity:0.8;}
	.st25{clip-path:url(#SVGID_30_);}
	.st26{filter:url(#Adobe_OpacityMaskFilter);}
	.st27{clip-path:url(#SVGID_32_);}
	.st28{enable-background:new    ;}
	.st29{opacity:0.1412;clip-path:url(#SVGID_32_);mask:url(#SVGID_33_);}
	.st30{clip-path:url(#SVGID_37_);}
	.st31{clip-path:url(#SVGID_39_);fill:url(#SVGID_40_);}
	.st32{fill:#C4001C;}
	.st33{clip-path:url(#SVGID_42_);}
	.st34{clip-path:url(#SVGID_46_);}
	.st35{opacity:0.74;clip-path:url(#SVGID_50_);}
	.st36{clip-path:url(#SVGID_52_);}
	.st37{clip-path:url(#SVGID_54_);}
	.st38{clip-path:url(#SVGID_58_);fill:#8EA1B2;}
	.st39{clip-path:url(#SVGID_58_);fill:#A92807;}
	.st40{clip-path:url(#SVGID_58_);fill:#384657;}
	.st41{clip-path:url(#SVGID_60_);}
	.st42{fill:#384657;}
	.st43{clip-path:url(#SVGID_64_);fill:#384657;}
	.st44{clip-path:url(#SVGID_64_);fill:#8EA1B2;}
	.st45{clip-path:url(#SVGID_64_);fill:#A92807;}
	.st46{clip-path:url(#SVGID_66_);}
	.st47{fill:#E1E4E5;}
	.st48{clip-path:url(#SVGID_70_);fill:#384657;}
	.st49{clip-path:url(#SVGID_70_);fill:#8EA1B2;}
	.st50{clip-path:url(#SVGID_70_);fill:#A92807;}
	.st51{clip-path:url(#SVGID_72_);}
	.st52{clip-path:url(#SVGID_76_);fill:#384657;}
	.st53{clip-path:url(#SVGID_76_);fill:#8EA1B2;}
	.st54{clip-path:url(#SVGID_76_);fill:#A92807;}
	.st55{clip-path:url(#SVGID_78_);}
	.st56{opacity:0.6;}
	.st57{clip-path:url(#SVGID_82_);fill:#FFFFFF;}
	.st58{clip-path:url(#SVGID_84_);fill:#FFFFFF;}
	.st59{clip-path:url(#SVGID_86_);fill:#D00027;}
	.st60{clip-path:url(#SVGID_86_);}
	.st61{clip-path:url(#SVGID_88_);fill:#FFFFFF;}
	.st62{clip-path:url(#SVGID_88_);fill:#D00027;}
	.st63{clip-path:url(#SVGID_90_);}
	.st64{clip-path:url(#SVGID_94_);}
	.st65{clip-path:url(#SVGID_98_);}
	.st66{opacity:0.4;clip-path:url(#SVGID_102_);}
	.st67{clip-path:url(#SVGID_104_);fill:#FFFFFF;}
	.st68{clip-path:url(#SVGID_102_);fill:#A92807;}
	.st69{clip-path:url(#SVGID_106_);fill:#FFFFFF;}
	.st70{opacity:0.5;}
	.st71{clip-path:url(#SVGID_108_);}
	.st72{filter:url(#Adobe_OpacityMaskFilter_1_);}
	.st73{clip-path:url(#SVGID_110_);}
	.st74{opacity:0.1412;clip-path:url(#SVGID_110_);mask:url(#SVGID_111_);}
	.st75{clip-path:url(#SVGID_115_);}
	.st76{fill:none;stroke:#FFFFFF;stroke-width:3;stroke-linecap:round;stroke-linejoin:round;stroke-miterlimit:10;}
	.st77{opacity:0.502;}
	.st78{opacity:0.7;}
	.st79{clip-path:url(#SVGID_123_);fill:#D00027;}
	.st80{clip-path:url(#SVGID_123_);}
	.st81{clip-path:url(#SVGID_125_);fill:#FFFFFF;}
	.st82{clip-path:url(#SVGID_125_);fill:#D00027;}
	.st83{clip-path:url(#SVGID_127_);}
	.st84{clip-path:url(#SVGID_131_);}
	.st85{clip-path:url(#SVGID_135_);}
	.st86{clip-path:url(#SVGID_141_);}
	.st87{filter:url(#Adobe_OpacityMaskFilter_2_);}
	.st88{clip-path:url(#SVGID_143_);}
	.st89{opacity:0.1412;clip-path:url(#SVGID_143_);mask:url(#SVGID_144_);}
	.st90{clip-path:url(#SVGID_148_);}
	.st91{clip-path:url(#SVGID_150_);fill:#D00027;}
	.st92{clip-path:url(#SVGID_150_);}
	.st93{clip-path:url(#SVGID_152_);fill:#FFFFFF;}
	.st94{clip-path:url(#SVGID_152_);fill:#D00027;}
	.st95{clip-path:url(#SVGID_154_);}
	.st96{clip-path:url(#SVGID_158_);}
	.st97{clip-path:url(#SVGID_162_);}
	.st98{opacity:0.4;clip-path:url(#SVGID_166_);}
	.st99{clip-path:url(#SVGID_168_);fill:#FFFFFF;}
	.st100{clip-path:url(#SVGID_166_);fill:#A92807;}
	.st101{clip-path:url(#SVGID_170_);fill:#FFFFFF;}
	.st102{clip-path:url(#SVGID_172_);}
	.st103{fill:none;stroke:#FFFFFF;stroke-width:0.5;stroke-miterlimit:10;}
</style>
<g class="st78">
	<g>
		<path class="st4" d="M54.11,0.48l-0.48,0.46v21.76c0,21.15,0.02,21.77,0.36,22.21l0.36,0.46l20.96,0.06l20.94,0.04l0.57-0.55
			l0.55-0.55v-3.44c0-4.36,0.17-4.11-3.52-5.1l-2.66-0.72l-0.23-0.76c-0.11-0.42-0.42-1.48-0.67-2.38l-0.46-1.62l1.96-2.03
			c1.69-1.75,1.96-2.11,1.96-2.66c0-0.74-0.89-2.68-2.38-5.15c-1.6-2.68-2.38-3.63-3.04-3.71c-0.32-0.04-1.69,0.21-3.06,0.55
			l-2.51,0.63l-1.73-1.75l-1.73-1.75l0.67-2.7c0.57-2.22,0.65-2.78,0.48-3.2c-0.44-1.06-7.4-5.13-8.77-5.13
			c-0.51,0-0.91,0.29-2.64,2.02c-1.73,1.69-2.11,1.98-2.4,1.83c-0.21-0.1-1.26-0.42-2.34-0.68c-1.1-0.27-2-0.51-2.02-0.55
			c-0.04-0.02-0.36-1.2-0.74-2.61C60.59-0.08,60.67,0,57.23,0C54.66,0,54.55,0.02,54.11,0.48L54.11,0.48z M58.77,5.65
			c0.36,1.33,0.84,2.62,1.05,2.87c0.29,0.32,0.93,0.57,2.66,0.99c1.26,0.3,2.8,0.72,3.4,0.93c1.92,0.68,2.02,0.65,4.24-1.54
			l1.96-1.94l0.91,0.44c1.64,0.8,4.03,2.32,4.03,2.57c0,0.13-0.25,1.24-0.57,2.42c-0.87,3.31-1.01,2.91,2.21,6.12
			c1.52,1.54,2.93,2.83,3.12,2.89c0.19,0.06,1.5-0.21,2.95-0.57c2.49-0.67,2.61-0.68,2.85-0.34c0.55,0.72,2.57,4.36,2.57,4.62
			c0,0.15-0.86,1.14-1.9,2.19c-1.22,1.26-1.9,2.09-1.9,2.36c0,0.23,0.3,1.39,0.67,2.57c0.36,1.2,0.74,2.74,0.87,3.44
			c0.32,1.86,0.55,2.05,3.65,2.89l2.61,0.7v2.97H82.73v-1.1c0-1.54-0.49-4.6-1.05-6.52c-2.07-7.23-7.05-13.27-13.83-16.81
			c-3.1-1.62-5.76-2.41-10.36-3.06l-0.63-0.1V3.23h1.24L58.77,5.65z M60.82,18.56c4.41,1.03,8.25,3.18,11.52,6.47
			c4.2,4.2,6.71,9.7,7.09,15.52l0.11,1.67H56.87V17.86l1.01,0.13C58.41,18.05,59.74,18.31,60.82,18.56L60.82,18.56z M60.82,18.56"/>
		<path class="st4" d="M60.1,37.37v1.62h3.23v-3.23H60.1V37.37z M60.1,37.37"/>
		<path class="st4" d="M37.24,13.22c-0.57,0.32-0.55,0.29-1.48,3.5l-0.67,2.36l-1.14,0.27c-0.61,0.13-1.67,0.42-2.36,0.63
			l-1.22,0.38l-2.04-2c-1.71-1.67-2.13-2-2.62-2c-1.31,0-8.23,4.11-8.75,5.17c-0.21,0.44-0.15,0.86,0.44,3.21l0.68,2.7l-1.73,1.75
			l-1.75,1.75l-2.64-0.67c-2.03-0.51-2.78-0.65-3.18-0.49c-1.07,0.36-5.17,7.36-5.17,8.8c0,0.55,0.27,0.91,1.96,2.66l1.96,2.02
			l-0.51,1.9c-0.29,1.05-0.57,2.13-0.63,2.4C6.3,48,6.07,48.09,3.58,48.78c-1.86,0.51-2.85,0.88-3.14,1.18C0,50.38,0,50.45,0,55.13
			c0,5.9-0.27,5.42,3.56,6.43l2.7,0.72l0.48,1.9c0.27,1.07,0.55,2.13,0.65,2.38c0.17,0.44,0,0.67-1.79,2.51
			c-1.71,1.75-1.98,2.11-1.98,2.66c0,0.74,0.72,2.3,2.26,4.96c1.67,2.83,2.47,3.82,3.16,3.9c0.32,0.04,1.69-0.21,3.06-0.55
			l2.51-0.63l1.73,1.75l1.73,1.75l-0.67,2.7c-0.57,2.23-0.65,2.78-0.48,3.2c0.44,1.05,7.42,5.13,8.77,5.13c0.51,0,0.91-0.3,2.64-2
			l2.02-2l0.86,0.29c0.46,0.17,1.5,0.48,2.34,0.67c0.82,0.21,1.52,0.38,1.54,0.42c0.02,0.04,0.36,1.22,0.74,2.62
			c1.01,3.67,0.55,3.42,6.37,3.42c4.24,0,4.77-0.04,5.15-0.34c0.29-0.23,0.63-1.08,1.16-2.99c0.42-1.44,0.78-2.66,0.82-2.7
			c0.04-0.04,0.87-0.29,1.84-0.53c0.99-0.25,2-0.53,2.26-0.63c0.44-0.15,0.67,0,2.59,1.79c1.77,1.63,2.22,1.98,2.72,1.98
			c1.01,0,5.9-2.66,7.97-4.32c1.01-0.82,1.01-1.1,0.21-4.35l-0.61-2.4l1.75-1.73l1.73-1.75l2.43,0.63c3,0.78,3.35,0.78,4.05,0.02
			c1.27-1.37,4.54-7.3,4.54-8.25c0-0.51-0.57-1.24-2.72-3.44c-0.76-0.8-1.27-1.46-1.18-1.58c0.06-0.13,0.36-1.18,0.67-2.34
			l0.53-2.13l2.53-0.68c1.41-0.38,2.74-0.8,2.95-0.91c0.65-0.34,0.88-1.2,0.82-2.99c-0.08-1.54-0.11-1.67-0.61-2.11l-0.53-0.46
			H43.74V34.63c0-11.3-0.06-20.67-0.11-20.84c-0.25-0.65-1.1-0.86-3.54-0.86C38.42,12.95,37.6,13.03,37.24,13.22L37.24,13.22z
			 M40.51,21.96v5.8h-0.7c-2.13,0-6.45,1.16-9.36,2.49c-3.65,1.69-7.85,5.13-10.38,8.52c-2.28,3.04-4.15,7.23-4.98,11.24
			c-0.48,2.26-0.48,7.97,0,10.33c2.24,11.14,10.8,19.7,21.95,21.95c2.38,0.48,8.08,0.48,10.33,0c2.26-0.49,5.19-1.48,7.06-2.41
			c7.64-3.84,13.18-11.11,14.74-19.3c0.17-0.95,0.34-1.83,0.38-1.96c0.06-0.17,1.24-0.23,5.13-0.23c2.8,0,5.04,0.04,5,0.08
			c-0.04,0.04-0.88,0.3-1.86,0.57c-2.24,0.61-2.57,0.91-2.87,2.55c-0.13,0.7-0.53,2.24-0.87,3.4c-0.36,1.18-0.65,2.38-0.65,2.64
			c0,0.36,0.38,0.89,1.29,1.86c0.7,0.74,1.56,1.65,1.9,2.03l0.65,0.7l-0.63,1.2c-1.08,2.19-2.24,3.82-2.61,3.71
			c-1.83-0.55-5.02-1.24-5.29-1.12c-0.46,0.17-5.61,5.38-5.78,5.86c-0.1,0.25,0.1,1.37,0.49,3.02c0.51,2.09,0.61,2.68,0.42,2.81
			c-0.63,0.42-3.73,2.24-4.18,2.43c-0.49,0.23-0.59,0.17-2.47-1.6c-1.08-1.01-2.17-1.88-2.41-1.96c-0.27-0.06-1.22,0.13-2.38,0.49
			c-1.05,0.32-2.68,0.76-3.61,0.95c-0.93,0.21-1.81,0.49-1.96,0.65c-0.15,0.13-0.59,1.41-0.97,2.81l-0.72,2.55l-2.93,0.06
			l-2.95,0.04l-0.65-2.32c-0.36-1.29-0.72-2.49-0.82-2.68c-0.29-0.55-0.93-0.86-2.53-1.18c-0.84-0.17-2.3-0.57-3.25-0.87
			c-2.59-0.82-2.49-0.86-4.77,1.39l-1.96,1.94l-0.91-0.44c-1.54-0.74-4.03-2.34-4.03-2.59c0-0.13,0.25-1.22,0.57-2.4
			c0.87-3.31,1.01-2.91-2.21-6.12c-1.52-1.54-2.93-2.83-3.14-2.89c-0.19-0.06-1.5,0.19-2.93,0.57c-2.49,0.67-2.61,0.68-2.85,0.34
			c-0.55-0.72-2.57-4.35-2.57-4.62c0-0.15,0.86-1.14,1.9-2.19c1.22-1.25,1.9-2.09,1.9-2.36c0-0.23-0.3-1.39-0.67-2.57
			c-0.36-1.2-0.74-2.74-0.87-3.44c-0.32-1.86-0.55-2.05-3.65-2.89l-2.61-0.7l0.04-2.95l0.06-2.95l2.57-0.7
			c3.1-0.86,3.23-0.97,3.69-3.33c0.19-0.93,0.59-2.43,0.89-3.33c0.3-0.91,0.55-1.88,0.55-2.17c0-0.38-0.46-0.97-1.94-2.49l-1.94-2
			l0.53-1.08c0.61-1.25,1.77-3.23,2.15-3.69c0.25-0.29,0.46-0.27,2.68,0.34c1.33,0.34,2.61,0.65,2.83,0.65
			c0.29,0,1.31-0.89,3.29-2.87c3.31-3.31,3.16-2.93,2.28-6.16c-0.3-1.16-0.57-2.22-0.57-2.4c0-0.17,0.78-0.76,1.96-1.45
			c3.21-1.92,2.68-1.96,4.96,0.29c2.24,2.22,2.32,2.24,4.58,1.48c0.74-0.25,1.98-0.59,2.76-0.76c2.62-0.59,2.83-0.67,3.12-1.22
			c0.13-0.29,0.49-1.35,0.76-2.38c0.76-2.76,0.78-2.8,1.44-2.8h0.57V21.96z M41.14,57.93l0.53,0.46h24.51v0.53
			c0,0.84-0.74,3.54-1.46,5.34c-2.55,6.39-7.97,11.54-14.51,13.86c-2.83,0.99-4.53,1.26-7.99,1.27c-2.34,0-3.56-0.1-4.75-0.34
			c-9.68-2.07-17.02-9.34-19.11-18.96c-0.48-2.19-0.57-6.37-0.21-8.6c1.22-7.47,5.65-13.81,12.25-17.57
			c2.55-1.46,5.91-2.57,8.71-2.87l1.31-0.15l0.1,13.27l0.1,13.29L41.14,57.93z M41.14,57.93"/>
	</g>
	<path class="st4" d="M34.04,56.77v1.62h3.23v-3.23h-3.23V56.77z M34.04,56.77"/>
	<path class="st4" d="M40.64,61.75c-0.08,0.06-0.13,0.8-0.13,1.62v1.48h3.23v-3.23h-1.48C41.44,61.62,40.7,61.67,40.64,61.75
		L40.64,61.75z M40.64,61.75"/>
</g>
</svg>
