<svg xmlns="http://www.w3.org/2000/svg" xmlns:xlink="http://www.w3.org/1999/xlink" width="106.63" height="34.47" xmlns:v="https://vecta.io/nano"><style><![CDATA[.C{clip-path:url(#B)}.D{clip-path:url(#L)}.E{clip-path:url(#N)}.F{clip-path:url(#J)}.G{clip-path:url(#D)}.H{clip-path:url(#F)}.I{clip-path:url(#H)}.J{fill:#ffa822}.K{fill:#ffa722}.L{fill:#ffa621}.M{fill:#ffa520}.N{fill:#ffa420}.O{fill:#ffa31f}.P{fill:#ffa21e}.Q{fill:#ffa11e}.R{fill:#ff9f1d}.S{fill:#ffba2f}.T{fill:#ffb92e}.U{fill:#ffb82d}.V{fill:#ffb72d}.W{fill:#ffb62c}.X{fill:#ffb52b}.Y{fill:#ffb42b}.Z{fill:#ffb32a}.a{fill:#ffb229}.b{fill:#ffb128}.c{fill:#ffb028}.d{fill:#ffaf27}.e{fill:#ffae26}.f{fill:#ffad26}.g{fill:#ffac25}.h{fill:#ffab24}.i{fill:#ffaa24}.j{fill:#ffa923}.k{fill:#ff9e1c}.l{fill:#ff9d1b}.m{fill:#ff9c1b}.n{fill:#ff9b1a}.o{fill:#ff9a19}.p{fill:#ff9919}.q{fill:#ff9818}.r{fill:#ff9717}.s{fill:#ff9617}.t{fill:#ff9516}.u{fill:#ff9415}.v{fill:#ff9315}.w{fill:#ff9214}.x{fill:#ff9113}.y{fill:#ff9013}.z{fill:#ff8f12}.AA{fill:#ff8e11}.AB{fill:#ff8d10}.AC{fill:#ff8c10}.AD{fill:#ff8b0f}.AE{fill:#ff8a0e}.AF{fill:#ff890e}.AG{fill:#ff880d}.AH{fill:#ff870c}.AI{fill:#ff860c}.AJ{fill:#ff850b}.AK{fill:#ff840a}.AL{fill:#ff830a}.AM{fill:#ff8209}.AN{fill:#ff8108}.AO{fill:#ff8008}.AP{fill:#ff7f07}.AQ{fill:#ff7e06}.AR{fill:#ff7d05}.AS{fill:#ff7c05}.AT{fill:#ff7b04}.AU{fill:#ff7a03}.AV{fill:#ff7903}.AW{fill:#ff7802}.AX{fill:#ff7701}.AY{fill:#ff7601}.AZ{fill:#ff7500}.Aa{fill:#ffc738}.Ab{fill:#ffc637}.Ac{fill:#ffc536}.Ad{fill:#ffc436}.Ae{fill:#ffc335}.Af{fill:#ffc234}.Ag{fill:#ffc133}.Ah{fill:#ffc033}.Ai{fill:#ffbf32}.Aj{fill:#ffbe31}.Ak{fill:#ffbd31}.Al{fill:#ffbc30}.Am{fill:#ffbb2f}.An{fill:#fe7400}.Ao{fill:#fe7300}.Ap{fill:#fd7200}.Aq{fill:#ffca3a}.Ar{fill:#ffc939}.As{fill:#ffc838}.At{fill:#fc7100}.Au{fill:#fc7000}.Av{fill:#fb6f00}.Aw{fill:#fb6e00}.Ax{fill:#fa6d00}.Ay{fill:#f96c00}.Az{fill:#f96b00}.BA{fill:#f86a00}.BB{fill:#f76900}.BC{fill:#f76800}.BD{fill:#f66700}.BE{fill:#f56600}.BF{fill:#f56501}.BG{fill:#f46401}.BH{fill:#f46301}.BI{fill:#f36201}.BJ{fill:#f26101}.BK{fill:#f26001}.BL{fill:#f15f01}.BM{fill:#f05e01}.BN{fill:#f05d01}.BO{fill:#ef5c01}.BP{fill:#ee5b01}.BQ{fill:#ee5a01}.BR{fill:#ed5901}.BS{fill:#ed5801}.BT{fill:#ec5701}.BU{fill:#eb5601}.BV{fill:#eb5401}.BW{fill:#ea5301}.BX{fill:#e95201}.BY{fill:#e95101}.BZ{fill:#e85001}.Ba{fill:#e84f01}.Bb{fill:#e74e01}.Bc{fill:#e64d01}.Bd{fill:#e64c01}.Be{fill:#e54b01}.Bf{fill:#e44a01}.Bg{fill:#e44901}.Bh{fill:#e34801}.Bi{fill:#e24701}.Bj{fill:#e24601}.Bk{fill:#e14501}.Bl{fill:#e14402}.Bm{fill:#e04302}.Bn{fill:#df4202}.Bo{fill:#df4102}.Bp{fill:#de4002}.Bq{fill:#dd3f02}.Br{fill:#dd3e02}.Bs{fill:#dc3d02}.Bt{fill:#db3c02}.Bu{fill:#db3b02}.Bv{fill:#da3a02}.Bw{fill:#da3902}.Bx{fill:#d93802}.By{fill:#d83702}.Bz{fill:#d83602}.CA{fill:#d73502}.CB{fill:#ffcc3b}.CC{fill:#ffcb3a}]]></style><defs><path id="A" d="M4 12.06C6.36 9.3 9.87 7.54 13.8 7.54c7.1 0 12.83 5.75 12.83 12.83A12.84 12.84 0 0 1 13.79 33.2c-3.92 0-7.42-1.76-9.78-4.52 2.57 3.5 6.7 5.8 11.4 5.8 7.8 0 14.1-6.32 14.1-14.1S23.2 6.25 15.4 6.25c-4.68.01-8.82 2.3-11.4 5.8z"/></defs><clipPath id="B"><use xlink:href="#A"/></clipPath><path d="M4 34.3h25.5v.18H4z" class="C CB"/><path d="M4 34.1h25.5v.18H4z" class="C CC"/><path d="M4 33.93h25.5v.18H4z" class="C Aq"/><path d="M4 33.75h25.5v.18H4z" class="C Ar"/><path d="M4 33.57h25.5v.18H4z" class="C As"/><path d="M4 33.4h25.5v.18H4z" class="C Aa"/><path d="M4 33.2h25.5v.18H4z" class="C Ab"/><path d="M4 33.03h25.5v.18H4z" class="C Ac"/><path d="M4 32.85h25.5v.18H4z" class="C Ad"/><path d="M4 32.67h25.5v.18H4z" class="C Ae"/><path d="M4 32.5h25.5v.18H4z" class="C Af"/><path d="M4 32.3h25.5v.18H4z" class="C Ag"/><path d="M4 32.13h25.5v.18H4z" class="C Ah"/><path d="M4 31.95h25.5v.18H4z" class="C Ai"/><path d="M4 31.77h25.5v.18H4z" class="C Aj"/><path d="M4 31.6h25.5v.18H4z" class="C Ak"/><path d="M4 31.4h25.5v.18H4z" class="C Al"/><path d="M4 31.23h25.5v.18H4z" class="C Am"/><path d="M4 31.05h25.5v.18H4z" class="C S"/><path d="M4 30.87h25.5v.18H4z" class="C T"/><path d="M4 30.7h25.5v.18H4z" class="C U"/><path d="M4 30.5h25.5v.18H4z" class="C V"/><path d="M4 30.33h25.5v.18H4z" class="C W"/><path d="M4 30.15h25.5v.18H4z" class="C X"/><path d="M4 29.97h25.5v.18H4z" class="C Y"/><path d="M4 29.8h25.5v.18H4z" class="C Z"/><path d="M4 29.6h25.5v.18H4z" class="C a"/><path d="M4 29.43h25.5v.18H4z" class="C b"/><path d="M4 29.25h25.5v.18H4z" class="C c"/><path d="M4 29.07h25.5v.18H4z" class="C d"/><path d="M4 28.9h25.5v.18H4z" class="C e"/><path d="M4 28.7h25.5v.18H4z" class="C f"/><path d="M4 28.52h25.5v.18H4z" class="C g"/><path d="M4 28.34h25.5v.18H4z" class="C h"/><path d="M4 28.16h25.5v.18H4z" class="C i"/><path d="M4 27.98h25.5v.18H4z" class="C j"/><path d="M4 27.8h25.5v.18H4z" class="C J"/><path d="M4 27.62h25.5v.18H4z" class="C K"/><path d="M4 27.44h25.5v.18H4z" class="C L"/><path d="M4 27.26h25.5v.18H4z" class="C M"/><path d="M4 27.08h25.5v.18H4z" class="C N"/><path d="M4 26.9h25.5v.18H4z" class="C O"/><path d="M4 26.72h25.5v.18H4z" class="C P"/><path d="M4 26.54h25.5v.18H4z" class="C Q"/><path d="M4 26.36h25.5v.18H4z" class="C R"/><path d="M4 26.18h25.5v.18H4z" class="C k"/><path d="M4 26h25.5v.18H4z" class="C l"/><path d="M4 25.82h25.5V26H4z" class="C m"/><path d="M4 25.64h25.5v.18H4z" class="C n"/><path d="M4 25.46h25.5v.18H4z" class="C o"/><path d="M4 25.28h25.5v.18H4z" class="C p"/><path d="M4 25.1h25.5v.18H4z" class="C q"/><path d="M4 24.92h25.5v.18H4z" class="C r"/><path d="M4 24.74h25.5v.18H4z" class="C s"/><path d="M4 24.56h25.5v.18H4z" class="C t"/><path d="M4 24.38h25.5v.18H4z" class="C u"/><path d="M4 24.2h25.5v.18H4z" class="C v"/><path d="M4 24.02h25.5v.18H4z" class="C w"/><path d="M4 23.84h25.5v.18H4z" class="C x"/><path d="M4 23.66h25.5v.18H4z" class="C y"/><path d="M4 23.48h25.5v.18H4z" class="C z"/><path d="M4 23.3h25.5v.18H4z" class="C AA"/><path d="M4 23.12h25.5v.18H4z" class="C AB"/><path d="M4 22.94h25.5v.18H4z" class="C AC"/><path d="M4 22.76h25.5v.18H4z" class="C AD"/><path d="M4 22.58h25.5v.18H4z" class="C AE"/><path d="M4 22.4h25.5v.18H4z" class="C AF"/><path d="M4 22.22h25.5v.18H4z" class="C AG"/><path d="M4 22.04h25.5v.18H4z" class="C AH"/><path d="M4 21.86h25.5v.18H4z" class="C AI"/><path d="M4 21.68h25.5v.18H4z" class="C AJ"/><path d="M4 21.5h25.5v.18H4z" class="C AK"/><path d="M4 21.3h25.5v.18H4z" class="C AL"/><path d="M4 21.13h25.5v.18H4z" class="C AM"/><path d="M4 20.95h25.5v.18H4z" class="C AN"/><path d="M4 20.77h25.5v.18H4z" class="C AO"/><path d="M4 20.6h25.5v.18H4z" class="C AP"/><path d="M4 20.4h25.5v.18H4z" class="C AQ"/><path d="M4 20.23h25.5v.18H4z" class="C AR"/><path d="M4 20.05h25.5v.18H4z" class="C AS"/><path d="M4 19.87h25.5v.18H4z" class="C AT"/><path d="M4 19.7h25.5v.18H4z" class="C AU"/><path d="M4 19.5h25.5v.18H4z" class="C AV"/><path d="M4 19.33h25.5v.18H4z" class="C AW"/><path d="M4 19.15h25.5v.18H4z" class="C AX"/><path d="M4 18.97h25.5v.18H4z" class="C AY"/><g class="AZ"><path d="M4 18.8h25.5v.18H4z" class="C"/><path d="M4 18.6h25.5v.2H4z" class="C"/></g><path d="M4 18.4h25.5v.2H4z" class="C An"/><path d="M4 18.2h25.5v.2H4z" class="C Ao"/><path d="M4 18h25.5v.2H4z" class="C Ap"/><path d="M4 17.8h25.5v.2H4z" class="C At"/><path d="M4 17.62h25.5v.2H4z" class="C Au"/><path d="M4 17.42h25.5v.2H4z" class="C Av"/><path d="M4 17.23h25.5v.2H4z" class="C Aw"/><path d="M4 17.03h25.5v.2H4z" class="C Ax"/><path d="M4 16.83h25.5v.2H4z" class="C Ay"/><path d="M4 16.64h25.5v.2H4z" class="C Az"/><path d="M4 16.44h25.5v.2H4z" class="C BA"/><path d="M4 16.25h25.5v.2H4z" class="C BB"/><path d="M4 16.05h25.5v.2H4z" class="C BC"/><path d="M4 15.85h25.5v.2H4z" class="C BD"/><path d="M4 15.66h25.5v.2H4z" class="C BE"/><path d="M4 15.46h25.5v.2H4z" class="C BF"/><path d="M4 15.27h25.5v.2H4z" class="C BG"/><path d="M4 15.07h25.5v.2H4z" class="C BH"/><path d="M4 14.88h25.5v.2H4z" class="C BI"/><path d="M4 14.68h25.5v.2H4z" class="C BJ"/><path d="M4 14.48h25.5v.2H4z" class="C BK"/><path d="M4 14.3h25.5v.2H4z" class="C BL"/><path d="M4 14.1h25.5v.2H4z" class="C BM"/><path d="M4 13.9h25.5v.2H4z" class="C BN"/><path d="M4 13.7h25.5v.2H4z" class="C BO"/><path d="M4 13.5h25.5v.2H4z" class="C BP"/><path d="M4 13.3h25.5v.2H4z" class="C BQ"/><path d="M4 13.1h25.5v.2H4z" class="C BR"/><path d="M4 12.92h25.5v.2H4z" class="C BS"/><path d="M4 12.72h25.5v.2H4z" class="C BT"/><path d="M4 12.53h25.5v.2H4z" class="C BU"/><path d="M4 12.33h25.5v.2H4z" class="C BV"/><path d="M4 12.13h25.5v.2H4z" class="C BW"/><path d="M4 11.94h25.5v.2H4z" class="C BX"/><path d="M4 11.74h25.5v.2H4z" class="C BY"/><path d="M4 11.55h25.5v.2H4z" class="C BZ"/><path d="M4 11.35h25.5v.2H4z" class="C Ba"/><path d="M4 11.16h25.5v.2H4z" class="C Bb"/><path d="M4 10.96h25.5v.2H4z" class="C Bc"/><path d="M4 10.76h25.5v.2H4z" class="C Bd"/><path d="M4 10.57h25.5v.2H4z" class="C Be"/><path d="M4 10.37h25.5v.2H4z" class="C Bf"/><path d="M4 10.18h25.5v.2H4z" class="C Bg"/><path d="M4 9.98h25.5v.2H4z" class="C Bh"/><path d="M4 9.8h25.5v.2H4z" class="C Bi"/><path d="M4 9.6h25.5v.2H4z" class="C Bj"/><path d="M4 9.4h25.5v.2H4z" class="C Bk"/><path d="M4 9.2h25.5v.2H4z" class="C Bl"/><path d="M4 9h25.5v.2H4z" class="C Bm"/><path d="M4 8.8h25.5V9H4z" class="C Bn"/><path d="M4 8.6h25.5v.2H4z" class="C Bo"/><path d="M4 8.42h25.5v.2H4z" class="C Bp"/><path d="M4 8.22h25.5v.2H4z" class="C Bq"/><path d="M4 8.02h25.5v.2H4z" class="C Br"/><path d="M4 7.83h25.5v.2H4z" class="C Bs"/><path d="M4 7.63h25.5v.2H4z" class="C Bt"/><path d="M4 7.44h25.5v.2H4z" class="C Bu"/><path d="M4 7.24h25.5v.2H4z" class="C Bv"/><path d="M4 7.04h25.5v.2H4z" class="C Bw"/><path d="M4 6.85h25.5v.2H4z" class="C Bx"/><path d="M4 6.65h25.5v.2H4z" class="C By"/><path d="M4 6.46h25.5v.2H4z" class="C Bz"/><path d="M4 6.26h25.5v.2H4z" class="C CA"/><defs><path id="C" d="M1 29.23c-.18.04-.33.18-.43.33a1.43 1.43 0 0 0-.25.9c-.32-.5-.3-1.17.01-1.67.33-.52.92-.84 1.54-.9.6-.05 1.23.14 1.74.47.35.22.67.52.86.9h0c-.25-.4-.7-.7-1.18-.74a1.48 1.48 0 0 0-1.28.52c-.3.37-.4.9-.2 1.35a1.06 1.06 0 0 0 .45.53c.16.1.35.12.52.08-.5.22-1.1.14-1.5-.22-.43-.36-.56-1.05-.27-1.55z"/></defs><clipPath id="D"><use xlink:href="#C"/></clipPath><path d="M4.47 27.94v-.1z" class="G Ap"/><path d="M4.47 30.57l-.06-2.72h.06v.1z" class="G Ao"/><path d="M4.43 31.23l-.07-3.38h.05l.06 2.72v.66z" class="G An"/><g class="AZ"><path d="M4.37 31.23l-.07-3.38h.06l.07 3.38z" class="G"/><path d="M4.32 31.23l-.07-3.38h.05l.07 3.38z" class="G"/></g><path d="M4.27 31.23l-.07-3.38h.05l.07 3.38z" class="G AY"/><path d="M4.22 31.23l-.07-3.38h.05l.07 3.38z" class="G AX"/><path d="M4.17 31.23l-.08-3.38h.06l.07 3.38z" class="G AW"/><path d="M4.1 31.23l-.07-3.38h.05l.08 3.38z" class="G AV"/><path d="M4.06 31.23L4 27.85h.05l.07 3.38z" class="G AU"/><path d="M4 31.23l-.07-3.38H4l.07 3.38z" class="G AT"/><path d="M3.96 31.23l-.07-3.38h.05L4 31.23z" class="G AS"/><path d="M3.9 31.23l-.07-3.38h.05l.07 3.38z" class="G AR"/><path d="M3.86 31.23l-.08-3.38h.06l.07 3.38z" class="G AQ"/><path d="M3.8 31.23l-.08-3.38h.05l.08 3.38z" class="G AP"/><path d="M3.75 31.23l-.07-3.38h.05l.08 3.38z" class="G AO"/><path d="M3.7 31.23l-.07-3.38h.05l.07 3.38z" class="G AN"/><path d="M3.65 31.23l-.07-3.38h.05l.07 3.38z" class="G AM"/><path d="M3.6 31.23l-.07-3.38h.05l.07 3.38z" class="G AL"/><path d="M3.55 31.23l-.07-3.38h.05l.07 3.38z" class="G AK"/><path d="M3.5 31.23l-.08-3.38h.06l.07 3.38z" class="G AJ"/><path d="M3.44 31.23l-.07-3.38h.05l.08 3.38z" class="G AI"/><path d="M3.4 31.23l-.07-3.38h.05l.07 3.38z" class="G AH"/><path d="M3.34 31.23l-.07-3.38h.05l.07 3.38z" class="G AG"/><path d="M3.3 31.23l-.07-3.38h.05l.07 3.38z" class="G AF"/><path d="M3.24 31.23l-.07-3.38h.05l.07 3.38z" class="G AE"/><path d="M3.2 31.23l-.08-3.38h.06l.07 3.38z" class="G AD"/><path d="M3.14 31.23l-.08-3.38h.05l.08 3.38z" class="G AC"/><path d="M3.08 31.23L3 27.85h.05l.08 3.38z" class="G AB"/><path d="M3.03 31.23l-.07-3.38H3l.07 3.38z" class="G AA"/><path d="M2.98 31.23l-.07-3.38h.05l.07 3.38z" class="G z"/><path d="M2.93 31.23l-.07-3.38h.05l.07 3.38z" class="G y"/><path d="M2.88 31.23l-.07-3.38h.05l.07 3.38z" class="G x"/><path d="M2.83 31.23l-.08-3.38h.06l.07 3.38z" class="G w"/><path d="M2.77 31.23l-.07-3.38h.05l.08 3.38z" class="G v"/><path d="M2.72 31.23l-.07-3.38h.05l.07 3.38z" class="G u"/><path d="M2.67 31.23l-.07-3.38h.05l.07 3.38z" class="G t"/><path d="M2.62 31.23l-.07-3.38h.05l.07 3.38z" class="G s"/><path d="M2.57 31.23l-.07-3.38h.05l.07 3.38z" class="G r"/><path d="M2.52 31.23l-.08-3.38h.06l.07 3.38z" class="G q"/><path d="M2.46 31.23l-.07-3.38h.05l.08 3.38z" class="G p"/><path d="M2.4 31.23l-.07-3.38h.05l.07 3.38z" class="G o"/><path d="M2.36 31.23l-.07-3.38h.05l.07 3.38z" class="G n"/><path d="M2.3 31.23l-.07-3.38h.05l.07 3.38z" class="G m"/><path d="M2.26 31.23l-.07-3.38h.05l.07 3.38z" class="G l"/><path d="M2.2 31.23l-.08-3.38h.06l.07 3.38z" class="G k"/><path d="M2.16 31.23l-.08-3.38h.05l.08 3.38z" class="G R"/><path d="M2.1 31.23l-.07-3.38h.05l.08 3.38z" class="G Q"/><path d="M2.05 31.23l-.07-3.38h.05l.07 3.38z" class="G P"/><path d="M2 31.23l-.07-3.38h.05l.07 3.38z" class="G O"/><path d="M1.95 31.23l-.07-3.38h.05L2 31.23z" class="G N"/><path d="M1.9 31.23l-.07-3.38h.05l.07 3.38z" class="G M"/><path d="M1.85 31.23l-.08-3.38h.06l.07 3.38z" class="G L"/><path d="M1.8 31.23l-.07-3.38h.05l.08 3.38z" class="G K"/><path d="M1.74 31.23l-.07-3.38h.05l.07 3.38z" class="G J"/><path d="M1.7 31.23l-.07-3.38h.05l.07 3.38z" class="G j"/><path d="M1.64 31.23l-.07-3.38h.05l.07 3.38z" class="G i"/><path d="M1.6 31.23l-.07-3.38h.05l.07 3.38z" class="G h"/><path d="M1.54 31.23l-.08-3.38h.06l.07 3.38z" class="G g"/><path d="M1.5 31.23l-.08-3.38h.05l.08 3.38z" class="G f"/><path d="M1.43 31.23l-.07-3.38h.05l.08 3.38z" class="G e"/><path d="M1.38 31.23l-.07-3.38h.05l.07 3.38z" class="G d"/><path d="M1.33 31.23l-.07-3.38h.05l.07 3.38z" class="G c"/><path d="M1.28 31.23l-.07-3.38h.05l.07 3.38z" class="G b"/><path d="M1.23 31.23l-.07-3.38h.05l.07 3.38z" class="G a"/><path d="M1.18 31.23l-.08-3.38h.06l.07 3.38z" class="G Z"/><path d="M1.12 31.23l-.07-3.38h.05l.08 3.38z" class="G Y"/><path d="M1.07 31.23L1 27.85h.05l.07 3.38z" class="G X"/><path d="M1.02 31.23l-.07-3.38H1l.07 3.38z" class="G W"/><path d="M.97 31.23L.9 27.85h.05l.07 3.38z" class="G V"/><path d="M.92 31.23l-.07-3.38H.9l.07 3.38z" class="G U"/><path d="M.87 31.23L.8 27.85h.06l.07 3.38z" class="G T"/><path d="M.82 31.23l-.08-3.38H.8l.08 3.38z" class="G S"/><path d="M.76 31.23L.7 27.85h.05l.08 3.38z" class="G Am"/><path d="M.7 31.23l-.07-3.38H.7l.07 3.38z" class="G Al"/><path d="M.66 31.23L.6 27.85h.05l.07 3.38z" class="G Ak"/><path d="M.6 31.23l-.07-3.38H.6l.07 3.38z" class="G Aj"/><path d="M.56 31.23L.5 27.85h.05l.07 3.38z" class="G Ai"/><path d="M.5 31.23l-.08-3.38H.5l.07 3.38z" class="G Ah"/><path d="M.45 31.23l-.07-3.38h.05l.08 3.38z" class="G Ag"/><path d="M.4 31.23l-.07-3.38h.05l.07 3.38z" class="G Af"/><path d="M.35 31.23l-.07-3.38h.05l.07 3.38z" class="G Ae"/><path d="M.3 31.23l-.07-3.38h.05l.07 3.38z" class="G Ad"/><path d="M.25 31.23l-.07-3.38h.05l.07 3.38z" class="G Ac"/><path d="M.2 31.23l-.08-3.38h.06l.07 3.38z" class="G Ab"/><path d="M.14 31.23l-.07-3.38h.05l.08 3.38z" class="G Aa"/><path d="M.1 31.23l-.07-3.38h.05l.07 3.38z" class="G As"/><path d="M.04 31.23L0 29.28v-1.43h.02l.07 3.38z" class="G Ar"/><path d="M0 29.28l.04 1.95H0z" class="G Aq"/><defs><path id="E" d="M1 11.5c-.18-.04-.33-.18-.43-.33a1.43 1.43 0 0 1-.25-.9c-.32.5-.3 1.17.01 1.67.33.52.92.84 1.54.9.6.05 1.23-.14 1.74-.47.35-.22.67-.52.86-.9h0c-.25.4-.7.7-1.18.74a1.48 1.48 0 0 1-1.28-.52c-.3-.37-.4-.9-.2-1.35a1.06 1.06 0 0 1 .45-.53c.16-.1.35-.12.52-.08-.5-.23-1.1-.16-1.5.2C.84 10.32.7 11 1 11.5z"/></defs><clipPath id="F"><use xlink:href="#E"/></clipPath><path d="M4.47 12.9v-.1.1z" class="H Ap"/><path d="M4.4 12.9l.06-2.72v2.72z" class="H Ao"/><path d="M4.36 12.9l.07-3.38h.04v.66L4.4 12.9z" class="H An"/><g class="AZ"><path d="M4.3 12.9l.07-3.38h.06l-.07 3.38z" class="H"/><path d="M4.25 12.9l.07-3.38h.05L4.3 12.9z" class="H"/></g><path d="M4.2 12.9l.07-3.38h.05l-.07 3.38z" class="H AY"/><path d="M4.15 12.9l.07-3.38h.05L4.2 12.9z" class="H AX"/><path d="M4.1 12.9l.08-3.38h.05l-.07 3.38z" class="H AW"/><path d="M4.04 12.9L4.1 9.5h.06L4.1 12.9z" class="H AV"/><path d="M4 12.9l.07-3.38h.05l-.07 3.38z" class="H AU"/><path d="M3.94 12.9L4 9.5h.05L4 12.9z" class="H AT"/><path d="M3.9 12.9l.07-3.38H4l-.07 3.38z" class="H AS"/><path d="M3.84 12.9L3.9 9.5h.05L3.9 12.9z" class="H AR"/><path d="M3.78 12.9l.08-3.38h.05l-.07 3.38z" class="H AQ"/><path d="M3.73 12.9L3.8 9.5h.05l-.08 3.38z" class="H AP"/><path d="M3.68 12.9l.07-3.38h.06l-.08 3.38z" class="H AO"/><path d="M3.63 12.9L3.7 9.5h.05l-.07 3.38z" class="H AN"/><path d="M3.58 12.9l.07-3.38h.05l-.07 3.38z" class="H AM"/><path d="M3.53 12.9L3.6 9.5h.05l-.07 3.38z" class="H AL"/><path d="M3.48 12.9l.07-3.38h.05l-.07 3.38z" class="H AK"/><path d="M3.42 12.9L3.5 9.5h.05l-.07 3.38z" class="H AJ"/><path d="M3.37 12.9l.07-3.38h.06l-.08 3.38z" class="H AI"/><path d="M3.32 12.9L3.4 9.5h.05l-.07 3.38z" class="H AH"/><path d="M3.27 12.9l.07-3.38h.05l-.07 3.38z" class="H AG"/><path d="M3.22 12.9L3.3 9.5h.05l-.07 3.38z" class="H AF"/><path d="M3.17 12.9l.07-3.38h.05l-.07 3.38z" class="H AE"/><path d="M3.1 12.9L3.2 9.5h.05l-.07 3.38z" class="H AD"/><path d="M3.06 12.9l.08-3.38h.05L3.1 12.9z" class="H AC"/><path d="M3 12.9l.07-3.38h.06l-.08 3.38z" class="H AB"/><path d="M2.96 12.9l.07-3.38h.05L3 12.9z" class="H AA"/><path d="M2.9 12.9l.07-3.38h.05l-.07 3.38z" class="H z"/><path d="M2.86 12.9l.07-3.38h.05L2.9 12.9z" class="H y"/><path d="M2.8 12.9l.07-3.38h.05l-.07 3.38z" class="H x"/><path d="M2.75 12.9l.08-3.38h.05L2.8 12.9z" class="H w"/><path d="M2.7 12.9l.07-3.38h.06l-.08 3.38z" class="H v"/><path d="M2.65 12.9l.07-3.38h.05L2.7 12.9z" class="H u"/><path d="M2.6 12.9l.07-3.38h.05l-.07 3.38z" class="H t"/><path d="M2.55 12.9l.07-3.38h.05L2.6 12.9z" class="H s"/><path d="M2.5 12.9l.07-3.38h.05l-.07 3.38z" class="H r"/><path d="M2.44 12.9l.08-3.38h.05L2.5 12.9z" class="H q"/><path d="M2.4 12.9l.07-3.38h.06l-.08 3.38z" class="H p"/><path d="M2.34 12.9L2.4 9.5h.05L2.4 12.9z" class="H o"/><path d="M2.3 12.9l.07-3.38h.05l-.07 3.38z" class="H n"/><path d="M2.24 12.9L2.3 9.5h.05L2.3 12.9z" class="H m"/><path d="M2.2 12.9l.07-3.38h.05l-.07 3.38z" class="H l"/><path d="M2.13 12.9L2.2 9.5h.05L2.2 12.9z" class="H k"/><path d="M2.08 12.9l.08-3.38h.05l-.08 3.38z" class="H R"/><path d="M2.03 12.9L2.1 9.5h.06l-.08 3.38z" class="H Q"/><path d="M1.98 12.9l.07-3.38h.05l-.07 3.38z" class="H P"/><path d="M1.93 12.9L2 9.5h.05l-.07 3.38z" class="H O"/><path d="M1.88 12.9l.07-3.38H2l-.07 3.38z" class="H N"/><path d="M1.83 12.9L1.9 9.5h.05l-.07 3.38z" class="H M"/><path d="M1.77 12.9l.08-3.38h.05l-.07 3.38z" class="H L"/><path d="M1.72 12.9L1.8 9.5h.06l-.08 3.38z" class="H K"/><path d="M1.67 12.9l.07-3.38h.05l-.07 3.38z" class="H J"/><path d="M1.62 12.9L1.7 9.5h.05l-.07 3.38z" class="H j"/><path d="M1.57 12.9l.07-3.38h.05l-.07 3.38z" class="H i"/><path d="M1.52 12.9L1.6 9.5h.05l-.07 3.38z" class="H h"/><path d="M1.46 12.9l.08-3.38h.05l-.07 3.38z" class="H g"/><path d="M1.4 12.9L1.5 9.5h.05l-.08 3.38z" class="H f"/><path d="M1.36 12.9l.07-3.38h.06L1.4 12.9z" class="H e"/><path d="M1.3 12.9l.07-3.38h.05l-.07 3.38z" class="H d"/><path d="M1.26 12.9l.07-3.38h.05L1.3 12.9z" class="H c"/><path d="M1.2 12.9l.07-3.38h.05l-.07 3.38z" class="H b"/><path d="M1.16 12.9l.07-3.38h.05L1.2 12.9z" class="H a"/><path d="M1.1 12.9l.08-3.38h.05l-.07 3.38z" class="H Z"/><path d="M1.05 12.9l.07-3.38h.06L1.1 12.9z" class="H Y"/><path d="M1 12.9l.07-3.38h.05l-.07 3.38z" class="H X"/><path d="M.95 12.9l.07-3.38h.05L1 12.9z" class="H W"/><path d="M.9 12.9L.97 9.5h.05L.95 12.9z" class="H V"/><path d="M.85 12.9L.92 9.5h.05L.9 12.9z" class="H U"/><path d="M.8 12.9L.87 9.5h.05L.85 12.9z" class="H T"/><path d="M.74 12.9L.82 9.5h.05L.8 12.9z" class="H S"/><path d="M.7 12.9L.76 9.5h.06L.74 12.9z" class="H Am"/><path d="M.64 12.9L.7 9.5h.05L.7 12.9z" class="H Al"/><path d="M.6 12.9L.66 9.5H.7L.64 12.9z" class="H Ak"/><path d="M.54 12.9L.6 9.5h.05L.6 12.9z" class="H Aj"/><path d="M.5 12.9L.56 9.5H.6L.54 12.9z" class="H Ai"/><path d="M.43 12.9L.5 9.5h.05L.5 12.9z" class="H Ah"/><path d="M.38 12.9L.45 9.5H.5L.43 12.9z" class="H Ag"/><path d="M.33 12.9L.4 9.5h.05L.38 12.9z" class="H Af"/><path d="M.28 12.9L.35 9.5H.4L.33 12.9z" class="H Ae"/><path d="M.23 12.9L.3 9.5h.05L.28 12.9z" class="H Ad"/><path d="M.18 12.9L.25 9.5H.3L.23 12.9z" class="H Ac"/><path d="M.12 12.9L.2 9.5h.05L.18 12.9z" class="H Ab"/><path d="M.07 12.9L.14 9.5H.2L.12 12.9z" class="H Aa"/><path d="M.02 12.9L.1 9.5h.05L.07 12.9z" class="H As"/><path d="M0 11.46L.04 9.5H.1L.02 12.9H0z" class="H Ar"/><path d="M.04 9.5L0 11.46V9.5z" class="H Aq"/><defs><path id="G" d="M42 3.8c-.27-.4-.63-.78-1.1-.84-.44-.06-.88.17-1.32.15-.85-.04-1.4-.97-2.2-1.24-.38-.13-.8-.1-1.2-.04-1.26.18-2.57.6-3.77.18-.48-.17-.94-.5-1.1-1A1.18 1.18 0 0 1 31.43 0a2.72 2.72 0 0 0-.63 1.35 2.77 2.77 0 0 0 .4 1.9c.2.33.5.62.87.75-.8.8-1.38 1.84-1.66 2.95-.18.74-.23 1.54.04 2.24.18-.87.53-1.73 1.14-2.38.56-.6 1.34-1 2.14-1.03-1.1 1.7-1.27 3.9-.74 5.87.26.98.7 1.93 1.4 2.66.66.7 1.58 1.17 2.53 1.2-.32-.13-.57-.4-.77-.68-.53-.73-.78-1.73-.38-2.54.38-.8 1.25-1.2 1.97-1.7.6-.42 1.16-.97 1.47-1.64.27-.58.35-1.23.52-1.85s.47-1.25 1.02-1.58c.37-.22.84-.3 1.25-.17.42.12.78.42.97.8C42.8 5.3 42.5 4.5 42 3.8zm-3.83.47c-.2.15-.37.34-.6.45-.4.2-.9.12-1.36.03-.25-.05-.52-.1-.78-.08.98-.68 2.27-.92 3.42-.6-.24-.06-.5.06-.7.2z"/></defs><clipPath id="H"><use xlink:href="#G"/></clipPath><path d="M35.73 3.76l-.28.07v-.07z" class="I J"/><path d="M36.83 3.76l-1.38.35v-.28l.28-.07z" class="I K"/><path d="M37.93 3.76l-2.48.62V4.1l1.38-.35z" class="I L"/><path d="M38.87 3.8l-3.42.85v-.27l2.48-.62h.94z" class="I M"/><path d="M38.87 4.08l-3.42.84v-.27l3.42-.85z" class="I N"/><path d="M38.87 4.35l-2.38.6h-1.04v-.02l3.42-.84z" class="I O"/><path d="M38.87 4.62l-1.28.32h-1.1l2.38-.6z" class="I P"/><path d="M38.87 4.9l-.18.05h-1.1l1.28-.32z" class="I Q"/><path d="M38.7 4.94l.18-.05v.05z" class="I R"/><path d="M31.1 0l-.93.23V0z" class="I S"/><path d="M32.2 0l-2.03.5V.23L31.1 0z" class="I T"/><path d="M33.3 0l-3.13.78V.5L32.2 0z" class="I U"/><path d="M34.4 0l-4.23 1.05V.78L33.3 0z" class="I V"/><path d="M35.5 0l-5.33 1.32v-.27L34.4 0z" class="I W"/><path d="M36.6 0l-6.43 1.6v-.27L35.5 0z" class="I X"/><path d="M37.7 0l-7.53 1.87V1.6L36.6 0z" class="I Y"/><path d="M38.8 0l-8.63 2.14v-.27L37.7 0z" class="I Z"/><path d="M39.9 0l-9.73 2.4v-.27L38.8 0z" class="I a"/><path d="M41 0L30.18 2.7V2.4L39.9 0z" class="I b"/><path d="M42.1 0L30.18 2.96V2.7L41 0z" class="I c"/><path d="M42.96.06L30.18 3.23v-.27L42.1 0h.85z" class="I d"/><path d="M42.96.33L30.18 3.5v-.27L42.96.06z" class="I e"/><path d="M42.96.6L30.18 3.78V3.5L42.96.33z" class="I f"/><path d="M42.96.88L30.18 4.05v-.27L42.96.6z" class="I g"/><path d="M42.96 1.15L30.18 4.32v-.27L42.96.88z" class="I h"/><path d="M42.96 1.42L30.18 4.6v-.27l12.78-3.17z" class="I i"/><path d="M42.96 1.7L30.18 4.87V4.6l12.78-3.17z" class="I j"/><path d="M42.96 1.97L30.18 5.14v-.27L42.96 1.7z" class="I J"/><path d="M42.96 2.24L30.18 5.4v-.27l12.78-3.17z" class="I K"/><path d="M42.96 2.52L30.18 5.7V5.4l12.78-3.17z" class="I L"/><path d="M42.96 2.8L30.18 5.96V5.7l12.78-3.17z" class="I M"/><path d="M42.96 3.06L30.18 6.23v-.27L42.96 2.8z" class="I N"/><path d="M42.96 3.33L30.18 6.5v-.27l12.78-3.17z" class="I O"/><path d="M42.96 3.6L30.18 6.78V6.5l12.78-3.17z" class="I P"/><path d="M42.96 3.88L30.18 7.05v-.27L42.96 3.6z" class="I Q"/><path d="M42.96 4.15L30.18 7.32v-.27l12.78-3.17z" class="I R"/><path d="M42.96 4.43L30.18 7.6v-.28l12.78-3.17z" class="I k"/><path d="M42.96 4.7L30.18 7.87V7.6l12.78-3.17z" class="I l"/><path d="M42.96 4.97L30.18 8.14v-.27L42.96 4.7z" class="I m"/><path d="M42.96 5.24L30.18 8.4v-.27l12.78-3.17z" class="I n"/><path d="M42.96 5.52L30.18 8.7V8.4l12.78-3.17z" class="I o"/><path d="M42.96 5.8L30.18 8.96V8.7l12.78-3.17z" class="I p"/><path d="M42.96 6.06L30.18 9.23v-.27L42.96 5.8z" class="I q"/><path d="M42.96 6.33L30.18 9.5v-.28l12.78-3.17z" class="I r"/><path d="M42.96 6.6L30.18 9.78V9.5l12.78-3.18z" class="I s"/><path d="M42.96 6.88l-12.78 3.17v-.27L42.96 6.6z" class="I t"/><path d="M42.96 7.15l-12.78 3.17v-.27l12.78-3.17z" class="I u"/><path d="M42.96 7.43L30.18 10.6v-.28l12.78-3.17z" class="I v"/><path d="M42.96 7.7l-12.78 3.17v-.27l12.78-3.17z" class="I w"/><path d="M42.96 7.97l-12.78 3.17v-.27L42.96 7.7z" class="I x"/><path d="M42.96 8.24L30.18 11.4v-.27l12.78-3.17z" class="I y"/><path d="M42.96 8.52L30.18 11.7v-.28l12.78-3.17z" class="I z"/><path d="M42.96 8.8l-12.78 3.17v-.27l12.78-3.17z" class="I AA"/><path d="M42.96 9.06l-12.78 3.17v-.27L42.96 8.8z" class="I AB"/><path d="M42.96 9.34L30.18 12.5v-.28l12.78-3.17z" class="I AC"/><path d="M42.96 9.6l-12.78 3.17v-.27l12.78-3.17z" class="I AD"/><path d="M42.96 9.88l-12.78 3.17v-.27L42.96 9.6z" class="I AE"/><path d="M42.96 10.15l-12.78 3.17v-.27l12.78-3.17z" class="I AF"/><path d="M42.96 10.43L30.18 13.6v-.28l12.78-3.17z" class="I AG"/><path d="M42.96 10.7l-12.78 3.17v-.27l12.78-3.17z" class="I AH"/><path d="M42.96 10.97l-12.78 3.17v-.27l12.78-3.17z" class="I AI"/><path d="M42.96 11.24l-12.78 3.18v-.28l12.78-3.17z" class="I AJ"/><path d="M42.96 11.52L30.18 14.7v-.27l12.78-3.18z" class="I AK"/><path d="M42.96 11.8l-12.78 3.17v-.27l12.78-3.17z" class="I AL"/><path d="M42.96 12.06l-12.7 3.16-.07-.26 12.78-3.17z" class="I AM"/><path d="M42.96 12.34L30.3 15.47l-.06-.25 12.7-3.16z" class="I AN"/><path d="M42.96 12.6L31.33 15.5h-1l-.01-.02 12.65-3.13z" class="I AO"/><path d="M42.96 12.88l-10.53 2.6h-1.1l11.63-2.88z" class="I AP"/><path d="M42.96 13.15l-9.43 2.34h-1.1l10.53-2.6z" class="I AQ"/><path d="M42.96 13.43l-8.33 2.06h-1.1l9.43-2.34z" class="I AR"/><path d="M42.96 13.7l-7.23 1.8h-1.1l8.33-2.06z" class="I AS"/><path d="M42.96 13.97l-6.13 1.52h-1.1l7.23-1.8z" class="I AT"/><path d="M42.96 14.25l-5.03 1.24h-1.1l6.13-1.52z" class="I AU"/><path d="M42.96 14.52l-3.93.97h-1.1l5.03-1.24z" class="I AV"/><path d="M42.96 14.8l-2.83.7h-1.1l3.93-.97z" class="I AW"/><path d="M42.96 15.06l-1.73.43h-1.1l2.83-.7z" class="I AX"/><path d="M42.96 15.34l-.63.15h-1.1l1.73-.43z" class="I AY"/><path d="M42.33 15.5l.63-.15v.15z" class="I AZ"/><defs><path id="I" d="M35.33 18.36c-.42-1-1-1.92-1.57-2.85h.02c-.74-1.2-1.34-2.52-1.6-3.92a8.24 8.24 0 0 1-.14-1.48 9.35 9.35 0 0 1 .16-2.3 10.59 10.59 0 0 1 .24-.93 4.05 4.05 0 0 0-.57.6c-.4.48-.67 1-.87 1.58a10.93 10.93 0 0 0-.44 1.68c-.17-.24-1.15-1.52-1.48-1.87-1.38-1.55-3.82-2.9-6.18-3.92l-1.14-.45-3.2-1.1c1.98.9 3.6 2.16 5.28 3.82 2.23 2.18 4.47 4.5 5.64 7.38.4.96.65 1.97.9 2.97l.37 1.55a12.46 12.46 0 0 1 .04 2.59h0c-.08.88-.26 1.74-.5 2.6l-.06.14-2.3 4.76c-.86 1.45-3.26 3.93-3.27 3.96 0 .01 4.26-1.35 6.03-2.63.5-.36 1.44-1.22 1.43-1.27-.01-.03-.78.2-1.54.4.32-.3.6-.66.85-1.04l.27-.38.83-1.2c.67-1 1.34-2.03 1.52-3.2l.03-.25a1.21 1.21 0 0 1 .2.19c.3.32.47.75.53 1.18.08.54 0 1.1-.13 1.63h.01a8.66 8.66 0 0 0 .78-1.66c.75-2.1.72-4.5-.14-6.56z"/></defs><clipPath id="J"><use xlink:href="#I"/></clipPath><path d="M18.57 3.4h-.02z" class="F Aa"/><path d="M19.4 3.4l-.85.2v-.2h.02z" class="F Ab"/><path d="M20.24 3.4l-1.7.42v-.2l.85-.2z" class="F Ac"/><path d="M21.08 3.4l-2.53.63v-.2l1.7-.42z" class="F Ad"/><path d="M21.92 3.4l-3.37.83v-.2l2.53-.63z" class="F Ae"/><path d="M22.75 3.4l-4.2 1.04v-.2l3.37-.83z" class="F Af"/><path d="M23.6 3.4l-5.04 1.25v-.2l4.2-1.04z" class="F Ag"/><path d="M24.43 3.4l-5.88 1.46v-.2L23.6 3.4z" class="F Ah"/><path d="M25.27 3.4l-6.72 1.66v-.2l5.88-1.46z" class="F Ai"/><path d="M26.1 3.4l-7.56 1.87v-.2l6.72-1.66z" class="F Aj"/><path d="M26.94 3.4l-8.4 2.08v-.2L26.1 3.4z" class="F Ak"/><path d="M27.78 3.4l-9.23 2.3v-.2l8.4-2.08z" class="F Al"/><path d="M28.62 3.4L18.55 5.9v-.2l9.23-2.3z" class="F Am"/><path d="M29.46 3.4l-10.9 2.7v-.2l10.07-2.5z" class="F S"/><path d="M30.3 3.4L18.55 6.3v-.2l10.9-2.7z" class="F T"/><path d="M31.13 3.4L18.55 6.5v-.2L30.3 3.4z" class="F U"/><path d="M31.97 3.4L18.55 6.72v-.2L31.13 3.4z" class="F V"/><path d="M32.8 3.4L18.55 6.93v-.2L31.97 3.4z" class="F W"/><path d="M33.56 3.4h0l-15 3.72v-.2L32.8 3.4z" class="F X"/><path d="M33.56 3.4l.05.2-15.06 3.73v-.2z" class="F Y"/><path d="M33.6 3.6l.05.2-15.1 3.75v-.2z" class="F Z"/><path d="M33.66 3.8l.05.2-15.16 3.76v-.2z" class="F a"/><path d="M33.7 4l.05.2-15.2 3.77v-.2z" class="F b"/><path d="M33.76 4.2l.05.2-15.26 3.78v-.2z" class="F c"/><path d="M33.8 4.4l.05.2-15.3 3.8v-.2z" class="F d"/><path d="M33.86 4.6l.04.2-15.35 3.8v-.2z" class="F e"/><path d="M33.9 4.78l.05.2-15.4 3.82v-.2z" class="F f"/><path d="M33.95 4.98l.05.2L18.55 9v-.2z" class="F g"/><path d="M34 5.17l.05.2-15.5 3.84V9z" class="F h"/><path d="M34.05 5.37l.05.2-15.55 3.86v-.2z" class="F i"/><path d="M34.1 5.56l.05.2-15.6 3.87v-.2z" class="F j"/><path d="M34.15 5.76l.05.2-15.65 3.87v-.2z" class="F J"/><path d="M34.2 5.96l.04.2-15.7 3.9v-.2z" class="F K"/><path d="M34.24 6.15l.05.2-15.74 3.9v-.2z" class="F L"/><path d="M34.3 6.35l.05.2-15.8 3.92v-.2z" class="F M"/><path d="M34.34 6.54l.05.2-15.84 3.93v-.2z" class="F N"/><path d="M34.4 6.74l.05.2-15.9 3.94v-.2z" class="F O"/><path d="M34.44 6.93l.05.2-15.94 3.95v-.2z" class="F P"/><path d="M34.5 7.13l.05.2-16 3.96v-.2z" class="F Q"/><path d="M34.54 7.33l.04.2-16.03 3.98v-.2z" class="F R"/><path d="M34.58 7.52l.05.2-16.08 3.98v-.2z" class="F k"/><path d="M34.63 7.72l.05.2-16.13 4v-.2z" class="F l"/><path d="M34.68 7.9l.05.2-16.18 4v-.2z" class="F m"/><path d="M34.73 8.1l.05.2-16.23 4.02v-.2z" class="F n"/><path d="M34.78 8.3l.05.2-16.28 4.04v-.2z" class="F o"/><path d="M34.83 8.5l.04.2-16.32 4.04v-.2z" class="F p"/><path d="M34.87 8.7l.05.2-16.37 4.06v-.2z" class="F q"/><path d="M34.92 8.9l.05.2-16.42 4.07v-.2z" class="F r"/><path d="M34.97 9.1l.05.2-16.47 4.1v-.2z" class="F s"/><path d="M35.02 9.28l.05.2-16.52 4.1v-.2z" class="F t"/><path d="M35.07 9.48l.05.2-16.57 4.1v-.2z" class="F u"/><path d="M35.12 9.68l.05.2L18.55 14v-.2z" class="F v"/><path d="M35.17 9.87l.04.2-16.66 4.13V14z" class="F w"/><path d="M35.2 10.07l.05.2-16.7 4.15v-.2z" class="F x"/><path d="M35.26 10.26l.05.2-16.76 4.15v-.2z" class="F y"/><path d="M35.3 10.46l.05.2-16.8 4.17v-.2z" class="F z"/><path d="M35.36 10.65l.05.2-16.83 4.17-.03-.1v-.1z" class="F AA"/><path transform="matrix(.9706 -.2407 .2407 .9706 -2.343 6.8868)" d="M18.35 12.93H35.7v.2H18.35z" class="F AB"/><path transform="matrix(.9706 -.2407 .2407 .9706 -2.3887 6.9042)" d="M18.4 13.13h17.34v.2H18.4z" class="F AC"/><path transform="matrix(.9706 -.2407 .2407 .9706 -2.4344 6.9217)" d="M18.45 13.33H35.8v.2H18.45z" class="F AD"/><path transform="matrix(.9706 -.2407 .2407 .9706 -2.4801 6.9391)" d="M18.5 13.52h17.34v.2H18.5z" class="F AE"/><path transform="matrix(.9706 -.2407 .2407 .9706 -2.5258 6.9566)" d="M18.55 13.72H35.9v.2H18.55z" class="F AF"/><path transform="matrix(.9706 -.2407 .2407 .9706 -2.5715 6.974)" d="M18.6 13.9h17.34v.2H18.6z" class="F AG"/><path transform="matrix(.9706 -.2407 .2407 .9706 -2.6172 6.9915)" d="M18.64 14.1h17.34v.2H18.64z" class="F AH"/><path transform="matrix(.9706 -.2407 .2407 .9706 -2.6629 7.0089)" d="M18.7 14.3h17.34v.2H18.7z" class="F AI"/><path transform="matrix(.9706 -.2407 .2407 .9706 -2.7086 7.0263)" d="M18.74 14.5h17.34v.2H18.74z" class="F AJ"/><path transform="matrix(.9706 -.2407 .2407 .9706 -2.7543 7.0438)" d="M18.8 14.7h17.34v.2H18.8z" class="F AK"/><path transform="matrix(.9706 -.2407 .2407 .9706 -2.7999 7.0612)" d="M18.84 14.9h17.34v.2H18.84z" class="F AL"/><path transform="matrix(.9706 -.2407 .2407 .9706 -2.8457 7.0787)" d="M18.9 15.1h17.34v.2H18.9z" class="F AM"/><path transform="matrix(.9706 -.2407 .2407 .9706 -2.8913 7.0961)" d="M18.93 15.28h17.34v.2H18.93z" class="F AN"/><path transform="matrix(.9706 -.2407 .2407 .9706 -2.937 7.1136)" d="M18.98 15.48h17.34v.2H18.98z" class="F AO"/><path transform="matrix(.9706 -.2407 .2407 .9706 -2.9827 7.131)" d="M19.03 15.67h17.34v.2H19.03z" class="F AP"/><path transform="matrix(.9706 -.2407 .2407 .9706 -3.0284 7.1485)" d="M19.08 15.87h17.34v.2H19.08z" class="F AQ"/><path d="M36.2 13.98l.03.13v.07l-16.8 4.17-.05-.2z" class="F AR"/><path d="M36.22 14.4l-16.76 4.16-.05-.2 16.8-4.17z" class="F AS"/><path d="M36.22 14.6L19.5 18.74l-.04-.2 16.76-4.16z" class="F AT"/><path d="M36.22 14.8l-16.67 4.13-.05-.2 16.72-4.14z" class="F AU"/><path d="M36.22 15L19.6 19.13l-.05-.2 16.67-4.13z" class="F AV"/><path d="M36.22 15.22l-16.57 4.1-.05-.2L36.22 15z" class="F AW"/><path d="M36.22 15.43l-16.52 4.1-.05-.2 16.57-4.1z" class="F AX"/><path d="M36.22 15.64l-16.47 4.08-.05-.2 16.52-4.1z" class="F AY"/><g class="AZ"><path d="M36.22 15.84L19.8 19.92l-.05-.2 16.47-4.08z" class="F"/><path d="M36.22 16.07l-16.37 4.06-.05-.2 16.42-4.08z" class="F"/></g><path d="M36.22 16.3L19.9 20.34l-.05-.2 16.37-4.06z" class="F An"/><path d="M36.22 16.52l-16.27 4.04-.05-.22 16.32-4.04z" class="F Ao"/><path d="M36.22 16.75L20 20.77l-.06-.2 16.27-4.04z" class="F Ap"/><path d="M36.22 16.97l-16.16 4-.05-.2 16.2-4.02z" class="F At"/><path d="M36.22 17.2l-16.1 4-.05-.2 16.16-4z" class="F Au"/><path d="M36.22 17.42l-16.06 4-.05-.22 16.1-4z" class="F Av"/><path d="M36.22 17.65l-16 3.97-.06-.2 16.06-4z" class="F Aw"/><path d="M36.22 17.88l-15.95 3.95-.05-.2 16-3.97z" class="F Ax"/><path d="M36.22 18.1l-15.9 3.94-.05-.2 15.95-3.95z" class="F Ay"/><path d="M36.22 18.33l-15.84 3.93-.06-.22 15.9-3.94z" class="F Az"/><path d="M36.22 18.55l-15.8 3.92-.05-.2 15.84-3.93z" class="F BA"/><path d="M36.22 18.78l-15.74 3.9-.05-.2 15.8-3.92z" class="F BB"/><path d="M36.22 19l-15.7 3.9-.05-.2 15.74-3.9z" class="F BC"/><path d="M36.22 19.23L20.6 23.1l-.06-.22 15.7-3.9z" class="F BD"/><path d="M36.22 19.46l-15.58 3.86-.05-.2 15.63-3.88z" class="F BE"/><path d="M36.22 19.68L20.7 23.53l-.05-.2 15.58-3.86z" class="F BF"/><path d="M36.22 19.9l-15.48 3.83-.05-.2 15.53-3.85z" class="F BG"/><path d="M36.22 20.13L20.8 23.96l-.06-.22 15.48-3.83z" class="F BH"/><path d="M36.22 20.36l-15.37 3.8-.05-.2 15.42-3.83z" class="F BI"/><path d="M36.22 20.58l-15.32 3.8-.05-.2 15.37-3.8z" class="F BJ"/><path d="M36.22 20.8l-15.26 3.8-.06-.22 15.32-3.8z" class="F BK"/><path d="M36.22 21.04L21 24.8l-.05-.2 15.26-3.8z" class="F BL"/><path d="M36.22 21.26l-15.16 3.76-.05-.2 15.2-3.77z" class="F BM"/><path d="M36.22 21.5l-15.1 3.74-.05-.2 15.16-3.76z" class="F BN"/><path d="M36.22 21.7l-15.05 3.74-.06-.22 15.1-3.74z" class="F BO"/><path d="M36.22 21.94l-15 3.72-.05-.2 15.05-3.74z" class="F BP"/><path d="M36.22 22.16l-14.95 3.7-.05-.2 15-3.72z" class="F BQ"/><path d="M36.22 22.4l-14.9 3.7-.05-.2 14.95-3.7z" class="F BR"/><path d="M36.22 22.62L21.38 26.3l-.06-.22 14.9-3.7z" class="F BS"/><path d="M36.22 22.84l-14.8 3.67-.05-.2 14.84-3.68z" class="F BT"/><path d="M36.22 23.07l-14.74 3.65-.05-.2 14.8-3.67z" class="F BU"/><path d="M36.22 23.3l-14.68 3.64-.06-.2 14.74-3.65z" class="F BV"/><path d="M36.22 23.52L21.6 27.15l-.05-.22 14.68-3.64z" class="F BW"/><path d="M36.22 23.74l-14.58 3.62-.05-.2 14.63-3.63z" class="F BX"/><path d="M36.22 23.97l-14.53 3.6-.05-.2 14.58-3.62z" class="F BY"/><path d="M36.22 24.2l-14.47 3.58-.06-.2 14.53-3.6z" class="F BZ"/><path d="M36.22 24.42L21.8 28l-.05-.22 14.47-3.58z" class="F Ba"/><path d="M36.22 24.65L21.85 28.2l-.05-.2 14.42-3.58z" class="F Bb"/><path d="M36.22 24.87L21.9 28.42l-.05-.2 14.37-3.56z" class="F Bc"/><path d="M36.22 25.1l-14.26 3.54-.06-.22 14.32-3.55z" class="F Bd"/><path d="M36.22 25.32L22 28.85l-.05-.2 14.26-3.54z" class="F Be"/><path d="M36.22 25.55l-14.16 3.5-.05-.2 14.2-3.53z" class="F Bf"/><path d="M36.22 25.78l-14.1 3.5-.06-.2 14.16-3.5z" class="F Bg"/><path d="M36.22 26l-14.05 3.5-.05-.22 14.1-3.5z" class="F Bh"/><path d="M36.22 26.23l-14 3.47-.05-.2L36.22 26z" class="F Bi"/><path d="M36.22 26.45L22.27 29.9l-.05-.2 14-3.47z" class="F Bj"/><path d="M36.22 26.68l-13.9 3.44-.06-.2 13.95-3.46z" class="F Bk"/><path d="M36.22 26.9l-13.84 3.44-.05-.22 13.9-3.44z" class="F Bl"/><path d="M36.22 27.13l-13.8 3.42-.05-.2 13.84-3.44z" class="F Bm"/><path d="M36.22 27.36l-13.74 3.4-.05-.2 13.8-3.42z" class="F Bn"/><path d="M36.22 27.58l-13.68 3.4-.06-.2 13.74-3.4z" class="F Bo"/><path d="M36.22 27.8L22.6 31.2l-.05-.22 13.68-3.4z" class="F Bp"/><path d="M36.22 28.03L22.64 31.4l-.05-.2 13.63-3.38z" class="F Bq"/><path d="M36.22 28.26L22.7 31.6l-.06-.2 13.58-3.37z" class="F Br"/><path d="M36.22 28.48l-13.47 3.34-.05-.2 13.52-3.35z" class="F Bs"/><path d="M36.22 28.7L22.8 32.04l-.05-.22 13.47-3.34z" class="F Bt"/><path d="M36.22 28.94l-13.37 3.3-.05-.2 13.42-3.33z" class="F Bu"/><path d="M36.22 29.16l-13.3 3.3-.06-.2 13.37-3.3z" class="F Bv"/><path d="M36.22 29.4l-13.26 3.3-.05-.22 13.3-3.3z" class="F Bw"/><path d="M36.22 29.6L23 32.9l-.05-.2 13.26-3.3z" class="F Bx"/><path d="M36.22 29.84L23.06 33.1l-.05-.2 13.2-3.28z" class="F By"/><path d="M36.22 30.06l-12.5 3.1h-.64l-.02-.06 13.16-3.26z" class="F Bz"/><g class="CA"><path d="M36.22 30.3l-11.6 2.87h-.9l12.5-3.1z" class="F"/><path d="M24.63 33.16l11.6-2.87v2.87z" class="F"/></g><path d="M45.97 15.26l4.26-10.2h.38L55 15.3h1.2v.2l-4.74-.03v-.2h1.3l-1.6-3.8H47.8l-1.6 3.77 1.25.01v.2l-2.66-.02v-.2l1.18.01zm1.9-3.97h3.24l-1.64-3.86-1.6 3.84zm16.28.98c.14-.46.22-1.05.22-1.77 0-.4-.03-.7-.1-.95S64.13 9.12 64 9s-.27-.22-.46-.27c-.18-.05-.4-.07-.64-.07v-.2l2.85.02v.2l-.54.12c-.14.04-.26.12-.35.24s-.16.3-.2.5-.08.53-.1.94l-.05.67-.12.8c-.05.28-.13.55-.22.82a3.01 3.01 0 0 1-.35.72l.64 1.15c.04.07.1.15.2.25a.54.54 0 0 0 .4.16.46.46 0 0 0 .34-.14c.1-.1.15-.2.2-.32a1.24 1.24 0 0 0 .1-.35c.02-.1.02-.2.02-.23 0-.05 0-.1-.01-.13 0-.04-.02-.08-.03-.13h.2c.01.02.02.05.03.1a.57.57 0 0 1 .01.13c0 .04-.01.15-.03.35s-.1.4-.2.6c-.12.22-.3.4-.55.58s-.6.26-1.05.25c-.4 0-.73-.1-.96-.25a2.75 2.75 0 0 1-.59-.59l-.42.3a3.42 3.42 0 0 1-.47.26c-.17.07-.37.13-.6.18a3.84 3.84 0 0 1-.8.07c-.7 0-1.3-.12-1.73-.36-.44-.23-.78-.5-1.03-.84s-.4-.66-.5-1-.13-.64-.13-.9a2.45 2.45 0 0 1 .27-1.16 4.07 4.07 0 0 1 .67-.93 5.3 5.3 0 0 1 .89-.74l.93-.6-.33-.95c-.07-.24-.1-.48-.1-.73 0-.3.06-.57.18-.84a2.52 2.52 0 0 1 .48-.72c.2-.2.43-.38.68-.5.25-.13.5-.2.78-.2a1.7 1.7 0 0 1 .51.08 1.12 1.12 0 0 1 .42.25c.12.1.22.26.3.45.07.18.1.4.1.67 0 .28-.08.58-.24.9s-.5.64-1 .97l2.34 4.65c.14-.17.28-.5.42-.96zm-4.3-2.65l-.13-.26-.52.4c-.15.12-.27.25-.37.4a1.87 1.87 0 0 0-.22.45c-.05.15-.07.36-.07.58a3.35 3.35 0 0 0 .09.67c.06.28.15.57.27.88s.25.62.42.93c.16.3.34.6.53.84s.4.46.62.62.44.24.67.24a1.4 1.4 0 0 0 .68-.17 7.84 7.84 0 0 0 .66-.45l-.22-.33-.15-.3-2.1-4.1c-.05-.14-.12-.27-.17-.4zM62.4 6.3a1.34 1.34 0 0 0-.17-.4 1.07 1.07 0 0 0-.3-.3c-.13-.08-.26-.1-.43-.12l-.2.01a.8.8 0 0 0-.31.1 1.06 1.06 0 0 0-.3.3c-.1.14-.13.33-.13.57a1.94 1.94 0 0 0 .06.46 4.35 4.35 0 0 0 .17.51l.24.52.26.47.34-.24a2.38 2.38 0 0 0 .38-.34 2.09 2.09 0 0 0 .3-.47 1.49 1.49 0 0 0 .12-.62c-.01-.13-.03-.28-.06-.43zm5.5 9.1l4.26-10.2h.38l4.38 10.26 1.2.01v.2l-4.74-.03v-.2l1.3.01-1.6-3.8-3.38-.02-1.6 3.77h1.25v.2l-2.66-.02v-.2l1.2.01zm1.88-3.97l3.24.02-1.64-3.86-1.6 3.84zM44.32 29.46l1.56.01.06-9.64-1.56-.01v-.2l4.54.03v.2l-1.56-.01-.06 9.64 1.56.01v.2l-4.54-.03v-.2zm5.35.04h1.1l.03-5.65-1.1-.01v-.2l2.27.01-.01 1.5H52l.25-.46c.1-.2.26-.37.45-.55s.43-.33.7-.45c.28-.13.63-.2 1.03-.18.62 0 1.12.16 1.5.46s.58.78.58 1.44v4.12l1.1.01v.2l-3.38-.02v-.2l1.1.01.03-4.55c0-.37-.08-.67-.26-.9-.17-.24-.44-.36-.8-.36-.3 0-.6.06-.86.2a2.23 2.23 0 0 0-.72.55 2.82 2.82 0 0 0-.5.83c-.13.33-.18.67-.18 1.04l-.02 3.2 1.1.01v.2l-3.38-.02-.04-.23zm9.06-1.73h.16c.06.23.15.45.25.7.1.23.24.44.4.64.17.2.4.35.64.48.25.12.56.2.9.2a1.33 1.33 0 0 0 .8-.27c.23-.17.36-.48.36-.9 0-.36-.1-.6-.27-.76a2.07 2.07 0 0 0-.64-.35l-1.1-.4-.46-.18c-.16-.07-.32-.17-.46-.3s-.25-.3-.34-.5-.13-.45-.13-.76c0-.26.05-.5.16-.73.1-.23.25-.42.43-.6s.4-.3.64-.4.52-.14.8-.14a2.27 2.27 0 0 1 .5.05c.13.03.24.07.33.1s.18.07.25.1.16.05.27.05c.1 0 .18-.04.23-.1h.16v1.6h-.16a5.31 5.31 0 0 0-.22-.6 2.43 2.43 0 0 0-.3-.52 1.29 1.29 0 0 0-.44-.36c-.17-.1-.38-.13-.6-.13-.45 0-.8.1-1.05.3a.98.98 0 0 0-.38.8c0 .3.1.53.3.7s.52.3.93.44l1.03.34c.44.15.8.36 1.08.63s.42.6.42 1.05c0 .25-.05.5-.15.75a1.88 1.88 0 0 1-.44.64 2.38 2.38 0 0 1-.7.44 2.4 2.4 0 0 1-.95.16 2.07 2.07 0 0 1-.57-.07 5.48 5.48 0 0 1-.48-.14l-.4-.14a1.47 1.47 0 0 0-.34-.07c-.1 0-.18.02-.23.06s-.08.1-.1.13h-.16v-1.97zm13.23 2.05l-2.27-.01v-1.4h-.03a5.33 5.33 0 0 1-.31.57c-.12.2-.27.36-.44.52a2.45 2.45 0 0 1-.6.38c-.22.1-.5.15-.8.14a2.9 2.9 0 0 1-.92-.13c-.23-.1-.42-.18-.55-.27-.07-.05-.14-.1-.22-.18s-.15-.17-.22-.3-.12-.28-.17-.47-.07-.43-.07-.7l.02-4-1.1-.01v-.2l2.3.01-.03 4.33c0 .24.01.47.05.68.03.2.1.4.2.54.1.16.2.28.36.37s.35.14.6.14c.2 0 .42-.06.64-.18a2.09 2.09 0 0 0 .61-.52 2.86 2.86 0 0 0 .46-.81 2.9 2.9 0 0 0 .2-1.06l.02-3.27-1.07-.01v-.2l2.28.01-.03 5.85 1.1.01.03.2zm.72-.2l1.1.01.03-5.65-1.1-.01v-.2l2.27.01-.01 1.42H75c.04-.14.1-.3.2-.48a1.9 1.9 0 0 1 .36-.51 1.93 1.93 0 0 1 .55-.41c.2-.1.47-.17.77-.16.22 0 .4.04.56.1a1.13 1.13 0 0 1 .39.27.87.87 0 0 1 .22.37c.05.14.07.28.07.42 0 .3-.07.52-.22.62a.86.86 0 0 1-.49.15c-.4 0-.62-.13-.62-.4 0-.08.01-.15.03-.2l.06-.15c.02-.05.05-.1.06-.18.02-.07.03-.16.03-.28 0-.3-.16-.45-.5-.45-.15 0-.3.05-.48.17a1.87 1.87 0 0 0-.48.49c-.15.22-.27.48-.37.78S75 26 75 26.4l-.02 3.23 1.23.01v.2l-3.52-.02v-.2zm12.1.1a2.02 2.02 0 0 1-.44.24c-.17.07-.38.1-.62.1-.45 0-.78-.1-.98-.3a1.45 1.45 0 0 1-.4-.8h-.03l-.16.32c-.07.13-.17.25-.3.36a1.72 1.72 0 0 1-.54.29c-.23.08-.5.12-.86.1-.4 0-.7-.05-.94-.14s-.42-.2-.55-.33-.22-.28-.26-.45-.06-.32-.06-.46c0-.33.07-.6.2-.8a1.47 1.47 0 0 1 .52-.47c.2-.12.45-.2.7-.3l.78-.23.77-.26c.2-.07.36-.16.47-.27a.83.83 0 0 0 .23-.41c.04-.16.07-.4.07-.67a3.54 3.54 0 0 0-.04-.6c-.03-.17-.08-.33-.15-.46a.75.75 0 0 0-.32-.29c-.14-.07-.33-.1-.56-.1-.3 0-.57.05-.77.16s-.3.28-.3.53a2.42 2.42 0 0 0 .04.47c.03.16.04.27.04.35 0 .13-.05.24-.14.33s-.23.13-.4.13c-.3 0-.5-.06-.58-.17-.07-.1-.1-.26-.1-.44a1.46 1.46 0 0 1 .14-.6c.1-.2.23-.35.42-.5a2.12 2.12 0 0 1 .69-.34c.28-.08.6-.12.95-.12.43 0 .8.06 1.08.17a1.95 1.95 0 0 1 .7.44 1.68 1.68 0 0 1 .38.62 2.48 2.48 0 0 1 .11.73l-.02 3.5c0 .27.04.46.12.55s.2.14.37.14a1.25 1.25 0 0 0 .32-.05 2.08 2.08 0 0 0 .33-.17l.13.17zm-2.45-3.3h-.03c-.02.12-.18.24-.47.36l-1.06.42c-.3.12-.53.3-.7.5s-.24.5-.24.82a2.25 2.25 0 0 0 .04.44c.03.15.08.28.15.4s.18.2.32.3c.13.08.3.1.53.12.3 0 .56-.06.75-.2s.34-.3.44-.5.17-.4.2-.64a4.97 4.97 0 0 0 .05-.63l.01-1.4zm2.84 3.26h1.1l.03-5.65-1.1-.01v-.2l2.27.01-.01 1.5h.03l.25-.46c.1-.2.26-.37.45-.55s.43-.33.7-.45c.28-.13.63-.2 1.03-.18.62 0 1.12.16 1.5.46s.58.78.58 1.44v4.14l1.1.01v.2l-3.38-.02v-.2l1.1.01.03-4.55c0-.37-.08-.67-.26-.9-.17-.24-.44-.36-.8-.36-.3 0-.6.06-.86.2a2.23 2.23 0 0 0-.72.55 2.82 2.82 0 0 0-.5.83c-.13.33-.18.67-.18 1.04v3.2l1.1.01v.2l-3.38-.02-.03-.23zm14.56-1.26c-.03.1-.08.25-.17.44a2.3 2.3 0 0 1-.38.58c-.18.2-.4.36-.7.5s-.68.2-1.15.2c-.36 0-.73-.06-1.1-.18-.4-.12-.74-.3-1.05-.55-.32-.25-.58-.58-.78-.98s-.3-.9-.3-1.5a3.15 3.15 0 0 1 .27-1.28 3.3 3.3 0 0 1 .7-1.03 3.22 3.22 0 0 1 1.05-.68c.4-.16.83-.24 1.28-.24a3.09 3.09 0 0 1 .78.1c.27.06.5.16.73.3s.4.3.55.5a1.13 1.13 0 0 1 .2.74c0 .2-.07.36-.2.5s-.3.2-.54.2a1.27 1.27 0 0 1-.46-.1c-.16-.06-.22-.2-.22-.36 0-.13.03-.3.1-.48a1.32 1.32 0 0 0 .1-.46c0-.22-.1-.38-.32-.5s-.46-.18-.75-.18a2.85 2.85 0 0 0-.64.07 1.16 1.16 0 0 0-.6.38c-.18.2-.34.52-.46.93s-.18.98-.2 1.7a8.31 8.31 0 0 0 .07 1.14c.05.36.14.67.28.94a1.58 1.58 0 0 0 .56.64c.24.16.55.24.94.24.4 0 .75-.06 1.02-.18s.48-.27.64-.44a1.87 1.87 0 0 0 .35-.53l.17-.44.2.05zm2.57-1.94v.3c-.01.1-.01.22-.01.37a8.19 8.19 0 0 0 .05.97 3.27 3.27 0 0 0 .24.92 1.67 1.67 0 0 0 .56.68c.26.18.58.27 1 .27s.75-.06 1.02-.18.48-.27.64-.44a1.87 1.87 0 0 0 .35-.53l.17-.44.2.04c-.03.1-.08.25-.17.44a2.3 2.3 0 0 1-.38.58c-.18.2-.4.36-.7.5s-.68.2-1.15.2a3.66 3.66 0 0 1-1.3-.23c-.4-.15-.74-.37-1.03-.65s-.5-.62-.67-1-.23-.83-.23-1.3c0-.4.1-.8.25-1.2a3.42 3.42 0 0 1 .68-1.03 3.45 3.45 0 0 1 1.01-.72c.4-.18.8-.27 1.24-.27.26 0 .54.05.84.15s.58.25.84.46.47.5.64.84.26.78.25 1.3l-4.32-.01zm2.9-.18c.02-.13.03-.25.03-.37v-.35a2.91 2.91 0 0 0-.09-.79 1.38 1.38 0 0 0-.25-.5c-.1-.13-.24-.2-.4-.26a1.59 1.59 0 0 0-.5-.08c-.32 0-.58.06-.8.2a1.59 1.59 0 0 0-.5.5c-.12.22-.22.46-.28.75a7.93 7.93 0 0 0-.13.89h2.9z" fill="#2f2f2f"/><defs><circle id="K" cx="14.53" cy="20.37" r="9.42"/></defs><clipPath id="L"><use xlink:href="#K"/></clipPath><path d="M5.1 10.95h.12V29.8H5.1z" class="D CB"/><path d="M5.23 10.95h.12V29.8h-.12z" class="D CC"/><path d="M5.35 10.95h.12V29.8h-.12z" class="D Aq"/><path d="M5.47 10.95h.12V29.8h-.12z" class="D Ar"/><path d="M5.6 10.95h.12V29.8H5.6z" class="D As"/><path d="M5.7 10.95h.12V29.8H5.7z" class="D Aa"/><path d="M5.83 10.95h.12V29.8h-.12z" class="D Ab"/><path d="M5.95 10.95h.12V29.8h-.12z" class="D Ac"/><path d="M6.07 10.95h.12V29.8h-.12z" class="D Ad"/><path d="M6.2 10.95h.12V29.8H6.2z" class="D Ae"/><path d="M6.3 10.95h.12V29.8H6.3z" class="D Af"/><path d="M6.43 10.95h.12V29.8h-.12z" class="D Ag"/><path d="M6.55 10.95h.12V29.8h-.12z" class="D Ah"/><path d="M6.68 10.95h.12V29.8h-.12z" class="D Ai"/><path d="M6.8 10.95h.12V29.8H6.8z" class="D Aj"/><path d="M6.92 10.95h.12V29.8h-.12z" class="D Ak"/><path d="M7.04 10.95h.12V29.8h-.12z" class="D Al"/><path d="M7.16 10.95h.12V29.8h-.12z" class="D Am"/><path d="M7.28 10.95h.12V29.8h-.12z" class="D S"/><path d="M7.4 10.95h.12V29.8H7.4z" class="D T"/><path d="M7.52 10.95h.12V29.8h-.12z" class="D U"/><path d="M7.64 10.95h.12V29.8h-.12z" class="D V"/><path d="M7.76 10.95h.12V29.8h-.12z" class="D W"/><path d="M7.88 10.95H8V29.8h-.12z" class="D X"/><path d="M8 10.95h.12V29.8H8z" class="D Y"/><path d="M8.12 10.95h.12V29.8h-.12z" class="D Z"/><path d="M8.24 10.95h.12V29.8h-.12z" class="D a"/><path d="M8.36 10.95h.12V29.8h-.12z" class="D b"/><path d="M8.48 10.95h.12V29.8h-.12z" class="D c"/><path d="M8.6 10.95h.12V29.8H8.6z" class="D d"/><path d="M8.72 10.95h.12V29.8h-.12z" class="D e"/><path d="M8.84 10.95h.12V29.8h-.12z" class="D f"/><path d="M8.96 10.95h.12V29.8h-.12z" class="D g"/><path d="M9.08 10.95h.12V29.8h-.12z" class="D h"/><path d="M9.2 10.95h.12V29.8H9.2z" class="D i"/><path d="M9.32 10.95h.12V29.8h-.12z" class="D j"/><path d="M9.44 10.95h.12V29.8h-.12z" class="D J"/><path d="M9.56 10.95h.12V29.8h-.12z" class="D K"/><path d="M9.68 10.95h.12V29.8h-.12z" class="D L"/><path d="M9.8 10.95h.12V29.8H9.8z" class="D M"/><path d="M9.93 10.95h.12V29.8h-.12z" class="D N"/><path d="M10.05 10.95h.12V29.8h-.12z" class="D O"/><path d="M10.17 10.95h.12V29.8h-.12z" class="D P"/><path d="M10.3 10.95h.12V29.8h-.12z" class="D Q"/><path d="M10.4 10.95h.12V29.8h-.12z" class="D R"/><path d="M10.53 10.95h.12V29.8h-.12z" class="D k"/><path d="M10.65 10.95h.12V29.8h-.12z" class="D l"/><path d="M10.77 10.95h.12V29.8h-.12z" class="D m"/><path d="M10.9 10.95H11V29.8h-.12z" class="D n"/><path d="M11 10.95h.12V29.8H11z" class="D o"/><path d="M11.13 10.95h.12V29.8h-.12z" class="D p"/><path d="M11.25 10.95h.12V29.8h-.12z" class="D q"/><path d="M11.37 10.95h.12V29.8h-.12z" class="D r"/><path d="M11.5 10.95h.12V29.8h-.12z" class="D s"/><path d="M11.6 10.95h.12V29.8h-.12z" class="D t"/><path d="M11.73 10.95h.12V29.8h-.12z" class="D u"/><path d="M11.85 10.95h.12V29.8h-.12z" class="D v"/><path d="M11.97 10.95h.12V29.8h-.12z" class="D w"/><path d="M12.1 10.95h.12V29.8h-.12z" class="D x"/><path d="M12.2 10.95h.12V29.8h-.12z" class="D y"/><path d="M12.33 10.95h.12V29.8h-.12z" class="D z"/><path d="M12.45 10.95h.12V29.8h-.12z" class="D AA"/><path d="M12.57 10.95h.12V29.8h-.12z" class="D AB"/><path d="M12.7 10.95h.12V29.8h-.12z" class="D AC"/><path d="M12.8 10.95h.12V29.8h-.12z" class="D AD"/><path d="M12.94 10.95h.12V29.8h-.12z" class="D AE"/><path d="M13.06 10.95h.12V29.8h-.12z" class="D AF"/><path d="M13.18 10.95h.12V29.8h-.12z" class="D AG"/><path d="M13.3 10.95h.12V29.8h-.12z" class="D AH"/><path d="M13.42 10.95h.12V29.8h-.12z" class="D AI"/><path d="M13.54 10.95h.12V29.8h-.12z" class="D AJ"/><path d="M13.66 10.95h.12V29.8h-.12z" class="D AK"/><path d="M13.78 10.95h.12V29.8h-.12z" class="D AL"/><path d="M13.9 10.95h.12V29.8h-.12z" class="D AM"/><path d="M14.02 10.95h.12V29.8h-.12z" class="D AN"/><path d="M14.14 10.95h.12V29.8h-.12z" class="D AO"/><path d="M14.26 10.95h.12V29.8h-.12z" class="D AP"/><path d="M14.38 10.95h.12V29.8h-.12z" class="D AQ"/><path d="M14.5 10.95h.12V29.8h-.12z" class="D AR"/><path d="M14.62 10.95h.12V29.8h-.12z" class="D AS"/><path d="M14.74 10.95h.12V29.8h-.12z" class="D AT"/><path d="M14.86 10.95h.12V29.8h-.12z" class="D AU"/><path d="M14.98 10.95h.12V29.8h-.12z" class="D AV"/><path d="M15.1 10.95h.12V29.8h-.12z" class="D AW"/><path d="M15.22 10.95h.12V29.8h-.12z" class="D AX"/><path d="M15.34 10.95h.12V29.8h-.12z" class="D AY"/><g class="AZ"><path d="M15.46 10.95h.12V29.8h-.12z" class="D"/><path d="M15.58 10.95h.13V29.8h-.13z" class="D"/></g><path d="M15.7 10.95h.13V29.8h-.13z" class="D An"/><path d="M15.85 10.95h.13V29.8h-.13z" class="D Ao"/><path d="M15.98 10.95h.13V29.8h-.13z" class="D Ap"/><path d="M16.1 10.95h.13V29.8h-.13z" class="D At"/><path d="M16.24 10.95h.13V29.8h-.13z" class="D Au"/><path d="M16.37 10.95h.13V29.8h-.13z" class="D Av"/><path d="M16.5 10.95h.13V29.8h-.13z" class="D Aw"/><path d="M16.63 10.95h.13V29.8h-.13z" class="D Ax"/><path d="M16.76 10.95h.13V29.8h-.13z" class="D Ay"/><path d="M16.9 10.95h.13V29.8h-.13z" class="D Az"/><path d="M17.02 10.95h.13V29.8h-.13z" class="D BA"/><path d="M17.15 10.95h.13V29.8h-.13z" class="D BB"/><path d="M17.28 10.95h.13V29.8h-.13z" class="D BC"/><path d="M17.4 10.95h.13V29.8h-.13z" class="D BD"/><path d="M17.55 10.95h.13V29.8h-.13z" class="D BE"/><path d="M17.68 10.95h.13V29.8h-.13z" class="D BF"/><path d="M17.8 10.95h.13V29.8h-.13z" class="D BG"/><path d="M17.94 10.95h.13V29.8h-.13z" class="D BH"/><path d="M18.07 10.95h.13V29.8h-.13z" class="D BI"/><path d="M18.2 10.95h.13V29.8h-.13z" class="D BJ"/><path d="M18.33 10.95h.13V29.8h-.13z" class="D BK"/><path d="M18.46 10.95h.13V29.8h-.13z" class="D BL"/><path d="M18.6 10.95h.13V29.8h-.13z" class="D BM"/><path d="M18.72 10.95h.13V29.8h-.13z" class="D BN"/><path d="M18.85 10.95h.13V29.8h-.13z" class="D BO"/><path d="M18.98 10.95h.13V29.8h-.13z" class="D BP"/><path d="M19.1 10.95h.13V29.8h-.13z" class="D BQ"/><path d="M19.25 10.95h.13V29.8h-.13z" class="D BR"/><path d="M19.38 10.95h.13V29.8h-.13z" class="D BS"/><path d="M19.5 10.95h.13V29.8h-.13z" class="D BT"/><path d="M19.64 10.95h.13V29.8h-.13z" class="D BU"/><path d="M19.77 10.95h.13V29.8h-.13z" class="D BV"/><path d="M19.9 10.95h.13V29.8h-.13z" class="D BW"/><path d="M20.03 10.95h.13V29.8h-.13z" class="D BX"/><path d="M20.16 10.95h.13V29.8h-.13z" class="D BY"/><path d="M20.3 10.95h.13V29.8h-.13z" class="D BZ"/><path d="M20.42 10.95h.13V29.8h-.13z" class="D Ba"/><path d="M20.55 10.95h.13V29.8h-.13z" class="D Bb"/><path d="M20.68 10.95h.13V29.8h-.13z" class="D Bc"/><path d="M20.8 10.95h.13V29.8h-.13z" class="D Bd"/><path d="M20.94 10.95h.13V29.8h-.13z" class="D Be"/><path d="M21.08 10.95h.13V29.8h-.13z" class="D Bf"/><path d="M21.2 10.95h.13V29.8h-.13z" class="D Bg"/><path d="M21.34 10.95h.13V29.8h-.13z" class="D Bh"/><path d="M21.47 10.95h.13V29.8h-.13z" class="D Bi"/><path d="M21.6 10.95h.13V29.8h-.13z" class="D Bj"/><path d="M21.73 10.95h.13V29.8h-.13z" class="D Bk"/><path d="M21.86 10.95H22V29.8h-.13z" class="D Bl"/><path d="M22 10.95h.13V29.8H22z" class="D Bm"/><path d="M22.12 10.95h.13V29.8h-.13z" class="D Bn"/><path d="M22.25 10.95h.13V29.8h-.13z" class="D Bo"/><path d="M22.38 10.95h.13V29.8h-.13z" class="D Bp"/><path d="M22.5 10.95h.13V29.8h-.13z" class="D Bq"/><path d="M22.64 10.95h.13V29.8h-.13z" class="D Br"/><path d="M22.78 10.95h.13V29.8h-.13z" class="D Bs"/><path d="M22.9 10.95h.13V29.8h-.13z" class="D Bt"/><path d="M23.04 10.95h.13V29.8h-.13z" class="D Bu"/><path d="M23.17 10.95h.13V29.8h-.13z" class="D Bv"/><path d="M23.3 10.95h.13V29.8h-.13z" class="D Bw"/><path d="M23.43 10.95h.13V29.8h-.13z" class="D Bx"/><path d="M23.56 10.95h.13V29.8h-.13z" class="D By"/><path d="M23.7 10.95h.13V29.8h-.13z" class="D Bz"/><path d="M23.82 10.95h.13V29.8h-.13z" class="D CA"/><g fill="#b70000"><path d="M15.4 28.7c.01-.02 0-.02-.01-.02h-.1a.92.92 0 0 0-.23.02c-.02.01-.04.01-.05.01-.02 0-.04-.01-.06-.02-.03-.01-.05-.02-.06-.01s-.01.03-.01.04c0 .02.01.03.01.04s.01.02 0 .02h-.04c-.03 0-.04 0-.05.01 0 .01.01.02.03.04.06.04.1.01.17-.02h0c-.02.03-.03.04-.03.05.02.01.04.01.07 0 .06-.02.08-.03.1-.04s.02-.02.08-.02h.1c.03 0 .05 0 .06-.01.01-.02-.01-.03-.02-.05-.01-.01-.02-.02-.03-.04.01.02.01.01.05 0zm-3.28-11.37c-.03.02-.05.03-.04.04.02.01.04.01.06.01h.07c.08 0 .2-.01.37 0 .22 0 .23 0 .23-.02 0-.01-.01-.02-.03-.03-.01-.01-.03-.02-.04-.03-.02-.03-.05-.04-.08-.05s-.06-.02-.1-.05-.03-.04-.04-.05c-.01-.02-.02-.02-.05-.02s-.07-.02-.12-.04c-.03-.02-.06-.03-.1-.05-.03-.01-.05-.01-.06-.02-.03-.01-.04-.01-.1-.07l-.03-.03c-.03-.03-.03-.03-.07-.03-.02 0-.06 0-.13-.01-.14-.02-.14-.04-.14-.04l.02-.01-.28-.06-.24.03c-.02 0-.24.03-.27.08v.01c-.03.04-.04.06-.1.07-.02.01-.03.01-.03.03 0 .03.06.04.07.04h0c.06.01.07.01.14-.07.04-.04.05-.04.07-.04s.05 0 .1-.01c.07-.02.08-.03.1-.04 0 0 .01-.01.03-.01.05-.01.08.01.08.02-.04.02-.05.02-.05.04 0 .01.02.02.1.04.03.01.05.01.06.02.02.01.02.01.05 0h.03c.04 0 .05 0 .07.02.01.01.03.02.06.03.02.01.04.01.05.02a.37.37 0 0 0 .14.02H12v.06c.02.07.04.08.18.12.03.01.03.02.03.02.01.02-.03.05-.06.06z"/><path d="M14.33 17.74c-.01-.01-.02-.01-.03-.01s-.01-.01-.02-.01-.02 0-.05-.01c-.05-.01-.06-.01-.07-.01h-.04c-.05 0-.07.02-.08.03-.01.02-.01.04 0 .06s.04.03.06.03c.05 0 .05 0 .06.01s.02.02.05.04c.02.02.04.02.05.02.02 0 .02-.02.02-.03s0-.02.01-.02.03-.01.05-.02c.1-.02.1-.02.1-.03v-.01h-.01s-.01 0-.02-.01a.26.26 0 0 1-.07-.03zm-2.18-1.1c.01.02.01.03.04.03s.05-.01.06-.02c.02-.02.02-.04.02-.08-.01-.06-.05-.15-.1-.18-.01-.01-.02-.01-.04-.01-.03.01-.06 0-.08 0-.03 0-.05 0-.06.01-.01.02 0 .04.06.1.07.08.1.12.1.14zm.55-4.93h.03c.01 0 .02 0 .04-.01.01 0 .03-.01.05-.01v-.03h.02c.01.1.03.1.04.1a.49.49 0 0 0 .11.01H13v.02c0-.01.01-.05.01-.08h.1l-.03.07h.01s.03.01.05.01c.01 0 .03 0 .04-.01h0c.02-.02.01-.06 0-.07h.04l-.06-.03c0-.01.01-.02.01-.02 0-.02-.01-.03-.02-.03-.02-.01-.04.01-.05.02h-.02c-.03-.02-.04-.03-.06-.04-.08-.03-.12-.03-.16.05-.1 0-.1 0-.12.01-.03.01-.04.02-.04.03s.01.01.02.01zm3.33 1.38h0zm.47-1.2c.01.02.03.01.07.02h.06c-.02 0-.04-.01-.07-.01s-.05-.01-.06-.01zm1.1-.2l.3.03c.06 0 .1.02.13.03.02.01.04.01.06.01.01 0 .03 0 .04-.01l.02-.01-.02-.01c-.01-.01-.3-.16-.36-.17s-.2 0-.2 0h-.01l.05.13zm1.98.95h-.01v.01z"/><path d="M19.85 12.97l.03.02s.1 0 .12-.02c.02-.03.05-.08.01-.14-.02-.03-.13-.1-.22-.14l-.16-.1c-.03 0-.05.02-.05.03-.01 0-.01.01-.01.02l.08.2.2.1zm1.2 4.9c-.03-.02-.07 0-.07 0h0c-.01.02-.02.04-.01.05 0 .01.02.02.03.03s.02.01.03.01c.02 0 .03-.01.03-.01-.01-.01.02-.06-.01-.08z"/><path d="M21.18 17.97l-.07-.05h-.01c-.03.02-.04.03-.04.04s.01.02.01.02c.02.01.05.03.05.03h.01l.05-.04z"/><path d="M21.23 17.94l.05-.02-.05-.07h-.01c-.05.03-.04.05-.04.05h0l.05.04z"/><path d="M21.26 17.97c-.04.02-.04.05-.04.06v.01l.06.04.05-.03-.07-.08z"/><path d="M21.23 18.1c-.01.01-.02.02-.02.03s.01.02.02.03.01.02.02.02c0 .01.01.02.02.02s.02-.01.02-.01l.03-.03-.1-.06z"/><path d="M21.2 18.15h0c-.01-.01-.02-.01-.06.01h-.01v.01c.01.03.02.05.04.05h.05v-.01c0-.02-.01-.05-.02-.06zm-.2.02l.07.06.03-.06-.05-.06zm-3.4 10.7c-.01-.02-.01-.03-.05-.03-.07-.01-.15-.01-.15-.01h0c-.02 0-.03.01-.04.03s0 .05 0 .05h0l.07.05a.28.28 0 0 0 .12.04c.01 0 .02 0 .03-.01s.02 0 .04 0 .03 0 .04-.01 0-.03-.02-.06c-.04-.02-.04-.04-.04-.05zm-4.37-10.98c.05-.01.07-.04.1-.07.02-.02.04-.05.06-.07s.03-.01.05-.01c.02.01.05.02.1 0 .03-.01.04-.02.05-.02.03.01.05.02.1.05.07.03.1.05.12.04s.02-.02.03-.05c0-.01.01-.02.02-.03.01-.02.01-.03 0-.05-.01-.04-.08-.07-.15-.1l-.12-.06c-.02-.01-.03-.02-.05-.03-.06-.04-.08-.05-.25-.08-.1-.01-.13 0-.14.01 0 0-.01-.01-.02-.01h-.01c-.08-.05-.1-.04-.2-.02-.01 0-.03.01-.05.02-.04.01-.04.03-.04.04 0 .03.07.05.12.05.03 0 .05 0 .05.01v.06c0 .03-.01.03-.05.04-.01 0-.02.01-.04.01-.01 0-.02.01-.03.01-.04.02-.1.04-.23.05-.05 0-.08.01-.08.03 0 .03.05.05.08.06 0 0 .1.03.25.02.06 0 .1-.01.1-.02.03-.01.04-.01.12.01h.01c.03.01.05.02.05.04.01.01 0 .03 0 .04.03.01.02.02.03.03zm10.57.97h0l-.03-.2c-.14-.8-.4-1.58-.74-2.32-.2-.42-.43-.84-.7-1.23l-.13-.14v-.01l-.08-.03c-.1-.04-.13-.06-.18-.02-.06.05-.1.1-.1.13-.03 0-.05.01-.07.01-.01 0-.03.01-.03 0-.01-.01-.02-.04-.03-.06-.01-.01-.01-.03-.02-.04.01.01.02.03.03.03s.02-.02.02-.07.01-.08.02-.1c.01-.03.01-.04-.02-.1-.02-.03-.04-.06-.05-.1a.36.36 0 0 0-.07-.1c-.01-.02-.03-.03-.04-.05-.03-.03-.06-.06-.06-.12 0-.1 0-.1.01-.17s-.7-.7-.84-.83v.01c-.08 0-.16-.05-.2-.07-.03-.01-.03-.02-.04-.01s-.01.01.07.07l.2.18.15.14c.1.08.27.23.26.28-.02.02-.1.01-.15-.01-.08-.02-.12-.03-.14-.01 0 0-.01.01 0 .03.01.03.06.07.12.1.08.06.18.14.18.2 0 .13.08.25.08.26a.58.58 0 0 0 .1.12l.05.05c.07.06.2.17.26.2-.01.01-.02.03-.01.05 0 .03.02.07.04.12.02.04.05.1.04.13-.02.06-.02.1-.02.17v.04c0 .08.07.3.08.34l.01.02.02.01c.01 0 .07.02.05.1l-.02.1c-.01.03-.01.05-.02.1-.03.01-.06.03-.07.08l-.01.05h.05a1.44 1.44 0 0 1 .3.04c.02.01.05.05.1.1-.01.03-.02.07-.02.1s0 .04-.01.04c-.01-.01-.03-.02-.05-.04-.06-.05-.1-.08-.15-.05s-.02.08-.01.1c.02.05.04.08.06.1.04.07.04.08.03.1s-.02 0-.02 0c-.02-.02-.04-.02-.06 0-.03.02-.02.04 0 .12l.06.15c.02.04.05.1.05.13-.02 0-.07-.01-.12-.01a1.64 1.64 0 0 0-.23-.02h-.06v.06c.05.12.06.15.1.2.01.01.01.01 0 .03-.01.04-.01.1.04.17.07.1.06.2.06.25h0a.53.53 0 0 0 .02.16c.01.02.01.03.02.05.02.04 0 .07-.02.1-.01.02-.02.04-.02.06-.01.04 0 .05.02.1.01.01.02.04.05.07.03.05.06.08.07.1s.01.02 0 .05c-.05.13 0 .2.07.27.03.03.05.04.07.05v.03c0 .05.03.1.07.14.02.02.04.03.05.03h.01c.1.1.12.17.12.2-.01.1.07.3.23.5h.01c.06.08.1.17.14.23.05.1.08.16.14.17.05 0 .08-.03.1-.04.08-.08.16-.12.2-.13.02-.01.03-.01.04-.02l.03-.03c.01-.02.01-.02.04-.02.04 0 .08-.01.1-.04s.02-.06.02-.08c-.01-.04.02-.08.04-.1h.01c.01 0 .02.02.03.07v.1c0 .04 0 .07.02.1s.04.02.06.02h.06s.01.03.02.08v.06h.04c.02 0 .03-.02.04-.07h0c.02-.13.04-.4.1-1.14h0zm-.55-.15l-.02-.02c0-.06-.02-.13-.03-.2.02.02.04.05.05.1l.01.02c.01.02.01.04.02.06-.02.01-.03.03-.03.04z"/><path d="M20.15 22.05c-.01-.17-.16-.16-.24-.16h-.01c-.1 0-.1 0-.27-.15-.2-.17-.3-.2-.4-.18h-.05c-.04 0-.1.01-.14 0-.01-.02-.03-.03-.05-.03-.03 0-.06.01-.08.04-.01 0-.03-.02-.05-.03s-.04-.02-.07-.04c-.1-.05-.14-.04-.2.02l-.03.03c-.01.01-.02.02-.04.03 0-.01.01-.02.01-.03.04-.08 0-.13-.02-.16l-.01-.01c-.03-.05-.1-.05-.15-.05 0-.02 0-.04-.02-.06-.02-.03-.06-.04-.13-.05-.05-.01-.1-.03-.17-.05-.12-.05-.17-.04-.23 0 .01-.03.02-.05 0-.07s-.05-.02-.06-.02h-.06c-.06-.01-.12-.05-.18-.1-.01-.01-.03-.02-.04-.03s-.02-.01-.02-.01c0-.01.01-.01.01-.02.04-.06.07-.1.07-.14 0-.03-.01-.05-.02-.05-.02-.02-.05-.01-.07 0s-.06-.04-.1-.16l-.03-.1c-.03-.1-.05-.18-.15-.2-.01 0-.03 0-.04-.01h-.03c0-.03 0-.05-.03-.07-.02-.01-.03-.02-.03-.02h0c0-.01-.01-.02-.03-.05-.04-.06-.06-.08-.1-.1s-.07-.02-.1-.03h0l-.05-.03c-.02-.01-.04-.02-.07-.03-.06-.03-.1-.03-.14-.02-.01 0-.01.01-.02.01-.05-.01-.14-.01-.2.05-.01.01-.02.01-.03 0-.03-.01-.07-.03-.13-.03h-.07c0-.01-.01-.03-.02-.04-.04-.06-.16-.1-.25-.1 0-.01.01-.02.01-.03.01-.04 0-.07-.03-.1-.01-.01-.02-.01-.03-.03-.04-.04-.08-.06-.13-.08-.01-.01-.02-.01-.04-.02-.01-.01-.03-.01-.04-.02-.05-.03-.08-.03-.1-.04-.01 0-.01-.01-.01-.03 0-.01-.01-.03-.02-.05v-.02c-.03-.07-.1-.1-.15-.1h-.03-.05l-.14-.04s-.01-.02-.01-.03c-.01-.04-.01-.06-.03-.1-.03-.06-.07-.05-.1-.04s-.06.01-.13.01c-.12-.01-.14-.01-.16.02-.02.02-.01.04-.01.05v.02l-.05.03-.01.01c-.06.03-.06.03-.1.02l-.03-.01c-.05-.01-.1-.06-.14-.1-.01-.01-.03-.02-.04-.03-.06-.05-.1-.02-.13.01-.01.01-.02.02-.04.02-.05.03-.07.03-.16.02-.02 0-.02-.01-.02-.01 0-.02.01-.04.01-.06.01-.1-.1-.12-.25-.14l-.06-.01c-.13-.02-.17.01-.2.05-.02.01-.03.03-.06.03-.02 0-.04.01-.05.01-.02 0-.04 0-.05.01 0-.01-.01-.01-.01-.02-.01-.03-.01-.03-.02-.05.01 0 .02 0 .03-.01.06-.02.07-.04.1-.1 0-.01.01-.02.01-.03.02-.05 0-.07-.01-.08-.04-.04-.1-.03-.2 0-.06.02-.08.05-.1.08-.02-.01-.04-.01-.07 0-.03.02-.04.06-.05.1 0 .01-.01.02-.01.03-.01.01-.03 0-.04 0-.05-.02-.12-.05-.15 0 0 .01-.01.01-.01.02-.06-.01-.08 0-.1.02-.01.01-.03.02-.05.03-.1.05-.1.18-.1.3-.03-.01-.08-.01-.1.06-.01.02-.03.03-.05.03-.03.01-.07.02-.08.07-.01-.01-.02-.03-.04-.04-.02-.02-.04-.03-.06-.04s-.04-.02-.07-.07c-.07-.1-.2-.06-.3-.04-.03.01-.07.02-.1.02-.08.01-.13.03-.18.05l-.08.03c-.05.01-.05 0-.07-.05l-.01-.01c-.01-.02-.03-.06-.07-.05-.01 0-.01 0-.02.01 0-.01 0-.02-.01-.03-.01-.02-.04-.03-.05-.03h-.01c-.01 0-.01 0-.02-.01-.02-.01-.03-.02-.04-.05l-.01-.02c-.02-.02-.02-.03-.04-.08l-.03-.1-.04-.1.01-.02c.01-.01.03-.02.04-.05 0-.02-.01-.04-.01-.05s-.01-.01-.01-.03c.01-.01.03-.02.05-.04.06-.04.04-.1.03-.13-.01-.01-.01-.03-.01-.04.01-.03.01-.04.02-.06.01-.03.02-.04.03-.06.01-.01.02-.03.03-.05.02-.03.02-.07 0-.1-.01-.01-.01-.02-.02-.02.02-.02.05-.04.04-.08-.01-.03-.05-.04-.06-.04s-.03-.01-.06-.04l-.03-.02c-.03-.02-.07-.03-.1-.03-.02 0-.03-.01-.04-.01-.03-.04-.08-.03-.1-.02-.01 0-.03.01-.03.01-.05-.04-.08-.02-.1 0-.01.01-.03.01-.05.02-.05.02-.12 0-.18-.03-.05-.02-.08-.01-.1 0-.02-.01-.03-.02-.06-.01.02-.01.03-.02.05-.04.07-.06.07-.12.07-.17v-.04c0-.03 0-.03.03-.04.01 0 .01 0 .02-.01.03-.01.04-.03.04-.07 0-.01.01-.04.05-.1.07-.1.1-.12.06-.15 0-.05.01-.07.02-.1.01-.01.03-.03.05-.06.03-.03.07-.07.1-.1.01-.02.05-.07.02-.1-.02-.03-.08-.02-.1-.02-.03 0-.06.01-.08.02-.01 0-.02.01-.02 0-.05-.05-.15-.04-.27-.02-.02 0-.04.01-.06.01-.13.02-.15.1-.17.2s-.07.2-.1.24c-.02.03-.04.05-.2.06-.07 0-.1.01-.1.03h0c-.07.01-.07.01-.15.05l-.04.02c-.03.02-.04.01-.04.01-.01 0-.02-.03-.02-.04-.01-.01-.01-.03-.02-.04-.03-.05-.08-.05-.1-.04h-.04c-.02-.02-.02-.04-.01-.08 0-.02.01-.04.01-.06 0-.04-.02-.07-.04-.1s-.03-.04-.03-.08-.01-.08-.01-.1c-.01-.04-.02-.1-.02-.17 0-.1 0-.1.02-.14l.05-.1c.04-.1.05-.13.05-.15s0-.02.02-.04.04-.05.04-.08c.01-.04.01-.08.01-.1v-.04c0-.03.01-.03.02-.04.04-.05.04-.06.04-.13 0-.02 0-.03.03-.05l.04-.03c.02-.02.03-.03.04-.03.02-.01.03-.02.05-.05h.05c.04 0 .07 0 .1-.04h.04c.04-.01.07-.02.08-.06v-.05c.03-.01.06-.01.13-.03.03-.01.04-.02.05-.02.01.01.02.02.04.03.06.03.1.03.13.01.01 0 .02-.01.03-.02.01.02.02.03.05.04h.01c.03 0 .03.01.08.02.06.03.1.01.13-.02l.02.02c.04.03.07.01.07 0 .04-.04 0-.1-.02-.14.01-.02.02-.04.02-.07.01 0 .03 0 .05.01.04 0 .07 0 .1-.01 0 .01.01.02.02.02.02.01.05 0 .07-.01s.04-.02.08-.03c.03-.01.05-.01.06-.02s.01 0 .1.03c.04.01.03.02.03.02-.01.06.04.1.1.1.1.02.13 0 .16-.03.01-.01.02-.02.03-.02.04 0 .04 0 .06.03 0 .01.01.02.02.03.02.04.06.05.08.06s.02.01.03.03c0 .03 0 .04-.01.06s-.03.04-.03.08c0 .05 0 .14.04.2.01.01.02.01.03.02 0 .01 0 .03.02.05 0 .01.01.02.02.04.07.12.1.15.13.16s.1.03.18-.05c.1-.1.1-.27.03-.35-.02-.02-.02-.03-.01-.05.01-.01.01-.03.02-.05.01-.05 0-.07-.02-.1-.01-.01-.02-.03-.03-.05-.03-.06-.03-.1-.04-.15v-.02c0-.02-.01-.04-.02-.05 0-.01 0-.02.01-.03.01-.02.03-.05.04-.07.02-.04.05-.08.07-.1.02-.02.04-.03.06-.04s.06-.03.1-.07c.08-.05.12-.08.15-.1.02-.01.03-.03.05-.04.03-.02.06-.03.1-.03.04-.01.07-.01.1-.05 0 0 .02-.01.03-.01.02-.01.04-.01.07-.02.07-.02.07-.03.1-.04.01 0 .02-.01.04-.02.07-.03.1-.08.1-.13 0-.01 0-.03-.01-.05.02 0 .04 0 .06-.01.03 0 .08-.01.08-.05s-.03-.05-.07-.07c-.01-.01-.04-.01-.04-.02-.01-.01-.02-.02 0-.06 0-.01.01-.02.01-.03.01-.02.01-.04.01-.07.02.01.02.02.04.03.02.02.04.03.07.02s.03-.03.04-.05h0c0-.02.01-.03.01-.05.02 0 .05.01.07 0 .03-.01.03-.03.04-.04s.01-.03.03-.04c.04-.04.05-.05.06-.1 0-.01 0-.02.01-.03v-.02c.03 0 .05-.01.06-.03s.01-.03.01-.04c.03 0 .05.01.1.01.1 0 .13 0 .17-.04.01.01.02.02.04.02.04.02.1.01.12-.03.02-.03.03-.1.01-.1-.01-.01-.02-.01-.02-.02-.02-.01-.02-.01-.02-.04 0-.04 0-.04.1-.1.05-.03.06-.04.07-.04.02 0 .04 0 .07-.02l.02-.01c.01-.01.02-.01.02-.01h.02c.04 0 .06 0 .08-.01.01 0 .02 0 .03-.01.02 0 .04-.01.05-.01.01-.01.03-.01.06-.01s.06 0 .08-.03c.02-.02.01-.04.01-.06h.08v.01l-.03.06h-.01c-.02.03-.02.04-.03.07 0 .02 0 .05.02.07.02.03.05.04.08.05.02 0 .06-.01.14-.03.03-.01.06-.03.08-.05.01-.01.02.01.03 0h.03c.01 0 .04-.02.08-.05 0 0 .01-.01.01-.02.01 0 .02 0 .04-.01h.02c.04 0 .06-.01.1-.04.02-.01.04-.01.08-.02s.08-.01.1-.05c.01-.03-.01-.05-.02-.06.03 0 .04 0 .04-.01v-.01h-.01c0-.02.01-.03.01-.03.01.01.02.03.03.04s.01.01.03 0c0 0 .02-.01.04-.01.05-.01.06-.02.06-.04 0-.03-.02-.03-.03-.03-.02 0-.04-.01-.05-.02s-.01-.01-.01-.03c0-.01 0-.04-.01-.08s-.01-.06-.03-.06c0 0-.02 0-.03.04l-.1.1s-.01.03-.02.1c-.03 0-.03-.01-.03-.01l-.08.04c-.01-.02 0-.03.01-.03-.03 0-.05-.01-.1-.01-.07 0-.1-.02-.1-.02-.01-.05-.04-.06-.1-.07-.01-.01 0-.02 0-.04 0-.03 0-.05-.02-.07.02-.02.02-.02.03-.04.01-.01.01-.03.01-.04.01 0 .02-.01.04-.01.04-.01.08-.02.08-.06s-.03-.06-.06-.07c-.01 0-.02-.01-.02-.01-.03-.02-.06-.04-.15-.04-.05 0-.13.01-.2.02 0-.01.01-.02.02-.03.02-.02.02-.03.02-.02.01 0 .04.01.07 0 .05-.01.14 0 .18 0l.38.03c.14.01.17 0 .2-.05.01-.01.02-.03.06-.05.05-.03.08-.04.1-.06.02-.02.02-.02.1-.02h.05c-.01.04-.03.1-.03.1l-.07.1-.05.1c-.03.02-.06.02-.07.02-.02 0-.03 0-.03.01s.01.01.03.02c.02 0 .04.01.05.01-.02.02-.05.03-.07.04-.04.02-.05.02-.05.04 0 .01.02.02.05.02.1.01.3 0 .3 0h.07l.07.06v.01h.1c-.01.01-.02.01-.03.01h-.04c-.02 0-.03 0-.03.01s.01.02.02.03.02.01.02.02c.01.01.02.02.04.02.01 0 .03-.01.05-.02.03-.02.05-.04.07-.07.03.01.06 0 .07-.02.01-.01.01-.02.01-.03.01-.01.02-.01.02-.02-.01.01-.01.02-.01.04.01.04.01.04.01.06.02.01.03.01.04 0 .01 0 .02-.01.02-.01.01.06.02.07.02.07h0l.1-.03.05-.06.01-.05s0-.04-.02-.06c-.01 0-.02-.01-.03 0-.02.01-.03.01-.04.02-.01 0-.01.01-.03.02-.01 0-.01.01-.02.01v-.08-.03h-.03c0-.01-.02-.02-.03-.03-.02-.02-.05-.02-.07-.02s-.02 0-.01-.02c.02-.02.05-.03.07-.03s.03-.01.03-.02-.01-.02-.07-.04l-.04-.01c-.1-.04-.1-.04-.16-.03-.03 0-.04.01-.04.02-.01 0-.02 0-.06-.02-.03-.01-.05-.02-.07-.02l-.06-.02.01-.02.03-.03c.06-.06.1-.1.08-.12s-.03-.03-.05-.04c.02-.02.05-.05.04-.08 0-.02-.02-.03-.04-.04.01-.06-.03-.08-.06-.1-.01 0-.02-.01-.02-.01-.02-.01-.04-.02-.06-.02-.01-.05-.05-.04-.07-.04-.01-.03-.03-.04-.05-.05h0-.02c-.02-.02-.04-.04-.1-.03-.03.01-.04-.02-.05-.02s-.02.01-.02.01c0-.01-.01-.02-.04-.03-.02-.01-.04.01-.05.01s-.02.01-.04.02h-.03c0-.05-.02-.06-.03-.07-.03-.02-.07-.01-.1-.01-.02 0-.02-.01-.02-.01l.01-.01c.01-.02.02-.04.01-.06 0-.01-.01-.02-.02-.03 0-.05-.04-.06-.07-.07-.02 0-.04-.01-.07-.03-.1-.04-.12-.07-.2-.14-.03-.03-.02-.06-.05-.04s.02.05.02.07-.1.07-.1.1h-.03c-.02 0-.07.01-.13.04-.02.01-.03.01-.04.02-.02-.01-.06-.05-.12-.08-.01 0-.01-.01-.02-.01l-.03-.03a.34.34 0 0 0 .03-.08c0-.04.01-.07-.02-.08l.24.02c.02 0 .13 0 .18-.02.02-.01.03-.03.03-.04.02-.01.07-.03.1-.06.02-.02.02-.04.01-.05.02 0 .04-.01.05-.02l.15-.1-.01-.03c-.01-.03-.01-.05-.26-.07l-.16-.01-.04-.01c.04-.02.04-.05.03-.06-.01-.04-.05-.04-.12-.03l-.13-.02-.15-.01h-.05.01s.07-.04.13-.05l.08-.02c.03 0 .06.01.1.01.2.03.2.02.24.01.02-.01.04-.02.15-.01.22.02.3.01.3.01l.2.07c.05.02.08.03.1.03 0 .01.01.01.04.02s.05.01.06.01c-.02 0-.04.01-.07.02-.02 0-.04.01-.04.02s.02.02.07.03c.02 0 .04.01.06.02.06.02.1 0 .1-.01 0 .01 0 .01-.01.02l-.02.02c-.01.01-.02.01-.04.04-.02.02-.02.02-.02.03s.01.01.02.01.03 0 .06.03c.04.04.08.06.12.1.02.02.05.03.07.05.06.05.34.17.35.18l.23.02s.1 0 .2.04c.03.01.06.03.06.04s.01.01.02.01c.02-.01.13 0 .18 0-.01-.01-.03 0-.05 0 .02 0 .04.01.05.01.03-.01.02-.03-.03-.1a.31.31 0 0 0-.04-.06c-.02-.04-.01-.05-.01-.05h.01l-.02-.06c-.01-.03-.03-.1-.01-.1s.03-.01.07-.01c.03 0 .07.01.14.01.08 0 .1 0 .1-.01 0-.01-.01-.02-.02-.03s-.04-.02-.05-.04c-.01-.01-.01-.02-.01-.02a.09.09 0 0 1 .05.01c.02 0 .04 0 .06-.01.01-.01.02-.01.03-.02h.14c.02 0 .03 0 .03-.01.01-.01 0-.03-.03-.05-.04-.04-.13-.05-.33-.1l-.68-.13c-.3-.06-.73-.13-1.14-.1l-.24.01h-.06c-.04.01-.1.01-.22.01h-.24l-.13-.01c-.14-.01-.2.02-.26.04-.01 0-.02.01-.03.01a.31.31 0 0 0-.08.02c-.02.01-.04.01-.07.02-.02-.01-.04-.01-.06-.01h-.27c-.02 0-.05.01-.07.03-.02-.01-.04 0-.07 0-.02 0-.03.01-.06.01-.08.01-.13.06-.13.1 0 .03.02.06.07.07H13c-.02 0-.03.01-.04.01-.02 0-.03 0-.03.01 0-.05-.1-.06-.13-.06s-.08.01-.1.03c0-.01 0-.01.01-.02.04-.04.03-.07.02-.08-.04-.05-.16-.01-.2.01-.08.03-.16.1-.18.17 0 .01-.03.02-.1.02h-.02c-.04 0-.08 0-.13.01.03-.02.03-.05.03-.05-.01-.04-.04-.04-.13-.05h-.06c-.1-.01-.2.04-.3.07-.02.01-.04.02-.06.02-.03.01-.06.02-.07.05s.01.05.02.06c0 .03 0 .03-.1.01-.06-.01-.07-.01-.1.01-.01.01-.03.01-.06.02-.01 0-.02 0-.02.01l-.01-.05-.04.02a9.19 9.19 0 0 0-.85.38l-.86.5-.3.2c-.2.12-.37.26-.47.35l-.1.07c-.06.04-.06.07-.07.1 0 .01 0 .01-.01.02-.04.04-.04.08-.04.1s0 .02-.01.02c-.02.01-.03.03-.05.05-.01.02-.02.03-.04.05l-.07.1c-.03.03-.05.06-.07.1-.04.05-.08.1-.16.17a.98.98 0 0 0-.32.41c-.1.17-.13.2-.2.26l-.03.03c-.08.08-.1.1-.1.2s-.02.13-.04.14c-.04.03-.04.06-.03.08 0 .02 0 .04-.02.1-.05.12-.05.16.05.23h.02c.01 0 .01.01.02.01 0 .01-.01.03-.02.05-.01.05-.01.1-.01.12v.05c0 .02-.01.05-.01.07-.02.06-.03.12-.04.18-.01.05-.01.1-.03.13-.03.06 0 .1.02.12.01.02.03.03.02.07-.01.1-.03.1-.08.1-.04 0-.06.02-.07.04-.02.05.01.1.1.2l.05.05c.03.02.03.02.01.07-.03.14-.01.25.06.35.03.04.03.08.03.1 0 .03.02.04.04.05.03.01.05-.02.06-.04.01-.01.01-.02.02-.03.02-.03.04-.05.04-.12 0-.05 0-.1-.06-.1.01-.03.01-.06.01-.1s-.01-.06-.01-.07v-.04c.01-.06.03-.15-.04-.26 0-.01-.02-.03-.02-.03.01-.02.02-.04.03-.1 0-.04.01-.07.01-.1.01-.05.02-.1-.01-.15-.02-.05-.01-.1.07-.2.01.01.02.03.02.05s0 .02-.01.04c-.01.01-.02.03-.02.05-.01.02-.01.05-.01.07s-.01.04-.01.05c-.03.04-.01.08 0 .1.01.01.02.03.02.04 0 .06.02.08.05.1h.02v.05c0 .04.01.06.02.08-.04.08-.01.2.05.27.03.03.04.06.03.13 0 .04.02.07.03.1.02.03.04.06.04.14 0 .12.03.17.06.2.02.03.01.07-.02.12-.03.06-.07.12-.06.2.01.06.06.1.1.15l.04.04c.01.06.07.15.2.16h.03c0 .01.01.03.02.04a.92.92 0 0 0 .15.14c.03.02.05.02.1.04.03.01.08.02.14.05.02.01.03.02.04.02v.01.02c.01.02.03.02.05.02.03 0 .03.01.08.02l.06.02c.07.03.1.03.14 0 .01-.01.01-.01.03-.02s.04-.03.06-.05c.03-.03.06-.06.12-.05h.03c.02.03.05.03.1.04h.01c0 .01.01.02.02.03.03.03.1.13.17.22.02.02.03.05.05.07.08.1.15.1.2.08.02 0 .04-.01.06-.01.02.01.02.02.02.03 0 .07.03.1.08.1.01 0 .03.01.06.02.08.04.12.02.17 0-.02.06.02.08.06.1.01.01.02.02.04.03.02.02.04.05.05.07.03.05.07.12.16.12-.06.04-.04.1-.03.12.01.01.01.03.01.04 0 .03 0 .08.04.1.03.03.07.04.13.03.04 0 .06.01.06.02v.01l.06.07c.01.02.02.06.02.08 0 .05.02.07.08.12a.14.14 0 0 0 .16.02c.05.02.16.05.2.05.01 0 .01 0 .02.01s.02.02.05.04c.02.01.02.02.02.02v.08c0 .02.01.05.04.06s.05-.01.06-.03l.03-.03c.07-.03.1-.07.1-.08l.01-.01-.02-.08-.03-.04c.02 0 .04-.01.06-.01.04-.01.06-.04.07-.06s.02-.03.04-.04c.01 0 .05 0 .1.02.03.02.04.03.05.04v.05a.34.34 0 0 0 .01.1c.01.03.03.06.06.08l.03.03c0 .02.01.04.02.06.01.01.02.04.02.05-.02.03 0 .06.01.08-.02.04-.02.1-.01.15 0 .04.01.08-.01.1-.04.06-.02.1 0 .14.01.02.02.04.02.05 0 .04-.06.1-.07.12-.07.01-.18.04-.2.12-.01.03-.02.05-.02.05h-.03l-.01.01s-.02.04 0 .08c0 .01-.02.02-.03.03s-.02.01-.04.01h-.1c-.06 0-.1.01-.1.04s.02.05.03.06.03.02.04.04c-.01 0-.01 0-.02.01-.03.02-.04.05-.05.08-.01.02-.01.04-.02.05-.05.03-.05.07-.04.1v.01c.01.05.01.1-.02.14s-.05.1.01.13c.01 0 .01.01.02.02.02.03.05.03.07.04.01 0 .03 0 .07.03v.02c-.01 0-.02.01-.04.01-.03 0-.06 0-.07.04-.05.04-.06.05-.07.07s-.03.04-.07.1-.06.08-.05.1.03.04.05.05.04.02.06.05c.03.04.03.05.03.05s-.02.01-.03.01c-.03.01-.04.03-.04.04 0 .04.03.05.1.1.04.02.1.05.15.1l.05.04c0 .01 0 .03.01.04.02.05.03.06.06.1.01.01.03.02.06.04a.75.75 0 0 1 .12.22c.03.08.06.14.1.17.06.06.07.12.07.15v.02c0 .06.02.1.1.1.01 0 .05.05.06.08l.07.1c.07.08.07.1.07.12v.04c0 .03-.01.05.01.1.02.05.06.08.14.13l.1.07.03.03c.1.08.18.14.45.23l.1.04c0 .03.03.05.06.06.01.02.01.04.02.06.02.03.05.03.1.04.03.01.06.01.1.03l.01.01c.02.01.03.02.03.02v.02c0 .02.01.03.01.05a.75.75 0 0 1 .03.15l.01.1v.16c-.01.02-.02.04-.02.1-.01.04-.01.07-.01.1-.01.07-.01.1-.03.1s-.05.04-.05.07.02.05.04.07c0 0 .01.01.01.04a.46.46 0 0 0 .01.1c.02.1.02.13.01.16s-.01.06 0 .08c0 .02.01.03-.01.04-.04.06-.04.08-.03.13v.03c0 .05 0 .07-.06.16-.04.07-.03.1-.01.15.01.02.02.04.02.08s-.01.05-.02.07c-.02.02-.04.05-.02.1.01.03.01.05.02.07l.03.12c.01.05 0 .06 0 .08 0 .01-.01.03-.01.05l-.06.24c-.01.02-.01.03-.02.05-.01.03-.01.05-.04.1-.01.02.02.03.02.03-.04.01-.01.05-.01.07 0 .01-.05.02-.06.02-.04.03-.07.05-.05.1l.01.06c.01.04.02.07.04.1.01.02.01.03.02.04-.01.01-.01.02-.02.04s-.01.02-.02.03l-.02.02c-.04.05-.03.1-.02.14v.1c0 .01-.01.01-.01.03-.01.02-.01.03-.04.06l-.05.02c-.02.02-.03.03-.03.06l.01.03H13c.02.04.06.03.08.03h.03c.02 0 .05 0 .06-.02 0 0 .01-.01.01-.02.01-.01.02-.04.03-.08 0 0 .01-.04.03-.1v.04c-.01.01-.02.04-.04.08s-.02.05-.02.08v.03c0 .03-.01.05-.01.07s-.01.03-.01.05c0-.01 0-.03-.01-.05 0-.01-.02-.04-.05-.04s-.04.04-.04.05 0 .02-.01.02c-.03.03-.04.04-.05.08-.01 0-.03.01-.04.01h-.2c-.04 0-.08 0-.08.04s.03.05.1.06a.24.24 0 0 1 .09.02c.08.02.14.02.2-.01.01.01.02.01.02.01 0 .01-.01.01-.01.02s-.01.02-.01.03c-.04-.01-.1.03-.1.03l-.02.02v.02c0 .01 0 .03.04.07H13h.03c.01.02.01.03.02.04h0c-.02 0-.04 0-.05.01-.01 0 0 .01-.02.01h-.01v.1l.1.03.05-.01h.01c.02.03.05.03.1.03.02 0 .04.01.04.01-.01.02-.01.04-.01.06-.02.03-.02.07 0 .1l.01.01.1.04.1.05.1-.01.03-.01c0 .04.02.06.14.1.02 0 .07.01.08.01h.07c.02 0 .05-.01.07 0 .05.01.14 0 .15 0l.16-.01c.01 0 .04-.01.06-.02l.03-.02v-.03c-.01-.03-.03-.04-.07-.05-.01 0-.03-.01-.03-.01-.03-.02-.1-.04-.1-.05s-.04 0-.06 0l-.04-.04c-.01-.01-.05-.08-.1-.12-.02-.02-.02-.03-.02-.03.02-.02.02-.02.1-.02.04 0 .07-.01.1-.03s.02-.04.02-.06v-.04c.01 0 .03-.02.06-.03h.03c.07-.03.1-.04.16-.15.03-.04.06-.1.02-.12-.03-.03-.07 0-.1.03 0 0-.05.02-.13-.03-.01 0-.01-.01-.02-.01.01-.01.03-.02.04-.04.02-.03.1-.03.16-.04.03 0 .06-.01.07-.03s.01-.03.01-.04l.01-.01c.02-.01.03-.02.04-.05 0-.03 0-.04.01-.05 0-.01.01-.02.04-.03.01 0 .05-.02.06-.06 0-.04-.03-.06-.05-.07-.01-.03-.01-.05-.04-.06.01-.06 0-.1-.02-.1.01-.01.02 0 .03 0 .05.02.12.05.22.05.12 0 .17-.01.2-.06.01-.03 0-.06-.02-.07-.02-.02-.04-.05-.03-.06.06-.05.04-.1.03-.12 0-.01-.01-.01-.01-.02.02.01.05.02.08.03.1.02.22.03.53-.08.3-.1.3-.22.3-.26 0-.03-.02-.06-.05-.07.03-.05-.01-.1-.02-.1-.02-.03-.04-.04-.08-.06.04.01.07.03.1.04h.01c.01 0 .17.03.28.03a.26.26 0 0 0 .22-.09l.01-.01c.03-.03.07-.06.1-.1l.01-.01c.06-.07.13-.13.2-.2.05-.04.07-.06.08-.06h0l.05-.02c.02-.01.04-.01.06-.03.12-.05.14-.1.17-.16.01-.03.03-.05.05-.08a.38.38 0 0 1 .22-.15c.1-.04.1-.1.1-.16v-.08c0-.02.01-.04.01-.06.01-.06.01-.07.06-.16.03-.05.04-.06.07-.07.02-.01.05-.02.1-.05l.1-.08c.04-.04.08-.07.15-.1.06-.03.1-.05.1-.07s.03-.03.06-.02c.07 0 .1 0 .12-.04.01-.01.02-.03.04-.05.04-.04.1-.04.2-.03.03 0 .06.01.1.01.07 0 .1 0 .13-.02.02-.02.02-.05.02-.06.08-.05.1-.07.13-.16.02-.06.04-.1.1-.13a.23.23 0 0 0 .12-.14c.01-.02.02-.04.04-.06s.05-.05.07-.1c.02-.03.03-.06.04-.1 0-.01.01-.01.01-.02.04 0 .05-.03.06-.06s.02-.08.06-.13a.51.51 0 0 0 .09-.24c.01-.03.01-.06.02-.1.01-.06.03-.12.04-.18.01-.07.02-.13.04-.2.01.02.03.03.05.03.04 0 .05-.03.08-.08.02-.04.05-.1.1-.15l.16-.2.02-.03c.01-.02.03-.03.04-.05.03-.03.06-.06.1-.12.03-.05.06-.1.08-.14l.1-.18c.08-.12.06-.27.04-.38-.04-.02-.05-.05-.05-.07zm-4.67-9.63l-.04.01.04-.01zm.94-.57c.02.01.03.01.04.02-.01 0-.02 0-.04-.02l-.12-.03c.03 0 .08.01.12.03zm-1.1-.6c.01 0 .01-.01.04-.01-.02 0-.04.01-.04.01zm-3.72 2.22c-.04.01-.15.05-.17.14-.01.04-.01.07 0 .1 0 .02 0 .03-.01.05l-.08.12c-.01 0-.01.01-.02.01 0-.05.01-.15.03-.23l.06-.16.15-.07c.02 0 .1-.02.13-.03h.03c-.05.02-.1.06-.12.08zm.4.43c-.04.03-.06.03-.07.03l-.01-.02s-.03-.05-.01-.07l.02-.02c0 .01.01.02.02.02.01.01.03.02.05.01.02 0 .07-.01.12-.01-.04-.01-.08.03-.12.06zm.16-.44a.77.77 0 0 0-.09.13c-.01.04-.04.07-.04.08-.01 0-.02 0-.03.01 0-.06-.01-.1-.04-.1-.01 0-.01-.01-.02-.01.01-.01.01-.02.02-.04.01-.04.01-.08-.02-.1l-.03-.03H12c.1 0 .15-.01.2-.02.05-.01.06-.01.1.01.03.03.06.04.08.05v.05c-.06-.03-.12-.05-.17-.01zm.62.2c-.01.01-.06.01-.1 0l.12-.07h.01c-.01.02-.02.05-.03.06zm.6-.87c-.01.02-.01.03-.02.04l-.03-.03.04-.03v-.01c.01.01.01.02 0 .03zm-1.63-.88l.05-.03c.03-.02.05-.03.07-.04.1-.05.1-.05.2-.06.1 0 .12-.02.15-.05.02-.01.03-.03.07-.04s.1 0 .15.01c.06.01.12.02.15-.02.02-.02.03-.03.06-.04l.08-.04c.07-.04.08-.05.1-.07h.04c.04 0 .08.01.1 0 .02-.01.04-.01.07-.02.05-.01.1-.03.17-.05.03-.01.06-.03.07-.06s-.01-.06-.02-.07l.1.03c.07.02.1.04.14.04.01 0 .02 0 .03-.01-.03.02-.05.04-.05.07 0 .01.01.04.04.04-.08.01-.17.03-.2.04s-.03.04-.02.06c.02.05.12.07.2.07.04 0 .07-.01.1-.01s.06-.01.1-.01c.04 0 .04 0 .05.01l.06.06c.02.01.03.02.04.03.02.02.04.02.07.01.02 0 .04-.01.05-.01-.01 0-.02.01-.03.02s-.03.03-.06.03c-.02-.06-.06-.07-.1-.08-.02-.01-.04-.01-.07-.03-.04-.03-.07-.03-.1-.02-.01 0-.02.01-.05 0-.06-.01-.1 0-.16 0h-.1c-.06 0-.1.01-.1.04-.01.02-.01.04 0 .06-.03.01-.06.02-.07.05s0 .06.01.08c-.02.02-.08.03-.13.03-.04.01-.08.01-.1.05s.02.05.07.08c.03.02.07.04.12.07.02.01.03.02.04.03-.03.02-.06.04-.08.08-.02.05-.1.06-.23.07h-.03c-.1.01-.13.01-.14.05s.03.06.06.08c.01.02-.01.08-.03.1l-.04.2c-.03.04-.06.08-.08.08h-.03c-.01 0-.03-.05-.04-.1l-.01-.01-.07-.14c-.01-.05-.01-.07 0-.1a1.04 1.04 0 0 1 .07-.12c.01-.01.03-.05.01-.08-.03-.03-.06-.02-.1 0-.02.01-.04.01-.05.02-.04.01-.07.01-.12.01h-.04c-.03 0-.03 0-.06-.02-.02-.01-.04-.03-.1-.05-.06-.03-.08-.04-.1-.04-.02-.01-.03-.01-.08-.04-.1-.07-.2-.03-.27 0 0-.01.01-.03.01-.04.01-.06 0-.1-.03-.1a.77.77 0 0 1 .17-.11zm-.2.95c.01.02.02.03.02.05h-.04c0-.01.01-.03.02-.05zm-.23.3l.3-.1c.03-.02.1-.04.12-.03.03.06.04.07.06.1.01.01.01.02.03.04.02.03.03.06.03.08 0 .01-.01.01-.01.02-.03-.03-.06-.04-.1-.04-.05 0-.1.02-.12.02s-.02.01-.02.01c-.01 0-.01 0-.03-.01-.02-.04-.06-.04-.12-.03-.1.01-.2.03-.22.04l-.1-.02h-.04l.24-.08zm-.5-.9c.01-.03.01-.04.01-.05l.03.03c-.01 0-.03.01-.04.02zm-.03.34c.01 0 .02 0 .03-.01h0c0 .01 0 .05-.01.1-.01-.03-.01-.04-.01-.07zm-.2 6.33c-.01-.01-.01-.02-.02-.03.01.01.02.02.02.03zm2.63.48h-.02c-.01 0-.01.01-.02.01-.01-.01-.02-.02-.02-.03-.01-.01-.02-.02-.03-.04.01-.01.02-.02.03-.05l.01-.01c.01-.01.02-.01.04-.03l.03.12v.03c-.01-.02-.02-.01-.02-.01zm.28 4.6h0zm.12-.01c-.01-.02-.01-.05-.04-.08v-.05l.02.02c.01.01.02.03.03.05l-.03.06zm1.9-2.64c0 .01 0 .03-.01.05-.03-.03-.05-.04-.07-.06-.01-.01-.01-.01-.02-.01h.1c.01 0 .01.01.01.02zm.8 4.24h0zm2.45-2.74c-.01.01-.03.01-.04.02.01-.01.02-.02.03-.04v-.02c-.01.02-.01.03-.01.04z"/></g><defs><path id="M" d="M22.2 14.88c-1.56 5.8-6.87 10.1-13.17 10.1-1 0-1.95-.1-2.87-.3 1.56 3.04 4.73 5.12 8.38 5.12 5.2 0 9.42-4.22 9.42-9.42 0-2.05-.65-3.94-1.76-5.5z"/></defs><clipPath id="N"><use xlink:href="#M"/></clipPath><path d="M6.15 14.88h.1v14.9h-.1z" class="E CB"/><path d="M6.26 14.88h.1v14.9h-.1z" class="E CC"/><path d="M6.37 14.88h.1v14.9h-.1z" class="E Aq"/><path d="M6.5 14.88h.1v14.9h-.1z" class="E Ar"/><path d="M6.6 14.88h.1v14.9h-.1z" class="E As"/><path d="M6.72 14.88h.1v14.9h-.1z" class="E Aa"/><path d="M6.83 14.88h.1v14.9h-.1z" class="E Ab"/><path d="M6.94 14.88h.1v14.9h-.1z" class="E Ac"/><path d="M7.06 14.88h.1v14.9h-.1z" class="E Ad"/><path d="M7.17 14.88h.1v14.9h-.1z" class="E Ae"/><path d="M7.28 14.88h.1v14.9h-.1z" class="E Af"/><path d="M7.4 14.88h.1v14.9h-.1z" class="E Ag"/><path d="M7.5 14.88h.1v14.9h-.1z" class="E Ah"/><path d="M7.63 14.88h.1v14.9h-.1z" class="E Ai"/><path d="M7.74 14.88h.1v14.9h-.1z" class="E Aj"/><path d="M7.85 14.88h.1v14.9h-.1z" class="E Ak"/><path d="M7.97 14.88h.1v14.9h-.1z" class="E Al"/><path d="M8.08 14.88h.1v14.9h-.1z" class="E Am"/><path d="M8.2 14.88h.1v14.9h-.1z" class="E S"/><path d="M8.3 14.88h.1v14.9h-.1z" class="E T"/><path d="M8.42 14.88h.1v14.9h-.1z" class="E U"/><path d="M8.54 14.88h.1v14.9h-.1z" class="E V"/><path d="M8.65 14.88h.1v14.9h-.1z" class="E W"/><path d="M8.76 14.88h.1v14.9h-.1z" class="E X"/><path d="M8.88 14.88H9v14.9h-.1z" class="E Y"/><path d="M9 14.88h.1v14.9H9z" class="E Z"/><path d="M9.1 14.88h.1v14.9h-.1z" class="E a"/><path d="M9.22 14.88h.1v14.9h-.1z" class="E b"/><path d="M9.33 14.88h.1v14.9h-.1z" class="E c"/><path d="M9.45 14.88h.1v14.9h-.1z" class="E d"/><path d="M9.56 14.88h.1v14.9h-.1z" class="E e"/><path d="M9.67 14.88h.1v14.9h-.1z" class="E f"/><path d="M9.8 14.88h.1v14.9h-.1z" class="E g"/><path d="M9.9 14.88h.1v14.9h-.1z" class="E h"/><path d="M10 14.88h.1v14.9H10z" class="E i"/><path d="M10.13 14.88h.1v14.9h-.1z" class="E j"/><path d="M10.24 14.88h.1v14.9h-.1z" class="E J"/><path d="M10.36 14.88h.1v14.9h-.1z" class="E K"/><path d="M10.47 14.88h.1v14.9h-.1z" class="E L"/><path d="M10.58 14.88h.1v14.9h-.1z" class="E M"/><path d="M10.7 14.88h.1v14.9h-.1z" class="E N"/><path d="M10.8 14.88h.1v14.9h-.1z" class="E O"/><path d="M10.92 14.88h.1v14.9h-.1z" class="E P"/><path d="M11.04 14.88h.1v14.9h-.1z" class="E Q"/><path d="M11.15 14.88h.1v14.9h-.1z" class="E R"/><path d="M11.27 14.88h.1v14.9h-.1z" class="E k"/><path d="M11.38 14.88h.1v14.9h-.1z" class="E l"/><path d="M11.5 14.88h.1v14.9h-.1z" class="E m"/><path d="M11.6 14.88h.1v14.9h-.1z" class="E n"/><path d="M11.72 14.88h.1v14.9h-.1z" class="E o"/><path d="M11.83 14.88h.1v14.9h-.1z" class="E p"/><path d="M11.95 14.88h.1v14.9h-.1z" class="E q"/><path d="M12.06 14.88h.1v14.9h-.1z" class="E r"/><path d="M12.18 14.88h.1v14.9h-.1z" class="E s"/><path d="M12.3 14.88h.1v14.9h-.1z" class="E t"/><path d="M12.4 14.88h.1v14.9h-.1z" class="E u"/><path d="M12.52 14.88h.1v14.9h-.1z" class="E v"/><path d="M12.63 14.88h.1v14.9h-.1z" class="E w"/><path d="M12.75 14.88h.1v14.9h-.1z" class="E x"/><path d="M12.86 14.88h.1v14.9h-.1z" class="E y"/><path d="M12.97 14.88h.1v14.9h-.1z" class="E z"/><path d="M13.1 14.88h.1v14.9h-.1z" class="E AA"/><path d="M13.2 14.88h.1v14.9h-.1z" class="E AB"/><path d="M13.3 14.88h.1v14.9h-.1z" class="E AC"/><path d="M13.43 14.88h.1v14.9h-.1z" class="E AD"/><path d="M13.54 14.88h.1v14.9h-.1z" class="E AE"/><path d="M13.66 14.88h.1v14.9h-.1z" class="E AF"/><path d="M13.77 14.88h.1v14.9h-.1z" class="E AG"/><path d="M13.88 14.88h.1v14.9h-.1z" class="E AH"/><path d="M14 14.88h.1v14.9H14z" class="E AI"/><path d="M14.1 14.88h.1v14.9h-.1z" class="E AJ"/><path d="M14.22 14.88h.1v14.9h-.1z" class="E AK"/><path d="M14.34 14.88h.1v14.9h-.1z" class="E AL"/><path d="M14.45 14.88h.1v14.9h-.1z" class="E AM"/><path d="M14.57 14.88h.1v14.9h-.1z" class="E AN"/><path d="M14.68 14.88h.1v14.9h-.1z" class="E AO"/><path d="M14.8 14.88h.1v14.9h-.1z" class="E AP"/><path d="M14.9 14.88h.1v14.9h-.1z" class="E AQ"/><path d="M15.02 14.88h.1v14.9h-.1z" class="E AR"/><path d="M15.13 14.88h.1v14.9h-.1z" class="E AS"/><path d="M15.25 14.88h.1v14.9h-.1z" class="E AT"/><path d="M15.36 14.88h.1v14.9h-.1z" class="E AU"/><path d="M15.48 14.88h.1v14.9h-.1z" class="E AV"/><path d="M15.6 14.88h.1v14.9h-.1z" class="E AW"/><path d="M15.7 14.88h.1v14.9h-.1z" class="E AX"/><path d="M15.82 14.88h.1v14.9h-.1z" class="E AY"/><g class="AZ"><path d="M15.93 14.88h.1v14.9h-.1z" class="E"/><path d="M16.04 14.88h.12v14.9h-.12z" class="E"/></g><path d="M16.17 14.88h.12v14.9h-.12z" class="E An"/><path d="M16.3 14.88h.12v14.9h-.12z" class="E Ao"/><path d="M16.4 14.88h.12v14.9h-.12z" class="E Ap"/><path d="M16.54 14.88h.12v14.9h-.12z" class="E At"/><path d="M16.66 14.88h.12v14.9h-.12z" class="E Au"/><path d="M16.8 14.88h.12v14.9h-.12z" class="E Av"/><path d="M16.9 14.88h.12v14.9h-.12z" class="E Aw"/><path d="M17.03 14.88h.12v14.9h-.12z" class="E Ax"/><path d="M17.16 14.88h.12v14.9h-.12z" class="E Ay"/><path d="M17.28 14.88h.12v14.9h-.12z" class="E Az"/><path d="M17.4 14.88h.12v14.9h-.12z" class="E BA"/><path d="M17.53 14.88h.12v14.9h-.12z" class="E BB"/><path d="M17.65 14.88h.12v14.9h-.12z" class="E BC"/><path d="M17.77 14.88h.12v14.9h-.12z" class="E BD"/><path d="M17.9 14.88h.12v14.9h-.12z" class="E BE"/><path d="M18.02 14.88h.12v14.9h-.12z" class="E BF"/><path d="M18.14 14.88h.12v14.9h-.12z" class="E BG"/><path d="M18.27 14.88h.12v14.9h-.12z" class="E BH"/><path d="M18.4 14.88h.12v14.9h-.12z" class="E BI"/><path d="M18.52 14.88h.12v14.9h-.12z" class="E BJ"/><path d="M18.64 14.88h.12v14.9h-.12z" class="E BK"/><path d="M18.76 14.88h.12v14.9h-.12z" class="E BL"/><path d="M18.9 14.88H19v14.9h-.12z" class="E BM"/><path d="M19 14.88h.12v14.9H19z" class="E BN"/><path d="M19.13 14.88h.12v14.9h-.12z" class="E BO"/><path d="M19.26 14.88h.12v14.9h-.12z" class="E BP"/><path d="M19.38 14.88h.12v14.9h-.12z" class="E BQ"/><path d="M19.5 14.88h.12v14.9h-.12z" class="E BR"/><path d="M19.63 14.88h.12v14.9h-.12z" class="E BS"/><path d="M19.75 14.88h.12v14.9h-.12z" class="E BT"/><path d="M19.87 14.88H20v14.9h-.12z" class="E BU"/><path d="M20 14.88h.12v14.9H20z" class="E BV"/><path d="M20.12 14.88h.12v14.9h-.12z" class="E BW"/><path d="M20.25 14.88h.12v14.9h-.12z" class="E BX"/><path d="M20.37 14.88h.12v14.9h-.12z" class="E BY"/><path d="M20.5 14.88h.12v14.9h-.12z" class="E BZ"/><path d="M20.62 14.88h.12v14.9h-.12z" class="E Ba"/><path d="M20.74 14.88h.12v14.9h-.12z" class="E Bb"/><path d="M20.86 14.88h.12v14.9h-.12z" class="E Bc"/><path d="M21 14.88h.12v14.9H21z" class="E Bd"/><path d="M21.1 14.88h.12v14.9h-.12z" class="E Be"/><path d="M21.23 14.88h.12v14.9h-.12z" class="E Bf"/><path d="M21.36 14.88h.12v14.9h-.12z" class="E Bg"/><path d="M21.48 14.88h.12v14.9h-.12z" class="E Bh"/><path d="M21.6 14.88h.12v14.9h-.12z" class="E Bi"/><path d="M21.73 14.88h.12v14.9h-.12z" class="E Bj"/><path d="M21.85 14.88h.12v14.9h-.12z" class="E Bk"/><path d="M21.98 14.88h.12v14.9h-.12z" class="E Bl"/><path d="M22.1 14.88h.12v14.9h-.12z" class="E Bm"/><path d="M22.22 14.88h.12v14.9h-.12z" class="E Bn"/><path d="M22.35 14.88h.12v14.9h-.12z" class="E Bo"/><path d="M22.47 14.88h.12v14.9h-.12z" class="E Bp"/><path d="M22.6 14.88h.12v14.9h-.12z" class="E Bq"/><path d="M22.72 14.88h.12v14.9h-.12z" class="E Br"/><path d="M22.84 14.88h.12v14.9h-.12z" class="E Bs"/><path d="M22.96 14.88h.12v14.9h-.12z" class="E Bt"/><path d="M23.1 14.88h.12v14.9h-.12z" class="E Bu"/><path d="M23.2 14.88h.12v14.9h-.12z" class="E Bv"/><path d="M23.33 14.88h.12v14.9h-.12z" class="E Bw"/><path d="M23.46 14.88h.12v14.9h-.12z" class="E Bx"/><path d="M23.58 14.88h.12v14.9h-.12z" class="E By"/><path d="M23.7 14.88h.12v14.9h-.12z" class="E Bz"/><path d="M23.83 14.88h.12v14.9h-.12z" class="E CA"/></svg>