<?xml version="1.0" encoding="utf-8"?>
<!-- Generator: Adobe Illustrator 24.1.3, SVG Export Plug-In . SVG Version: 6.00 Build 0)  -->
<svg version="1.1" id="Layer_1" xmlns:v="https://vecta.io/nano"
	 xmlns="http://www.w3.org/2000/svg" xmlns:xlink="http://www.w3.org/1999/xlink" x="0px" y="0px" width="134px" height="54.6px"
	 viewBox="0 0 134 54.6" style="enable-background:new 0 0 134 54.6;" xml:space="preserve">
<style type="text/css">
	.st0{enable-background:new    ;}
	.st1{fill:#3F3F3F;}
	.st2{fill:url(#SVGID_1_);}
	.st3{fill:url(#SVGID_2_);}
	.st4{fill:url(#SVGID_3_);}
	.st5{fill:url(#SVGID_4_);}
	.st6{fill:url(#SVGID_5_);}
	.st7{fill:url(#SVGID_6_);}
	.st8{fill:url(#SVGID_7_);}
	.st9{fill:url(#SVGID_8_);}
	.st10{fill:url(#SVGID_9_);}
	.st11{fill:url(#SVGID_10_);}
	.st12{fill:url(#SVGID_11_);}
	.st13{fill:url(#SVGID_12_);}
	.st14{fill:url(#SVGID_13_);}
	.st15{fill:url(#SVGID_14_);}
	.st16{fill:url(#SVGID_15_);}
	.st17{fill:url(#SVGID_16_);}
	.st18{fill:url(#SVGID_17_);}
	.st19{fill:url(#SVGID_18_);}
	.st20{fill:url(#SVGID_19_);}
	.st21{fill:url(#SVGID_20_);}
	.st22{fill:url(#SVGID_21_);}
	.st23{fill:url(#SVGID_22_);}
	.st24{fill:url(#SVGID_23_);}
	.st25{fill:url(#SVGID_24_);}
	.st26{fill:url(#SVGID_25_);}
</style>
<g class="st0">
	<path class="st1" d="M44.9,20.7h-5.7l-1,2.6h-5.1l6.5-15h5l6.5,15h-5.2L44.9,20.7z M43.5,17.1L42,13.3l-1.5,3.8H43.5z"/>
	<path class="st1" d="M66,16.9c0.5,0.6,0.7,1.4,0.7,2.3c0,1.3-0.5,2.3-1.6,3c-1.1,0.7-2.7,1.1-4.7,1.1h-8.4v-15h8
		c2,0,3.5,0.4,4.5,1.1s1.5,1.7,1.5,2.8c0,0.7-0.2,1.3-0.5,1.9c-0.3,0.6-0.9,1-1.6,1.3C64.8,15.8,65.5,16.3,66,16.9z M56.9,11.9v2.2
		h2.4c1.1,0,1.6-0.4,1.6-1.1s-0.5-1.1-1.6-1.1H56.9z M61.6,18.6c0-0.8-0.6-1.2-1.7-1.2h-3v2.4h3C61,19.8,61.6,19.4,61.6,18.6z"/>
	<path class="st1" d="M74.5,18.4l-1.1,1.3v3.7h-5v-15h5v5.4l4.9-5.4h5.5l-6,6.6l6.3,8.4h-5.8L74.5,18.4z"/>
</g>
<g class="st0">
	<path class="st1" d="M88.9,9.7h-5.3V8.3h12.1v1.4h-5.3v13.6h-1.6V9.7z"/>
	<path class="st1" d="M106.6,18.2h-9.4c0.1,1.2,0.5,2.1,1.3,2.8s1.8,1.1,3.1,1.1c0.7,0,1.3-0.1,1.9-0.4c0.6-0.2,1.1-0.6,1.5-1.1
		l0.9,1c-0.5,0.6-1.1,1.1-1.9,1.4c-0.7,0.3-1.6,0.5-2.5,0.5c-1.2,0-2.2-0.2-3.1-0.7c-0.9-0.5-1.6-1.2-2.1-2c-0.5-0.9-0.7-1.9-0.7-3
		s0.2-2.1,0.7-3c0.5-0.9,1.1-1.5,2-2s1.8-0.7,2.8-0.7c1,0,2,0.2,2.8,0.7s1.5,1.2,1.9,2c0.5,0.9,0.7,1.8,0.7,3L106.6,18.2z
		 M98.4,14.3c-0.7,0.7-1.2,1.6-1.3,2.7h8c-0.1-1.1-0.5-2-1.3-2.7c-0.7-0.7-1.7-1-2.7-1C100.1,13.3,99.2,13.6,98.4,14.3z"/>
	<path class="st1" d="M111.4,22.7c-0.9-0.5-1.6-1.2-2.1-2s-0.7-1.9-0.7-3s0.2-2.1,0.7-3c0.5-0.9,1.2-1.5,2.1-2s1.9-0.7,3-0.7
		c1,0,1.8,0.2,2.6,0.6s1.4,0.9,1.8,1.7l-1.1,0.8c-0.4-0.6-0.8-1-1.4-1.3c-0.6-0.3-1.2-0.4-1.9-0.4c-0.8,0-1.5,0.2-2.2,0.5
		c-0.6,0.4-1.2,0.9-1.5,1.6c-0.4,0.7-0.5,1.4-0.5,2.3c0,0.9,0.2,1.6,0.5,2.3s0.9,1.2,1.5,1.5c0.6,0.4,1.4,0.5,2.2,0.5
		c0.7,0,1.3-0.1,1.9-0.4c0.6-0.3,1-0.7,1.4-1.2l1.1,0.8c-0.4,0.7-1,1.3-1.8,1.7s-1.6,0.6-2.6,0.6C113.3,23.4,112.3,23.2,111.4,22.7z
		"/>
	<path class="st1" d="M130.7,13.2c0.8,0.8,1.3,2,1.3,3.6v6.5h-1.5v-6.4c0-1.2-0.3-2.1-0.9-2.7c-0.6-0.6-1.4-0.9-2.5-0.9
		c-1.2,0-2.2,0.4-2.9,1.1c-0.7,0.7-1.1,1.7-1.1,3v5.9h-1.5V7.4h1.5V14c0.4-0.7,1-1.2,1.7-1.5c0.7-0.4,1.6-0.5,2.5-0.5
		C128.7,12,129.9,12.4,130.7,13.2z"/>
</g>
<g class="st0">
	<path class="st1" d="M35.9,34h1.6v15h-1.6V34z"/>
	<path class="st1" d="M43.7,48.4c-0.9-0.5-1.6-1.2-2.1-2c-0.5-0.9-0.7-1.9-0.7-3s0.2-2.1,0.7-3c0.5-0.9,1.2-1.5,2.1-2s1.9-0.7,3-0.7
		c1,0,1.8,0.2,2.6,0.6c0.8,0.4,1.4,0.9,1.8,1.7L50,40.6c-0.4-0.6-0.8-1-1.4-1.3C48,39.1,47.4,39,46.7,39c-0.8,0-1.5,0.2-2.2,0.5
		c-0.6,0.4-1.2,0.9-1.5,1.6c-0.4,0.7-0.5,1.4-0.5,2.3c0,0.9,0.2,1.6,0.5,2.3c0.4,0.7,0.9,1.2,1.5,1.5c0.6,0.4,1.4,0.5,2.2,0.5
		c0.7,0,1.3-0.1,1.9-0.4c0.6-0.3,1-0.7,1.4-1.2l1.1,0.8c-0.4,0.7-1,1.3-1.8,1.7c-0.8,0.4-1.6,0.6-2.6,0.6
		C45.6,49.1,44.6,48.9,43.7,48.4z"/>
	<path class="st1" d="M57.1,38.2c0.7-0.4,1.6-0.6,2.6-0.6v1.5l-0.4,0c-1.2,0-2.1,0.4-2.8,1.1c-0.7,0.7-1,1.7-1,3.1V49h-1.5V37.7h1.5
		v2.2C55.9,39.2,56.4,38.6,57.1,38.2z"/>
	<path class="st1" d="M72.4,37.7l-5.6,12.6c-0.5,1.1-1,1.8-1.6,2.2c-0.6,0.4-1.3,0.7-2.2,0.7c-0.5,0-1-0.1-1.5-0.3
		c-0.5-0.2-0.9-0.4-1.2-0.8l0.7-1.1c0.6,0.6,1.3,0.9,2.1,0.9c0.5,0,1-0.1,1.3-0.4c0.4-0.3,0.7-0.8,1-1.5l0.5-1.1l-5-11.2h1.6
		l4.2,9.6l4.2-9.6H72.4z"/>
	<path class="st1" d="M83.2,38.4c0.9,0.5,1.5,1.2,2,2c0.5,0.9,0.7,1.9,0.7,3c0,1.1-0.2,2.1-0.7,3s-1.2,1.5-2,2
		c-0.8,0.5-1.8,0.7-2.9,0.7c-0.9,0-1.7-0.2-2.5-0.6c-0.7-0.4-1.3-0.9-1.8-1.7v6.3h-1.5V37.7H76V40c0.5-0.7,1.1-1.3,1.8-1.7
		c0.7-0.4,1.6-0.6,2.5-0.6C81.4,37.7,82.4,37.9,83.2,38.4z M82.4,47.2c0.6-0.4,1.1-0.9,1.5-1.6c0.4-0.7,0.5-1.4,0.5-2.3
		s-0.2-1.6-0.5-2.3c-0.4-0.7-0.9-1.2-1.5-1.5C81.8,39.2,81,39,80.3,39c-0.8,0-1.5,0.2-2.1,0.6c-0.6,0.4-1.1,0.9-1.5,1.5
		c-0.4,0.7-0.5,1.4-0.5,2.3s0.2,1.6,0.5,2.3c0.4,0.7,0.9,1.2,1.5,1.6c0.6,0.4,1.4,0.5,2.1,0.5C81,47.7,81.8,47.6,82.4,47.2z"/>
	<path class="st1" d="M98.9,43.8h-9.4c0.1,1.2,0.5,2.1,1.3,2.8c0.8,0.7,1.8,1.1,3.1,1.1c0.7,0,1.3-0.1,1.9-0.4
		c0.6-0.2,1.1-0.6,1.5-1.1l0.9,1c-0.5,0.6-1.1,1.1-1.9,1.4c-0.7,0.3-1.6,0.5-2.5,0.5c-1.2,0-2.2-0.2-3.1-0.7c-0.9-0.5-1.6-1.2-2.1-2
		s-0.7-1.9-0.7-3s0.2-2.1,0.7-3c0.5-0.9,1.1-1.5,2-2s1.8-0.7,2.8-0.7s2,0.2,2.8,0.7s1.5,1.2,1.9,2c0.5,0.9,0.7,1.8,0.7,3L98.9,43.8z
		 M90.7,40c-0.7,0.7-1.2,1.6-1.3,2.7h8c-0.1-1.1-0.5-2-1.3-2.7c-0.7-0.7-1.7-1-2.7-1C92.4,39,91.4,39.3,90.7,40z"/>
	<path class="st1" d="M108.8,49l-3.6-4.7l-3.6,4.7H100l4.4-5.8l-4.2-5.5h1.7l3.4,4.4l3.4-4.4h1.7l-4.2,5.5l4.5,5.8H108.8z"/>
</g>
<linearGradient id="SVGID_1_" gradientUnits="userSpaceOnUse" x1="2" y1="28.9156" x2="24.62" y2="28.9156" gradientTransform="matrix(1 0 0 -1 0 55.2756)">
	<stop  offset="0" style="stop-color:#7D00C6"/>
	<stop  offset="1" style="stop-color:#0028EF"/>
	<stop  offset="1" style="stop-color:#000000"/>
</linearGradient>
<path class="st2" d="M24.6,52.7l-0.2,0c-6.2-1-11.9-4.2-16-8.9C4.3,38.9,2,32.7,2,26.4C2,20,4.3,13.8,8.4,9c4.1-4.8,9.8-8,16-8.9
	L24.6,0L24.6,52.7L24.6,52.7z M24.2,0.4c-6,1-11.5,4.1-15.5,8.8C4.6,14,2.4,20.1,2.4,26.4s2.2,12.4,6.3,17.1c4,4.7,9.5,7.8,15.5,8.8
	V0.4z"/>
<linearGradient id="SVGID_2_" gradientUnits="userSpaceOnUse" x1="9.36" y1="48.5956" x2="12.3" y2="48.5956" gradientTransform="matrix(1 0 0 -1 0 55.2756)">
	<stop  offset="0" style="stop-color:#7D00C6"/>
	<stop  offset="1" style="stop-color:#0028EF"/>
	<stop  offset="1" style="stop-color:#000000"/>
</linearGradient>
<circle class="st3" cx="10.8" cy="6.7" r="1.5"/>
<linearGradient id="SVGID_3_" gradientUnits="userSpaceOnUse" x1="22.78" y1="41.4256" x2="25.72" y2="41.4256" gradientTransform="matrix(1 0 0 -1 0 55.2756)">
	<stop  offset="0" style="stop-color:#7D00C6"/>
	<stop  offset="1" style="stop-color:#0028EF"/>
	<stop  offset="1" style="stop-color:#000000"/>
</linearGradient>
<circle class="st4" cx="24.2" cy="13.9" r="1.5"/>
<linearGradient id="SVGID_4_" gradientUnits="userSpaceOnUse" x1="16.16" y1="47.3156" x2="19.1" y2="47.3156" gradientTransform="matrix(1 0 0 -1 0 55.2756)">
	<stop  offset="0" style="stop-color:#7D00C6"/>
	<stop  offset="1" style="stop-color:#0028EF"/>
	<stop  offset="1" style="stop-color:#000000"/>
</linearGradient>
<circle class="st5" cx="17.6" cy="8" r="1.5"/>
<linearGradient id="SVGID_5_" gradientUnits="userSpaceOnUse" x1="11.75" y1="38.8556" x2="14.69" y2="38.8556" gradientTransform="matrix(1 0 0 -1 0 55.2756)">
	<stop  offset="0" style="stop-color:#7D00C6"/>
	<stop  offset="1" style="stop-color:#0028EF"/>
	<stop  offset="1" style="stop-color:#000000"/>
</linearGradient>
<circle class="st6" cx="13.2" cy="16.4" r="1.5"/>
<linearGradient id="SVGID_6_" gradientUnits="userSpaceOnUse" x1="2.574" y1="38.0556" x2="5.514" y2="38.0556" gradientTransform="matrix(1 0 0 -1 0 55.2756)">
	<stop  offset="0" style="stop-color:#7D00C6"/>
	<stop  offset="1" style="stop-color:#0028EF"/>
	<stop  offset="1" style="stop-color:#000000"/>
</linearGradient>
<circle class="st7" cx="4" cy="17.2" r="1.5"/>
<linearGradient id="SVGID_7_" gradientUnits="userSpaceOnUse" x1="11.014" y1="30.0356" x2="13.954" y2="30.0356" gradientTransform="matrix(1 0 0 -1 0 55.2756)">
	<stop  offset="0" style="stop-color:#7D00C6"/>
	<stop  offset="1" style="stop-color:#0028EF"/>
	<stop  offset="1" style="stop-color:#000000"/>
</linearGradient>
<circle class="st8" cx="12.5" cy="25.2" r="1.5"/>
<linearGradient id="SVGID_8_" gradientUnits="userSpaceOnUse" x1="15.426" y1="20.1056" x2="18.366" y2="20.1056" gradientTransform="matrix(1 0 0 -1 0 55.2756)">
	<stop  offset="0" style="stop-color:#7D00C6"/>
	<stop  offset="1" style="stop-color:#0028EF"/>
	<stop  offset="1" style="stop-color:#000000"/>
</linearGradient>
<circle class="st9" cx="16.9" cy="35.2" r="1.5"/>
<linearGradient id="SVGID_9_" gradientUnits="userSpaceOnUse" x1="8.073" y1="12.7456" x2="11.013" y2="12.7456" gradientTransform="matrix(1 0 0 -1 0 55.2756)">
	<stop  offset="0" style="stop-color:#7D00C6"/>
	<stop  offset="1" style="stop-color:#0028EF"/>
	<stop  offset="1" style="stop-color:#000000"/>
</linearGradient>
<circle class="st10" cx="9.5" cy="42.5" r="1.5"/>
<linearGradient id="SVGID_10_" gradientUnits="userSpaceOnUse" x1="22.796" y1="3.1256" x2="25.736" y2="3.1256" gradientTransform="matrix(1 0 0 -1 0 55.2756)">
	<stop  offset="0" style="stop-color:#7D00C6"/>
	<stop  offset="1" style="stop-color:#0028EF"/>
	<stop  offset="1" style="stop-color:#000000"/>
</linearGradient>
<circle class="st11" cx="24.3" cy="52.2" r="1.5"/>
<linearGradient id="SVGID_11_" gradientUnits="userSpaceOnUse" x1="18.735" y1="14.5856" x2="22.415" y2="14.5856" gradientTransform="matrix(1 0 0 -1 0 55.2756)">
	<stop  offset="0" style="stop-color:#7D00C6"/>
	<stop  offset="1" style="stop-color:#0028EF"/>
	<stop  offset="1" style="stop-color:#000000"/>
</linearGradient>
<circle class="st12" cx="20.6" cy="40.7" r="1.8"/>
<linearGradient id="SVGID_12_" gradientUnits="userSpaceOnUse" x1="21.31" y1="27.4556" x2="26.457" y2="27.4556" gradientTransform="matrix(1 0 0 -1 0 55.2756)">
	<stop  offset="0" style="stop-color:#7D00C6"/>
	<stop  offset="1" style="stop-color:#0028EF"/>
	<stop  offset="1" style="stop-color:#000000"/>
</linearGradient>
<circle class="st13" cx="23.9" cy="27.8" r="2.6"/>
<linearGradient id="SVGID_13_" gradientUnits="userSpaceOnUse" x1="0" y1="26.2856" x2="4.412" y2="26.2856" gradientTransform="matrix(1 0 0 -1 0 55.2756)">
	<stop  offset="0" style="stop-color:#7D00C6"/>
	<stop  offset="1" style="stop-color:#0028EF"/>
	<stop  offset="1" style="stop-color:#000000"/>
</linearGradient>
<circle class="st14" cx="2.2" cy="29" r="2.2"/>
<linearGradient id="SVGID_14_" gradientUnits="userSpaceOnUse" x1="3.96" y1="33.7756" x2="24.57" y2="33.7756" gradientTransform="matrix(1 0 0 -1 0 55.2756)">
	<stop  offset="0" style="stop-color:#7D00C6"/>
	<stop  offset="1" style="stop-color:#0028EF"/>
	<stop  offset="1" style="stop-color:#000000"/>
</linearGradient>
<path class="st15" d="M9.6,42.7l-0.1-0.4l10.7-1.8l-3.5-5.2L4,28.9l8.5-3.9l11.6,2.5V14.1l-11,2.6l-2.7-10l7.2,1.1l6.7-7.5l0.3,0.2
	l-6.9,7.6l-6.8-1.1l2.4,9.1l11.1-2.6V28l-11.9-2.6l-7.7,3.5L17,35l3.9,5.8L9.6,42.7z"/>
<linearGradient id="SVGID_15_" gradientUnits="userSpaceOnUse" x1="9.41" y1="16.3306" x2="16.84" y2="16.3306" gradientTransform="matrix(1 0 0 -1 0 55.2756)">
	<stop  offset="0" style="stop-color:#7D00C6"/>
	<stop  offset="1" style="stop-color:#0028EF"/>
	<stop  offset="1" style="stop-color:#000000"/>
</linearGradient>
<path class="st16" d="M9.7,42.7l-0.3-0.3l7.2-7.2l0.3,0.3L9.7,42.7z"/>
<linearGradient id="SVGID_16_" gradientUnits="userSpaceOnUse" x1="16.4" y1="23.8756" x2="24.2" y2="23.8756" gradientTransform="matrix(1 0 0 -1 0 55.2756)">
	<stop  offset="0" style="stop-color:#7D00C6"/>
	<stop  offset="1" style="stop-color:#0028EF"/>
	<stop  offset="1" style="stop-color:#000000"/>
</linearGradient>
<path class="st17" d="M16.7,35.3L16.4,35l7.5-7.5l0.3,0.3L16.7,35.3z"/>
<linearGradient id="SVGID_17_" gradientUnits="userSpaceOnUse" x1="20.21" y1="21.2106" x2="24.24" y2="21.2106" gradientTransform="matrix(1 0 0 -1 0 55.2756)">
	<stop  offset="0" style="stop-color:#7D00C6"/>
	<stop  offset="1" style="stop-color:#0028EF"/>
	<stop  offset="1" style="stop-color:#000000"/>
</linearGradient>
<path class="st18" d="M20.6,40.6l-0.4-0.1l3.7-12.9l0.4,0.1L20.6,40.6z"/>
<linearGradient id="SVGID_18_" gradientUnits="userSpaceOnUse" x1="12.134" y1="25.0756" x2="17.248" y2="25.0756" gradientTransform="matrix(1 0 0 -1 0 55.2756)">
	<stop  offset="0" style="stop-color:#7D00C6"/>
	<stop  offset="1" style="stop-color:#0028EF"/>
	<stop  offset="1" style="stop-color:#000000"/>
</linearGradient>
<path class="st19" d="M16.9,35.4l-4.8-10.3l0.3-0.2l4.8,10.3L16.9,35.4z"/>
<linearGradient id="SVGID_19_" gradientUnits="userSpaceOnUse" x1="4.06" y1="32.6006" x2="13.181" y2="32.6006" gradientTransform="matrix(1 0 0 -1 0 55.2756)">
	<stop  offset="0" style="stop-color:#7D00C6"/>
	<stop  offset="1" style="stop-color:#0028EF"/>
	<stop  offset="1" style="stop-color:#000000"/>
</linearGradient>
<path class="st20" d="M4.4,28.9l-0.3-0.2l8.8-12.1l0.3,0.2L4.4,28.9z"/>
<linearGradient id="SVGID_20_" gradientUnits="userSpaceOnUse" x1="4.94" y1="38.4856" x2="13.05" y2="38.4856" gradientTransform="matrix(1 0 0 -1 0 55.2756)">
	<stop  offset="0" style="stop-color:#7D00C6"/>
	<stop  offset="1" style="stop-color:#0028EF"/>
	<stop  offset="1" style="stop-color:#000000"/>
</linearGradient>
<path class="st21" d="M5,17.2l0-0.4l8.1-0.4l0,0.4L5,17.2z"/>
<linearGradient id="SVGID_21_" gradientUnits="userSpaceOnUse" x1="17.32" y1="44.3756" x2="24.19" y2="44.3756" gradientTransform="matrix(1 0 0 -1 0 55.2756)">
	<stop  offset="0" style="stop-color:#7D00C6"/>
	<stop  offset="1" style="stop-color:#0028EF"/>
	<stop  offset="1" style="stop-color:#000000"/>
</linearGradient>
<path class="st22" d="M23.9,14.2l-6.6-6.3l0.2-0.3l6.6,6.3L23.9,14.2z"/>
<linearGradient id="SVGID_22_" gradientUnits="userSpaceOnUse" x1="12.303" y1="34.4406" x2="13.77" y2="34.4406" gradientTransform="matrix(1 0 0 -1 0 55.2756)">
	<stop  offset="0" style="stop-color:#7D00C6"/>
	<stop  offset="1" style="stop-color:#0028EF"/>
	<stop  offset="1" style="stop-color:#000000"/>
</linearGradient>
<path class="st23" d="M12.7,25.3l-0.4,0l1.1-8.8l0.4,0L12.7,25.3z"/>
<linearGradient id="SVGID_23_" gradientUnits="userSpaceOnUse" x1="12.355" y1="35.5456" x2="24.385" y2="35.5456" gradientTransform="matrix(1 0 0 -1 0 55.2756)">
	<stop  offset="0" style="stop-color:#7D00C6"/>
	<stop  offset="1" style="stop-color:#0028EF"/>
	<stop  offset="1" style="stop-color:#000000"/>
</linearGradient>
<path class="st24" d="M12.6,25.7l-0.3-0.3l11.8-11.8l0.3,0.3L12.6,25.7z"/>
<linearGradient id="SVGID_24_" gradientUnits="userSpaceOnUse" x1="20.414" y1="8.6406" x2="24.444" y2="8.6406" gradientTransform="matrix(1 0 0 -1 0 55.2756)">
	<stop  offset="0" style="stop-color:#7D00C6"/>
	<stop  offset="1" style="stop-color:#0028EF"/>
	<stop  offset="1" style="stop-color:#000000"/>
</linearGradient>
<path class="st25" d="M24.1,52.6l-3.7-11.8l0.4-0.1l3.7,11.8L24.1,52.6z"/>
<linearGradient id="SVGID_25_" gradientUnits="userSpaceOnUse" x1="9.28" y1="7.8906" x2="24.18" y2="7.8906" gradientTransform="matrix(1 0 0 -1 0 55.2756)">
	<stop  offset="0" style="stop-color:#7D00C6"/>
	<stop  offset="1" style="stop-color:#0028EF"/>
	<stop  offset="1" style="stop-color:#000000"/>
</linearGradient>
<path class="st26" d="M24,52.5L9.3,42.6l0.2-0.3l14.7,9.9L24,52.5z"/>
</svg>
