<?xml version="1.0" encoding="utf-8"?>
<!-- Generator: Adobe Illustrator 24.0.3, SVG Export Plug-In . SVG Version: 6.00 Build 0)  -->
<svg version="1.0" id="Layer_1" xmlns="http://www.w3.org/2000/svg" xmlns:xlink="http://www.w3.org/1999/xlink" x="0px" y="0px"
	 viewBox="0 0 94.59 53.09" style="enable-background:new 0 0 94.59 53.09;" xml:space="preserve">
<style type="text/css">
	.st0{fill:url(#SVGID_1_);}
	.st1{fill:#17516B;}
	.st2{fill:#3A7289;}
	.st3{opacity:0.8;fill:#2C6477;}
	.st4{clip-path:url(#SVGID_5_);fill:#FFFFFF;}
	.st5{clip-path:url(#SVGID_5_);fill:#BD0034;}
	.st6{clip-path:url(#SVGID_5_);fill:url(#SVGID_6_);}
	.st7{clip-path:url(#SVGID_5_);fill:url(#SVGID_7_);}
	.st8{clip-path:url(#SVGID_5_);fill:url(#SVGID_8_);}
	.st9{clip-path:url(#SVGID_5_);fill:url(#SVGID_9_);}
	.st10{clip-path:url(#SVGID_5_);fill:url(#SVGID_10_);}
	.st11{clip-path:url(#SVGID_5_);fill:url(#SVGID_11_);}
	.st12{clip-path:url(#SVGID_5_);fill:url(#SVGID_12_);}
	.st13{clip-path:url(#SVGID_5_);fill:url(#SVGID_13_);}
	.st14{fill:#F2F5F7;}
	.st15{fill:#A92807;}
	.st16{fill:#1E1D22;}
	.st17{clip-path:url(#SVGID_15_);}
	.st18{fill:#FFFFFF;}
	.st19{fill:none;stroke:#F2F5F7;}
	.st20{clip-path:url(#SVGID_19_);fill:#8EA1B2;}
	.st21{clip-path:url(#SVGID_19_);fill:#A92807;}
	.st22{clip-path:url(#SVGID_19_);fill:#384657;}
	.st23{clip-path:url(#SVGID_21_);}
	.st24{fill:#8EA1B2;}
	.st25{fill:#384657;}
	.st26{clip-path:url(#SVGID_25_);fill:#384657;}
	.st27{clip-path:url(#SVGID_25_);fill:#8EA1B2;}
	.st28{clip-path:url(#SVGID_25_);fill:#A92807;}
	.st29{clip-path:url(#SVGID_27_);}
	.st30{fill:#E1E4E5;}
	.st31{clip-path:url(#SVGID_31_);fill:#384657;}
	.st32{clip-path:url(#SVGID_31_);fill:#8EA1B2;}
	.st33{clip-path:url(#SVGID_31_);fill:#A92807;}
	.st34{clip-path:url(#SVGID_33_);}
	.st35{clip-path:url(#SVGID_37_);fill:#384657;}
	.st36{clip-path:url(#SVGID_37_);fill:#8EA1B2;}
	.st37{clip-path:url(#SVGID_37_);fill:#A92807;}
	.st38{clip-path:url(#SVGID_39_);}
	.st39{fill:#2A323C;}
	.st40{fill:#1F2529;}
	.st41{fill:#96A1AB;}
	.st42{clip-path:url(#SVGID_43_);fill:#D00027;}
	.st43{clip-path:url(#SVGID_43_);}
	.st44{clip-path:url(#SVGID_45_);fill:#FFFFFF;}
	.st45{clip-path:url(#SVGID_45_);fill:#D00027;}
	.st46{clip-path:url(#SVGID_47_);}
	.st47{clip-path:url(#SVGID_51_);}
	.st48{clip-path:url(#SVGID_55_);}
	.st49{opacity:0.4;clip-path:url(#SVGID_59_);}
	.st50{clip-path:url(#SVGID_61_);fill:#FFFFFF;}
	.st51{clip-path:url(#SVGID_59_);fill:#A92807;}
	.st52{clip-path:url(#SVGID_63_);fill:#FFFFFF;}
	.st53{opacity:0.5;}
	.st54{clip-path:url(#SVGID_65_);}
	.st55{filter:url(#Adobe_OpacityMaskFilter);}
	.st56{clip-path:url(#SVGID_67_);}
	.st57{enable-background:new    ;}
	.st58{opacity:0.1412;clip-path:url(#SVGID_67_);mask:url(#SVGID_68_);}
	.st59{clip-path:url(#SVGID_72_);}
	.st60{fill:none;stroke:#FFFFFF;stroke-width:3;stroke-linecap:round;stroke-linejoin:round;stroke-miterlimit:10;}
	.st61{opacity:0.502;}
	.st62{opacity:0.7;}
	.st63{clip-path:url(#SVGID_74_);fill:#D00027;}
	.st64{clip-path:url(#SVGID_74_);}
	.st65{clip-path:url(#SVGID_76_);fill:#FFFFFF;}
	.st66{clip-path:url(#SVGID_76_);fill:#D00027;}
	.st67{clip-path:url(#SVGID_78_);}
	.st68{clip-path:url(#SVGID_82_);}
	.st69{clip-path:url(#SVGID_86_);}
	.st70{clip-path:url(#SVGID_92_);}
	.st71{filter:url(#Adobe_OpacityMaskFilter_1_);}
	.st72{clip-path:url(#SVGID_94_);}
	.st73{opacity:0.1412;clip-path:url(#SVGID_94_);mask:url(#SVGID_95_);}
	.st74{clip-path:url(#SVGID_99_);}
	.st75{clip-path:url(#SVGID_101_);fill:#D00027;}
	.st76{clip-path:url(#SVGID_101_);}
	.st77{clip-path:url(#SVGID_103_);fill:#FFFFFF;}
	.st78{clip-path:url(#SVGID_103_);fill:#D00027;}
	.st79{clip-path:url(#SVGID_105_);}
	.st80{clip-path:url(#SVGID_109_);}
	.st81{clip-path:url(#SVGID_113_);}
	.st82{opacity:0.4;clip-path:url(#SVGID_117_);}
	.st83{clip-path:url(#SVGID_119_);fill:#FFFFFF;}
	.st84{clip-path:url(#SVGID_117_);fill:#A92807;}
	.st85{clip-path:url(#SVGID_121_);fill:#FFFFFF;}
	.st86{clip-path:url(#SVGID_123_);}
	.st87{fill:none;stroke:#FFFFFF;stroke-width:0.5;stroke-miterlimit:10;}
	.st88{opacity:0;fill:#3C464F;}
	.st89{opacity:3.960396e-03;fill:#3C464F;}
	.st90{opacity:7.920792e-03;fill:#3C464F;}
	.st91{opacity:0.0119;fill:#3C464F;}
	.st92{opacity:0.0158;fill:#3C464F;}
	.st93{opacity:0.0198;fill:#3C464F;}
	.st94{opacity:0.0238;fill:#3C464F;}
	.st95{opacity:0.0277;fill:#3C464F;}
	.st96{opacity:0.0317;fill:#3C464F;}
	.st97{opacity:0.0356;fill:#3C464F;}
	.st98{opacity:0.0396;fill:#3C464F;}
	.st99{opacity:0.0436;fill:#3C464F;}
	.st100{opacity:0.0475;fill:#3C464F;}
	.st101{opacity:0.0515;fill:#3C464F;}
	.st102{opacity:0.0554;fill:#3C464F;}
	.st103{opacity:0.0594;fill:#3C464F;}
	.st104{opacity:0.0634;fill:#3C464F;}
	.st105{opacity:0.0673;fill:#3C464F;}
	.st106{opacity:0.0713;fill:#3C464F;}
	.st107{opacity:0.0752;fill:#3C464F;}
	.st108{opacity:0.0792;fill:#3C464F;}
	.st109{opacity:0.0832;fill:#3C464F;}
	.st110{opacity:0.0871;fill:#3C464F;}
	.st111{opacity:0.0911;fill:#3C464F;}
	.st112{opacity:0.095;fill:#3C464F;}
	.st113{opacity:0.099;fill:#3C464F;}
	.st114{opacity:0.103;fill:#3C464F;}
	.st115{opacity:0.1069;fill:#3C464F;}
	.st116{opacity:0.1109;fill:#3C464F;}
	.st117{opacity:0.1149;fill:#3C464F;}
	.st118{opacity:0.1188;fill:#3C464F;}
	.st119{opacity:0.1228;fill:#3C464F;}
	.st120{opacity:0.1267;fill:#3C464F;}
	.st121{opacity:0.1307;fill:#3C464F;}
	.st122{opacity:0.1347;fill:#3C464F;}
	.st123{opacity:0.1386;fill:#3C464F;}
	.st124{opacity:0.1426;fill:#3C464F;}
	.st125{opacity:0.1465;fill:#3C464F;}
	.st126{opacity:0.1505;fill:#3C464F;}
	.st127{opacity:0.1545;fill:#3C464F;}
	.st128{opacity:0.1584;fill:#3C464F;}
	.st129{opacity:0.1624;fill:#3C464F;}
	.st130{opacity:0.1663;fill:#3C464F;}
	.st131{opacity:0.1703;fill:#3C464F;}
	.st132{opacity:0.1743;fill:#3C464F;}
	.st133{opacity:0.1782;fill:#3C464F;}
	.st134{opacity:0.1822;fill:#3C464F;}
	.st135{opacity:0.1861;fill:#3C464F;}
	.st136{opacity:0.1901;fill:#3C464F;}
	.st137{opacity:0.1941;fill:#3C464F;}
	.st138{opacity:0.198;fill:#3C464F;}
	.st139{opacity:0.202;fill:#3C464F;}
	.st140{opacity:0.2059;fill:#3C464F;}
	.st141{opacity:0.2099;fill:#3C464F;}
	.st142{opacity:0.2139;fill:#3C464F;}
	.st143{opacity:0.2178;fill:#3C464F;}
	.st144{opacity:0.2218;fill:#3C464F;}
	.st145{opacity:0.2257;fill:#3C464F;}
	.st146{opacity:0.2297;fill:#3C464F;}
	.st147{opacity:0.2337;fill:#3C464F;}
	.st148{opacity:0.2376;fill:#3C464F;}
	.st149{opacity:0.2416;fill:#3C464F;}
	.st150{opacity:0.2455;fill:#3C464F;}
	.st151{opacity:0.2495;fill:#3C464F;}
	.st152{opacity:0.2535;fill:#3C464F;}
	.st153{opacity:0.2574;fill:#3C464F;}
	.st154{opacity:0.2614;fill:#3C464F;}
	.st155{opacity:0.2653;fill:#3C464F;}
	.st156{opacity:0.2693;fill:#3C464F;}
	.st157{opacity:0.2733;fill:#3C464F;}
	.st158{opacity:0.2772;fill:#3C464F;}
	.st159{opacity:0.2812;fill:#3C464F;}
	.st160{opacity:0.2851;fill:#3C464F;}
	.st161{opacity:0.2891;fill:#3C464F;}
	.st162{opacity:0.2931;fill:#3C464F;}
	.st163{opacity:0.297;fill:#3C464F;}
	.st164{opacity:0.301;fill:#3C464F;}
	.st165{opacity:0.305;fill:#3C464F;}
	.st166{opacity:0.3089;fill:#3C464F;}
	.st167{opacity:0.3129;fill:#3C464F;}
	.st168{opacity:0.3168;fill:#3C464F;}
	.st169{opacity:0.3208;fill:#3C464F;}
	.st170{opacity:0.3248;fill:#3C464F;}
	.st171{opacity:0.3287;fill:#3C464F;}
	.st172{opacity:0.3327;fill:#3C464F;}
	.st173{opacity:0.3366;fill:#3C464F;}
	.st174{opacity:0.3406;fill:#3C464F;}
	.st175{opacity:0.3446;fill:#3C464F;}
	.st176{opacity:0.3485;fill:#3C464F;}
	.st177{opacity:0.3525;fill:#3C464F;}
	.st178{opacity:0.3564;fill:#3C464F;}
	.st179{opacity:0.3604;fill:#3C464F;}
	.st180{opacity:0.3644;fill:#3C464F;}
	.st181{opacity:0.3683;fill:#3C464F;}
	.st182{opacity:0.3723;fill:#3C464F;}
	.st183{opacity:0.3762;fill:#3C464F;}
	.st184{opacity:0.3802;fill:#3C464F;}
	.st185{opacity:0.3842;fill:#3C464F;}
	.st186{opacity:0.3881;fill:#3C464F;}
	.st187{opacity:0.3921;fill:#3C464F;}
	.st188{opacity:0.396;fill:#3C464F;}
	.st189{opacity:0.4;fill:#3C464F;}
	.st190{fill:none;stroke:#7EA1B1;stroke-width:3;stroke-linecap:round;stroke-linejoin:round;}
	.st191{fill:none;stroke:#7EA1B1;stroke-width:3;stroke-linecap:round;stroke-linejoin:round;stroke-dasharray:6.859,6.859;}
	.st192{fill:none;stroke:#7EA1B1;stroke-width:3;stroke-linecap:round;stroke-linejoin:round;stroke-dasharray:7.5157,7.5157;}
	.st193{fill:none;stroke:#7EA1B1;stroke-width:3;stroke-linecap:round;stroke-linejoin:round;stroke-dasharray:8.4421,8.4421;}
	.st194{fill:none;stroke:#7EA1B1;stroke-width:3;stroke-linecap:round;stroke-linejoin:round;stroke-dasharray:8.7883,8.7883;}
	.st195{fill:none;stroke:#7EA1B1;stroke-width:3;stroke-linecap:round;stroke-linejoin:round;stroke-dasharray:8.9317,8.9317;}
	.st196{fill:none;stroke:#7EA1B1;stroke-width:3;stroke-linecap:round;stroke-linejoin:round;stroke-dasharray:7.9659,7.9659;}
	.st197{fill:none;stroke:#7EA1B1;stroke-width:3;stroke-linecap:round;stroke-linejoin:round;stroke-dasharray:8.532,8.532;}
	.st198{fill:#C5C5C5;}
	.st199{fill:none;stroke:#7EA1B1;stroke-width:3;stroke-linecap:round;stroke-linejoin:round;stroke-dasharray:5.9487,5.9487;}
	.st200{fill:none;stroke:#7EA1B1;stroke-width:3;stroke-linecap:round;stroke-linejoin:round;stroke-dasharray:8.8035,8.8035;}
	.st201{fill:none;stroke:#7EA1B1;stroke-width:3;stroke-linecap:round;stroke-linejoin:round;stroke-dasharray:8.4073,8.4073;}
	.st202{fill:none;stroke:#7EA1B1;stroke-width:3;stroke-linecap:round;stroke-linejoin:round;stroke-dasharray:6.2046,6.2046;}
	.st203{fill:none;stroke:#7EA1B1;stroke-width:3;stroke-linecap:round;stroke-linejoin:round;stroke-dasharray:7.9457,7.9457;}
	.st204{fill:none;stroke:#7EA1B1;stroke-width:3;stroke-linecap:round;stroke-linejoin:round;stroke-dasharray:8.4145,8.4145;}
	.st205{fill:none;stroke:#7EA1B1;stroke-width:3;stroke-linecap:round;stroke-linejoin:round;stroke-dasharray:7.2825,7.2825;}
	.st206{fill:none;stroke:#7EA1B1;stroke-width:3;stroke-linecap:round;stroke-linejoin:round;stroke-dasharray:7.4081,7.4081;}
	.st207{fill:none;stroke:#7EA1B1;stroke-width:3;stroke-linecap:round;stroke-linejoin:round;stroke-dasharray:8.0493,8.0493;}
	.st208{fill:none;stroke:#7EA1B1;stroke-width:3;stroke-linecap:round;stroke-linejoin:round;stroke-dasharray:8.1454,8.1454;}
	.st209{fill:none;stroke:#7EA1B1;stroke-width:3;stroke-linecap:round;stroke-linejoin:round;stroke-dasharray:8.0164,8.0164;}
	.st210{fill:#7EA1B1;}
	.st211{fill:none;stroke:#7EA1B1;stroke-width:3;stroke-linecap:round;stroke-linejoin:round;stroke-miterlimit:10;}
	.st212{fill:#2F2F2F;}
	.st213{fill:#00B5B5;}
	.st214{fill:url(#SVGID_124_);}
	.st215{fill:#12407D;}
	.st216{fill:#0D78C4;}
	.st217{fill-rule:evenodd;clip-rule:evenodd;fill:#0F53FF;}
	.st218{filter:url(#Adobe_OpacityMaskFilter_2_);}
	.st219{clip-path:url(#SVGID_128_);}
	.st220{clip-path:url(#SVGID_131_);}
	.st221{clip-path:url(#SVGID_133_);}
	.st222{clip-path:url(#SVGID_128_);mask:url(#SVGID_129_);enable-background:new    ;}
	.st223{clip-path:url(#SVGID_135_);fill-rule:evenodd;clip-rule:evenodd;fill:#0F53FF;}
	.st224{filter:url(#Adobe_OpacityMaskFilter_3_);}
	.st225{clip-path:url(#SVGID_138_);}
	.st226{clip-path:url(#SVGID_138_);fill-rule:evenodd;clip-rule:evenodd;fill:#FFFFFF;}
	.st227{clip-path:url(#SVGID_128_);mask:url(#SVGID_136_);enable-background:new    ;}
	.st228{clip-path:url(#SVGID_140_);fill-rule:evenodd;clip-rule:evenodd;fill:#0F53FF;}
	.st229{clip-path:url(#SVGID_142_);fill:url(#SVGID_143_);}
	.st230{clip-path:url(#SVGID_145_);fill:url(#SVGID_146_);}
	.st231{clip-path:url(#SVGID_148_);fill:url(#SVGID_149_);}
	.st232{clip-path:url(#SVGID_151_);fill:url(#SVGID_152_);}
	.st233{clip-path:url(#SVGID_154_);fill:url(#SVGID_155_);}
	.st234{clip-path:url(#SVGID_157_);fill:url(#SVGID_158_);}
	.st235{clip-path:url(#SVGID_160_);fill:url(#SVGID_161_);}
	.st236{clip-path:url(#SVGID_163_);fill:url(#SVGID_164_);}
	.st237{fill:url(#SVGID_165_);}
	.st238{fill:url(#SVGID_166_);}
	.st239{fill:url(#SVGID_167_);}
	.st240{fill:url(#SVGID_168_);}
	.st241{fill:url(#SVGID_169_);}
	.st242{fill:url(#SVGID_170_);}
	.st243{fill:url(#SVGID_171_);}
	.st244{fill:url(#SVGID_172_);}
	.st245{fill:url(#SVGID_173_);}
	.st246{fill:url(#SVGID_174_);}
	.st247{fill:url(#SVGID_175_);}
	.st248{fill:url(#SVGID_176_);}
	.st249{fill:url(#SVGID_177_);}
	.st250{fill:url(#SVGID_178_);}
	.st251{fill:url(#SVGID_179_);}
	.st252{fill:url(#SVGID_180_);}
	.st253{fill:url(#SVGID_181_);}
	.st254{fill:url(#SVGID_182_);}
	.st255{fill:url(#SVGID_183_);}
	.st256{fill:url(#SVGID_184_);}
	.st257{fill:url(#SVGID_185_);}
	.st258{fill:#A89968;}
	.st259{fill:url(#SVGID_186_);}
	.st260{fill:#C4001C;}
	.st261{fill:#282826;}
	.st262{fill:#2D72D7;}
	.st263{fill:#E8E8E8;}
	.st264{opacity:0.7;fill:none;stroke:#6096A5;}
	.st265{opacity:0.9;}
	.st266{fill:none;}
	.st267{fill-rule:evenodd;clip-rule:evenodd;fill:none;}
	.st268{opacity:0.62;fill:url(#SVGID_187_);}
	.st269{opacity:0.62;fill:url(#SVGID_188_);}
	.st270{opacity:0.62;fill:url(#SVGID_189_);}
	.st271{opacity:0.62;fill:url(#SVGID_190_);}
	.st272{opacity:0.62;fill:url(#SVGID_191_);}
	.st273{opacity:0.62;fill:url(#SVGID_192_);}
	.st274{fill:url(#SVGID_193_);}
	.st275{fill:url(#SVGID_194_);}
	.st276{fill:url(#SVGID_195_);}
	.st277{fill:url(#SVGID_196_);}
	.st278{fill:url(#SVGID_197_);}
	.st279{fill:url(#SVGID_198_);}
	.st280{fill:url(#SVGID_199_);}
	.st281{fill:url(#SVGID_200_);}
	.st282{fill:url(#SVGID_201_);}
	.st283{fill:url(#SVGID_202_);}
	.st284{fill:url(#SVGID_203_);}
	.st285{fill:url(#SVGID_204_);}
	.st286{fill:url(#SVGID_205_);}
	.st287{fill:url(#SVGID_206_);}
	.st288{fill:url(#SVGID_207_);}
	.st289{fill:url(#SVGID_208_);}
	.st290{fill:url(#SVGID_209_);}
	.st291{fill:url(#SVGID_210_);}
	.st292{fill:url(#SVGID_211_);}
	.st293{fill:url(#SVGID_212_);}
	.st294{fill:url(#SVGID_213_);}
	.st295{fill:url(#SVGID_214_);}
	.st296{fill:url(#SVGID_215_);}
	.st297{fill:url(#SVGID_216_);}
	.st298{fill:url(#SVGID_217_);}
	.st299{fill:url(#SVGID_218_);}
	.st300{fill:url(#SVGID_219_);}
	.st301{fill:url(#SVGID_220_);}
	.st302{fill:url(#SVGID_221_);}
	.st303{fill:url(#SVGID_222_);}
	.st304{fill:url(#SVGID_223_);}
	.st305{fill:url(#SVGID_224_);}
	.st306{fill:url(#SVGID_225_);}
	.st307{fill:url(#SVGID_226_);}
	.st308{fill:url(#SVGID_227_);}
	.st309{fill:url(#SVGID_228_);}
	.st310{fill:#0078BA;}
	.st311{fill:url(#SVGID_229_);}
	.st312{fill:url(#SVGID_230_);}
	.st313{fill:#B70000;}
	.st314{fill:url(#SVGID_231_);}
	.st315{fill:url(#SVGID_232_);}
	.st316{fill:url(#SVGID_233_);}
	.st317{fill:url(#SVGID_234_);}
	.st318{fill:url(#SVGID_235_);}
	.st319{fill:url(#SVGID_236_);}
	.st320{fill:url(#SVGID_237_);}
	.st321{fill:url(#SVGID_238_);}
	.st322{fill:none;stroke:#3F3F3F;stroke-width:0.5;stroke-miterlimit:10;}
	.st323{clip-path:url(#SVGID_256_);fill:url(#SVGID_257_);}
	.st324{clip-path:url(#SVGID_259_);fill:url(#SVGID_260_);}
	.st325{clip-path:url(#SVGID_262_);fill:url(#SVGID_263_);}
	.st326{clip-path:url(#SVGID_265_);fill:url(#SVGID_266_);}
	.st327{clip-path:url(#SVGID_268_);fill:url(#SVGID_269_);}
	.st328{clip-path:url(#SVGID_271_);fill:url(#SVGID_272_);}
	.st329{clip-path:url(#SVGID_274_);fill:url(#SVGID_275_);}
	.st330{clip-path:url(#SVGID_277_);fill:url(#SVGID_278_);}
	.st331{fill:url(#SVGID_279_);}
	.st332{fill:url(#SVGID_280_);}
	.st333{fill:url(#SVGID_281_);}
	.st334{fill:url(#SVGID_282_);}
	.st335{fill:url(#SVGID_283_);}
	.st336{fill:url(#SVGID_284_);}
	.st337{fill:url(#SVGID_285_);}
	.st338{fill:url(#SVGID_286_);}
	.st339{fill:url(#SVGID_287_);}
	.st340{fill:url(#SVGID_288_);}
	.st341{fill:url(#SVGID_289_);}
	.st342{fill:url(#SVGID_290_);}
	.st343{fill:url(#SVGID_291_);}
	.st344{fill:url(#SVGID_292_);}
	.st345{fill:url(#SVGID_293_);}
	.st346{fill:url(#SVGID_294_);}
	.st347{fill:url(#SVGID_295_);}
	.st348{fill:url(#SVGID_296_);}
	.st349{fill:url(#SVGID_297_);}
	.st350{fill:url(#SVGID_298_);}
	.st351{fill:url(#SVGID_299_);}
	.st352{fill:url(#SVGID_300_);}
	.st353{fill:url(#SVGID_301_);}
	.st354{fill:url(#SVGID_302_);}
	.st355{fill:url(#SVGID_303_);}
	.st356{fill:url(#SVGID_304_);}
	.st357{fill:url(#SVGID_305_);}
	.st358{fill:url(#SVGID_306_);}
	.st359{fill:url(#SVGID_307_);}
	.st360{filter:url(#Adobe_OpacityMaskFilter_4_);}
	.st361{clip-path:url(#SVGID_325_);}
	.st362{clip-path:url(#SVGID_328_);}
	.st363{clip-path:url(#SVGID_330_);}
	.st364{clip-path:url(#SVGID_325_);mask:url(#SVGID_326_);enable-background:new    ;}
	.st365{clip-path:url(#SVGID_332_);fill-rule:evenodd;clip-rule:evenodd;fill:#0F53FF;}
	.st366{filter:url(#Adobe_OpacityMaskFilter_5_);}
	.st367{clip-path:url(#SVGID_335_);}
	.st368{clip-path:url(#SVGID_335_);fill-rule:evenodd;clip-rule:evenodd;fill:#FFFFFF;}
	.st369{clip-path:url(#SVGID_325_);mask:url(#SVGID_333_);enable-background:new    ;}
	.st370{clip-path:url(#SVGID_337_);fill-rule:evenodd;clip-rule:evenodd;fill:#0F53FF;}
	.st371{clip-path:url(#SVGID_339_);fill:url(#SVGID_340_);}
	.st372{clip-path:url(#SVGID_342_);fill:url(#SVGID_343_);}
	.st373{clip-path:url(#SVGID_345_);fill:url(#SVGID_346_);}
	.st374{clip-path:url(#SVGID_348_);fill:url(#SVGID_349_);}
	.st375{clip-path:url(#SVGID_351_);fill:url(#SVGID_352_);}
	.st376{clip-path:url(#SVGID_354_);fill:url(#SVGID_355_);}
	.st377{clip-path:url(#SVGID_357_);fill:url(#SVGID_358_);}
	.st378{clip-path:url(#SVGID_360_);fill:url(#SVGID_361_);}
	.st379{fill:url(#SVGID_362_);}
	.st380{fill:url(#SVGID_363_);}
	.st381{fill:url(#SVGID_364_);}
	.st382{fill:url(#SVGID_365_);}
	.st383{fill:url(#SVGID_366_);}
	.st384{fill:url(#SVGID_367_);}
	.st385{fill:url(#SVGID_368_);}
	.st386{fill:url(#SVGID_369_);}
	.st387{fill:url(#SVGID_370_);}
	.st388{fill:url(#SVGID_371_);}
	.st389{fill:url(#SVGID_372_);}
	.st390{fill:url(#SVGID_373_);}
	.st391{fill:url(#SVGID_374_);}
	.st392{fill:url(#SVGID_375_);}
	.st393{fill:url(#SVGID_376_);}
	.st394{fill:url(#SVGID_377_);}
	.st395{fill:url(#SVGID_378_);}
	.st396{fill:url(#SVGID_379_);}
	.st397{fill:url(#SVGID_380_);}
	.st398{fill:url(#SVGID_381_);}
	.st399{fill:url(#SVGID_382_);}
	.st400{fill:url(#SVGID_383_);}
	.st401{fill:url(#SVGID_384_);}
	.st402{fill:url(#SVGID_385_);}
	.st403{fill:url(#SVGID_386_);}
	.st404{fill:url(#SVGID_387_);}
	.st405{fill:url(#SVGID_388_);}
	.st406{fill:url(#SVGID_389_);}
	.st407{fill:url(#SVGID_390_);}
	.st408{fill:url(#SVGID_391_);}
	.st409{fill:url(#SVGID_392_);}
	.st410{fill:url(#SVGID_393_);}
	.st411{fill:url(#SVGID_394_);}
	.st412{fill:url(#SVGID_395_);}
	.st413{fill:url(#SVGID_396_);}
	.st414{fill:url(#SVGID_397_);}
	.st415{fill:url(#SVGID_398_);}
	.st416{fill:url(#SVGID_399_);}
	.st417{fill:url(#SVGID_400_);}
	.st418{fill:url(#SVGID_401_);}
	.st419{fill:url(#SVGID_402_);}
	.st420{fill:url(#SVGID_403_);}
	.st421{fill:url(#SVGID_404_);}
	.st422{fill:url(#SVGID_405_);}
	.st423{fill:url(#SVGID_406_);}
	.st424{fill:url(#SVGID_407_);}
	.st425{fill:url(#SVGID_408_);}
	.st426{fill:url(#SVGID_409_);}
	.st427{fill:url(#SVGID_410_);}
	.st428{fill:url(#SVGID_411_);}
	.st429{fill:url(#SVGID_412_);}
	.st430{fill:url(#SVGID_413_);}
	.st431{fill:url(#SVGID_414_);}
	.st432{fill:url(#SVGID_415_);}
</style>
<g>
	<g>
		<path class="st261" d="M5.62,21.55V11.23l14.1,12.75h1.39V0.26h-3.24c-1.63,0-2.42,0.79-2.42,2.42v10.53L1.4,0.26H0v23.72h3.2
			C4.83,23.98,5.62,23.18,5.62,21.55z"/>
		<path class="st261" d="M36.23,23.98c1.63,0,2.42-0.79,2.42-2.42V15l0.03-0.05l9.18-14.68h-4.71c-1.31,0-2.28,0.56-2.95,1.71
			l-4.41,7.48l-4.35-7.48c-0.66-1.15-1.62-1.71-2.94-1.71h-4.57l9.04,14.7v9.01H36.23z"/>
		<path class="st261" d="M68.59,0.26H50.55v23.72h3.21c1.63,0,2.42-0.79,2.42-2.42v-6.78h7.29c1.62,0,2.41-0.79,2.41-2.42V9.83h-9.7
			V5.2h9.99c1.63,0,2.42-0.79,2.42-2.42V0.26z"/>
	</g>
	<g>
		<path class="st261" d="M4.4,27.66v0.46c0,0.35-0.17,0.52-0.52,0.52H2.75v4.26c0,0.35-0.17,0.52-0.52,0.52H1.66v-4.78H0v-0.46
			c0-0.35,0.17-0.52,0.52-0.52H4.4z"/>
		<path class="st261" d="M6.36,31.59v1.31c0,0.35-0.17,0.52-0.52,0.52H5.27v-5.75h2.61c0.59,0,1.06,0.18,1.43,0.55
			c0.37,0.37,0.55,0.85,0.55,1.43c0,0.44-0.11,0.83-0.33,1.17c-0.22,0.34-0.51,0.56-0.86,0.66l1.43,1.93H9.18
			c-0.26,0-0.47-0.11-0.63-0.32l-1.1-1.51H6.36z M6.36,30.63h1.25c0.77,0,1.15-0.33,1.15-0.99c0-0.3-0.09-0.54-0.28-0.72
			C8.29,28.73,8,28.64,7.61,28.64H6.36V30.63z"/>
		<path class="st261" d="M11.64,33.04c-0.12,0.25-0.33,0.38-0.61,0.38h-0.77l2.94-5.75h0.11l2.94,5.75h-0.77
			c-0.29,0-0.49-0.12-0.61-0.38l-0.26-0.53h-2.71L11.64,33.04z M13.25,29.82l-0.82,1.74h1.64L13.25,29.82z"/>
		<path class="st261" d="M16.92,33.42v-5.75h2.27c0.91,0,1.62,0.26,2.12,0.77c0.51,0.51,0.76,1.21,0.76,2.11
			c0,0.89-0.25,1.59-0.75,2.11c-0.5,0.51-1.21,0.77-2.13,0.77H16.92z M18.02,32.43h1.17c1.18,0,1.78-0.63,1.78-1.88
			c0-1.26-0.59-1.89-1.78-1.89h-1.17V32.43z"/>
		<path class="st261" d="M23.67,27.66c0.35,0,0.52,0.17,0.52,0.52v5.23h-0.58c-0.35,0-0.52-0.17-0.52-0.52v-5.23H23.67z"/>
		<path class="st261" d="M30.52,33.42h-0.11L26.62,30v2.9c0,0.35-0.17,0.52-0.52,0.52h-0.57v-5.75h0.12l3.78,3.48v-2.96
			c0-0.35,0.17-0.52,0.52-0.52h0.58V33.42z"/>
		<path class="st261" d="M37.34,30.27c0.02,0.3,0.02,0.55,0,0.74c-0.06,0.74-0.35,1.35-0.86,1.82c-0.51,0.47-1.17,0.7-1.96,0.7
			c-0.85,0-1.58-0.29-2.17-0.87c-0.59-0.58-0.88-1.28-0.88-2.11c0-0.82,0.29-1.53,0.87-2.11c0.58-0.58,1.28-0.88,2.11-0.88
			c0.51,0,0.98,0.12,1.42,0.36c0.43,0.24,0.79,0.56,1.06,0.97l-0.52,0.32c-0.24,0.15-0.48,0.12-0.72-0.11
			c-0.38-0.34-0.79-0.51-1.24-0.51c-0.52,0-0.97,0.19-1.34,0.56c-0.37,0.37-0.55,0.84-0.55,1.39c0,0.56,0.19,1.03,0.57,1.4
			c0.38,0.37,0.85,0.56,1.42,0.56c0.43,0,0.8-0.12,1.1-0.35c0.3-0.24,0.47-0.53,0.52-0.89h-1.6c-0.35,0-0.52-0.17-0.52-0.52v-0.47
			H37.34z"/>
		<path class="st261" d="M40.52,33.42v-5.75h4.23v0.49c0,0.33-0.17,0.49-0.52,0.49h-2.61v1.44h2.47v0.45c0,0.35-0.17,0.52-0.52,0.52
			h-1.95v1.39h2.61c0.15,0,0.28,0.05,0.38,0.15c0.1,0.1,0.15,0.23,0.15,0.38v0.45H40.52z"/>
		<path class="st261" d="M45.44,33.42l2.14-2.84l-2.18-2.91h0.97c0.27,0,0.48,0.11,0.64,0.32l1.26,1.75l1.26-1.75
			c0.15-0.21,0.36-0.32,0.64-0.32h0.97l-2.18,2.91l2.14,2.84H50.1c-0.27,0-0.48-0.11-0.63-0.32l-1.21-1.68l-1.21,1.68
			c-0.15,0.21-0.36,0.32-0.63,0.32H45.44z"/>
		<path class="st261" d="M56.07,29.37c-0.2,0.08-0.4,0.03-0.58-0.17c-0.36-0.41-0.81-0.61-1.35-0.61c-0.52,0-0.96,0.19-1.33,0.58
			c-0.37,0.39-0.55,0.84-0.55,1.38c0,0.54,0.18,1,0.55,1.38c0.37,0.38,0.81,0.57,1.33,0.57c0.55,0,1-0.2,1.35-0.6
			c0.17-0.2,0.36-0.26,0.58-0.17l0.68,0.27c-0.22,0.46-0.56,0.83-1.01,1.11c-0.45,0.28-0.98,0.41-1.59,0.41
			c-0.83,0-1.53-0.29-2.11-0.86c-0.58-0.57-0.87-1.28-0.87-2.12c0-0.83,0.29-1.54,0.87-2.11c0.58-0.58,1.28-0.86,2.11-0.86
			c0.61,0,1.14,0.14,1.59,0.43c0.45,0.29,0.79,0.65,1.01,1.09L56.07,29.37z"/>
		<path class="st261" d="M57.6,33.42v-5.75h4.23v0.49c0,0.33-0.17,0.49-0.52,0.49h-2.61v1.44h2.47v0.45c0,0.35-0.17,0.52-0.52,0.52
			h-1.95v1.39h2.61c0.15,0,0.28,0.05,0.38,0.15c0.1,0.1,0.15,0.23,0.15,0.38v0.45H57.6z"/>
		<path class="st261" d="M64.06,32.44h2.52c0.35,0,0.52,0.17,0.52,0.52v0.46h-4.14v-5.75h0.58c0.35,0,0.52,0.17,0.52,0.52V32.44z"/>
		<path class="st261" d="M68.89,32.44h2.52c0.35,0,0.52,0.17,0.52,0.52v0.46h-4.14v-5.75h0.58c0.35,0,0.52,0.17,0.52,0.52V32.44z"/>
		<path class="st261" d="M72.62,33.42v-5.75h4.23v0.49c0,0.33-0.17,0.49-0.52,0.49h-2.61v1.44h2.47v0.45c0,0.35-0.17,0.52-0.52,0.52
			h-1.95v1.39h2.61c0.15,0,0.28,0.05,0.38,0.15c0.1,0.1,0.15,0.23,0.15,0.38v0.45H72.62z"/>
		<path class="st261" d="M82.99,33.42h-0.11L79.08,30v2.9c0,0.35-0.17,0.52-0.52,0.52h-0.57v-5.75h0.12l3.78,3.48v-2.96
			c0-0.35,0.17-0.52,0.52-0.52h0.58V33.42z"/>
		<path class="st261" d="M88.83,29.37c-0.2,0.08-0.4,0.03-0.58-0.17c-0.36-0.41-0.81-0.61-1.35-0.61c-0.52,0-0.96,0.19-1.33,0.58
			c-0.37,0.39-0.55,0.84-0.55,1.38c0,0.54,0.18,1,0.55,1.38c0.37,0.38,0.81,0.57,1.33,0.57c0.55,0,1-0.2,1.35-0.6
			c0.17-0.2,0.36-0.26,0.58-0.17l0.68,0.27c-0.22,0.46-0.56,0.83-1.01,1.11c-0.45,0.28-0.98,0.41-1.59,0.41
			c-0.83,0-1.53-0.29-2.11-0.86c-0.58-0.57-0.87-1.28-0.87-2.12c0-0.83,0.29-1.54,0.87-2.11c0.58-0.58,1.28-0.86,2.11-0.86
			c0.61,0,1.14,0.14,1.59,0.43c0.45,0.29,0.79,0.65,1.01,1.09L88.83,29.37z"/>
		<path class="st261" d="M90.36,33.42v-5.75h4.23v0.49c0,0.33-0.17,0.49-0.52,0.49h-2.61v1.44h2.47v0.45c0,0.35-0.17,0.52-0.52,0.52
			h-1.95v1.39h2.61c0.15,0,0.28,0.05,0.38,0.15c0.1,0.1,0.15,0.23,0.15,0.38v0.45H90.36z"/>
	</g>
	<path class="st261" d="M86.51,1.42L70.69,24.34l5.63-0.11c1.09,0,1.9-0.43,2.47-1.31L94.58,0l-5.57,0.11
		C87.89,0.11,87.08,0.54,86.51,1.42z"/>
	<path class="st261" d="M81.89,1.97l-4.58,6.65c-0.3,0.66-1.34,0.66-1.83-0.05l-4.58-6.65C70.35,1.11,70.93,0,71.92,0h9.15
		C82.06,0,82.64,1.11,81.89,1.97z"/>
	<path class="st262" d="M83.96,22.55l4.27-6.2c0.45-0.66,1.43-0.66,1.88,0l4.27,6.2c0.52,0.76-0.02,1.79-0.94,1.79H84.9
		C83.98,24.34,83.44,23.31,83.96,22.55z"/>
</g>
<g>
	<g>
		<path class="st262" d="M11.37,45.53c-0.39-0.23-0.69-0.55-0.9-0.96c-0.21-0.42-0.32-0.9-0.32-1.44v-2.02
			c0-0.55,0.11-1.03,0.32-1.44c0.21-0.42,0.51-0.74,0.9-0.97c0.39-0.23,0.83-0.34,1.35-0.34c0.42,0,0.81,0.09,1.17,0.27
			c0.36,0.18,0.65,0.44,0.89,0.77c0.24,0.33,0.4,0.72,0.48,1.15h-1.06c-0.06-0.23-0.17-0.44-0.32-0.62s-0.33-0.32-0.53-0.42
			c-0.2-0.1-0.41-0.15-0.63-0.15c-0.3,0-0.56,0.07-0.79,0.22c-0.23,0.15-0.4,0.35-0.53,0.61c-0.12,0.26-0.19,0.57-0.19,0.92v2.02
			c0,0.34,0.06,0.65,0.19,0.91s0.3,0.47,0.53,0.61s0.49,0.22,0.79,0.22c0.22,0,0.43-0.05,0.63-0.14s0.38-0.23,0.53-0.41
			s0.26-0.39,0.32-0.64h1.06c-0.08,0.44-0.25,0.82-0.49,1.15c-0.24,0.33-0.54,0.59-0.89,0.77c-0.35,0.18-0.74,0.27-1.16,0.27
			C12.2,45.87,11.75,45.75,11.37,45.53z"/>
		<path class="st262" d="M21.85,38.42h0.88l2.72,7.37h-1.12l-2.04-5.95l-2.04,5.95h-1.12L21.85,38.42z M20.38,43.19h3.88v0.98h-3.88
			V43.19z"/>
		<path class="st262" d="M34.98,38.42h0.97v7.37h-1.01v-5.52l0.05,0.32l-1.82,4.17h-0.72l-1.82-4.07l0.05-0.43v5.52h-1.01v-7.37
			h0.97l2.17,4.87L34.98,38.42z"/>
		<path class="st262" d="M40.89,38.42h1.03v7.37h-1.03V38.42z M41.49,44.83h2c0.52,0,0.91-0.1,1.15-0.3
			c0.24-0.2,0.36-0.48,0.36-0.84v-0.02c0-0.25-0.04-0.46-0.13-0.64s-0.22-0.32-0.41-0.41c-0.19-0.1-0.42-0.14-0.71-0.14h-2.25v-0.93
			h2.25c0.38,0,0.67-0.09,0.86-0.27s0.29-0.44,0.29-0.8c0-0.37-0.11-0.64-0.33-0.83c-0.22-0.18-0.54-0.27-0.97-0.27h-2.11v-0.96h2.3
			c0.48,0,0.88,0.08,1.2,0.24s0.56,0.39,0.72,0.69c0.16,0.3,0.24,0.65,0.24,1.06c0,0.25-0.05,0.49-0.15,0.71
			c-0.1,0.22-0.25,0.41-0.45,0.57s-0.45,0.26-0.75,0.32c0.3,0.04,0.55,0.15,0.77,0.32c0.22,0.17,0.38,0.38,0.5,0.63
			c0.12,0.25,0.17,0.52,0.17,0.81v0.02c0,0.4-0.09,0.75-0.26,1.05s-0.43,0.54-0.76,0.7c-0.33,0.17-0.71,0.25-1.15,0.25h-2.38V44.83z
			"/>
		<path class="st262" d="M51.78,45.53c-0.39-0.22-0.7-0.54-0.91-0.95c-0.21-0.41-0.32-0.89-0.32-1.43v-2.09
			c0-0.54,0.11-1.02,0.32-1.43c0.21-0.41,0.52-0.73,0.91-0.95c0.39-0.22,0.85-0.34,1.36-0.34s0.97,0.11,1.36,0.34
			c0.39,0.23,0.7,0.54,0.91,0.95c0.21,0.41,0.32,0.89,0.32,1.43v2.09c0,0.54-0.11,1.02-0.32,1.43c-0.21,0.41-0.52,0.73-0.91,0.95
			c-0.39,0.23-0.84,0.34-1.36,0.34S52.18,45.75,51.78,45.53z M53.95,44.64c0.23-0.14,0.41-0.33,0.54-0.58s0.19-0.54,0.19-0.87v-2.16
			c0-0.33-0.06-0.62-0.19-0.87c-0.13-0.25-0.31-0.45-0.54-0.58c-0.23-0.14-0.5-0.21-0.8-0.21c-0.3,0-0.57,0.07-0.8,0.21
			c-0.23,0.14-0.41,0.33-0.54,0.58c-0.13,0.25-0.19,0.54-0.19,0.87v2.16c0,0.33,0.06,0.62,0.19,0.87c0.13,0.25,0.31,0.45,0.54,0.58
			s0.5,0.21,0.8,0.21C53.45,44.85,53.71,44.78,53.95,44.64z"/>
		<path class="st262" d="M60.52,38.42h1.03v7.37h-1.03V38.42z M61.22,44.81h1.67c0.54,0,0.97-0.14,1.27-0.42
			c0.3-0.28,0.45-0.68,0.45-1.19v-2.17c0-0.51-0.15-0.91-0.45-1.19c-0.3-0.28-0.72-0.42-1.27-0.42h-1.67v-0.98h1.64
			c0.59,0,1.1,0.1,1.52,0.31c0.42,0.21,0.74,0.51,0.96,0.9s0.33,0.87,0.33,1.43v2.09c0,0.56-0.11,1.03-0.33,1.43s-0.54,0.7-0.96,0.9
			c-0.42,0.21-0.93,0.31-1.52,0.31h-1.63V44.81z"/>
		<path class="st262" d="M71.49,45.79h-1.03v-7.37h1.03V45.79z"/>
		<path class="st262" d="M78.43,38.42h0.88l2.72,7.37h-1.12l-2.04-5.95l-2.04,5.95h-1.12L78.43,38.42z M76.97,43.19h3.88v0.98h-3.88
			V43.19z"/>
	</g>
</g>
</svg>
