<svg xmlns="http://www.w3.org/2000/svg" viewBox="0 0 42.8 42.8"><g id="Layer_2" data-name="Layer 2"><g id="Layer_1-2" data-name="Layer 1"><path d="M29.78,22.23a.83.83,0,0,0,.83-.83.84.84,0,0,0-.83-.84h-3V19h1.7a.83.83,0,0,0,.83-.83.84.84,0,0,0-.83-.84h-1.7V16.8A.83.83,0,0,0,26,16h-.51v-1.7a.84.84,0,0,0-.84-.83.83.83,0,0,0-.83.83V16H22.23V13a.83.83,0,0,0-.83-.83.84.84,0,0,0-.84.83v3H19v-1.7a.83.83,0,0,0-.83-.83.84.84,0,0,0-.84.83V16H16.8a.83.83,0,0,0-.83.83v.52h-1.7a.84.84,0,0,0-.83.84.83.83,0,0,0,.83.83H16v1.57H13a.84.84,0,0,0-.83.84.83.83,0,0,0,.83.83h3v1.58h-1.7a.83.83,0,0,0-.83.83.84.84,0,0,0,.83.84H16V26a.83.83,0,0,0,.83.84h.52v1.7a.84.84,0,0,0,.84.83.83.83,0,0,0,.83-.83v-1.7h1.57v3a.84.84,0,0,0,.84.83.83.83,0,0,0,.83-.83v-3h1.58v1.7a.83.83,0,0,0,.83.83.84.84,0,0,0,.84-.83v-1.7H26a.83.83,0,0,0,.84-.84v-.51h1.7a.84.84,0,0,0,.83-.84.83.83,0,0,0-.83-.83h-1.7V22.23ZM17.64,25.16V17.64h7.52v7.52Z"/><path d="M40,18.56a2.84,2.84,0,0,0-2.71,2H34v-.1a.84.84,0,0,0-1.67.12,10.91,10.91,0,1,1-2.61-6.3.84.84,0,0,0,1.27-1.09l-.07-.08,2.33-2.32a2.83,2.83,0,0,0,1.32.32,2.84,2.84,0,1,0,0-5.67,2.85,2.85,0,0,0-2.84,2.83A2.85,2.85,0,0,0,32,9.6l-2.32,2.33a12.54,12.54,0,0,0-7.46-3.09V5.55a2.84,2.84,0,1,0-1.67,0V8.84a12.71,12.71,0,0,0-7.45,3.09L10.79,9.6a2.84,2.84,0,0,0,.32-1.33,2.84,2.84,0,0,0-4.84-2,2.84,2.84,0,0,0,2,4.84,2.84,2.84,0,0,0,1.33-.32l2.33,2.33a12.66,12.66,0,0,0-3.08,7.44H5.55a2.85,2.85,0,1,0,0,1.67h3.3a12.62,12.62,0,0,0,3.08,7.45L9.6,32a2.85,2.85,0,0,0-1.33-.33,2.84,2.84,0,1,0,2.84,2.84,2.83,2.83,0,0,0-.32-1.32l2.33-2.34A12.67,12.67,0,0,0,20.56,34v3.3a2.85,2.85,0,1,0,1.67,0V34a12.68,12.68,0,0,0,7.46-3.08L32,33.2a2.84,2.84,0,0,0-.33,1.32,2.81,2.81,0,0,0,.84,2,2.84,2.84,0,0,0,4,0h0a2.85,2.85,0,0,0-2-4.85A2.84,2.84,0,0,0,33.2,32l-2.33-2.32A12.58,12.58,0,0,0,34,22.23h3.29A2.84,2.84,0,1,0,40,18.56ZM33.7,7.45a1.17,1.17,0,1,1-.34.82,1.15,1.15,0,0,1,.34-.82ZM20.23,2.84A1.17,1.17,0,1,1,21.4,4a1.18,1.18,0,0,1-1.17-1.17ZM9.1,9.1a1.17,1.17,0,1,1,.34-.83,1.16,1.16,0,0,1-.34.83ZM2.84,22.57A1.17,1.17,0,1,1,4,21.4a1.18,1.18,0,0,1-1.17,1.17ZM9.1,35.35a1.17,1.17,0,1,1,.34-.83,1.16,1.16,0,0,1-.34.83ZM22.57,40a1.17,1.17,0,1,1-1.17-1.17A1.18,1.18,0,0,1,22.57,40ZM33.7,33.7a1.17,1.17,0,1,1-.34.82,1.15,1.15,0,0,1,.34-.82ZM40,22.57a1.17,1.17,0,1,1,1.17-1.17A1.18,1.18,0,0,1,40,22.57Z"/><path d="M31.88,16.16a.83.83,0,0,0-.38,1.12h0a.84.84,0,0,0,.75.46.81.81,0,0,0,.37-.09.83.83,0,1,0-.74-1.49Z"/></g></g></svg>