<svg xmlns="http://www.w3.org/2000/svg" viewBox="0 0 43.17 43.17"><g id="Layer_2" data-name="Layer 2"><g id="Layer_1-2" data-name="Layer 1"><path d="M21.59,39.57a18,18,0,1,1,18-18,18,18,0,0,1-18,18Zm0-34.17A16.19,16.19,0,1,0,37.77,21.59,16.12,16.12,0,0,0,21.59,5.4Z"/><path d="M21.59,9a.85.85,0,0,1-.9-.9V.9a.9.9,0,1,1,1.79,0V8.09a.85.85,0,0,1-.89.9Z"/><path d="M21.59,9a.85.85,0,0,1-.9-.9V.9a.9.9,0,1,1,1.79,0V8.09a.85.85,0,0,1-.89.9Z"/><path d="M42.27,22.48H35.08a.9.9,0,1,1,0-1.79h7.19a.9.9,0,1,1,0,1.79Z"/><path d="M21.59,43.17a.85.85,0,0,1-.9-.9V35.08a.9.9,0,1,1,1.79,0v7.19a.85.85,0,0,1-.89.9Z"/><path d="M8.09,22.48H.9a.9.9,0,1,1,0-1.79H8.09a.9.9,0,1,1,0,1.79Z"/><path d="M21.59,19.79a3.6,3.6,0,1,1,3.59-3.6,3.61,3.61,0,0,1-3.59,3.6Zm0-5.4a1.7,1.7,0,0,0-1.8,1.8,1.8,1.8,0,1,0,3.59,0,1.7,1.7,0,0,0-1.79-1.8Z"/><path d="M27.88,28.78a.85.85,0,0,1-.9-.9v-1.8a2.77,2.77,0,0,0-2.7-2.7H18.89a2.77,2.77,0,0,0-2.7,2.7v1.8a.9.9,0,1,1-1.8,0v-1.8a4.45,4.45,0,0,1,4.5-4.49h5.39a4.45,4.45,0,0,1,4.5,4.49v1.8a.85.85,0,0,1-.9.9Z"/></g></g></svg>