<?xml version="1.0" encoding="utf-8"?>
<!-- Generator: Adobe Illustrator 23.0.0, SVG Export Plug-In . SVG Version: 6.00 Build 0)  -->
<svg version="1.0" id="Layer_1" xmlns="http://www.w3.org/2000/svg" xmlns:xlink="http://www.w3.org/1999/xlink" x="0px" y="0px"
	 viewBox="0 0 97.37 97.34" style="enable-background:new 0 0 97.37 97.34;" xml:space="preserve">
<style type="text/css">
	.st0{fill:#F2F5F7;}
	.st1{fill:#A92807;}
	.st2{fill:#1E1D22;}
	.st3{clip-path:url(#SVGID_2_);}
	.st4{fill:#FFFFFF;}
	.st5{fill:none;stroke:#F2F5F7;}
	.st6{fill:#2A323C;}
	.st7{fill:#1F2529;}
	.st8{fill:#96A1AB;}
	.st9{fill:#8EA1B2;}
	.st10{clip-path:url(#SVGID_6_);fill:#D00027;}
	.st11{clip-path:url(#SVGID_6_);}
	.st12{clip-path:url(#SVGID_8_);fill:#FFFFFF;}
	.st13{clip-path:url(#SVGID_8_);fill:#D00027;}
	.st14{clip-path:url(#SVGID_10_);fill:#FFFFFF;}
	.st15{clip-path:url(#SVGID_10_);fill:#BD0034;}
	.st16{clip-path:url(#SVGID_10_);fill:#1A237B;}
	.st17{clip-path:url(#SVGID_12_);}
	.st18{clip-path:url(#SVGID_16_);}
	.st19{clip-path:url(#SVGID_20_);}
	.st20{opacity:0.4;clip-path:url(#SVGID_24_);}
	.st21{clip-path:url(#SVGID_26_);fill:#FFFFFF;}
	.st22{clip-path:url(#SVGID_24_);fill:#A92807;}
	.st23{clip-path:url(#SVGID_28_);fill:#FFFFFF;}
	.st24{opacity:0.8;}
	.st25{clip-path:url(#SVGID_30_);}
	.st26{filter:url(#Adobe_OpacityMaskFilter);}
	.st27{clip-path:url(#SVGID_32_);}
	.st28{enable-background:new    ;}
	.st29{opacity:0.1412;clip-path:url(#SVGID_32_);mask:url(#SVGID_33_);}
	.st30{clip-path:url(#SVGID_37_);}
	.st31{clip-path:url(#SVGID_39_);fill:url(#SVGID_40_);}
	.st32{fill:#C4001C;}
	.st33{clip-path:url(#SVGID_42_);}
	.st34{clip-path:url(#SVGID_46_);}
	.st35{opacity:0.74;clip-path:url(#SVGID_50_);}
	.st36{clip-path:url(#SVGID_52_);}
	.st37{clip-path:url(#SVGID_54_);}
	.st38{clip-path:url(#SVGID_58_);fill:#8EA1B2;}
	.st39{clip-path:url(#SVGID_58_);fill:#A92807;}
	.st40{clip-path:url(#SVGID_58_);fill:#384657;}
	.st41{clip-path:url(#SVGID_60_);}
	.st42{fill:#384657;}
	.st43{clip-path:url(#SVGID_64_);fill:#384657;}
	.st44{clip-path:url(#SVGID_64_);fill:#8EA1B2;}
	.st45{clip-path:url(#SVGID_64_);fill:#A92807;}
	.st46{clip-path:url(#SVGID_66_);}
	.st47{fill:#E1E4E5;}
	.st48{clip-path:url(#SVGID_70_);fill:#384657;}
	.st49{clip-path:url(#SVGID_70_);fill:#8EA1B2;}
	.st50{clip-path:url(#SVGID_70_);fill:#A92807;}
	.st51{clip-path:url(#SVGID_72_);}
	.st52{clip-path:url(#SVGID_76_);fill:#384657;}
	.st53{clip-path:url(#SVGID_76_);fill:#8EA1B2;}
	.st54{clip-path:url(#SVGID_76_);fill:#A92807;}
	.st55{clip-path:url(#SVGID_78_);}
	.st56{opacity:0.6;}
	.st57{clip-path:url(#SVGID_82_);fill:#FFFFFF;}
	.st58{clip-path:url(#SVGID_84_);fill:#FFFFFF;}
	.st59{clip-path:url(#SVGID_86_);fill:#D00027;}
	.st60{clip-path:url(#SVGID_86_);}
	.st61{clip-path:url(#SVGID_88_);fill:#FFFFFF;}
	.st62{clip-path:url(#SVGID_88_);fill:#D00027;}
	.st63{clip-path:url(#SVGID_90_);}
	.st64{clip-path:url(#SVGID_94_);}
	.st65{clip-path:url(#SVGID_98_);}
	.st66{opacity:0.4;clip-path:url(#SVGID_102_);}
	.st67{clip-path:url(#SVGID_104_);fill:#FFFFFF;}
	.st68{clip-path:url(#SVGID_102_);fill:#A92807;}
	.st69{clip-path:url(#SVGID_106_);fill:#FFFFFF;}
	.st70{opacity:0.5;}
	.st71{clip-path:url(#SVGID_108_);}
	.st72{filter:url(#Adobe_OpacityMaskFilter_1_);}
	.st73{clip-path:url(#SVGID_110_);}
	.st74{opacity:0.1412;clip-path:url(#SVGID_110_);mask:url(#SVGID_111_);}
	.st75{clip-path:url(#SVGID_115_);}
	.st76{fill:none;stroke:#FFFFFF;stroke-width:3;stroke-linecap:round;stroke-linejoin:round;stroke-miterlimit:10;}
	.st77{opacity:0.502;}
	.st78{opacity:0.7;}
	.st79{clip-path:url(#SVGID_123_);fill:#D00027;}
	.st80{clip-path:url(#SVGID_123_);}
	.st81{clip-path:url(#SVGID_125_);fill:#FFFFFF;}
	.st82{clip-path:url(#SVGID_125_);fill:#D00027;}
	.st83{clip-path:url(#SVGID_127_);}
	.st84{clip-path:url(#SVGID_131_);}
	.st85{clip-path:url(#SVGID_135_);}
	.st86{clip-path:url(#SVGID_141_);}
	.st87{filter:url(#Adobe_OpacityMaskFilter_2_);}
	.st88{clip-path:url(#SVGID_143_);}
	.st89{opacity:0.1412;clip-path:url(#SVGID_143_);mask:url(#SVGID_144_);}
	.st90{clip-path:url(#SVGID_148_);}
	.st91{clip-path:url(#SVGID_150_);fill:#D00027;}
	.st92{clip-path:url(#SVGID_150_);}
	.st93{clip-path:url(#SVGID_152_);fill:#FFFFFF;}
	.st94{clip-path:url(#SVGID_152_);fill:#D00027;}
	.st95{clip-path:url(#SVGID_154_);}
	.st96{clip-path:url(#SVGID_158_);}
	.st97{clip-path:url(#SVGID_162_);}
	.st98{opacity:0.4;clip-path:url(#SVGID_166_);}
	.st99{clip-path:url(#SVGID_168_);fill:#FFFFFF;}
	.st100{clip-path:url(#SVGID_166_);fill:#A92807;}
	.st101{clip-path:url(#SVGID_170_);fill:#FFFFFF;}
	.st102{clip-path:url(#SVGID_172_);}
	.st103{fill:none;stroke:#FFFFFF;stroke-width:0.5;stroke-miterlimit:10;}
</style>
<g class="st78">
	<path class="st4" d="M95.98,25.55l-6.29-0.9c-0.88-0.13-1.5-0.94-1.37-1.83c0.06-0.42,0.29-0.81,0.63-1.06l5.08-3.81
		c0.71-0.54,0.86-1.55,0.32-2.26l-5.82-7.76c-0.54-0.71-1.55-0.86-2.26-0.32v0l-5.08,3.81c-0.71,0.54-1.72,0.4-2.26-0.31
		c-0.26-0.35-0.37-0.78-0.31-1.21l0.9-6.29c0.13-0.88-0.49-1.7-1.37-1.83c0,0,0,0,0,0l-9.59-1.37c-0.88-0.13-1.7,0.49-1.83,1.37
		c0,0,0,0,0,0l-0.9,6.29c-0.13,0.88-0.94,1.5-1.83,1.37c-0.42-0.06-0.81-0.29-1.06-0.63l-3.81-5.08c-0.54-0.71-1.55-0.86-2.26-0.32
		v0l-4.86,3.64c-2.2-0.23-4.41-0.23-6.61,0C31.02,8.7,19.74,20.17,18.34,34.58c-0.04,0.46-0.06,0.91-0.08,1.37h-0.48
		c-0.77,0-1.43,0.54-1.58,1.29l-1.12,5.31l-4.47-3.08c-0.64-0.44-1.51-0.36-2.06,0.19L3.7,44.5c-0.55,0.55-0.63,1.42-0.19,2.06
		l3.07,4.46l-5.31,1.12C0.53,52.3,0,52.96,0,53.72v6.46c0,0.76,0.53,1.42,1.28,1.58l5.31,1.12l-3.07,4.46
		c-0.44,0.64-0.36,1.51,0.19,2.06l4.85,4.85c0.55,0.55,1.42,0.63,2.06,0.19l4.46-3.08l1.12,5.31c0.15,0.75,0.81,1.29,1.58,1.29h6.46
		c0.76,0,1.42-0.53,1.58-1.28l1.12-5.31l4.46,3.07c0.64,0.44,1.51,0.36,2.06-0.19l2.51-2.52v4.6c0.01,2.3,1.24,4.42,3.23,5.56v8.98
		c0,3.57,2.89,6.46,6.46,6.46h6.46c3.57,0,6.46-2.89,6.46-6.46V81.9c1.99-1.15,3.22-3.27,3.23-5.56v-6.39
		c0.04-2.69,1.45-5.17,3.74-6.6c1.34-0.87,2.61-1.84,3.8-2.91l-2.16-2.41c-1.07,0.95-2.2,1.83-3.4,2.6
		c-3.21,2.01-5.17,5.52-5.21,9.31v6.39c0,1.78-1.45,3.23-3.23,3.23H42.43c-1.78,0-3.23-1.45-3.23-3.23v-6.53
		c-0.04-3.72-1.97-7.16-5.12-9.12c-12.81-8.05-16.66-24.95-8.62-37.76c4.99-7.95,13.71-12.78,23.09-12.81
		c-0.02,0.06-0.05,0.12-0.06,0.18c-0.06,0.42,0.05,0.85,0.31,1.2l3.81,5.08c0.4,0.52,0.44,1.23,0.1,1.79
		c-0.33,0.56-0.97,0.87-1.62,0.78l-6.29-0.9c-0.88-0.13-1.7,0.49-1.83,1.37c0,0,0,0,0,0l-1.37,9.6c-0.13,0.88,0.49,1.7,1.37,1.83
		c0,0,0,0,0,0l6.29,0.9c0.88,0.13,1.5,0.94,1.37,1.83c-0.06,0.42-0.29,0.81-0.63,1.06l-5.08,3.81c-0.71,0.54-0.86,1.55-0.32,2.26
		l5.82,7.76c0.54,0.71,1.55,0.86,2.26,0.32l0,0l5.08-3.81c0.71-0.53,1.73-0.39,2.26,0.33c0.26,0.34,0.37,0.77,0.31,1.19l-0.9,6.29
		c-0.13,0.88,0.49,1.7,1.37,1.83c0,0,0,0,0,0l9.6,1.37c0.08,0.01,0.15,0.01,0.23,0.01c0.8,0,1.49-0.59,1.6-1.39l0.9-6.29
		c0.13-0.88,0.94-1.5,1.83-1.37c0.42,0.06,0.81,0.29,1.06,0.63l3.81,5.08c0.54,0.71,1.55,0.86,2.26,0.32l0,0l7.76-5.82
		c0.71-0.54,0.86-1.55,0.32-2.26l-3.81-5.08c-0.4-0.52-0.44-1.23-0.1-1.79c0.32-0.57,0.97-0.88,1.62-0.78l6.29,0.9
		c0.88,0.13,1.7-0.49,1.83-1.37c0,0,0,0,0,0l1.37-9.6C97.48,26.5,96.87,25.68,95.98,25.55C95.99,25.55,95.99,25.55,95.98,25.55
		L95.98,25.55z M21.07,50.49c1.49,3.2,3.51,6.13,6,8.64c-1.21,3.35-4.9,5.09-8.26,3.89c-3.35-1.21-5.09-4.9-3.89-8.26
		c0.92-2.57,3.36-4.27,6.09-4.27C21.03,50.49,21.04,50.49,21.07,50.49z M52.13,94.11h-6.46c-1.78,0-3.23-1.45-3.23-3.23v-1.62h12.93
		v1.62C55.36,92.67,53.91,94.11,52.13,94.11z M55.36,82.8v3.23H42.43V82.8H55.36z M35.59,67.55l-3.47,3.46l-3.36-2.31
		c-1.47-1.01-3.48-0.64-4.49,0.83c-0.24,0.35-0.41,0.75-0.5,1.17l-0.85,4.03h-3.84l-0.85-4.03c-0.37-1.75-2.08-2.86-3.83-2.5
		c-0.42,0.09-0.82,0.26-1.17,0.5l-3.36,2.31l-2.94-2.94l2.31-3.35c1.01-1.47,0.64-3.48-0.82-4.49c-0.35-0.24-0.75-0.41-1.17-0.5
		l-4.03-0.85v-3.84l4.03-0.85c1.75-0.37,2.86-2.09,2.49-3.83c-0.09-0.41-0.26-0.81-0.5-1.16l-2.31-3.36l2.94-2.94l3.36,2.31
		c1.47,1.01,3.48,0.64,4.49-0.83c0.24-0.35,0.41-0.75,0.5-1.17l0.28-1.34c0.26,1.86,0.69,3.7,1.28,5.48
		c-5.32,0.63-9.11,5.46-8.48,10.77c0.63,5.32,5.46,9.11,10.77,8.48c3.2-0.38,6-2.33,7.47-5.2c0.88,0.72,1.8,1.39,2.76,2.01
		C33.86,64.38,35.01,65.84,35.59,67.55z M93.01,34.92l-4.69-0.67c-2.65-0.38-5.11,1.46-5.48,4.11c-0.18,1.27,0.15,2.57,0.92,3.59
		l2.84,3.79l-5.17,3.88l-2.84-3.78c-1.61-2.14-4.64-2.58-6.79-0.97c-1.03,0.77-1.71,1.92-1.89,3.19l-0.65,4.69l-6.4-0.91l0.67-4.69
		c0.38-2.65-1.46-5.11-4.11-5.49c-1.27-0.18-2.57,0.15-3.6,0.92l-3.79,2.84l-3.88-5.17l3.78-2.84c2.14-1.61,2.58-4.64,0.97-6.79
		c-0.77-1.03-1.92-1.71-3.19-1.89l-4.69-0.67l0.91-6.4l4.69,0.67c2.65,0.38,5.11-1.46,5.49-4.11c0.18-1.27-0.15-2.57-0.92-3.6
		l-2.85-3.79l5.17-3.88l2.84,3.79c1.61,2.14,4.64,2.58,6.79,0.97c1.03-0.77,1.71-1.92,1.89-3.19l0.67-4.69l6.4,0.91l-0.67,4.69
		c-0.38,2.65,1.46,5.11,4.11,5.48c1.27,0.18,2.57-0.15,3.59-0.92l3.79-2.84l3.88,5.17l-3.79,2.84c-2.14,1.61-2.58,4.64-0.97,6.79
		c0.77,1.03,1.92,1.71,3.19,1.89l4.69,0.67L93.01,34.92z"/>
	<path class="st4" d="M69.48,15.37c-7.14,0-12.93,5.79-12.93,12.93s5.79,12.93,12.93,12.93S82.4,35.43,82.4,28.29
		C82.39,21.16,76.61,15.38,69.48,15.37z M69.48,37.99c-5.35,0-9.69-4.34-9.69-9.69s4.34-9.69,9.69-9.69c5.35,0,9.69,4.34,9.69,9.69
		C79.16,33.65,74.83,37.98,69.48,37.99z"/>
	<rect x="47.28" y="71.49" class="st4" width="3.23" height="4.85"/>
	<path class="st4" d="M41.83,55.62c-9.97-3.9-14.9-15.14-11-25.11c1.51-3.86,4.22-7.14,7.73-9.35l-1.73-2.73
		c-10.57,6.66-13.74,20.63-7.08,31.2c2.58,4.09,6.4,7.25,10.91,9.01c3.99,1.53,6.62,5.36,6.62,9.63h3.23
		C50.52,62.66,47.06,57.63,41.83,55.62z"/>
	<rect x="79.6" y="60.18" class="st4" width="11.31" height="3.23"/>
	
		<rect x="81.21" y="67.61" transform="matrix(0.6401 -0.7683 0.7683 0.6401 -26.9799 90.2364)" class="st4" width="3.23" height="12.62"/>
	<rect x="69.9" y="73.11" class="st4" width="3.23" height="11.31"/>
	
		<rect x="1.84" y="26.25" transform="matrix(0.9701 -0.2425 0.2425 0.9701 -6.5048 2.8947)" class="st4" width="13.32" height="3.23"/>
	
		<rect x="9.31" y="7.19" transform="matrix(0.5812 -0.8137 0.8137 0.5812 -6.9268 14.8117)" class="st4" width="3.23" height="13.9"/>
	
		<rect x="19.78" y="0.19" transform="matrix(0.9688 -0.2477 0.2477 0.9688 -1.0331 5.5126)" class="st4" width="3.23" height="13.34"/>
</g>
</svg>
